<svg width="25" height="21" viewBox="0 0 25 21" fill="none" xmlns="http://www.w3.org/2000/svg">
<path d="M0 1.5C0 0.671573 0.671573 0 1.5 0H23.5C24.3284 0 25 0.671573 25 1.5C25 2.32843 24.3284 3 23.5 3H1.5C0.671573 3 0 2.32843 0 1.5Z" fill="#1F1F29"/>
<path d="M0 10.5C0 9.67157 0.671573 9 1.5 9H23.5C24.3284 9 25 9.67157 25 10.5C25 11.3284 24.3284 12 23.5 12H1.5C0.671573 12 0 11.3284 0 10.5Z" fill="#1F1F29"/>
<path d="M0 19.5C0 18.6716 0.671573 18 1.5 18H23.5C24.3284 18 25 18.6716 25 19.5C25 20.3284 24.3284 21 23.5 21H1.5C0.671573 21 0 20.3284 0 19.5Z" fill="#1F1F29"/>
</svg>
