<svg width="75" height="15" viewBox="0 0 75 15" fill="none" xmlns="http://www.w3.org/2000/svg">
<g clip-path="url(#clip0_7319_10979)">
<path fill-rule="evenodd" clip-rule="evenodd" d="M12.418 9.36986C12.418 12.6164 14.8361 15.0411 18.0328 15.0411C21.2705 15.0411 23.6885 12.6575 23.6885 9.41096C23.6885 8.83562 23.6885 9.9452 23.6885 9.36986C23.6885 6.08219 21.2705 3.69863 18.0328 3.69863C14.7951 3.69863 12.418 6.12329 12.418 9.36986ZM15 9.36986C15 7.68493 16.3115 6.20548 18.0328 6.20548C19.7541 6.20548 21.0656 7.64384 21.0656 9.36986V9.41096C21.0656 11.0959 19.7541 12.5753 18.0328 12.5753C16.3115 12.4932 15 11.0548 15 9.36986C15 9.9452 15 8.79452 15 9.36986ZM8.68852 4.56164V0.575342C8.68852 0.246575 8.97541 0 9.26229 0H10.6967C11.0246 0 11.2705 0.287671 11.2705 0.575342L11.2295 9.36986C11.2295 12.6164 8.81148 15 5.57377 15C2.41803 15 0 12.6164 0 9.36986C0 6.20548 2.45902 3.57534 5.65574 3.57534C6.80328 3.57534 7.82787 3.90411 8.68852 4.56164ZM27.377 9.36986C27.377 7.68493 28.6885 6.20548 30.4098 6.20548C31.1885 6.20548 31.8443 6.49315 32.377 6.9863C32.459 7.0274 32.5 7.06849 32.582 7.06849H35.041C35.1639 7.06849 35.2459 7.0274 35.3279 6.90411C35.3689 6.78082 35.4098 6.69863 35.3279 6.57534C34.3852 4.84931 32.582 3.69863 30.3689 3.69863C27.1311 3.69863 24.7541 6.12329 24.7541 9.36986C24.7541 12.6164 27.1721 15.0411 30.3689 15.0411C32.582 15.0411 34.3852 13.9315 35.3279 12.1644C35.3689 12.0411 35.3689 11.9589 35.3279 11.8356C35.2869 11.7123 35.1639 11.6712 35.041 11.6712H32.582C32.5 11.6712 32.418 11.7123 32.377 11.7534C31.8443 12.2466 31.1475 12.5342 30.4098 12.5342C28.6885 12.4932 27.377 11.0548 27.377 9.36986C27.377 9.9452 27.377 8.79452 27.377 9.36986ZM2.62295 9.36986C2.62295 11.0548 3.93443 12.5342 5.65574 12.5342C7.37705 12.5342 8.68852 11.0959 8.68852 9.36986C8.68852 7.68493 7.37705 6.24657 5.65574 6.24657C3.93443 6.24657 2.62295 7.68493 2.62295 9.36986Z" fill="#034694"/>
<path fill-rule="evenodd" clip-rule="evenodd" d="M39.4672 14.7534H40.9836C41.2705 14.7534 41.5164 14.5068 41.5164 14.2192V8.05479L44.1803 10.726C44.3852 10.9315 44.7131 10.9315 44.918 10.726L47.582 8.05479V14.1781C47.582 14.4658 47.8279 14.7123 48.1147 14.7123H49.6311C49.918 14.7123 50.1639 14.4658 50.1639 14.1781V4.56164C50.1639 4.27397 49.918 4.0274 49.6311 4.0274H48.1147C47.9508 4.0274 47.8279 4.10959 47.7459 4.19178L44.5492 7.39726L41.3525 4.19178C41.2705 4.10959 41.1065 4.0274 40.9836 4.0274H39.4672C39.1803 4.0274 38.9344 4.27397 38.9344 4.56164V14.1781C38.9344 14.5068 39.1803 14.7534 39.4672 14.7534ZM66.3115 9.36986C66.3115 11.0548 67.6229 12.5342 69.3442 12.5342C71.0656 12.5342 72.377 11.0959 72.377 9.36986C72.377 7.68493 71.0656 6.24657 69.3442 6.24657C67.6639 6.24657 66.3115 7.68493 66.3115 9.36986ZM72.377 4.56164V0.575342C72.377 0.246575 72.6639 0 72.9508 0H74.3852C74.7131 0 74.959 0.287671 74.959 0.575342L75 9.36986C75 12.6164 72.582 15 69.3442 15C66.1065 15 63.6885 12.5753 63.7295 9.32877C63.7295 6.16438 66.1885 3.53425 69.3852 3.53425C70.5328 3.57534 71.5164 3.90411 72.377 4.56164ZM59.8361 8.30137C59.4262 7.10959 58.3197 6.20548 57.0082 6.20548C55.6557 6.20548 54.5492 7.10959 54.1393 8.30137H59.8361ZM54.1393 10.4384C54.5492 11.6301 55.6557 12.5342 57.0082 12.5342C57.7869 12.5342 58.4426 12.2466 58.9754 11.7534C59.0574 11.7123 59.0983 11.6712 59.1803 11.6712H61.6393C61.7623 11.6712 61.8443 11.7123 61.9262 11.8356C61.9672 11.9589 62.0082 12.0411 61.9262 12.1644C60.9836 13.8904 59.1803 15.0411 56.9672 15.0411C53.7295 15.0411 51.3115 12.6575 51.3115 9.41096C51.3115 8.83562 51.3115 9.9452 51.3115 9.36986C51.3115 6.12329 53.7295 3.73973 56.9672 3.73973C60.2049 3.73973 62.582 6.16438 62.582 9.41096C62.582 9.57534 62.582 9.78082 62.541 9.94521C62.5 10.2329 62.2541 10.4795 61.9672 10.4795H54.1393V10.4384Z" fill="#00B9F2"/>
</g>
<defs>
<clipPath id="clip0_7319_10979">
<rect width="75" height="15" fill="white"/>
</clipPath>
</defs>
</svg>
