<?xml version="1.0" standalone="no"?>
<!DOCTYPE svg PUBLIC "-//W3C//DTD SVG 1.1//EN" "http://www.w3.org/Graphics/SVG/1.1/DTD/svg11.dtd" >
<svg xmlns="http://www.w3.org/2000/svg" xmlns:xlink="http://www.w3.org/1999/xlink" version="1.1">
<metadata>
Created by FontForge 20170731 at Wed Sep  1 14:14:22 2021
 By Aleksey,,,
Copyright (c) 2015 by Letters from Sweden. All rights reserved. |DCNT
</metadata>
<defs>
<font id="LabGrotesque-Regular" horiz-adv-x="1208" >
  <font-face 
    font-family="Lab Grotesque"
    font-weight="400"
    font-stretch="normal"
    units-per-em="2048"
    panose-1="0 0 5 0 0 0 0 0 0 0"
    ascent="1536"
    descent="-512"
    x-height="1008"
    cap-height="1454"
    bbox="-852 -518 3568 1921"
    underline-thickness="120"
    underline-position="-448"
    unicode-range="U+0020-FB02"
  />
<missing-glyph horiz-adv-x="1185" 
d="M981 1659v-1864h-776v1864h776z" />
    <glyph glyph-name="fi" unicode="fi" horiz-adv-x="1134" 
d="M522 1479q67 0 162 -25l-27 -135q-70 12 -106 12q-84 0 -118 -41.5t-34 -142.5v-139h252v-134h-252v-874h-176v874h-186v134h186v159q0 150 77 231t222 81zM819 1417h176v-211h-176v211zM819 0v1008h176v-1008h-176z" />
    <glyph glyph-name="fl" unicode="fl" horiz-adv-x="1138" 
d="M522 1479q67 0 162 -25l-27 -135q-70 12 -106 12q-84 0 -118 -41.5t-34 -142.5v-139h252v-134h-252v-874h-176v874h-186v134h186v159q0 150 77 231t222 81zM819 1454h176v-1454h-176v1454z" />
    <glyph glyph-name="f_f.liga" unicode="ff" horiz-adv-x="1347" 
d="M399 1155v-147h209v-134h-209v-874h-176v874h-186v134h186v168q0 150 78 230.5t225 80.5q96 0 203 -35l-35 -135q-93 22 -139 22q-85 0 -120.5 -42t-35.5 -142zM1053 1155v-147h252v-134h-252v-874h-176v874h-168v134h168v168q0 150 78 230.5t225 80.5q95 0 202 -35
l-34 -135q-93 22 -140 22q-85 0 -120 -42t-35 -142z" />
    <glyph glyph-name="f_f_i.liga" unicode="ffi" horiz-adv-x="1785" 
d="M399 1149v-141h209v-134h-209v-874h-176v874h-186v134h186v159q0 150 78 231t225 81q96 0 203 -35l-35 -135q-80 22 -139 22q-85 0 -120.5 -42t-35.5 -140zM1174 1479q68 0 163 -25l-26 -135q-71 12 -107 12q-84 0 -117.5 -41.5t-33.5 -142.5v-139h252v-134h-252v-874
h-176v874h-168v134h168v159q0 149 77.5 230.5t219.5 81.5zM1473 1417h176v-211h-176v211zM1473 0v1008h176v-1008h-176z" />
    <glyph glyph-name="f_f_j.liga" unicode="ffj" horiz-adv-x="1785" 
d="M399 1149v-141h209v-134h-209v-874h-176v874h-186v134h186v159q0 150 78 231t225 81q96 0 203 -35l-35 -135q-80 22 -139 22q-85 0 -120.5 -42t-35.5 -140zM1305 874h-252v-874h-176v874h-168v134h168v159q0 149 77.5 230.5t219.5 81.5q68 0 163 -25l-26 -135
q-71 12 -107 12q-84 0 -117.5 -41.5t-33.5 -142.5v-139h252v-134zM1473 1417h176v-211h-176v211zM1473 -76v1084h176v-1084q0 -315 -285 -315q-92 0 -197 31l37 133q88 -21 139 -21q71 0 100.5 41t29.5 131z" />
    <glyph glyph-name="f_j.liga" unicode="fj" horiz-adv-x="1134" 
d="M651 874h-252v-874h-176v874h-186v134h186v159q0 150 77 231t222 81q67 0 162 -25l-27 -135q-70 12 -106 12q-84 0 -118 -41.5t-34 -142.5v-139h252v-134zM819 1417h176v-211h-176v211zM819 -76v1084h176v-1086q0 -157 -69.5 -235t-214.5 -78q-104 0 -195 31l35 133
q89 -21 139 -21q71 0 100 40t29 132z" />
    <glyph glyph-name=".notdef" horiz-adv-x="1185" 
d="M981 1659v-1864h-776v1864h776z" />
    <glyph glyph-name=".null" horiz-adv-x="0" 
 />
    <glyph glyph-name="nonmarkingreturn" horiz-adv-x="682" 
 />
    <glyph glyph-name="space" unicode=" " horiz-adv-x="464" 
 />
    <glyph glyph-name="exclam" unicode="!" horiz-adv-x="559" 
d="M385 1454v-436l-41 -606h-108l-41 606v436h190zM395 221v-221h-211v221h211z" />
    <glyph glyph-name="quotedbl" unicode="&#x22;" horiz-adv-x="768" 
d="M285 1454l-19 -479h-131l-18 479h168zM649 1454l-18 -479h-131l-19 479h168z" />
    <glyph glyph-name="numbersign" unicode="#" 
d="M1163 893h-202l-82 -389h200l-26 -125h-201l-80 -379h-143l80 379h-318l-80 -379h-143l80 379h-205l27 125h204l82 389h-202l26 125h203l80 375h143l-80 -375h318l80 375h143l-80 -375h203zM735 504l82 389h-317l-82 -389h317z" />
    <glyph glyph-name="dollar" unicode="$" horiz-adv-x="1249" 
d="M698 -29v-176h-135v176q-136 10 -250.5 65t-242.5 171l110 121q113 -98 201.5 -143t181.5 -56v533q-246 67 -336 145t-90 233q0 154 121.5 261t304.5 122v174h135v-176q122 -10 223 -57.5t205 -140.5l-110 -123q-85 78 -160 116.5t-158 49.5v-473q240 -60 337.5 -151
t97.5 -255q0 -174 -119 -287q-120 -114 -316 -129zM563 829v439q-116 -13 -185 -74.5t-69 -149.5q0 -84 56.5 -130t197.5 -85zM958 381q0 95 -61 149.5t-199 94.5v-496q118 12 189 80t71 172z" />
    <glyph glyph-name="percent" unicode="%" horiz-adv-x="1757" 
d="M1315 1423l110 -67l-974 -1387l-109 70zM1640 307q0 -143 -91 -235t-226 -92t-226 92t-91 235q0 141 91 233.5t226 92.5t226 -92.5t91 -233.5zM1141 307q0 -93 49 -151t133 -58t133 58t49 151q0 91 -50.5 149t-131.5 58t-131.5 -58t-50.5 -149zM752 1090
q0 -143 -91.5 -235.5t-226.5 -92.5t-226 92.5t-91 235.5q0 141 91 233t226 92t226.5 -92t91.5 -233zM252 1090q0 -93 49 -151t133 -58t133 58t49 151q0 91 -50.5 148.5t-131.5 57.5t-131.5 -57.5t-50.5 -148.5z" />
    <glyph glyph-name="ampersand" unicode="&#x26;" horiz-adv-x="1431" 
d="M1417 0h-217l-176 205q-107 -122 -216.5 -179t-256.5 -57q-200 0 -327.5 110.5t-127.5 278.5q0 152 88 256q87 103 297 224q-83 99 -121 173t-38 156q0 134 103 223t253 89q151 0 249.5 -86t98.5 -213q0 -116 -63 -197q-60 -81 -232 -184l293 -342l209 260l127 -92
l-230 -291zM489 1165q0 -56 32.5 -110t111.5 -144q138 80 180 133q49 58 49 136q0 73 -53 119.5t-133 46.5t-134 -51t-53 -130zM920 328l-342 399q-173 -104 -238 -178q-66 -78 -66 -178q0 -112 80 -183t205 -71q104 0 184.5 49.5t176.5 161.5z" />
    <glyph glyph-name="quotesingle" unicode="'" horiz-adv-x="401" 
d="M285 1454l-19 -479h-131l-18 479h168z" />
    <glyph glyph-name="parenleft" unicode="(" horiz-adv-x="690" 
d="M563 1604l113 -95q-178 -216 -264 -424q-86 -207 -86 -456q0 -252 86 -459q88 -203 264 -422l-113 -94q-198 219 -305 448q-106 227 -106 527q0 299 106 526q108 231 305 449z" />
    <glyph glyph-name="parenright" unicode=")" horiz-adv-x="690" 
d="M127 -344l-113 94q180 222 265 424q86 207 86 457q0 249 -89 456q-85 205 -262 424l113 95q208 -227 311 -459t103 -516q0 -283 -103.5 -515.5t-310.5 -459.5z" />
    <glyph glyph-name="asterisk" unicode="*" horiz-adv-x="892" 
d="M506 1454v-274l254 86l37 -105l-262 -84l172 -221l-93 -70l-172 228l-163 -223l-95 71l174 215l-262 86l35 105l254 -88v274h121z" />
    <glyph glyph-name="plus" unicode="+" horiz-adv-x="1228" 
d="M692 1167v-456h455v-152h-455v-457h-155v457h-455v152h455v456h155z" />
    <glyph glyph-name="comma" unicode="," horiz-adv-x="442" 
d="M338 221v-221l-125 -256h-107l113 256h-102v221h221z" />
    <glyph glyph-name="hyphen" unicode="-" horiz-adv-x="829" 
d="M713 668v-158h-596v158h596z" />
    <glyph glyph-name="period" unicode="." horiz-adv-x="442" 
d="M326 221v-221h-209v221h209z" />
    <glyph glyph-name="slash" unicode="/" horiz-adv-x="897" 
d="M852 1454l-635 -1454h-172l635 1454h172z" />
    <glyph glyph-name="zero" unicode="0" 
d="M1028 1167q98 -189 98 -471t-98 -471q-64 -125 -171.5 -191.5t-252.5 -66.5t-252.5 66.5t-171.5 191.5q-98 189 -98 471t98 471q64 125 171.5 191.5t252.5 66.5t252.5 -66.5t171.5 -191.5zM340 1090q-74 -151 -74 -394q0 -242 74 -393q85 -180 264 -180t264 180
q74 151 74 393q0 243 -74 394q-85 180 -264 180t-264 -180z" />
    <glyph glyph-name="one" unicode="1" horiz-adv-x="942" 
d="M498 1393h137v-1393h-180v1163l-295 -209l-90 125z" />
    <glyph glyph-name="two" unicode="2" horiz-adv-x="1171" 
d="M268 154h811v-154h-995v68q0 140 53 243q55 101 135 166q98 76 230 156l102 59q113 65 158 96q131 95 131 238q0 114 -75.5 179t-194.5 65t-207 -58q-92 -61 -197 -192l-133 94q108 157 236.5 234t295.5 77q204 0 330.5 -111.5t126.5 -281.5q0 -121 -49 -203
q-48 -81 -123 -137q-66 -52 -198 -129l-97 -57l-39 -23q-99 -60 -157 -102q-125 -93 -144 -227z" />
    <glyph glyph-name="three" unicode="3" horiz-adv-x="1177" 
d="M1069 422q0 -85 -33 -166t-93.5 -145.5t-155.5 -104t-209 -39.5q-137 0 -259.5 40.5t-257.5 131.5l93 133q130 -82 222.5 -115.5t194.5 -33.5q141 0 228.5 83.5t87.5 213.5q0 128 -87.5 201t-246.5 73q-104 0 -166 -26l-84 114l500 457h-672v154h897v-150l-450 -409h26
q202 0 333.5 -111t131.5 -301z" />
    <glyph glyph-name="four" unicode="4" horiz-adv-x="1187" 
d="M942 475h209v-149h-209v-326h-176v326h-707v163l578 904h201l-586 -918h514v318h176v-318z" />
    <glyph glyph-name="five" unicode="5" horiz-adv-x="1202" 
d="M1096 455q0 -129 -61 -240t-176 -179.5t-259 -68.5q-149 0 -264 41q-105 37 -262 144l90 133q144 -95 225 -127q90 -35 195 -35q147 0 238 92.5t91 230.5t-82.5 220t-228.5 82q-171 0 -285 -111l-157 16l61 740h809v-154h-655l-35 -432q118 92 295 92q206 0 333.5 -124.5
t127.5 -319.5z" />
    <glyph glyph-name="six" unicode="6" horiz-adv-x="1206" 
d="M1124 444q0 -127 -59.5 -234.5t-176 -174t-267.5 -66.5q-158 0 -276 71t-178.5 193.5t-60.5 278.5q0 212 107 398.5t322 387.5l100 95h242v-2l-222 -203q-229 -207 -321 -402q119 125 325 125q138 0 245 -64t163.5 -170t56.5 -233zM942 442q0 139 -85 228.5t-228 89.5
q-152 0 -244 -89.5t-92 -228.5q0 -136 90 -229q90 -90 238 -90q146 0 233.5 89t87.5 230z" />
    <glyph glyph-name="seven" unicode="7" horiz-adv-x="1095" 
d="M49 1393h1000v-131q-206 -256 -363 -590q-159 -341 -205 -672h-196q44 316 198 643q153 328 357 598h-791v152z" />
    <glyph glyph-name="eight" unicode="8" horiz-adv-x="1206" 
d="M1126 383q0 -181 -142.5 -298.5t-381.5 -117.5q-238 0 -380 117.5t-142 298.5q0 131 69.5 228.5t196.5 144.5q-93 45 -143.5 123t-50.5 180q0 163 124.5 264.5t325.5 101.5q202 0 327.5 -101.5t125.5 -264.5q0 -102 -52 -180t-145 -123q129 -49 198.5 -146.5t69.5 -226.5
zM326 1055q0 -103 76.5 -168.5t199.5 -65.5q124 0 201.5 65.5t77.5 168.5q0 100 -76 162.5t-203 62.5q-124 0 -200 -62.5t-76 -162.5zM942 393q0 129 -91.5 207t-248.5 78q-154 0 -246 -78.5t-92 -206.5q0 -120 92.5 -197t245.5 -77q156 0 248 76.5t92 197.5z" />
    <glyph glyph-name="nine" unicode="9" horiz-adv-x="1206" 
d="M1100 881q0 -212 -106.5 -399t-321.5 -388l-101 -94h-239v2l221 203q230 208 321 401q-119 -125 -327 -125q-137 0 -244.5 64.5t-164 170.5t-56.5 232q0 94 35.5 180t99.5 151.5t160 104.5t209 39q158 0 276 -71t178 -193t60 -278zM913 950q0 138 -90 228q-89 92 -237 92
q-146 0 -234 -89.5t-88 -230.5q0 -139 86 -228t230 -89q151 0 241 90q92 89 92 227z" />
    <glyph glyph-name="colon" unicode=":" horiz-adv-x="524" 
d="M367 1008v-222h-209v222h209zM367 221v-221h-209v221h209z" />
    <glyph glyph-name="semicolon" unicode=";" horiz-adv-x="524" 
d="M387 221v-221l-125 -256h-106l112 256h-102v221h221zM381 1008v-222h-209v222h209z" />
    <glyph glyph-name="less" unicode="&#x3c;" horiz-adv-x="1228" 
d="M1106 1083v-163l-787 -285l787 -285v-164l-983 369v160z" />
    <glyph glyph-name="equal" unicode="=" horiz-adv-x="1228" 
d="M1147 915v-151h-1065v151h1065zM1147 506v-152h-1065v152h1065z" />
    <glyph glyph-name="greater" unicode="&#x3e;" horiz-adv-x="1228" 
d="M123 1083l983 -368v-160l-983 -369v164l786 285l-786 285v163z" />
    <glyph glyph-name="question" unicode="?" horiz-adv-x="1005" 
d="M971 1118q0 -78 -31 -145q-29 -60 -70.5 -106.5t-121.5 -114.5l-48 -43q-82 -71 -122 -125q-35 -47 -41 -123l-7 -60h-145v74q3 123 34 180.5t154 167.5l37 31q97 80 135.5 134.5t38.5 125.5q0 96 -70 152.5t-186 56.5q-91 0 -171.5 -37.5t-194.5 -130.5l-107 121
q122 109 234.5 160t242.5 51q187 0 313 -99t126 -270zM565 221v-221h-209v221h209z" />
    <glyph glyph-name="at" unicode="@" horiz-adv-x="1939" 
d="M1423 942l-114 -536q-15 -62 -15 -107q0 -149 150 -149q112 0 185 116t73 307q0 166 -55 299t-151.5 219t-224 131.5t-276.5 45.5q-220 3 -393 -100t-266.5 -283.5t-91.5 -403.5q0 -165 52 -302t150 -236t247 -154t335 -55h447v-123h-482q-204 -1 -373.5 63.5t-285 180
t-178 277.5t-60.5 353q-2 192 62 360.5t180 290.5t284 191.5t365 67.5q185 2 344.5 -57t273 -165t177 -259.5t61.5 -333.5q0 -246 -113.5 -396.5t-295.5 -150.5q-123 0 -189.5 54.5t-81.5 141.5q-125 -196 -342 -196q-145 0 -225 84.5t-80 234.5q-1 106 35 215.5t98.5 197.5
t155 142.5t194.5 50.5q101 0 166 -42t84 -117l27 143h147zM1184 637q0 99 -40.5 146.5t-131.5 47.5q-94 3 -174 -69.5t-122.5 -180.5t-41.5 -216q0 -99 44 -151t124 -52q65 -2 122.5 30.5t97 85t68 117.5t42 127.5t12.5 114.5z" />
    <glyph glyph-name="A" unicode="A" horiz-adv-x="1370" 
d="M1143 0l-131 371h-656l-131 -371h-190l526 1454h248l528 -1454h-194zM414 530h540l-67 191q-139 370 -205 592q-54 -181 -178 -529l-23 -65z" />
    <glyph glyph-name="B" unicode="B" horiz-adv-x="1366" 
d="M1286 408q0 -188 -121.5 -298t-324.5 -110h-672v1454h641q194 0 310 -97.5t116 -271.5q0 -116 -60 -197.5t-167 -119.5q132 -39 205 -131t73 -229zM356 1303v-465h414q133 0 207 62t74 175q0 110 -72.5 169t-206.5 59h-416zM1098 418q0 124 -85 196t-233 72h-424v-534
h424q152 0 235 71t83 195z" />
    <glyph glyph-name="C" unicode="C" horiz-adv-x="1370" 
d="M1303 1280l-111 -131q-113 95 -207.5 133.5t-198.5 38.5q-231 0 -370.5 -165t-139.5 -429q0 -261 139 -427.5t359 -166.5q120 0 216 48.5t222 164.5l117 -127q-142 -136 -268 -194t-285 -58q-208 0 -366 99t-241 271t-83 392t82.5 391t242.5 269t375 98q145 0 266.5 -48
t250.5 -159z" />
    <glyph glyph-name="D" unicode="D" horiz-adv-x="1439" 
d="M1354 727q0 -216 -74.5 -379t-221 -255.5t-347.5 -92.5h-543v1454h543q201 0 347.5 -92.5t221 -255.5t74.5 -379zM680 1296h-324v-1138h324q228 0 354.5 150t126.5 419q0 267 -126.5 418t-354.5 151z" />
    <glyph glyph-name="E" unicode="E" horiz-adv-x="1247" 
d="M1135 1454v-158h-779v-469h725v-157h-725v-512h797v-158h-985v1454h967z" />
    <glyph glyph-name="F" unicode="F" horiz-adv-x="1216" 
d="M1135 1454v-158h-779v-499h719v-158h-719v-639h-188v1454h967z" />
    <glyph glyph-name="G" unicode="G" horiz-adv-x="1517" 
d="M741 602v160h641v-762h-147l-14 184q-135 -215 -453 -215q-211 0 -366.5 97t-235.5 267.5t-80 393.5q0 220 84 391t245 269t376 98q175 0 315 -66.5t278 -210.5l-120 -123q-131 131 -234 181q-106 53 -244 53q-226 0 -368 -163.5t-142 -428.5q0 -271 136 -432.5
t366 -161.5q192 0 312 111q118 109 118 301v57h-467z" />
    <glyph glyph-name="H" unicode="H" horiz-adv-x="1492" 
d="M1325 1454v-1454h-190v676h-779v-676h-188v1454h188v-620h779v620h190z" />
    <glyph glyph-name="I" unicode="I" horiz-adv-x="552" 
d="M371 1454v-1454h-189v1454h189z" />
    <glyph glyph-name="J" unicode="J" horiz-adv-x="946" 
d="M788 1454v-1079q0 -400 -393 -400q-185 0 -370 97l65 147q98 -41 164.5 -59.5t134.5 -18.5q211 0 211 250v1063h188z" />
    <glyph glyph-name="K" unicode="K" horiz-adv-x="1347" 
d="M1114 0l-498 750l-260 -269v-481h-188v1454h188v-743l709 743h235l-555 -573l584 -881h-215z" />
    <glyph glyph-name="L" unicode="L" horiz-adv-x="1116" 
d="M356 1454v-1294h705v-160h-893v1454h188z" />
    <glyph glyph-name="M" unicode="M" horiz-adv-x="1781" 
d="M1313 1454h301v-1454h-184v727q0 299 6 592q-41 -126 -121 -344l-86 -248l-254 -727h-166l-260 727q-147 407 -207 588q6 -293 6 -590v-725h-180v1454h301l229 -641q148 -419 195 -584q72 239 192 584z" />
    <glyph glyph-name="N" unicode="N" horiz-adv-x="1499" 
d="M1147 1454h184v-1454h-209l-430 662q-209 313 -350 555q10 -332 10 -564v-653h-184v1454h211l436 -672l53 -82q229 -357 289 -460q-10 325 -10 551v663z" />
    <glyph glyph-name="O" unicode="O" horiz-adv-x="1552" 
d="M1466 727q0 -163 -48.5 -302.5t-137 -241t-218.5 -159t-286 -57.5t-286 57.5t-218.5 159t-137 241t-48.5 302.5t48.5 302.5t137 241t218.5 159t286 57.5t286 -57.5t218.5 -159t137 -241t48.5 -302.5zM279 727q0 -263 138 -428.5t359 -165.5q223 0 360.5 165t137.5 429
q0 261 -137.5 427.5t-360.5 166.5q-220 0 -358.5 -166.5t-138.5 -427.5z" />
    <glyph glyph-name="P" unicode="P" horiz-adv-x="1333" 
d="M1266 1020q0 -206 -131 -322q-129 -114 -342 -114h-437v-584h-188v1454h625q217 0 345 -116t128 -318zM766 1296h-410v-555h410q147 0 229 72.5t82 206.5q0 133 -82 204.5t-229 71.5z" />
    <glyph glyph-name="Q" unicode="Q" horiz-adv-x="1552" 
d="M1225 127l125 -166l-138 -96l-127 170q-142 -68 -309 -68q-156 0 -286 57.5t-218.5 159t-137 241t-48.5 302.5t48.5 302.5t137 241t218.5 159t286 57.5t286 -57.5t218.5 -159t137 -241t48.5 -302.5q0 -190 -62 -345.5t-179 -254.5zM979 176l-193 254l136 96l192 -254
q78 78 119 195.5t41 259.5q0 261 -137.5 427.5t-360.5 166.5q-220 0 -358.5 -166.5t-138.5 -427.5q0 -263 138 -428.5t359 -165.5q113 0 203 43z" />
    <glyph glyph-name="R" unicode="R" horiz-adv-x="1368" 
d="M1300 0h-215l-389 584h-340v-584h-188v1454h610q209 0 340 -117.5t131 -316.5q0 -170 -93 -281.5t-255 -142.5zM356 1296v-555h392q148 0 231.5 72.5t83.5 206.5q0 132 -84.5 204t-233.5 72h-389z" />
    <glyph glyph-name="S" unicode="S" horiz-adv-x="1288" 
d="M1180 1272l-111 -131q-115 101 -214 141.5t-224 40.5q-149 0 -241.5 -66.5t-92.5 -171.5q0 -72 43 -118q41 -41 115.5 -67t240.5 -64q280 -64 392 -155t112 -263q0 -200 -150 -325.5t-386 -125.5q-175 0 -314 58t-299 194l113 133q154 -130 264 -176q110 -45 238 -45
q154 0 250 75.5t96 201.5q0 84 -47 131q-43 46 -125 75q-93 33 -234 64q-282 63 -387.5 148.5t-105.5 254.5q0 117 69.5 210t187.5 143.5t261 50.5q163 0 290 -50t259 -163z" />
    <glyph glyph-name="T" unicode="T" horiz-adv-x="1234" 
d="M1171 1454v-160h-458v-1294h-191v1294h-459v160h1108z" />
    <glyph glyph-name="U" unicode="U" horiz-adv-x="1409" 
d="M1253 1454v-991q0 -241 -139 -367.5t-409 -126.5q-269 0 -408 127t-139 367v991h188v-981q0 -166 91 -252t268 -86t267.5 86t90.5 252v981h190z" />
    <glyph glyph-name="V" unicode="V" horiz-adv-x="1296" 
d="M1067 1454h195l-494 -1454h-240l-493 1454h196l240 -721q110 -324 180 -567q62 216 176 565z" />
    <glyph glyph-name="W" unicode="W" horiz-adv-x="1923" 
d="M1671 1454h187l-351 -1454h-231l-178 668q-90 340 -135 542q-36 -175 -134 -544l-180 -666h-233l-353 1454h193l166 -700q55 -237 119 -559q84 349 141 559l190 700h191l186 -700q85 -329 137 -559q55 280 121 559z" />
    <glyph glyph-name="X" unicode="X" horiz-adv-x="1316" 
d="M1292 0h-213l-422 629l-421 -629h-213l522 764l-471 690h211l377 -559l372 559h211l-471 -690z" />
    <glyph glyph-name="Y" unicode="Y" horiz-adv-x="1277" 
d="M1042 1454h205l-516 -833v-621h-188v623l-512 831h209l401 -666z" />
    <glyph glyph-name="Z" unicode="Z" horiz-adv-x="1275" 
d="M1190 1454v-151l-883 -1145h881v-158h-1104v152l883 1144h-844v158h1067z" />
    <glyph glyph-name="bracketleft" unicode="[" horiz-adv-x="671" 
d="M596 1554v-131h-229v-1585h229v-129h-397v1845h397z" />
    <glyph glyph-name="backslash" unicode="\" horiz-adv-x="897" 
d="M45 1454h172l635 -1454h-172z" />
    <glyph glyph-name="bracketright" unicode="]" horiz-adv-x="671" 
d="M76 1554h397v-1845h-397v129h227v1585h-227v131z" />
    <glyph glyph-name="asciicircum" unicode="^" 
d="M686 1454l408 -881h-156l-334 723l-332 -723h-157l409 881h162z" />
    <glyph glyph-name="underscore" unicode="_" horiz-adv-x="1228" 
d="M1239 -266v-123h-1249v123h1249z" />
    <glyph glyph-name="grave" unicode="`" horiz-adv-x="577" 
d="M117 1446h196l148 -289h-156z" />
    <glyph glyph-name="a" unicode="a" horiz-adv-x="1089" 
d="M954 700v-700h-159v125q-51 -76 -139.5 -117t-202.5 -41q-165 0 -263 72.5t-98 210.5q0 161 121 235q125 75 348 115l225 41v51q0 93 -64 146t-171 53q-92 0 -165 -38t-167 -132l-113 100q183 215 439 215q193 0 301 -91t108 -245zM786 377v133l-184 -37
q-77 -16 -123.5 -28t-90.5 -29t-67.5 -38t-38.5 -51t-18 -71q0 -69 54 -106t153 -37q137 0 226 72t89 192z" />
    <glyph glyph-name="b" unicode="b" horiz-adv-x="1171" 
d="M1092 504q0 -235 -126 -383t-319 -148q-236 0 -344 179v-152h-166v1454h176v-588q111 168 334 168q196 0 320.5 -147.5t124.5 -382.5zM911 504q0 172 -79.5 276.5t-210.5 104.5q-141 0 -227.5 -103t-86.5 -278t86.5 -277t227.5 -102q130 0 210 104.5t80 274.5z" />
    <glyph glyph-name="c" unicode="c" horiz-adv-x="1024" 
d="M563 889q-143 0 -225 -111.5t-82 -273.5q0 -158 80 -273q82 -110 229 -110q83 0 148.5 36t152.5 132l117 -99q-97 -120 -193 -169.5t-225 -49.5q-221 0 -355 146t-134 387q0 238 135.5 385t353.5 147q126 0 219.5 -43.5t184.5 -146.5l-115 -109q-78 84 -144.5 118
t-146.5 34z" />
    <glyph glyph-name="d" unicode="d" horiz-adv-x="1171" 
d="M858 1454h176v-1454h-166v156q-113 -183 -344 -183q-194 0 -319 148t-125 383t126.5 382.5t321.5 147.5q220 0 330 -162v582zM864 504q0 175 -86 277t-227 102q-131 0 -211 -104.5t-80 -274.5q0 -172 79 -276.5t212 -104.5q141 0 227 103t86 278z" />
    <glyph glyph-name="e" unicode="e" horiz-adv-x="1093" 
d="M909 287l105 -107q-107 -114 -208.5 -161.5t-230.5 -47.5q-226 0 -362.5 145t-136.5 382q0 238 132 388t349 150q214 0 334.5 -129t120.5 -356q0 -28 -4 -78h-756q8 -159 92.5 -256.5t233.5 -97.5q94 0 161 37q67 36 170 131zM256 604h582q-6 135 -80.5 213t-202.5 78
q-123 0 -201 -76t-98 -215z" />
    <glyph glyph-name="f" unicode="f" horiz-adv-x="694" 
d="M399 1155v-147h254v-134h-254v-874h-176v874h-186v134h186v168q0 150 78 230.5t225 80.5q96 0 203 -35l-35 -135q-93 22 -139 22q-85 0 -120.5 -42t-35.5 -142z" />
    <glyph glyph-name="g" unicode="g" horiz-adv-x="1157" 
d="M856 1008h164v-985q0 -195 -123 -306.5t-334 -111.5q-247 0 -457 149l89 129q111 -69 192 -99t174 -30q133 0 209 70.5t76 212.5v137q-107 -162 -322 -162q-193 0 -317.5 144.5t-124.5 367.5t124.5 367.5t317.5 144.5q224 0 332 -178v150zM850 524q0 161 -82 262
t-215 101q-134 0 -212.5 -100t-78.5 -263t78.5 -262.5t212.5 -99.5q133 0 215 101t82 261z" />
    <glyph glyph-name="h" unicode="h" horiz-adv-x="1116" 
d="M981 690v-690h-176v635q0 123 -59.5 187.5t-172.5 64.5q-108 0 -184 -76q-76 -73 -76 -186v-625h-176v1454h176v-561q106 143 308 143q169 0 264.5 -96.5t95.5 -249.5z" />
    <glyph glyph-name="i" unicode="i" horiz-adv-x="450" 
d="M313 1008v-1008h-176v1008h176zM313 1417v-211h-176v211h176z" />
    <glyph glyph-name="j" unicode="j" horiz-adv-x="458" 
d="M14 -248q71 0 100 40t29 130v1086h176v-1086q0 -315 -284 -315q-93 0 -195 31l35 135q77 -21 139 -21zM319 1417v-211h-176v211h176z" />
    <glyph glyph-name="k" unicode="k" horiz-adv-x="1040" 
d="M831 0l-335 506l-183 -182v-324h-176v1454h176v-936l469 490h215l-383 -390l414 -618h-197z" />
    <glyph glyph-name="l" unicode="l" horiz-adv-x="462" 
d="M319 1454v-1454h-176v1454h176z" />
    <glyph glyph-name="m" unicode="m" horiz-adv-x="1662" 
d="M1528 702v-702h-176v653q0 113 -51 173.5t-150 60.5q-104 0 -167.5 -70.5t-63.5 -183.5v-633h-177v653q0 114 -50.5 174t-149.5 60q-101 0 -165.5 -69.5t-64.5 -184.5v-633h-176v1008h166v-121q91 149 289 149q102 0 177 -43.5t114 -120.5q105 164 309 164
q161 0 248.5 -90.5t87.5 -243.5z" />
    <glyph glyph-name="n" unicode="n" horiz-adv-x="1116" 
d="M981 690v-690h-176v635q0 123 -59.5 187.5t-172.5 64.5q-108 0 -184 -76q-76 -73 -76 -186v-625h-176v1008h166v-129q49 77 131.5 117t186.5 40q172 0 266 -96t94 -250z" />
    <glyph glyph-name="o" unicode="o" horiz-adv-x="1148" 
d="M1073 504q0 -234 -139.5 -383.5t-358.5 -149.5q-220 0 -359.5 149t-139.5 384t139.5 383.5t359.5 148.5q219 0 358.5 -149t139.5 -383zM256 504q0 -173 87 -279t232 -106t231.5 106t86.5 279t-86.5 279t-231.5 106t-232 -106t-87 -279z" />
    <glyph glyph-name="p" unicode="p" horiz-adv-x="1171" 
d="M1092 506q0 -236 -125 -384.5t-320 -148.5q-227 0 -334 162v-504h-176v1377h166v-156q112 182 344 182q195 0 320 -147t125 -381zM911 506q0 171 -78.5 275t-211.5 104q-141 0 -227.5 -102t-86.5 -277q0 -176 86.5 -278.5t227.5 -102.5q131 0 210.5 104.5t79.5 276.5z
" />
    <glyph glyph-name="q" unicode="q" horiz-adv-x="1171" 
d="M868 1008h166v-1377h-176v506q-108 -164 -332 -164q-195 0 -320.5 148t-125.5 383t125.5 382.5t320.5 147.5q231 0 342 -178v152zM864 504q0 176 -86 277.5t-227 101.5q-131 0 -211 -104.5t-80 -274.5q0 -172 80 -276.5t211 -104.5q141 0 227 103t86 278z" />
    <glyph glyph-name="r" unicode="r" horiz-adv-x="733" 
d="M713 989l-33 -147q-70 20 -131 20q-106 0 -171 -87t-65 -234v-541h-176v1008h166v-152q38 77 102 120.5t148 43.5q75 0 160 -31z" />
    <glyph glyph-name="s" unicode="s" horiz-adv-x="980" 
d="M895 889l-96 -119q-92 71 -161 97t-157 26q-99 0 -160 -42t-61 -108q9 -64 53.5 -87t216.5 -62q209 -48 295 -115.5t86 -193.5q0 -141 -110 -227.5t-293 -86.5q-136 0 -241.5 42.5t-223.5 146.5l104 114q109 -89 189 -124q76 -33 174 -33q101 0 165 43t64 116
q0 71 -62 106.5t-220 70.5q-216 48 -289.5 103t-77.5 181q0 132 109 215.5t282 83.5q124 0 219 -33.5t195 -113.5z" />
    <glyph glyph-name="t" unicode="t" horiz-adv-x="729" 
d="M666 156l26 -140q-93 -34 -207 -34q-137 0 -198.5 62t-61.5 189v641h-188v134h188v338h176v-338h273v-134h-273v-620q0 -67 27.5 -95t91.5 -28q54 0 146 25z" />
    <glyph glyph-name="u" unicode="u" horiz-adv-x="1099" 
d="M786 1008h177v-1008h-164v125q-44 -74 -123.5 -114t-181.5 -40q-178 0 -268.5 88.5t-90.5 241.5v707h176v-664q0 -108 54 -164.5t157 -56.5q120 0 192 71t72 199v615z" />
    <glyph glyph-name="v" unicode="v" horiz-adv-x="983" 
d="M772 1008h180l-350 -1008h-223l-348 1008h184l125 -371q105 -324 154 -496q55 195 153 496z" />
    <glyph glyph-name="w" unicode="w" horiz-adv-x="1505" 
d="M1282 1008h180l-282 -1008h-213l-95 322q-69 244 -122 475q-60 -251 -123 -478l-88 -319h-213l-283 1008h182l101 -377q28 -104 114 -477q55 230 123 477l107 377h166l106 -377q75 -265 123 -481q60 263 117 481z" />
    <glyph glyph-name="x" unicode="x" horiz-adv-x="983" 
d="M958 0h-194l-272 406l-275 -406h-192l366 526l-336 482h195l244 -359l239 359h193l-330 -473z" />
    <glyph glyph-name="y" unicode="y" horiz-adv-x="991" 
d="M776 1008h178l-403 -1147q-51 -143 -115 -199.5t-188 -56.5q-89 0 -156 20l31 135q55 -12 108 -12q63 0 101.5 35t68.5 125l13 39l-379 1061h186l113 -334q14 -41 149 -447l17 -51l61 186l103 316z" />
    <glyph glyph-name="z" unicode="z" horiz-adv-x="978" 
d="M889 1008v-129l-592 -734h592v-145h-811v131l596 733h-559v144h774z" />
    <glyph glyph-name="braceleft" unicode="{" horiz-adv-x="749" 
d="M674 1554v-131h-70q-74 0 -102 -22q-30 -24 -33 -55q-4 -46 -4 -138v-313q0 -116 -42.5 -177t-150.5 -79v-4q108 -18 150.5 -79t42.5 -177v-326v-90q0 -73 31.5 -99t107.5 -26h70v-129h-109q-105 0 -161 25.5t-82.5 92t-26.5 193.5v332q0 112 -43.5 156.5t-149.5 44.5
v168q106 0 149.5 44.5t43.5 156.5v321q0 127 26.5 193.5t82.5 92t161 25.5h109z" />
    <glyph glyph-name="bar" unicode="|" horiz-adv-x="784" 
d="M471 1638v-1925h-156v1925h156z" />
    <glyph glyph-name="braceright" unicode="}" horiz-adv-x="749" 
d="M76 1554h108q79 0 128 -13t82.5 -48t47 -95t13.5 -155v-321q0 -112 43 -156.5t149 -44.5v-168q-106 0 -149 -44.5t-43 -156.5v-332q0 -95 -13.5 -155t-47 -95t-82.5 -48t-128 -13h-108v129h71q73 0 103 23q30 24 33 55q4 46 4 137v326q0 116 42 177t150 79v4
q-108 18 -150 79t-42 177v313v90q0 73 -32 99t-108 26h-71v131z" />
    <glyph glyph-name="asciitilde" unicode="~" horiz-adv-x="1228" 
d="M651 762q78 -30 117 -41.5t78 -11.5q59 0 86.5 26.5t32.5 81.5h147q-5 -118 -70 -186t-180 -68q-53 0 -104.5 14t-141.5 50q-82 33 -124 45t-86 12q-61 0 -98.5 -30.5t-43.5 -80.5h-147q5 114 80.5 183t201.5 69q59 0 114.5 -14.5t137.5 -48.5z" />
    <glyph glyph-name="uni00A0" unicode="&#xa0;" horiz-adv-x="464" 
 />
    <glyph glyph-name="exclamdown" unicode="&#xa1;" horiz-adv-x="460" 
d="M127 788v222h209v-222h-209zM135 -444v436l43 606h109l41 -606v-436h-193z" />
    <glyph glyph-name="cent" unicode="&#xa2;" 
d="M711 -25v-180h-138v180q-194 21 -311 162q-115 145 -115 367q0 220 115 362q118 145 311 166v187h138v-187q97 -11 175.5 -55.5t153.5 -132.5l-114 -107q-112 123 -215 144v-752q55 12 107 49t120 111l117 -99q-84 -102 -165.5 -152.5t-178.5 -62.5zM573 127v756
q-115 -23 -180 -128t-65 -251q0 -144 65 -248.5t180 -128.5z" />
    <glyph glyph-name="sterling" unicode="&#xa3;" 
d="M1081 205l64 -139q-149 -93 -297 -93q-104 0 -262 41q-140 35 -219 35q-80 0 -123 -14q-44 -15 -111 -45l-55 143q66 26 111.5 51t83.5 61t57 84t20 111q0 78 -12 140h-201v137h164q-29 85 -42 154t-13 157q0 119 59.5 209.5t158 136t218.5 45.5q123 0 227.5 -38.5
t206.5 -123.5l-100 -129q-97 74 -172.5 105t-159.5 31q-114 0 -184 -65.5t-70 -174.5q0 -86 12 -150q8 -35 43 -157h443v-137h-410q8 -44 8 -119q-3 -172 -141 -266q94 -3 227 -37q155 -31 224 -31q60 0 115 18t130 60z" />
    <glyph glyph-name="currency" unicode="&#xa4;" 
d="M995 1178l90 -88l-135 -136q84 -113 84 -258t-84 -258l133 -133l-90 -88l-135 135q-106 -69 -250 -69q-147 0 -254 73l-141 -141l-88 88l139 139q-82 107 -82 254q0 143 80 252l-139 139l90 89l139 -142q107 76 256 76q141 0 248 -70zM324 696q0 -126 79 -203t205 -77
t205.5 77t79.5 203t-79.5 203.5t-205.5 77.5t-205 -77.5t-79 -203.5z" />
    <glyph glyph-name="yen" unicode="&#xa5;" 
d="M1141 1393l-320 -549h248v-131h-324l-53 -92v-97h377v-131h-377v-393h-180v393h-373v131h373v99l-51 90h-322v131h246l-317 549h200l340 -609l338 609h195z" />
    <glyph glyph-name="brokenbar" unicode="&#xa6;" horiz-adv-x="784" 
d="M471 1638v-819h-156v819h156zM471 532v-819h-156v819h156z" />
    <glyph glyph-name="section" unicode="&#xa7;" 
d="M1040 172q0 -143 -121.5 -234.5t-310.5 -91.5q-139 0 -244.5 37t-218.5 125l95 121q110 -84 186 -111q77 -26 182 -26q117 0 190.5 49t73.5 125q0 51 -34 78q-30 28 -84 45.5t-199 50.5q-241 52 -345 127.5t-104 208.5q0 177 199 256q-72 37 -104.5 90t-32.5 135
q0 143 121.5 234.5t310.5 91.5q139 0 244.5 -37t218.5 -125l-94 -121q-113 83 -189 109q-82 28 -180 28q-117 0 -190.5 -50t-73.5 -126q0 -52 33 -78q33 -27 89.5 -45t194.5 -51q241 -52 345 -126.5t104 -207.5q0 -180 -199 -256q72 -37 104.5 -90t32.5 -135zM629 479
l67 -14q109 20 171.5 65.5t62.5 114.5q0 60 -45 96q-42 35 -108 56.5t-197 48.5q-32 8 -74 16q-227 -44 -227 -178q0 -62 45 -98q42 -35 107.5 -57t197.5 -50z" />
    <glyph glyph-name="dieresis" unicode="&#xa8;" horiz-adv-x="768" 
d="M289 1417v-211h-172v211h172zM651 1417v-211h-172v211h172z" />
    <glyph glyph-name="copyright" unicode="&#xa9;" horiz-adv-x="1753" 
d="M123 727q-3 206 98 381.5t276 276t380 96.5q154 3 294.5 -56t241.5 -160t160 -242t57 -296q2 -155 -57 -296t-160 -242t-241.5 -160t-294.5 -56q-205 -4 -380 96.5t-276 276t-98 381.5zM1503 727q3 176 -79 325.5t-227.5 236t-319.5 83.5q-174 3 -319.5 -83.5t-228 -236
t-79.5 -325.5q-3 -176 79.5 -325.5t228 -236t319.5 -83.5q174 -3 319.5 83.5t227.5 236t79 325.5zM459 727q0 195 119 324t307 129q248 0 360 -219l-123 -58q-47 81 -102 116.5t-133 35.5q-126 0 -203.5 -92t-77.5 -236q0 -143 77.5 -234.5t203.5 -91.5q86 0 138 36.5
t103 133.5l123 -61q-64 -125 -148.5 -180.5t-217.5 -55.5q-188 0 -307 129t-119 324z" />
    <glyph glyph-name="ordfeminine" unicode="&#xaa;" horiz-adv-x="851" 
d="M745 1204v-532h-129v100q-79 -125 -270 -125q-122 0 -196 56.5t-74 158.5q0 116 87.5 175t276.5 93l168 31v29q0 75 -48.5 116.5t-135.5 41.5q-68 0 -127 -30t-123 -97l-90 82q136 161 344 161q152 0 234.5 -70t82.5 -190zM608 973v82l-139 -29q-145 -32 -199.5 -62
t-54.5 -92q0 -51 40 -79.5t112 -28.5q108 0 174.5 55.5t66.5 153.5z" />
    <glyph glyph-name="guillemotleft" unicode="&#xab;" horiz-adv-x="1169" 
d="M588 965l-289 -447l289 -446h-176l-285 446l285 447h176zM1034 965l-289 -447l289 -446h-176l-285 446l285 447h176z" />
    <glyph glyph-name="logicalnot" unicode="&#xac;" horiz-adv-x="1228" 
d="M82 711h1065v-559h-154v407h-911v152z" />
    <glyph glyph-name="registered" unicode="&#xae;" horiz-adv-x="1138" 
d="M117 1026q0 192 130 322.5t322 130.5t322.5 -130.5t130.5 -322.5t-130.5 -322.5t-322.5 -130.5t-322 130.5t-130 322.5zM934 1026q0 159 -104.5 267t-260.5 108q-160 0 -262 -107t-102 -268t102 -268t262 -107q156 0 260.5 108t104.5 267zM393 778v510h211
q71 0 117.5 -46t46.5 -114q0 -50 -26.5 -88t-73.5 -57l125 -205h-103l-115 195h-88v-195h-94zM487 1051h99q90 0 90 77q0 36 -23 56t-67 20h-99v-153z" />
    <glyph glyph-name="overscore" unicode="&#xaf;" horiz-adv-x="804" 
d="M688 1352v-135h-571v135h571z" />
    <glyph glyph-name="degree" unicode="&#xb0;" horiz-adv-x="835" 
d="M123 1190q0 123 85 206t210 83t210 -83t85 -206q0 -124 -85 -207.5t-210 -83.5t-210 83.5t-85 207.5zM586 1190q0 74 -47.5 122t-120.5 48q-75 0 -122.5 -48t-47.5 -122q0 -75 47.5 -123.5t122.5 -48.5q73 0 120.5 48.5t47.5 123.5z" />
    <glyph glyph-name="plusminus" unicode="&#xb1;" horiz-adv-x="1228" 
d="M692 1356v-457h455v-151h-455v-457h-155v457h-455v151h455v457h155zM1147 152v-152h-1065v152h1065z" />
    <glyph glyph-name="uni00B2" unicode="&#xb2;" horiz-adv-x="813" 
d="M233 739h496v-121h-643v58q0 118 63 194t203 150l54 29q103 52 141.5 87t38.5 91q0 59 -44 91t-120 32q-115 0 -242 -113l-82 94q153 144 326 144q139 0 223 -68.5t84 -173.5q0 -69 -31 -123q-29 -47 -73.5 -79.5t-137.5 -80.5l-57 -30q-87 -50 -145 -93q-46 -36 -54 -88
z" />
    <glyph glyph-name="uni00B3" unicode="&#xb3;" horiz-adv-x="804" 
d="M715 872q0 -112 -86 -193t-232 -81q-88 0 -164.5 24t-171.5 83l72 102q82 -48 140 -66t122 -18q79 0 126.5 41.5t47.5 107.5t-50.5 105t-137.5 39q-73 0 -107 -15l-63 89l297 243h-408v121h584v-119l-264 -215h8q126 0 206.5 -67.5t80.5 -180.5z" />
    <glyph glyph-name="acute" unicode="&#xb4;" horiz-adv-x="577" 
d="M461 1446l-189 -289h-155l147 289h197z" />
    <glyph glyph-name="uni00B5" unicode="&#xb5;" horiz-adv-x="1103" 
d="M788 1008h179v-1008h-162v139q-42 -80 -114.5 -124t-168.5 -44q-137 0 -207 70v-416h-178v1383h178v-664q0 -106 56.5 -162.5t165.5 -56.5q112 0 181.5 71t69.5 197v615z" />
    <glyph glyph-name="paragraph" unicode="&#xb6;" horiz-adv-x="1327" 
d="M844 1454v-1659h-146v762h-157q-209 0 -337 122t-128 327t128 326.5t337 121.5h303zM1161 1454v-1659h-147v1659h147z" />
    <glyph glyph-name="middot" unicode="&#xb7;" horiz-adv-x="442" 
d="M326 752v-222h-209v222h209z" />
    <glyph glyph-name="cedilla" unicode="&#xb8;" horiz-adv-x="669" 
d="M553 -297q0 -81 -60.5 -132.5t-154.5 -51.5q-108 0 -221 73l51 84q55 -31 90 -43t76 -12q48 0 78 21.5t30 58.5q0 35 -32 55.5t-84 20.5q-36 0 -60 -6l-57 55l100 213l88 -39l-63 -137q97 4 158 -40.5t61 -119.5z" />
    <glyph glyph-name="uni00B9" unicode="&#xb9;" horiz-adv-x="651" 
d="M338 1454h108v-836h-141v662l-153 -113l-72 99z" />
    <glyph glyph-name="ordmasculine" unicode="&#xba;" horiz-adv-x="925" 
d="M842 1059q0 -178 -106.5 -293t-272.5 -115q-164 0 -270.5 115t-106.5 293q0 180 106 294.5t271 114.5q166 0 272.5 -114.5t106.5 -294.5zM231 1059q0 -129 63.5 -208t168.5 -79q106 0 169.5 79t63.5 208q0 131 -64 211t-169 80t-168.5 -80t-63.5 -211z" />
    <glyph glyph-name="guillemotright" unicode="&#xbb;" horiz-adv-x="1169" 
d="M137 965h174l287 -447l-287 -446h-174l285 446zM584 965h174l286 -447l-286 -446h-174l284 446z" />
    <glyph glyph-name="onequarter" unicode="&#xbc;" horiz-adv-x="1800" 
d="M338 1393h108v-836h-141v662l-153 -113l-72 98zM1282 1423l111 -67l-975 -1387l-109 70zM1622 305h117v-117h-117v-188h-141v188h-424v134l344 514h155l-354 -531h279v176h141v-176z" />
    <glyph glyph-name="onehalf" unicode="&#xbd;" horiz-adv-x="1863" 
d="M338 1393h108v-836h-141v662l-153 -113l-72 98zM1282 1423l111 -67l-975 -1387l-109 70zM1284 121h496v-121h-643v57q0 118 63 194t203 150l53 29q103 52 141.5 87t38.5 91q0 59 -43.5 91t-119.5 32q-115 0 -242 -113l-82 95q152 143 326 143q139 0 223 -68.5t84 -173.5
q0 -68 -31 -122q-29 -47 -73.5 -79.5t-137.5 -80.5l-57 -31q-97 -56 -146 -92q-44 -35 -53 -88z" />
    <glyph glyph-name="threequarters" unicode="&#xbe;" horiz-adv-x="1953" 
d="M715 811q0 -112 -86 -193t-232 -81q-88 0 -164.5 23.5t-171.5 82.5l72 102q82 -48 140 -65.5t122 -17.5q79 0 126.5 41.5t47.5 107.5t-50 104.5t-138 38.5q-75 0 -107 -14l-63 88l297 244h-408v121h584v-119l-264 -215h8q126 0 206.5 -67.5t80.5 -180.5zM1436 1423
l110 -67l-975 -1387l-108 70zM1776 305h116v-117h-116v-188h-142v188h-424v134l344 514h156l-354 -531h278v176h142v-176z" />
    <glyph glyph-name="questiondown" unicode="&#xbf;" horiz-adv-x="950" 
d="M420 788v222h209v-222h-209zM12 -106q2 50 14 92.5t27.5 73.5t48.5 68t59 62t77 70l47 41q79 68 121 125q34 46 43 123l6 59h145v-71q-3 -89 -16 -135t-50 -93t-124 -123l-41 -34q-95 -81 -132.5 -134t-37.5 -122q0 -96 70 -152.5t188 -56.5q91 0 171.5 38t192.5 132
l109 -123q-122 -109 -234.5 -160t-242.5 -51q-189 0 -315 100t-126 271z" />
    <glyph glyph-name="Agrave" unicode="&#xc0;" horiz-adv-x="1370" 
d="M1143 0l-131 371h-656l-131 -371h-190l526 1454h248l528 -1454h-194zM414 530h540l-67 191q-139 370 -205 592q-54 -181 -178 -529l-23 -65zM422 1864h196l148 -289h-156z" />
    <glyph glyph-name="Aacute" unicode="&#xc1;" horiz-adv-x="1370" 
d="M1143 0l-131 371h-656l-131 -371h-190l526 1454h248l528 -1454h-194zM414 530h540l-67 191q-139 370 -205 592q-54 -181 -178 -529l-23 -65zM946 1864l-188 -289h-156l148 289h196z" />
    <glyph glyph-name="Acircumflex" unicode="&#xc2;" horiz-adv-x="1370" 
d="M1143 0l-131 371h-656l-131 -371h-190l526 1454h248l528 -1454h-194zM414 530h540l-67 191q-139 370 -205 592q-54 -181 -178 -529l-23 -65zM844 1575l-160 201l-160 -201h-151l200 289h222l200 -289h-151z" />
    <glyph glyph-name="Atilde" unicode="&#xc3;" horiz-adv-x="1370" 
d="M1143 0l-131 371h-656l-131 -371h-190l526 1454h248l528 -1454h-194zM414 530h540l-67 191q-139 370 -205 592q-54 -181 -178 -529l-23 -65zM713 1759q70 -47 114 -47q66 0 66 107h111q0 -104 -45.5 -166t-120.5 -62q-54 0 -158 58q-85 51 -133 51q-34 0 -52 -29t-18 -78
h-112q0 104 50 166t132 62q40 0 72 -13t94 -49z" />
    <glyph glyph-name="Adieresis" unicode="&#xc4;" horiz-adv-x="1370" 
d="M1143 0l-131 371h-656l-131 -371h-190l526 1454h248l528 -1454h-194zM414 530h540l-67 191q-139 370 -205 592q-54 -181 -178 -529l-23 -65zM588 1835v-211h-172v211h172zM950 1835v-211h-172v211h172z" />
    <glyph glyph-name="Aring" unicode="&#xc5;" horiz-adv-x="1380" 
d="M1153 0l-133 373h-662l-133 -373h-190l518 1430q-52 33 -82.5 87t-30.5 115q0 100 72 172q75 72 178 72t178 -72q74 -71 74 -172q0 -62 -30.5 -116t-84.5 -86l521 -1430h-195zM551 1632q0 -61 39.5 -101t99.5 -40q62 0 100.5 39t38.5 102t-39 103.5t-100 40.5t-100 -40.5
t-39 -103.5zM414 530h551l-68 189l-53 151q-98 272 -156 457q-69 -216 -207 -608z" />
    <glyph glyph-name="AE" unicode="&#xc6;" horiz-adv-x="1970" 
d="M1079 158h797v-158h-987v371h-490l-192 -371h-193l756 1454h1088v-158h-779v-469h723v-157h-723v-512zM481 530h408v789z" />
    <glyph glyph-name="Ccedilla" unicode="&#xc7;" horiz-adv-x="1370" 
d="M975 -297q0 -82 -60 -133t-157 -51q-108 0 -221 73l53 84q55 -31 90 -43t76 -12q48 0 78 21.5t30 58.5q0 35 -32.5 55.5t-83.5 20.5q-36 0 -60 -6l-57 55l67 145q-186 18 -325.5 120.5t-213 267t-73.5 370.5q0 220 82.5 391t242.5 269t375 98q145 0 266.5 -48t250.5 -159
l-111 -131q-113 95 -207.5 133.5t-198.5 38.5q-231 0 -370.5 -165t-139.5 -429q0 -261 139 -427.5t359 -166.5q120 0 216 48.5t222 164.5l117 -127q-136 -131 -256.5 -189.5t-267.5 -62.5l-49 -104q97 4 158 -40.5t61 -119.5z" />
    <glyph glyph-name="Egrave" unicode="&#xc8;" horiz-adv-x="1247" 
d="M1135 1454v-158h-779v-469h725v-157h-725v-512h797v-158h-985v1454h967zM393 1864h197l147 -289h-155z" />
    <glyph glyph-name="Eacute" unicode="&#xc9;" horiz-adv-x="1247" 
d="M1135 1454v-158h-779v-469h725v-157h-725v-512h797v-158h-985v1454h967zM918 1864l-189 -289h-156l148 289h197z" />
    <glyph glyph-name="Ecircumflex" unicode="&#xca;" horiz-adv-x="1247" 
d="M1135 1454v-158h-779v-469h725v-157h-725v-512h797v-158h-985v1454h967zM815 1575l-160 201l-159 -201h-152l201 289h221l201 -289h-152z" />
    <glyph glyph-name="Edieresis" unicode="&#xcb;" horiz-adv-x="1247" 
d="M1135 1454v-158h-779v-469h725v-157h-725v-512h797v-158h-985v1454h967zM559 1835v-211h-172v211h172zM922 1835v-211h-172v211h172z" />
    <glyph glyph-name="Igrave" unicode="&#xcc;" horiz-adv-x="552" 
d="M371 1454v-1454h-189v1454h189zM14 1864h197l147 -289h-155z" />
    <glyph glyph-name="Iacute" unicode="&#xcd;" horiz-adv-x="552" 
d="M371 1454v-1454h-189v1454h189zM539 1864l-189 -289h-155l147 289h197z" />
    <glyph glyph-name="Icircumflex" unicode="&#xce;" horiz-adv-x="552" 
d="M371 1454v-1454h-189v1454h189zM436 1575l-160 201l-159 -201h-152l201 289h221l201 -289h-152z" />
    <glyph glyph-name="Idieresis" unicode="&#xcf;" horiz-adv-x="552" 
d="M371 1454v-1454h-189v1454h189zM180 1835v-211h-172v211h172zM543 1835v-211h-172v211h172z" />
    <glyph glyph-name="Eth" unicode="&#xd0;" horiz-adv-x="1497" 
d="M1411 727q0 -216 -74.5 -379t-221 -255.5t-347.5 -92.5h-545v672h-170v157h170v625h545q201 0 347.5 -92.5t221 -255.5t74.5 -379zM1219 727q0 267 -127 418t-355 151h-323v-467h383v-157h-383v-514h323q228 0 355 150t127 419z" />
    <glyph glyph-name="Ntilde" unicode="&#xd1;" horiz-adv-x="1499" 
d="M1147 1454h184v-1454h-209l-430 662q-209 313 -350 555q10 -332 10 -564v-653h-184v1454h211l436 -672l53 -82q229 -357 289 -460q-10 325 -10 551v663zM795 1759q70 -47 114 -47q66 0 66 107h110q0 -104 -45 -166t-120 -62q-54 0 -158 58q-85 51 -133 51q-34 0 -52 -29
t-18 -78h-113q0 104 50.5 166t132.5 62q40 0 72 -13t94 -49z" />
    <glyph glyph-name="Ograve" unicode="&#xd2;" horiz-adv-x="1552" 
d="M1466 727q0 -163 -48.5 -302.5t-137 -241t-218.5 -159t-286 -57.5t-286 57.5t-218.5 159t-137 241t-48.5 302.5t48.5 302.5t137 241t218.5 159t286 57.5t286 -57.5t218.5 -159t137 -241t48.5 -302.5zM279 727q0 -263 138 -428.5t359 -165.5q223 0 360.5 165t137.5 429
q0 261 -137.5 427.5t-360.5 166.5q-220 0 -358.5 -166.5t-138.5 -427.5zM514 1864h197l147 -289h-156z" />
    <glyph glyph-name="Oacute" unicode="&#xd3;" horiz-adv-x="1552" 
d="M1466 727q0 -163 -48.5 -302.5t-137 -241t-218.5 -159t-286 -57.5t-286 57.5t-218.5 159t-137 241t-48.5 302.5t48.5 302.5t137 241t218.5 159t286 57.5t286 -57.5t218.5 -159t137 -241t48.5 -302.5zM279 727q0 -263 138 -428.5t359 -165.5q223 0 360.5 165t137.5 429
q0 261 -137.5 427.5t-360.5 166.5q-220 0 -358.5 -166.5t-138.5 -427.5zM1040 1864l-188 -289h-156l148 289h196z" />
    <glyph glyph-name="Ocircumflex" unicode="&#xd4;" horiz-adv-x="1552" 
d="M1466 727q0 -163 -48.5 -302.5t-137 -241t-218.5 -159t-286 -57.5t-286 57.5t-218.5 159t-137 241t-48.5 302.5t48.5 302.5t137 241t218.5 159t286 57.5t286 -57.5t218.5 -159t137 -241t48.5 -302.5zM279 727q0 -263 138 -428.5t359 -165.5q223 0 360.5 165t137.5 429
q0 261 -137.5 427.5t-360.5 166.5q-220 0 -358.5 -166.5t-138.5 -427.5zM936 1575l-160 201l-160 -201h-151l201 289h221l200 -289h-151z" />
    <glyph glyph-name="Otilde" unicode="&#xd5;" horiz-adv-x="1552" 
d="M1466 727q0 -163 -48.5 -302.5t-137 -241t-218.5 -159t-286 -57.5t-286 57.5t-218.5 159t-137 241t-48.5 302.5t48.5 302.5t137 241t218.5 159t286 57.5t286 -57.5t218.5 -159t137 -241t48.5 -302.5zM279 727q0 -263 138 -428.5t359 -165.5q223 0 360.5 165t137.5 429
q0 261 -137.5 427.5t-360.5 166.5q-220 0 -358.5 -166.5t-138.5 -427.5zM805 1759q70 -47 115 -47q65 0 65 107h111q0 -104 -45.5 -166t-120.5 -62q-54 0 -158 58q-85 51 -133 51q-34 0 -52 -29t-18 -78h-112q0 104 50 166t132 62q40 0 72 -13t94 -49z" />
    <glyph glyph-name="Odieresis" unicode="&#xd6;" horiz-adv-x="1552" 
d="M1466 727q0 -163 -48.5 -302.5t-137 -241t-218.5 -159t-286 -57.5t-286 57.5t-218.5 159t-137 241t-48.5 302.5t48.5 302.5t137 241t218.5 159t286 57.5t286 -57.5t218.5 -159t137 -241t48.5 -302.5zM279 727q0 -263 138 -428.5t359 -165.5q223 0 360.5 165t137.5 429
q0 261 -137.5 427.5t-360.5 166.5q-220 0 -358.5 -166.5t-138.5 -427.5zM680 1835v-211h-172v211h172zM1042 1835v-211h-172v211h172z" />
    <glyph glyph-name="multiply" unicode="&#xd7;" horiz-adv-x="1228" 
d="M1083 999l-364 -364l364 -365l-104 -104l-365 364l-364 -364l-107 104l365 365l-365 364l107 107l364 -365l365 365z" />
    <glyph glyph-name="Oslash" unicode="&#xd8;" horiz-adv-x="1552" 
d="M1466 727q0 -163 -48.5 -302.5t-137 -241t-218.5 -159t-286 -57.5q-249 0 -426 142l-96 -115l-104 88l102 123q-166 215 -166 522q0 163 48.5 302.5t137 241t218.5 159t286 57.5q250 0 426 -141l96 114l105 -88l-103 -123q166 -215 166 -522zM375 354l712 852
q-127 115 -311 115q-220 0 -358.5 -166.5t-138.5 -427.5q0 -218 96 -373zM1274 727q0 217 -96 375l-713 -854q127 -115 311 -115q223 0 360.5 165t137.5 429z" />
    <glyph glyph-name="Ugrave" unicode="&#xd9;" horiz-adv-x="1409" 
d="M1253 1454v-991q0 -241 -139 -367.5t-409 -126.5q-269 0 -408 127t-139 367v991h188v-981q0 -166 91 -252t268 -86t267.5 86t90.5 252v981h190zM442 1864h197l147 -289h-155z" />
    <glyph glyph-name="Uacute" unicode="&#xda;" horiz-adv-x="1409" 
d="M1253 1454v-991q0 -241 -139 -367.5t-409 -126.5q-269 0 -408 127t-139 367v991h188v-981q0 -166 91 -252t268 -86t267.5 86t90.5 252v981h190zM967 1864l-189 -289h-155l147 289h197z" />
    <glyph glyph-name="Ucircumflex" unicode="&#xdb;" horiz-adv-x="1409" 
d="M1253 1454v-991q0 -241 -139 -367.5t-409 -126.5q-269 0 -408 127t-139 367v991h188v-981q0 -166 91 -252t268 -86t267.5 86t90.5 252v981h190zM864 1575l-159 201l-160 -201h-152l201 289h221l201 -289h-152z" />
    <glyph glyph-name="Udieresis" unicode="&#xdc;" horiz-adv-x="1409" 
d="M1253 1454v-991q0 -241 -139 -367.5t-409 -126.5q-269 0 -408 127t-139 367v991h188v-981q0 -166 91 -252t268 -86t267.5 86t90.5 252v981h190zM608 1835v-211h-172v211h172zM971 1835v-211h-172v211h172z" />
    <glyph glyph-name="Yacute" unicode="&#xdd;" horiz-adv-x="1277" 
d="M1042 1454h205l-516 -833v-621h-188v623l-512 831h209l401 -666zM901 1864l-188 -289h-156l148 289h196z" />
    <glyph glyph-name="Thorn" unicode="&#xde;" horiz-adv-x="1333" 
d="M1266 756q0 -202 -128 -318t-345 -116h-437v-322h-188v1454h188v-264h437q217 0 345 -116t128 -318zM1077 756q0 133 -82 204.5t-229 71.5h-410v-555h410q147 0 229 72.5t82 206.5z" />
    <glyph glyph-name="germandbls" unicode="&#xdf;" horiz-adv-x="1189" 
d="M1110 432q0 -189 -123 -318.5t-321 -129.5q-108 0 -238 34l29 142q129 -29 196 -29q122 0 200.5 84t78.5 219q0 146 -95.5 224.5t-273.5 78.5h-51v140h51q120 0 183 62.5t63 174.5q0 99 -68.5 160t-173.5 61q-122 0 -188 -73t-66 -213v-1049h-176v1063q0 198 118 309
t314 111q177 0 294.5 -106.5t117.5 -256.5q0 -102 -45 -176.5t-125 -112.5q141 -43 220 -147t79 -252z" />
    <glyph glyph-name="agrave" unicode="&#xe0;" horiz-adv-x="1089" 
d="M954 700v-700h-159v125q-51 -76 -139.5 -117t-202.5 -41q-165 0 -263 72.5t-98 210.5q0 161 121 235q125 75 348 115l225 41v51q0 93 -64 146t-171 53q-92 0 -165 -38t-167 -132l-113 100q183 215 439 215q193 0 301 -91t108 -245zM786 377v133l-184 -37
q-77 -16 -123.5 -28t-90.5 -29t-67.5 -38t-38.5 -51t-18 -71q0 -69 54 -106t153 -37q137 0 226 72t89 192zM295 1446h197l147 -289h-156z" />
    <glyph glyph-name="aacute" unicode="&#xe1;" horiz-adv-x="1089" 
d="M954 700v-700h-159v125q-51 -76 -139.5 -117t-202.5 -41q-165 0 -263 72.5t-98 210.5q0 161 121 235q125 75 348 115l225 41v51q0 93 -64 146t-171 53q-92 0 -165 -38t-167 -132l-113 100q183 215 439 215q193 0 301 -91t108 -245zM786 377v133l-184 -37
q-77 -16 -123.5 -28t-90.5 -29t-67.5 -38t-38.5 -51t-18 -71q0 -69 54 -106t153 -37q137 0 226 72t89 192zM819 1446l-188 -289h-156l148 289h196z" />
    <glyph glyph-name="acircumflex" unicode="&#xe2;" horiz-adv-x="1089" 
d="M954 700v-700h-159v125q-51 -76 -139.5 -117t-202.5 -41q-165 0 -263 72.5t-98 210.5q0 161 121 235q125 75 348 115l225 41v51q0 93 -64 146t-171 53q-92 0 -165 -38t-167 -132l-113 100q183 215 439 215q193 0 301 -91t108 -245zM786 377v133l-184 -37
q-77 -16 -123.5 -28t-90.5 -29t-67.5 -38t-38.5 -51t-18 -71q0 -69 54 -106t153 -37q137 0 226 72t89 192zM717 1157l-160 201l-160 -201h-151l200 289h222l200 -289h-151z" />
    <glyph glyph-name="atilde" unicode="&#xe3;" horiz-adv-x="1089" 
d="M954 700v-700h-159v125q-51 -76 -139.5 -117t-202.5 -41q-165 0 -263 72.5t-98 210.5q0 161 121 235q125 75 348 115l225 41v51q0 93 -64 146t-171 53q-92 0 -165 -38t-167 -132l-113 100q183 215 439 215q193 0 301 -91t108 -245zM786 377v133l-184 -37
q-77 -16 -123.5 -28t-90.5 -29t-67.5 -38t-38.5 -51t-18 -71q0 -69 54 -106t153 -37q137 0 226 72t89 192zM586 1341q70 -47 114 -47q66 0 66 107h111q0 -104 -45.5 -165.5t-120.5 -61.5q-55 0 -158 57q-85 51 -133 51q-34 0 -52 -28.5t-18 -77.5h-112q0 104 50 165.5
t132 61.5q40 0 72 -13t94 -49z" />
    <glyph glyph-name="adieresis" unicode="&#xe4;" horiz-adv-x="1089" 
d="M954 700v-700h-159v125q-51 -76 -139.5 -117t-202.5 -41q-165 0 -263 72.5t-98 210.5q0 161 121 235q125 75 348 115l225 41v51q0 93 -64 146t-171 53q-92 0 -165 -38t-167 -132l-113 100q183 215 439 215q193 0 301 -91t108 -245zM786 377v133l-184 -37
q-77 -16 -123.5 -28t-90.5 -29t-67.5 -38t-38.5 -51t-18 -71q0 -69 54 -106t153 -37q137 0 226 72t89 192zM461 1417v-211h-172v211h172zM823 1417v-211h-172v211h172z" />
    <glyph glyph-name="aring" unicode="&#xe5;" horiz-adv-x="1089" 
d="M954 700v-700h-159v125q-51 -76 -139.5 -117t-202.5 -41q-165 0 -263 72.5t-98 210.5q0 161 121 235q125 75 348 115l225 41v51q0 93 -64 146t-171 53q-92 0 -165 -38t-167 -132l-113 100q183 215 439 215q193 0 301 -91t108 -245zM786 377v133l-184 -37
q-77 -16 -123.5 -28t-90.5 -29t-67.5 -38t-38.5 -51t-18 -71q0 -69 54 -106t153 -37q137 0 226 72t89 192zM778 1358q0 -87 -65 -152q-64 -61 -154 -61q-92 0 -155.5 62.5t-63.5 150.5q0 91 63.5 152t155.5 61q90 0 154 -64q65 -62 65 -149zM436 1358q0 -55 34.5 -90
t88.5 -35t87.5 34.5t33.5 90.5t-33.5 90.5t-87.5 34.5t-88.5 -35t-34.5 -90z" />
    <glyph glyph-name="ae" unicode="&#xe6;" horiz-adv-x="1804" 
d="M1620 287l104 -107q-107 -113 -210 -161t-230 -48q-257 0 -395 183q-175 -187 -432 -187q-169 0 -267 71.5t-98 207.5q0 135 93.5 212.5t299.5 119.5l301 57v45q0 211 -229 211q-86 0 -163 -37.5t-167 -124.5l-108 107q103 106 208 153t238 47q255 0 344 -162
q62 78 154.5 120t204.5 42q214 0 334 -129t120 -356l-4 -80h-755q8 -156 91.5 -254t231.5 -98q94 0 164 37q67 36 170 131zM967 600h583q-6 138 -80.5 217.5t-203.5 79.5q-122 0 -200.5 -78t-98.5 -219zM821 279q-29 90 -35 225l-256 -53q-140 -29 -202 -74.5t-62 -118.5
q0 -70 55.5 -107.5t151.5 -37.5q106 0 195 44t153 122z" />
    <glyph glyph-name="ccedilla" unicode="&#xe7;" horiz-adv-x="1024" 
d="M600 -29l-51 -108q97 4 158 -40.5t61 -119.5q0 -82 -60 -133t-157 -51q-109 0 -219 73l51 84q55 -31 90 -43t76 -12q48 0 78 21.5t30 58.5q0 35 -32 55.5t-84 20.5q-36 0 -60 -6l-57 55l70 149q-192 23 -305 165.5t-113 363.5q0 238 135.5 385t353.5 147
q126 0 219.5 -43.5t184.5 -146.5l-115 -109q-78 84 -144.5 118t-146.5 34q-143 0 -225 -111.5t-82 -273.5q0 -158 80 -273q82 -110 229 -110q83 0 148.5 36t152.5 132l117 -99q-92 -112 -181 -162.5t-202 -56.5z" />
    <glyph glyph-name="egrave" unicode="&#xe8;" horiz-adv-x="1093" 
d="M909 287l105 -107q-107 -114 -208.5 -161.5t-230.5 -47.5q-226 0 -362.5 145t-136.5 382q0 238 132 388t349 150q214 0 334.5 -129t120.5 -356q0 -28 -4 -78h-756q8 -159 92.5 -256.5t233.5 -97.5q94 0 161 37q67 36 170 131zM256 604h582q-6 135 -80.5 213t-202.5 78
q-123 0 -201 -76t-98 -215zM315 1446h197l147 -289h-155z" />
    <glyph glyph-name="eacute" unicode="&#xe9;" horiz-adv-x="1093" 
d="M909 287l105 -107q-107 -114 -208.5 -161.5t-230.5 -47.5q-226 0 -362.5 145t-136.5 382q0 238 132 388t349 150q214 0 334.5 -129t120.5 -356q0 -28 -4 -78h-756q8 -159 92.5 -256.5t233.5 -97.5q94 0 161 37q67 36 170 131zM256 604h582q-6 135 -80.5 213t-202.5 78
q-123 0 -201 -76t-98 -215zM840 1446l-189 -289h-155l147 289h197z" />
    <glyph glyph-name="ecircumflex" unicode="&#xea;" horiz-adv-x="1093" 
d="M909 287l105 -107q-107 -114 -208.5 -161.5t-230.5 -47.5q-226 0 -362.5 145t-136.5 382q0 238 132 388t349 150q214 0 334.5 -129t120.5 -356q0 -28 -4 -78h-756q8 -159 92.5 -256.5t233.5 -97.5q94 0 161 37q67 36 170 131zM256 604h582q-6 135 -80.5 213t-202.5 78
q-123 0 -201 -76t-98 -215zM737 1157l-159 201l-160 -201h-152l201 289h221l201 -289h-152z" />
    <glyph glyph-name="edieresis" unicode="&#xeb;" horiz-adv-x="1093" 
d="M909 287l105 -107q-107 -114 -208.5 -161.5t-230.5 -47.5q-226 0 -362.5 145t-136.5 382q0 238 132 388t349 150q214 0 334.5 -129t120.5 -356q0 -28 -4 -78h-756q8 -159 92.5 -256.5t233.5 -97.5q94 0 161 37q67 36 170 131zM256 604h582q-6 135 -80.5 213t-202.5 78
q-123 0 -201 -76t-98 -215zM481 1417v-211h-172v211h172zM844 1417v-211h-172v211h172z" />
    <glyph glyph-name="igrave" unicode="&#xec;" horiz-adv-x="450" 
d="M313 1008v-1008h-176v1008h176zM-37 1446h197l147 -289h-155z" />
    <glyph glyph-name="iacute" unicode="&#xed;" horiz-adv-x="450" 
d="M313 1008v-1008h-176v1008h176zM489 1446l-188 -289h-156l148 289h196z" />
    <glyph glyph-name="icircumflex" unicode="&#xee;" horiz-adv-x="450" 
d="M313 1008v-1008h-176v1008h176zM387 1157l-160 201l-159 -201h-152l201 289h221l201 -289h-152z" />
    <glyph glyph-name="idieresis" unicode="&#xef;" horiz-adv-x="450" 
d="M313 1008v-1008h-176v1008h176zM131 1417v-211h-172v211h172zM494 1417v-211h-172v211h172z" />
    <glyph glyph-name="eth" unicode="&#xf0;" horiz-adv-x="1165" 
d="M1063 600q0 -292 -133 -463q-132 -170 -367 -170q-108 0 -200.5 41.5t-154.5 112t-97 162.5t-35 192q0 134 55 247.5t158.5 183t234.5 69.5q121 0 216.5 -54t150.5 -149q-20 136 -80.5 233.5t-175.5 174.5l-211 -138l-64 91l170 108q-66 35 -147 66l-94 36l65 138l88 -33
q138 -50 238 -109l176 113l62 -90l-140 -90q143 -114 214 -278t71 -394zM872 473q0 146 -92 248t-229 102q-136 0 -217 -100q-80 -103 -80 -250q0 -148 84 -252q84 -100 225 -100q135 0 222 102t87 250z" />
    <glyph glyph-name="ntilde" unicode="&#xf1;" horiz-adv-x="1116" 
d="M981 690v-690h-176v635q0 123 -59.5 187.5t-172.5 64.5q-108 0 -184 -76q-76 -73 -76 -186v-625h-176v1008h166v-129q49 77 131.5 117t186.5 40q172 0 266 -96t94 -250zM588 1341q70 -47 114 -47q66 0 66 107h111q0 -104 -45.5 -165.5t-120.5 -61.5q-55 0 -158 57
q-85 51 -133 51q-34 0 -52 -28.5t-18 -77.5h-112q0 104 50 165.5t132 61.5q40 0 72 -13t94 -49z" />
    <glyph glyph-name="ograve" unicode="&#xf2;" horiz-adv-x="1148" 
d="M1073 504q0 -234 -139.5 -383.5t-358.5 -149.5q-220 0 -359.5 149t-139.5 384t139.5 383.5t359.5 148.5q219 0 358.5 -149t139.5 -383zM256 504q0 -173 87 -279t232 -106t231.5 106t86.5 279t-86.5 279t-231.5 106t-232 -106t-87 -279zM309 1446h197l147 -289h-155z" />
    <glyph glyph-name="oacute" unicode="&#xf3;" horiz-adv-x="1148" 
d="M1073 504q0 -234 -139.5 -383.5t-358.5 -149.5q-220 0 -359.5 149t-139.5 384t139.5 383.5t359.5 148.5q219 0 358.5 -149t139.5 -383zM256 504q0 -173 87 -279t232 -106t231.5 106t86.5 279t-86.5 279t-231.5 106t-232 -106t-87 -279zM834 1446l-189 -289h-156l148 289
h197z" />
    <glyph glyph-name="ocircumflex" unicode="&#xf4;" horiz-adv-x="1148" 
d="M1073 504q0 -234 -139.5 -383.5t-358.5 -149.5q-220 0 -359.5 149t-139.5 384t139.5 383.5t359.5 148.5q219 0 358.5 -149t139.5 -383zM256 504q0 -173 87 -279t232 -106t231.5 106t86.5 279t-86.5 279t-231.5 106t-232 -106t-87 -279zM731 1157l-160 201l-159 -201h-152
l201 289h221l201 -289h-152z" />
    <glyph glyph-name="otilde" unicode="&#xf5;" horiz-adv-x="1148" 
d="M1073 504q0 -234 -139.5 -383.5t-358.5 -149.5q-220 0 -359.5 149t-139.5 384t139.5 383.5t359.5 148.5q219 0 358.5 -149t139.5 -383zM256 504q0 -173 87 -279t232 -106t231.5 106t86.5 279t-86.5 279t-231.5 106t-232 -106t-87 -279zM600 1341q70 -47 115 -47
q65 0 65 107h111q0 -104 -45.5 -165.5t-120.5 -61.5q-55 0 -158 57q-85 51 -133 51q-34 0 -51.5 -28.5t-17.5 -77.5h-113q0 104 50 165.5t132 61.5q40 0 72 -13t94 -49z" />
    <glyph glyph-name="odieresis" unicode="&#xf6;" horiz-adv-x="1148" 
d="M1073 504q0 -234 -139.5 -383.5t-358.5 -149.5q-220 0 -359.5 149t-139.5 384t139.5 383.5t359.5 148.5q219 0 358.5 -149t139.5 -383zM256 504q0 -173 87 -279t232 -106t231.5 106t86.5 279t-86.5 279t-231.5 106t-232 -106t-87 -279zM475 1417v-211h-172v211h172z
M838 1417v-211h-172v211h172z" />
    <glyph glyph-name="divide" unicode="&#xf7;" horiz-adv-x="1228" 
d="M719 1112v-223h-209v223h209zM1147 711v-152h-1065v152h1065zM719 381v-223h-209v223h209z" />
    <glyph glyph-name="oslash" unicode="&#xf8;" horiz-adv-x="1148" 
d="M1073 504q0 -234 -139.5 -383.5t-358.5 -149.5q-141 0 -258 66l-57 -82l-98 72l59 86q-145 151 -145 391q0 235 139.5 383.5t359.5 148.5q142 0 250 -63l60 86l100 -70l-61 -88q149 -149 149 -397zM322 254l413 592q-73 43 -160 43q-145 0 -232 -106t-87 -279
q0 -146 66 -250zM893 504q0 152 -70 256l-415 -594q71 -47 167 -47q145 0 231.5 106t86.5 279z" />
    <glyph glyph-name="ugrave" unicode="&#xf9;" horiz-adv-x="1099" 
d="M786 1008h177v-1008h-164v125q-44 -74 -123.5 -114t-181.5 -40q-178 0 -268.5 88.5t-90.5 241.5v707h176v-664q0 -108 54 -164.5t157 -56.5q120 0 192 71t72 199v615zM270 1446h197l147 -289h-155z" />
    <glyph glyph-name="uacute" unicode="&#xfa;" horiz-adv-x="1099" 
d="M786 1008h177v-1008h-164v125q-44 -74 -123.5 -114t-181.5 -40q-178 0 -268.5 88.5t-90.5 241.5v707h176v-664q0 -108 54 -164.5t157 -56.5q120 0 192 71t72 199v615zM797 1446l-189 -289h-155l147 289h197z" />
    <glyph glyph-name="ucircumflex" unicode="&#xfb;" horiz-adv-x="1099" 
d="M786 1008h177v-1008h-164v125q-44 -74 -123.5 -114t-181.5 -40q-178 0 -268.5 88.5t-90.5 241.5v707h176v-664q0 -108 54 -164.5t157 -56.5q120 0 192 71t72 199v615zM694 1157l-159 201l-160 -201h-152l201 289h221l201 -289h-152z" />
    <glyph glyph-name="udieresis" unicode="&#xfc;" horiz-adv-x="1099" 
d="M786 1008h177v-1008h-164v125q-44 -74 -123.5 -114t-181.5 -40q-178 0 -268.5 88.5t-90.5 241.5v707h176v-664q0 -108 54 -164.5t157 -56.5q120 0 192 71t72 199v615zM438 1417v-211h-172v211h172zM801 1417v-211h-172v211h172z" />
    <glyph glyph-name="yacute" unicode="&#xfd;" horiz-adv-x="991" 
d="M776 1008h178l-403 -1147q-51 -143 -115 -199.5t-188 -56.5q-89 0 -156 20l31 135q55 -12 108 -12q63 0 101.5 35t68.5 125l13 39l-379 1061h186l113 -334q14 -41 149 -447l17 -51l61 186l103 316zM756 1446l-189 -289h-155l147 289h197z" />
    <glyph glyph-name="thorn" unicode="&#xfe;" horiz-adv-x="1171" 
d="M1092 506q0 -236 -125 -384.5t-320 -148.5q-227 0 -334 162v-504h-176v1823h176v-586q114 166 334 166q195 0 320 -147t125 -381zM911 506q0 171 -78.5 275t-211.5 104q-141 0 -227.5 -102t-86.5 -277q0 -176 86.5 -278.5t227.5 -102.5q131 0 210.5 104.5t79.5 276.5z
" />
    <glyph glyph-name="ydieresis" unicode="&#xff;" horiz-adv-x="991" 
d="M776 1008h178l-403 -1147q-51 -143 -115 -199.5t-188 -56.5q-89 0 -156 20l31 135q55 -12 108 -12q63 0 101.5 35t68.5 125l13 39l-379 1061h186l113 -334q14 -41 149 -447l17 -51l61 186l103 316zM397 1417v-211h-172v211h172zM760 1417v-211h-172v211h172z" />
    <glyph glyph-name="Amacron" unicode="&#x100;" horiz-adv-x="1370" 
d="M1143 0l-131 371h-656l-131 -371h-190l526 1454h248l528 -1454h-194zM414 530h540l-67 191q-139 370 -205 592q-54 -181 -178 -529l-23 -65zM971 1769v-135h-572v135h572z" />
    <glyph glyph-name="amacron" unicode="&#x101;" horiz-adv-x="1089" 
d="M954 700v-700h-159v125q-51 -76 -139.5 -117t-202.5 -41q-165 0 -263 72.5t-98 210.5q0 161 121 235q125 75 348 115l225 41v51q0 93 -64 146t-171 53q-92 0 -165 -38t-167 -132l-113 100q183 215 439 215q193 0 301 -91t108 -245zM786 377v133l-184 -37
q-77 -16 -123.5 -28t-90.5 -29t-67.5 -38t-38.5 -51t-18 -71q0 -69 54 -106t153 -37q137 0 226 72t89 192zM844 1352v-135h-572v135h572z" />
    <glyph glyph-name="Abreve" unicode="&#x102;" horiz-adv-x="1370" 
d="M1143 0l-131 371h-656l-131 -371h-190l526 1454h248l528 -1454h-194zM414 530h540l-67 191q-139 370 -205 592q-54 -181 -178 -529l-23 -65zM389 1831h129q2 -68 45 -109t121 -41q77 0 119 40.5t47 109.5h127q0 -122 -81 -195t-212 -73q-134 0 -214.5 72.5t-80.5 195.5z
" />
    <glyph glyph-name="abreve" unicode="&#x103;" horiz-adv-x="1089" 
d="M954 700v-700h-159v125q-51 -76 -139.5 -117t-202.5 -41q-165 0 -263 72.5t-98 210.5q0 161 121 235q125 75 348 115l225 41v51q0 93 -64 146t-171 53q-92 0 -165 -38t-167 -132l-113 100q183 215 439 215q193 0 301 -91t108 -245zM786 377v133l-184 -37
q-77 -16 -123.5 -28t-90.5 -29t-67.5 -38t-38.5 -51t-18 -71q0 -69 54 -106t153 -37q137 0 226 72t89 192zM262 1413h129q2 -68 45 -108.5t121 -40.5q77 0 119 40t47 109h127q0 -122 -81 -195t-212 -73q-134 0 -214.5 72.5t-80.5 195.5z" />
    <glyph glyph-name="Aogonek" unicode="&#x104;" horiz-adv-x="1370" 
d="M1278 -311q32 0 53 6v-111q-27 -12 -78 -12q-97 0 -153 45.5t-56 126.5q0 135 148 256h-49l-131 371h-656l-131 -371h-190l526 1454h248l528 -1454q-163 -111 -163 -225q0 -86 104 -86zM414 530h540l-67 191q-139 370 -205 592q-54 -181 -178 -529l-23 -65z" />
    <glyph glyph-name="aogonek" unicode="&#x105;" horiz-adv-x="1089" 
d="M793 -225q0 -86 104 -86q32 0 53 6v-111q-27 -12 -78 -12q-97 0 -152.5 45.5t-55.5 126.5q0 136 147 256h-16v125q-51 -76 -139.5 -117t-202.5 -41q-165 0 -263 72.5t-98 210.5q0 161 121 235q125 75 348 115l225 41v51q0 93 -64 146t-171 53q-92 0 -165 -38t-167 -132
l-113 100q183 215 439 215q193 0 301 -91t108 -245v-700q-161 -109 -161 -225zM786 377v133l-184 -37q-77 -16 -123.5 -28t-90.5 -29t-67.5 -38t-38.5 -51t-18 -71q0 -69 54 -106t153 -37q137 0 226 72t89 192z" />
    <glyph glyph-name="Cacute" unicode="&#x106;" horiz-adv-x="1370" 
d="M1303 1280l-111 -131q-113 95 -207.5 133.5t-198.5 38.5q-231 0 -370.5 -165t-139.5 -429q0 -261 139 -427.5t359 -166.5q120 0 216 48.5t222 164.5l117 -127q-142 -136 -268 -194t-285 -58q-208 0 -366 99t-241 271t-83 392t82.5 391t242.5 269t375 98q145 0 266.5 -48
t250.5 -159zM1053 1864l-189 -289h-155l147 289h197z" />
    <glyph glyph-name="cacute" unicode="&#x107;" horiz-adv-x="1024" 
d="M563 889q-143 0 -225 -111.5t-82 -273.5q0 -158 80 -273q82 -110 229 -110q83 0 148.5 36t152.5 132l117 -99q-97 -120 -193 -169.5t-225 -49.5q-221 0 -355 146t-134 387q0 238 135.5 385t353.5 147q126 0 219.5 -43.5t184.5 -146.5l-115 -109q-78 84 -144.5 118
t-146.5 34zM823 1446l-188 -289h-156l148 289h196z" />
    <glyph glyph-name="Cdotaccent" unicode="&#x10a;" horiz-adv-x="1370" 
d="M1303 1280l-111 -131q-113 95 -207.5 133.5t-198.5 38.5q-231 0 -370.5 -165t-139.5 -429q0 -261 139 -427.5t359 -166.5q120 0 216 48.5t222 164.5l117 -127q-142 -136 -268 -194t-285 -58q-208 0 -366 99t-241 271t-83 392t82.5 391t242.5 269t375 98q145 0 266.5 -48
t250.5 -159zM879 1835v-211h-177v211h177z" />
    <glyph glyph-name="cdotaccent" unicode="&#x10b;" horiz-adv-x="1024" 
d="M563 889q-143 0 -225 -111.5t-82 -273.5q0 -158 80 -273q82 -110 229 -110q83 0 148.5 36t152.5 132l117 -99q-97 -120 -193 -169.5t-225 -49.5q-221 0 -355 146t-134 387q0 238 135.5 385t353.5 147q126 0 219.5 -43.5t184.5 -146.5l-115 -109q-78 84 -144.5 118
t-146.5 34zM647 1417v-211h-176v211h176z" />
    <glyph glyph-name="Ccaron" unicode="&#x10c;" horiz-adv-x="1370" 
d="M1303 1280l-111 -131q-113 95 -207.5 133.5t-198.5 38.5q-231 0 -370.5 -165t-139.5 -429q0 -261 139 -427.5t359 -166.5q120 0 216 48.5t222 164.5l117 -127q-142 -136 -268 -194t-285 -58q-208 0 -366 99t-241 271t-83 392t82.5 391t242.5 269t375 98q145 0 266.5 -48
t250.5 -159zM1102 1864l-201 -289h-221l-201 289h152l160 -203l159 203h152z" />
    <glyph glyph-name="ccaron" unicode="&#x10d;" horiz-adv-x="1024" 
d="M563 889q-143 0 -225 -111.5t-82 -273.5q0 -158 80 -273q82 -110 229 -110q83 0 148.5 36t152.5 132l117 -99q-97 -120 -193 -169.5t-225 -49.5q-221 0 -355 146t-134 387q0 238 135.5 385t353.5 147q126 0 219.5 -43.5t184.5 -146.5l-115 -109q-78 84 -144.5 118
t-146.5 34zM870 1446l-200 -289h-221l-201 289h151l160 -203l160 203h151z" />
    <glyph glyph-name="Dcaron" unicode="&#x10e;" horiz-adv-x="1439" 
d="M1354 727q0 -216 -74.5 -379t-221 -255.5t-347.5 -92.5h-543v1454h543q201 0 347.5 -92.5t221 -255.5t74.5 -379zM680 1296h-324v-1138h324q228 0 354.5 150t126.5 419q0 267 -126.5 418t-354.5 151zM1020 1864l-201 -289h-221l-201 289h152l160 -203l159 203h152z" />
    <glyph glyph-name="dcaron" unicode="&#x10f;" horiz-adv-x="1466" 
d="M854 1454h176v-1454h-166v156q-113 -183 -344 -183q-194 0 -319 148t-125 383t126.5 382.5t321.5 147.5q220 0 330 -162v582zM860 504q0 175 -86 277t-227 102q-131 0 -211 -104.5t-80 -274.5q0 -172 79 -276.5t212 -104.5q141 0 227 103t86 278zM1444 1454l-125 -405
h-113l62 405h176z" />
    <glyph glyph-name="Dcroat" unicode="&#x110;" horiz-adv-x="1497" 
d="M1411 727q0 -216 -74.5 -379t-221 -255.5t-347.5 -92.5h-545v672h-170v157h170v625h545q201 0 347.5 -92.5t221 -255.5t74.5 -379zM1219 727q0 267 -127 418t-355 151h-323v-467h383v-157h-383v-514h323q228 0 355 150t127 419z" />
    <glyph glyph-name="dslash" unicode="&#x111;" horiz-adv-x="1212" 
d="M1182 1286v-127h-150v-1159h-162v160q-111 -187 -346 -187q-195 0 -319.5 146.5t-124.5 380.5q0 233 126.5 379.5t321.5 146.5q219 0 328 -158v291h-254v127h254v168h176v-168h150zM864 500q0 172 -86 274.5t-227 102.5q-131 0 -211 -103.5t-80 -273.5q0 -169 79.5 -273
t211.5 -104q141 0 227 102.5t86 274.5z" />
    <glyph glyph-name="Emacron" unicode="&#x112;" horiz-adv-x="1247" 
d="M1135 1454v-158h-779v-469h725v-157h-725v-512h797v-158h-985v1454h967zM940 1769v-135h-571v135h571z" />
    <glyph glyph-name="emacron" unicode="&#x113;" horiz-adv-x="1093" 
d="M909 287l105 -107q-107 -114 -208.5 -161.5t-230.5 -47.5q-226 0 -362.5 145t-136.5 382q0 238 132 388t349 150q214 0 334.5 -129t120.5 -356q0 -28 -4 -78h-756q8 -159 92.5 -256.5t233.5 -97.5q94 0 161 37q67 36 170 131zM256 604h582q-6 135 -80.5 213t-202.5 78
q-123 0 -201 -76t-98 -215zM862 1352v-135h-571v135h571z" />
    <glyph glyph-name="Edotaccent" unicode="&#x116;" horiz-adv-x="1247" 
d="M1135 1454v-158h-779v-469h725v-157h-725v-512h797v-158h-985v1454h967zM743 1835v-211h-176v211h176z" />
    <glyph glyph-name="edotaccent" unicode="&#x117;" horiz-adv-x="1093" 
d="M909 287l105 -107q-107 -114 -208.5 -161.5t-230.5 -47.5q-226 0 -362.5 145t-136.5 382q0 238 132 388t349 150q214 0 334.5 -129t120.5 -356q0 -28 -4 -78h-756q8 -159 92.5 -256.5t233.5 -97.5q94 0 161 37q67 36 170 131zM256 604h582q-6 135 -80.5 213t-202.5 78
q-123 0 -201 -76t-98 -215zM664 1417v-211h-177v211h177z" />
    <glyph glyph-name="Eogonek" unicode="&#x118;" horiz-adv-x="1247" 
d="M989 -225q0 -42 27.5 -64t77.5 -22q34 0 55 6v-111q-27 -12 -78 -12q-97 0 -153 45.5t-56 126.5q0 135 148 256h-842v1454h967v-158h-779v-469h725v-157h-725v-512h797v-158q-164 -114 -164 -225z" />
    <glyph glyph-name="eogonek" unicode="&#x119;" horiz-adv-x="1093" 
d="M608 -244q0 116 97 230q-59 -15 -132 -15q-227 0 -362 144.5t-135 382.5t132 388t349 150q214 0 334.5 -129t120.5 -356q0 -28 -4 -78h-758q11 -160 94 -257t231 -97q94 0 164 37q67 36 170 131l105 -107q-32 -37 -92 -88q-183 -169 -183 -307q0 -46 29.5 -71t81.5 -25
q34 0 55 6v-113q-27 -10 -78 -10q-101 0 -160 47.5t-59 136.5zM256 604h580q-5 135 -79 213t-202 78q-123 0 -201 -75t-98 -216z" />
    <glyph glyph-name="Ecaron" unicode="&#x11a;" horiz-adv-x="1247" 
d="M1135 1454v-158h-779v-469h725v-157h-725v-512h797v-158h-985v1454h967zM967 1864l-201 -289h-221l-201 289h152l159 -203l160 203h152z" />
    <glyph glyph-name="ecaron" unicode="&#x11b;" horiz-adv-x="1093" 
d="M909 287l105 -107q-107 -114 -208.5 -161.5t-230.5 -47.5q-226 0 -362.5 145t-136.5 382q0 238 132 388t349 150q214 0 334.5 -129t120.5 -356q0 -28 -4 -78h-756q8 -159 92.5 -256.5t233.5 -97.5q94 0 161 37q67 36 170 131zM256 604h582q-6 135 -80.5 213t-202.5 78
q-123 0 -201 -76t-98 -215zM889 1446l-201 -289h-221l-201 289h152l160 -203l159 203h152z" />
    <glyph glyph-name="Gbreve" unicode="&#x11e;" horiz-adv-x="1517" 
d="M741 602v160h641v-762h-147l-14 184q-135 -215 -453 -215q-211 0 -366.5 97t-235.5 267.5t-80 393.5q0 220 84 391t245 269t376 98q175 0 315 -66.5t278 -210.5l-120 -123q-131 131 -234 181q-106 53 -244 53q-226 0 -368 -163.5t-142 -428.5q0 -271 136 -432.5
t366 -161.5q192 0 312 111q118 109 118 301v57h-467zM494 1831h129q2 -68 44.5 -109t120.5 -41q77 0 119 40.5t47 109.5h127q0 -122 -81 -195t-212 -73q-134 0 -214 72.5t-80 195.5z" />
    <glyph glyph-name="gbreve" unicode="&#x11f;" horiz-adv-x="1157" 
d="M856 1008h164v-985q0 -195 -123 -306.5t-334 -111.5q-247 0 -457 149l89 129q111 -69 192 -99t174 -30q133 0 209 70.5t76 212.5v137q-107 -162 -322 -162q-193 0 -317.5 144.5t-124.5 367.5t124.5 367.5t317.5 144.5q224 0 332 -178v150zM850 524q0 161 -82 262
t-215 101q-134 0 -212.5 -100t-78.5 -263t78.5 -262.5t212.5 -99.5q133 0 215 101t82 261zM287 1413h129q2 -68 45 -108.5t121 -40.5q77 0 119 40t47 109h126q0 -122 -80.5 -195t-211.5 -73q-134 0 -214.5 72.5t-80.5 195.5z" />
    <glyph glyph-name="Gdotaccent" unicode="&#x120;" horiz-adv-x="1517" 
d="M741 602v160h641v-762h-147l-14 184q-135 -215 -453 -215q-211 0 -366.5 97t-235.5 267.5t-80 393.5q0 220 84 391t245 269t376 98q175 0 315 -66.5t278 -210.5l-120 -123q-131 131 -234 181q-106 53 -244 53q-226 0 -368 -163.5t-142 -428.5q0 -271 136 -432.5
t366 -161.5q192 0 312 111q118 109 118 301v57h-467zM877 1835v-211h-177v211h177z" />
    <glyph glyph-name="gdotaccent" unicode="&#x121;" horiz-adv-x="1157" 
d="M856 1008h164v-985q0 -195 -123 -306.5t-334 -111.5q-247 0 -457 149l89 129q111 -69 192 -99t174 -30q133 0 209 70.5t76 212.5v137q-107 -162 -322 -162q-193 0 -317.5 144.5t-124.5 367.5t124.5 367.5t317.5 144.5q224 0 332 -178v150zM850 524q0 161 -82 262
t-215 101q-134 0 -212.5 -100t-78.5 -263t78.5 -262.5t212.5 -99.5q133 0 215 101t82 261zM668 1417v-211h-176v211h176z" />
    <glyph glyph-name="uni0122" unicode="&#x122;" horiz-adv-x="1517" 
d="M741 602v160h641v-762h-147l-14 184q-135 -215 -453 -215q-211 0 -366.5 97t-235.5 267.5t-80 393.5q0 220 84 391t245 269t376 98q175 0 315 -66.5t278 -210.5l-120 -123q-131 131 -234 181q-106 53 -244 53q-226 0 -368 -163.5t-142 -428.5q0 -271 136 -432.5
t366 -161.5q192 0 312 111q118 109 118 301v57h-467zM877 -150v-176l-117 -192h-98l106 192h-96v176h205z" />
    <glyph glyph-name="uni0123" unicode="&#x123;" horiz-adv-x="1157" 
d="M856 1008h164v-985q0 -195 -123 -306.5t-334 -111.5q-247 0 -457 149l89 129q111 -69 192 -99t174 -30q133 0 209 70.5t76 212.5v137q-107 -162 -322 -162q-193 0 -317.5 144.5t-124.5 367.5t124.5 367.5t317.5 144.5q224 0 332 -178v150zM850 524q0 161 -82 262
t-215 101q-134 0 -212.5 -100t-78.5 -263t78.5 -262.5t212.5 -99.5q133 0 215 101t82 261zM471 1202v180l117 205h98l-104 -205h96v-180h-207z" />
    <glyph glyph-name="Hbar" unicode="&#x126;" horiz-adv-x="1597" 
d="M1536 1227v-135h-158v-1092h-190v676h-778v-676h-189v1092h-160v135h160v227h189v-227h778v227h190v-227h158zM1188 834v258h-778v-258h778z" />
    <glyph glyph-name="hbar" unicode="&#x127;" horiz-adv-x="1157" 
d="M1022 684v-684h-176v627q0 123 -59.5 187.5t-172.5 64.5q-106 0 -183 -76.5t-77 -186.5v-616h-176v1159h-149v127h149v168h176v-168h256v-127h-256v-287q49 77 129 117.5t181 40.5q172 0 265 -94.5t93 -251.5z" />
    <glyph glyph-name="Imacron" unicode="&#x12a;" horiz-adv-x="552" 
d="M371 1454v-1454h-189v1454h189zM563 1769v-135h-571v135h571z" />
    <glyph glyph-name="imacron" unicode="&#x12b;" horiz-adv-x="450" 
d="M313 1008v-1008h-176v1008h176zM512 1352v-135h-571v135h571z" />
    <glyph glyph-name="Iogonek" unicode="&#x12e;" horiz-adv-x="552" 
d="M209 -225q0 -86 104 -86q33 0 54 6v-111q-27 -12 -78 -12q-97 0 -153 45.5t-56 126.5q0 136 147 256h-45v1454h189v-1454q-162 -110 -162 -225z" />
    <glyph glyph-name="iogonek" unicode="&#x12f;" horiz-adv-x="450" 
d="M137 1417h176v-211h-176v211zM137 0v1008h176v-1008q-163 -114 -163 -225q0 -86 104 -86q34 0 55 6v-111q-27 -12 -80 -12q-95 0 -150.5 45.5t-55.5 126.5q0 136 147 256h-33z" />
    <glyph glyph-name="Idot" unicode="&#x130;" horiz-adv-x="552" 
d="M371 1454v-1454h-189v1454h189zM365 1835v-211h-177v211h177z" />
    <glyph glyph-name="dotlessi" unicode="&#x131;" horiz-adv-x="450" 
d="M313 1008v-1008h-176v1008h176z" />
    <glyph glyph-name="IJ" unicode="&#x132;" horiz-adv-x="1499" 
d="M371 1454v-1454h-189v1454h189zM1341 1454v-1079q0 -400 -393 -400q-185 0 -370 97l65 147q98 -41 164.5 -59.5t134.5 -18.5q211 0 211 250v1063h188z" />
    <glyph glyph-name="ij" unicode="&#x133;" horiz-adv-x="909" 
d="M313 1008v-1008h-176v1008h176zM313 1417v-211h-176v211h176zM465 -248q71 0 100 40t29 130v1086h176v-1086q0 -315 -285 -315q-92 0 -194 31l35 135q76 -21 139 -21zM770 1417v-211h-176v211h176z" />
    <glyph glyph-name="uni0136" unicode="&#x136;" horiz-adv-x="1347" 
d="M1114 0l-498 750l-260 -269v-481h-188v1454h188v-743l709 743h235l-555 -573l584 -881h-215zM813 -150v-176l-117 -192h-98l107 192h-97v176h205z" />
    <glyph glyph-name="uni0137" unicode="&#x137;" horiz-adv-x="1040" 
d="M831 0l-335 506l-183 -182v-324h-176v1454h176v-936l469 490h215l-383 -390l414 -618h-197zM659 -150v-176l-116 -192h-99l107 192h-96v176h204z" />
    <glyph glyph-name="Lacute" unicode="&#x139;" horiz-adv-x="1116" 
d="M356 1454v-1294h705v-160h-893v1454h188zM526 1864l-188 -289h-156l148 289h196z" />
    <glyph glyph-name="lacute" unicode="&#x13a;" horiz-adv-x="462" 
d="M319 1454v-1454h-176v1454h176zM492 1843l-189 -289h-156l148 289h197z" />
    <glyph glyph-name="uni013B" unicode="&#x13b;" horiz-adv-x="1116" 
d="M356 1454v-1294h705v-160h-893v1454h188zM729 -150v-176l-117 -192h-98l107 192h-97v176h205z" />
    <glyph glyph-name="uni013C" unicode="&#x13c;" horiz-adv-x="462" 
d="M319 1454v-1454h-176v1454h176zM336 -150v-176l-117 -192h-98l106 192h-96v176h205z" />
    <glyph glyph-name="Lcaron" unicode="&#x13d;" horiz-adv-x="1116" 
d="M356 1454v-1294h705v-160h-893v1454h188zM791 1454l-125 -405h-113l61 405h177z" />
    <glyph glyph-name="lcaron" unicode="&#x13e;" horiz-adv-x="757" 
d="M319 1454v-1454h-176v1454h176zM735 1454l-125 -405h-112l61 405h176z" />
    <glyph glyph-name="Ldot" unicode="&#x13f;" horiz-adv-x="1091" 
d="M356 1454v-1294h705v-160h-893v1454h188zM889 864v-221h-209v221h209z" />
    <glyph glyph-name="ldot" unicode="&#x140;" horiz-adv-x="811" 
d="M319 1454v-1454h-176v1454h176zM731 752v-222h-209v222h209z" />
    <glyph glyph-name="Lslash" unicode="&#x141;" horiz-adv-x="1202" 
d="M442 160h705v-160h-893v610l-199 -110v164l199 110v680h188v-584l289 160v-162l-289 -161v-547z" />
    <glyph glyph-name="lslash" unicode="&#x142;" horiz-adv-x="700" 
d="M625 1016v-154l-181 -106v-756h-176v653l-192 -112v153l192 113v647h176v-545z" />
    <glyph glyph-name="Nacute" unicode="&#x143;" horiz-adv-x="1499" 
d="M1147 1454h184v-1454h-209l-430 662q-209 313 -350 555q10 -332 10 -564v-653h-184v1454h211l436 -672l53 -82q229 -357 289 -460q-10 325 -10 551v663zM1028 1864l-188 -289h-156l147 289h197z" />
    <glyph glyph-name="nacute" unicode="&#x144;" horiz-adv-x="1116" 
d="M981 690v-690h-176v635q0 123 -59.5 187.5t-172.5 64.5q-108 0 -184 -76q-76 -73 -76 -186v-625h-176v1008h166v-129q49 77 131.5 117t186.5 40q172 0 266 -96t94 -250zM821 1446l-188 -289h-156l148 289h196z" />
    <glyph glyph-name="uni0145" unicode="&#x145;" horiz-adv-x="1499" 
d="M1147 1454h184v-1454h-209l-430 662q-209 313 -350 555q10 -332 10 -564v-653h-184v1454h211l436 -672l53 -82q229 -357 289 -460q-10 325 -10 551v663zM856 -150v-176l-117 -192h-98l107 192h-97v176h205z" />
    <glyph glyph-name="uni0146" unicode="&#x146;" horiz-adv-x="1116" 
d="M981 690v-690h-176v635q0 123 -59.5 187.5t-172.5 64.5q-108 0 -184 -76q-76 -73 -76 -186v-625h-176v1008h166v-129q49 77 131.5 117t186.5 40q172 0 266 -96t94 -250zM657 -150v-176l-116 -192h-99l107 192h-96v176h204z" />
    <glyph glyph-name="Ncaron" unicode="&#x147;" horiz-adv-x="1499" 
d="M1147 1454h184v-1454h-209l-430 662q-209 313 -350 555q10 -332 10 -564v-653h-184v1454h211l436 -672l53 -82q229 -357 289 -460q-10 325 -10 551v663zM1077 1864l-200 -289h-222l-200 289h151l160 -203l160 203h151z" />
    <glyph glyph-name="ncaron" unicode="&#x148;" horiz-adv-x="1116" 
d="M981 690v-690h-176v635q0 123 -59.5 187.5t-172.5 64.5q-108 0 -184 -76q-76 -73 -76 -186v-625h-176v1008h166v-129q49 77 131.5 117t186.5 40q172 0 266 -96t94 -250zM870 1446l-200 -289h-221l-201 289h151l160 -203l160 203h151z" />
    <glyph glyph-name="Eng" unicode="&#x14a;" horiz-adv-x="1499" 
d="M1147 1454h184v-1544q0 -153 -74 -233t-219 -80q-107 0 -219 36l37 148q102 -29 158 -29q74 0 107.5 40.5t33.5 127.5v27l-463 715q-233 353 -348 552q8 -211 8 -561v-653h-184v1454h211l436 -672l51 -80q199 -308 291 -464q-10 325 -10 553v663z" />
    <glyph glyph-name="eng" unicode="&#x14b;" horiz-adv-x="1118" 
d="M981 690v-768q0 -315 -285 -315q-91 0 -196 31l37 135q77 -21 139 -21q71 0 100 40t29 130v713q0 123 -59.5 187.5t-172.5 64.5q-108 0 -184 -76q-76 -73 -76 -186v-625h-176v1008h166v-129q49 77 131.5 117t186.5 40q172 0 266 -96t94 -250z" />
    <glyph glyph-name="Omacron" unicode="&#x14c;" horiz-adv-x="1552" 
d="M1466 727q0 -163 -48.5 -302.5t-137 -241t-218.5 -159t-286 -57.5t-286 57.5t-218.5 159t-137 241t-48.5 302.5t48.5 302.5t137 241t218.5 159t286 57.5t286 -57.5t218.5 -159t137 -241t48.5 -302.5zM279 727q0 -263 138 -428.5t359 -165.5q223 0 360.5 165t137.5 429
q0 261 -137.5 427.5t-360.5 166.5q-220 0 -358.5 -166.5t-138.5 -427.5zM1063 1769v-135h-571v135h571z" />
    <glyph glyph-name="omacron" unicode="&#x14d;" horiz-adv-x="1148" 
d="M1073 504q0 -234 -139.5 -383.5t-358.5 -149.5q-220 0 -359.5 149t-139.5 384t139.5 383.5t359.5 148.5q219 0 358.5 -149t139.5 -383zM256 504q0 -173 87 -279t232 -106t231.5 106t86.5 279t-86.5 279t-231.5 106t-232 -106t-87 -279zM856 1352v-135h-571v135h571z" />
    <glyph glyph-name="Ohungarumlaut" unicode="&#x150;" horiz-adv-x="1552" 
d="M1466 727q0 -163 -48.5 -302.5t-137 -241t-218.5 -159t-286 -57.5t-286 57.5t-218.5 159t-137 241t-48.5 302.5t48.5 302.5t137 241t218.5 159t286 57.5t286 -57.5t218.5 -159t137 -241t48.5 -302.5zM279 727q0 -263 138 -428.5t359 -165.5q223 0 360.5 165t137.5 429
q0 261 -137.5 427.5t-360.5 166.5q-220 0 -358.5 -166.5t-138.5 -427.5zM879 1870l-191 -295h-135l147 295h179zM1196 1870l-192 -295h-138l152 295h178z" />
    <glyph glyph-name="ohungarumlaut" unicode="&#x151;" horiz-adv-x="1148" 
d="M1073 504q0 -234 -139.5 -383.5t-358.5 -149.5q-220 0 -359.5 149t-139.5 384t139.5 383.5t359.5 148.5q219 0 358.5 -149t139.5 -383zM256 504q0 -173 87 -279t232 -106t231.5 106t86.5 279t-86.5 279t-231.5 106t-232 -106t-87 -279zM674 1452l-191 -295h-135l148 295
h178zM991 1452l-192 -295h-137l151 295h178z" />
    <glyph glyph-name="OE" unicode="&#x152;" horiz-adv-x="2355" 
d="M1464 158h797v-158h-987v215q-86 -120 -213 -184t-287 -64q-156 0 -286 57.5t-217.5 159t-136 241t-48.5 302.5t48.5 302.5t136 241t217.5 159t286 57.5q160 0 287 -64t213 -184v215h969v-158h-779v-469h725v-157h-725v-512zM1274 727q0 261 -137.5 427.5t-360.5 166.5
q-220 0 -358.5 -166.5t-138.5 -427.5q0 -263 138 -428.5t359 -165.5q223 0 360.5 165t137.5 429z" />
    <glyph glyph-name="oe" unicode="&#x153;" horiz-adv-x="1916" 
d="M1731 287l104 -107q-103 -113 -206.5 -161t-231.5 -48q-139 0 -244.5 55.5t-169.5 159.5q-64 -101 -171.5 -158t-236.5 -57q-220 0 -359.5 149t-139.5 384t139.5 383.5t359.5 148.5q133 0 239 -57t169 -160q62 104 164 160.5t231 56.5q214 0 334.5 -129t120.5 -356
l-4 -80h-756q8 -158 92 -255t234 -97q94 0 164 37q69 37 168 131zM1079 600h582q-5 137 -79.5 217t-203.5 80q-123 0 -201 -78t-98 -219zM893 504q0 173 -86.5 279t-231.5 106t-232 -106t-87 -279t87 -279t232 -106t231.5 106t86.5 279z" />
    <glyph glyph-name="Racute" unicode="&#x154;" horiz-adv-x="1368" 
d="M1300 0h-215l-389 584h-340v-584h-188v1454h610q209 0 340 -117.5t131 -316.5q0 -170 -93 -281.5t-255 -142.5zM356 1296v-555h392q148 0 231.5 72.5t83.5 206.5q0 132 -84.5 204t-233.5 72h-389zM940 1864l-188 -289h-156l147 289h197z" />
    <glyph glyph-name="racute" unicode="&#x155;" horiz-adv-x="733" 
d="M713 989l-33 -147q-70 20 -131 20q-106 0 -171 -87t-65 -234v-541h-176v1008h166v-152q38 77 102 120.5t148 43.5q75 0 160 -31zM690 1446l-188 -289h-156l148 289h196z" />
    <glyph glyph-name="uni0156" unicode="&#x156;" horiz-adv-x="1368" 
d="M1300 0h-215l-389 584h-340v-584h-188v1454h610q209 0 340 -117.5t131 -316.5q0 -170 -93 -281.5t-255 -142.5zM356 1296v-555h392q148 0 231.5 72.5t83.5 206.5q0 132 -84.5 204t-233.5 72h-389zM793 -150v-176l-117 -192h-98l106 192h-96v176h205z" />
    <glyph glyph-name="uni0157" unicode="&#x157;" horiz-adv-x="733" 
d="M713 989l-33 -147q-70 20 -131 20q-106 0 -171 -87t-65 -234v-541h-176v1008h166v-152q38 77 102 120.5t148 43.5q75 0 160 -31zM328 -150v-176l-117 -192h-98l106 192h-96v176h205z" />
    <glyph glyph-name="Rcaron" unicode="&#x158;" horiz-adv-x="1368" 
d="M1300 0h-215l-389 584h-340v-584h-188v1454h610q209 0 340 -117.5t131 -316.5q0 -170 -93 -281.5t-255 -142.5zM356 1296v-555h392q148 0 231.5 72.5t83.5 206.5q0 132 -84.5 204t-233.5 72h-389zM989 1864l-201 -289h-221l-200 289h151l160 -203l160 203h151z" />
    <glyph glyph-name="rcaron" unicode="&#x159;" horiz-adv-x="733" 
d="M713 989l-33 -147q-70 20 -131 20q-106 0 -171 -87t-65 -234v-541h-176v1008h166v-152q38 77 102 120.5t148 43.5q75 0 160 -31zM739 1446l-200 -289h-222l-200 289h151l160 -203l160 203h151z" />
    <glyph glyph-name="Sacute" unicode="&#x15a;" horiz-adv-x="1288" 
d="M1180 1272l-111 -131q-115 101 -214 141.5t-224 40.5q-149 0 -241.5 -66.5t-92.5 -171.5q0 -72 43 -118q41 -41 115.5 -67t240.5 -64q280 -64 392 -155t112 -263q0 -200 -150 -325.5t-386 -125.5q-175 0 -314 58t-299 194l113 133q154 -130 264 -176q110 -45 238 -45
q154 0 250 75.5t96 201.5q0 84 -47 131q-43 46 -125 75q-93 33 -234 64q-282 63 -387.5 148.5t-105.5 254.5q0 117 69.5 210t187.5 143.5t261 50.5q163 0 290 -50t259 -163zM905 1864l-188 -289h-156l148 289h196z" />
    <glyph glyph-name="sacute" unicode="&#x15b;" horiz-adv-x="980" 
d="M895 889l-96 -119q-92 71 -161 97t-157 26q-99 0 -160 -42t-61 -108q9 -64 53.5 -87t216.5 -62q209 -48 295 -115.5t86 -193.5q0 -141 -110 -227.5t-293 -86.5q-136 0 -241.5 42.5t-223.5 146.5l104 114q109 -89 189 -124q76 -33 174 -33q101 0 165 43t64 116
q0 71 -62 106.5t-220 70.5q-216 48 -289.5 103t-77.5 181q0 132 109 215.5t282 83.5q124 0 219 -33.5t195 -113.5zM764 1446l-189 -289h-155l147 289h197z" />
    <glyph glyph-name="Scedilla" unicode="&#x15e;" horiz-adv-x="1288" 
d="M676 -33l-49 -104q97 4 158 -40.5t61 -119.5q0 -81 -60.5 -132.5t-154.5 -51.5q-108 0 -221 73l51 84q55 -31 90 -43t76 -12q48 0 78 21.5t30 58.5q0 35 -32.5 55.5t-84.5 20.5q-35 0 -59 -6l-57 55l67 145q-140 13 -261 71.5t-257 176.5l113 133q154 -130 264 -176
q110 -45 238 -45q154 0 250 75.5t96 201.5q0 84 -47 131q-43 46 -125 75q-93 33 -234 64q-282 63 -387.5 148.5t-105.5 254.5q0 117 69.5 210t187.5 143.5t261 50.5q163 0 290 -50t259 -163l-111 -131q-115 101 -214 141.5t-224 40.5q-149 0 -241.5 -66.5t-92.5 -171.5
q0 -72 43 -118q41 -41 115.5 -67t240.5 -64q280 -64 392 -155t112 -263q0 -196 -146.5 -322t-377.5 -129z" />
    <glyph glyph-name="scedilla" unicode="&#x15f;" horiz-adv-x="980" 
d="M514 -29l-49 -108q97 4 158 -40.5t61 -119.5q0 -82 -60 -133t-157 -51q-108 0 -221 73l53 84q55 -31 90 -43t76 -12q48 0 78 21.5t30 58.5q0 35 -32.5 55.5t-83.5 20.5q-36 0 -60 -6l-57 55l70 151q-99 12 -185 54.5t-182 128.5l104 114q109 -89 189 -124q76 -33 174 -33
q101 0 165 43t64 116q0 71 -62 106.5t-220 70.5q-216 48 -289.5 103t-77.5 181q0 132 109 215.5t282 83.5q124 0 219 -33.5t195 -113.5l-96 -119q-92 71 -161 97t-157 26q-99 0 -160 -42t-61 -108q9 -64 53.5 -87t216.5 -62q209 -48 295 -115.5t86 -193.5
q0 -140 -108.5 -226.5t-288.5 -87.5z" />
    <glyph glyph-name="Scaron" unicode="&#x160;" horiz-adv-x="1288" 
d="M1180 1272l-111 -131q-115 101 -214 141.5t-224 40.5q-149 0 -241.5 -66.5t-92.5 -171.5q0 -72 43 -118q41 -41 115.5 -67t240.5 -64q280 -64 392 -155t112 -263q0 -200 -150 -325.5t-386 -125.5q-175 0 -314 58t-299 194l113 133q154 -130 264 -176q110 -45 238 -45
q154 0 250 75.5t96 201.5q0 84 -47 131q-43 46 -125 75q-93 33 -234 64q-282 63 -387.5 148.5t-105.5 254.5q0 117 69.5 210t187.5 143.5t261 50.5q163 0 290 -50t259 -163zM954 1864l-200 -289h-222l-200 289h151l160 -203l160 203h151z" />
    <glyph glyph-name="scaron" unicode="&#x161;" horiz-adv-x="980" 
d="M895 889l-96 -119q-92 71 -161 97t-157 26q-99 0 -160 -42t-61 -108q9 -64 53.5 -87t216.5 -62q209 -48 295 -115.5t86 -193.5q0 -141 -110 -227.5t-293 -86.5q-136 0 -241.5 42.5t-223.5 146.5l104 114q109 -89 189 -124q76 -33 174 -33q101 0 165 43t64 116
q0 71 -62 106.5t-220 70.5q-216 48 -289.5 103t-77.5 181q0 132 109 215.5t282 83.5q124 0 219 -33.5t195 -113.5zM811 1446l-201 -289h-221l-201 289h152l160 -203l159 203h152z" />
    <glyph glyph-name="uni0162" unicode="&#x162;" horiz-adv-x="1234" 
d="M713 0h-43l-64 -137q97 4 158 -40.5t61 -119.5q0 -82 -60 -133t-157 -51q-108 0 -221 73l51 84q59 -32 93.5 -43.5t74.5 -11.5q48 0 78.5 21.5t30.5 58.5q0 35 -33.5 55.5t-85.5 20.5q-33 0 -57 -6l-58 55l80 174h-39v1294h-459v160h1108v-160h-458v-1294z" />
    <glyph glyph-name="uni0163" unicode="&#x163;" horiz-adv-x="729" 
d="M664 -297q0 -82 -60.5 -133t-157.5 -51q-108 0 -221 73l51 84q59 -32 93.5 -43.5t74.5 -11.5q48 0 78.5 21.5t30.5 58.5q0 35 -33.5 55.5t-85.5 20.5q-33 0 -57 -6l-58 55l76 164q-89 18 -129.5 78t-40.5 165v641h-188v134h188v338h176v-338h273v-134h-273v-620
q0 -67 27.5 -95t91.5 -28q54 0 146 25l26 -140q-89 -31 -192 -34l-56 -119q97 5 158.5 -40t61.5 -120z" />
    <glyph glyph-name="Tcaron" unicode="&#x164;" horiz-adv-x="1234" 
d="M1171 1454v-160h-458v-1294h-191v1294h-459v160h1108zM930 1864l-201 -289h-221l-201 289h152l159 -203l160 203h152z" />
    <glyph glyph-name="tcaron" unicode="&#x165;" horiz-adv-x="729" 
d="M666 156l26 -140q-93 -34 -207 -34q-137 0 -198.5 62t-61.5 189v641h-188v134h188v338h176v-338h273v-134h-273v-620q0 -67 27.5 -95t91.5 -28q54 0 146 25zM801 1583l-125 -405h-113l62 405h176z" />
    <glyph glyph-name="Tbar" unicode="&#x166;" horiz-adv-x="1230" 
d="M1167 1294h-456v-442h262v-135h-262v-717h-191v717h-258v135h258v442h-457v160h1104v-160z" />
    <glyph glyph-name="tbar" unicode="&#x167;" horiz-adv-x="729" 
d="M666 156l26 -140q-93 -34 -207 -34q-137 0 -198.5 62t-61.5 189v234h-188v137h188v270h-188v134h188v338h176v-338h273v-134h-273v-270h273v-137h-273v-213q0 -67 27.5 -95t91.5 -28q54 0 146 25z" />
    <glyph glyph-name="Umacron" unicode="&#x16a;" horiz-adv-x="1409" 
d="M1253 1454v-991q0 -241 -139 -367.5t-409 -126.5q-269 0 -408 127t-139 367v991h188v-981q0 -166 91 -252t268 -86t267.5 86t90.5 252v981h190zM991 1769v-135h-571v135h571z" />
    <glyph glyph-name="umacron" unicode="&#x16b;" horiz-adv-x="1099" 
d="M786 1008h177v-1008h-164v125q-44 -74 -123.5 -114t-181.5 -40q-178 0 -268.5 88.5t-90.5 241.5v707h176v-664q0 -108 54 -164.5t157 -56.5q120 0 192 71t72 199v615zM819 1352v-135h-571v135h571z" />
    <glyph glyph-name="Uring" unicode="&#x16e;" horiz-adv-x="1409" 
d="M1253 1454v-991q0 -241 -139 -367.5t-409 -126.5q-269 0 -408 127t-139 367v991h188v-981q0 -166 91 -252t268 -86t267.5 86t90.5 252v981h190zM924 1708q0 -86 -66 -152q-64 -61 -153 -61q-92 0 -156 62.5t-64 150.5q0 90 63.5 151.5t156.5 61.5q90 0 153 -63
q66 -63 66 -150zM582 1708q0 -55 34.5 -90t88.5 -35t87 34.5t33 90.5t-33 90.5t-87 34.5t-88.5 -35t-34.5 -90z" />
    <glyph glyph-name="uring" unicode="&#x16f;" horiz-adv-x="1099" 
d="M786 1008h177v-1008h-164v125q-44 -74 -123.5 -114t-181.5 -40q-178 0 -268.5 88.5t-90.5 241.5v707h176v-664q0 -108 54 -164.5t157 -56.5q120 0 192 71t72 199v615zM754 1358q0 -86 -66 -152q-64 -61 -153 -61q-92 0 -156 62.5t-64 150.5q0 90 63.5 151.5t156.5 61.5
q89 0 153 -64q66 -63 66 -149zM412 1358q0 -55 34.5 -90t88.5 -35t87 34.5t33 90.5t-33 90.5t-87 34.5t-88.5 -35t-34.5 -90z" />
    <glyph glyph-name="Uhungarumlaut" unicode="&#x170;" horiz-adv-x="1409" 
d="M1253 1454v-991q0 -241 -139 -367.5t-409 -126.5q-269 0 -408 127t-139 367v991h188v-981q0 -166 91 -252t268 -86t267.5 86t90.5 252v981h190zM807 1870l-191 -295h-135l148 295h178zM1124 1870l-192 -295h-137l151 295h178z" />
    <glyph glyph-name="uhungarumlaut" unicode="&#x171;" horiz-adv-x="1099" 
d="M786 1008h177v-1008h-164v125q-44 -74 -123.5 -114t-181.5 -40q-178 0 -268.5 88.5t-90.5 241.5v707h176v-664q0 -108 54 -164.5t157 -56.5q120 0 192 71t72 199v615zM635 1452l-191 -295h-135l148 295h178zM952 1452l-192 -295h-137l151 295h178z" />
    <glyph glyph-name="Uogonek" unicode="&#x172;" horiz-adv-x="1409" 
d="M1063 1454h190v-989q0 -162 -51 -254q-49 -93 -172 -182q-186 -130 -186 -250q0 -42 28 -66t76 -24q35 0 56 6v-111q-27 -12 -78 -12q-98 0 -154.5 47t-56.5 131q0 120 110 227q-44 -8 -120 -8q-269 0 -408 127t-139 367v991h188v-981q0 -166 91 -252t268 -86t267.5 86
t90.5 252v981z" />
    <glyph glyph-name="uogonek" unicode="&#x173;" horiz-adv-x="1099" 
d="M799 -225q0 -86 104 -86q32 0 53 6v-111q-27 -12 -77 -12q-95 0 -151 45.5t-56 126.5q0 136 147 256h-20v125q-44 -74 -123.5 -114t-181.5 -40q-178 0 -268.5 88.5t-90.5 241.5v707h176v-664q0 -108 54 -164.5t157 -56.5q120 0 192 71t72 199v615h177v-1008
q-164 -114 -164 -225z" />
    <glyph glyph-name="Wcircumflex" unicode="&#x174;" horiz-adv-x="1923" 
d="M1671 1454h187l-351 -1454h-231l-178 668q-90 340 -135 542q-36 -175 -134 -544l-180 -666h-233l-353 1454h193l166 -700q55 -237 119 -559q84 349 141 559l190 700h191l186 -700q85 -329 137 -559q55 280 121 559zM1122 1575l-159 201l-160 -201h-152l201 289h221
l201 -289h-152z" />
    <glyph glyph-name="wcircumflex" unicode="&#x175;" horiz-adv-x="1505" 
d="M1282 1008h180l-282 -1008h-213l-95 322q-69 244 -122 475q-60 -251 -123 -478l-88 -319h-213l-283 1008h182l101 -377q28 -104 114 -477q55 230 123 477l107 377h166l106 -377q75 -265 123 -481q60 263 117 481zM913 1157l-159 201l-160 -201h-152l201 289h221l201 -289
h-152z" />
    <glyph glyph-name="Ycircumflex" unicode="&#x176;" horiz-adv-x="1277" 
d="M1042 1454h205l-516 -833v-621h-188v623l-512 831h209l401 -666zM799 1575l-160 201l-160 -201h-151l200 289h222l200 -289h-151z" />
    <glyph glyph-name="ycircumflex" unicode="&#x177;" horiz-adv-x="991" 
d="M776 1008h178l-403 -1147q-51 -143 -115 -199.5t-188 -56.5q-89 0 -156 20l31 135q55 -12 108 -12q63 0 101.5 35t68.5 125l13 39l-379 1061h186l113 -334q14 -41 149 -447l17 -51l61 186l103 316zM653 1157l-159 201l-160 -201h-152l201 289h221l201 -289h-152z" />
    <glyph glyph-name="Ydieresis" unicode="&#x178;" horiz-adv-x="1277" 
d="M1042 1454h205l-516 -833v-621h-188v623l-512 831h209l401 -666zM543 1835v-211h-172v211h172zM905 1835v-211h-172v211h172z" />
    <glyph glyph-name="Zacute" unicode="&#x179;" horiz-adv-x="1275" 
d="M1190 1454v-151l-883 -1145h881v-158h-1104v152l883 1144h-844v158h1067zM928 1864l-189 -289h-155l147 289h197z" />
    <glyph glyph-name="zacute" unicode="&#x17a;" horiz-adv-x="978" 
d="M889 1008v-129l-592 -734h592v-145h-811v131l596 733h-559v144h774zM756 1446l-189 -289h-155l147 289h197z" />
    <glyph glyph-name="Zdotaccent" unicode="&#x17b;" horiz-adv-x="1275" 
d="M1190 1454v-151l-883 -1145h881v-158h-1104v152l883 1144h-844v158h1067zM752 1835v-211h-177v211h177z" />
    <glyph glyph-name="zdotaccent" unicode="&#x17c;" horiz-adv-x="978" 
d="M889 1008v-129l-592 -734h592v-145h-811v131l596 733h-559v144h774zM582 1417v-211h-176v211h176z" />
    <glyph glyph-name="Zcaron" unicode="&#x17d;" horiz-adv-x="1275" 
d="M1190 1454v-151l-883 -1145h881v-158h-1104v152l883 1144h-844v158h1067zM975 1864l-201 -289h-221l-201 289h152l160 -203l159 203h152z" />
    <glyph glyph-name="zcaron" unicode="&#x17e;" horiz-adv-x="978" 
d="M889 1008v-129l-592 -734h592v-145h-811v131l596 733h-559v144h774zM805 1446l-201 -289h-221l-201 289h152l160 -203l159 203h152z" />
    <glyph glyph-name="florin" unicode="&#x192;" 
d="M655 946h265v-133h-265v-897q0 -313 -284 -313q-105 0 -197 30l37 134q89 -21 139 -21q71 0 100 40t29 132v895h-229v133h229v168q0 150 78 229.5t225 79.5q104 0 205 -34l-37 -136q-86 25 -139 25q-84 0 -120 -42.5t-36 -141.5v-148z" />
    <glyph glyph-name="uni0218" unicode="&#x218;" horiz-adv-x="1288" 
d="M1180 1272l-111 -131q-115 101 -214 141.5t-224 40.5q-149 0 -241.5 -66.5t-92.5 -171.5q0 -72 43 -118q41 -41 115.5 -67t240.5 -64q280 -64 392 -155t112 -263q0 -200 -150 -325.5t-386 -125.5q-175 0 -314 58t-299 194l113 133q154 -130 264 -176q110 -45 238 -45
q154 0 250 75.5t96 201.5q0 84 -47 131q-43 46 -125 75q-93 33 -234 64q-282 63 -387.5 148.5t-105.5 254.5q0 117 69.5 210t187.5 143.5t261 50.5q163 0 290 -50t259 -163zM743 -150v-176l-116 -192h-99l107 192h-96v176h204z" />
    <glyph glyph-name="uni0219" unicode="&#x219;" horiz-adv-x="980" 
d="M895 889l-96 -119q-92 71 -161 97t-157 26q-99 0 -160 -42t-61 -108q9 -64 53.5 -87t216.5 -62q209 -48 295 -115.5t86 -193.5q0 -141 -110 -227.5t-293 -86.5q-136 0 -241.5 42.5t-223.5 146.5l104 114q109 -89 189 -124q76 -33 174 -33q101 0 165 43t64 116
q0 71 -62 106.5t-220 70.5q-216 48 -289.5 103t-77.5 181q0 132 109 215.5t282 83.5q124 0 219 -33.5t195 -113.5zM582 -150v-176l-117 -192h-98l106 192h-96v176h205z" />
    <glyph glyph-name="uni021A" unicode="&#x21a;" horiz-adv-x="1234" 
d="M1171 1454v-160h-458v-1294h-191v1294h-459v160h1108zM723 -150v-176l-117 -192h-98l106 192h-96v176h205z" />
    <glyph glyph-name="uni021B" unicode="&#x21b;" horiz-adv-x="729" 
d="M666 156l26 -140q-93 -34 -207 -34q-137 0 -198.5 62t-61.5 189v641h-188v134h188v338h176v-338h273v-134h-273v-620q0 -67 27.5 -95t91.5 -28q54 0 146 25zM559 -150v-176l-117 -192h-98l107 192h-97v176h205z" />
    <glyph glyph-name="uni0237" unicode="&#x237;" horiz-adv-x="458" 
d="M14 -248q71 0 100 40t29 130v1086h176v-1086q0 -315 -284 -315q-93 0 -195 31l35 135q77 -21 139 -21z" />
    <glyph glyph-name="circumflex" unicode="&#x2c6;" horiz-adv-x="856" 
d="M588 1157l-160 201l-160 -201h-151l200 289h222l200 -289h-151z" />
    <glyph glyph-name="caron" unicode="&#x2c7;" horiz-adv-x="856" 
d="M739 1446l-200 -289h-222l-200 289h151l160 -203l160 203h151z" />
    <glyph glyph-name="breve" unicode="&#x2d8;" horiz-adv-x="821" 
d="M117 1413h129q2 -68 45 -108.5t121 -40.5q77 0 119 40t47 109h127q0 -122 -81 -195t-212 -73q-134 0 -214.5 72.5t-80.5 195.5z" />
    <glyph glyph-name="dotaccent" unicode="&#x2d9;" horiz-adv-x="409" 
d="M293 1417v-211h-176v211h176z" />
    <glyph glyph-name="ring" unicode="&#x2da;" horiz-adv-x="671" 
d="M555 1358q0 -86 -66 -152q-64 -61 -153 -61q-92 0 -155.5 62.5t-63.5 150.5q0 91 63.5 152t155.5 61q89 0 153 -64q66 -63 66 -149zM213 1358q0 -55 34.5 -90t88.5 -35t87.5 34.5t33.5 90.5t-33.5 90.5t-87.5 34.5t-88.5 -35t-34.5 -90z" />
    <glyph glyph-name="ogonek" unicode="&#x2db;" horiz-adv-x="524" 
d="M330 47l80 -47q-164 -114 -164 -225q0 -86 104 -86q32 0 53 6v-111q-27 -12 -77 -12q-95 0 -151 45.5t-56 126.5q0 165 211 303z" />
    <glyph glyph-name="tilde" unicode="&#x2dc;" horiz-adv-x="870" 
d="M465 1341q70 -47 115 -47q65 0 65 107h111q0 -104 -45.5 -165.5t-120.5 -61.5q-55 0 -158 57q-85 51 -133 51q-34 0 -52 -28.5t-18 -77.5h-112q0 104 50 165.5t132 61.5q40 0 72 -13t94 -49z" />
    <glyph glyph-name="hungarumlaut" unicode="&#x2dd;" horiz-adv-x="876" 
d="M442 1452l-190 -295h-135l147 295h178zM760 1452l-193 -295h-137l152 295h178z" />
    <glyph glyph-name="gravecomb" unicode="&#x300;" horiz-adv-x="0" 
d="M-541 1446h197l147 -289h-155z" />
    <glyph glyph-name="acutecomb" unicode="&#x301;" horiz-adv-x="0" 
d="M-158 1446l-188 -289h-156l148 289h196z" />
    <glyph glyph-name="uni0302" unicode="&#x302;" horiz-adv-x="0" 
d="M-315 1157l-160 201l-160 -201h-151l200 289h221l201 -289h-151z" />
    <glyph glyph-name="tildecomb" unicode="&#x303;" horiz-adv-x="0" 
d="M-504 1341q70 -47 115 -47q65 0 65 107h111q0 -104 -45.5 -165.5t-120.5 -61.5q-55 0 -158 57q-85 51 -133 51q-34 0 -51.5 -28.5t-17.5 -77.5h-113q0 104 50 165.5t132 61.5q40 0 72 -13t94 -49z" />
    <glyph glyph-name="uni0304" unicode="&#x304;" horiz-adv-x="0" 
d="M-193 1352v-135h-571v135h571z" />
    <glyph glyph-name="uni0306" unicode="&#x306;" horiz-adv-x="0" 
d="M-797 1413h129q2 -68 45 -108.5t121 -40.5q77 0 119 40t47 109h127q0 -122 -81 -195t-212 -73q-134 0 -214.5 72.5t-80.5 195.5z" />
    <glyph glyph-name="uni0307" unicode="&#x307;" horiz-adv-x="0" 
d="M-205 1417v-211h-176v211h176z" />
    <glyph glyph-name="uni0308" unicode="&#x308;" horiz-adv-x="0" 
d="M-567 1417v-211h-172v211h172zM-205 1417v-211h-172v211h172z" />
    <glyph glyph-name="uni030A" unicode="&#x30a;" horiz-adv-x="0" 
d="M-217 1358q0 -88 -64 -152q-64 -61 -155 -61q-92 0 -155.5 62.5t-63.5 150.5q0 91 63.5 152t155.5 61q91 0 155 -64q64 -61 64 -149zM-559 1358q0 -55 34.5 -90t88.5 -35t87.5 34.5t33.5 90.5t-33.5 90.5t-87.5 34.5t-88.5 -35t-34.5 -90z" />
    <glyph glyph-name="uni030B" unicode="&#x30b;" horiz-adv-x="0" 
d="M-512 1452l-190 -295h-136l148 295h178zM-195 1452l-192 -295h-137l151 295h178z" />
    <glyph glyph-name="uni030C" unicode="&#x30c;" horiz-adv-x="0" 
d="M-188 1446l-201 -289h-221l-201 289h152l159 -203l160 203h152z" />
    <glyph glyph-name="uni0326" unicode="&#x326;" horiz-adv-x="0" 
d="M-205 -150v-176l-117 -192h-98l107 192h-97v176h205z" />
    <glyph glyph-name="uni0327" unicode="&#x327;" horiz-adv-x="0" 
d="M-190 -297q0 -81 -61 -132.5t-155 -51.5q-108 0 -221 73l52 84q55 -31 90 -43t75 -12q48 0 78.5 21.5t30.5 58.5q0 35 -32.5 55.5t-84.5 20.5q-35 0 -59 -6l-58 55l101 213l88 -39l-64 -137q97 5 158.5 -40t61.5 -120z" />
    <glyph glyph-name="uni0328" unicode="&#x328;" horiz-adv-x="0" 
d="M-260 47l80 -47q-164 -114 -164 -225q0 -86 104 -86q33 0 54 6v-111q-27 -12 -78 -12q-95 0 -151 45.5t-56 126.5q0 165 211 303z" />
    <glyph glyph-name="uni037E" unicode="&#x37e;" horiz-adv-x="524" 
d="M387 221v-221l-125 -256h-106l112 256h-102v221h221zM379 1008v-222h-209v222h209z" />
    <glyph glyph-name="tonos" unicode="&#x384;" horiz-adv-x="700" 
d="M375 1171h-150l82 295h195z" />
    <glyph glyph-name="dieresistonos" unicode="&#x385;" horiz-adv-x="937" 
d="M389 1206l51 260h183l-99 -260h-135zM164 1206v187h168v-187h-168zM649 1206v187h168v-187h-168z" />
    <glyph glyph-name="Alphatonos" unicode="&#x386;" horiz-adv-x="1372" 
d="M1143 0l-131 371h-656l-131 -371h-190l526 1454h248l528 -1454h-194zM414 530h540l-67 191q-139 370 -205 592q-54 -181 -178 -529l-23 -65zM197 1159h-150l82 295h195z" />
    <glyph glyph-name="anoteleia" unicode="&#x387;" horiz-adv-x="442" 
d="M326 752v-222h-209v222h209z" />
    <glyph glyph-name="Epsilontonos" unicode="&#x388;" horiz-adv-x="1247" 
d="M1135 1454v-158h-779v-469h725v-157h-725v-512h797v-158h-985v1454h967zM-59 1159h-150l82 295h195z" />
    <glyph glyph-name="Etatonos" unicode="&#x389;" horiz-adv-x="1492" 
d="M1325 1454v-1454h-190v676h-779v-676h-188v1454h188v-620h779v620h190zM-59 1159h-150l82 295h195z" />
    <glyph glyph-name="Iotatonos" unicode="&#x38a;" horiz-adv-x="552" 
d="M371 1454v-1454h-189v1454h189zM-59 1159h-150l82 295h195z" />
    <glyph glyph-name="Omicrontonos" unicode="&#x38c;" horiz-adv-x="1550" 
d="M1466 727q0 -163 -48.5 -302.5t-137 -241t-218.5 -159t-286 -57.5t-286 57.5t-218.5 159t-137 241t-48.5 302.5t48.5 302.5t137 241t218.5 159t286 57.5t286 -57.5t218.5 -159t137 -241t48.5 -302.5zM279 727q0 -263 138 -428.5t359 -165.5q223 0 360.5 165t137.5 429
q0 261 -137.5 427.5t-360.5 166.5q-220 0 -358.5 -166.5t-138.5 -427.5zM6 1159h-149l82 295h194z" />
    <glyph glyph-name="Upsilontonos" unicode="&#x38e;" horiz-adv-x="1277" 
d="M1042 1454h205l-516 -833v-621h-188v623l-512 831h209l401 -666zM-131 1159h-150l82 295h195z" />
    <glyph glyph-name="Omegatonos" unicode="&#x38f;" horiz-adv-x="1550" 
d="M1186 158h280v-158h-548v160q356 145 356 573q0 260 -137.5 424t-360.5 164q-146 0 -259 -75t-175.5 -209t-62.5 -304q0 -427 358 -573v-160h-551v158h283q-135 85 -209 237.5t-74 337.5q0 162 48.5 301t137 239t218.5 157t286 57q205 3 364 -96t243.5 -271.5
t82.5 -386.5q0 -186 -72.5 -338t-207.5 -237zM6 1159h-149l82 295h194z" />
    <glyph glyph-name="iotadieresistonos" unicode="&#x390;" horiz-adv-x="452" 
d="M315 0h-178v1008h178v-1008zM147 1206l52 260h182l-98 -260h-136zM-78 1206v187h168v-187h-168zM408 1206v187h167v-187h-167z" />
    <glyph glyph-name="Alpha" unicode="&#x391;" horiz-adv-x="1370" 
d="M1143 0l-131 371h-656l-131 -371h-190l526 1454h248l528 -1454h-194zM414 530h540l-67 191q-139 370 -205 592q-54 -181 -178 -529l-23 -65z" />
    <glyph glyph-name="Beta" unicode="&#x392;" horiz-adv-x="1366" 
d="M1286 408q0 -188 -121.5 -298t-324.5 -110h-672v1454h641q194 0 310 -97.5t116 -271.5q0 -116 -60 -197.5t-167 -119.5q132 -39 205 -131t73 -229zM356 1303v-465h414q133 0 207 62t74 175q0 110 -72.5 169t-206.5 59h-416zM1098 418q0 124 -85 196t-233 72h-424v-534
h424q152 0 235 71t83 195z" />
    <glyph glyph-name="Gamma" unicode="&#x393;" horiz-adv-x="1155" 
d="M1094 1296h-738v-1296h-188v1454h926v-158z" />
    <glyph glyph-name="uni0394" unicode="&#x394;" horiz-adv-x="1372" 
d="M811 1454l528 -1454h-1304l526 1454h250zM283 158h804l-200 563q-154 431 -203 596q-48 -165 -188 -559l-15 -39z" />
    <glyph glyph-name="Epsilon" unicode="&#x395;" horiz-adv-x="1247" 
d="M1135 1454v-158h-779v-469h725v-157h-725v-512h797v-158h-985v1454h967z" />
    <glyph glyph-name="Zeta" unicode="&#x396;" horiz-adv-x="1275" 
d="M1190 1454v-151l-883 -1145h881v-158h-1104v152l883 1144h-844v158h1067z" />
    <glyph glyph-name="Eta" unicode="&#x397;" horiz-adv-x="1492" 
d="M1325 1454v-1454h-190v676h-779v-676h-188v1454h188v-620h779v620h190z" />
    <glyph glyph-name="Theta" unicode="&#x398;" horiz-adv-x="1556" 
d="M1475 727q2 -217 -84 -391t-246 -273t-365 -96q-156 0 -287 57t-220.5 158t-139 241t-49.5 304t49.5 304t139 241t220.5 158t287 57q205 3 365 -96t246 -273t84 -391zM279 727q0 -264 138 -428t363 -164t361.5 164t136.5 428q0 262 -137.5 427t-360.5 165t-362 -165
t-139 -427zM459 825h639v-155h-639v155z" />
    <glyph glyph-name="Iota" unicode="&#x399;" horiz-adv-x="552" 
d="M371 1454v-1454h-189v1454h189z" />
    <glyph glyph-name="Kappa" unicode="&#x39a;" horiz-adv-x="1347" 
d="M1114 0l-498 750l-260 -269v-481h-188v1454h188v-743l709 743h235l-555 -573l584 -881h-215z" />
    <glyph glyph-name="Lambda" unicode="&#x39b;" horiz-adv-x="1298" 
d="M770 1454l492 -1454h-195l-242 721q-102 294 -178 567q-54 -194 -178 -565l-240 -723h-194l493 1454h242z" />
    <glyph glyph-name="Mu" unicode="&#x39c;" horiz-adv-x="1781" 
d="M1313 1454h301v-1454h-184v727q0 299 6 592q-41 -126 -121 -344l-86 -248l-254 -727h-166l-260 727q-147 407 -207 588q6 -293 6 -590v-725h-180v1454h301l229 -641q148 -419 195 -584q72 239 192 584z" />
    <glyph glyph-name="Nu" unicode="&#x39d;" horiz-adv-x="1499" 
d="M1147 1454h184v-1454h-209l-430 662q-209 313 -350 555q10 -332 10 -564v-653h-184v1454h211l436 -672l53 -82q229 -357 289 -460q-10 325 -10 551v663z" />
    <glyph glyph-name="Xi" unicode="&#x39e;" horiz-adv-x="1314" 
d="M111 1284v170h1093v-170h-1093zM178 666v168h957v-168h-957zM92 0v170h1129v-170h-1129z" />
    <glyph glyph-name="Omicron" unicode="&#x39f;" horiz-adv-x="1552" 
d="M1466 727q0 -163 -48.5 -302.5t-137 -241t-218.5 -159t-286 -57.5t-286 57.5t-218.5 159t-137 241t-48.5 302.5t48.5 302.5t137 241t218.5 159t286 57.5t286 -57.5t218.5 -159t137 -241t48.5 -302.5zM279 727q0 -263 138 -428.5t359 -165.5q223 0 360.5 165t137.5 429
q0 261 -137.5 427.5t-360.5 166.5q-220 0 -358.5 -166.5t-138.5 -427.5z" />
    <glyph glyph-name="Pi" unicode="&#x3a0;" horiz-adv-x="1462" 
d="M1296 0h-190v1296h-750v-1296h-188v1454h1128v-1454z" />
    <glyph glyph-name="Rho" unicode="&#x3a1;" horiz-adv-x="1333" 
d="M1266 1020q0 -206 -131 -322q-129 -114 -342 -114h-437v-584h-188v1454h625q217 0 345 -116t128 -318zM766 1296h-410v-555h410q147 0 229 72.5t82 206.5q0 133 -82 204.5t-229 71.5z" />
    <glyph glyph-name="Sigma" unicode="&#x3a3;" horiz-adv-x="1228" 
d="M303 158h844v-158h-1063v152l469 591l-455 545v166h1035v-158h-818l459 -546z" />
    <glyph glyph-name="Tau" unicode="&#x3a4;" horiz-adv-x="1234" 
d="M1171 1454v-160h-458v-1294h-191v1294h-459v160h1108z" />
    <glyph glyph-name="Upsilon" unicode="&#x3a5;" horiz-adv-x="1277" 
d="M1042 1454h205l-516 -833v-621h-188v623l-512 831h209l401 -666z" />
    <glyph glyph-name="Phi" unicode="&#x3a6;" horiz-adv-x="1658" 
d="M926 121v-127h-193v127q-155 6 -279.5 55.5t-205.5 132.5t-124.5 192t-43.5 236t43.5 236t124.5 192t205.5 133t279.5 56v106h193v-106q155 -6 279.5 -56t205.5 -133t124.5 -192t43.5 -236t-43.5 -236t-124.5 -192t-205.5 -132.5t-279.5 -55.5zM739 274v924
q-225 -13 -347 -137.5t-122 -323.5t122.5 -324.5t346.5 -138.5zM1386 737q0 199 -121 323.5t-345 137.5v-924q223 13 344.5 138.5t121.5 324.5z" />
    <glyph glyph-name="Chi" unicode="&#x3a7;" horiz-adv-x="1316" 
d="M1292 0h-213l-422 629l-421 -629h-213l522 764l-471 690h211l377 -559l372 559h211l-471 -690z" />
    <glyph glyph-name="Psi" unicode="&#x3a8;" horiz-adv-x="1626" 
d="M1282 1454h191v-633q0 -232 -142 -363.5t-424 -138.5v-319h-188v319q-283 7 -424 138.5t-141 363.5v633h190v-627q0 -158 96 -249.5t279 -98.5v975h188v-975q183 7 279 98.5t96 249.5v627z" />
    <glyph glyph-name="uni03A9" unicode="&#x3a9;" horiz-adv-x="1550" 
d="M1186 158h280v-158h-548v160q356 145 356 573q0 260 -137.5 424t-360.5 164q-146 0 -259 -75t-175.5 -209t-62.5 -304q0 -427 358 -573v-160h-551v158h283q-135 85 -209 237.5t-74 337.5q0 162 48.5 301t137 239t218.5 157t286 57q205 3 364 -96t243.5 -271.5
t82.5 -386.5q0 -186 -72.5 -338t-207.5 -237z" />
    <glyph glyph-name="Iotadieresis" unicode="&#x3aa;" horiz-adv-x="552" 
d="M371 1454v-1454h-189v1454h189zM180 1835v-211h-172v211h172zM543 1835v-211h-172v211h172z" />
    <glyph glyph-name="Upsilondieresis" unicode="&#x3ab;" horiz-adv-x="1277" 
d="M1042 1454h205l-516 -833v-621h-188v623l-512 831h209l401 -666zM543 1835v-211h-172v211h172zM905 1835v-211h-172v211h172z" />
    <glyph glyph-name="alphatonos" unicode="&#x3ac;" horiz-adv-x="1173" 
d="M870 1008h166v-1008h-166v156q-113 -183 -344 -183q-195 0 -321.5 148t-126.5 383t126.5 382.5t321.5 147.5q237 0 344 -180v154zM864 504q0 177 -85 279t-226 102q-131 0 -213 -107q-80 -106 -80 -274q0 -171 80 -276t213 -105q138 0 224.5 103t86.5 278zM655 1171h-149
l82 295h194z" />
    <glyph glyph-name="epsilontonos" unicode="&#x3ad;" horiz-adv-x="1032" 
d="M889 260l100 -115q-102 -92 -210 -133t-244 -41q-222 0 -340.5 78t-118.5 227q0 88 53.5 153.5t159.5 100.5q-84 32 -129 91t-45 135q0 129 119.5 204.5t312.5 75.5q130 0 231.5 -34t200.5 -113l-96 -119q-92 69 -167.5 97t-166.5 28q-118 0 -186 -39.5t-68 -105.5
q0 -74 60 -116t169 -42h154v-129h-152q-268 0 -268 -176q0 -168 277 -168q103 0 188.5 34t165.5 107zM629 1171h-150l82 295h195z" />
    <glyph glyph-name="etatonos" unicode="&#x3ae;" horiz-adv-x="1116" 
d="M983 690v-1059h-178v1004q0 122 -60.5 187t-171.5 65q-108 0 -184 -76q-74 -74 -74 -184v-627h-178v1008h166v-131q101 159 320 159q170 0 265 -95t95 -251zM639 1171h-150l82 295h195z" />
    <glyph glyph-name="iotatonos" unicode="&#x3af;" horiz-adv-x="452" 
d="M315 0h-178v1008h178v-1008zM305 1171h-149l82 295h194z" />
    <glyph glyph-name="upsilondieresistonos" unicode="&#x3b0;" horiz-adv-x="1095" 
d="M133 389v619h178v-609q0 -138 56 -208t180 -70q125 0 181 70t56 208v609h179v-619q0 -199 -104 -308.5t-310 -109.5q-207 0 -311.5 109.5t-104.5 308.5zM469 1206l51 260h182l-98 -260h-135zM244 1206v187h168v-187h-168zM729 1206v187h168v-187h-168z" />
    <glyph glyph-name="alpha" unicode="&#x3b1;" horiz-adv-x="1173" 
d="M870 1008h166v-1008h-166v156q-113 -183 -344 -183q-195 0 -321.5 148t-126.5 383t126.5 382.5t321.5 147.5q237 0 344 -180v154zM864 504q0 177 -85 279t-226 102q-131 0 -213 -107q-80 -106 -80 -274q0 -171 80 -276t213 -105q138 0 224.5 103t86.5 278z" />
    <glyph glyph-name="beta" unicode="&#x3b2;" horiz-adv-x="1173" 
d="M1094 406q0 -194 -122.5 -313.5t-330.5 -119.5q-109 0 -192.5 48t-133.5 137v-527h-178v1405q0 200 122.5 324.5t324.5 124.5q200 0 317 -102.5t117 -270.5q0 -117 -62.5 -202t-160.5 -119q134 -30 216.5 -132t82.5 -253zM911 416q0 134 -86.5 212.5t-224.5 78.5h-104
v145h112q102 0 168 71.5t66 180.5q0 113 -68.5 172t-187.5 59q-127 0 -199 -82.5t-72 -222.5v-543q0 -165 87 -264.5t227 -99.5q134 0 208 80.5t74 212.5z" />
    <glyph glyph-name="gamma" unicode="&#x3b3;" horiz-adv-x="985" 
d="M408 -369v367l-377 1010h186l129 -363q71 -194 150 -452q69 227 147 448l129 367h182l-370 -1008v-369h-176z" />
    <glyph glyph-name="delta" unicode="&#x3b4;" horiz-adv-x="1146" 
d="M74 477q0 79 20 152.5t59 136t93.5 109.5t128 74t157.5 28q29 0 35 -2l-379 346v133h770v-143h-522l400 -365q235 -210 235 -469q0 -138 -61 -253t-175.5 -184t-261.5 -69q-217 0 -358 144t-141 362zM889 477q0 68 -20 132t-57.5 117t-99 84.5t-137.5 31.5
q-146 0 -233.5 -107.5t-87.5 -257.5q0 -89 34.5 -168.5t109.5 -133.5t175 -54q99 0 172 51t108.5 131t35.5 174z" />
    <glyph glyph-name="epsilon" unicode="&#x3b5;" horiz-adv-x="1032" 
d="M889 260l100 -115q-102 -92 -210 -133t-244 -41q-222 0 -340.5 78t-118.5 227q0 88 53.5 153.5t159.5 100.5q-84 32 -129 91t-45 135q0 129 119.5 204.5t312.5 75.5q130 0 231.5 -34t200.5 -113l-96 -119q-92 69 -167.5 97t-166.5 28q-118 0 -186 -39.5t-68 -105.5
q0 -74 60 -116t169 -42h154v-129h-152q-268 0 -268 -176q0 -168 277 -168q103 0 188.5 34t165.5 107z" />
    <glyph glyph-name="zeta" unicode="&#x3b6;" horiz-adv-x="1013" 
d="M791 -354l-99 106q65 55 90 87.5t25 68.5q0 92 -113 92h-147q-215 0 -340 102t-125 289q0 266 170 504q168 231 416 416h-535v143h793v-129q-294 -209 -480 -451q-182 -238 -182 -481t293 -243h148q125 0 194.5 -58t69.5 -162q0 -79 -42.5 -142t-135.5 -142z" />
    <glyph glyph-name="eta" unicode="&#x3b7;" horiz-adv-x="1116" 
d="M983 690v-1059h-178v1004q0 122 -60.5 187t-171.5 65q-108 0 -184 -76q-74 -74 -74 -184v-627h-178v1008h166v-131q101 159 320 159q170 0 265 -95t95 -251z" />
    <glyph glyph-name="theta" unicode="&#x3b8;" horiz-adv-x="1169" 
d="M897 94q-120 -123 -311 -123q-194 0 -314 123q-95 101 -131.5 252t-36.5 383t36.5 383t131.5 252q120 123 314 123q191 0 311 -123q95 -101 132.5 -253t37.5 -382t-37.5 -382t-132.5 -253zM283 805h602q-9 306 -105 440q-70 94 -194 94t-197 -94q-97 -129 -106 -440z
M887 672h-604q3 -320 106 -459q73 -94 197 -94t194 94q98 134 107 459z" />
    <glyph glyph-name="iota" unicode="&#x3b9;" horiz-adv-x="452" 
d="M315 0h-178v1008h178v-1008z" />
    <glyph glyph-name="kappa" unicode="&#x3ba;" horiz-adv-x="1042" 
d="M831 0l-333 502l-183 -189v-313h-178v1008h178v-494l467 494h207l-371 -390l412 -618h-199z" />
    <glyph glyph-name="lambda" unicode="&#x3bb;" horiz-adv-x="983" 
d="M514 1233l438 -1233h-180l-127 362q-74 212 -141 433q-42 -123 -45 -133q-63 -183 -105 -297l-137 -365h-186l389 1014l-60 176q-52 149 -143 149q-49 0 -119 -24l-39 139q90 33 172 33q109 0 171.5 -59t111.5 -195z" />
    <glyph glyph-name="uni03BC" unicode="&#x3bc;" horiz-adv-x="1103" 
d="M788 1008h179v-1008h-162v139q-42 -80 -114.5 -124t-168.5 -44q-137 0 -207 70v-416h-178v1383h178v-664q0 -106 56.5 -162.5t165.5 -56.5q112 0 181.5 71t69.5 197v615z" />
    <glyph glyph-name="nu" unicode="&#x3bd;" horiz-adv-x="983" 
d="M772 1008h180l-350 -1008h-223l-348 1008h184l125 -371q105 -324 154 -496q55 195 153 496z" />
    <glyph glyph-name="xi" unicode="&#x3be;" horiz-adv-x="1013" 
d="M791 -354l-99 106q65 55 90 87.5t25 68.5q0 92 -113 92h-147q-215 0 -340 104t-125 287q0 152 78.5 250t206.5 129q-87 27 -144 105t-57 176q0 91 39.5 159.5t122.5 102.5h-222v141h820v-143h-277q-141 0 -221 -63.5t-80 -188.5q0 -99 69.5 -162t178.5 -63h276v-146h-270
q-159 0 -248.5 -75.5t-89.5 -213.5q0 -249 293 -249h148q125 0 194.5 -58t69.5 -162q0 -79 -42.5 -142t-135.5 -142z" />
    <glyph glyph-name="omicron" unicode="&#x3bf;" horiz-adv-x="1148" 
d="M1073 504q0 -234 -139.5 -383.5t-358.5 -149.5q-220 0 -359.5 149t-139.5 384t139.5 383.5t359.5 148.5q219 0 358.5 -149t139.5 -383zM256 504q0 -173 87 -279t232 -106t231.5 106t86.5 279t-86.5 279t-231.5 106t-232 -106t-87 -279z" />
    <glyph glyph-name="pi" unicode="&#x3c0;" horiz-adv-x="1243" 
d="M1186 152l22 -140q-85 -32 -176 -32q-132 0 -185.5 61t-53.5 195v630h-392v-866h-178v866h-188v142h1114v-142h-178v-600q0 -78 20.5 -107.5t77.5 -29.5q40 0 117 23z" />
    <glyph glyph-name="rho" unicode="&#x3c1;" horiz-adv-x="1142" 
d="M1067 504q0 -237 -124.5 -384t-319.5 -147q-227 0 -334 162v-504h-178v873q0 239 129.5 385.5t345.5 146.5t348.5 -149.5t132.5 -382.5zM887 506q0 167 -82 274q-80 109 -219 109t-222 -105t-83 -278q0 -174 87 -277.5t226 -103.5q132 0 211 104q82 107 82 277z" />
    <glyph glyph-name="uni03C2" unicode="&#x3c2;" horiz-adv-x="1015" 
d="M692 -354l-96 106q68 60 90.5 88.5t22.5 63.5t-39 57.5t-144 48.5q-450 123 -450 512q0 231 135 372.5t352 141.5q126 0 221 -44t185 -146l-115 -109q-80 85 -146.5 118.5t-146.5 33.5q-94 0 -164.5 -53t-104.5 -136t-34 -180q0 -130 77 -224t214 -132q96 -25 176 -55
q147 -58 147 -185q0 -74 -43 -135t-137 -143z" />
    <glyph glyph-name="sigma" unicode="&#x3c3;" horiz-adv-x="1167" 
d="M1133 1008v-144h-256q194 -117 194 -372q0 -228 -139 -374.5t-359 -146.5q-219 0 -359 147t-140 376q0 228 139.5 371t359.5 143h560zM891 494q0 167 -86.5 268.5t-231.5 101.5t-231 -101.5t-86 -268.5q0 -163 86 -269q88 -104 231 -104q145 0 230 104q88 104 88 269z
" />
    <glyph glyph-name="tau" unicode="&#x3c4;" horiz-adv-x="872" 
d="M838 864h-316v-604q0 -69 28 -98t91 -29q57 0 143 25l27 -142q-101 -34 -207 -34q-138 0 -199 61t-61 188v633h-311v144h805v-144z" />
    <glyph glyph-name="upsilon" unicode="&#x3c5;" horiz-adv-x="1095" 
d="M133 389v619h178v-609q0 -138 56 -208t180 -70q125 0 181 70t56 208v609h179v-619q0 -199 -104 -308.5t-310 -109.5q-207 0 -311.5 109.5t-104.5 308.5z" />
    <glyph glyph-name="phi" unicode="&#x3c6;" horiz-adv-x="1456" 
d="M637 -369v338q-266 11 -414.5 146t-148.5 377q0 197 82 325q81 129 299 219l59 -143q-143 -60 -200.5 -154.5t-57.5 -246.5q0 -179 97 -274t284 -101v561q0 175 87 266.5t243 91.5q186 0 299.5 -134.5t113.5 -373.5q0 -257 -152 -404t-413 -155v-338h-178zM1200 528
q0 170 -63 265.5t-170 95.5q-152 0 -152 -230v-542q186 11 285.5 114.5t99.5 296.5z" />
    <glyph glyph-name="chi" unicode="&#x3c7;" horiz-adv-x="1015" 
d="M985 -369h-192l-287 539l-287 -539h-190l374 684l-368 693h192l275 -521l278 521h189l-363 -670z" />
    <glyph glyph-name="psi" unicode="&#x3c8;" horiz-adv-x="1480" 
d="M1174 1008h178v-500q0 -514 -523 -535v-342h-178v342q-522 21 -522 535v500h178v-500q0 -188 83 -284t261 -103v1227h178v-1227q178 7 261.5 103t83.5 284v500z" />
    <glyph glyph-name="omega" unicode="&#x3c9;" horiz-adv-x="1454" 
d="M932 893l57 143q205 -80 297 -216t92 -341q0 -220 -96 -366q-95 -142 -266 -142q-110 0 -187 58t-102 161q-26 -103 -102.5 -161t-186.5 -58q-174 0 -268 144q-96 146 -96 364q0 205 92 341t297 216l59 -143q-139 -56 -202.5 -159t-63.5 -257q0 -160 53.5 -258t141.5 -98
q186 0 186 278v287h178v-287q0 -278 189 -278q88 0 141 98t53 258q0 154 -63.5 257t-202.5 159z" />
    <glyph glyph-name="iotadieresis" unicode="&#x3ca;" horiz-adv-x="452" 
d="M315 0h-178v1008h178v-1008zM131 1417v-211h-172v211h172zM494 1417v-211h-172v211h172z" />
    <glyph glyph-name="upsilondieresis" unicode="&#x3cb;" horiz-adv-x="1095" 
d="M133 389v619h178v-609q0 -138 56 -208t180 -70q125 0 181 70t56 208v609h179v-619q0 -199 -104 -308.5t-310 -109.5q-207 0 -311.5 109.5t-104.5 308.5zM453 1417v-211h-172v211h172zM815 1417v-211h-172v211h172z" />
    <glyph glyph-name="omicrontonos" unicode="&#x3cc;" horiz-adv-x="1146" 
d="M1073 504q0 -234 -139.5 -383.5t-358.5 -149.5q-220 0 -359.5 149t-139.5 384t139.5 383.5t359.5 148.5q219 0 358.5 -149t139.5 -383zM256 504q0 -173 87 -279t232 -106t231.5 106t86.5 279t-86.5 279t-231.5 106t-232 -106t-87 -279zM641 1171h-149l81 295h195z" />
    <glyph glyph-name="upsilontonos" unicode="&#x3cd;" horiz-adv-x="1095" 
d="M133 389v619h178v-609q0 -138 56 -208t180 -70q125 0 181 70t56 208v609h179v-619q0 -199 -104 -308.5t-310 -109.5q-207 0 -311.5 109.5t-104.5 308.5zM625 1171h-150l82 295h195z" />
    <glyph glyph-name="omegatonos" unicode="&#x3ce;" horiz-adv-x="1454" 
d="M932 893l57 143q205 -80 297 -216t92 -341q0 -220 -96 -366q-95 -142 -266 -142q-110 0 -187 58t-102 161q-26 -103 -102.5 -161t-186.5 -58q-174 0 -268 144q-96 146 -96 364q0 205 92 341t297 216l59 -143q-139 -56 -202.5 -159t-63.5 -257q0 -160 53.5 -258t141.5 -98
q186 0 186 278v287h178v-287q0 -278 189 -278q88 0 141 98t53 258q0 154 -63.5 257t-202.5 159zM811 1171h-149l81 295h195z" />
    <glyph glyph-name="uni0401" unicode="&#x401;" horiz-adv-x="1247" 
d="M1135 1454v-158h-779v-469h725v-157h-725v-512h797v-158h-985v1454h967zM559 1835v-211h-172v211h172zM922 1835v-211h-172v211h172z" />
    <glyph glyph-name="uni0402" unicode="&#x402;" horiz-adv-x="1607" 
d="M1516 446q0 -216 -124.5 -343.5t-340.5 -127.5q-93 0 -201 21l31 156q105 -19 157 -19q139 0 213 78.5t74 226.5q0 151 -86.5 227t-243.5 76q-186 0 -352 -69v-672h-188v1296h-392v158h1067v-158h-487v-460q69 31 170 50t197 19q241 0 373.5 -119t132.5 -340z" />
    <glyph glyph-name="uni0403" unicode="&#x403;" horiz-adv-x="1155" 
d="M1094 1296h-738v-1296h-188v1454h926v-158zM905 1864l-188 -289h-156l148 289h196z" />
    <glyph glyph-name="uni0404" unicode="&#x404;" horiz-adv-x="1368" 
d="M1212 346l115 -127q-142 -136 -267.5 -194t-283.5 -58q-208 0 -366 99t-241 271t-83 392t82.5 391t242.5 269t375 98q143 0 264 -48t253 -159l-113 -131q-111 95 -207 133.5t-201 38.5q-213 0 -345.5 -133t-157.5 -361h671v-157h-676q15 -241 148 -389t348 -148
q120 0 217.5 48.5t224.5 164.5z" />
    <glyph glyph-name="uni0405" unicode="&#x405;" horiz-adv-x="1288" 
d="M1180 1272l-111 -131q-115 101 -214 141.5t-224 40.5q-149 0 -241.5 -66.5t-92.5 -171.5q0 -72 43 -118q41 -41 115.5 -67t240.5 -64q280 -64 392 -155t112 -263q0 -200 -150 -325.5t-386 -125.5q-175 0 -314 58t-299 194l113 133q154 -130 264 -176q110 -45 238 -45
q154 0 250 75.5t96 201.5q0 84 -47 131q-43 46 -125 75q-93 33 -234 64q-282 63 -387.5 148.5t-105.5 254.5q0 117 69.5 210t187.5 143.5t261 50.5q163 0 290 -50t259 -163z" />
    <glyph glyph-name="uni0406" unicode="&#x406;" horiz-adv-x="552" 
d="M371 1454v-1454h-189v1454h189z" />
    <glyph glyph-name="uni0407" unicode="&#x407;" horiz-adv-x="552" 
d="M371 1454v-1454h-189v1454h189zM180 1835v-211h-172v211h172zM543 1835v-211h-172v211h172z" />
    <glyph glyph-name="uni0408" unicode="&#x408;" horiz-adv-x="946" 
d="M788 1454v-1079q0 -400 -393 -400q-185 0 -370 97l65 147q98 -41 164.5 -59.5t134.5 -18.5q211 0 211 250v1063h188z" />
    <glyph glyph-name="uni0409" unicode="&#x409;" horiz-adv-x="2297" 
d="M2236 440q0 -205 -133 -323q-132 -117 -350 -117h-600v1296h-608l-4 -647q-3 -225 -25 -370q-24 -144 -98.5 -218.5t-216.5 -74.5q-84 0 -140 20l23 160q45 -10 100 -10q84 0 121 55q38 52 47 160q10 123 13 327l4 756h974v-573h410q219 0 350 -119q133 -118 133 -322z
M2048 440q0 135 -86 209t-236 74h-383v-565h383q150 0 236 73.5t86 208.5z" />
    <glyph glyph-name="uni040A" unicode="&#x40a;" horiz-adv-x="2281" 
d="M2220 432q0 -202 -133 -317t-348 -115h-602v709h-781v-709h-188v1454h188v-590h781v590h190v-590h412q216 0 348 -114q133 -115 133 -318zM2030 432q0 132 -84.5 204.5t-233.5 72.5h-385v-551h385q150 0 234 71t84 203z" />
    <glyph glyph-name="uni040B" unicode="&#x40b;" horiz-adv-x="1632" 
d="M1505 481v-481h-190v477q0 138 -77.5 201t-242.5 63q-181 0 -352 -71v-670h-188v1296h-392v158h1067v-158h-487v-460q69 31 170 50t197 19q252 0 373.5 -106t121.5 -318z" />
    <glyph glyph-name="uni040C" unicode="&#x40c;" horiz-adv-x="1359" 
d="M1114 0l-493 676h-265v-676h-188v1454h188v-620h260l474 620h215l-533 -690l561 -764h-219zM940 1864l-188 -289h-156l147 289h197z" />
    <glyph glyph-name="uni040E" unicode="&#x40e;" horiz-adv-x="1271" 
d="M1243 1454h-186l-412 -938l-420 938h-196l526 -1147l-6 -12q-36 -86 -82.5 -120t-112.5 -34q-25 0 -137 17l-33 -160q90 -23 174 -23q124 0 201.5 60.5t140.5 206.5zM961 1829q0 -127 -85.5 -195.5t-236.5 -68.5q-154 0 -239 68t-85 196h150q0 -73 45 -112.5t129 -39.5
t129 39.5t45 112.5h148z" />
    <glyph glyph-name="uni040F" unicode="&#x40f;" horiz-adv-x="1460" 
d="M168 1454h188v-1296h746v1296h190v-1454h-469v-317h-186v317h-469v1454z" />
    <glyph glyph-name="uni0410" unicode="&#x410;" horiz-adv-x="1370" 
d="M1143 0l-131 371h-656l-131 -371h-190l526 1454h248l528 -1454h-194zM414 530h540l-67 191q-139 370 -205 592q-54 -181 -178 -529l-23 -65z" />
    <glyph glyph-name="uni0411" unicode="&#x411;" horiz-adv-x="1310" 
d="M168 0v1454h985v-158h-797v-434h418q217 0 346 -115.5t129 -316.5q0 -200 -129 -315t-346 -115h-606zM356 158h392q148 0 229.5 70t81.5 202q0 134 -81.5 204.5t-229.5 70.5h-392v-547z" />
    <glyph glyph-name="uni0412" unicode="&#x412;" horiz-adv-x="1366" 
d="M1286 408q0 -188 -121.5 -298t-324.5 -110h-672v1454h641q194 0 310 -97.5t116 -271.5q0 -116 -60 -197.5t-167 -119.5q132 -39 205 -131t73 -229zM356 1303v-465h414q133 0 207 62t74 175q0 110 -72.5 169t-206.5 59h-416zM1098 418q0 124 -85 196t-233 72h-424v-534
h424q152 0 235 71t83 195z" />
    <glyph glyph-name="uni0413" unicode="&#x413;" horiz-adv-x="1155" 
d="M1094 1296h-738v-1296h-188v1454h926v-158z" />
    <glyph glyph-name="uni0414" unicode="&#x414;" horiz-adv-x="1556" 
d="M346 1454h967v-1296h174v-461h-187v303h-1069v-303h-186v461h123q74 105 123 274q48 164 51 477zM367 158h755v1138h-600l-4 -393q-9 -542 -151 -745z" />
    <glyph glyph-name="uni0415" unicode="&#x415;" horiz-adv-x="1247" 
d="M1135 1454v-158h-779v-469h725v-157h-725v-512h797v-158h-985v1454h967z" />
    <glyph glyph-name="uni0416" unicode="&#x416;" horiz-adv-x="2041" 
d="M1794 0l-465 676h-219v-676h-178v676h-219l-465 -676h-221l534 766l-504 688h215l449 -620h211v620h178v-620h211l448 620h213l-501 -688l534 -766h-221z" />
    <glyph glyph-name="uni0417" unicode="&#x417;" horiz-adv-x="1329" 
d="M1239 418q0 -203 -158.5 -327t-414.5 -124q-170 0 -313.5 57.5t-284.5 184.5l110 133q125 -111 239 -161t251 -50q175 0 279 77t104 216q0 115 -87.5 181.5t-254.5 66.5h-291v155h287q146 0 221 64t75 182q0 111 -92 180.5t-243 69.5q-123 0 -226.5 -40.5t-216.5 -139.5
l-112 129q128 115 260 165t293 50q234 0 378 -111.5t144 -292.5q0 -233 -223 -321q135 -43 205.5 -131t70.5 -213z" />
    <glyph glyph-name="uni0418" unicode="&#x418;" horiz-adv-x="1499" 
d="M1122 1454h209v-1454h-184v653q0 312 12 588q-124 -206 -319 -514l-39 -61l-426 -666h-207v1454h184v-663q0 -239 -10 -574q163 279 348 561z" />
    <glyph glyph-name="uni0419" unicode="&#x419;" horiz-adv-x="1499" 
d="M1331 1454h-209l-432 -676q-185 -282 -348 -561q10 335 10 574v663h-184v-1454h207l426 666l39 61q195 308 319 514q-12 -276 -12 -588v-653h184v1454zM1071 1829q0 -127 -85 -195.5t-236 -68.5q-154 0 -239 68t-85 196h149q0 -72 45.5 -112t129.5 -40t129 39.5t45 112.5
h147z" />
    <glyph glyph-name="uni041A" unicode="&#x41a;" horiz-adv-x="1359" 
d="M1114 0l-493 676h-265v-676h-188v1454h188v-620h260l474 620h215l-533 -690l561 -764h-219z" />
    <glyph glyph-name="uni041B" unicode="&#x41b;" horiz-adv-x="1511" 
d="M61 6l23 160q45 -10 100 -10q84 0 121 55q38 52 47 160q10 123 13 327l4 756h974v-1454h-190v1296h-608l-4 -647q-3 -225 -25 -370q-24 -144 -98.5 -218.5t-216.5 -74.5q-84 0 -140 20z" />
    <glyph glyph-name="uni041C" unicode="&#x41c;" horiz-adv-x="1781" 
d="M1313 1454h301v-1454h-184v727q0 299 6 592q-41 -126 -121 -344l-86 -248l-254 -727h-166l-260 727q-147 407 -207 588q6 -293 6 -590v-725h-180v1454h301l229 -641q148 -419 195 -584q72 239 192 584z" />
    <glyph glyph-name="uni041D" unicode="&#x41d;" horiz-adv-x="1492" 
d="M1325 1454v-1454h-190v676h-779v-676h-188v1454h188v-620h779v620h190z" />
    <glyph glyph-name="uni041E" unicode="&#x41e;" horiz-adv-x="1552" 
d="M1466 727q0 -163 -48.5 -302.5t-137 -241t-218.5 -159t-286 -57.5t-286 57.5t-218.5 159t-137 241t-48.5 302.5t48.5 302.5t137 241t218.5 159t286 57.5t286 -57.5t218.5 -159t137 -241t48.5 -302.5zM279 727q0 -263 138 -428.5t359 -165.5q223 0 360.5 165t137.5 429
q0 261 -137.5 427.5t-360.5 166.5q-220 0 -358.5 -166.5t-138.5 -427.5z" />
    <glyph glyph-name="uni041F" unicode="&#x41f;" horiz-adv-x="1462" 
d="M1296 0h-190v1296h-750v-1296h-188v1454h1128v-1454z" />
    <glyph glyph-name="uni0420" unicode="&#x420;" horiz-adv-x="1333" 
d="M1266 1020q0 -206 -131 -322q-129 -114 -342 -114h-437v-584h-188v1454h625q217 0 345 -116t128 -318zM766 1296h-410v-555h410q147 0 229 72.5t82 206.5q0 133 -82 204.5t-229 71.5z" />
    <glyph glyph-name="uni0421" unicode="&#x421;" horiz-adv-x="1370" 
d="M1303 1280l-111 -131q-113 95 -207.5 133.5t-198.5 38.5q-231 0 -370.5 -165t-139.5 -429q0 -261 139 -427.5t359 -166.5q120 0 216 48.5t222 164.5l117 -127q-142 -136 -268 -194t-285 -58q-208 0 -366 99t-241 271t-83 392t82.5 391t242.5 269t375 98q145 0 266.5 -48
t250.5 -159z" />
    <glyph glyph-name="uni0422" unicode="&#x422;" horiz-adv-x="1234" 
d="M1171 1454v-160h-458v-1294h-191v1294h-459v160h1108z" />
    <glyph glyph-name="uni0423" unicode="&#x423;" horiz-adv-x="1271" 
d="M1057 1454h186l-543 -1212q-63 -146 -140.5 -206.5t-201.5 -60.5q-84 0 -174 23l33 160q112 -17 137 -17q66 0 112.5 34t82.5 120l6 12l-526 1147h196l420 -938z" />
    <glyph glyph-name="uni0424" unicode="&#x424;" horiz-adv-x="1826" 
d="M1741 737q0 -135 -47.5 -249.5t-136 -197.5t-222 -130t-297.5 -47h-32v-185h-185v185h-33q-164 0 -297.5 47t-221.5 130t-135.5 197.5t-47.5 249.5t47.5 249.5t135.5 198t221.5 130.5t297.5 47h33v164h185v-164h32q164 0 297.5 -47t222 -130.5t136 -198t47.5 -249.5z
M788 270h35v934h-35q-244 0 -378 -129t-134 -338t134 -338t378 -129zM1550 737q0 209 -134 338t-378 129h-34v-934h34q244 0 378 129t134 338z" />
    <glyph glyph-name="uni0425" unicode="&#x425;" horiz-adv-x="1316" 
d="M1292 0h-213l-422 629l-421 -629h-213l522 764l-471 690h211l377 -559l372 559h211l-471 -690z" />
    <glyph glyph-name="uni0426" unicode="&#x426;" horiz-adv-x="1536" 
d="M168 1454h188v-1296h746v1296h188v-1296h176v-461h-186v303h-1112v1454z" />
    <glyph glyph-name="uni0427" unicode="&#x427;" horiz-adv-x="1351" 
d="M995 1454h189v-1454h-189v621q-70 -31 -170 -50.5t-196 -19.5q-252 0 -374 106t-122 318v479h191v-475q0 -138 77.5 -201t243.5 -63q185 0 350 71v668z" />
    <glyph glyph-name="uni0428" unicode="&#x428;" horiz-adv-x="2138" 
d="M1970 1454v-1454h-1802v1454h188v-1296h619v1296h188v-1296h617v1296h190z" />
    <glyph glyph-name="uni0429" unicode="&#x429;" horiz-adv-x="2213" 
d="M1958 -303v303h-1790v1454h188v-1296h619v1296h188v-1296h617v1296h190v-1296h174v-461h-186z" />
    <glyph glyph-name="uni042A" unicode="&#x42a;" horiz-adv-x="1581" 
d="M1518 440q0 -204 -134 -323q-132 -117 -348 -117h-600v1294h-373v160h562v-573h411q217 0 348 -119q134 -119 134 -322zM1329 440q0 135 -85 209t-236 74h-383v-565h383q151 0 236 73.5t85 208.5z" />
    <glyph glyph-name="uni042B" unicode="&#x42b;" horiz-adv-x="1804" 
d="M168 0v1454h188v-573h412q217 0 348 -119q133 -118 133 -322q0 -205 -133 -323q-132 -117 -348 -117h-600zM356 158h383q151 0 236.5 73.5t85.5 208.5t-85.5 209t-236.5 74h-383v-565zM1634 1454v-1454h-188v1454h188z" />
    <glyph glyph-name="uni042C" unicode="&#x42c;" horiz-adv-x="1312" 
d="M168 0v1454h188v-573h412q217 0 348 -119q133 -118 133 -322q0 -205 -133 -323q-132 -117 -348 -117h-600zM356 158h383q151 0 236.5 73.5t85.5 208.5t-85.5 209t-236.5 74h-383v-565z" />
    <glyph glyph-name="uni042D" unicode="&#x42d;" horiz-adv-x="1368" 
d="M1282 729q0 -164 -48.5 -304.5t-136.5 -241.5t-218 -158.5t-285 -57.5q-159 0 -285 58t-268 194l115 127q125 -116 223.5 -164.5t220.5 -48.5q215 0 347 147t147 390h-676v157h672q-25 228 -157.5 361t-344.5 133q-107 0 -202.5 -38.5t-207.5 -133.5l-112 131
q132 111 253 159t265 48q214 0 373.5 -98t242 -269t82.5 -391z" />
    <glyph glyph-name="uni042E" unicode="&#x42e;" horiz-adv-x="2091" 
d="M2005 727q0 -163 -48.5 -302.5t-137 -241t-218.5 -159t-286 -57.5q-199 0 -352.5 91t-239 249.5t-98.5 362.5h-267v-670h-190v1454h190v-627h269q13 143 68 265t143.5 210t211.5 137t265 48q156 0 286 -57.5t218.5 -159t137 -241t48.5 -302.5zM1812 727
q0 261 -138.5 427.5t-358.5 166.5q-146 0 -260.5 -76t-177 -211.5t-62.5 -306.5q0 -263 139 -428.5t361 -165.5q221 0 359 165.5t138 428.5z" />
    <glyph glyph-name="uni042F" unicode="&#x42f;" horiz-adv-x="1349" 
d="M594 1454h588v-1454h-185v553h-266l-436 -553h-217l446 557q-183 20 -293 141.5t-110 305.5q0 200 132.5 325t340.5 125zM997 711v585h-370q-148 0 -234 -78t-86 -214q0 -139 84.5 -216t233.5 -77h372z" />
    <glyph glyph-name="uni0430" unicode="&#x430;" horiz-adv-x="1089" 
d="M954 700v-700h-159v125q-51 -76 -139.5 -117t-202.5 -41q-165 0 -263 72.5t-98 210.5q0 161 121 235q125 75 348 115l225 41v51q0 93 -64 146t-171 53q-92 0 -165 -38t-167 -132l-113 100q183 215 439 215q193 0 301 -91t108 -245zM786 377v133l-184 -37
q-77 -16 -123.5 -28t-90.5 -29t-67.5 -38t-38.5 -51t-18 -71q0 -69 54 -106t153 -37q137 0 226 72t89 192z" />
    <glyph glyph-name="uni0431" unicode="&#x431;" horiz-adv-x="1148" 
d="M1073 498q0 -234 -137 -379.5t-354 -145.5q-237 0 -368.5 167t-131.5 478q0 208 28.5 351.5t96.5 246.5t180 157t279 69l333 28l13 -165l-330 -29q-163 -13 -254.5 -64t-136.5 -156t-58 -292q48 107 151.5 171t238.5 64q210 0 330 -134.5t120 -366.5zM893 494
q0 166 -81 262t-222 96q-140 0 -234 -99.5t-94 -258.5q0 -171 86 -272t232 -101q143 0 228 101.5t85 271.5z" />
    <glyph glyph-name="uni0432" unicode="&#x432;" horiz-adv-x="1103" 
d="M1014 283q0 -129 -90.5 -206t-247.5 -77h-535v1008h510q151 0 243.5 -71t92.5 -194q0 -80 -46.5 -139t-125.5 -84q93 -24 146 -85.5t53 -151.5zM315 868v-290h312q92 0 139 40t47 111q0 67 -47 103t-139 36h-312zM838 293q0 74 -54.5 116t-158.5 42h-310v-310h314
q209 0 209 152z" />
    <glyph glyph-name="uni0433" unicode="&#x433;" horiz-adv-x="870" 
d="M829 864h-512v-864h-176v1008h688v-144z" />
    <glyph glyph-name="uni0434" unicode="&#x434;" horiz-adv-x="1222" 
d="M49 -256v399h98q126 126 129 482l5 383h735v-865h149v-399h-170v256h-776v-256h-170zM330 143h510v721h-400l-4 -243q-6 -372 -106 -478z" />
    <glyph glyph-name="uni0435" unicode="&#x435;" horiz-adv-x="1093" 
d="M909 287l105 -107q-107 -114 -208.5 -161.5t-230.5 -47.5q-226 0 -362.5 145t-136.5 382q0 238 132 388t349 150q214 0 334.5 -129t120.5 -356q0 -28 -4 -78h-756q8 -159 92.5 -256.5t233.5 -97.5q94 0 161 37q67 36 170 131zM256 604h582q-6 135 -80.5 213t-202.5 78
q-123 0 -201 -76t-98 -215z" />
    <glyph glyph-name="uni0436" unicode="&#x436;" horiz-adv-x="1542" 
d="M1313 0l-307 449h-152v-449h-166v449h-151l-308 -449h-198l364 528l-334 480h193l281 -414h153v414h166v-414h154l280 414h193l-334 -480l364 -528h-198z" />
    <glyph glyph-name="uni0437" unicode="&#x437;" horiz-adv-x="1017" 
d="M930 289q0 -141 -116.5 -230.5t-309.5 -89.5q-261 0 -459 174l96 119q174 -145 363 -145q120 0 187 47.5t67 130.5q0 151 -234 151h-188v138h192q97 0 149 40t52 113q0 74 -60.5 116t-168.5 42q-83 0 -161 -30t-171 -95l-84 119q112 77 210.5 113t211.5 36q165 0 280 -75
q117 -73 117 -211q0 -164 -172 -228q199 -64 199 -235z" />
    <glyph glyph-name="uni0438" unicode="&#x438;" horiz-adv-x="1163" 
d="M831 1008h191v-1008h-166v414q0 248 6 417q-130 -216 -233 -372l-299 -459h-189v1008h166v-447q0 -199 -6 -377q153 249 231 365z" />
    <glyph glyph-name="uni0439" unicode="&#x439;" horiz-adv-x="1163" 
d="M1022 1008h-191l-299 -459q-78 -116 -231 -365q6 178 6 377v447h-166v-1008h189l299 459q103 156 233 372q-6 -170 -6 -417v-414h166v1008zM903 1411q0 -127 -85 -195.5t-236 -68.5q-154 0 -239 68t-85 196h150q0 -72 45 -111.5t129 -39.5t129 39.5t45 111.5h147z" />
    <glyph glyph-name="uni043A" unicode="&#x43a;" horiz-adv-x="1054" 
d="M829 0l-325 449h-187v-449h-176v1008h176v-414h187l303 414h190l-354 -480l385 -528h-199z" />
    <glyph glyph-name="uni043B" unicode="&#x43b;" horiz-adv-x="1161" 
d="M35 2l18 145q41 -6 78 -6q24 2 41 6t31.5 14t23.5 20.5t16.5 35.5t11.5 48.5t7 69t4.5 88.5t3.5 114l4 471h746v-1008h-176v864h-410l-4 -334q-2 -112 -7 -185t-17 -137.5t-30.5 -101t-50 -64t-73.5 -38.5t-102 -14q-66 0 -115 12z" />
    <glyph glyph-name="uni043C" unicode="&#x43c;" horiz-adv-x="1427" 
d="M1028 1008h258v-1008h-166v461q0 65 4 315l2 111l-141 -383l-194 -504h-156l-193 504q-59 151 -143 381q8 -221 8 -424v-461h-166v1008h265l172 -449q60 -152 139 -391q68 203 139 389z" />
    <glyph glyph-name="uni043D" unicode="&#x43d;" horiz-adv-x="1126" 
d="M983 0h-176v449h-490v-449h-176v1008h176v-414h490v414h176v-1008z" />
    <glyph glyph-name="uni043E" unicode="&#x43e;" horiz-adv-x="1148" 
d="M1073 504q0 -234 -139.5 -383.5t-358.5 -149.5q-220 0 -359.5 149t-139.5 384t139.5 383.5t359.5 148.5q219 0 358.5 -149t139.5 -383zM256 504q0 -173 87 -279t232 -106t231.5 106t86.5 279t-86.5 279t-231.5 106t-232 -106t-87 -279z" />
    <glyph glyph-name="uni043F" unicode="&#x43f;" horiz-adv-x="1116" 
d="M141 0v1008h832v-1008h-176v864h-480v-864h-176z" />
    <glyph glyph-name="uni0440" unicode="&#x440;" horiz-adv-x="1171" 
d="M1092 506q0 -236 -125 -384.5t-320 -148.5q-227 0 -334 162v-504h-176v1377h166v-156q112 182 344 182q195 0 320 -147t125 -381zM911 506q0 171 -78.5 275t-211.5 104q-141 0 -227.5 -102t-86.5 -277q0 -176 86.5 -278.5t227.5 -102.5q131 0 210.5 104.5t79.5 276.5z
" />
    <glyph glyph-name="uni0441" unicode="&#x441;" horiz-adv-x="1024" 
d="M563 889q-143 0 -225 -111.5t-82 -273.5q0 -158 80 -273q82 -110 229 -110q83 0 148.5 36t152.5 132l117 -99q-97 -120 -193 -169.5t-225 -49.5q-221 0 -355 146t-134 387q0 238 135.5 385t353.5 147q126 0 219.5 -43.5t184.5 -146.5l-115 -109q-78 84 -144.5 118
t-146.5 34z" />
    <glyph glyph-name="uni0442" unicode="&#x442;" horiz-adv-x="931" 
d="M891 864h-336v-864h-176v864h-338v144h850v-144z" />
    <glyph glyph-name="uni0443" unicode="&#x443;" horiz-adv-x="991" 
d="M776 1008h178l-403 -1147q-51 -143 -115 -199.5t-188 -56.5q-89 0 -156 20l31 135q55 -12 108 -12q63 0 101.5 35t68.5 125l13 39l-379 1061h186l113 -334q14 -41 149 -447l17 -51l61 186l103 316z" />
    <glyph glyph-name="uni0444" unicode="&#x444;" horiz-adv-x="1460" 
d="M645 1454h170v-418q255 -9 412 -149.5t157 -382.5q0 -163 -73.5 -283.5t-200.5 -183t-295 -68.5v-338h-170v338q-168 6 -295 68.5t-200.5 183t-73.5 283.5q0 242 157 382.5t412 149.5v418zM651 113v780q-183 -6 -289 -107.5t-106 -281.5q0 -182 104.5 -282.5
t290.5 -108.5zM811 893v-780q183 8 288 109t105 282q0 180 -105 281.5t-288 107.5z" />
    <glyph glyph-name="uni0445" unicode="&#x445;" horiz-adv-x="983" 
d="M958 0h-194l-272 406l-275 -406h-192l366 526l-336 482h195l244 -359l239 359h193l-330 -473z" />
    <glyph glyph-name="uni0446" unicode="&#x446;" horiz-adv-x="1185" 
d="M958 -256v256h-817v1008h176v-865h486v865h176v-865h151v-399h-172z" />
    <glyph glyph-name="uni0447" unicode="&#x447;" horiz-adv-x="1046" 
d="M729 1008h176v-1008h-176v408q-113 -52 -272 -52q-193 0 -281 77t-88 237v338h176v-330q0 -90 49.5 -133t165.5 -43q149 0 250 49v457z" />
    <glyph glyph-name="uni0448" unicode="&#x448;" horiz-adv-x="1599" 
d="M1456 1008v-1008h-1315v1008h176v-863h394v863h176v-863h393v863h176z" />
    <glyph glyph-name="uni0449" unicode="&#x449;" horiz-adv-x="1662" 
d="M1436 -256v256h-1295v1008h176v-863h396v863h174v-863h393v863h176v-863h152v-401h-172z" />
    <glyph glyph-name="uni044A" unicode="&#x44a;" horiz-adv-x="1228" 
d="M1159 334q0 -156 -102.5 -245t-274.5 -89h-460v864h-281v144h457v-338h284q172 0 274.5 -89.5t102.5 -246.5zM979 334q0 98 -56.5 144t-168.5 46h-256v-379h256q225 0 225 189z" />
    <glyph glyph-name="uni044B" unicode="&#x44b;" horiz-adv-x="1429" 
d="M141 0v1008h176v-338h287q169 0 273 -91t104 -245t-104 -244t-273 -90h-463zM317 145h258q226 0 226 189q0 190 -226 190h-258v-379zM1288 1008v-1008h-176v1008h176z" />
    <glyph glyph-name="uni044C" unicode="&#x44c;" horiz-adv-x="1050" 
d="M141 0v1008h176v-338h287q169 0 273 -91t104 -245t-104 -244t-273 -90h-463zM317 145h258q226 0 226 189q0 190 -226 190h-258v-379z" />
    <glyph glyph-name="uni044D" unicode="&#x44d;" horiz-adv-x="1024" 
d="M948 504q0 -242 -134 -387.5t-357 -145.5q-127 0 -223 49.5t-193 169.5l117 99q85 -96 151.5 -132t153.5 -36q135 0 215 89t94 236h-459v136h457q-19 140 -97.5 223.5t-205.5 83.5q-84 0 -151.5 -34t-145.5 -118l-115 109q91 103 184.5 146.5t219.5 43.5
q218 0 353.5 -147t135.5 -385z" />
    <glyph glyph-name="uni044E" unicode="&#x44e;" horiz-adv-x="1581" 
d="M1505 504q0 -235 -139.5 -384t-357.5 -149q-207 0 -345 134t-153 348h-197v-453h-176v1008h176v-424h199q24 203 160 327q134 125 336 125q218 0 357.5 -149t139.5 -383zM1325 504q0 173 -86 279t-231 106t-232.5 -106t-87.5 -279t87.5 -279t232.5 -106t231 106t86 279z
" />
    <glyph glyph-name="uni044F" unicode="&#x44f;" horiz-adv-x="1067" 
d="M469 1008h457v-1008h-168v362h-189l-309 -362h-205l324 371q-131 23 -208 107t-77 208q0 146 103.5 234t271.5 88zM758 506v358h-266q-108 0 -167 -46.5t-59 -131.5q0 -86 58.5 -133t164.5 -47h269z" />
    <glyph glyph-name="uni0451" unicode="&#x451;" horiz-adv-x="1093" 
d="M909 287l105 -107q-107 -114 -208.5 -161.5t-230.5 -47.5q-226 0 -362.5 145t-136.5 382q0 238 132 388t349 150q214 0 334.5 -129t120.5 -356q0 -28 -4 -78h-756q8 -159 92.5 -256.5t233.5 -97.5q94 0 161 37q67 36 170 131zM256 604h582q-6 135 -80.5 213t-202.5 78
q-123 0 -201 -76t-98 -215zM481 1417v-211h-172v211h172zM844 1417v-211h-172v211h172z" />
    <glyph glyph-name="uni0452" unicode="&#x452;" horiz-adv-x="1179" 
d="M1044 664v-742q0 -315 -284 -315q-93 0 -195 31l35 135q88 -21 139 -21q70 0 99.5 40.5t29.5 129.5v684q0 124 -59 189t-172 65q-108 0 -184 -76q-74 -77 -74 -186v-598h-176v1192h-144v121h144v141h176v-141h375v-121h-375v-326q51 69 130 106.5t177 37.5
q169 0 263.5 -96t94.5 -250z" />
    <glyph glyph-name="uni0453" unicode="&#x453;" horiz-adv-x="870" 
d="M829 864h-512v-864h-176v1008h688v-144zM741 1446l-188 -289h-156l148 289h196z" />
    <glyph glyph-name="uni0454" unicode="&#x454;" horiz-adv-x="1024" 
d="M866 289l117 -99q-97 -120 -193 -169.5t-225 -49.5q-221 0 -355 146t-134 387q0 238 135.5 385t353.5 147q126 0 219.5 -43.5t184.5 -146.5l-115 -109q-78 84 -145.5 118t-151.5 34q-127 0 -205.5 -83.5t-97.5 -223.5h457v-136h-461q14 -146 95 -235.5t216 -89.5
q86 0 152 36t153 132z" />
    <glyph glyph-name="uni0455" unicode="&#x455;" horiz-adv-x="980" 
d="M895 889l-96 -119q-92 71 -161 97t-157 26q-99 0 -160 -42t-61 -108q9 -64 53.5 -87t216.5 -62q209 -48 295 -115.5t86 -193.5q0 -141 -110 -227.5t-293 -86.5q-136 0 -241.5 42.5t-223.5 146.5l104 114q109 -89 189 -124q76 -33 174 -33q101 0 165 43t64 116
q0 71 -62 106.5t-220 70.5q-216 48 -289.5 103t-77.5 181q0 132 109 215.5t282 83.5q124 0 219 -33.5t195 -113.5z" />
    <glyph glyph-name="uni0456" unicode="&#x456;" horiz-adv-x="450" 
d="M313 1008v-1008h-176v1008h176zM313 1417v-211h-176v211h176z" />
    <glyph glyph-name="uni0457" unicode="&#x457;" horiz-adv-x="450" 
d="M313 1008v-1008h-176v1008h176zM131 1417v-211h-172v211h172zM494 1417v-211h-172v211h172z" />
    <glyph glyph-name="uni0458" unicode="&#x458;" horiz-adv-x="458" 
d="M14 -248q71 0 100 40t29 130v1086h176v-1086q0 -315 -284 -315q-93 0 -195 31l35 135q77 -21 139 -21zM319 1417v-211h-176v211h176z" />
    <glyph glyph-name="uni0459" unicode="&#x459;" horiz-adv-x="1777" 
d="M1708 309q0 -150 -98 -229.5t-269 -79.5h-497v864h-410l-4 -334q-2 -112 -7 -185t-17 -137.5t-30.5 -101t-50 -64t-73.5 -38.5t-102 -14q-66 0 -115 12l18 145q41 -6 78 -6q24 2 41 6t31.5 14t23.5 20.5t16.5 35.5t11.5 48.5t7 69t4.5 88.5t3.5 114l4 471h746v-387h321
q170 0 268.5 -81t98.5 -231zM1528 309q0 166 -205 166h-303v-330h303q205 0 205 164z" />
    <glyph glyph-name="uni045A" unicode="&#x45a;" horiz-adv-x="1742" 
d="M141 0v1008h176v-387h490v387h176v-387h324q170 0 268 -81t98 -231t-98 -229.5t-268 -79.5h-500v475h-490v-475h-176zM983 145h305q205 0 205 164q0 166 -205 166h-305v-330z" />
    <glyph glyph-name="uni045B" unicode="&#x45b;" horiz-adv-x="1179" 
d="M1044 664v-664h-176v606q0 124 -59 189t-172 65q-108 0 -184 -76q-74 -77 -74 -186v-598h-176v1192h-144v121h144v141h176v-141h375v-121h-375v-326q51 69 130 106.5t177 37.5q169 0 263.5 -96t94.5 -250z" />
    <glyph glyph-name="uni045C" unicode="&#x45c;" horiz-adv-x="1054" 
d="M829 0l-325 449h-187v-449h-176v1008h176v-414h187l303 414h190l-354 -480l385 -528h-199zM799 1446l-189 -289h-155l147 289h197z" />
    <glyph glyph-name="uni045E" unicode="&#x45e;" horiz-adv-x="991" 
d="M954 1008h-178l-112 -330l-103 -316l-61 -186l-17 51q-135 406 -149 447l-113 334h-186l379 -1061l-13 -39q-30 -90 -68.5 -125t-101.5 -35q-53 0 -108 12l-31 -135q67 -20 156 -20q124 0 188 56.5t115 199.5zM813 1411q0 -127 -85 -195.5t-236 -68.5q-154 0 -239 68
t-85 196h149q0 -72 45.5 -111.5t129.5 -39.5t129 39.5t45 111.5h147z" />
    <glyph glyph-name="uni045F" unicode="&#x45f;" horiz-adv-x="1124" 
d="M475 -262v262h-334v1008h176v-865h490v865h176v-1008h-338v-262h-170z" />
    <glyph glyph-name="uni0490" unicode="&#x490;" horiz-adv-x="1155" 
d="M168 0v1454h737v299h189v-457h-738v-1296h-188z" />
    <glyph glyph-name="uni0491" unicode="&#x491;" horiz-adv-x="897" 
d="M141 0v1008h553v266h168v-410h-545v-864h-176z" />
    <glyph glyph-name="Wgrave" unicode="&#x1e80;" horiz-adv-x="1923" 
d="M1671 1454h187l-351 -1454h-231l-178 668q-90 340 -135 542q-36 -175 -134 -544l-180 -666h-233l-353 1454h193l166 -700q55 -237 119 -559q84 349 141 559l190 700h191l186 -700q85 -329 137 -559q55 280 121 559zM700 1864h197l147 -289h-155z" />
    <glyph glyph-name="wgrave" unicode="&#x1e81;" horiz-adv-x="1505" 
d="M1282 1008h180l-282 -1008h-213l-95 322q-69 244 -122 475q-60 -251 -123 -478l-88 -319h-213l-283 1008h182l101 -377q28 -104 114 -477q55 230 123 477l107 377h166l106 -377q75 -265 123 -481q60 263 117 481zM489 1446h197l148 -289h-156z" />
    <glyph glyph-name="Wacute" unicode="&#x1e82;" horiz-adv-x="1923" 
d="M1671 1454h187l-351 -1454h-231l-178 668q-90 340 -135 542q-36 -175 -134 -544l-180 -666h-233l-353 1454h193l166 -700q55 -237 119 -559q84 349 141 559l190 700h191l186 -700q85 -329 137 -559q55 280 121 559zM1225 1864l-189 -289h-155l147 289h197z" />
    <glyph glyph-name="wacute" unicode="&#x1e83;" horiz-adv-x="1505" 
d="M1282 1008h180l-282 -1008h-213l-95 322q-69 244 -122 475q-60 -251 -123 -478l-88 -319h-213l-283 1008h182l101 -377q28 -104 114 -477q55 230 123 477l107 377h166l106 -377q75 -265 123 -481q60 263 117 481zM1016 1446l-189 -289h-155l147 289h197z" />
    <glyph glyph-name="Wdieresis" unicode="&#x1e84;" horiz-adv-x="1923" 
d="M1671 1454h187l-351 -1454h-231l-178 668q-90 340 -135 542q-36 -175 -134 -544l-180 -666h-233l-353 1454h193l166 -700q55 -237 119 -559q84 349 141 559l190 700h191l186 -700q85 -329 137 -559q55 280 121 559zM866 1835v-211h-172v211h172zM1229 1835v-211h-172v211
h172z" />
    <glyph glyph-name="wdieresis" unicode="&#x1e85;" horiz-adv-x="1505" 
d="M1282 1008h180l-282 -1008h-213l-95 322q-69 244 -122 475q-60 -251 -123 -478l-88 -319h-213l-283 1008h182l101 -377q28 -104 114 -477q55 230 123 477l107 377h166l106 -377q75 -265 123 -481q60 263 117 481zM657 1417v-211h-172v211h172zM1020 1417v-211h-172v211
h172z" />
    <glyph glyph-name="Ygrave" unicode="&#x1ef2;" horiz-adv-x="1277" 
d="M1042 1454h205l-516 -833v-621h-188v623l-512 831h209l401 -666zM377 1864h196l148 -289h-156z" />
    <glyph glyph-name="ygrave" unicode="&#x1ef3;" horiz-adv-x="991" 
d="M776 1008h178l-403 -1147q-51 -143 -115 -199.5t-188 -56.5q-89 0 -156 20l31 135q55 -12 108 -12q63 0 101.5 35t68.5 125l13 39l-379 1061h186l113 -334q14 -41 149 -447l17 -51l61 186l103 316zM231 1446h197l147 -289h-155z" />
    <glyph glyph-name="endash" unicode="&#x2013;" horiz-adv-x="1480" 
d="M1341 664v-150h-1202v150h1202z" />
    <glyph glyph-name="emdash" unicode="&#x2014;" horiz-adv-x="1978" 
d="M1815 664v-150h-1653v150h1653z" />
    <glyph glyph-name="quoteleft" unicode="&#x2018;" horiz-adv-x="409" 
d="M96 1001v209l119 244h104l-108 -244h98v-209h-213z" />
    <glyph glyph-name="quoteright" unicode="&#x2019;" horiz-adv-x="409" 
d="M313 1454v-209l-120 -244h-103l109 244h-99v209h213z" />
    <glyph glyph-name="quotesinglbase" unicode="&#x201a;" horiz-adv-x="403" 
d="M307 213v-213l-119 -233h-98l100 233h-96v213h213z" />
    <glyph glyph-name="quotedblleft" unicode="&#x201c;" horiz-adv-x="780" 
d="M96 1001v209l119 244h104l-108 -244h98v-209h-213zM467 1001v209l119 244h104l-108 -244h98v-209h-213z" />
    <glyph glyph-name="quotedblright" unicode="&#x201d;" horiz-adv-x="780" 
d="M313 1454v-209l-120 -244h-103l109 244h-99v209h213zM684 1454v-209l-121 -244h-102l108 244h-98v209h213z" />
    <glyph glyph-name="quotedblbase" unicode="&#x201e;" horiz-adv-x="774" 
d="M307 213v-213l-119 -233h-98l100 233h-96v213h213zM678 213v-213l-119 -233h-98l100 233h-96v213h213z" />
    <glyph glyph-name="dagger" unicode="&#x2020;" 
d="M1126 905v-157h-430v-1151h-178v1151h-430v157h430v549h178v-549h430z" />
    <glyph glyph-name="daggerdbl" unicode="&#x2021;" 
d="M1126 850h-430v-471h430v-158h-430v-624h-178v624h-430v158h430v471h-430v158h430v446h178v-446h430v-158z" />
    <glyph glyph-name="bullet" unicode="&#x2022;" horiz-adv-x="1024" 
d="M872 612q0 -148 -107 -255t-253 -107q-148 0 -255 107t-107 255q0 150 106 255.5t256 105.5q147 0 253.5 -106t106.5 -255z" />
    <glyph glyph-name="ellipsis" unicode="&#x2026;" horiz-adv-x="1290" 
d="M326 221v-221h-209v221h209zM750 221v-221h-209v221h209zM1176 221v-221h-209v221h209z" />
    <glyph glyph-name="perthousand" unicode="&#x2030;" horiz-adv-x="2535" 
d="M1315 1423l110 -67l-974 -1387l-109 70zM1640 307q0 -143 -91 -235t-226 -92t-226 92t-91 235q0 141 91 233.5t226 92.5t226 -92.5t91 -233.5zM1141 307q0 -93 49 -151t133 -58t133 58t49 151q0 91 -50.5 149t-131.5 58t-131.5 -58t-50.5 -149zM752 1090
q0 -143 -91.5 -235.5t-226.5 -92.5t-226 92.5t-91 235.5q0 141 91 233t226 92t226.5 -92t91.5 -233zM252 1090q0 -93 49 -151t133 -58t133 58t49 151q0 91 -50.5 148.5t-131.5 57.5t-131.5 -57.5t-50.5 -148.5zM2390 307q0 -143 -91 -235t-226 -92t-226.5 92t-91.5 235
q0 141 91.5 233.5t226.5 92.5t226 -92.5t91 -233.5zM1890 307q0 -93 49.5 -151t133.5 -58t133 58t49 151q0 91 -50.5 149t-131.5 58t-132 -58t-51 -149z" />
    <glyph glyph-name="guilsinglleft" unicode="&#x2039;" horiz-adv-x="724" 
d="M588 965l-289 -447l289 -446h-176l-285 446l285 447h176z" />
    <glyph glyph-name="guilsinglright" unicode="&#x203a;" horiz-adv-x="724" 
d="M137 965h174l287 -447l-287 -446h-174l285 446z" />
    <glyph glyph-name="fraction" unicode="&#x2044;" horiz-adv-x="399" 
d="M631 1423l110 -67l-974 -1387l-109 70z" />
    <glyph glyph-name="Euro" unicode="&#x20ac;" horiz-adv-x="1249" 
d="M1106 229l98 -127q-104 -75 -191.5 -105t-207.5 -30q-213 0 -355.5 140t-187.5 382h-149v129h133q-2 16 -2 78q0 58 6 113h-137v131h157q50 225 190.5 355t344.5 130q120 0 209 -30.5t190 -104.5l-98 -127q-84 61 -149 84t-152 23q-126 0 -216 -86.5t-132 -243.5h528
v-131h-551q-6 -55 -6 -113q0 -62 2 -78h555v-129h-536q37 -173 129.5 -269.5t226.5 -96.5q87 0 152 22.5t149 83.5z" />
    <glyph glyph-name="uni20B9" unicode="&#x20b9;" 
d="M1116 1264h-235q83 -83 104 -215h131v-127h-131q-20 -160 -140.5 -253.5t-303.5 -93.5h-140l609 -575h-248l-596 575v140h354q122 0 197 53.5t92 153.5h-643v127h639q-20 93 -93.5 141.5t-191.5 48.5h-354v154h950v-129z" />
    <glyph glyph-name="uni20BA" unicode="&#x20ba;" 
d="M958 612l164 -26l-24 -125q-25 -132 -69.5 -220.5t-117.5 -142t-168.5 -76t-230.5 -22.5h-227v526l-191 -84v136l191 84v215l-191 -84v135l191 84v381h180v-299l338 149v-135l-338 -150v-215l338 150v-135l-338 -150v-452h24q91 1 151 9.5t111.5 29.5t84.5 59.5
t57.5 96.5t42.5 145z" />
    <glyph glyph-name="uni20BD" unicode="&#x20bd;" horiz-adv-x="1249" 
d="M696 580h-245v-189h440v-127h-440v-264h-181v264h-192v127h192v189h-192v137h192v676h426q197 0 323 -113.5t126 -298.5q0 -184 -125 -292.5t-324 -108.5zM451 1239v-522h227q134 0 212.5 70t78.5 192t-78 191t-213 69h-227z" />
    <glyph glyph-name="uni2116" unicode="&#x2116;" horiz-adv-x="2109" 
d="M1462 1149q0 141 88 229q90 90 226 90q137 0 227 -90t90 -229q0 -141 -90 -231q-91 -91 -227 -91q-135 0 -226 91q-88 88 -88 231zM1102 793v661h186v-1454h-215l-407 659q-91 143 -131 213l-146 261q-1 2 -17.5 30t-27.5 49q10 -325 10 -561v-651h-186v1454h215
l412 -670q121 -190 270 -462l45 -80q-8 205 -8 551zM1602 1149q0 -95 49.5 -150t126.5 -55q76 0 125 55.5t49 149.5t-49 148.5t-125 54.5t-126 -54.5t-50 -148.5zM1481 621v116h587v-116h-587z" />
    <glyph glyph-name="uni2117" unicode="&#x2117;" horiz-adv-x="1753" 
d="M123 727q-3 206 98 381.5t276 276t380 96.5q154 3 294.5 -56t241.5 -160t160 -242t57 -296q2 -155 -57 -296t-160 -242t-241.5 -160t-294.5 -56q-205 -4 -380 96.5t-276 276t-98 381.5zM1503 727q3 176 -79 325.5t-227.5 236t-319.5 83.5q-174 3 -319.5 -83.5t-228 -236
t-79.5 -325.5q-3 -176 79.5 -325.5t228 -236t319.5 -83.5q174 -3 319.5 83.5t227.5 236t79 325.5zM604 303v848h342q121 0 197 -74t76 -190q0 -125 -71.5 -188.5t-201.5 -63.5h-209v-332h-133zM737 745h178q85 0 128.5 37.5t43.5 106.5q0 67 -43.5 105t-128.5 38h-178v-287z
" />
    <glyph glyph-name="trademark" unicode="&#x2122;" horiz-adv-x="1955" 
d="M764 1454v-111h-279v-681h-131v681h-278v111h688zM1804 1454v-792h-121v634l-260 -634h-116l-269 626v-626h-123v792h181l270 -641l256 641h182z" />
    <glyph glyph-name="uni2126" unicode="&#x2126;" horiz-adv-x="1550" 
d="M1186 158h280v-158h-548v160q356 145 356 573q0 260 -137.5 424t-360.5 164q-146 0 -259 -75t-175.5 -209t-62.5 -304q0 -427 358 -573v-160h-551v158h283q-135 85 -209 237.5t-74 337.5q0 162 48.5 301t137 239t218.5 157t286 57q205 3 364 -96t243.5 -271.5
t82.5 -386.5q0 -186 -72.5 -338t-207.5 -237z" />
    <glyph glyph-name="uni2154" unicode="&#x2154;" horiz-adv-x="2058" 
d="M233 678h496v-121h-643v57q0 118 63 194t203 150l54 29q103 52 141.5 87t38.5 91q0 59 -44 91t-120 32q-116 0 -242 -112l-82 94q152 143 326 143q139 0 223 -68.5t84 -173.5q0 -68 -31 -122q-29 -47 -73.5 -79.5t-137.5 -80.5l-57 -31q-93 -53 -145 -92q-46 -36 -54 -88
zM1485 1423l110 -67l-974 -1387l-109 70zM1970 254q0 -112 -85.5 -193t-231.5 -81q-88 0 -164.5 23.5t-171.5 82.5l72 102q82 -48 140 -66t122 -18q79 0 126.5 41.5t47.5 108.5q0 66 -50.5 104.5t-138.5 38.5q-74 0 -106 -14l-64 88l297 244h-407v121h583v-119l-264 -215h8
q126 0 206.5 -67.5t80.5 -180.5z" />
    <glyph glyph-name="oneeighth" unicode="&#x215b;" horiz-adv-x="1869" 
d="M338 1393h108v-836h-141v662l-153 -113l-72 98zM1282 1423l111 -67l-975 -1387l-109 70zM1794 229q0 -110 -90.5 -179.5t-243.5 -69.5t-243.5 69.5t-90.5 179.5q0 76 42.5 132.5t119.5 82.5q-127 65 -127 189q0 99 82.5 162t216.5 63q133 0 216 -63.5t83 -161.5
q0 -124 -127 -189q78 -29 120 -85t42 -130zM1294 621q0 -54 47 -90.5t119 -36.5q73 0 118.5 35.5t45.5 91.5q0 54 -45.5 88t-118.5 34t-119.5 -34t-46.5 -88zM1649 240q0 67 -50 107t-139 40t-139.5 -40t-50.5 -107q0 -63 50.5 -101.5t139.5 -38.5t139 38.5t50 101.5z" />
    <glyph glyph-name="threeeighths" unicode="&#x215c;" horiz-adv-x="2023" 
d="M715 811q0 -112 -86 -193t-232 -81q-88 0 -164.5 23.5t-171.5 82.5l72 102q82 -48 140 -65.5t122 -17.5q79 0 126.5 41.5t47.5 107.5t-50 104.5t-138 38.5q-75 0 -107 -14l-63 88l297 244h-408v121h584v-119l-264 -215h8q126 0 206.5 -67.5t80.5 -180.5zM1436 1423
l110 -67l-975 -1387l-108 70zM1948 229q0 -110 -90.5 -179.5t-243.5 -69.5t-243.5 69.5t-90.5 179.5q0 76 42.5 132.5t119.5 82.5q-127 65 -127 189q0 99 82.5 162t216.5 63q133 0 216 -63.5t83 -161.5q0 -124 -127 -189q78 -29 120 -85t42 -130zM1448 621q0 -54 47 -90.5
t119 -36.5q73 0 118.5 35.5t45.5 91.5q0 54 -45.5 88t-118.5 34t-119.5 -34t-46.5 -88zM1802 240q0 67 -49.5 107t-138.5 40q-90 0 -140.5 -40t-50.5 -107q0 -63 51 -101.5t140 -38.5t138.5 38.5t49.5 101.5z" />
    <glyph glyph-name="fiveeighths" unicode="&#x215d;" horiz-adv-x="2027" 
d="M737 836q0 -132 -90.5 -215.5t-238.5 -83.5q-88 0 -167 25t-175 85l71 105q87 -51 143.5 -70.5t122.5 -19.5q82 0 134.5 46.5t52.5 118.5q0 74 -45.5 115t-132.5 41q-107 0 -181 -65l-112 12l41 463h536v-121h-420l-22 -230q77 62 199 62q127 0 205.5 -76.5t78.5 -191.5z
M1440 1423l110 -67l-975 -1387l-108 70zM1954 229q0 -110 -90.5 -179.5t-243.5 -69.5t-243.5 69.5t-90.5 179.5q0 76 42.5 132.5t119.5 82.5q-127 65 -127 189q0 99 82.5 162t216.5 63q133 0 216 -63.5t83 -161.5q0 -124 -127 -189q78 -29 120 -85t42 -130zM1454 621
q0 -54 47 -90.5t119 -36.5q73 0 118.5 35.5t45.5 91.5q0 54 -45.5 88t-118.5 34t-119.5 -34t-46.5 -88zM1808 240q0 67 -49.5 107t-138.5 40t-139.5 -40t-50.5 -107q0 -63 50.5 -101.5t139.5 -38.5t138.5 38.5t49.5 101.5z" />
    <glyph glyph-name="seveneighths" unicode="&#x215e;" horiz-adv-x="1859" 
d="M55 1393h654v-111q-154 -172 -242 -358.5t-102 -366.5h-154q15 170 111 371q92 192 229 344h-496v121zM1272 1423l110 -67l-974 -1387l-109 70zM1784 229q0 -110 -90.5 -179.5t-243.5 -69.5t-243.5 69.5t-90.5 179.5q0 76 42.5 132.5t119.5 82.5q-127 65 -127 189
q0 99 82.5 162t216.5 63q133 0 216 -63.5t83 -161.5q0 -124 -127 -189q78 -29 120 -85t42 -130zM1284 621q0 -54 47 -90.5t119 -36.5q73 0 118.5 35.5t45.5 91.5q0 54 -45.5 88t-118.5 34t-119.5 -34t-46.5 -88zM1638 240q0 67 -49.5 107t-138.5 40t-139.5 -40t-50.5 -107
q0 -63 50.5 -101.5t139.5 -38.5t138.5 38.5t49.5 101.5z" />
    <glyph glyph-name="arrowleft" unicode="&#x2190;" horiz-adv-x="1890" 
d="M1782 770v-149h-1436l524 -517l-110 -108l-699 698l699 699l110 -109l-522 -514h1434z" />
    <glyph glyph-name="arrowup" unicode="&#x2191;" horiz-adv-x="1490" 
d="M1409 903l-104 -106l-476 481v-1278h-163v1280l-478 -483l-106 106l666 666z" />
    <glyph glyph-name="arrowright" unicode="&#x2192;" horiz-adv-x="1890" 
d="M1130 1393l699 -699l-699 -698l-108 108l522 517h-1435v149h1433l-520 514z" />
    <glyph glyph-name="arrowdown" unicode="&#x2193;" horiz-adv-x="1490" 
d="M1305 657l104 -106l-661 -666l-666 666l106 106l478 -483v1280h163v-1278z" />
    <glyph glyph-name="uni2196" unicode="&#x2196;" horiz-adv-x="1497" 
d="M1436 268l-109 -106l-1032 1032v-741h-152v1001h1002v-147h-746z" />
    <glyph glyph-name="uni2197" unicode="&#x2197;" horiz-adv-x="1497" 
d="M352 1454h1002v-1001h-150v743l-1034 -1034l-109 106l1039 1039h-748v147z" />
    <glyph glyph-name="uni2198" unicode="&#x2198;" horiz-adv-x="1497" 
d="M1204 1001h150v-1001h-1002v147h748l-1039 1039l109 106l1034 -1034v743z" />
    <glyph glyph-name="uni2199" unicode="&#x2199;" horiz-adv-x="1497" 
d="M1436 1186l-1037 -1039h746v-147h-1002v1001h152v-741l1032 1032z" />
    <glyph glyph-name="partialdiff" unicode="&#x2202;" horiz-adv-x="1138" 
d="M1063 600q0 -292 -133 -463q-132 -170 -367 -170q-108 0 -200.5 41.5t-154.5 112t-97 162.5t-35 192q0 134 55 247.5t158.5 183t234.5 69.5q120 0 214.5 -52.5t150.5 -146.5q-77 470 -615 547l39 152q372 -49 561 -273.5t189 -601.5zM872 473q0 146 -92 248t-229 102
q-136 0 -217 -100q-80 -103 -80 -250q0 -148 84 -252q84 -100 225 -100q135 0 222 102t87 250z" />
    <glyph glyph-name="uni2206" unicode="&#x2206;" horiz-adv-x="1372" 
d="M811 1454l528 -1454h-1304l526 1454h250zM283 158h804l-200 563q-154 431 -203 596q-48 -165 -188 -559l-15 -39z" />
    <glyph glyph-name="product" unicode="&#x220f;" horiz-adv-x="1468" 
d="M1300 1454v-1679h-190v1521h-754v-1521h-188v1679h1132z" />
    <glyph glyph-name="summation" unicode="&#x2211;" horiz-adv-x="1222" 
d="M1106 1454v-158h-776l510 -680l-516 -690h837v-157h-1059v147l516 700l-509 691v147h997z" />
    <glyph glyph-name="minus" unicode="&#x2212;" horiz-adv-x="1228" 
d="M1147 711v-152h-1065v152h1065z" />
    <glyph glyph-name="radical" unicode="&#x221a;" horiz-adv-x="1251" 
d="M1006 1454h192l-520 -1454h-248l-375 1008h195l307 -846z" />
    <glyph glyph-name="infinity" unicode="&#x221e;" horiz-adv-x="1652" 
d="M1548 594q0 -143 -94.5 -240.5t-232.5 -97.5q-199 0 -390 221l-8 10q-108 -129 -196 -180t-199 -51q-136 0 -229 97.5t-93 240.5q0 145 98 242.5t245 97.5q104 0 192.5 -54t183.5 -171l2 -2q192 227 381 227q148 0 244 -97t96 -243zM735 588l-4 4l-33 37
q-79 95 -129.5 129.5t-122.5 34.5q-86 0 -139 -56.5t-53 -144.5q0 -87 51 -143t129 -56q77 0 144.5 44.5t156.5 150.5zM1399 592q0 89 -53 145t-140 56q-146 0 -291 -195l9 -10q85 -103 149.5 -149t140.5 -46q82 0 133.5 54.5t51.5 144.5z" />
    <glyph glyph-name="integral" unicode="&#x222b;" horiz-adv-x="1228" 
d="M371 -397q-105 0 -197 30l37 134q89 -21 139 -21q71 0 100 40t29 132v1258q0 150 78 229.5t225 79.5q102 0 205 -35l-37 -135q-82 24 -139 24q-84 0 -120 -42.5t-36 -141.5v-1239q0 -313 -284 -313z" />
    <glyph glyph-name="approxequal" unicode="&#x2248;" horiz-adv-x="1234" 
d="M637 897q57 -23 78.5 -31t51.5 -15t56 -7q55 0 95 18q37 19 110 86l88 -100q-91 -94 -145 -119q-63 -29 -144 -29q-44 0 -86 12.5t-123 45.5q-79 32 -120.5 43.5t-83.5 11.5q-59 0 -102 -21.5t-107 -82.5l-88 100q78 83 144.5 116t150.5 33q52 0 101 -14t124 -47z
M637 487q57 -23 78.5 -31t51.5 -15t56 -7q52 0 95 19q37 19 110 86l88 -101q-91 -94 -145 -119q-61 -28 -144 -28q-45 0 -89.5 13t-116.5 44q-80 32 -121.5 43.5t-85.5 11.5q-59 0 -102 -21.5t-107 -82.5l-88 100q78 83 145 116.5t150 33.5q51 0 100 -14.5t125 -47.5z" />
    <glyph glyph-name="notequal" unicode="&#x2260;" horiz-adv-x="1228" 
d="M1147 764h-414l-94 -258h508v-152h-565l-88 -241h-156l88 241h-344v152h399l94 258h-493v151h549l86 234h157l-86 -234h359v-151z" />
    <glyph glyph-name="lessequal" unicode="&#x2264;" horiz-adv-x="1228" 
d="M1106 1122v-164l-787 -284l787 -285v-164l-983 369v160zM1147 152v-152h-1065v152h1065z" />
    <glyph glyph-name="greaterequal" unicode="&#x2265;" horiz-adv-x="1228" 
d="M123 1122l983 -368v-160l-983 -369v164l786 285l-786 284v164zM1147 152v-152h-1065v152h1065z" />
    <glyph glyph-name="lozenge" unicode="&#x25ca;" horiz-adv-x="1247" 
d="M729 1454l442 -729l-442 -725h-211l-442 725l442 729h211zM625 1311l-359 -586l359 -582l354 582z" />
    <glyph glyph-name="uni2923" unicode="&#x2923;" horiz-adv-x="1294" 
d="M610 1319q162 -168 236 -260q203 -235 203 -492q0 -137 -62 -264q-55 -118 -149 -233q-79 -96 -240 -267l-39 -41l-121 115l33 35q148 158 219 242q182 215 182 413q0 122 -55 232q-55 113 -137 207q-88 101 -238 258l-51 53v-494h-145v744h743v-142h-483l51 -53z" />
    <glyph glyph-name="uni2924" unicode="&#x2924;" horiz-adv-x="1294" 
d="M305 1567h744v-744h-146v496l-53 -55q-150 -157 -238 -258q-192 -220 -192 -439q0 -111 51 -213q51 -101 129 -198q79 -94 219 -240l37 -39l-121 -115l-39 41q-169 179 -241 267q-209 259 -209 497q0 140 59 267q57 123 148 231q78 93 239 260l45 47l51 53h-483v142z" />
    <glyph glyph-name="uni2925" unicode="&#x2925;" horiz-adv-x="1294" 
d="M903 596h146v-743h-744v141h483l-51 53l-45 47q-161 167 -239 260q-207 246 -207 498q0 135 59 262q61 126 150 234q78 95 241 268l39 41l121 -115l-37 -39q-147 -153 -219 -239q-180 -216 -180 -412q0 -121 55 -234q57 -115 137 -206q67 -77 238 -256l53 -56v496z" />
    <glyph glyph-name="uni2926" unicode="&#x2926;" horiz-adv-x="1294" 
d="M557 47l-51 -53h483v-141h-743v743h145v-494l51 54q171 179 238 256q192 227 192 440q0 113 -51 215q-53 107 -131 199q-63 74 -219 241l-33 35l121 115l39 -41q155 -164 240 -268q211 -246 211 -496q0 -137 -60 -266t-143 -228q-64 -79 -236 -258z" />
    <glyph glyph-name="uniE000" unicode="&#xe000;" horiz-adv-x="3670" 
d="M645 0h-543v471h27q78 -206 215.5 -325t296.5 -119q124 0 195 77q71 80 71 189q0 111 -78 192q-46 46 -100 71.5t-176 64.5q-121 35 -190 68t-127 91q-119 119 -119 295q0 160 100 269.5t258 109.5h498v-403h-21q-34 58 -48 81t-43.5 62.5t-63.5 73.5q-156 159 -324 159
q-91 0 -162 -51q-71 -53 -71 -172q0 -48 18.5 -98t50.5 -82q46 -46 107.5 -73.5t181.5 -63.5q138 -40 216.5 -77.5t143.5 -102.5q49 -47 76 -119.5t27 -157.5q0 -200 -113 -315t-303 -115zM1030 1454h768q143 2 268.5 -57t212 -161t135.5 -241t48 -293q1 -106 -24 -206
t-79 -191.5t-132.5 -159.5t-193.5 -107.5t-253 -37.5h-748v27h41q116 0 169.5 48.5t53.5 153.5v996q0 104 -54 153t-169 49h-43v27zM2353 27h33q117 0 171 49t54 153v996q0 106 -54 154t-171 48h-35v27h787v-27h-56q-116 0 -168.5 -48t-52.5 -154v-996q0 -113 34 -157.5
t120 -44.5h135q57 3 93 18t81.5 67t93.5 139.5t125 248.5h25v-500h-1215v27zM3387 1454v-27h-41v-110h-30v110h-41v27h112zM3568 1454v-137h-31v100l-39 -100h-23l-36 100v-100h-31v137h47l33 -92l35 92h45zM2195 674q0 195 -35 343t-96 236t-138 131t-167 43h-133
q-47 0 -63.5 -20t-16.5 -74v-1134q0 -84 56.5 -128t162.5 -44q226 0 328 182q102 184 102 465z" />
    <glyph glyph-name="uniE001" unicode="&#xe001;" horiz-adv-x="2070" 
d="M1034 -168q-207 0 -393 88q-248 116 -393.5 348t-145.5 498q0 205 88 391q116 249 347 394t499 145q208 0 394 -88q247 -116 392.5 -348t145.5 -498q0 -205 -88 -391q-116 -248 -347 -393.5t-499 -145.5zM1937 762q0 256 -139 483q-137 224 -381 338q-185 84 -381 84
q-258 0 -485 -139q-221 -135 -336 -381q-84 -185 -84 -381q0 -258 139 -485q135 -219 383 -336q185 -84 381 -84q169 0 328.5 61.5t289 180.5t201.5 278q84 185 84 381zM1079 1475l17 131l92 -13l-4 -30l-47 4l-2 -19l45 -6l-4 -33l-46 7l-6 -48zM881 1481l-2 22l45 6l2 -8
q0 -4 12 -4l10 6l-2 10q0 5 -12 5h-4q-43 0 -56 16l-6 37q5 13 23 23t47 10q30 0 43 -19l4 -22l-47 -7v9q-4 4 -12 4q-11 -4 -11 -6v-9q4 -4 15 -4h4q47 -3 55 -16l4 -37q-9 -33 -67 -33q-28 0 -45 17zM1272 1434l-8 47l-11 4l-12 -41l-45 14l41 127l72 -24q26 -9 32 -33
l-14 -43q-8 -6 -20 -10l8 -29l-8 -25zM823 1442l-35 33l-8 -2l13 -41l-43 -15l-43 125l71 25q4 2 17 2q18 0 28 -10l15 -41q-3 -15 -11 -23l25 -16l8 -25zM1264 1513l14 -6q10 0 12 2l6 17q-3 6 -10 8l-14 6zM770 1501l16 6q3 0 9 6l-7 19q-6 2 -12 0l-14 -6zM643 1358
l-65 117l84 47l16 -29l-43 -25l8 -14l41 23l14 -29l-39 -23l9 -16l45 25l14 -29zM1341 1434l41 71q8 8 25 8q19 0 39 -10q39 -20 39 -53l-41 -72q-8 -8 -25 -8q-18 0 -41 10q-37 21 -37 54zM1409 1409l31 53q0 8 -10 11q-11 4 -13 2l-31 -56q0 -5 9 -8q10 -6 14 -2z
M565 1296l-65 76l-23 -18l-20 24l82 68l20 -25l-22 -18l63 -78zM1454 1343l88 99l43 -39l-16 -45l4 -4l41 22l43 -39l-88 -98l-33 29l45 51l-2 2l-47 -21l-14 15l16 47l-4 4l-45 -51zM1034 111q-143 0 -274 61q-175 82 -277 246q-100 160 -100 348q0 143 61 274
q83 177 244 277q160 100 348 100q144 0 275 -61q173 -82 276 -246q101 -157 101 -348q0 -139 -62 -275q-82 -175 -244 -276q-160 -100 -348 -100zM1661 764q0 181 -98 332q-95 153 -265 233q-132 60 -262 60q-176 0 -336 -97q-155 -96 -231 -264q-59 -130 -59 -262
q0 -176 96 -334q100 -158 266 -233q132 -60 262 -60q177 0 334 97q158 96 234 264q59 133 59 264zM475 1200l-78 66l-18 -25l-25 23l68 82l24 -21l-18 -25l76 -63zM1636 1186l19 10l24 -39l-8 -4q-1 -1 2 -12q3 -8 8 -8l9 4q4 3 0 14l-2 4q-11 26 -11 39q0 6 4 18l31 19
q30 0 51 -37q13 -16 13 -39q0 -11 -7 -22l-18 -11l-25 39l9 4q2 2 -2 13q-3 8 -9 8l-8 -4q0 -11 2 -15l2 -4q11 -37 11 -41q0 -1 -5 -16l-32 -19q-31 0 -52 37q-12 24 -12 39q0 11 6 23zM395 1075l-114 66l47 84l28 -17l-24 -43l14 -8l23 39l28 -14l-22 -41l16 -11l25 46
l26 -17zM1055 1100q0 -14 -11 -43q-24 -47 -59 -47q-33 0 -33 43q0 14 11 43q21 47 57 47q35 0 35 -43zM1694 1038l96 52l25 6l12 -43l-68 -29v-4l76 6l10 -33l-65 -37v-2l73 11l13 -37l-25 -8l-108 -13l-15 54l43 24l-2 2l-49 -2zM356 973l-125 47l17 43l94 -35l12 35
l31 -10zM1346 965q0 -14 -11 -43q-22 -48 -57 -48t-35 44q0 16 10 43q21 47 58 47q35 0 35 -43zM289 883q0 -11 -2 -13q-1 -6 -8 -10t-13 -4l-10 2q-14 8 -14 23l2 10q6 12 20 12q10 0 12 -2q13 -3 13 -18zM1739 862l133 10l6 -94l-31 -4l-4 51l-16 -2l2 -47l-33 -2l-2 47
l-18 -2l2 -49l-31 -4zM1284 541l-31 14q-38 -65 -105.5 -103t-141.5 -38q-68 0 -121 26q-77 36 -121.5 106.5t-44.5 153.5q0 44 16 97l-30 14q-21 -53 -21 -111q0 -93 50.5 -172.5t135.5 -117.5q67 -31 136 -31q86 0 160.5 43.5t117.5 118.5zM330 668l-133 -9l-4 41l45 15
l-2 2l-43 8l-5 41l136 8l2 -31l-72 -4v-4l49 -8l2 -16l-49 -15v-2l72 4zM1747 741l131 -14l-6 -68q-6 -36 -31 -45l-82 9q-20 14 -20 45v6zM1774 692l-2 -14q0 -6 4 -10l59 -6q4 0 4 10l2 14zM348 586l-131 -29l-8 33l106 24l-6 25l25 6zM1729 602l124 -41l-26 -90l-31 8
l14 49l-16 4l-14 -45l-31 11l14 45l-18 4l-14 -47l-31 8zM365 477l-93 -33q-8 0 -18.5 8t-15.5 23q-2 4 -2 19q0 25 10 28l90 33q8 0 19 -8t16 -23l4 -18q0 -19 -10 -29zM336 520l-68 -24q-5 -5 -2 -11q4 -4 6 -4l70 25l2 8q-3 6 -8 6zM1692 485l116 -61l-22 -43h-66l-2 -4
l51 -27l-20 -37l-117 62l23 43h65l2 4l-51 27zM432 389l-119 -65l-16 30l45 25l-8 12l-43 -24l-17 30l117 64l17 -29l-48 -26l7 -15l49 27zM492 305l-107 -80l-20 27l26 20v2l-39 -8l-14 23l16 12l41 4l31 49l18 15l17 -23l-25 -37l6 2l29 21zM553 217l-68 -70
q-22 -8 -45 15q-16 16 -16 41l29 28l22 -22l-16 -19q-2 -2 -0.5 -6t6.5 -4h4l51 51q0 7 -2 9q-5 4 -8 2l-21 -19l-22 23l31 30q21 6 41 -14q16 -19 16 -37zM1640 250q0 -6 -2 -8q-6 -15 -22 -15q-8 0 -10 2q-13 7 -13 23q0 6 2 8q8 14 21 14q8 0 10 -2q14 -6 14 -22z
M1495 221l80 -108l-35 -25l-35 29l-2 -2l17 -41l-33 -25l-80 109l27 18l43 -57l2 2l-19 47l13 8l36 -33l2 2l-41 58zM639 150l-55 -78q-23 -9 -47 8q-21 12 -21 35v6l57 78q3 5 18 4.5t27 -10.5q21 -15 21 -35v-8zM594 170l-43 -59q-2 -2 2 -9q7 -3 10 0l43 60q0 4 -4 8
t-8 0zM1337 123l19 -29l16 8l-10 31l27 14l8 -20l35 -109l-48 -22l-65 92l-10 21zM717 129l-51 -94l18 -10l-12 -23l-66 33l12 24l19 -10l51 96zM823 70l-8 -27l-31 10l4 13q0 6 -6 6q-4 4 -8 0l-4 -15q0 -5 6 -8l2 -2q25 -22 25 -37l-15 -39q-12 -6 -26 -6q-13 0 -17 2
q-24 9 -30 33l8 25l31 -11l-4 -12q0 -6 8 -6q4 0 6 2l4 10q0 4 -6 10h-2q-25 19 -25 37l15 41q13 8 24 8q3 0 19 -4q30 -10 30 -30zM1288 100l39 -129l-47 -14q-20 -9 -37 8l-29 92q0 18 25 27zM1395 39l-15 39l-12 -6l23 -35zM1184 70l22 -133l-61 -11l-4 27l28 4l-6 27
l-26 -4l-4 24l26 6l-4 29l-29 -6l-4 26zM989 55l-18 -133l-35 4l-10 66h-2l-9 -64l-32 4l16 134l37 -5l10 -65l2 -2l8 65zM1264 63l-9 -2q-6 0 -6 -6l23 -69q5 -5 8 -2l8 2zM1049 53v-133h-35v135z" />
    <glyph glyph-name="uniE002" unicode="&#xe002;" 
d="M793 6v-211h-131v205h-164v-205h-131v205h-226v1393h226v204h131v-204h164v204h131v-215q136 -25 214 -114t78 -228q0 -109 -54 -188t-148 -115q118 -37 184 -127t66 -219q0 -159 -90.5 -260.5t-249.5 -124.5zM326 1243v-440h319q123 0 192.5 60.5t69.5 166.5
q0 104 -67 158.5t-195 54.5h-319zM950 401q0 118 -77 185t-216 67h-331v-503h329q145 0 220 65.5t75 185.5z" />
    <glyph glyph-name="Adieresis.ss02" horiz-adv-x="1370" 
d="M1143 0l-131 371h-656l-131 -371h-190l526 1454h248l528 -1454h-194zM414 530h540l-67 191q-139 370 -205 592q-54 -181 -178 -529l-23 -65zM391 1735q0 45 33 77.5t80 32.5q44 0 78 -33t34 -77t-34 -78.5t-78 -34.5q-47 0 -80 33t-33 80zM756 1735q0 44 34 77t78 33
q47 0 80 -32.5t33 -77.5q0 -47 -33 -80t-80 -33q-46 0 -79 34t-33 79z" />
    <glyph glyph-name="Cdotaccent.ss02" horiz-adv-x="1370" 
d="M1303 1280l-111 -131q-113 95 -207.5 133.5t-198.5 38.5q-231 0 -370.5 -165t-139.5 -429q0 -261 139 -427.5t359 -166.5q120 0 216 48.5t222 164.5l117 -127q-142 -136 -268 -194t-285 -58q-208 0 -366 99t-241 271t-83 392t82.5 391t242.5 269t375 98q145 0 266.5 -48
t250.5 -159zM674 1731q0 50 33 82t84 32q49 0 81.5 -33t32.5 -81t-32.5 -81.5t-81.5 -33.5q-50 0 -83.5 33.5t-33.5 81.5z" />
    <glyph glyph-name="Edieresis.ss02" horiz-adv-x="1247" 
d="M1135 1454v-158h-779v-469h725v-157h-725v-512h797v-158h-985v1454h967zM362 1735q0 45 33 77.5t80 32.5q45 0 79 -33t34 -77t-34.5 -78.5t-78.5 -34.5q-47 0 -80 33t-33 80zM727 1735q0 44 34 77t79 33q47 0 79.5 -32.5t32.5 -77.5q0 -47 -32.5 -80t-79.5 -33t-80 34
t-33 79z" />
    <glyph glyph-name="Edotaccent.ss02" horiz-adv-x="1247" 
d="M1135 1454v-158h-779v-469h725v-157h-725v-512h797v-158h-985v1454h967zM539 1731q0 50 32.5 82t83.5 32q49 0 82 -33t33 -81t-33 -81.5t-82 -33.5q-50 0 -83 33.5t-33 81.5z" />
    <glyph glyph-name="uni0122.ss02" horiz-adv-x="1517" 
d="M741 602v160h641v-762h-147l-14 184q-135 -215 -453 -215q-211 0 -366.5 97t-235.5 267.5t-80 393.5q0 220 84 391t245 269t376 98q175 0 315 -66.5t278 -210.5l-120 -123q-131 131 -234 181q-106 53 -244 53q-226 0 -368 -163.5t-142 -428.5q0 -271 136 -432.5
t366 -161.5q192 0 312 111q118 109 118 301v57h-467zM899 -287q0 -98 -65 -164.5t-166 -66.5v74q47 5 84.5 32t48.5 74q-28 -4 -35 -4q-51 0 -81 27t-30 71t33 73.5t78 29.5q58 0 95.5 -39.5t37.5 -106.5z" />
    <glyph glyph-name="Gdotaccent.ss02" horiz-adv-x="1517" 
d="M741 602v160h641v-762h-147l-14 184q-135 -215 -453 -215q-211 0 -366.5 97t-235.5 267.5t-80 393.5q0 220 84 391t245 269t376 98q175 0 315 -66.5t278 -210.5l-120 -123q-131 131 -234 181q-106 53 -244 53q-226 0 -368 -163.5t-142 -428.5q0 -271 136 -432.5
t366 -161.5q192 0 312 111q118 109 118 301v57h-467zM672 1731q0 50 32.5 82t83.5 32q49 0 82 -33t33 -81t-33 -81.5t-82 -33.5q-50 0 -83 33.5t-33 81.5z" />
    <glyph glyph-name="Idieresis.ss02" horiz-adv-x="552" 
d="M371 1454v-1454h-189v1454h189zM-16 1735q0 45 32.5 77.5t79.5 32.5q45 0 79 -33t34 -77t-34.5 -78.5t-78.5 -34.5q-47 0 -79.5 33t-32.5 80zM348 1735q0 44 34 77t79 33q47 0 79.5 -32.5t32.5 -77.5q0 -47 -32.5 -80t-79.5 -33t-80 34t-33 79z" />
    <glyph glyph-name="Idotaccent.ss02" horiz-adv-x="552" 
d="M371 1454v-1454h-189v1454h189zM160 1731q0 50 32.5 82t83.5 32q49 0 82 -33t33 -81t-33 -81.5t-82 -33.5q-50 0 -83 33.5t-33 81.5z" />
    <glyph glyph-name="K.ss01" horiz-adv-x="1347" 
d="M1114 0l-493 743l-265 -254v-489h-188v1454h188v-737l791 766l119 -117l-516 -496l579 -870h-215z" />
    <glyph glyph-name="uni0136.ss01" horiz-adv-x="1347" 
d="M1114 0l-493 743l-265 -254v-489h-188v1454h188v-737l791 766l119 -117l-516 -496l579 -870h-215zM834 -150v-176l-117 -192h-99l107 192h-96v176h205z" />
    <glyph glyph-name="uni0136.ss01.ss02" horiz-adv-x="1347" 
d="M1114 0l-493 743l-265 -254v-489h-188v1454h188v-737l791 766l119 -117l-516 -496l579 -870h-215zM856 -287q0 -98 -65 -164.5t-166 -66.5v74q47 5 84.5 32t48.5 74q-28 -4 -35 -4q-51 0 -81 27t-30 71t33 73.5t78 29.5q58 0 95.5 -39.5t37.5 -106.5z" />
    <glyph glyph-name="uni0136.ss02" horiz-adv-x="1347" 
d="M1114 0l-498 750l-260 -269v-481h-188v1454h188v-743l709 743h235l-555 -573l584 -881h-215zM836 -287q0 -98 -65.5 -164.5t-166.5 -66.5v74q47 5 84.5 32t48.5 74q-28 -4 -35 -4q-51 0 -80.5 26.5t-29.5 71.5q0 44 32.5 73.5t77.5 29.5q59 0 96.5 -39.5t37.5 -106.5z
" />
    <glyph glyph-name="uni013B.ss02" horiz-adv-x="1116" 
d="M356 1454v-1294h705v-160h-893v1454h188zM752 -287q0 -98 -65.5 -164.5t-166.5 -66.5v74q47 5 84.5 32t48.5 74q-28 -4 -35 -4q-51 0 -80.5 26.5t-29.5 71.5q0 44 32.5 73.5t77.5 29.5q59 0 96.5 -39.5t37.5 -106.5z" />
    <glyph glyph-name="Ldot.ss02" horiz-adv-x="1091" 
d="M356 1454v-1294h705v-160h-893v1454h188zM641 754q0 51 38 89t89 38t89 -38t38 -89q0 -54 -37.5 -91.5t-89.5 -37.5t-89.5 37.5t-37.5 91.5z" />
    <glyph glyph-name="uni0145.ss02" horiz-adv-x="1499" 
d="M1147 1454h184v-1454h-209l-430 662q-209 313 -350 555q10 -332 10 -564v-653h-184v1454h211l436 -672l53 -82q229 -357 289 -460q-10 325 -10 551v663zM879 -287q0 -98 -65.5 -164.5t-166.5 -66.5v74q47 5 84.5 32t48.5 74q-28 -4 -35 -4q-51 0 -80.5 26.5t-29.5 71.5
q0 44 32.5 73.5t77.5 29.5q59 0 96.5 -39.5t37.5 -106.5z" />
    <glyph glyph-name="Odieresis.ss02" horiz-adv-x="1552" 
d="M1466 727q0 -163 -48.5 -302.5t-137 -241t-218.5 -159t-286 -57.5t-286 57.5t-218.5 159t-137 241t-48.5 302.5t48.5 302.5t137 241t218.5 159t286 57.5t286 -57.5t218.5 -159t137 -241t48.5 -302.5zM279 727q0 -263 138 -428.5t359 -165.5q223 0 360.5 165t137.5 429
q0 261 -137.5 427.5t-360.5 166.5q-220 0 -358.5 -166.5t-138.5 -427.5zM483 1735q0 45 33 77.5t80 32.5q45 0 79 -33t34 -77t-34.5 -78.5t-78.5 -34.5q-47 0 -80 33t-33 80zM848 1735q0 44 34 77t79 33q47 0 79.5 -32.5t32.5 -77.5q0 -47 -32.5 -80t-79.5 -33t-80 34
t-33 79z" />
    <glyph glyph-name="uni0156.ss02" horiz-adv-x="1368" 
d="M1300 0h-215l-389 584h-340v-584h-188v1454h610q209 0 340 -117.5t131 -316.5q0 -170 -93 -281.5t-255 -142.5zM356 1296v-555h392q148 0 231.5 72.5t83.5 206.5q0 132 -84.5 204t-233.5 72h-389zM815 -287q0 -98 -65 -164.5t-166 -66.5v74q47 5 84.5 32t48.5 74
q-28 -4 -35 -4q-51 0 -81 27t-30 71t33 73.5t78 29.5q58 0 95.5 -39.5t37.5 -106.5z" />
    <glyph glyph-name="uni0218.ss02" horiz-adv-x="1288" 
d="M1180 1272l-111 -131q-115 101 -214 141.5t-224 40.5q-149 0 -241.5 -66.5t-92.5 -171.5q0 -72 43 -118q41 -41 115.5 -67t240.5 -64q280 -64 392 -155t112 -263q0 -200 -150 -325.5t-386 -125.5q-175 0 -314 58t-299 194l113 133q154 -130 264 -176q110 -45 238 -45
q154 0 250 75.5t96 201.5q0 84 -47 131q-43 46 -125 75q-93 33 -234 64q-282 63 -387.5 148.5t-105.5 254.5q0 117 69.5 210t187.5 143.5t261 50.5q163 0 290 -50t259 -163zM766 -287q0 -98 -65 -164.5t-166 -66.5v74q47 5 84.5 32t48.5 74q-28 -4 -35 -4q-51 0 -81 27
t-30 71t33 73.5t78 29.5q58 0 95.5 -39.5t37.5 -106.5z" />
    <glyph glyph-name="uni021A.ss02" horiz-adv-x="1234" 
d="M1171 1454v-160h-458v-1294h-191v1294h-459v160h1108zM745 -287q0 -98 -65 -164.5t-166 -66.5v74q47 5 84.5 32t48.5 74q-28 -4 -35 -4q-51 0 -80.5 26.5t-29.5 71.5q0 44 32.5 73.5t77.5 29.5q58 0 95.5 -39.5t37.5 -106.5z" />
    <glyph glyph-name="Udieresis.ss02" horiz-adv-x="1409" 
d="M1253 1454v-991q0 -241 -139 -367.5t-409 -126.5q-269 0 -408 127t-139 367v991h188v-981q0 -166 91 -252t268 -86t267.5 86t90.5 252v981h190zM412 1735q0 45 32.5 77.5t79.5 32.5q45 0 79 -33t34 -77t-34.5 -78.5t-78.5 -34.5q-47 0 -79.5 33t-32.5 80zM776 1735
q0 44 34 77t79 33q47 0 79.5 -32.5t32.5 -77.5q0 -47 -32.5 -80t-79.5 -33t-80 34t-33 79z" />
    <glyph glyph-name="Wdieresis.ss02" horiz-adv-x="1923" 
d="M1671 1454h187l-351 -1454h-231l-178 668q-90 340 -135 542q-36 -175 -134 -544l-180 -666h-233l-353 1454h193l166 -700q55 -237 119 -559q84 349 141 559l190 700h191l186 -700q85 -329 137 -559q55 280 121 559zM670 1735q0 45 32.5 77.5t79.5 32.5q45 0 79 -33
t34 -77t-34.5 -78.5t-78.5 -34.5q-47 0 -79.5 33t-32.5 80zM1034 1735q0 44 34 77t79 33q47 0 80 -32.5t33 -77.5q0 -47 -33 -80t-80 -33t-80 34t-33 79z" />
    <glyph glyph-name="Ydieresis.ss02" horiz-adv-x="1277" 
d="M1042 1454h205l-516 -833v-621h-188v623l-512 831h209l401 -666zM346 1735q0 45 33 77.5t80 32.5q44 0 78 -33t34 -77t-34 -78.5t-78 -34.5q-47 0 -80 33t-33 80zM711 1735q0 44 34 77t78 33q47 0 80 -32.5t33 -77.5q0 -47 -33 -80t-80 -33q-46 0 -79 34t-33 79z" />
    <glyph glyph-name="Zdotaccent.ss02" horiz-adv-x="1275" 
d="M1190 1454v-151l-883 -1145h881v-158h-1104v152l883 1144h-844v158h1067zM549 1731q0 50 33 82t84 32q49 0 81.5 -33t32.5 -81t-32.5 -81.5t-81.5 -33.5q-50 0 -83.5 33.5t-33.5 81.5z" />
    <glyph glyph-name="adieresis.ss02" horiz-adv-x="1089" 
d="M954 700v-700h-159v125q-51 -76 -139.5 -117t-202.5 -41q-165 0 -263 72.5t-98 210.5q0 161 121 235q125 75 348 115l225 41v51q0 93 -64 146t-171 53q-92 0 -165 -38t-167 -132l-113 100q183 215 439 215q193 0 301 -91t108 -245zM786 377v133l-184 -37
q-77 -16 -123.5 -28t-90.5 -29t-67.5 -38t-38.5 -51t-18 -71q0 -69 54 -106t153 -37q137 0 226 72t89 192zM264 1317q0 45 33 77.5t80 32.5q44 0 78 -33t34 -77t-34 -78.5t-78 -34.5q-47 0 -80 33t-33 80zM629 1317q0 44 34 77t78 33q47 0 80 -32.5t33 -77.5q0 -47 -33 -80
t-80 -33q-46 0 -79 34t-33 79z" />
    <glyph glyph-name="cdotaccent.ss02" horiz-adv-x="1024" 
d="M563 889q-143 0 -225 -111.5t-82 -273.5q0 -158 80 -273q82 -110 229 -110q83 0 148.5 36t152.5 132l117 -99q-97 -120 -193 -169.5t-225 -49.5q-221 0 -355 146t-134 387q0 238 135.5 385t353.5 147q126 0 219.5 -43.5t184.5 -146.5l-115 -109q-78 84 -144.5 118
t-146.5 34zM444 1313q0 50 33 82t84 32q49 0 82 -33t33 -81t-33 -81.5t-82 -33.5q-50 0 -83.5 33.5t-33.5 81.5z" />
    <glyph glyph-name="edieresis.ss02" horiz-adv-x="1093" 
d="M909 287l105 -107q-107 -114 -208.5 -161.5t-230.5 -47.5q-226 0 -362.5 145t-136.5 382q0 238 132 388t349 150q214 0 334.5 -129t120.5 -356q0 -28 -4 -78h-756q8 -159 92.5 -256.5t233.5 -97.5q94 0 161 37q67 36 170 131zM256 604h582q-6 135 -80.5 213t-202.5 78
q-123 0 -201 -76t-98 -215zM285 1317q0 45 32.5 77.5t79.5 32.5q45 0 79 -33t34 -77t-34.5 -78.5t-78.5 -34.5q-47 0 -79.5 33t-32.5 80zM649 1317q0 44 34 77t79 33q47 0 79.5 -32.5t32.5 -77.5q0 -47 -32.5 -80t-79.5 -33t-80 34t-33 79z" />
    <glyph glyph-name="edotaccent.ss02" horiz-adv-x="1093" 
d="M909 287l105 -107q-107 -114 -208.5 -161.5t-230.5 -47.5q-226 0 -362.5 145t-136.5 382q0 238 132 388t349 150q214 0 334.5 -129t120.5 -356q0 -28 -4 -78h-756q8 -159 92.5 -256.5t233.5 -97.5q94 0 161 37q67 36 170 131zM256 604h582q-6 135 -80.5 213t-202.5 78
q-123 0 -201 -76t-98 -215zM461 1313q0 50 33 82t84 32q49 0 81.5 -33t32.5 -81t-32.5 -81.5t-81.5 -33.5q-50 0 -83.5 33.5t-33.5 81.5z" />
    <glyph glyph-name="uni0123.ss02" horiz-adv-x="1157" 
d="M856 1008h164v-985q0 -195 -123 -306.5t-334 -111.5q-247 0 -457 149l89 129q111 -69 192 -99t174 -30q133 0 209 70.5t76 212.5v137q-107 -162 -322 -162q-193 0 -317.5 144.5t-124.5 367.5t124.5 367.5t317.5 144.5q224 0 332 -178v150zM850 524q0 161 -82 262
t-215 101q-134 0 -212.5 -100t-78.5 -263t78.5 -262.5t212.5 -99.5q133 0 215 101t82 261zM700 1305q0 -44 -32.5 -74.5t-79.5 -30.5q-57 0 -94 40t-37 108q0 98 65 164t166 65v-72q-47 -5 -86 -33.5t-49 -74.5q15 6 37 6q51 0 80.5 -26.5t29.5 -71.5z" />
    <glyph glyph-name="gdotaccent.ss02" horiz-adv-x="1157" 
d="M856 1008h164v-985q0 -195 -123 -306.5t-334 -111.5q-247 0 -457 149l89 129q111 -69 192 -99t174 -30q133 0 209 70.5t76 212.5v137q-107 -162 -322 -162q-193 0 -317.5 144.5t-124.5 367.5t124.5 367.5t317.5 144.5q224 0 332 -178v150zM850 524q0 161 -82 262
t-215 101q-134 0 -212.5 -100t-78.5 -263t78.5 -262.5t212.5 -99.5q133 0 215 101t82 261zM465 1313q0 50 33 82t84 32q49 0 81.5 -33t32.5 -81t-32.5 -81.5t-81.5 -33.5q-50 0 -83.5 33.5t-33.5 81.5z" />
    <glyph glyph-name="i.ss02" horiz-adv-x="450" 
d="M313 1008v-1008h-176v1008h176zM111 1313q0 50 32.5 82t83.5 32q49 0 82 -33t33 -81t-33 -81.5t-82 -33.5q-50 0 -83 33.5t-33 81.5z" />
    <glyph glyph-name="idieresis.ss02" horiz-adv-x="450" 
d="M313 1008v-1008h-176v1008h176zM-68 1317q0 45 33 77.5t80 32.5q45 0 79 -33t34 -77t-34.5 -78.5t-78.5 -34.5q-47 0 -80 33t-33 80zM297 1317q0 44 34 77t79 33q47 0 79.5 -32.5t32.5 -77.5q0 -47 -32.5 -80t-79.5 -33t-80 34t-33 79z" />
    <glyph glyph-name="i.loclTRK" horiz-adv-x="450" 
d="M313 1008v-1008h-176v1008h176zM313 1417v-211h-176v211h176z" />
    <glyph glyph-name="i.loclTRK.ss02" horiz-adv-x="450" 
d="M313 1008v-1008h-176v1008h176zM111 1313q0 50 32.5 82t83.5 32q49 0 82 -33t33 -81t-33 -81.5t-82 -33.5q-50 0 -83 33.5t-33 81.5z" />
    <glyph glyph-name="ij.ss02" horiz-adv-x="909" 
d="M313 1008v-1008h-176v1008h176zM111 1313q0 50 32.5 82t83.5 32q49 0 82 -33t33 -81t-33 -81.5t-82 -33.5q-50 0 -83 33.5t-33 81.5zM465 -248q71 0 100 40t29 130v1086h176v-1086q0 -315 -285 -315q-92 0 -194 31l35 135q76 -21 139 -21zM567 1313q0 50 33 82t84 32
q49 0 82 -33t33 -81t-33 -81.5t-82 -33.5q-50 0 -83.5 33.5t-33.5 81.5z" />
    <glyph glyph-name="iogonek.ss02" horiz-adv-x="450" 
d="M111 1313q0 48 32.5 81t81.5 33q51 0 84 -32t33 -82q0 -48 -33.5 -81.5t-83.5 -33.5q-49 0 -81.5 33.5t-32.5 81.5zM137 0v1008h176v-1008q-163 -114 -163 -225q0 -86 104 -86q34 0 55 6v-111q-27 -12 -80 -12q-95 0 -150.5 45.5t-55.5 126.5q0 136 147 256h-33z" />
    <glyph glyph-name="j.calt" horiz-adv-x="454" 
d="M141 1206v211h176v-211h-176zM-35 -383l19 137q36 -4 59 -4q55 0 76.5 29.5t21.5 97.5v1131h176v-1139q0 -136 -57 -199t-186 -63q-57 0 -109 10z" />
    <glyph glyph-name="j.calt.ss02" horiz-adv-x="458" 
d="M115 1313q0 48 33.5 81t82.5 33t83 -33.5t34 -80.5q0 -48 -34 -81.5t-83 -33.5t-82.5 33.5t-33.5 81.5zM-35 -383l19 137q36 -4 59 -4q55 0 76.5 29.5t21.5 97.5v1131h176v-1139q0 -136 -57 -199t-186 -63q-47 0 -109 10z" />
    <glyph glyph-name="j.ss02" horiz-adv-x="458" 
d="M14 -248q71 0 100 40t29 130v1086h176v-1086q0 -315 -284 -315q-93 0 -195 31l35 135q77 -21 139 -21zM117 1313q0 50 32.5 82t83.5 32q49 0 82 -33t33 -81t-33 -81.5t-82 -33.5q-50 0 -83 33.5t-33 81.5z" />
    <glyph glyph-name="k.ss01" horiz-adv-x="1040" 
d="M834 0l-316 473l-201 -190v-283h-180v1454h180v-967l562 541l108 -108l-350 -332l391 -588h-194z" />
    <glyph glyph-name="uni0137.ss01" horiz-adv-x="1040" 
d="M834 0l-316 473l-201 -190v-283h-180v1454h180v-967l562 541l108 -108l-350 -332l391 -588h-194zM668 -150v-176l-117 -192h-98l106 192h-96v176h205z" />
    <glyph glyph-name="uni0137.ss01.ss02" horiz-adv-x="1040" 
d="M834 0l-316 473l-201 -190v-283h-180v1454h180v-967l562 541l108 -108l-350 -332l391 -588h-194zM690 -287q0 -98 -65 -164.5t-166 -66.5v74q47 5 84.5 32t48.5 74q-28 -4 -35 -4q-51 0 -81 27t-30 71t33 73.5t78 29.5q58 0 95.5 -39.5t37.5 -106.5z" />
    <glyph glyph-name="uni0137.ss02" horiz-adv-x="1040" 
d="M831 0l-335 506l-183 -182v-324h-176v1454h176v-936l469 490h215l-383 -390l414 -618h-197zM682 -287q0 -98 -65 -164.5t-166 -66.5v74q47 5 84.5 32t48.5 74q-28 -4 -35 -4q-51 0 -81 27t-30 71t33 73.5t78 29.5q58 0 95.5 -39.5t37.5 -106.5z" />
    <glyph glyph-name="uni013C.ss02" horiz-adv-x="462" 
d="M319 1454v-1454h-176v1454h176zM358 -287q0 -98 -65 -164.5t-166 -66.5v74q47 5 84.5 32t48.5 74q-28 -4 -35 -4q-51 0 -80.5 26.5t-29.5 71.5q0 44 32.5 73.5t77.5 29.5q58 0 95.5 -39.5t37.5 -106.5z" />
    <glyph glyph-name="ldot.ss02" horiz-adv-x="856" 
d="M319 1454v-1454h-176v1454h176zM522 633q0 51 38 89t89 38t89 -38t38 -89q0 -53 -38 -91t-89 -38t-89 38t-38 91z" />
    <glyph glyph-name="uni0146.ss02" horiz-adv-x="1116" 
d="M981 690v-690h-176v635q0 123 -59.5 187.5t-172.5 64.5q-108 0 -184 -76q-76 -73 -76 -186v-625h-176v1008h166v-129q49 77 131.5 117t186.5 40q172 0 266 -96t94 -250zM680 -287q0 -98 -65 -164.5t-166 -66.5v74q47 5 84.5 32t48.5 74q-28 -4 -35 -4q-51 0 -81 27
t-30 71t33 73.5t78 29.5q58 0 95.5 -39.5t37.5 -106.5z" />
    <glyph glyph-name="odieresis.ss02" horiz-adv-x="1148" 
d="M1073 504q0 -234 -139.5 -383.5t-358.5 -149.5q-220 0 -359.5 149t-139.5 384t139.5 383.5t359.5 148.5q219 0 358.5 -149t139.5 -383zM256 504q0 -173 87 -279t232 -106t231.5 106t86.5 279t-86.5 279t-231.5 106t-232 -106t-87 -279zM279 1317q0 45 32.5 77.5
t79.5 32.5q45 0 79 -33t34 -77t-34.5 -78.5t-78.5 -34.5q-47 0 -79.5 33t-32.5 80zM643 1317q0 44 34 77t79 33q47 0 79.5 -32.5t32.5 -77.5q0 -47 -32.5 -80t-79.5 -33t-80 34t-33 79z" />
    <glyph glyph-name="uni0157.ss02" horiz-adv-x="733" 
d="M713 989l-33 -147q-70 20 -131 20q-106 0 -171 -87t-65 -234v-541h-176v1008h166v-152q38 77 102 120.5t148 43.5q75 0 160 -31zM350 -287q0 -98 -65 -164.5t-166 -66.5v74q47 5 84.5 32t48.5 74q-28 -4 -35 -4q-51 0 -81 27t-30 71t33 73.5t78 29.5q58 0 95.5 -39.5
t37.5 -106.5z" />
    <glyph glyph-name="uni0219.ss02" horiz-adv-x="980" 
d="M895 889l-96 -119q-92 71 -161 97t-157 26q-99 0 -160 -42t-61 -108q9 -64 53.5 -87t216.5 -62q209 -48 295 -115.5t86 -193.5q0 -141 -110 -227.5t-293 -86.5q-136 0 -241.5 42.5t-223.5 146.5l104 114q109 -89 189 -124q76 -33 174 -33q101 0 165 43t64 116
q0 71 -62 106.5t-220 70.5q-216 48 -289.5 103t-77.5 181q0 132 109 215.5t282 83.5q124 0 219 -33.5t195 -113.5zM604 -287q0 -98 -65 -164.5t-166 -66.5v74q47 5 84.5 32t48.5 74q-28 -4 -35 -4q-51 0 -81 27t-30 71t33 73.5t78 29.5q58 0 95.5 -39.5t37.5 -106.5z" />
    <glyph glyph-name="uni021B.ss02" horiz-adv-x="729" 
d="M666 156l26 -140q-93 -34 -207 -34q-137 0 -198.5 62t-61.5 189v641h-188v134h188v338h176v-338h273v-134h-273v-620q0 -67 27.5 -95t91.5 -28q54 0 146 25zM582 -287q0 -98 -65.5 -164.5t-166.5 -66.5v74q47 5 84.5 32t48.5 74q-28 -4 -34 -4q-51 0 -81 27t-30 71
t33 73.5t78 29.5q58 0 95.5 -39.5t37.5 -106.5z" />
    <glyph glyph-name="udieresis.ss02" horiz-adv-x="1099" 
d="M786 1008h177v-1008h-164v125q-44 -74 -123.5 -114t-181.5 -40q-178 0 -268.5 88.5t-90.5 241.5v707h176v-664q0 -108 54 -164.5t157 -56.5q120 0 192 71t72 199v615zM240 1317q0 45 32.5 77.5t79.5 32.5q45 0 79 -33t34 -77t-34.5 -78.5t-78.5 -34.5q-47 0 -79.5 33
t-32.5 80zM604 1317q0 44 34 77t79 33q47 0 79.5 -32.5t32.5 -77.5q0 -47 -32.5 -80t-79.5 -33t-80 34t-33 79z" />
    <glyph glyph-name="wdieresis.ss02" horiz-adv-x="1505" 
d="M1282 1008h180l-282 -1008h-213l-95 322q-69 244 -122 475q-60 -251 -123 -478l-88 -319h-213l-283 1008h182l101 -377q28 -104 114 -477q55 230 123 477l107 377h166l106 -377q75 -265 123 -481q60 263 117 481zM459 1317q0 45 32.5 77.5t79.5 32.5q45 0 79 -33t34 -77
t-34.5 -78.5t-78.5 -34.5q-47 0 -79.5 33t-32.5 80zM823 1317q0 44 34 77t79 33q47 0 80 -32.5t33 -77.5q0 -47 -33 -80t-80 -33t-80 34t-33 79z" />
    <glyph glyph-name="ydieresis.ss02" horiz-adv-x="991" 
d="M776 1008h178l-403 -1147q-51 -143 -115 -199.5t-188 -56.5q-89 0 -156 20l31 135q55 -12 108 -12q63 0 101.5 35t68.5 125l13 39l-379 1061h186l113 -334q14 -41 149 -447l17 -51l61 186l103 316zM201 1317q0 45 32.5 77.5t79.5 32.5q45 0 79 -33t34 -77t-34.5 -78.5
t-78.5 -34.5q-47 0 -79.5 33t-32.5 80zM565 1317q0 44 34 77t79 33q47 0 80 -32.5t33 -77.5q0 -47 -33 -80t-80 -33t-80 34t-33 79z" />
    <glyph glyph-name="zdotaccent.ss02" horiz-adv-x="978" 
d="M889 1008v-129l-592 -734h592v-145h-811v131l596 733h-559v144h774zM377 1313q0 50 33 82t84 32q49 0 81.5 -33t32.5 -81t-32.5 -81.5t-81.5 -33.5q-50 0 -83.5 33.5t-33.5 81.5z" />
    <glyph glyph-name="f_f_i.liga.ss02" horiz-adv-x="1785" 
d="M399 1149v-141h209v-134h-209v-874h-176v874h-186v134h186v159q0 150 78 231t225 81q96 0 203 -35l-35 -135q-80 22 -139 22q-85 0 -120.5 -42t-35.5 -140zM1174 1479q68 0 163 -25l-26 -135q-71 12 -107 12q-84 0 -117.5 -41.5t-33.5 -142.5v-139h252v-134h-252v-874
h-176v874h-168v134h168v159q0 149 77.5 230.5t219.5 81.5zM1444 1313q0 47 34 79.5t83 32.5t82.5 -32.5t33.5 -79.5q0 -50 -33.5 -83.5t-82.5 -33.5t-83 34t-34 83zM1473 0v1008h176v-1008h-176z" />
    <glyph glyph-name="f_f_j.liga.ss02" horiz-adv-x="1785" 
d="M399 1149v-141h209v-134h-209v-874h-176v874h-186v134h186v159q0 150 78 231t225 81q96 0 203 -35l-35 -135q-80 22 -139 22q-85 0 -120.5 -42t-35.5 -140zM1305 874h-252v-874h-176v874h-168v134h168v159q0 149 77.5 230.5t219.5 81.5q68 0 163 -25l-26 -135
q-71 12 -107 12q-84 0 -117.5 -41.5t-33.5 -142.5v-139h252v-134zM1444 1313q0 47 34 79.5t83 32.5t82.5 -32.5t33.5 -79.5q0 -50 -33.5 -83.5t-82.5 -33.5t-83 34t-34 83zM1473 -78v1086h176v-1086q0 -315 -285 -315q-92 0 -197 31l37 135q76 -21 139 -21q71 0 100.5 40.5
t29.5 129.5z" />
    <glyph glyph-name="f_j.liga.ss02" horiz-adv-x="1132" 
d="M651 874h-252v-874h-176v874h-186v134h186v159q0 150 77 231t222 81q67 0 162 -25l-27 -135q-70 12 -106 12q-84 0 -118 -41.5t-34 -142.5v-139h252v-134zM791 1313q0 47 33.5 79.5t82.5 32.5t82 -32.5t33 -79.5q0 -50 -33 -83.5t-82 -33.5t-82.5 33.5t-33.5 83.5z
M819 -78v1086h176v-1086q0 -315 -284 -315q-95 0 -197 31l37 135q77 -21 139 -21q71 0 100 40t29 130z" />
    <glyph glyph-name="fi.ss02" horiz-adv-x="1132" 
d="M522 1479q67 0 162 -25l-27 -135q-70 12 -106 12q-84 0 -118 -41.5t-34 -142.5v-139h252v-134h-252v-874h-176v874h-186v134h186v159q0 150 77 231t222 81zM791 1313q0 47 33.5 79.5t82.5 32.5t83 -32.5t34 -79.5q0 -49 -34 -83t-83 -34t-82.5 33.5t-33.5 83.5zM819 0
v1008h176v-1008h-176z" />
    <glyph glyph-name="uni0401.ss02" horiz-adv-x="1247" 
d="M1135 1454v-158h-779v-469h725v-157h-725v-512h797v-158h-985v1454h967zM362 1735q0 45 33 77.5t80 32.5q45 0 79 -33t34 -77t-34.5 -78.5t-78.5 -34.5q-47 0 -80 33t-33 80zM727 1735q0 44 34 77t79 33q47 0 79.5 -32.5t32.5 -77.5q0 -47 -32.5 -80t-79.5 -33t-80 34
t-33 79z" />
    <glyph glyph-name="uni0407.ss02" horiz-adv-x="552" 
d="M371 1454v-1454h-189v1454h189zM-16 1735q0 45 32.5 77.5t79.5 32.5q45 0 79 -33t34 -77t-34.5 -78.5t-78.5 -34.5q-47 0 -79.5 33t-32.5 80zM348 1735q0 44 34 77t79 33q47 0 79.5 -32.5t32.5 -77.5q0 -47 -32.5 -80t-79.5 -33t-80 34t-33 79z" />
    <glyph glyph-name="uni0451.ss02" horiz-adv-x="1093" 
d="M909 287l105 -107q-107 -114 -208.5 -161.5t-230.5 -47.5q-226 0 -362.5 145t-136.5 382q0 238 132 388t349 150q214 0 334.5 -129t120.5 -356q0 -28 -4 -78h-756q8 -159 92.5 -256.5t233.5 -97.5q94 0 161 37q67 36 170 131zM256 604h582q-6 135 -80.5 213t-202.5 78
q-123 0 -201 -76t-98 -215zM285 1317q0 45 32.5 77.5t79.5 32.5q45 0 79 -33t34 -77t-34.5 -78.5t-78.5 -34.5q-47 0 -79.5 33t-32.5 80zM649 1317q0 44 34 77t79 33q47 0 79.5 -32.5t32.5 -77.5q0 -47 -32.5 -80t-79.5 -33t-80 34t-33 79z" />
    <glyph glyph-name="uni0456.ss02" horiz-adv-x="450" 
d="M313 1008v-1008h-176v1008h176zM111 1313q0 50 32.5 82t83.5 32q49 0 82 -33t33 -81t-33 -81.5t-82 -33.5q-50 0 -83 33.5t-33 81.5z" />
    <glyph glyph-name="uni0457.ss02" horiz-adv-x="450" 
d="M313 1008v-1008h-176v1008h176zM-68 1317q0 45 33 77.5t80 32.5q45 0 79 -33t34 -77t-34.5 -78.5t-78.5 -34.5q-47 0 -80 33t-33 80zM297 1317q0 44 34 77t79 33q47 0 79.5 -32.5t32.5 -77.5q0 -47 -32.5 -80t-79.5 -33t-80 34t-33 79z" />
    <glyph glyph-name="uni0458.ss02" horiz-adv-x="458" 
d="M14 -248q71 0 100 40t29 130v1086h176v-1086q0 -315 -284 -315q-93 0 -195 31l35 135q77 -21 139 -21zM117 1313q0 50 32.5 82t83.5 32q49 0 82 -33t33 -81t-33 -81.5t-82 -33.5q-50 0 -83 33.5t-33 81.5z" />
    <glyph glyph-name="Iotadieresis.ss02" horiz-adv-x="552" 
d="M371 1454v-1454h-189v1454h189zM-16 1735q0 45 32.5 77.5t79.5 32.5q45 0 79 -33t34 -77t-34.5 -78.5t-78.5 -34.5q-47 0 -79.5 33t-32.5 80zM348 1735q0 44 34 77t79 33q47 0 79.5 -32.5t32.5 -77.5q0 -47 -32.5 -80t-79.5 -33t-80 34t-33 79z" />
    <glyph glyph-name="Upsilondieresis.ss02" horiz-adv-x="1277" 
d="M1042 1454h205l-516 -833v-621h-188v623l-512 831h209l401 -666zM346 1735q0 45 33 77.5t80 32.5q44 0 78 -33t34 -77t-34 -78.5t-78 -34.5q-47 0 -80 33t-33 80zM711 1735q0 44 34 77t78 33q47 0 80 -32.5t33 -77.5q0 -47 -33 -80t-80 -33q-46 0 -79 34t-33 79z" />
    <glyph glyph-name="iotadieresis.ss02" horiz-adv-x="452" 
d="M315 0h-178v1008h178v-1008zM-68 1317q0 45 33 77.5t80 32.5q45 0 79 -33t34 -77t-34.5 -78.5t-78.5 -34.5q-47 0 -80 33t-33 80zM297 1317q0 44 34 77t79 33q47 0 79.5 -32.5t32.5 -77.5q0 -47 -32.5 -80t-79.5 -33t-80 34t-33 79z" />
    <glyph glyph-name="iotadieresistonos.ss02" horiz-adv-x="452" 
d="M315 0h-178v1008h178v-1008zM147 1206l52 260h182l-98 -260h-136zM-94 1303q0 42 30.5 71t73.5 29t75 -29t32 -71t-32 -72.5t-75 -30.5t-73.5 30t-30.5 73zM377 1303q0 42 31.5 71t74.5 29t74 -29t31 -71q0 -43 -31 -73t-74 -30t-74.5 30.5t-31.5 72.5z" />
    <glyph glyph-name="upsilondieresistonos.ss02" horiz-adv-x="1095" 
d="M133 389v619h178v-609q0 -138 56 -208t180 -70q125 0 181 70t56 208v609h179v-619q0 -199 -104 -308.5t-310 -109.5q-207 0 -311.5 109.5t-104.5 308.5zM469 1206l51 260h182l-98 -260h-135zM227 1303q0 42 31 71t74 29t74.5 -29t31.5 -71t-31.5 -72.5t-74.5 -30.5
t-74 30t-31 73zM698 1303q0 42 32 71t75 29t73.5 -29t30.5 -71q0 -43 -30.5 -73t-73.5 -30t-75 30.5t-32 72.5z" />
    <glyph glyph-name="zero.case" horiz-adv-x="1228" 
d="M1047 1219q100 -196 100 -492q0 -293 -100 -489q-67 -131 -177 -201t-256 -70t-255.5 70t-176.5 201q-100 196 -100 489q0 296 100 492q139 268 432 268q294 0 433 -268zM342 1141q-76 -155 -76 -414q0 -257 76 -412q88 -192 272 -192q185 0 273 192q76 155 76 412
q0 259 -76 414q-88 190 -273 190q-184 0 -272 -190z" />
    <glyph glyph-name="zero.pcnt" horiz-adv-x="868" 
d="M752 1090q0 -143 -91.5 -235.5t-226.5 -92.5t-226 92.5t-91 235.5q0 141 91 233t226 92t226.5 -92t91.5 -233zM252 1090q0 -93 49 -151t133 -58t133 58t49 151q0 91 -50.5 148.5t-131.5 57.5t-131.5 -57.5t-50.5 -148.5z" />
    <glyph glyph-name="zero.tf" 
d="M1028 1167q98 -189 98 -471t-98 -471q-64 -125 -171.5 -191.5t-252.5 -66.5t-252.5 66.5t-171.5 191.5q-98 189 -98 471t98 471q64 125 171.5 191.5t252.5 66.5t252.5 -66.5t171.5 -191.5zM340 1090q-74 -151 -74 -394q0 -242 74 -393q85 -180 264 -180t264 180
q74 151 74 393q0 243 -74 394q-85 180 -264 180t-264 -180z" />
    <glyph glyph-name="zero.zero" 
d="M1126 696q0 -282 -98 -471q-64 -125 -171.5 -191.5t-252.5 -66.5t-252.5 66.5t-171.5 191.5q-98 189 -98 471t98 471q64 125 171.5 191.5t252.5 66.5t252.5 -66.5t171.5 -191.5q98 -189 98 -471zM266 696q0 -205 56 -350l489 832q-80 92 -207 92q-179 0 -264 -180
q-74 -151 -74 -394zM942 696q0 220 -57 357l-494 -832q82 -98 213 -98q179 0 264 180q74 151 74 393z" />
    <glyph glyph-name="one.case" horiz-adv-x="958" 
d="M518 1454h137v-1454h-180v1225l-315 -224l-90 125z" />
    <glyph glyph-name="one.tf" 
d="M760 141h338v-141h-879v141h359v1022l-312 -221l-90 125l447 326h137v-1252z" />
    <glyph glyph-name="two.case" horiz-adv-x="1191" 
d="M270 154h834v-154h-1016v68q0 151 53 254q49 98 138 174q74 63 231 161l108 64q94 53 164 102q136 98 136 248q0 121 -80.5 189.5t-206.5 68.5q-85 0 -151 -28.5t-121 -80.5t-140 -155l-133 94q119 168 247.5 247t293.5 79q209 0 340 -116t131 -292q0 -126 -51 -209
q-49 -85 -125 -143q-62 -49 -203 -133l-103 -62q-145 -91 -186 -122q-141 -101 -160 -254z" />
    <glyph glyph-name="two.tf" 
d="M285 154h811v-154h-996v68q0 138 54 243q55 101 135 166q101 79 229 156l103 59q107 61 157 96q131 95 131 238q0 114 -75.5 179t-194.5 65t-207 -58q-90 -59 -196 -192l-134 94q108 157 237 234t296 77q204 0 330.5 -111.5t126.5 -281.5q0 -120 -50 -203
q-49 -82 -122 -137q-63 -50 -199 -129l-96 -57l-39 -23q-105 -63 -158 -102q-124 -92 -143 -227z" />
    <glyph glyph-name="three.case" horiz-adv-x="1198" 
d="M1094 442q0 -90 -34 -174t-96.5 -151.5t-160.5 -108.5t-215 -41q-140 0 -266.5 43t-266.5 137l92 134q134 -87 232 -122.5t203 -35.5q147 0 238 89.5t91 227.5q0 137 -90 213t-258 76q-103 0 -170 -27l-84 115l520 483h-700v154h924v-149l-469 -437q6 2 26 2
q215 0 349.5 -113.5t134.5 -314.5z" />
    <glyph glyph-name="three.tf" 
d="M1071 422q0 -85 -33 -166t-93.5 -145.5t-155.5 -104t-209 -39.5q-137 0 -259.5 40.5t-257.5 131.5l93 133q130 -82 222.5 -115.5t194.5 -33.5q141 0 228.5 83.5t87.5 213.5q0 128 -87.5 201t-246.5 73q-104 0 -166 -26l-84 114l500 457h-672v154h897v-150l-450 -409h26
q202 0 333.5 -111t131.5 -301z" />
    <glyph glyph-name="four.case" 
d="M961 492h217v-150h-217v-342h-177v342h-729v164l598 948h203l-606 -962h534v335h177v-335z" />
    <glyph glyph-name="four.tf" 
d="M963 475h208v-149h-208v-326h-177v326h-706v163l577 904h201l-586 -918h514v318h177v-318z" />
    <glyph glyph-name="five.case" horiz-adv-x="1222" 
d="M1118 475q0 -134 -62 -248.5t-179.5 -186t-266.5 -71.5q-156 0 -272 43q-119 44 -270 148l92 133q142 -95 231 -133q90 -37 203 -37q155 0 248.5 99t93.5 249q0 148 -85.5 231.5t-238.5 83.5q-178 0 -297 -116l-157 16l63 768h832v-154h-678l-37 -458q119 98 307 98
q212 0 342.5 -130.5t130.5 -334.5z" />
    <glyph glyph-name="five.tf" 
d="M1100 455q0 -129 -61 -240t-176 -179.5t-259 -68.5q-149 0 -264 41q-105 37 -262 144l90 133q144 -95 225 -127q90 -35 195 -35q147 0 238.5 92.5t91.5 230.5t-83 220t-229 82q-170 0 -284 -111l-158 16l61 740h809v-154h-655l-35 -432q118 92 295 92q206 0 333.5 -124.5
t127.5 -319.5z" />
    <glyph glyph-name="six.case" horiz-adv-x="1228" 
d="M1151 465q0 -132 -61.5 -244t-182 -182t-276.5 -70q-123 0 -223.5 43t-167 118.5t-102.5 179.5t-36 225q0 152 53 292t147 263.5t243 263.5l104 100h240v-2l-201 -186q-280 -256 -369 -459q128 147 347 147q143 0 255 -67t171 -178t59 -244zM969 463q0 150 -89 244
t-241 94q-156 0 -253 -95.5t-97 -242.5t94.5 -243.5t247.5 -96.5t245.5 95t92.5 245z" />
    <glyph glyph-name="six.tf" 
d="M1126 444q0 -127 -59.5 -234.5t-176 -174t-267.5 -66.5q-158 0 -276 71t-178 193.5t-60 278.5q0 212 106.5 398.5t321.5 387.5l100 95h242v-2l-222 -203q-229 -207 -321 -402q119 125 326 125q138 0 245 -64t163 -170t56 -233zM944 442q0 139 -85 228.5t-228 89.5
q-152 0 -244 -89.5t-92 -228.5q0 -136 90 -229q90 -90 238 -90q146 0 233.5 89t87.5 230z" />
    <glyph glyph-name="seven.case" horiz-adv-x="1110" 
d="M43 1454h1026v-131q-213 -267 -373 -616q-164 -354 -213 -707h-198q47 336 209 682q165 357 368 621h-819v151z" />
    <glyph glyph-name="seven.tf" 
d="M92 1393h1000v-131q-206 -256 -363 -590q-159 -341 -205 -672h-196q44 316 198 643q153 328 357 598h-791v152z" />
    <glyph glyph-name="eight.case" horiz-adv-x="1226" 
d="M1151 397q0 -188 -146.5 -310t-392.5 -122q-245 0 -390.5 121.5t-145.5 310.5q0 134 72.5 236t203.5 153q-94 45 -148 128t-54 188q0 170 128.5 276.5t333.5 106.5q207 0 336 -106.5t129 -276.5q0 -106 -54 -189t-151 -127q133 -51 206 -152.5t73 -236.5zM324 1100
q0 -110 79.5 -179t208.5 -69t210 69t81 179q0 107 -79.5 173t-211.5 66q-130 0 -209 -66.5t-79 -172.5zM967 408q0 135 -96 217t-259 82q-160 0 -256 -82.5t-96 -216.5q0 -129 95 -209t257 -80t258.5 80t96.5 209z" />
    <glyph glyph-name="eight.tf" 
d="M1126 383q0 -181 -142.5 -298.5t-381.5 -117.5q-238 0 -380 117.5t-142 298.5q0 131 69.5 228.5t196.5 144.5q-93 45 -143.5 123t-50.5 180q0 163 124.5 264.5t325.5 101.5q202 0 327.5 -101.5t125.5 -264.5q0 -102 -52 -180t-145 -123q129 -49 198.5 -146.5t69.5 -226.5
zM326 1055q0 -103 76.5 -168.5t199.5 -65.5q124 0 201.5 65.5t77.5 168.5q0 100 -76 162.5t-203 62.5q-124 0 -200 -62.5t-76 -162.5zM942 393q0 129 -91.5 207t-248.5 78q-154 0 -246 -78.5t-92 -206.5q0 -120 92.5 -197t245.5 -77q156 0 248 76.5t92 197.5z" />
    <glyph glyph-name="nine.case" horiz-adv-x="1226" 
d="M1124 922q0 -151 -52.5 -290t-145.5 -262t-244 -268l-104 -102h-240v2l203 186q280 262 368 463q-118 -149 -348 -149q-144 0 -256 67t-170.5 177t-58.5 243q0 132 61.5 244t182 182t276.5 70q247 0 387.5 -156.5t140.5 -406.5zM938 991q0 148 -94.5 244t-247.5 96
t-245.5 -95t-92.5 -245q0 -147 88 -241q91 -97 242 -97q155 0 252.5 97t97.5 241z" />
    <glyph glyph-name="nine.tf" 
d="M1100 881q0 -212 -106.5 -399t-321.5 -388l-101 -94h-239v2l221 203q230 208 321 401q-119 -125 -327 -125q-137 0 -244.5 64.5t-164 170.5t-56.5 232q0 94 35.5 180t99.5 151.5t160 104.5t209 39q158 0 276 -71t178 -193t60 -278zM913 950q0 138 -90 228q-89 92 -237 92
q-146 0 -234 -89.5t-88 -230.5q0 -139 86 -228t230 -89q151 0 241 90q92 89 92 227z" />
    <glyph glyph-name="zero.dnom" horiz-adv-x="817" 
d="M70 418q0 199 88.5 318.5t249.5 119.5q158 0 246.5 -119.5t88.5 -318.5t-88.5 -318.5t-246.5 -119.5q-161 0 -249.5 119.5t-88.5 318.5zM596 418q0 147 -49 230t-139 83t-140.5 -83t-50.5 -230t50.5 -230.5t140.5 -83.5t139 83t49 231z" />
    <glyph glyph-name="one.dnom" horiz-adv-x="651" 
d="M338 836h108v-836h-141v662l-153 -113l-72 98z" />
    <glyph glyph-name="two.dnom" horiz-adv-x="813" 
d="M233 121h496v-121h-643v57q0 118 63 194t203 150l54 29q103 52 141.5 87t38.5 91q0 59 -44 91t-120 32q-115 0 -242 -113l-82 95q152 143 326 143q139 0 223 -68.5t84 -173.5q0 -68 -31 -122q-29 -47 -73.5 -79.5t-137.5 -80.5l-57 -31q-93 -53 -145 -92q-46 -36 -54 -88
z" />
    <glyph glyph-name="three.dnom" horiz-adv-x="804" 
d="M715 254q0 -112 -86 -193t-232 -81q-88 0 -164.5 23.5t-171.5 82.5l72 102q82 -48 140 -66t122 -18q79 0 126.5 41.5t47.5 108.5q0 66 -50 104.5t-138 38.5q-75 0 -107 -14l-63 88l297 244h-408v121h584v-119l-264 -215h8q126 0 206.5 -67.5t80.5 -180.5z" />
    <glyph glyph-name="four.dnom" horiz-adv-x="811" 
d="M633 305h117v-117h-117v-188h-141v188h-424v134l344 514h155l-354 -531h279v176h141v-176z" />
    <glyph glyph-name="five.dnom" horiz-adv-x="808" 
d="M737 279q0 -132 -90.5 -215.5t-238.5 -83.5q-88 0 -167 25t-175 85l71 105q88 -51 144 -71t122 -20q82 0 134.5 47t52.5 119q0 74 -45.5 115t-132.5 41q-106 0 -181 -66l-112 13l41 463h536v-121h-420l-22 -230q77 62 199 62q127 0 205.5 -76.5t78.5 -191.5z" />
    <glyph glyph-name="six.dnom" horiz-adv-x="815" 
d="M743 276q0 -120 -92 -208t-239 -88q-158 0 -248 93.5t-90 250.5q0 287 317 512h201v-2q-274 -176 -350 -351q75 78 207 78q130 0 212 -83t82 -202zM604 272q0 73 -50.5 120.5t-133.5 47.5q-86 0 -142.5 -48t-56.5 -120q0 -73 53 -120.5t138 -47.5q87 0 139.5 47t52.5 121
z" />
    <glyph glyph-name="seven.dnom" horiz-adv-x="757" 
d="M55 836h654v-111q-154 -172 -242 -358.5t-102 -366.5h-154q15 170 111 371q92 192 229 344h-496v121z" />
    <glyph glyph-name="eight.dnom" horiz-adv-x="819" 
d="M743 229q0 -111 -90 -180t-243 -69t-243.5 69.5t-90.5 179.5q0 76 42.5 132.5t119.5 82.5q-127 65 -127 189q0 99 82.5 162t216.5 63q133 0 216 -63.5t83 -161.5q0 -124 -127 -189q78 -29 119.5 -85t41.5 -130zM244 621q0 -54 47 -90.5t119 -36.5q73 0 118 35.5t45 91.5
q0 54 -45 88t-118 34t-119.5 -34t-46.5 -88zM598 240q0 67 -49.5 107t-138.5 40q-90 0 -140.5 -40t-50.5 -107q0 -63 51 -101.5t140 -38.5t138.5 38.5t49.5 101.5z" />
    <glyph glyph-name="nine.dnom" horiz-adv-x="813" 
d="M737 512q0 -288 -315 -512h-201v2q268 176 344 344q-78 -72 -200 -72q-133 0 -215 83t-82 202q0 121 92 209t239 88q159 0 248.5 -93.5t89.5 -250.5zM590 563q0 73 -53 120.5t-138 47.5q-86 0 -138 -47t-52 -121q0 -73 50.5 -120.5t133.5 -47.5q86 0 141.5 48t55.5 120z
" />
    <glyph glyph-name="zero.numr" horiz-adv-x="817" 
d="M70 975q0 199 88.5 318.5t249.5 119.5q158 0 246.5 -119.5t88.5 -318.5t-88.5 -318.5t-246.5 -119.5q-161 0 -249.5 119.5t-88.5 318.5zM596 975q0 147 -49 230t-139 83t-140.5 -83t-50.5 -230t50.5 -230t140.5 -83t139 83t49 230z" />
    <glyph glyph-name="one.numr" horiz-adv-x="651" 
d="M338 1393h108v-836h-141v662l-153 -113l-72 98z" />
    <glyph glyph-name="two.numr" horiz-adv-x="813" 
d="M233 678h496v-121h-643v57q0 118 63 194t203 150l54 29q103 52 141.5 87t38.5 91q0 59 -44 91t-120 32q-116 0 -242 -112l-82 94q152 143 326 143q139 0 223 -68.5t84 -173.5q0 -68 -31 -122q-29 -47 -73.5 -79.5t-137.5 -80.5l-57 -31q-93 -53 -145 -92q-46 -36 -54 -88
z" />
    <glyph glyph-name="three.numr" horiz-adv-x="804" 
d="M715 811q0 -112 -86 -193t-232 -81q-88 0 -164.5 23.5t-171.5 82.5l72 102q82 -48 140 -65.5t122 -17.5q79 0 126.5 41.5t47.5 107.5t-50 104.5t-138 38.5q-75 0 -107 -14l-63 88l297 244h-408v121h584v-119l-264 -215h8q126 0 206.5 -67.5t80.5 -180.5z" />
    <glyph glyph-name="four.numr" horiz-adv-x="811" 
d="M633 862h117v-117h-117v-188h-141v188h-424v134l344 514h155l-354 -531h279v176h141v-176z" />
    <glyph glyph-name="five.numr" horiz-adv-x="808" 
d="M737 836q0 -132 -90.5 -215.5t-238.5 -83.5q-88 0 -167 25t-175 85l71 105q87 -51 143.5 -70.5t122.5 -19.5q82 0 134.5 46.5t52.5 118.5q0 74 -45.5 115t-132.5 41q-107 0 -181 -65l-112 12l41 463h536v-121h-420l-22 -230q77 62 199 62q127 0 205.5 -76.5t78.5 -191.5z
" />
    <glyph glyph-name="six.numr" horiz-adv-x="815" 
d="M743 834q0 -121 -92 -209t-239 -88q-158 0 -248 93.5t-90 250.5q0 287 317 512h201v-2q-274 -176 -350 -351q75 78 207 78q130 0 212 -82.5t82 -201.5zM604 829q0 73 -50.5 120.5t-133.5 47.5q-86 0 -142.5 -48t-56.5 -120q0 -73 53 -120t138 -47q87 0 139.5 46.5
t52.5 120.5z" />
    <glyph glyph-name="seven.numr" horiz-adv-x="757" 
d="M55 1393h654v-111q-154 -172 -242 -358.5t-102 -366.5h-154q15 170 111 371q92 192 229 344h-496v121z" />
    <glyph glyph-name="eight.numr" horiz-adv-x="819" 
d="M743 793q0 -111 -90 -180.5t-243 -69.5t-243.5 69.5t-90.5 180.5q0 76 42.5 132.5t119.5 82.5q-127 65 -127 188q0 99 82.5 162t216.5 63q133 0 216 -63.5t83 -161.5q0 -123 -127 -188q78 -29 119.5 -85t41.5 -130zM244 1184q0 -54 47 -90.5t119 -36.5q73 0 118 35.5
t45 91.5q0 54 -45 88.5t-118 34.5t-119.5 -34.5t-46.5 -88.5zM598 803q0 67 -49.5 107t-138.5 40q-90 0 -140.5 -40t-50.5 -107q0 -63 51 -101t140 -38t138.5 38t49.5 101z" />
    <glyph glyph-name="nine.numr" horiz-adv-x="813" 
d="M737 1069q0 -288 -315 -512h-201v2q268 176 344 344q-78 -72 -200 -72q-133 0 -215 83t-82 202q0 121 92 209t239 88q159 0 248.5 -93.5t89.5 -250.5zM590 1120q0 73 -53 120.5t-138 47.5q-86 0 -138 -47t-52 -121q0 -73 50.5 -120.5t133.5 -47.5q86 0 141.5 48t55.5 120
z" />
    <glyph glyph-name="period.ss02" horiz-adv-x="446" 
d="M96 111q0 51 38 89t89 38t89 -38t38 -89q0 -53 -38 -91t-89 -38t-89 38t-38 91z" />
    <glyph glyph-name="comma.ss02" horiz-adv-x="446" 
d="M373 47q0 -117 -72.5 -213t-191.5 -102v86q53 6 98 54t55 118q-18 -6 -39 -6q-56 0 -91.5 35t-35.5 90q0 54 37.5 90.5t91.5 36.5q65 0 106.5 -50.5t41.5 -138.5z" />
    <glyph glyph-name="colon.ss02" horiz-adv-x="528" 
d="M137 893q0 51 38 89t89 38t89 -38t38 -89q0 -53 -37.5 -91t-89.5 -38t-89.5 38t-37.5 91zM137 111q0 51 38 89t89 38t89 -38t38 -89q0 -53 -37.5 -91t-89.5 -38t-89.5 38t-37.5 91z" />
    <glyph glyph-name="semicolon.ss02" horiz-adv-x="528" 
d="M137 893q0 51 38 89t89 38t89 -38t38 -89q0 -53 -37.5 -91t-89.5 -38t-89.5 38t-37.5 91zM414 47q0 -117 -72.5 -213t-191.5 -102v86q53 6 98 54t55 118q-18 -6 -39 -6q-56 0 -91.5 35t-35.5 90q0 54 37.5 90.5t91.5 36.5q65 0 106.5 -50.5t41.5 -138.5z" />
    <glyph glyph-name="ellipsis.ss02" horiz-adv-x="1337" 
d="M117 111q0 51 38 89t89 38t89 -38t38 -89q0 -53 -37.5 -91t-89.5 -38t-89.5 38t-37.5 91zM541 111q0 51 37.5 89t91.5 38q51 0 88 -38t37 -89q0 -54 -37 -91.5t-88 -37.5q-54 0 -91.5 37.5t-37.5 91.5zM967 111q0 51 38 89t89 38t89 -38t38 -89q0 -53 -37.5 -91
t-89.5 -38t-89.5 38t-37.5 91z" />
    <glyph glyph-name="exclam.ss02" horiz-adv-x="559" 
d="M385 1454v-436l-41 -606h-108l-41 606v436h190zM162 111q0 51 38 89t89 38t89 -38t38 -89q0 -53 -38 -91t-89 -38t-89 38t-38 91z" />
    <glyph glyph-name="exclamdown.case" horiz-adv-x="542" 
d="M168 1233v221h209v-221h-209zM176 0v436l43 606h109l41 -606v-436h-193z" />
    <glyph glyph-name="exclamdown.case.ss02" horiz-adv-x="542" 
d="M401 1343q0 -51 -38 -88.5t-89 -37.5t-89 37.5t-38 88.5q0 54 38 92t89 38t89 -38t38 -92zM176 0v436l43 606h109l41 -606v-436h-193z" />
    <glyph glyph-name="exclamdown.ss02" horiz-adv-x="460" 
d="M406 899q0 -51 -37 -89t-88 -38q-53 0 -91 38t-38 89q0 54 37.5 91.5t91.5 37.5q51 0 88 -37.5t37 -91.5zM182 -444v436l41 606h109l41 -606v-436h-191z" />
    <glyph glyph-name="question.ss02" horiz-adv-x="1005" 
d="M385 401v74q3 123 34 180.5t154 167.5l37 31q97 80 135.5 134.5t38.5 125.5q0 96 -70 152.5t-186 56.5q-91 0 -171.5 -37.5t-194.5 -130.5l-107 121q122 109 234.5 160t242.5 51q187 0 313 -99t126 -270q0 -78 -31 -145q-29 -60 -70.5 -106.5t-121.5 -114.5l-48 -43
q-82 -71 -122 -125q-35 -47 -41 -123l-7 -60h-145zM328 111q0 51 38 89t89 38t89 -38t38 -89q0 -53 -38 -91t-89 -38t-89 38t-38 91z" />
    <glyph glyph-name="questiondown.case" horiz-adv-x="993" 
d="M430 1233v221h209v-221h-209zM23 336q0 78 30 143q29 62 71 109t124 117q15 13 27 23t16.5 14t3.5 3q79 68 121 125q34 46 43 123l6 60h145v-74q-3 -88 -16 -134t-49.5 -91.5t-124.5 -122.5l-41 -35q-95 -81 -132.5 -134t-37.5 -122q0 -96 70 -152.5t188 -56.5
q92 0 172.5 37.5t191.5 130.5l109 -121q-122 -109 -234.5 -160t-242.5 -51q-122 0 -221 43t-159 128t-60 198z" />
    <glyph glyph-name="questiondown.case.ss02" horiz-adv-x="993" 
d="M668 1358q0 -51 -38 -89t-89 -38t-89 38t-38 89q0 54 38 91.5t89 37.5t89 -37.5t38 -91.5zM610 1067v-72q-2 -67 -8 -103.5t-27 -77.5t-55 -76t-100 -93l-41 -35q-95 -81 -132.5 -134t-37.5 -122q0 -96 70 -152.5t188 -56.5q91 0 171.5 38t192.5 132l109 -122
q-122 -109 -234.5 -160t-242.5 -51q-189 0 -314.5 99.5t-125.5 270.5q2 50 14 92.5t27.5 74t47.5 68.5t59 62t77 70l47 41q79 68 121 125q34 46 43 123l6 59h145z" />
    <glyph glyph-name="questiondown.ss02" horiz-adv-x="950" 
d="M657 897q0 -51 -38 -88t-89 -37t-89 37t-38 88q0 54 36.5 91.5t90.5 37.5t90.5 -37.5t36.5 -91.5zM600 606v-71q-3 -88 -16 -134t-50 -92.5t-124 -122.5l-39 -32q-95 -81 -133.5 -136t-38.5 -124q0 -94 70.5 -151.5t187.5 -57.5q90 0 169.5 38t194.5 132l109 -121
q-122 -109 -234.5 -160t-242.5 -51q-189 0 -315 98.5t-126 269.5q2 50 14 93t28 74.5t48 68t58.5 62t75.5 67.5l49 43q93 87 123 127q32 43 41 121l6 59h145z" />
    <glyph glyph-name="periodcentered.ss02" horiz-adv-x="487" 
d="M117 641q0 51 38 89t89 38t89 -38t38 -89q0 -53 -37.5 -91t-89.5 -38t-89.5 38t-37.5 91z" />
    <glyph glyph-name="hyphen.case" horiz-adv-x="829" 
d="M713 788v-157h-596v157h596z" />
    <glyph glyph-name="endash.case" horiz-adv-x="1480" 
d="M1341 784v-149h-1202v149h1202z" />
    <glyph glyph-name="emdash.case" horiz-adv-x="1978" 
d="M1815 784v-149h-1653v149h1653z" />
    <glyph glyph-name="quotesinglbase.ss02" horiz-adv-x="450" 
d="M354 45q0 -113 -68.5 -203t-183.5 -96v80q52 6 95.5 52.5t50.5 111.5q-15 -6 -35 -6q-54 0 -88.5 33.5t-34.5 84.5q0 49 36.5 85t86.5 36q63 0 102 -47t39 -131z" />
    <glyph glyph-name="quotedblbase.ss02" horiz-adv-x="819" 
d="M354 45q0 -113 -68.5 -203t-183.5 -96v80q52 6 95.5 52.5t50.5 111.5q-15 -6 -35 -6q-54 0 -88.5 33.5t-34.5 84.5q0 49 36.5 85t86.5 36q63 0 102 -47t39 -131zM723 45q0 -113 -68.5 -203t-183.5 -96v80q52 6 95 52.5t50 111.5q-15 -6 -34 -6q-54 0 -88.5 33.5
t-34.5 84.5q0 49 36.5 85t86.5 36q63 0 102 -47t39 -131z" />
    <glyph glyph-name="quotedblleft.ss02" horiz-adv-x="825" 
d="M360 1106q0 -49 -36 -84t-86 -35q-64 0 -103 46.5t-39 131.5q0 113 68.5 203t183.5 96v-82q-52 -6 -95 -51t-50 -110q28 4 35 4q54 0 88 -34t34 -85zM735 1106q0 -49 -36.5 -84t-86.5 -35q-63 0 -102 46.5t-39 131.5q0 113 69 203t185 96v-82q-53 -6 -96.5 -51
t-50.5 -110q32 4 36 4q51 0 86 -34t35 -85z" />
    <glyph glyph-name="quotedblright.ss02" horiz-adv-x="819" 
d="M354 1284q0 -113 -68.5 -203t-183.5 -96v80q52 6 95.5 52.5t50.5 111.5q-15 -6 -35 -6q-54 0 -88.5 33.5t-34.5 84.5q0 49 36.5 85t86.5 36q63 0 102 -47t39 -131zM723 1284q0 -113 -68.5 -203t-183.5 -96v80q52 6 95 52.5t50 111.5q-15 -6 -34 -6q-54 0 -88.5 33.5
t-34.5 84.5q0 49 36.5 85t86.5 36q63 0 102 -47t39 -131z" />
    <glyph glyph-name="quoteleft.ss02" horiz-adv-x="450" 
d="M360 1106q0 -49 -36 -84t-86 -35q-64 0 -103 46.5t-39 131.5q0 113 68.5 203t183.5 96v-82q-52 -6 -95 -51t-50 -110q28 4 35 4q54 0 88 -34t34 -85z" />
    </font>
</defs>
</svg>
