<?xml version="1.0" standalone="no"?>
<!DOCTYPE svg PUBLIC "-//W3C//DTD SVG 1.1//EN" "http://www.w3.org/Graphics/SVG/1.1/DTD/svg11.dtd" >
<svg xmlns="http://www.w3.org/2000/svg" xmlns:xlink="http://www.w3.org/1999/xlink" version="1.1">
<metadata>
Created by FontForge 20170731 at Wed Sep  1 14:14:28 2021
 By Aleksey,,,
Copyright (c) 2015 by Letters from Sweden. All rights reserved. |DCNT
</metadata>
<defs>
<font id="LabGrotesque-MediumItalic" horiz-adv-x="1208" >
  <font-face 
    font-family="Lab Grotesque"
    font-weight="500"
    font-style="italic"
    font-stretch="normal"
    units-per-em="2048"
    panose-1="0 0 5 0 0 0 0 0 0 0"
    ascent="1536"
    descent="-512"
    x-height="1028"
    cap-height="1454"
    bbox="-834 -526 3568 1927"
    underline-thickness="120"
    underline-position="-448"
    unicode-range="U+0020-FB02"
  />
<missing-glyph horiz-adv-x="1185" 
d="M981 1659v-1864h-776v1864h776z" />
    <glyph glyph-name="fi" unicode="fi" horiz-adv-x="1202" 
d="M764 860h-242l-182 -860h-225l182 860h-188l34 168h189l28 131q35 167 124 248.5t237 81.5q87 0 188 -29l-63 -170q-57 13 -107 13q-67 0 -103 -38.5t-56 -131.5l-23 -105h242zM1036 1438h226l-50 -232h-225zM731 0l217 1028h226l-218 -1028h-225z" />
    <glyph glyph-name="fl" unicode="fl" 
d="M756 860h-236l-182 -860h-225l184 860h-188l34 168h189l28 131q36 167 123.5 248.5t235.5 81.5q89 0 190 -29l-63 -170q-60 13 -107 13q-67 0 -104 -39t-57 -131l-23 -105h236zM1044 1454h226l-309 -1454h-226z" />
    <glyph glyph-name="f_f.liga" unicode="ff" horiz-adv-x="1429" 
d="M580 1133l-23 -105h201l-37 -168h-199l-182 -860h-225l182 860h-188l36 168h187l28 131q35 167 124 248.5t237 81.5q118 0 225 -43l-65 -164q-71 21 -133 21q-73 0 -110.5 -38.5t-57.5 -131.5zM1262 1133l-23 -105h234l-37 -168h-232l-182 -860h-225l182 860h-164l35 168
h164l28 131q35 167 124 248.5t237 81.5q111 0 221 -43l-63 -166q-77 23 -136 23q-69 0 -106 -38.5t-57 -131.5z" />
    <glyph glyph-name="f_f_i.liga" unicode="ffi" horiz-adv-x="1884" 
d="M580 1133l-23 -105h201l-37 -168h-199l-182 -860h-225l182 860h-188l36 168h187l28 131q35 167 124 248.5t237 81.5q118 0 225 -43l-65 -164q-71 21 -133 21q-73 0 -110.5 -38.5t-57.5 -131.5zM1444 860h-240l-182 -860h-225l182 860h-164l35 168h164l28 131
q35 167 124 248.5t237 81.5q87 0 188 -29l-63 -170q-57 13 -107 13q-67 0 -103 -38.5t-56 -131.5l-23 -105h242zM1718 1438h226l-50 -232h-225zM1413 0l217 1028h225l-217 -1028h-225z" />
    <glyph glyph-name="f_f_j.liga" unicode="ffj" horiz-adv-x="1880" 
d="M580 1133l-23 -105h201l-37 -168h-199l-182 -860h-225l182 860h-188l36 168h187l28 131q35 167 124 248.5t237 81.5q118 0 225 -43l-65 -164q-71 21 -133 21q-73 0 -110.5 -38.5t-57.5 -131.5zM1444 860h-240l-182 -860h-225l182 860h-164l35 168h164l28 131
q35 167 124 248.5t237 81.5q87 0 188 -29l-63 -170q-57 13 -107 13q-67 0 -103 -38.5t-56 -131.5l-23 -105h242zM1716 1438h226l-50 -232h-225zM1401 -51l229 1079h225l-233 -1100q-35 -173 -118 -250t-236 -77q-115 0 -205 34l63 164q55 -14 119 -14q68 0 102.5 38
t53.5 126z" />
    <glyph glyph-name="f_j.liga" unicode="fj" horiz-adv-x="1198" 
d="M764 860h-242l-182 -860h-225l182 860h-188l34 168h189l28 131q35 167 124 248.5t237 81.5q87 0 188 -29l-63 -170q-57 13 -107 13q-67 0 -103 -38.5t-56 -131.5l-23 -105h242zM1034 1438h226l-50 -232h-225zM719 -51l229 1079h226l-234 -1100q-35 -173 -118 -250
t-236 -77q-115 0 -205 34l63 164q55 -14 119 -14q68 0 102.5 38t53.5 126z" />
    <glyph glyph-name=".notdef" horiz-adv-x="1185" 
d="M981 1659v-1864h-776v1864h776z" />
    <glyph glyph-name=".null" horiz-adv-x="0" 
 />
    <glyph glyph-name="nonmarkingreturn" horiz-adv-x="682" 
 />
    <glyph glyph-name="space" unicode=" " horiz-adv-x="456" 
 />
    <glyph glyph-name="exclam" unicode="!" horiz-adv-x="587" 
d="M627 1454l-95 -438l-176 -578h-137l70 576l92 440h246zM377 262l-55 -262h-254l57 262h252z" />
    <glyph glyph-name="quotedbl" unicode="&#x22;" horiz-adv-x="839" 
d="M526 1454l-133 -526h-174l90 526h217zM930 1454l-133 -526h-174l90 526h217z" />
    <glyph glyph-name="numbersign" unicode="#" 
d="M1167 883h-184l-78 -369h185l-33 -152h-185l-75 -362h-174l75 362h-290l-76 -362h-172l76 362h-189l33 152h188l78 369h-188l32 151h189l76 359h172l-76 -359h291l76 359h174l-76 -359h184zM731 514l78 369h-291l-78 -369h291z" />
    <glyph glyph-name="dollar" unicode="$" horiz-adv-x="1249" 
d="M1128 430q0 -88 -34.5 -169.5t-99.5 -147.5t-169 -106t-231 -40h-4l-37 -172h-158l39 187q-218 43 -418 249l148 144q163 -163 313 -199l98 465q-192 74 -272 155t-80 203q0 81 34 156.5t97 136t163.5 97.5t223.5 38l37 170h158l-39 -182q107 -20 196 -71.5t179 -141.5
l-152 -141q-145 136 -264 160l-90 -424q192 -71 277 -154t85 -213zM618 850l82 381q-114 -11 -185 -68t-71 -143q0 -56 40 -94.5t134 -75.5zM909 399q0 63 -45.5 105.5t-142.5 81.5l-90 -422q123 8 200.5 73t77.5 162z" />
    <glyph glyph-name="percent" unicode="%" horiz-adv-x="1783" 
d="M1493 1425l117 -92l-1260 -1366l-112 94zM1655 369q0 -69 -23.5 -137t-66.5 -125t-114 -92t-157 -35q-130 0 -209 79.5t-79 208.5q0 65 24 131.5t68 122.5t114.5 91.5t155.5 35.5q127 0 207 -78.5t80 -201.5zM1169 272q0 -70 37 -112.5t99 -42.5q90 0 137 78
q49 76 49 167q0 71 -35 111.5t-102 40.5q-82 0 -133.5 -71t-51.5 -171zM817 1135q0 -69 -23 -137t-66.5 -125t-114 -92.5t-156.5 -35.5q-130 0 -209.5 80t-79.5 209q0 65 24 131.5t68 122.5t114.5 91.5t155.5 35.5q127 0 207 -78.5t80 -201.5zM332 1038q0 -70 36.5 -112.5
t98.5 -42.5q90 0 137 78q49 76 49 167q0 71 -35 111.5t-102 40.5q-82 0 -133 -71t-51 -171z" />
    <glyph glyph-name="ampersand" unicode="&#x26;" horiz-adv-x="1427" 
d="M1384 602l-292 -289l180 -313h-252l-92 162q-124 -100 -233 -145.5t-234 -45.5q-191 0 -306.5 97t-115.5 243q0 106 43.5 190.5t153.5 171.5t299 179q-80 157 -80 262q0 72 25 136.5t73.5 116.5t128 83t180.5 31q151 0 243.5 -76.5t92.5 -196.5q-1 -88 -30 -151
t-111 -131t-236 -148l170 -295l256 250zM666 1135q0 -50 14.5 -95.5t50.5 -107.5q82 38 135 71.5t81 66t38 61.5t10 67q0 57 -38.5 90t-102.5 33q-85 0 -136.5 -54t-51.5 -132zM831 330l-210 366q-211 -108 -284 -182.5t-73 -173.5q0 -75 61.5 -127.5t153.5 -52.5
q93 0 173 39t179 131z" />
    <glyph glyph-name="quotesingle" unicode="'" horiz-adv-x="434" 
d="M526 1454l-133 -526h-174l90 526h217z" />
    <glyph glyph-name="parenleft" unicode="(" horiz-adv-x="698" 
d="M752 1614l114 -123q-536 -455 -536 -1042q0 -171 44 -339t136 -360l-164 -80q-231 387 -231 760q0 345 163.5 655t473.5 529z" />
    <glyph glyph-name="parenright" unicode=")" horiz-adv-x="698" 
d="M0 -352l-117 127q537 451 537 1063q0 308 -178 659l161 94q116 -200 174 -382t58 -375q0 -347 -162.5 -655t-472.5 -531z" />
    <glyph glyph-name="asterisk" unicode="*" horiz-adv-x="892" 
d="M643 1454v-264l242 84l43 -129l-250 -82l166 -209l-113 -86l-164 217l-157 -213l-113 86l166 205l-252 82l45 129l238 -84v264h149z" />
    <glyph glyph-name="plus" unicode="+" horiz-adv-x="1228" 
d="M713 1167v-436h434v-192h-434v-437h-197v437h-434v192h434v436h197z" />
    <glyph glyph-name="comma" unicode="," horiz-adv-x="471" 
d="M326 262l-58 -262l-207 -283h-135l193 283h-119l55 262h271z" />
    <glyph glyph-name="hyphen" unicode="-" horiz-adv-x="835" 
d="M764 694l-43 -202h-617l43 202h617z" />
    <glyph glyph-name="period" unicode="." horiz-adv-x="471" 
d="M309 262l-55 -262h-254l55 262h254z" />
    <glyph glyph-name="slash" unicode="/" horiz-adv-x="931" 
d="M1096 1454l-930 -1454h-238l928 1454h240z" />
    <glyph glyph-name="zero" unicode="0" 
d="M1200 936q0 -187 -65 -414q-63 -220 -217 -391q-150 -164 -392 -164q-216 0 -327 130.5t-111 359.5q0 185 66 415q67 225 219 390q150 163 387 163q216 0 328 -131t112 -358zM319 455q0 -289 213 -289q144 0 244 133q99 132 146 315t47 324q0 289 -215 289
q-144 0 -244 -133q-98 -131 -145 -314q-46 -180 -46 -325z" />
    <glyph glyph-name="one" unicode="1" horiz-adv-x="940" 
d="M670 1393h180l-295 -1393h-233l233 1094l-293 -176l-90 161z" />
    <glyph glyph-name="two" unicode="2" horiz-adv-x="1198" 
d="M272 195h764l-43 -195h-1013l20 96q29 144 102 246q73 101 162 160q108 71 258 155q111 61 121 66q135 72 205 117q71 46 106 98t35 121q0 77 -57.5 122.5t-149.5 45.5q-104 0 -199.5 -56.5t-220.5 -187.5l-161 129q144 165 287 239t305 74q191 0 309.5 -97.5
t118.5 -250.5q0 -124 -60 -215q-61 -92 -174 -166q-114 -76 -346 -200q-127 -68 -178 -101q-145 -89 -191 -200z" />
    <glyph glyph-name="three" unicode="3" horiz-adv-x="1181" 
d="M1221 1393l-43 -191l-496 -383h4q165 0 273 -100t108 -256q1 -71 -20.5 -141.5t-67.5 -135.5t-110 -114.5t-154.5 -78t-194.5 -26.5q-292 0 -536 185l137 159q129 -79 214.5 -112t180.5 -33q78 0 141 24.5t101.5 65.5t59 90.5t20.5 102.5q0 101 -70 159t-199 58
q-80 0 -153 -25l-74 139l545 418h-621l41 195h914z" />
    <glyph glyph-name="four" unicode="4" horiz-adv-x="1191" 
d="M963 504h200l-39 -189h-202l-66 -315h-227l65 315h-680l45 213l736 865h266l-754 -889h426l64 297h227z" />
    <glyph glyph-name="five" unicode="5" horiz-adv-x="1193" 
d="M1176 1198h-637l-111 -375q110 70 260 70q173 0 285 -112t112 -275q1 -77 -21 -153.5t-68.5 -147t-112 -124t-159 -85t-202.5 -29.5q-150 0 -273 47t-261 150l139 155q125 -86 207 -118q90 -35 198 -35q142 0 234 92t92 229q0 98 -66.5 159t-175.5 61q-131 0 -251 -91
l-201 21l221 756h834z" />
    <glyph glyph-name="six" unicode="6" horiz-adv-x="1206" 
d="M1118 526q1 -78 -21 -157t-68.5 -152.5t-112 -130t-159 -89t-200.5 -30.5q-206 0 -336.5 118.5t-130.5 309.5q0 230 140 452t438 460l108 86h326v-4l-273 -211q-231 -177 -366 -347q110 78 258 78q179 0 288 -110t109 -273zM891 502q0 104 -65.5 163.5t-180.5 59.5
q-156 0 -244 -96t-88 -232q0 -104 68 -167.5t184 -63.5q64 0 118.5 19.5t92 52.5t64 76.5t39 91t12.5 96.5z" />
    <glyph glyph-name="seven" unicode="7" horiz-adv-x="1103" 
d="M233 1393h1016l-37 -172q-257 -228 -481 -564q-224 -334 -317 -657h-264q83 306 294 625q206 311 471 573h-722z" />
    <glyph glyph-name="eight" unicode="8" horiz-adv-x="1202" 
d="M1120 432q0 -84 -33.5 -164t-99 -148.5t-176 -110.5t-250.5 -42q-226 0 -365 110t-139 271q0 94 34 177t112 151.5t192 101.5q-66 43 -101.5 106.5t-35.5 137.5t31 144t91 129.5t160 95.5t226 36q182 0 303 -96t121 -241q0 -117 -66 -212t-192 -143q91 -49 139.5 -127.5
t48.5 -175.5zM477 1024q0 -82 61.5 -133t159.5 -51q129 0 201 66t72 165q0 81 -61.5 128.5t-166.5 47.5q-121 0 -193.5 -62.5t-72.5 -160.5zM893 438q0 99 -74 160t-198 61q-83 0 -149 -24t-105.5 -64.5t-59.5 -90t-20 -103.5q0 -96 77 -157.5t209 -61.5q150 0 235 81.5
t85 198.5z" />
    <glyph glyph-name="nine" unicode="9" horiz-adv-x="1206" 
d="M1192 997q0 -230 -140 -451.5t-438 -459.5l-108 -86h-326v4l273 211q237 180 364 344q-107 -76 -254 -76q-181 0 -290 110t-109 273q-1 78 21 157t68.5 152t112 129.5t159 89.5t202.5 31q204 0 334.5 -118.5t130.5 -309.5zM637 668q156 0 244 95.5t88 231.5
q0 104 -68 168t-184 64q-78 0 -141.5 -29.5t-102.5 -78.5t-59.5 -107.5t-20.5 -120.5q0 -106 64 -164.5t180 -58.5z" />
    <glyph glyph-name="colon" unicode=":" horiz-adv-x="552" 
d="M516 1028l-55 -262h-254l55 262h254zM354 262l-55 -262h-254l55 262h254z" />
    <glyph glyph-name="semicolon" unicode=";" horiz-adv-x="552" 
d="M371 262l-58 -262l-207 -283h-135l193 283h-119l55 262h271zM520 1028l-55 -262h-254l55 262h254z" />
    <glyph glyph-name="less" unicode="&#x3c;" horiz-adv-x="1228" 
d="M1106 1094v-201l-729 -258l729 -258v-201l-983 369v180z" />
    <glyph glyph-name="equal" unicode="=" horiz-adv-x="1228" 
d="M1147 936v-193h-1065v193h1065zM1147 526v-192h-1065v192h1065z" />
    <glyph glyph-name="greater" unicode="&#x3e;" horiz-adv-x="1228" 
d="M123 1094l983 -369v-180l-983 -369v201l729 258l-729 258v201z" />
    <glyph glyph-name="question" unicode="?" horiz-adv-x="1024" 
d="M1126 1169q0 -94 -34 -163t-107 -136q-54 -50 -211 -163q-96 -72 -143 -119q-44 -44 -68 -111l-16 -49h-199l12 57q17 71 28.5 105.5t40.5 77.5t72.5 81t125.5 99l35 24q87 62 135 103q90 74 90 164q0 64 -51.5 101.5t-141.5 37.5q-165 0 -383 -162l-110 168
q260 203 528 203q173 0 285 -86q112 -84 112 -232zM545 262l-56 -262h-253l55 262h254z" />
    <glyph glyph-name="at" unicode="@" horiz-adv-x="1970" 
d="M1470 969l-116 -543q-19 -87 -19 -123q0 -121 107 -121q53 -3 100 31.5t78.5 91.5t54.5 127.5t33.5 140t9.5 129.5q0 279 -172 420q-174 142 -454 142q-290 0 -474 -144q-183 -145 -262 -346q-77 -201 -77 -385q0 -300 176.5 -461t525.5 -161h449l-33 -156h-430
q-426 0 -651.5 204.5t-225.5 561.5q0 233 100 471q100 239 326 409q229 170 584 170q237 0 417.5 -87t279.5 -249.5t99 -377.5q1 -89 -15.5 -181t-53.5 -182.5t-90.5 -159.5t-133.5 -111t-176 -40q-222 0 -249 186q-56 -89 -140 -137.5t-186 -48.5q-156 0 -238 88t-82 246
q-1 85 21.5 174t66 168t102 141t135.5 97t159 32q101 0 164.5 -44.5t81.5 -123.5l24 152h184zM1188 645q0 178 -152 178q-65 3 -124 -37.5t-98.5 -105t-62.5 -143t-22 -152.5q0 -184 150 -184q75 -3 137.5 43.5t98.5 117.5t55 146t18 137z" />
    <glyph glyph-name="A" unicode="A" horiz-adv-x="1419" 
d="M1042 0l-45 328h-641l-184 -328h-254l834 1454h317l213 -1454h-240zM469 528h502l-25 181l-18 139q-43 312 -51 426q-107 -208 -310 -569z" />
    <glyph glyph-name="B" unicode="B" horiz-adv-x="1411" 
d="M1303 451q0 -88 -32.5 -167.5t-94 -143.5t-161 -102t-224.5 -38h-736l310 1454h620q179 0 291 -92q110 -88 110 -242q0 -130 -75.5 -234t-206.5 -141q93 -38 146 -114t53 -180zM565 1264l-86 -410h365q155 0 231 64.5t76 175.5q0 79 -60 124.5t-171 45.5h-355zM1063 459
q0 98 -68 151.5t-202 53.5h-355l-100 -474h385q173 0 256.5 72t83.5 197z" />
    <glyph glyph-name="C" unicode="C" horiz-adv-x="1398" 
d="M1454 1239l-172 -145q-85 97 -168 139.5t-186 42.5q-108 3 -202 -39.5t-158.5 -114t-111 -163.5t-68.5 -189t-21 -190q0 -186 95 -293t267 -107q113 0 205 47.5t223 167.5l150 -151q-139 -146 -280 -211.5t-300 -65.5q-142 0 -257 45t-190.5 125t-116 188t-40.5 234
q0 205 84 420q86 217 270 360q189 148 471 148q310 0 506 -248z" />
    <glyph glyph-name="D" unicode="D" horiz-adv-x="1468" 
d="M1432 881q0 -206 -80 -410q-77 -202 -252 -336q-176 -135 -443 -135h-602l310 1454h466q285 0 443 -156t158 -417zM813 1249h-250l-223 -1044h287q119 -2 216 37.5t160.5 105.5t106 154t61 179t17.5 185q0 188 -95.5 285.5t-279.5 97.5z" />
    <glyph glyph-name="E" unicode="E" horiz-adv-x="1280" 
d="M1362 1454l-45 -205h-754l-86 -397h705l-43 -203h-705l-94 -444h776l-43 -205h-1018l310 1454h997z" />
    <glyph glyph-name="F" unicode="F" horiz-adv-x="1245" 
d="M1362 1454l-45 -205h-754l-92 -432h705l-46 -205h-704l-129 -612h-242l310 1454h997z" />
    <glyph glyph-name="G" unicode="G" horiz-adv-x="1550" 
d="M766 582l43 204h661l-165 -786h-187l21 166q-167 -197 -449 -197q-258 0 -413.5 161t-155.5 421q0 210 86 426q90 218 278 360q192 148 482 148q181 0 321.5 -68t257.5 -209l-176 -141q-105 112 -199 159.5t-221 47.5q-92 2 -175 -27t-146.5 -80.5t-114.5 -121
t-83.5 -149t-49.5 -164t-16 -167.5q0 -181 95 -283t275 -102q173 0 299 99q128 104 162 256l10 47h-440z" />
    <glyph glyph-name="H" unicode="H" horiz-adv-x="1521" 
d="M1559 1454l-310 -1454h-243l139 657h-709l-139 -657h-242l310 1454h241l-125 -592h709l125 592h244z" />
    <glyph glyph-name="I" unicode="I" horiz-adv-x="598" 
d="M621 1454l-310 -1454h-241l309 1454h242z" />
    <glyph glyph-name="J" unicode="J" horiz-adv-x="966" 
d="M1014 1454l-230 -1071q-43 -213 -156.5 -312.5t-297.5 -99.5q-214 0 -391 105l96 182q86 -38 148 -55t130 -17q95 0 153 58t87 186l217 1024h244z" />
    <glyph glyph-name="K" unicode="K" horiz-adv-x="1396" 
d="M1542 1454l-663 -565l399 -889h-252l-330 733l-297 -254l-102 -479h-242l310 1454h241l-141 -659l760 659h317z" />
    <glyph glyph-name="L" unicode="L" horiz-adv-x="1124" 
d="M606 1454l-266 -1247h659l-43 -207h-901l310 1454h241z" />
    <glyph glyph-name="M" unicode="M" horiz-adv-x="1839" 
d="M1485 1454h391l-309 -1454h-236l154 733l96 428l27 115q-80 -156 -291 -543l-397 -733h-213l-93 733q-51 372 -65 531q-37 -196 -109 -533l-153 -731h-232l310 1454h370l76 -614q44 -337 57 -539q93 199 281 539z" />
    <glyph glyph-name="N" unicode="N" horiz-adv-x="1525" 
d="M1327 1454h236l-310 -1454h-256l-266 625q-148 348 -209 524q-38 -238 -110 -578l-121 -571h-236l310 1454h260l274 -649l27 -64q121 -293 168 -430q27 158 106 553z" />
    <glyph glyph-name="O" unicode="O" horiz-adv-x="1554" 
d="M1522 881q2 -105 -21.5 -213t-68.5 -211t-115 -193.5t-156.5 -157.5t-199.5 -104.5t-238 -34.5q-275 0 -437.5 163t-162.5 443q0 203 90 418t270 355q181 141 445 141q272 0 433 -163.5t161 -442.5zM369 588q0 -195 94 -301.5t264 -106.5q104 -3 195.5 39t155 113
t109.5 162t68 187t21 187q0 195 -92 300.5t-262 105.5q-104 3 -196 -39t-156.5 -113t-111 -162t-68.5 -186.5t-21 -185.5z" />
    <glyph glyph-name="P" unicode="P" horiz-adv-x="1380" 
d="M1413 1069q0 -103 -34 -193t-101.5 -162t-179.5 -113.5t-256 -41.5h-426l-119 -559h-242l310 1454h614q202 0 318 -108.5t116 -276.5zM936 1253h-373l-104 -493h364q179 0 269 78.5t90 208.5q0 102 -64 154t-182 52z" />
    <glyph glyph-name="Q" unicode="Q" horiz-adv-x="1556" 
d="M1176 117l84 -156l-191 -100l-82 151q-119 -45 -262 -45q-275 0 -438.5 164t-163.5 444q0 208 88 418q89 212 270 353q182 141 445 141q270 0 433 -165t163 -443q0 -209 -90 -424q-90 -211 -256 -338zM881 205l-131 241l188 103l125 -230q102 102 158 254q55 149 55 295
q0 195 -91.5 300.5t-262.5 105.5q-104 3 -196 -39t-156.5 -113t-111 -162t-68.5 -186.5t-21 -185.5q0 -196 93 -302t265 -106q81 0 154 25z" />
    <glyph glyph-name="R" unicode="R" horiz-adv-x="1411" 
d="M973 571l264 -571h-254l-254 559h-313l-119 -559h-242l310 1454h602q200 0 316 -107.5t116 -273.5q0 -183 -107 -323q-106 -142 -319 -179zM1165 1049q0 101 -63 152.5t-180 51.5h-359l-104 -493h350q177 0 266.5 79t89.5 210z" />
    <glyph glyph-name="S" unicode="S" horiz-adv-x="1331" 
d="M1337 1251l-145 -161q-111 96 -213 141t-215 45q-135 0 -223 -64t-88 -161q0 -56 32 -88q31 -31 92.5 -56.5t202.5 -68.5q128 -41 206.5 -77t133 -83.5t77 -105.5t24.5 -140q0 -87 -35.5 -169t-102 -148.5t-174 -107t-239.5 -40.5q-194 0 -342 62q-152 68 -299 198
l147 172q160 -129 258 -174q103 -47 244 -47q138 0 223.5 68t85.5 172q0 61 -39 100q-35 37 -97.5 63t-203.5 66q-240 70 -335 153t-95 230q-2 82 36 162.5t107.5 147t179.5 106.5t240 39q166 0 299 -57.5t258 -176.5z" />
    <glyph glyph-name="T" unicode="T" horiz-adv-x="1236" 
d="M1376 1454l-45 -207h-436l-264 -1247h-244l264 1247h-436l45 207h1116z" />
    <glyph glyph-name="U" unicode="U" horiz-adv-x="1441" 
d="M1487 1454l-209 -983q-108 -504 -614 -504q-533 0 -533 385q0 58 23 170l198 932h242l-205 -952q-10 -62 -10 -103q0 -104 74.5 -161.5t210.5 -57.5q307 0 374 309l205 965h244z" />
    <glyph glyph-name="V" unicode="V" horiz-adv-x="1341" 
d="M1245 1454h264l-796 -1454h-307l-177 1454h244l80 -706q36 -331 49 -517q122 246 262 510z" />
    <glyph glyph-name="W" unicode="W" horiz-adv-x="1968" 
d="M1855 1454h252l-659 -1454h-287l-31 610q-16 291 -16 525q-64 -158 -237 -527l-287 -608h-289l-43 1454h238l14 -659l2 -215q0 -32 -4 -306q126 288 235 519l318 661h237l31 -661q12 -267 12 -525l54 131l166 394z" />
    <glyph glyph-name="X" unicode="X" horiz-adv-x="1390" 
d="M1507 1454l-620 -696l362 -758h-252l-282 594l-522 -594h-279l692 784l-323 670h252l241 -512l451 512h280z" />
    <glyph glyph-name="Y" unicode="Y" horiz-adv-x="1298" 
d="M1190 1454h283l-695 -840l-131 -614h-241l129 616l-332 838h248l237 -618z" />
    <glyph glyph-name="Z" unicode="Z" horiz-adv-x="1296" 
d="M1409 1454l-43 -197l-1036 -1052h811l-43 -205h-1118l40 197l1035 1052h-776l43 205h1087z" />
    <glyph glyph-name="bracketleft" unicode="[" horiz-adv-x="698" 
d="M856 1571l-37 -166h-227l-330 -1548h227l-34 -164h-439l400 1878h440z" />
    <glyph glyph-name="backslash" unicode="\" horiz-adv-x="886" 
d="M446 1454l295 -1454h-209l-294 1454h208z" />
    <glyph glyph-name="bracketright" unicode="]" horiz-adv-x="698" 
d="M293 1571h440l-401 -1878h-438l32 164h230l329 1548h-227z" />
    <glyph glyph-name="asciicircum" unicode="^" 
d="M696 1454l408 -881h-186l-312 680l-313 -680h-189l410 881h182z" />
    <glyph glyph-name="underscore" unicode="_" horiz-adv-x="1228" 
d="M1079 -233v-156h-1249v156h1249z" />
    <glyph glyph-name="grave" unicode="`" horiz-adv-x="598" 
d="M309 1460h238l80 -293h-183z" />
    <glyph glyph-name="a" unicode="a" horiz-adv-x="1189" 
d="M948 1028h207l-219 -1028h-203l35 162q-132 -187 -350 -187q-170 0 -263.5 104.5t-93.5 289.5q-2 97 22 196t72.5 187.5t115 157.5t156.5 108.5t189 36.5q237 0 297 -189zM838 653q0 101 -50.5 157t-150.5 56q-84 2 -153.5 -43t-111 -117t-64 -153t-21.5 -156
q0 -231 196 -231q75 -3 143.5 40.5t114.5 114t72 158.5t25 174z" />
    <glyph glyph-name="b" unicode="b" horiz-adv-x="1198" 
d="M1133 662q1 -97 -22 -196t-70.5 -188.5t-112.5 -159t-154.5 -109t-189.5 -36.5q-114 0 -195.5 51t-114.5 140l-34 -164h-211l309 1454h225l-121 -567q132 166 334 166q166 0 261.5 -104t95.5 -287zM907 631q0 118 -48 174.5t-150 56.5q-102 3 -188 -70t-131.5 -183
t-43.5 -224q0 -100 58 -160.5t157 -60.5q84 -3 153 41.5t110 116.5t62.5 152.5t20.5 156.5z" />
    <glyph glyph-name="c" unicode="c" horiz-adv-x="1052" 
d="M645 870q-64 2 -121.5 -25t-99 -74t-72 -107t-45.5 -124.5t-14 -125.5q0 -118 58 -185t163 -67q81 0 150.5 36.5t175.5 131.5l133 -133q-115 -121 -228 -174.5t-243 -53.5q-197 0 -316 119q-118 118 -118 318q-1 88 22.5 180.5t74 178.5t119.5 153t166.5 106t208.5 37
q249 0 390 -203l-158 -127q-62 78 -115 108.5t-131 30.5z" />
    <glyph glyph-name="d" unicode="d" horiz-adv-x="1191" 
d="M1030 1454h225l-309 -1454h-207l35 164q-139 -189 -354 -189q-170 0 -264.5 104.5t-94.5 289.5q-1 97 23 196t72.5 188t114.5 157.5t156.5 108t190.5 36.5q106 0 181 -42t110 -120zM846 643q0 105 -52 164t-153 59q-84 2 -154.5 -43.5t-112.5 -117t-65 -152.5t-22 -156
q0 -118 48 -174.5t150 -56.5q102 -3 187 70t130 183t44 224z" />
    <glyph glyph-name="e" unicode="e" horiz-adv-x="1144" 
d="M1034 467h-743q-2 -12 -2 -55q0 -120 59.5 -187t175.5 -67q86 0 163 41t175 139l144 -127q-114 -130 -234.5 -186t-261.5 -56q-203 0 -322.5 120.5t-119.5 324.5q-1 84 22.5 173.5t74.5 175.5t121 153.5t170 107.5t214 37q177 0 288 -104t111 -267q0 -113 -35 -223z
M330 627h528q4 50 4 57q0 93 -54 147t-153 54q-112 0 -195.5 -69t-129.5 -189z" />
    <glyph glyph-name="f" unicode="f" horiz-adv-x="745" 
d="M580 1133l-23 -105h242l-35 -168h-242l-182 -860h-225l182 860h-188l34 168h189l28 131q35 166 124.5 248t238.5 82q109 0 219 -43l-63 -166q-77 23 -136 23q-69 0 -106 -38.5t-57 -131.5z" />
    <glyph glyph-name="g" unicode="g" horiz-adv-x="1167" 
d="M938 1028h207l-211 -991q-47 -219 -171 -325.5t-331 -106.5q-250 0 -465 159l119 154q100 -68 180 -98.5t168 -30.5q118 0 185 62.5t98 203.5l26 121q-132 -156 -321 -156q-164 0 -261.5 102.5t-97.5 274.5q-1 87 22 179.5t69.5 179t110.5 154.5t153.5 108t189.5 37
q231 0 295 -189zM838 643q0 106 -54.5 164.5t-156.5 58.5q-78 2 -144.5 -39t-108 -106t-64 -140t-21.5 -145q0 -227 194 -227q78 -3 147 38t113.5 106t70 142t24.5 148z" />
    <glyph glyph-name="h" unicode="h" horiz-adv-x="1165" 
d="M1077 778q0 -44 -16 -135l-137 -643h-226l136 635q10 68 10 90q0 143 -162 143q-110 0 -192 -74.5t-111 -207.5l-125 -586h-225l309 1454h225l-114 -536q118 143 313 143q147 0 231 -76.5t84 -206.5z" />
    <glyph glyph-name="i" unicode="i" horiz-adv-x="499" 
d="M471 1028l-217 -1028h-225l217 1028h225zM559 1438l-49 -232h-225l49 232h225z" />
    <glyph glyph-name="j" unicode="j" horiz-adv-x="489" 
d="M-145 -215q67 0 101.5 37.5t53.5 126.5l230 1079h225l-234 -1100q-35 -173 -118 -250t-236 -77q-115 0 -205 34l64 164q55 -14 119 -14zM551 1438l-49 -232h-226l50 232h225z" />
    <glyph glyph-name="k" unicode="k" horiz-adv-x="1067" 
d="M1137 1028l-451 -395l285 -633h-228l-225 500l-192 -166l-72 -334h-225l309 1454h225l-182 -856l479 430h277z" />
    <glyph glyph-name="l" unicode="l" horiz-adv-x="505" 
d="M565 1454l-309 -1454h-225l309 1454h225z" />
    <glyph glyph-name="m" unicode="m" horiz-adv-x="1712" 
d="M1624 791q0 -65 -18 -150l-133 -641h-226l129 629q17 74 15 106q2 63 -34 98t-108 35q-99 0 -169 -74.5t-99 -213.5l-123 -580h-225l129 616q16 78 16 123q0 129 -139 129q-100 0 -171 -73.5t-97 -208.5l-123 -586h-225l217 1028h202l-28 -141q108 172 311 172
q105 0 176.5 -48.5t91.5 -131.5q126 180 334 180q135 0 216 -72.5t81 -195.5z" />
    <glyph glyph-name="n" unicode="n" horiz-adv-x="1157" 
d="M1069 782q0 -48 -16 -139l-135 -643h-226l133 635q11 72 11 94q0 139 -162 139q-111 0 -192.5 -76.5t-110.5 -213.5l-123 -578h-225l217 1028h204l-30 -141q122 172 340 172q147 0 231 -74t84 -203z" />
    <glyph glyph-name="o" unicode="o" horiz-adv-x="1167" 
d="M1094 616q1 -83 -21 -172t-71 -175.5t-116.5 -154t-166 -108t-211.5 -37.5q-205 0 -322.5 118t-117.5 331q-1 81 21.5 169t71 174t116.5 154t166.5 108.5t211.5 37.5q203 0 321 -117t118 -328zM293 418q0 -122 59 -190t168 -68q79 -2 147.5 41.5t111 112.5t66.5 148
t23 152q0 256 -225 256q-80 3 -149 -40.5t-111.5 -113t-66.5 -148t-23 -150.5z" />
    <glyph glyph-name="p" unicode="p" horiz-adv-x="1196" 
d="M1130 662q1 -97 -22 -196t-70 -188.5t-112 -159t-154.5 -109t-189.5 -36.5q-105 0 -181.5 44.5t-115.5 125.5l-111 -512h-225l297 1397h211l-35 -164q136 189 352 189q166 0 261 -104t95 -287zM905 631q0 118 -48 174.5t-150 56.5q-102 3 -188 -70t-131.5 -183
t-43.5 -224q0 -100 58 -160.5t157 -60.5q84 -3 153 41.5t110 116.5t62.5 152.5t20.5 156.5z" />
    <glyph glyph-name="q" unicode="q" horiz-adv-x="1193" 
d="M958 1028h207l-297 -1397h-225l109 504q-133 -160 -334 -160q-169 0 -263 104t-94 288q-2 97 22 196t72.5 188t115 158.5t156.5 109t189 36.5q121 0 200 -50.5t108 -144.5zM848 649q0 101 -54 159t-155 58q-68 2 -127 -28t-99.5 -79t-70 -111.5t-43 -127t-12.5 -123.5
q0 -118 48 -174.5t150 -56.5q75 -2 144.5 41.5t117 114t75 157.5t26.5 170z" />
    <glyph glyph-name="r" unicode="r" horiz-adv-x="790" 
d="M864 997l-80 -192q-85 29 -133 29q-107 0 -185.5 -86t-113.5 -248l-104 -500h-225l217 1028h209l-35 -166q111 178 280 178q77 0 170 -43z" />
    <glyph glyph-name="s" unicode="s" horiz-adv-x="1013" 
d="M977 885l-131 -146q-163 138 -322 138q-82 0 -135 -36.5t-53 -92.5q0 -47 41 -68q46 -22 170 -62q207 -60 281.5 -122.5t74.5 -178.5q0 -160 -122 -255t-322 -95q-254 0 -469 197l133 145q97 -81 177.5 -118t168.5 -37q100 0 157.5 38.5t57.5 104.5q0 51 -49 78t-193 67
q-184 51 -253.5 115t-69.5 168q0 132 114.5 233t307.5 101q250 0 436 -174z" />
    <glyph glyph-name="t" unicode="t" horiz-adv-x="763" 
d="M520 860l-119 -559q-8 -41 -8 -57q0 -40 21.5 -56t70.5 -16q52 0 129 23l15 -181q-93 -37 -213 -37q-256 0 -256 209q0 46 12 101l123 573h-186l34 168h189l69 330h224l-70 -330h244l-35 -168h-244z" />
    <glyph glyph-name="u" unicode="u" horiz-adv-x="1140" 
d="M883 1028h225l-219 -1028h-205l31 145q-56 -82 -144 -128t-192 -46q-142 0 -222.5 71.5t-80.5 193.5q0 68 18 151l133 641h226l-127 -610q-19 -87 -19 -123q0 -65 39 -98t109 -33q113 0 195 79.5t114 231.5z" />
    <glyph glyph-name="v" unicode="v" horiz-adv-x="1044" 
d="M870 1028h244l-567 -1028h-287l-129 1028h227l37 -354q32 -316 43 -492q105 225 246 492z" />
    <glyph glyph-name="w" unicode="w" horiz-adv-x="1583" 
d="M1403 1030h235l-497 -1030h-287l-16 303q-14 346 -15 440q-76 -176 -198 -442l-142 -301h-280l-58 1030h224l14 -358q8 -294 10 -473q125 296 211 473l174 358h211l21 -358q11 -207 14 -477q75 189 209 475z" />
    <glyph glyph-name="x" unicode="x" horiz-adv-x="1032" 
d="M1098 1028l-449 -493l250 -535h-231l-170 383l-336 -383h-256l497 549l-231 479h227l154 -334l289 334h256z" />
    <glyph glyph-name="y" unicode="y" horiz-adv-x="1044" 
d="M881 1028h233l-641 -1165q-78 -143 -163.5 -201.5t-215.5 -58.5q-103 0 -182 26l59 166q62 -10 107 -10q67 0 112 32t95 117l12 19l-162 1075h225l43 -344q4 -31 54 -465q156 315 231 455z" />
    <glyph glyph-name="z" unicode="z" horiz-adv-x="1001" 
d="M1024 1028l-35 -168l-696 -676h553l-39 -184h-842l35 170l696 676h-518l39 182h807z" />
    <glyph glyph-name="braceleft" unicode="{" horiz-adv-x="757" 
d="M913 1571l-36 -166h-60q-68 0 -106 -23q-33 -20 -45 -57q-13 -37 -33 -135l-62 -293q-26 -116 -80 -176t-165 -78l-2 -4q79 -13 114 -52t35 -104q0 -45 -12 -98l-66 -313l-14 -68q-10 -52 -10 -74q0 -39 25.5 -56t90.5 -17h60l-35 -164h-109q-131 0 -189 42.5t-58 145.5
q0 60 16 135l70 334q14 60 14 94q0 56 -34 79.5t-113 23.5l38 190q104 0 150.5 41t69.5 154l67 315q39 185 121.5 254.5t249.5 69.5h108z" />
    <glyph glyph-name="bar" unicode="|" horiz-adv-x="792" 
d="M494 1638v-1925h-195v1925h195z" />
    <glyph glyph-name="braceright" unicode="}" horiz-adv-x="757" 
d="M293 1571h108q132 0 191 -43t59 -146q0 -44 -16 -135l-70 -315q-12 -70 -12 -90q0 -57 34.5 -81t114.5 -24l-40 -190q-104 0 -149.5 -40.5t-70.5 -156.5l-69 -334q-39 -185 -122 -254t-249 -69h-108l32 164h60q70 0 106 22q33 20 45 55q16 46 35 138l66 313
q26 116 80.5 176t166.5 78l2 4q-80 13 -115.5 52.5t-35.5 107.5q0 41 12 94l62 293q24 108 24 139q0 42 -26 59t-93 17h-57z" />
    <glyph glyph-name="asciitilde" unicode="~" horiz-adv-x="1228" 
d="M649 784q107 -49 180 -49q104 0 113 99h182q0 -130 -73 -205.5t-195 -75.5q-61 0 -113 14t-141 49q-77 30 -111.5 40t-74.5 10q-53 0 -88 -28t-43 -73h-181q1 129 83.5 205t211.5 76q62 0 111 -13.5t139 -48.5z" />
    <glyph glyph-name="uni00A0" unicode="&#xa0;" horiz-adv-x="456" 
 />
    <glyph glyph-name="exclamdown" unicode="&#xa1;" horiz-adv-x="514" 
d="M186 768l56 262h254l-56 -262h-254zM-63 -424l94 440l176 576h137l-70 -576l-92 -440h-245z" />
    <glyph glyph-name="cent" unicode="&#xa2;" 
d="M891 326l133 -136q-116 -111 -212 -161.5t-206 -57.5l-37 -176h-166l39 182q-155 29 -242 133t-87 263q-1 91 21 184.5t68.5 181.5t112 157.5t159 113.5t200.5 49l37 174h163l-38 -184q161 -35 286 -193l-155 -127q-91 107 -172 129l-146 -686q53 13 109.5 49.5
t132.5 104.5zM483 172l148 690q-90 -21 -158.5 -99t-100.5 -174t-32 -192q0 -185 143 -225z" />
    <glyph glyph-name="sterling" unicode="&#xa3;" 
d="M561 881q0 -72 6 -146h412l-37 -174h-375q-21 -226 -182 -332q59 -6 158 -30q127 -31 213 -31q61 0 119 17t141 59l53 -178q-94 -52 -165.5 -72.5t-149.5 -20.5q-106 0 -267 41q-69 16 -96 21.5t-64 10.5t-73 5q-59 0 -106.5 -13t-114.5 -42l-31 178q176 61 251 146
t81 241h-197l37 174h156q-4 110 -4 146q0 233 118 383q119 155 394 155q131 0 237 -42t201 -128l-143 -151q-81 66 -152 94.5t-150 28.5q-143 0 -206.5 -88t-63.5 -252z" />
    <glyph glyph-name="currency" unicode="&#xa4;" 
d="M997 1190l101 -98l-131 -131q84 -116 84 -265q0 -148 -84 -264l131 -131l-101 -98l-133 133q-110 -70 -256 -70q-145 0 -260 74l-139 -137l-98 98l137 135q-82 110 -82 260q0 149 80 258l-137 138l100 98l137 -139q112 75 262 75q148 0 254 -69zM332 696q0 -124 77 -201
t199 -77t199.5 77t77.5 201t-77.5 201.5t-199.5 77.5t-199 -77.5t-77 -201.5z" />
    <glyph glyph-name="yen" unicode="&#xa5;" 
d="M1346 1393l-428 -549h235l-33 -160h-327l-54 -70l-18 -90h364l-32 -159h-367l-76 -365h-233l78 365h-363l35 159h360l21 92l-23 68h-325l35 160h235l-190 549h235l184 -564l422 564h265z" />
    <glyph glyph-name="brokenbar" unicode="&#xa6;" horiz-adv-x="792" 
d="M494 1638v-819h-195v819h195zM494 532v-819h-195v819h195z" />
    <glyph glyph-name="section" unicode="&#xa7;" 
d="M1063 164q0 -149 -127 -245.5t-332 -96.5q-143 0 -255 39t-228 131l121 149q115 -82 188 -108q82 -29 176 -29q108 0 175 42t67 110q0 44 -31 69q-31 28 -86 43q-106 29 -186 45q-246 53 -350 127q-107 76 -107 224q0 169 172 251q-61 38 -88 92t-27 134q0 149 127 245.5
t332 96.5q143 0 255 -39t228 -131l-120 -152q-113 83 -189 109q-79 28 -176 28q-108 0 -175 -41.5t-67 -107.5q0 -44 31 -72q30 -24 86.5 -41.5t186.5 -44.5q247 -53 351.5 -128.5t104.5 -219.5q0 -172 -172 -254q61 -38 88 -91.5t27 -133.5zM639 494q19 -5 34 -8t29.5 -6.5
t10.5 -2.5q88 19 138 58.5t50 93.5q0 52 -43 86q-39 33 -100 49q-139 36 -189 47q-38 9 -73 16q-88 -18 -138.5 -56.5t-50.5 -94.5q0 -51 41 -86q40 -30 99 -49t192 -47z" />
    <glyph glyph-name="dieresis" unicode="&#xa8;" horiz-adv-x="813" 
d="M522 1438l-49 -232h-217l51 232h215zM901 1438l-49 -232h-217l49 232h217z" />
    <glyph glyph-name="copyright" unicode="&#xa9;" horiz-adv-x="1753" 
d="M123 727q-3 206 98 381.5t276 276t380 96.5q154 3 294.5 -56t241.5 -160t160 -242t57 -296q2 -155 -57 -296t-160 -242t-241.5 -160t-294.5 -56q-205 -4 -380 96.5t-276 276t-98 381.5zM1493 727q2 174 -78.5 320.5t-223 231.5t-314.5 83q-129 1 -244.5 -48.5
t-197.5 -135t-129 -203.5t-46 -248q-1 -130 46 -248t129 -203.5t197.5 -135t244.5 -48.5q172 -2 314.5 83t223 231.5t78.5 320.5zM459 727q0 195 119 324t307 129q248 0 360 -219l-135 -64q-44 77 -96.5 109t-128.5 32q-121 0 -194 -85.5t-73 -225.5q0 -138 73.5 -224.5
t193.5 -86.5q82 0 132 35t101 127l133 -68q-64 -125 -148.5 -180.5t-217.5 -55.5q-188 0 -307 129t-119 324z" />
    <glyph glyph-name="ordfeminine" unicode="&#xaa;" horiz-adv-x="878" 
d="M928 1235q0 -31 -6 -66l-115 -524h-156l21 94q-106 -121 -289 -121q-111 0 -179.5 53t-68.5 140q0 133 96.5 204.5t325.5 108.5l191 31l4 19q4 32 4 34q0 113 -152 113q-68 0 -131.5 -29.5t-138.5 -95.5l-96 113q99 85 188 121t199 36q153 0 228 -62t75 -169zM707 963
l14 67l-154 -33q-136 -27 -195 -61.5t-59 -93.5q0 -80 121 -80q101 0 175.5 52.5t97.5 148.5z" />
    <glyph glyph-name="guillemotleft" unicode="&#xab;" horiz-adv-x="1216" 
d="M733 973l-405 -471l190 -439h-205l-194 455l387 455h227zM1194 973l-406 -471l193 -439h-205l-194 455l385 455h227z" />
    <glyph glyph-name="logicalnot" unicode="&#xac;" horiz-adv-x="1228" 
d="M82 731h1065v-588h-195v396h-870v192z" />
    <glyph glyph-name="registered" unicode="&#xae;" horiz-adv-x="1122" 
d="M109 1026q0 192 130 322.5t322 130.5t322.5 -130.5t130.5 -322.5t-130.5 -322.5t-322.5 -130.5t-322 130.5t-130 322.5zM918 1026q0 157 -102 262t-255 105t-254.5 -105t-101.5 -262t101.5 -262t254.5 -105t255 105t102 262zM385 780v508h213q71 0 117.5 -46t46.5 -114
q0 -50 -26.5 -90t-71.5 -59l120 -199h-110l-113 189h-76v-189h-100zM485 1053h95q40 0 62 20t22 53t-22 52.5t-62 19.5h-95v-145z" />
    <glyph glyph-name="overscore" unicode="&#xaf;" horiz-adv-x="819" 
d="M895 1378l-35 -164h-602l35 164h602z" />
    <glyph glyph-name="degree" unicode="&#xb0;" horiz-adv-x="862" 
d="M123 1180q0 128 89.5 214.5t217.5 86.5q130 0 219.5 -86.5t89.5 -214.5t-89.5 -215.5t-219.5 -87.5q-128 0 -217.5 87.5t-89.5 215.5zM594 1180q0 72 -46 117.5t-118 45.5t-117 -45.5t-45 -117.5t46.5 -119t115.5 -47q72 0 118 47t46 119z" />
    <glyph glyph-name="plusminus" unicode="&#xb1;" horiz-adv-x="1228" 
d="M713 1384v-436h434v-192h-434v-437h-197v437h-434v192h434v436h197zM1147 193v-193h-1065v193h1065z" />
    <glyph glyph-name="uni00B2" unicode="&#xb2;" horiz-adv-x="839" 
d="M311 762h486l-31 -144h-668l15 68q25 122 107.5 201.5t236.5 150.5l69 31q121 53 162 85t41 83q0 44 -34.5 67t-98.5 23q-62 0 -122.5 -23.5t-139.5 -78.5l-72 123q175 129 352 129q129 0 207 -60t78 -155q-2 -51 -14.5 -88t-35.5 -68.5t-69.5 -62.5t-103 -59.5
t-150.5 -70.5q-93 -39 -142.5 -73.5t-72.5 -77.5z" />
    <glyph glyph-name="uni00B3" unicode="&#xb3;" horiz-adv-x="831" 
d="M905 1454l-31 -141l-292 -195q109 -1 173 -61t64 -154q0 -126 -97.5 -216.5t-258.5 -90.5q-183 0 -346 111l92 120q78 -44 136 -63t118 -19q88 0 136 38t48 98q0 56 -40 87t-120 31q-65 0 -100 -12l-59 100l329 224h-387l31 143h604z" />
    <glyph glyph-name="acute" unicode="&#xb4;" horiz-adv-x="622" 
d="M715 1460l-260 -293h-207l205 293h262z" />
    <glyph glyph-name="uni00B5" unicode="&#xb5;" horiz-adv-x="1146" 
d="M887 1028h225l-217 -1028h-207l31 150q-56 -82 -132.5 -130.5t-160.5 -48.5q-121 0 -174 74l-90 -420h-225l296 1403h226l-129 -608q-15 -64 -15 -119q0 -69 33.5 -102t110.5 -33q113 0 194.5 79t116.5 230z" />
    <glyph glyph-name="paragraph" unicode="&#xb6;" horiz-adv-x="1368" 
d="M866 1454v-1659h-176v746h-158q-208 0 -336 125t-128 331t128 331.5t336 125.5h334zM1210 1454v-1659h-176v1659h176z" />
    <glyph glyph-name="middot" unicode="&#xb7;" horiz-adv-x="471" 
d="M422 793l-55 -263h-254l55 263h254z" />
    <glyph glyph-name="cedilla" unicode="&#xb8;" horiz-adv-x="673" 
d="M389 -287q0 -88 -62.5 -144t-176.5 -56q-123 0 -238 71l70 99q97 -54 165 -54q51 0 82 21.5t31 56.5q0 29 -28.5 46.5t-71.5 17.5q-32 0 -60 -7l-51 56l148 221l96 -41l-90 -135h4q79 0 130.5 -43t51.5 -109z" />
    <glyph glyph-name="uni00B9" unicode="&#xb9;" horiz-adv-x="665" 
d="M522 1454h131l-176 -836h-170l127 619l-155 -96l-60 123z" />
    <glyph glyph-name="ordmasculine" unicode="&#xba;" horiz-adv-x="950" 
d="M993 1145q1 -89 -30.5 -180.5t-90 -169.5t-152.5 -126.5t-206 -45.5q-147 0 -238.5 90t-91.5 233q-1 70 18 143.5t59.5 143t96 123t135 85t169.5 29.5q149 0 240 -89.5t91 -235.5zM360 961q0 -88 45.5 -138.5t124.5 -50.5q86 0 153.5 59t99.5 139t32 160q0 89 -44.5 140
t-125.5 51q-65 0 -120.5 -34t-90.5 -87.5t-54.5 -116t-19.5 -122.5z" />
    <glyph glyph-name="guillemotright" unicode="&#xbb;" horiz-adv-x="1216" 
d="M438 973l197 -455l-387 -455h-228l406 472l-193 438h205zM901 973l195 -455l-385 -455h-228l406 472l-193 438h205z" />
    <glyph glyph-name="onequarter" unicode="&#xbc;" horiz-adv-x="1802" 
d="M510 1393h131l-176 -836h-170l127 619l-156 -97l-59 123zM1452 1425l117 -92l-1260 -1366l-112 94zM1602 317h108l-29 -135h-108l-39 -182h-168l39 182h-420l35 160l420 494h196l-438 -519h236l36 168h168z" />
    <glyph glyph-name="onehalf" unicode="&#xbd;" horiz-adv-x="2056" 
d="M510 1393h131l-176 -836h-170l127 619l-156 -97l-59 123zM1452 1425l117 -92l-1260 -1366l-112 94zM1278 143h485l-30 -143h-668l14 68q25 122 107.5 201.5t236.5 150.5l70 31q121 53 162 84.5t41 82.5q0 44 -35 67.5t-98 23.5q-62 0 -123 -24t-140 -79l-71 123
q175 129 352 129q129 0 207 -60t78 -155q-2 -51 -14.5 -88t-35.5 -68t-69.5 -62t-102.5 -59.5t-151 -70.5q-93 -39 -142.5 -74t-72.5 -78z" />
    <glyph glyph-name="threequarters" unicode="&#xbe;" horiz-adv-x="2000" 
d="M893 1393l-31 -142l-293 -194q109 -1 173.5 -61t64.5 -154q0 -126 -97.5 -216.5t-258.5 -90.5q-185 0 -347 110l93 121q78 -44 136 -63t118 -19q88 0 136 38t48 97q0 56 -40 87.5t-120 31.5q-65 0 -100 -12l-60 100l330 223h-387l31 144h604zM1653 1425l116 -92
l-1259 -1366l-113 94zM1800 317h109l-29 -135h-108l-39 -182h-168l39 182h-420l35 160l419 494h197l-438 -519h235l37 168h168z" />
    <glyph glyph-name="questiondown" unicode="&#xbf;" horiz-adv-x="976" 
d="M457 768l55 262h254l-55 -262h-254zM-125 -137q0 92 35 164q34 67 103.5 131.5t213.5 167.5q100 71 142 116q45 45 69 113l17 47h198l-12 -55q-14 -58 -23.5 -88.5t-26 -65.5t-44 -64t-67 -63.5t-105.5 -83.5l-41 -28q-128 -90 -174 -142q-45 -48 -45 -121q0 -63 52 -101
t140 -38q170 0 383 164l111 -168q-263 -205 -529 -205q-174 0 -284 88q-113 85 -113 232z" />
    <glyph glyph-name="Agrave" unicode="&#xc0;" horiz-adv-x="1419" 
d="M1042 0l-45 328h-641l-184 -328h-254l834 1454h317l213 -1454h-240zM469 528h502l-25 181l-18 139q-43 312 -51 426q-107 -208 -310 -569zM709 1872h237l80 -293h-182z" />
    <glyph glyph-name="Aacute" unicode="&#xc1;" horiz-adv-x="1419" 
d="M1042 0l-45 328h-641l-184 -328h-254l834 1454h317l213 -1454h-240zM469 528h502l-25 181l-18 139q-43 312 -51 426q-107 -208 -310 -569zM1300 1872l-260 -293h-206l204 293h262z" />
    <glyph glyph-name="Acircumflex" unicode="&#xc2;" horiz-adv-x="1419" 
d="M1042 0l-45 328h-641l-184 -328h-254l834 1454h317l213 -1454h-240zM469 528h502l-25 181l-18 139q-43 312 -51 426q-107 -208 -310 -569zM1104 1579l-119 193l-203 -193h-200l272 293h283l145 -293h-178z" />
    <glyph glyph-name="Atilde" unicode="&#xc3;" horiz-adv-x="1419" 
d="M1042 0l-45 328h-641l-184 -328h-254l834 1454h317l213 -1454h-240zM469 528h502l-25 181l-18 139q-43 312 -51 426q-107 -208 -310 -569zM1008 1772q39 -26 57.5 -34.5t40.5 -8.5q65 0 86 100h137q-24 -115 -83 -178.5t-134 -63.5q-39 0 -69.5 12t-86.5 43
q-34 19 -48.5 26.5t-32.5 13.5t-35 6q-66 0 -90 -99h-140q24 114 89 178t149 64q41 0 74 -13t86 -46z" />
    <glyph glyph-name="Adieresis" unicode="&#xc4;" horiz-adv-x="1419" 
d="M1042 0l-45 328h-641l-184 -328h-254l834 1454h317l213 -1454h-240zM469 528h502l-25 181l-18 139q-43 312 -51 426q-107 -208 -310 -569zM913 1849l-49 -231h-217l51 231h215zM1292 1849l-49 -231h-217l49 231h217z" />
    <glyph glyph-name="Aring" unicode="&#xc5;" horiz-adv-x="1431" 
d="M1059 0l-45 328h-660l-184 -328h-252l825 1444q-67 70 -67 168q0 115 85.5 196.5t205.5 81.5q110 0 181 -68t71 -171q0 -72 -34.5 -134t-94.5 -100l206 -1417h-237zM803 1614q0 -57 36 -94t91 -37q70 0 116 46.5t46 117.5q0 60 -35.5 96.5t-95.5 36.5q-66 0 -112 -48.5
t-46 -117.5zM467 528h520l-24 181q-47 343 -72 596q-58 -119 -301 -557l-25 -43z" />
    <glyph glyph-name="AE" unicode="&#xc6;" horiz-adv-x="2021" 
d="M2060 1249h-755l-86 -397h704l-43 -203h-704l-93 -444h775l-43 -205h-1018l69 328h-471l-235 -328h-262l1052 1454h1153zM539 528h370l156 732z" />
    <glyph glyph-name="Ccedilla" unicode="&#xc7;" horiz-adv-x="1398" 
d="M1157 395l150 -151q-139 -146 -280 -211.5t-300 -65.5h-22l-68 -102h4q80 0 132 -43t52 -109q0 -88 -63 -144t-178 -56q-123 0 -238 71l70 99q97 -54 166 -54q51 0 81.5 21.5t30.5 56.5q0 29 -28.5 46.5t-71.5 17.5q-31 0 -59 -7l-52 56l107 160q-223 40 -346 196
q-121 157 -121 383q0 205 84 420q86 217 270 360q189 148 471 148q310 0 506 -248l-172 -145q-85 97 -168 139.5t-186 42.5q-108 3 -202 -39.5t-158.5 -114t-111 -163.5t-68.5 -189t-21 -190q0 -186 95 -293t267 -107q113 0 205 47.5t223 167.5z" />
    <glyph glyph-name="Egrave" unicode="&#xc8;" horiz-adv-x="1280" 
d="M1362 1454l-45 -205h-754l-86 -397h705l-43 -203h-705l-94 -444h776l-43 -205h-1018l310 1454h997zM659 1872h238l80 -293h-182z" />
    <glyph glyph-name="Eacute" unicode="&#xc9;" horiz-adv-x="1280" 
d="M1362 1454l-45 -205h-754l-86 -397h705l-43 -203h-705l-94 -444h776l-43 -205h-1018l310 1454h997zM1251 1872l-260 -293h-207l205 293h262z" />
    <glyph glyph-name="Ecircumflex" unicode="&#xca;" horiz-adv-x="1280" 
d="M1362 1454l-45 -205h-754l-86 -397h705l-43 -203h-705l-94 -444h776l-43 -205h-1018l310 1454h997zM1057 1579l-119 193l-203 -193h-200l272 293h283l145 -293h-178z" />
    <glyph glyph-name="Edieresis" unicode="&#xcb;" horiz-adv-x="1280" 
d="M1362 1454l-45 -205h-754l-86 -397h705l-43 -203h-705l-94 -444h776l-43 -205h-1018l310 1454h997zM864 1849l-49 -231h-217l51 231h215zM1243 1849l-49 -231h-217l49 231h217z" />
    <glyph glyph-name="Igrave" unicode="&#xcc;" horiz-adv-x="598" 
d="M621 1454l-310 -1454h-241l309 1454h242zM299 1872h238l79 -293h-182z" />
    <glyph glyph-name="Iacute" unicode="&#xcd;" horiz-adv-x="598" 
d="M621 1454l-310 -1454h-241l309 1454h242zM891 1872l-260 -293h-207l205 293h262z" />
    <glyph glyph-name="Icircumflex" unicode="&#xce;" horiz-adv-x="598" 
d="M621 1454l-310 -1454h-241l309 1454h242zM696 1579l-118 193l-203 -193h-201l272 293h283l145 -293h-178z" />
    <glyph glyph-name="Idieresis" unicode="&#xcf;" horiz-adv-x="598" 
d="M621 1454l-310 -1454h-241l309 1454h242zM504 1849l-49 -231h-217l51 231h215zM883 1849l-49 -231h-218l50 231h217z" />
    <glyph glyph-name="Eth" unicode="&#xd0;" horiz-adv-x="1521" 
d="M1485 881q0 -206 -80 -410q-77 -202 -252 -336q-175 -135 -442 -135h-602l137 649h-164l43 203h164l129 602h467q285 0 442.5 -155.5t157.5 -417.5zM1241 866q0 188 -95.5 285.5t-279.5 97.5h-250l-84 -397h361l-43 -203h-363l-94 -444h287q119 -2 216 37.5t160.5 105.5
t106 154t61 179t17.5 185z" />
    <glyph glyph-name="Ntilde" unicode="&#xd1;" horiz-adv-x="1525" 
d="M1327 1454h236l-310 -1454h-256l-266 625q-148 348 -209 524q-38 -238 -110 -578l-121 -571h-236l310 1454h260l274 -649l27 -64q121 -293 168 -430q27 158 106 553zM1061 1772q39 -26 57.5 -34.5t40.5 -8.5q65 0 86 100h137q-24 -115 -83 -178.5t-134 -63.5
q-27 0 -53.5 7.5t-44 16.5t-57.5 31q-33 19 -48.5 26.5t-33.5 13.5t-35 6q-66 0 -90 -99h-139q24 115 88.5 178.5t148.5 63.5q41 0 74 -13t86 -46z" />
    <glyph glyph-name="Ograve" unicode="&#xd2;" horiz-adv-x="1554" 
d="M1522 881q2 -105 -21.5 -213t-68.5 -211t-115 -193.5t-156.5 -157.5t-199.5 -104.5t-238 -34.5q-275 0 -437.5 163t-162.5 443q0 203 90 418t270 355q181 141 445 141q272 0 433 -163.5t161 -442.5zM369 588q0 -195 94 -301.5t264 -106.5q104 -3 195.5 39t155 113
t109.5 162t68 187t21 187q0 195 -92 300.5t-262 105.5q-104 3 -196 -39t-156.5 -113t-111 -162t-68.5 -186.5t-21 -185.5zM782 1872h238l80 -293h-182z" />
    <glyph glyph-name="Oacute" unicode="&#xd3;" horiz-adv-x="1554" 
d="M1522 881q2 -105 -21.5 -213t-68.5 -211t-115 -193.5t-156.5 -157.5t-199.5 -104.5t-238 -34.5q-275 0 -437.5 163t-162.5 443q0 203 90 418t270 355q181 141 445 141q272 0 433 -163.5t161 -442.5zM369 588q0 -195 94 -301.5t264 -106.5q104 -3 195.5 39t155 113
t109.5 162t68 187t21 187q0 195 -92 300.5t-262 105.5q-104 3 -196 -39t-156.5 -113t-111 -162t-68.5 -186.5t-21 -185.5zM1376 1872l-260 -293h-207l205 293h262z" />
    <glyph glyph-name="Ocircumflex" unicode="&#xd4;" horiz-adv-x="1554" 
d="M1522 881q2 -105 -21.5 -213t-68.5 -211t-115 -193.5t-156.5 -157.5t-199.5 -104.5t-238 -34.5q-275 0 -437.5 163t-162.5 443q0 203 90 418t270 355q181 141 445 141q272 0 433 -163.5t161 -442.5zM369 588q0 -195 94 -301.5t264 -106.5q104 -3 195.5 39t155 113
t109.5 162t68 187t21 187q0 195 -92 300.5t-262 105.5q-104 3 -196 -39t-156.5 -113t-111 -162t-68.5 -186.5t-21 -185.5zM1180 1579l-119 193l-203 -193h-201l273 293h282l146 -293h-178z" />
    <glyph glyph-name="Otilde" unicode="&#xd5;" horiz-adv-x="1554" 
d="M1522 881q2 -105 -21.5 -213t-68.5 -211t-115 -193.5t-156.5 -157.5t-199.5 -104.5t-238 -34.5q-275 0 -437.5 163t-162.5 443q0 203 90 418t270 355q181 141 445 141q272 0 433 -163.5t161 -442.5zM369 588q0 -195 94 -301.5t264 -106.5q104 -3 195.5 39t155 113
t109.5 162t68 187t21 187q0 195 -92 300.5t-262 105.5q-104 3 -196 -39t-156.5 -113t-111 -162t-68.5 -186.5t-21 -185.5zM1083 1772q38 -25 57.5 -34t41.5 -9q65 0 86 100h137q-24 -115 -83 -178.5t-134 -63.5q-39 0 -69.5 12t-86.5 43q-33 19 -48.5 26.5t-33.5 13.5t-35 6
q-66 0 -90 -99h-139q24 114 89 178t149 64q41 0 73.5 -13t85.5 -46z" />
    <glyph glyph-name="Odieresis" unicode="&#xd6;" horiz-adv-x="1554" 
d="M1522 881q2 -105 -21.5 -213t-68.5 -211t-115 -193.5t-156.5 -157.5t-199.5 -104.5t-238 -34.5q-275 0 -437.5 163t-162.5 443q0 203 90 418t270 355q181 141 445 141q272 0 433 -163.5t161 -442.5zM369 588q0 -195 94 -301.5t264 -106.5q104 -3 195.5 39t155 113
t109.5 162t68 187t21 187q0 195 -92 300.5t-262 105.5q-104 3 -196 -39t-156.5 -113t-111 -162t-68.5 -186.5t-21 -185.5zM989 1849l-49 -231h-217l51 231h215zM1368 1849l-49 -231h-217l49 231h217z" />
    <glyph glyph-name="multiply" unicode="&#xd7;" horiz-adv-x="1228" 
d="M1100 983l-348 -348l348 -348l-137 -137l-349 348l-348 -348l-137 137l348 348l-348 348l137 137l348 -348l349 348z" />
    <glyph glyph-name="Oslash" unicode="&#xd8;" horiz-adv-x="1556" 
d="M1593 1358l-151 -148q80 -142 80 -331q1 -126 -31.5 -255.5t-100 -249t-161 -211.5t-224.5 -145.5t-280 -50.5q-253 0 -414 142l-123 -121l-116 108l137 135q-86 145 -86 344q0 208 88 418q89 212 270 353q182 141 445 141q258 0 417 -150l134 129zM393 410l785 766
q-91 98 -256 98q-104 3 -196 -39t-156.5 -113t-111 -162t-68.5 -186.5t-21 -185.5q0 -102 24 -178zM1255 1028l-778 -758q96 -90 250 -90q103 -3 194 39t155 113t110.5 162t68.5 187t21 187q0 93 -21 160z" />
    <glyph glyph-name="Ugrave" unicode="&#xd9;" horiz-adv-x="1441" 
d="M1487 1454l-209 -983q-108 -504 -614 -504q-533 0 -533 385q0 58 23 170l198 932h242l-205 -952q-10 -62 -10 -103q0 -104 74.5 -161.5t210.5 -57.5q307 0 374 309l205 965h244zM702 1872h238l80 -293h-182z" />
    <glyph glyph-name="Uacute" unicode="&#xda;" horiz-adv-x="1441" 
d="M1487 1454l-209 -983q-108 -504 -614 -504q-533 0 -533 385q0 58 23 170l198 932h242l-205 -952q-10 -62 -10 -103q0 -104 74.5 -161.5t210.5 -57.5q307 0 374 309l205 965h244zM1294 1872l-260 -293h-207l205 293h262z" />
    <glyph glyph-name="Ucircumflex" unicode="&#xdb;" horiz-adv-x="1441" 
d="M1487 1454l-209 -983q-108 -504 -614 -504q-533 0 -533 385q0 58 23 170l198 932h242l-205 -952q-10 -62 -10 -103q0 -104 74.5 -161.5t210.5 -57.5q307 0 374 309l205 965h244zM1100 1579l-119 193l-203 -193h-200l272 293h283l145 -293h-178z" />
    <glyph glyph-name="Udieresis" unicode="&#xdc;" horiz-adv-x="1441" 
d="M1487 1454l-209 -983q-108 -504 -614 -504q-533 0 -533 385q0 58 23 170l198 932h242l-205 -952q-10 -62 -10 -103q0 -104 74.5 -161.5t210.5 -57.5q307 0 374 309l205 965h244zM907 1849l-49 -231h-217l51 231h215zM1286 1849l-49 -231h-217l49 231h217z" />
    <glyph glyph-name="Yacute" unicode="&#xdd;" horiz-adv-x="1298" 
d="M1190 1454h283l-695 -840l-131 -614h-241l129 616l-332 838h248l237 -618zM1221 1872l-260 -293h-207l204 293h263z" />
    <glyph glyph-name="Thorn" unicode="&#xde;" horiz-adv-x="1384" 
d="M1360 815q0 -103 -34.5 -193t-102 -162t-180 -113.5t-257.5 -41.5h-424l-65 -305h-242l310 1454h241l-53 -254h356q216 0 333.5 -105t117.5 -280zM1124 795q0 204 -262 204h-352l-104 -493h366q178 0 265 77.5t87 211.5z" />
    <glyph glyph-name="germandbls" unicode="&#xdf;" horiz-adv-x="1218" 
d="M1137 461q0 -92 -31 -176t-91 -152t-159 -108.5t-223 -40.5q-157 0 -266 41l71 180q101 -29 189 -29q136 0 213.5 82.5t77.5 208.5q0 109 -76 172t-209 63h-49l39 183h47q140 0 204 73q66 78 66 170q0 75 -49.5 120.5t-138.5 45.5q-110 0 -182 -71t-103 -211l-213 -1012
h-225l221 1042q47 219 180.5 331t339.5 112q180 0 283.5 -96t103.5 -238q0 -118 -61 -211t-176 -143q104 -43 160.5 -129.5t56.5 -206.5z" />
    <glyph glyph-name="agrave" unicode="&#xe0;" horiz-adv-x="1189" 
d="M948 1028h207l-219 -1028h-203l35 162q-132 -187 -350 -187q-170 0 -263.5 104.5t-93.5 289.5q-2 97 22 196t72.5 187.5t115 157.5t156.5 108.5t189 36.5q237 0 297 -189zM838 653q0 101 -50.5 157t-150.5 56q-84 2 -153.5 -43t-111 -117t-64 -153t-21.5 -156
q0 -231 196 -231q75 -3 143.5 40.5t114.5 114t72 158.5t25 174zM502 1460h237l80 -293h-182z" />
    <glyph glyph-name="aacute" unicode="&#xe1;" horiz-adv-x="1189" 
d="M948 1028h207l-219 -1028h-203l35 162q-132 -187 -350 -187q-170 0 -263.5 104.5t-93.5 289.5q-2 97 22 196t72.5 187.5t115 157.5t156.5 108.5t189 36.5q237 0 297 -189zM838 653q0 101 -50.5 157t-150.5 56q-84 2 -153.5 -43t-111 -117t-64 -153t-21.5 -156
q0 -231 196 -231q75 -3 143.5 40.5t114.5 114t72 158.5t25 174zM1096 1460l-260 -293h-207l205 293h262z" />
    <glyph glyph-name="acircumflex" unicode="&#xe2;" horiz-adv-x="1189" 
d="M948 1028h207l-219 -1028h-203l35 162q-132 -187 -350 -187q-170 0 -263.5 104.5t-93.5 289.5q-2 97 22 196t72.5 187.5t115 157.5t156.5 108.5t189 36.5q237 0 297 -189zM838 653q0 101 -50.5 157t-150.5 56q-84 2 -153.5 -43t-111 -117t-64 -153t-21.5 -156
q0 -231 196 -231q75 -3 143.5 40.5t114.5 114t72 158.5t25 174zM899 1167l-119 193l-202 -193h-201l272 293h283l145 -293h-178z" />
    <glyph glyph-name="atilde" unicode="&#xe3;" horiz-adv-x="1189" 
d="M948 1028h207l-219 -1028h-203l35 162q-132 -187 -350 -187q-170 0 -263.5 104.5t-93.5 289.5q-2 97 22 196t72.5 187.5t115 157.5t156.5 108.5t189 36.5q237 0 297 -189zM838 653q0 101 -50.5 157t-150.5 56q-84 2 -153.5 -43t-111 -117t-64 -153t-21.5 -156
q0 -231 196 -231q75 -3 143.5 40.5t114.5 114t72 158.5t25 174zM803 1360q39 -26 57.5 -34.5t40.5 -8.5q65 0 86 100h137q-24 -115 -83 -178t-134 -63q-27 0 -53.5 7.5t-44 16.5t-57.5 31q-46 26 -69.5 35.5t-47.5 9.5q-66 0 -90 -98h-139q24 114 88.5 177.5t148.5 63.5
q41 0 74 -13t86 -46z" />
    <glyph glyph-name="adieresis" unicode="&#xe4;" horiz-adv-x="1189" 
d="M948 1028h207l-219 -1028h-203l35 162q-132 -187 -350 -187q-170 0 -263.5 104.5t-93.5 289.5q-2 97 22 196t72.5 187.5t115 157.5t156.5 108.5t189 36.5q237 0 297 -189zM838 653q0 101 -50.5 157t-150.5 56q-84 2 -153.5 -43t-111 -117t-64 -153t-21.5 -156
q0 -231 196 -231q75 -3 143.5 40.5t114.5 114t72 158.5t25 174zM709 1438l-50 -232h-217l52 232h215zM1087 1438l-49 -232h-217l49 232h217z" />
    <glyph glyph-name="aring" unicode="&#xe5;" horiz-adv-x="1189" 
d="M948 1028h207l-219 -1028h-203l35 162q-132 -187 -350 -187q-170 0 -263.5 104.5t-93.5 289.5q-2 97 22 196t72.5 187.5t115 157.5t156.5 108.5t189 36.5q237 0 297 -189zM838 653q0 101 -50.5 157t-150.5 56q-84 2 -153.5 -43t-111 -117t-64 -153t-21.5 -156
q0 -231 196 -231q75 -3 143.5 40.5t114.5 114t72 158.5t25 174zM1006 1405q0 -105 -74 -176q-72 -72 -180 -72q-96 0 -155.5 58.5t-59.5 146.5q0 102 71 176q74 74 180 74q98 0 158 -58t60 -149zM649 1362q0 -47 29.5 -74.5t77.5 -27.5q57 0 96 41t39 102q0 51 -29 78.5
t-80 27.5q-57 0 -95 -42.5t-38 -104.5z" />
    <glyph glyph-name="ae" unicode="&#xe6;" horiz-adv-x="1828" 
d="M1716 467h-739q-4 -54 -4 -59q0 -117 59 -183.5t178 -66.5q88 0 160 40.5t176 139.5l142 -127q-211 -242 -488 -242q-246 0 -366 166q-185 -168 -439 -168q-163 0 -265.5 74t-102.5 201q0 311 481 360l278 25l9 43q8 31 8 67q0 137 -180 137q-169 0 -363 -167l-123 141
q236 213 502 213q122 0 206.5 -37.5t123.5 -105.5q152 143 387 143q178 0 287.5 -108.5t109.5 -268.5q0 -107 -37 -217zM1014 627h526q6 34 6 61q0 91 -54.5 144t-150.5 53q-116 0 -199 -69.5t-128 -188.5zM762 305q-10 62 -10 98q0 50 2 62l-222 -27q-149 -19 -213.5 -58.5
t-64.5 -113.5q0 -50 46 -82t124 -32q88 0 177.5 40t160.5 113z" />
    <glyph glyph-name="ccedilla" unicode="&#xe7;" horiz-adv-x="1052" 
d="M840 330l133 -133q-115 -121 -228 -174.5t-243 -53.5l-72 -104h6q79 0 130.5 -43t51.5 -109q0 -89 -62 -144.5t-179 -55.5q-123 0 -238 71l70 99q97 -54 166 -54q53 0 83.5 21t30.5 57q0 29 -28.5 46.5t-71.5 17.5q-31 0 -59 -7l-51 56l108 162q-149 32 -234 145t-85 279
q-1 88 22.5 180.5t74 178.5t119.5 153t166.5 106t208.5 37q249 0 390 -203l-158 -127q-62 78 -115 108.5t-131 30.5q-64 2 -121.5 -25t-99 -74t-72 -107t-45.5 -124.5t-14 -125.5q0 -118 58 -185t163 -67q81 0 150.5 36.5t175.5 131.5z" />
    <glyph glyph-name="egrave" unicode="&#xe8;" horiz-adv-x="1144" 
d="M1034 467h-743q-2 -12 -2 -55q0 -120 59.5 -187t175.5 -67q86 0 163 41t175 139l144 -127q-114 -130 -234.5 -186t-261.5 -56q-203 0 -322.5 120.5t-119.5 324.5q-1 84 22.5 173.5t74.5 175.5t121 153.5t170 107.5t214 37q177 0 288 -104t111 -267q0 -113 -35 -223z
M330 627h528q4 50 4 57q0 93 -54 147t-153 54q-112 0 -195.5 -69t-129.5 -189zM502 1460h237l80 -293h-182z" />
    <glyph glyph-name="eacute" unicode="&#xe9;" horiz-adv-x="1144" 
d="M1034 467h-743q-2 -12 -2 -55q0 -120 59.5 -187t175.5 -67q86 0 163 41t175 139l144 -127q-114 -130 -234.5 -186t-261.5 -56q-203 0 -322.5 120.5t-119.5 324.5q-1 84 22.5 173.5t74.5 175.5t121 153.5t170 107.5t214 37q177 0 288 -104t111 -267q0 -113 -35 -223z
M330 627h528q4 50 4 57q0 93 -54 147t-153 54q-112 0 -195.5 -69t-129.5 -189zM1094 1460l-260 -293h-207l204 293h263z" />
    <glyph glyph-name="ecircumflex" unicode="&#xea;" horiz-adv-x="1144" 
d="M1034 467h-743q-2 -12 -2 -55q0 -120 59.5 -187t175.5 -67q86 0 163 41t175 139l144 -127q-114 -130 -234.5 -186t-261.5 -56q-203 0 -322.5 120.5t-119.5 324.5q-1 84 22.5 173.5t74.5 175.5t121 153.5t170 107.5t214 37q177 0 288 -104t111 -267q0 -113 -35 -223z
M330 627h528q4 50 4 57q0 93 -54 147t-153 54q-112 0 -195.5 -69t-129.5 -189zM899 1167l-119 193l-202 -193h-201l272 293h283l145 -293h-178z" />
    <glyph glyph-name="edieresis" unicode="&#xeb;" horiz-adv-x="1144" 
d="M1034 467h-743q-2 -12 -2 -55q0 -120 59.5 -187t175.5 -67q86 0 163 41t175 139l144 -127q-114 -130 -234.5 -186t-261.5 -56q-203 0 -322.5 120.5t-119.5 324.5q-1 84 22.5 173.5t74.5 175.5t121 153.5t170 107.5t214 37q177 0 288 -104t111 -267q0 -113 -35 -223z
M330 627h528q4 50 4 57q0 93 -54 147t-153 54q-112 0 -195.5 -69t-129.5 -189zM707 1438l-50 -232h-217l52 232h215zM1085 1438l-49 -232h-217l49 232h217z" />
    <glyph glyph-name="igrave" unicode="&#xec;" horiz-adv-x="499" 
d="M471 1028l-217 -1028h-225l217 1028h225zM162 1460h237l80 -293h-182z" />
    <glyph glyph-name="iacute" unicode="&#xed;" horiz-adv-x="499" 
d="M471 1028l-217 -1028h-225l217 1028h225zM754 1460l-260 -293h-207l205 293h262z" />
    <glyph glyph-name="icircumflex" unicode="&#xee;" horiz-adv-x="499" 
d="M471 1028l-217 -1028h-225l217 1028h225zM559 1167l-119 193l-202 -193h-201l272 293h283l145 -293h-178z" />
    <glyph glyph-name="idieresis" unicode="&#xef;" horiz-adv-x="499" 
d="M471 1028l-217 -1028h-225l217 1028h225zM367 1438l-50 -232h-217l52 232h215zM745 1438l-49 -232h-217l49 232h217z" />
    <glyph glyph-name="eth" unicode="&#xf0;" horiz-adv-x="1150" 
d="M1096 1354l-166 -92q164 -170 164 -451q0 -196 -62 -391q-57 -189 -201 -324q-138 -129 -362 -129q-191 0 -300.5 112.5t-109.5 282.5q-2 109 31.5 216.5t96 197t164 144t224.5 51.5q115 0 194 -50t116 -135q2 10 2 50q0 192 -144 319l-225 -125l-63 100l180 101
q-48 32 -125 63l-84 37l106 154l89 -33q123 -45 213 -111l198 111zM817 551q0 106 -59.5 168.5t-163.5 62.5q-80 0 -142 -36t-97.5 -94.5t-53.5 -125.5t-18 -137q0 -106 54 -165.5t157 -59.5q75 0 138 36t102.5 92.5t61 124t21.5 134.5z" />
    <glyph glyph-name="ntilde" unicode="&#xf1;" horiz-adv-x="1157" 
d="M1069 782q0 -48 -16 -139l-135 -643h-226l133 635q11 72 11 94q0 139 -162 139q-111 0 -192.5 -76.5t-110.5 -213.5l-123 -578h-225l217 1028h204l-30 -141q122 172 340 172q147 0 231 -74t84 -203zM786 1360q38 -25 57.5 -34t41.5 -9q65 0 86 100h137q-24 -115 -83 -178
t-134 -63q-39 0 -69.5 12t-86.5 43q-46 26 -69.5 35.5t-47.5 9.5q-66 0 -90 -98h-139q24 114 89 177.5t149 63.5q41 0 73.5 -13t85.5 -46z" />
    <glyph glyph-name="ograve" unicode="&#xf2;" horiz-adv-x="1167" 
d="M1094 616q1 -83 -21 -172t-71 -175.5t-116.5 -154t-166 -108t-211.5 -37.5q-205 0 -322.5 118t-117.5 331q-1 81 21.5 169t71 174t116.5 154t166.5 108.5t211.5 37.5q203 0 321 -117t118 -328zM293 418q0 -122 59 -190t168 -68q79 -2 147.5 41.5t111 112.5t66.5 148
t23 152q0 256 -225 256q-80 3 -149 -40.5t-111.5 -113t-66.5 -148t-23 -150.5zM494 1460h237l80 -293h-182z" />
    <glyph glyph-name="oacute" unicode="&#xf3;" horiz-adv-x="1167" 
d="M1094 616q1 -83 -21 -172t-71 -175.5t-116.5 -154t-166 -108t-211.5 -37.5q-205 0 -322.5 118t-117.5 331q-1 81 21.5 169t71 174t116.5 154t166.5 108.5t211.5 37.5q203 0 321 -117t118 -328zM293 418q0 -122 59 -190t168 -68q79 -2 147.5 41.5t111 112.5t66.5 148
t23 152q0 256 -225 256q-80 3 -149 -40.5t-111.5 -113t-66.5 -148t-23 -150.5zM1085 1460l-260 -293h-207l205 293h262z" />
    <glyph glyph-name="ocircumflex" unicode="&#xf4;" horiz-adv-x="1167" 
d="M1094 616q1 -83 -21 -172t-71 -175.5t-116.5 -154t-166 -108t-211.5 -37.5q-205 0 -322.5 118t-117.5 331q-1 81 21.5 169t71 174t116.5 154t166.5 108.5t211.5 37.5q203 0 321 -117t118 -328zM293 418q0 -122 59 -190t168 -68q79 -2 147.5 41.5t111 112.5t66.5 148
t23 152q0 256 -225 256q-80 3 -149 -40.5t-111.5 -113t-66.5 -148t-23 -150.5zM891 1167l-119 193l-203 -193h-200l272 293h283l145 -293h-178z" />
    <glyph glyph-name="otilde" unicode="&#xf5;" horiz-adv-x="1167" 
d="M1094 616q1 -83 -21 -172t-71 -175.5t-116.5 -154t-166 -108t-211.5 -37.5q-205 0 -322.5 118t-117.5 331q-1 81 21.5 169t71 174t116.5 154t166.5 108.5t211.5 37.5q203 0 321 -117t118 -328zM293 418q0 -122 59 -190t168 -68q79 -2 147.5 41.5t111 112.5t66.5 148
t23 152q0 256 -225 256q-80 3 -149 -40.5t-111.5 -113t-66.5 -148t-23 -150.5zM795 1360q39 -26 57.5 -34.5t40.5 -8.5q65 0 86 100h137q-24 -115 -83 -178t-134 -63q-39 0 -69.5 12t-86.5 43q-47 26 -69.5 35.5t-46.5 9.5q-66 0 -90 -98h-140q24 114 89 177.5t149 63.5
q41 0 74 -13t86 -46z" />
    <glyph glyph-name="odieresis" unicode="&#xf6;" horiz-adv-x="1167" 
d="M1094 616q1 -83 -21 -172t-71 -175.5t-116.5 -154t-166 -108t-211.5 -37.5q-205 0 -322.5 118t-117.5 331q-1 81 21.5 169t71 174t116.5 154t166.5 108.5t211.5 37.5q203 0 321 -117t118 -328zM293 418q0 -122 59 -190t168 -68q79 -2 147.5 41.5t111 112.5t66.5 148
t23 152q0 256 -225 256q-80 3 -149 -40.5t-111.5 -113t-66.5 -148t-23 -150.5zM700 1438l-49 -232h-217l51 232h215zM1079 1438l-49 -232h-217l49 232h217z" />
    <glyph glyph-name="divide" unicode="&#xf7;" horiz-adv-x="1228" 
d="M741 1143v-262h-254v262h254zM1147 731v-192h-1065v192h1065zM741 389v-262h-254v262h254z" />
    <glyph glyph-name="oslash" unicode="&#xf8;" horiz-adv-x="1165" 
d="M1100 997l-88 -98q82 -110 82 -283q1 -83 -22 -172t-71.5 -175.5t-116 -154t-165.5 -108t-211 -37.5q-151 0 -260 68l-78 -88l-102 86l84 94q-84 116 -84 289q-1 81 21.5 169t71 174t116.5 154t166.5 108.5t211.5 37.5q153 0 263 -70l79 90zM307 305l471 531
q-52 34 -133 34q-65 2 -123.5 -26t-99.5 -76t-71 -108t-44.5 -122.5t-13.5 -119.5q0 -70 14 -113zM856 721l-469 -526q53 -35 131 -35q79 -3 147.5 41t111.5 113t67.5 149t23.5 153q0 58 -12 105z" />
    <glyph glyph-name="ugrave" unicode="&#xf9;" horiz-adv-x="1140" 
d="M883 1028h225l-219 -1028h-205l31 145q-56 -82 -144 -128t-192 -46q-142 0 -222.5 71.5t-80.5 193.5q0 68 18 151l133 641h226l-127 -610q-19 -87 -19 -123q0 -65 39 -98t109 -33q113 0 195 79.5t114 231.5zM457 1460h237l80 -293h-182z" />
    <glyph glyph-name="uacute" unicode="&#xfa;" horiz-adv-x="1140" 
d="M883 1028h225l-219 -1028h-205l31 145q-56 -82 -144 -128t-192 -46q-142 0 -222.5 71.5t-80.5 193.5q0 68 18 151l133 641h226l-127 -610q-19 -87 -19 -123q0 -65 39 -98t109 -33q113 0 195 79.5t114 231.5zM1049 1460l-261 -293h-206l204 293h263z" />
    <glyph glyph-name="ucircumflex" unicode="&#xfb;" horiz-adv-x="1140" 
d="M883 1028h225l-219 -1028h-205l31 145q-56 -82 -144 -128t-192 -46q-142 0 -222.5 71.5t-80.5 193.5q0 68 18 151l133 641h226l-127 -610q-19 -87 -19 -123q0 -65 39 -98t109 -33q113 0 195 79.5t114 231.5zM854 1167l-119 193l-203 -193h-200l272 293h283l145 -293h-178
z" />
    <glyph glyph-name="udieresis" unicode="&#xfc;" horiz-adv-x="1140" 
d="M883 1028h225l-219 -1028h-205l31 145q-56 -82 -144 -128t-192 -46q-142 0 -222.5 71.5t-80.5 193.5q0 68 18 151l133 641h226l-127 -610q-19 -87 -19 -123q0 -65 39 -98t109 -33q113 0 195 79.5t114 231.5zM662 1438l-50 -232h-217l51 232h216zM1040 1438l-49 -232h-217
l49 232h217z" />
    <glyph glyph-name="yacute" unicode="&#xfd;" horiz-adv-x="1044" 
d="M881 1028h233l-641 -1165q-78 -143 -163.5 -201.5t-215.5 -58.5q-103 0 -182 26l59 166q62 -10 107 -10q67 0 112 32t95 117l12 19l-162 1075h225l43 -344q4 -31 54 -465q156 315 231 455zM1004 1460l-261 -293h-206l204 293h263z" />
    <glyph glyph-name="thorn" unicode="&#xfe;" horiz-adv-x="1196" 
d="M1130 662q1 -97 -22 -196t-70 -188.5t-112 -159t-154.5 -109t-189.5 -36.5q-105 0 -181.5 44.5t-115.5 125.5l-111 -512h-225l389 1825h225l-121 -565q134 162 332 162q166 0 261 -104t95 -287zM905 631q0 118 -48 174.5t-150 56.5q-102 3 -188 -70t-131.5 -183
t-43.5 -224q0 -100 58 -160.5t157 -60.5q84 -3 153 41.5t110 116.5t62.5 152.5t20.5 156.5z" />
    <glyph glyph-name="ydieresis" unicode="&#xff;" horiz-adv-x="1044" 
d="M881 1028h233l-641 -1165q-78 -143 -163.5 -201.5t-215.5 -58.5q-103 0 -182 26l59 166q62 -10 107 -10q67 0 112 32t95 117l12 19l-162 1075h225l43 -344q4 -31 54 -465q156 315 231 455zM616 1438l-49 -232h-217l51 232h215zM995 1438l-49 -232h-217l49 232h217z" />
    <glyph glyph-name="Amacron" unicode="&#x100;" horiz-adv-x="1419" 
d="M1042 0l-45 328h-641l-184 -328h-254l834 1454h317l213 -1454h-240zM469 528h502l-25 181l-18 139q-43 312 -51 426q-107 -208 -310 -569zM1282 1790l-35 -164h-602l35 164h602z" />
    <glyph glyph-name="amacron" unicode="&#x101;" horiz-adv-x="1189" 
d="M948 1028h207l-219 -1028h-203l35 162q-132 -187 -350 -187q-170 0 -263.5 104.5t-93.5 289.5q-2 97 22 196t72.5 187.5t115 157.5t156.5 108.5t189 36.5q237 0 297 -189zM838 653q0 101 -50.5 157t-150.5 56q-84 2 -153.5 -43t-111 -117t-64 -153t-21.5 -156
q0 -231 196 -231q75 -3 143.5 40.5t114.5 114t72 158.5t25 174zM1077 1378l-35 -164h-602l35 164h602z" />
    <glyph glyph-name="Abreve" unicode="&#x102;" horiz-adv-x="1419" 
d="M997 328l45 -328h240l-213 1454h-317l-834 -1454h254l184 328h641zM971 528h-502l98 177q203 361 310 569q8 -114 51 -426l18 -139zM1317 1849q-23 -139 -114 -212.5t-232 -73.5q-139 0 -218 66t-79 173q0 1 4 47h172l-2 -28q0 -127 129 -127q140 0 168 155h172z" />
    <glyph glyph-name="abreve" unicode="&#x103;" horiz-adv-x="1189" 
d="M1155 1028h-207l-35 -162q-60 189 -297 189q-99 3 -189 -36.5t-156.5 -108.5t-115 -157.5t-72.5 -187.5t-22 -196q0 -185 93.5 -289.5t263.5 -104.5q218 0 350 187l-35 -162h203zM838 653q1 -86 -25 -174t-72 -158.5t-114.5 -114t-143.5 -40.5q-196 0 -196 231
q-1 75 21.5 156t64 153t111 117t153.5 43q100 0 150.5 -56t50.5 -157zM1112 1438q-23 -139 -114 -213t-232 -74q-139 0 -218 66.5t-79 173.5q0 1 4 47h172l-2 -29q0 -127 129 -127q140 0 168 156h172z" />
    <glyph glyph-name="Aogonek" unicode="&#x104;" horiz-adv-x="1419" 
d="M1159 -297q39 0 60 8l-29 -135q-27 -12 -84 -12q-92 0 -141.5 44.5t-49.5 119.5q0 157 195 272h-68l-45 328h-641l-184 -328h-254l834 1454h317l213 -1454q-209 -117 -209 -225q0 -72 86 -72zM469 528h502l-25 181l-18 139q-43 312 -51 426q-107 -208 -310 -569z" />
    <glyph glyph-name="aogonek" unicode="&#x105;" horiz-adv-x="1189" 
d="M725 -225q0 -72 88 -72q38 0 59 8l-30 -135q-24 -12 -82 -12q-92 0 -142.5 44.5t-50.5 119.5q0 157 195 272h-29l35 162q-132 -187 -350 -187q-170 0 -263.5 104.5t-93.5 289.5q-2 97 22 196t72.5 187.5t115 157.5t156.5 108.5t189 36.5q237 0 297 -189l35 162h207
l-219 -1028q-211 -120 -211 -225zM838 653q0 101 -50.5 157t-150.5 56q-84 2 -153.5 -43t-111 -117t-64 -153t-21.5 -156q0 -231 196 -231q75 -3 143.5 40.5t114.5 114t72 158.5t25 174z" />
    <glyph glyph-name="Cacute" unicode="&#x106;" horiz-adv-x="1398" 
d="M1454 1239l-172 -145q-85 97 -168 139.5t-186 42.5q-108 3 -202 -39.5t-158.5 -114t-111 -163.5t-68.5 -189t-21 -190q0 -186 95 -293t267 -107q113 0 205 47.5t223 167.5l150 -151q-139 -146 -280 -211.5t-300 -65.5q-142 0 -257 45t-190.5 125t-116 188t-40.5 234
q0 205 84 420q86 217 270 360q189 148 471 148q310 0 506 -248zM1354 1872l-260 -293h-207l205 293h262z" />
    <glyph glyph-name="cacute" unicode="&#x107;" horiz-adv-x="1052" 
d="M645 870q-64 2 -121.5 -25t-99 -74t-72 -107t-45.5 -124.5t-14 -125.5q0 -118 58 -185t163 -67q81 0 150.5 36.5t175.5 131.5l133 -133q-115 -121 -228 -174.5t-243 -53.5q-197 0 -316 119q-118 118 -118 318q-1 88 22.5 180.5t74 178.5t119.5 153t166.5 106t208.5 37
q249 0 390 -203l-158 -127q-62 78 -115 108.5t-131 30.5zM1081 1460l-260 -293h-207l205 293h262z" />
    <glyph glyph-name="Cdotaccent" unicode="&#x10a;" horiz-adv-x="1398" 
d="M1454 1239l-172 -145q-85 97 -168 139.5t-186 42.5q-108 3 -202 -39.5t-158.5 -114t-111 -163.5t-68.5 -189t-21 -190q0 -186 95 -293t267 -107q113 0 205 47.5t223 167.5l150 -151q-139 -146 -280 -211.5t-300 -65.5q-142 0 -257 45t-190.5 125t-116 188t-40.5 234
q0 205 84 420q86 217 270 360q189 148 471 148q310 0 506 -248zM1159 1849l-49 -231h-225l49 231h225z" />
    <glyph glyph-name="cdotaccent" unicode="&#x10b;" horiz-adv-x="1052" 
d="M645 870q-64 2 -121.5 -25t-99 -74t-72 -107t-45.5 -124.5t-14 -125.5q0 -118 58 -185t163 -67q81 0 150.5 36.5t175.5 131.5l133 -133q-115 -121 -228 -174.5t-243 -53.5q-197 0 -316 119q-118 118 -118 318q-1 88 22.5 180.5t74 178.5t119.5 153t166.5 106t208.5 37
q249 0 390 -203l-158 -127q-62 78 -115 108.5t-131 30.5zM889 1438l-49 -232h-226l50 232h225z" />
    <glyph glyph-name="Ccaron" unicode="&#x10c;" horiz-adv-x="1398" 
d="M1454 1239l-172 -145q-85 97 -168 139.5t-186 42.5q-108 3 -202 -39.5t-158.5 -114t-111 -163.5t-68.5 -189t-21 -190q0 -186 95 -293t267 -107q113 0 205 47.5t223 167.5l150 -151q-139 -146 -280 -211.5t-300 -65.5q-142 0 -257 45t-190.5 125t-116 188t-40.5 234
q0 205 84 420q86 217 270 360q189 148 471 148q310 0 506 -248zM1405 1890l-272 -299h-283l-145 299h182l117 -198l200 198h201z" />
    <glyph glyph-name="ccaron" unicode="&#x10d;" horiz-adv-x="1052" 
d="M645 870q-64 2 -121.5 -25t-99 -74t-72 -107t-45.5 -124.5t-14 -125.5q0 -118 58 -185t163 -67q81 0 150.5 36.5t175.5 131.5l133 -133q-115 -121 -228 -174.5t-243 -53.5q-197 0 -316 119q-118 118 -118 318q-1 88 22.5 180.5t74 178.5t119.5 153t166.5 106t208.5 37
q249 0 390 -203l-158 -127q-62 78 -115 108.5t-131 30.5zM1135 1479l-273 -299h-282l-146 299h182l117 -199l201 199h201z" />
    <glyph glyph-name="Dcaron" unicode="&#x10e;" horiz-adv-x="1468" 
d="M1432 881q0 -206 -80 -410q-77 -202 -252 -336q-176 -135 -443 -135h-602l310 1454h466q285 0 443 -156t158 -417zM813 1249h-250l-223 -1044h287q119 -2 216 37.5t160.5 105.5t106 154t61 179t17.5 185q0 188 -95.5 285.5t-279.5 97.5zM1288 1890l-272 -299h-283
l-145 299h182l117 -198l200 198h201z" />
    <glyph glyph-name="dcaron" unicode="&#x10f;" horiz-adv-x="1490" 
d="M1030 1454h225l-309 -1454h-207l35 164q-139 -189 -354 -189q-170 0 -264.5 104.5t-94.5 289.5q-1 97 23 196t72.5 188t114.5 157.5t156.5 108t190.5 36.5q106 0 181 -42t110 -120zM846 643q0 105 -52 164t-153 59q-84 2 -154.5 -43.5t-112.5 -117t-65 -152.5t-22 -156
q0 -118 48 -174.5t150 -56.5q102 -3 187 70t130 183t44 224zM1718 1454l-243 -424h-148l174 424h217z" />
    <glyph glyph-name="Dcroat" unicode="&#x110;" horiz-adv-x="1521" 
d="M1485 881q0 -206 -80 -410q-77 -202 -252 -336q-175 -135 -442 -135h-602l137 649h-164l43 203h164l129 602h467q285 0 442.5 -155.5t157.5 -417.5zM1241 866q0 188 -95.5 285.5t-279.5 97.5h-250l-84 -397h361l-43 -203h-363l-94 -444h287q119 -2 216 37.5t160.5 105.5
t106 154t61 179t17.5 185z" />
    <glyph glyph-name="dslash" unicode="&#x111;" horiz-adv-x="1241" 
d="M1372 1303l-35 -156h-147l-244 -1147h-207l33 158q-133 -183 -352 -183q-170 0 -264.5 104.5t-94.5 289.5q-1 97 23 194.5t72.5 184t114.5 153.5t156 105t191 36q104 0 179 -41t110 -116l58 262h-258l34 156h256l33 151h225l-32 -151h149zM846 629q0 105 -53.5 164
t-155.5 59q-84 2 -153.5 -41t-111.5 -112t-64 -147.5t-21 -154.5q0 -118 48 -174.5t150 -56.5q103 0 187.5 68.5t129 173.5t44.5 221z" />
    <glyph glyph-name="Emacron" unicode="&#x112;" horiz-adv-x="1280" 
d="M1362 1454l-45 -205h-754l-86 -397h705l-43 -203h-705l-94 -444h776l-43 -205h-1018l310 1454h997zM1233 1790l-35 -164h-602l35 164h602z" />
    <glyph glyph-name="emacron" unicode="&#x113;" horiz-adv-x="1144" 
d="M1034 467h-743q-2 -12 -2 -55q0 -120 59.5 -187t175.5 -67q86 0 163 41t175 139l144 -127q-114 -130 -234.5 -186t-261.5 -56q-203 0 -322.5 120.5t-119.5 324.5q-1 84 22.5 173.5t74.5 175.5t121 153.5t170 107.5t214 37q177 0 288 -104t111 -267q0 -113 -35 -223z
M330 627h528q4 50 4 57q0 93 -54 147t-153 54q-112 0 -195.5 -69t-129.5 -189zM1075 1378l-35 -164h-602l35 164h602z" />
    <glyph glyph-name="Edotaccent" unicode="&#x116;" horiz-adv-x="1280" 
d="M1362 1454l-45 -205h-754l-86 -397h705l-43 -203h-705l-94 -444h776l-43 -205h-1018l310 1454h997zM1057 1849l-49 -231h-226l49 231h226z" />
    <glyph glyph-name="edotaccent" unicode="&#x117;" horiz-adv-x="1144" 
d="M1034 467h-743q-2 -12 -2 -55q0 -120 59.5 -187t175.5 -67q86 0 163 41t175 139l144 -127q-114 -130 -234.5 -186t-261.5 -56q-203 0 -322.5 120.5t-119.5 324.5q-1 84 22.5 173.5t74.5 175.5t121 153.5t170 107.5t214 37q177 0 288 -104t111 -267q0 -113 -35 -223z
M330 627h528q4 50 4 57q0 93 -54 147t-153 54q-112 0 -195.5 -69t-129.5 -189zM899 1438l-49 -232h-225l49 232h225z" />
    <glyph glyph-name="Eogonek" unicode="&#x118;" horiz-adv-x="1280" 
d="M1317 1249h-754l-86 -397h705l-43 -203h-705l-94 -444h776l-43 -205q-211 -120 -211 -225q0 -72 88 -72q39 0 58 8l-29 -135q-27 -12 -84 -12q-92 0 -141 44.5t-49 119.5q0 157 194 272h-844l310 1454h997z" />
    <glyph glyph-name="eogonek" unicode="&#x119;" horiz-adv-x="1144" 
d="M426 -272q0 128 141 245q-24 -4 -57 -4q-203 0 -322.5 120.5t-119.5 324.5q-1 84 22.5 173.5t74.5 175.5t121 153.5t170 107.5t214 37q177 0 288 -104t111 -267q0 -113 -35 -223h-741q-4 -28 -4 -55q0 -120 59.5 -187t175.5 -67q86 0 163 41t175 139l144 -127
q-65 -78 -201 -170q-219 -154 -219 -268q0 -70 90 -70q38 0 59 8l-28 -135q-30 -12 -86 -12q-92 0 -143.5 44.5t-51.5 119.5zM332 627h526q4 24 4 57q0 93 -54 147t-153 54q-111 0 -194.5 -70t-128.5 -188z" />
    <glyph glyph-name="Ecaron" unicode="&#x11a;" horiz-adv-x="1280" 
d="M1362 1454l-45 -205h-754l-86 -397h705l-43 -203h-705l-94 -444h776l-43 -205h-1018l310 1454h997zM1303 1890l-273 -299h-282l-146 299h182l117 -198l201 198h201z" />
    <glyph glyph-name="ecaron" unicode="&#x11b;" horiz-adv-x="1144" 
d="M1034 467h-743q-2 -12 -2 -55q0 -120 59.5 -187t175.5 -67q86 0 163 41t175 139l144 -127q-114 -130 -234.5 -186t-261.5 -56q-203 0 -322.5 120.5t-119.5 324.5q-1 84 22.5 173.5t74.5 175.5t121 153.5t170 107.5t214 37q177 0 288 -104t111 -267q0 -113 -35 -223z
M330 627h528q4 50 4 57q0 93 -54 147t-153 54q-112 0 -195.5 -69t-129.5 -189zM1145 1479l-273 -299h-282l-146 299h183l116 -199l201 199h201z" />
    <glyph glyph-name="Gbreve" unicode="&#x11e;" horiz-adv-x="1550" 
d="M809 786l-43 -204h440l-10 -47q-34 -152 -162 -256q-126 -99 -299 -99q-180 0 -275 102t-95 283q-1 83 16 167.5t49.5 164t83.5 149t114.5 121t146.5 80.5t175 27q127 0 221 -47.5t199 -159.5l176 141q-117 141 -257.5 209t-321.5 68q-290 0 -482 -148
q-188 -142 -278 -360q-86 -216 -86 -426q0 -260 155.5 -421t413.5 -161q282 0 449 197l-21 -166h187l165 786h-661zM1407 1849q-23 -139 -114 -212.5t-232 -73.5q-139 0 -218 66t-79 173q0 1 4 47h172l-2 -28q0 -127 129 -127q140 0 168 155h172z" />
    <glyph glyph-name="gbreve" unicode="&#x11f;" horiz-adv-x="1167" 
d="M1145 1028h-207l-35 -162q-64 189 -295 189q-100 3 -189.5 -37t-153.5 -108t-110.5 -154.5t-69.5 -179t-22 -179.5q0 -172 97.5 -274.5t261.5 -102.5q189 0 321 156l-26 -121q-31 -141 -98 -203.5t-185 -62.5q-88 0 -168 30.5t-180 98.5l-119 -154q215 -159 465 -159
q207 0 331 106.5t171 325.5zM838 643q1 -71 -24.5 -148t-70 -142t-113.5 -106t-147 -38q-194 0 -194 227q-1 70 21.5 145t64 140t108 106t144.5 39q102 0 156.5 -58.5t54.5 -164.5zM1096 1438q-23 -139 -114 -213t-232 -74q-139 0 -218 66.5t-79 173.5q0 1 4 47h172l-2 -29
q0 -127 129 -127q140 0 168 156h172z" />
    <glyph glyph-name="Gdotaccent" unicode="&#x120;" horiz-adv-x="1550" 
d="M766 582l43 204h661l-165 -786h-187l21 166q-167 -197 -449 -197q-258 0 -413.5 161t-155.5 421q0 210 86 426q90 218 278 360q192 148 482 148q181 0 321.5 -68t257.5 -209l-176 -141q-105 112 -199 159.5t-221 47.5q-92 2 -175 -27t-146.5 -80.5t-114.5 -121
t-83.5 -149t-49.5 -164t-16 -167.5q0 -181 95 -283t275 -102q173 0 299 99q128 104 162 256l10 47h-440zM1196 1849l-49 -231h-225l49 231h225z" />
    <glyph glyph-name="gdotaccent" unicode="&#x121;" horiz-adv-x="1167" 
d="M938 1028h207l-211 -991q-47 -219 -171 -325.5t-331 -106.5q-250 0 -465 159l119 154q100 -68 180 -98.5t168 -30.5q118 0 185 62.5t98 203.5l26 121q-132 -156 -321 -156q-164 0 -261.5 102.5t-97.5 274.5q-1 87 22 179.5t69.5 179t110.5 154.5t153.5 108t189.5 37
q231 0 295 -189zM838 643q0 106 -54.5 164.5t-156.5 58.5q-78 2 -144.5 -39t-108 -106t-64 -140t-21.5 -145q0 -227 194 -227q78 -3 147 38t113.5 106t70 142t24.5 148zM885 1438l-49 -232h-226l49 232h226z" />
    <glyph glyph-name="uni0122" unicode="&#x122;" horiz-adv-x="1550" 
d="M766 582l43 204h661l-165 -786h-187l21 166q-167 -197 -449 -197q-258 0 -413.5 161t-155.5 421q0 210 86 426q90 218 278 360q192 148 482 148q181 0 321.5 -68t257.5 -209l-176 -141q-105 112 -199 159.5t-221 47.5q-92 2 -175 -27t-146.5 -80.5t-114.5 -121
t-83.5 -149t-49.5 -164t-16 -167.5q0 -181 95 -283t275 -102q173 0 299 99q128 104 162 256l10 47h-440zM788 -133l-43 -203l-172 -186h-120l161 186h-114l43 203h245z" />
    <glyph glyph-name="uni0123" unicode="&#x123;" horiz-adv-x="1167" 
d="M938 1028h207l-211 -991q-47 -219 -171 -325.5t-331 -106.5q-250 0 -465 159l119 154q100 -68 180 -98.5t168 -30.5q118 0 185 62.5t98 203.5l26 121q-132 -156 -321 -156q-164 0 -261.5 102.5t-97.5 274.5q-1 87 22 179.5t69.5 179t110.5 154.5t153.5 108t189.5 37
q231 0 295 -189zM838 643q0 106 -54.5 164.5t-156.5 58.5q-78 2 -144.5 -39t-108 -106t-64 -140t-21.5 -145q0 -227 194 -227q78 -3 147 38t113.5 106t70 142t24.5 148zM588 1202l43 203l176 207h121l-164 -207h113l-43 -203h-246z" />
    <glyph glyph-name="Hbar" unicode="&#x126;" horiz-adv-x="1619" 
d="M1710 1243l-37 -168h-147l-230 -1075h-241l137 657h-709l-139 -657h-242l230 1075h-152l37 168h150l45 211h241l-45 -211h711l45 211h242l-45 -211h149zM1237 862l45 213h-709l-45 -213h709z" />
    <glyph glyph-name="hbar" unicode="&#x127;" horiz-adv-x="1210" 
d="M1118 752q0 -51 -10 -99l-137 -653h-226l129 610q11 68 11 90q0 142 -160 142q-110 0 -193 -74.5t-112 -202.5l-119 -565h-225l243 1149h-149l35 154h147l33 151h225l-32 -151h258l-35 -154h-256l-51 -240q130 127 313 127q149 0 230 -75t81 -209z" />
    <glyph glyph-name="Imacron" unicode="&#x12a;" horiz-adv-x="598" 
d="M621 1454l-310 -1454h-241l309 1454h242zM872 1790l-34 -164h-602l34 164h602z" />
    <glyph glyph-name="imacron" unicode="&#x12b;" horiz-adv-x="499" 
d="M471 1028l-217 -1028h-225l217 1028h225zM735 1378l-35 -164h-602l35 164h602z" />
    <glyph glyph-name="Iogonek" unicode="&#x12e;" horiz-adv-x="598" 
d="M100 -225q0 -72 88 -72q39 0 60 8l-29 -135q-27 -12 -84 -12q-92 0 -141 44.5t-49 119.5q0 161 194 272h-69l309 1454h242l-310 -1454q-211 -120 -211 -225z" />
    <glyph glyph-name="iogonek" unicode="&#x12f;" horiz-adv-x="499" 
d="M334 1438h225l-49 -232h-225zM29 0l217 1028h225l-217 -1028q-211 -120 -211 -225q0 -72 88 -72q38 0 59 8l-28 -135q-27 -12 -84 -12q-92 0 -142.5 44.5t-50.5 119.5q0 159 197 272h-53z" />
    <glyph glyph-name="Idot" unicode="&#x130;" horiz-adv-x="598" 
d="M621 1454l-310 -1454h-241l309 1454h242zM696 1849l-49 -231h-225l49 231h225z" />
    <glyph glyph-name="dotlessi" unicode="&#x131;" horiz-adv-x="499" 
d="M471 1028l-217 -1028h-225l217 1028h225z" />
    <glyph glyph-name="IJ" unicode="&#x132;" horiz-adv-x="1564" 
d="M621 1454l-310 -1454h-241l309 1454h242zM1612 1454l-230 -1071q-43 -213 -156.5 -312.5t-297.5 -99.5q-214 0 -391 105l96 182q86 -38 148 -55t130 -17q95 0 153 58t87 186l217 1024h244z" />
    <glyph glyph-name="ij" unicode="&#x133;" horiz-adv-x="989" 
d="M471 1028l-217 -1028h-225l217 1028h225zM559 1438l-49 -232h-225l49 232h225zM354 -215q68 0 102.5 38t53.5 126l229 1079h226l-234 -1100q-35 -173 -118 -250t-236 -77q-115 0 -205 34l64 164q55 -14 118 -14zM1051 1438l-50 -232h-225l49 232h226z" />
    <glyph glyph-name="uni0136" unicode="&#x136;" horiz-adv-x="1396" 
d="M1542 1454l-663 -565l399 -889h-252l-330 733l-297 -254l-102 -479h-242l310 1454h241l-141 -659l760 659h317zM733 -133l-43 -203l-172 -186h-121l162 186h-115l43 203h246z" />
    <glyph glyph-name="uni0137" unicode="&#x137;" horiz-adv-x="1067" 
d="M1137 1028l-451 -395l285 -633h-228l-225 500l-192 -166l-72 -334h-225l309 1454h225l-182 -856l479 430h277zM569 -133l-43 -203l-172 -186h-121l162 186h-114l43 203h245z" />
    <glyph glyph-name="Lacute" unicode="&#x139;" horiz-adv-x="1124" 
d="M606 1454l-266 -1247h659l-43 -207h-901l310 1454h241zM877 1872l-261 -293h-206l204 293h263z" />
    <glyph glyph-name="lacute" unicode="&#x13a;" horiz-adv-x="505" 
d="M565 1454l-309 -1454h-225l309 1454h225zM836 1851l-261 -292h-206l204 292h263z" />
    <glyph glyph-name="uni013B" unicode="&#x13b;" horiz-adv-x="1124" 
d="M606 1454l-266 -1247h659l-43 -207h-901l310 1454h241zM602 -133l-43 -203l-172 -186h-121l162 186h-115l43 203h246z" />
    <glyph glyph-name="uni013C" unicode="&#x13c;" horiz-adv-x="505" 
d="M565 1454l-309 -1454h-225l309 1454h225zM233 -133l-43 -203l-172 -186h-120l161 186h-114l43 203h245z" />
    <glyph glyph-name="Lcaron" unicode="&#x13d;" horiz-adv-x="1124" 
d="M606 1454l-266 -1247h659l-43 -207h-901l310 1454h241zM1077 1454l-243 -424h-148l174 424h217z" />
    <glyph glyph-name="lcaron" unicode="&#x13e;" horiz-adv-x="815" 
d="M565 1454l-309 -1454h-225l309 1454h225zM1042 1454l-243 -424h-148l174 424h217z" />
    <glyph glyph-name="Ldot" unicode="&#x13f;" horiz-adv-x="1118" 
d="M606 1454l-266 -1247h659l-43 -207h-901l310 1454h241zM979 901l-55 -262h-254l55 262h254z" />
    <glyph glyph-name="ldot" unicode="&#x140;" horiz-adv-x="894" 
d="M565 1454l-309 -1454h-225l309 1454h225zM864 793l-55 -263h-254l55 263h254z" />
    <glyph glyph-name="Lslash" unicode="&#x141;" horiz-adv-x="1183" 
d="M395 207h664l-43 -207h-907l118 557l-190 -94l43 207l190 94l148 690h244l-121 -569l338 166l-43 -205l-340 -168z" />
    <glyph glyph-name="lslash" unicode="&#x142;" horiz-adv-x="720" 
d="M764 1036l-41 -190l-199 -103l-157 -743h-226l131 614l-202 -104l41 190l202 105l138 649h225l-111 -520z" />
    <glyph glyph-name="Nacute" unicode="&#x143;" horiz-adv-x="1525" 
d="M1327 1454h236l-310 -1454h-256l-266 625q-148 348 -209 524q-38 -238 -110 -578l-121 -571h-236l310 1454h260l274 -649l27 -64q121 -293 168 -430q27 158 106 553zM1354 1872l-260 -293h-207l205 293h262z" />
    <glyph glyph-name="nacute" unicode="&#x144;" horiz-adv-x="1157" 
d="M1069 782q0 -48 -16 -139l-135 -643h-226l133 635q11 72 11 94q0 139 -162 139q-111 0 -192.5 -76.5t-110.5 -213.5l-123 -578h-225l217 1028h204l-30 -141q122 172 340 172q147 0 231 -74t84 -203zM1079 1460l-260 -293h-207l205 293h262z" />
    <glyph glyph-name="uni0145" unicode="&#x145;" horiz-adv-x="1525" 
d="M1327 1454h236l-310 -1454h-256l-266 625q-148 348 -209 524q-38 -238 -110 -578l-121 -571h-236l310 1454h260l274 -649l27 -64q121 -293 168 -430q27 158 106 553zM752 -133l-43 -203l-172 -186h-121l162 186h-115l43 203h246z" />
    <glyph glyph-name="uni0146" unicode="&#x146;" horiz-adv-x="1157" 
d="M1069 782q0 -48 -16 -139l-135 -643h-226l133 635q11 72 11 94q0 139 -162 139q-111 0 -192.5 -76.5t-110.5 -213.5l-123 -578h-225l217 1028h204l-30 -141q122 172 340 172q147 0 231 -74t84 -203zM551 -133l-43 -203l-172 -186h-121l162 186h-115l43 203h246z" />
    <glyph glyph-name="Ncaron" unicode="&#x147;" horiz-adv-x="1525" 
d="M1327 1454h236l-310 -1454h-256l-266 625q-148 348 -209 524q-38 -238 -110 -578l-121 -571h-236l310 1454h260l274 -649l27 -64q121 -293 168 -430q27 158 106 553zM1405 1890l-272 -299h-283l-145 299h182l117 -198l200 198h201z" />
    <glyph glyph-name="ncaron" unicode="&#x148;" horiz-adv-x="1157" 
d="M1069 782q0 -48 -16 -139l-135 -643h-226l133 635q11 72 11 94q0 139 -162 139q-111 0 -192.5 -76.5t-110.5 -213.5l-123 -578h-225l217 1028h204l-30 -141q122 172 340 172q147 0 231 -74t84 -203zM1130 1479l-272 -299h-283l-145 299h182l117 -199l201 199h200z" />
    <glyph glyph-name="Eng" unicode="&#x14a;" horiz-adv-x="1525" 
d="M1563 1454l-310 -1454h-2l-14 -72q-37 -173 -121 -252t-237 -79q-124 0 -242 41l72 178q83 -25 151 -25q62 0 98.5 33.5t55.5 107.5l4 23l-287 670q-150 353 -209 522q-39 -234 -110 -576l-121 -571h-236l310 1454h260l274 -649l27 -64q121 -293 168 -430q27 158 106 553
l127 590h236z" />
    <glyph glyph-name="eng" unicode="&#x14b;" horiz-adv-x="1159" 
d="M1069 782q0 -48 -16 -139l-135 -643h-5l-12 -57q-39 -181 -112.5 -257.5t-219.5 -76.5q-120 0 -235 41l78 164q108 -23 129 -23q58 0 86 33t47 117l57 268h4l90 426q11 72 11 94q0 139 -162 139q-111 0 -192.5 -76.5t-110.5 -213.5l-123 -578h-225l217 1028h204l-30 -141
q122 172 340 172q147 0 231 -74t84 -203z" />
    <glyph glyph-name="Omacron" unicode="&#x14c;" horiz-adv-x="1554" 
d="M1522 881q2 -105 -21.5 -213t-68.5 -211t-115 -193.5t-156.5 -157.5t-199.5 -104.5t-238 -34.5q-275 0 -437.5 163t-162.5 443q0 203 90 418t270 355q181 141 445 141q272 0 433 -163.5t161 -442.5zM369 588q0 -195 94 -301.5t264 -106.5q104 -3 195.5 39t155 113
t109.5 162t68 187t21 187q0 195 -92 300.5t-262 105.5q-104 3 -196 -39t-156.5 -113t-111 -162t-68.5 -186.5t-21 -185.5zM1358 1790l-35 -164h-602l35 164h602z" />
    <glyph glyph-name="omacron" unicode="&#x14d;" horiz-adv-x="1167" 
d="M1094 616q1 -83 -21 -172t-71 -175.5t-116.5 -154t-166 -108t-211.5 -37.5q-205 0 -322.5 118t-117.5 331q-1 81 21.5 169t71 174t116.5 154t166.5 108.5t211.5 37.5q203 0 321 -117t118 -328zM293 418q0 -122 59 -190t168 -68q79 -2 147.5 41.5t111 112.5t66.5 148
t23 152q0 256 -225 256q-80 3 -149 -40.5t-111.5 -113t-66.5 -148t-23 -150.5zM1067 1378l-35 -164h-602l35 164h602z" />
    <glyph glyph-name="Ohungarumlaut" unicode="&#x150;" horiz-adv-x="1554" 
d="M1522 881q2 -105 -21.5 -213t-68.5 -211t-115 -193.5t-156.5 -157.5t-199.5 -104.5t-238 -34.5q-275 0 -437.5 163t-162.5 443q0 203 90 418t270 355q181 141 445 141q272 0 433 -163.5t161 -442.5zM369 588q0 -195 94 -301.5t264 -106.5q104 -3 195.5 39t155 113
t109.5 162t68 187t21 187q0 195 -92 300.5t-262 105.5q-104 3 -196 -39t-156.5 -113t-111 -162t-68.5 -186.5t-21 -185.5zM1186 1890l-260 -301h-170l209 301h221zM1526 1890l-260 -301h-170l209 301h221z" />
    <glyph glyph-name="ohungarumlaut" unicode="&#x151;" horiz-adv-x="1167" 
d="M1094 616q1 -83 -21 -172t-71 -175.5t-116.5 -154t-166 -108t-211.5 -37.5q-205 0 -322.5 118t-117.5 331q-1 81 21.5 169t71 174t116.5 154t166.5 108.5t211.5 37.5q203 0 321 -117t118 -328zM293 418q0 -122 59 -190t168 -68q79 -2 147.5 41.5t111 112.5t66.5 148
t23 152q0 256 -225 256q-80 3 -149 -40.5t-111.5 -113t-66.5 -148t-23 -150.5zM897 1479l-260 -301h-170l209 301h221zM1237 1479l-260 -301h-170l209 301h221z" />
    <glyph glyph-name="OE" unicode="&#x152;" horiz-adv-x="2365" 
d="M2402 1249h-753l-86 -397h704l-43 -203h-704l-95 -444h777l-43 -205h-1018l35 162q-201 -195 -476 -195q-279 0 -430 153t-151 425q0 214 94 430q95 219 287 364q195 148 469 148q316 0 442 -217l39 184h997zM1309 893q0 184 -90.5 282.5t-262.5 98.5q-93 2 -177 -28
t-148.5 -84t-116.5 -125.5t-85 -152t-50.5 -163.5t-16.5 -160q0 -183 92 -282t265 -99q93 -3 177 27t147.5 84t115.5 125.5t84.5 152.5t49.5 164t16 160z" />
    <glyph glyph-name="oe" unicode="&#x153;" horiz-adv-x="1933" 
d="M1823 467h-744q-2 -12 -2 -55q0 -120 60 -187t176 -67q87 0 165 39t175 135l141 -121q-204 -242 -494 -242q-132 0 -228 54t-148 153q-154 -207 -416 -207q-205 0 -322.5 118t-117.5 331q-1 81 21.5 169t71 174t116.5 154t166.5 108.5t211.5 37.5q130 0 223 -54t140 -157
q161 211 440 211q175 0 288.5 -105t113.5 -266q0 -119 -37 -223zM1118 627h531l2 57q0 94 -53 147.5t-154 53.5q-112 0 -196 -69.5t-130 -188.5zM868 616q0 254 -223 254q-65 2 -123.5 -26t-99.5 -76t-71 -108t-44.5 -122.5t-13.5 -119.5q0 -124 57.5 -191t167.5 -67
q79 -3 147.5 41t111.5 113t67.5 149t23.5 153z" />
    <glyph glyph-name="Racute" unicode="&#x154;" horiz-adv-x="1411" 
d="M973 571l264 -571h-254l-254 559h-313l-119 -559h-242l310 1454h602q200 0 316 -107.5t116 -273.5q0 -183 -107 -323q-106 -142 -319 -179zM1165 1049q0 101 -63 152.5t-180 51.5h-359l-104 -493h350q177 0 266.5 79t89.5 210zM1235 1872l-260 -293h-207l205 293h262z
" />
    <glyph glyph-name="racute" unicode="&#x155;" horiz-adv-x="790" 
d="M864 997l-80 -192q-85 29 -133 29q-107 0 -185.5 -86t-113.5 -248l-104 -500h-225l217 1028h209l-35 -166q111 178 280 178q77 0 170 -43zM936 1460l-260 -293h-207l205 293h262z" />
    <glyph glyph-name="uni0156" unicode="&#x156;" horiz-adv-x="1411" 
d="M973 571l264 -571h-254l-254 559h-313l-119 -559h-242l310 1454h602q200 0 316 -107.5t116 -273.5q0 -183 -107 -323q-106 -142 -319 -179zM1165 1049q0 101 -63 152.5t-180 51.5h-359l-104 -493h350q177 0 266.5 79t89.5 210zM688 -133l-43 -203l-172 -186h-121l162 186
h-115l43 203h246z" />
    <glyph glyph-name="uni0157" unicode="&#x157;" horiz-adv-x="790" 
d="M864 997l-80 -192q-85 29 -133 29q-107 0 -185.5 -86t-113.5 -248l-104 -500h-225l217 1028h209l-35 -166q111 178 280 178q77 0 170 -43zM219 -133l-43 -203l-172 -186h-121l162 186h-115l43 203h246z" />
    <glyph glyph-name="Rcaron" unicode="&#x158;" horiz-adv-x="1411" 
d="M973 571l264 -571h-254l-254 559h-313l-119 -559h-242l310 1454h602q200 0 316 -107.5t116 -273.5q0 -183 -107 -323q-106 -142 -319 -179zM1165 1049q0 101 -63 152.5t-180 51.5h-359l-104 -493h350q177 0 266.5 79t89.5 210zM1286 1890l-272 -299h-283l-145 299h182
l117 -198l200 198h201z" />
    <glyph glyph-name="rcaron" unicode="&#x159;" horiz-adv-x="790" 
d="M864 997l-80 -192q-85 29 -133 29q-107 0 -185.5 -86t-113.5 -248l-104 -500h-225l217 1028h209l-35 -166q111 178 280 178q77 0 170 -43zM989 1479l-272 -299h-283l-145 299h182l117 -199l200 199h201z" />
    <glyph glyph-name="Sacute" unicode="&#x15a;" horiz-adv-x="1331" 
d="M1337 1251l-145 -161q-111 96 -213 141t-215 45q-135 0 -223 -64t-88 -161q0 -56 32 -88q31 -31 92.5 -56.5t202.5 -68.5q128 -41 206.5 -77t133 -83.5t77 -105.5t24.5 -140q0 -87 -35.5 -169t-102 -148.5t-174 -107t-239.5 -40.5q-194 0 -342 62q-152 68 -299 198
l147 172q160 -129 258 -174q103 -47 244 -47q138 0 223.5 68t85.5 172q0 61 -39 100q-35 37 -97.5 63t-203.5 66q-240 70 -335 153t-95 230q-2 82 36 162.5t107.5 147t179.5 106.5t240 39q166 0 299 -57.5t258 -176.5zM1200 1872l-260 -293h-207l205 293h262z" />
    <glyph glyph-name="sacute" unicode="&#x15b;" horiz-adv-x="1013" 
d="M977 885l-131 -146q-163 138 -322 138q-82 0 -135 -36.5t-53 -92.5q0 -47 41 -68q46 -22 170 -62q207 -60 281.5 -122.5t74.5 -178.5q0 -160 -122 -255t-322 -95q-254 0 -469 197l133 145q97 -81 177.5 -118t168.5 -37q100 0 157.5 38.5t57.5 104.5q0 51 -49 78t-193 67
q-184 51 -253.5 115t-69.5 168q0 132 114.5 233t307.5 101q250 0 436 -174zM958 1460l-260 -293h-206l204 293h262z" />
    <glyph glyph-name="Scedilla" unicode="&#x15e;" horiz-adv-x="1331" 
d="M1221 432q0 -87 -35.5 -169t-102 -148.5t-174 -107t-239.5 -40.5q-64 0 -82 2l-70 -102h6q79 0 131 -43t52 -109q0 -89 -62.5 -145.5t-179.5 -56.5q-125 0 -238 73l70 99q97 -54 166 -54q54 0 84.5 21t30.5 57q0 29 -28.5 45.5t-72.5 16.5q-31 0 -59 -7l-51 58l108 164
q-119 24 -225 82t-221 159l147 172q160 -129 258 -174q103 -47 244 -47q138 0 223.5 68t85.5 172q0 61 -39 100q-35 37 -97.5 63t-203.5 66q-240 70 -335 153t-95 230q-2 82 36 162.5t107.5 147t179.5 106.5t240 39q166 0 299 -57.5t258 -176.5l-145 -161q-111 96 -213 141
t-215 45q-135 0 -223 -64t-88 -161q0 -56 32 -88q31 -31 92.5 -56.5t202.5 -68.5q128 -41 206.5 -77t133 -83.5t77 -105.5t24.5 -140z" />
    <glyph glyph-name="scedilla" unicode="&#x15f;" horiz-adv-x="1013" 
d="M903 317q0 -154 -116 -249t-308 -101l-69 -102h6q79 0 130.5 -43t51.5 -109q0 -88 -62.5 -144t-177.5 -56q-124 0 -239 71l71 99q102 -54 166 -54q51 0 82 21.5t31 56.5q0 29 -28.5 46.5t-71.5 17.5q-32 0 -60 -7l-51 56l102 155q-193 27 -370 189l133 145
q97 -81 177.5 -118t168.5 -37q100 0 157.5 38.5t57.5 104.5q0 51 -49 78t-193 67q-184 51 -253.5 115t-69.5 168q0 132 114.5 233t307.5 101q250 0 436 -174l-131 -146q-163 138 -322 138q-82 0 -135 -36.5t-53 -92.5q0 -47 41 -68q46 -22 170 -62q207 -60 281.5 -122.5
t74.5 -178.5z" />
    <glyph glyph-name="Scaron" unicode="&#x160;" horiz-adv-x="1331" 
d="M1337 1251l-145 -161q-111 96 -213 141t-215 45q-135 0 -223 -64t-88 -161q0 -56 32 -88q31 -31 92.5 -56.5t202.5 -68.5q128 -41 206.5 -77t133 -83.5t77 -105.5t24.5 -140q0 -87 -35.5 -169t-102 -148.5t-174 -107t-239.5 -40.5q-194 0 -342 62q-152 68 -299 198
l147 172q160 -129 258 -174q103 -47 244 -47q138 0 223.5 68t85.5 172q0 61 -39 100q-35 37 -97.5 63t-203.5 66q-240 70 -335 153t-95 230q-2 82 36 162.5t107.5 147t179.5 106.5t240 39q166 0 299 -57.5t258 -176.5zM1251 1890l-272 -299h-283l-145 299h182l117 -198
l201 198h200z" />
    <glyph glyph-name="scaron" unicode="&#x161;" horiz-adv-x="1013" 
d="M977 885l-131 -146q-163 138 -322 138q-82 0 -135 -36.5t-53 -92.5q0 -47 41 -68q46 -22 170 -62q207 -60 281.5 -122.5t74.5 -178.5q0 -160 -122 -255t-322 -95q-254 0 -469 197l133 145q97 -81 177.5 -118t168.5 -37q100 0 157.5 38.5t57.5 104.5q0 51 -49 78t-193 67
q-184 51 -253.5 115t-69.5 168q0 132 114.5 233t307.5 101q250 0 436 -174zM1010 1479l-273 -299h-282l-146 299h183l116 -199l201 199h201z" />
    <glyph glyph-name="uni0162" unicode="&#x162;" horiz-adv-x="1236" 
d="M260 1454h1116l-45 -207h-436l-264 -1247h-60l-90 -135h6q79 0 131 -43t52 -109q0 -88 -63.5 -144t-178.5 -56q-123 0 -238 71l70 99q97 -54 166 -54q51 0 82 21.5t31 56.5q0 29 -28.5 46.5t-72.5 17.5q-31 0 -59 -7l-51 56l121 180h-62l264 1247h-436z" />
    <glyph glyph-name="uni0163" unicode="&#x163;" horiz-adv-x="763" 
d="M520 860l-119 -559q-8 -41 -8 -57q0 -40 21.5 -56t70.5 -16q52 0 129 23l15 -181q-93 -37 -213 -37h-13l-77 -112h6q79 0 130.5 -43t51.5 -109q0 -89 -62.5 -144.5t-179.5 -55.5q-122 0 -237 71l69 99q97 -54 166 -54q54 0 84.5 21t30.5 57q0 29 -28.5 46.5t-71.5 17.5
q-32 0 -60 -7l-51 56l117 174q-131 40 -131 190q0 48 12 103l123 573h-186l34 168h189l69 330h224l-70 -330h244l-35 -168h-244z" />
    <glyph glyph-name="Tcaron" unicode="&#x164;" horiz-adv-x="1236" 
d="M1376 1454l-45 -207h-436l-264 -1247h-244l264 1247h-436l45 207h1116zM1274 1890l-273 -299h-282l-146 299h183l116 -198l201 198h201z" />
    <glyph glyph-name="tcaron" unicode="&#x165;" horiz-adv-x="763" 
d="M520 860l-119 -559q-8 -41 -8 -57q0 -40 21.5 -56t70.5 -16q52 0 129 23l15 -181q-93 -37 -213 -37q-256 0 -256 209q0 46 12 101l123 573h-186l34 168h189l69 330h224l-70 -330h244l-35 -168h-244zM1120 1610l-243 -424h-148l174 424h217z" />
    <glyph glyph-name="Tbar" unicode="&#x166;" horiz-adv-x="1236" 
d="M1331 1247h-436l-86 -401h254l-35 -168h-254l-143 -678h-244l143 678h-233l35 168h233l86 401h-436l45 207h1116z" />
    <glyph glyph-name="tbar" unicode="&#x167;" horiz-adv-x="763" 
d="M764 860h-244l-49 -229h238l-35 -172h-240l-33 -158q-8 -41 -8 -57q0 -40 21.5 -56t70.5 -16q52 0 129 23l15 -181q-93 -37 -213 -37q-256 0 -256 209q0 46 12 101l37 172h-180l37 172h180l49 229h-186l34 168h189l69 330h224l-70 -330h244z" />
    <glyph glyph-name="Umacron" unicode="&#x16a;" horiz-adv-x="1441" 
d="M1487 1454l-209 -983q-108 -504 -614 -504q-533 0 -533 385q0 58 23 170l198 932h242l-205 -952q-10 -62 -10 -103q0 -104 74.5 -161.5t210.5 -57.5q307 0 374 309l205 965h244zM1276 1790l-35 -164h-602l35 164h602z" />
    <glyph glyph-name="umacron" unicode="&#x16b;" horiz-adv-x="1140" 
d="M883 1028h225l-219 -1028h-205l31 145q-56 -82 -144 -128t-192 -46q-142 0 -222.5 71.5t-80.5 193.5q0 68 18 151l133 641h226l-127 -610q-19 -87 -19 -123q0 -65 39 -98t109 -33q113 0 195 79.5t114 231.5zM1030 1378l-35 -164h-602l35 164h602z" />
    <glyph glyph-name="Uring" unicode="&#x16e;" horiz-adv-x="1441" 
d="M1487 1454l-209 -983q-108 -504 -614 -504q-533 0 -533 385q0 58 23 170l198 932h242l-205 -952q-10 -62 -10 -103q0 -104 74.5 -161.5t210.5 -57.5q307 0 374 309l205 965h244zM1178 1720q0 -105 -74 -176q-71 -71 -180 -71q-97 0 -156 58t-59 146q0 102 71 176
q74 74 181 74q98 0 157.5 -58t59.5 -149zM821 1677q0 -47 29.5 -74.5t77.5 -27.5q57 0 96 41t39 102q0 51 -29 79t-80 28q-57 0 -95 -43t-38 -105z" />
    <glyph glyph-name="uring" unicode="&#x16f;" horiz-adv-x="1140" 
d="M883 1028h225l-219 -1028h-205l31 145q-56 -82 -144 -128t-192 -46q-142 0 -222.5 71.5t-80.5 193.5q0 68 18 151l133 641h226l-127 -610q-19 -87 -19 -123q0 -65 39 -98t109 -33q113 0 195 79.5t114 231.5zM961 1405q0 -105 -74 -176q-72 -72 -180 -72
q-96 0 -155.5 58.5t-59.5 146.5q0 102 71 176q74 74 180 74q98 0 158 -58t60 -149zM604 1362q0 -47 29.5 -74.5t77.5 -27.5q57 0 96 41t39 102q0 51 -29 78.5t-80 27.5q-57 0 -95 -42.5t-38 -104.5z" />
    <glyph glyph-name="Uhungarumlaut" unicode="&#x170;" horiz-adv-x="1441" 
d="M1487 1454l-209 -983q-108 -504 -614 -504q-533 0 -533 385q0 58 23 170l198 932h242l-205 -952q-10 -62 -10 -103q0 -104 74.5 -161.5t210.5 -57.5q307 0 374 309l205 965h244zM1106 1890l-260 -301h-170l209 301h221zM1446 1890l-260 -301h-170l209 301h221z" />
    <glyph glyph-name="uhungarumlaut" unicode="&#x171;" horiz-adv-x="1140" 
d="M883 1028h225l-219 -1028h-205l31 145q-56 -82 -144 -128t-192 -46q-142 0 -222.5 71.5t-80.5 193.5q0 68 18 151l133 641h226l-127 -610q-19 -87 -19 -123q0 -65 39 -98t109 -33q113 0 195 79.5t114 231.5zM860 1479l-260 -301h-170l209 301h221zM1200 1479l-260 -301
h-170l209 301h221z" />
    <glyph glyph-name="Uogonek" unicode="&#x172;" horiz-adv-x="1441" 
d="M1243 1454h244l-209 -983q-36 -169 -111 -274t-202 -172q-119 -61 -180.5 -126.5t-61.5 -123.5q0 -72 86 -72q40 0 59 8l-28 -135q-27 -12 -84 -12q-91 0 -141 44t-50 118q0 133 135 243q-6 -2 -36 -2q-533 0 -533 385q0 58 23 170l198 932h242l-205 -952
q-10 -62 -10 -103q0 -104 74.5 -161.5t210.5 -57.5q307 0 374 309z" />
    <glyph glyph-name="uogonek" unicode="&#x173;" horiz-adv-x="1140" 
d="M680 -225q0 -72 86 -72q38 0 59 8l-28 -135q-27 -12 -84 -12q-92 0 -141.5 44.5t-49.5 119.5q0 157 195 272h-33l31 145q-56 -82 -144 -128t-192 -46q-142 0 -222.5 71.5t-80.5 193.5q0 68 18 151l133 641h226l-127 -610q-19 -87 -19 -123q0 -65 39 -98t109 -33
q113 0 195 79.5t114 231.5l119 553h225l-219 -1028q-209 -117 -209 -225z" />
    <glyph glyph-name="Wcircumflex" unicode="&#x174;" horiz-adv-x="1968" 
d="M1855 1454h252l-659 -1454h-287l-31 610q-16 291 -16 525q-64 -158 -237 -527l-287 -608h-289l-43 1454h238l14 -659l2 -215q0 -32 -4 -306q126 288 235 519l318 661h237l31 -661q12 -267 12 -525l54 131l166 394zM1368 1579l-119 193l-202 -193h-201l272 293h283
l145 -293h-178z" />
    <glyph glyph-name="wcircumflex" unicode="&#x175;" horiz-adv-x="1583" 
d="M1403 1030h235l-497 -1030h-287l-16 303q-14 346 -15 440q-76 -176 -198 -442l-142 -301h-280l-58 1030h224l14 -358q8 -294 10 -473q125 296 211 473l174 358h211l21 -358q11 -207 14 -477q75 189 209 475zM1077 1167l-119 193l-202 -193h-201l272 293h283l145 -293
h-178z" />
    <glyph glyph-name="Ycircumflex" unicode="&#x176;" horiz-adv-x="1298" 
d="M1190 1454h283l-695 -840l-131 -614h-241l129 616l-332 838h248l237 -618zM1024 1579l-119 193l-203 -193h-200l272 293h283l145 -293h-178z" />
    <glyph glyph-name="ycircumflex" unicode="&#x177;" horiz-adv-x="1044" 
d="M881 1028h233l-641 -1165q-78 -143 -163.5 -201.5t-215.5 -58.5q-103 0 -182 26l59 166q62 -10 107 -10q67 0 112 32t95 117l12 19l-162 1075h225l43 -344q4 -31 54 -465q156 315 231 455zM809 1167l-119 193l-203 -193h-200l272 293h283l145 -293h-178z" />
    <glyph glyph-name="Ydieresis" unicode="&#x178;" horiz-adv-x="1298" 
d="M1190 1454h283l-695 -840l-131 -614h-241l129 616l-332 838h248l237 -618zM834 1849l-50 -231h-217l51 231h216zM1212 1849l-49 -231h-217l49 231h217z" />
    <glyph glyph-name="Zacute" unicode="&#x179;" horiz-adv-x="1296" 
d="M1409 1454l-43 -197l-1036 -1052h811l-43 -205h-1118l40 197l1035 1052h-776l43 205h1087zM1241 1872l-260 -293h-207l205 293h262z" />
    <glyph glyph-name="zacute" unicode="&#x17a;" horiz-adv-x="1001" 
d="M1024 1028l-35 -168l-696 -676h553l-39 -184h-842l35 170l696 676h-518l39 182h807zM1020 1460l-260 -293h-207l205 293h262z" />
    <glyph glyph-name="Zdotaccent" unicode="&#x17b;" horiz-adv-x="1296" 
d="M1409 1454l-43 -197l-1036 -1052h811l-43 -205h-1118l40 197l1035 1052h-776l43 205h1087zM1049 1849l-50 -231h-225l49 231h226z" />
    <glyph glyph-name="zdotaccent" unicode="&#x17c;" horiz-adv-x="1001" 
d="M1024 1028l-35 -168l-696 -676h553l-39 -184h-842l35 170l696 676h-518l39 182h807zM825 1438l-49 -232h-225l49 232h225z" />
    <glyph glyph-name="Zcaron" unicode="&#x17d;" horiz-adv-x="1296" 
d="M1409 1454l-43 -197l-1036 -1052h811l-43 -205h-1118l40 197l1035 1052h-776l43 205h1087zM1292 1890l-272 -299h-283l-145 299h182l117 -198l201 198h200z" />
    <glyph glyph-name="zcaron" unicode="&#x17e;" horiz-adv-x="1001" 
d="M1024 1028l-35 -168l-696 -676h553l-39 -184h-842l35 170l696 676h-518l39 182h807zM1071 1479l-272 -299h-283l-145 299h182l117 -199l200 199h201z" />
    <glyph glyph-name="florin" unicode="&#x192;" 
d="M780 967h254l-37 -170h-252l-184 -860q-37 -176 -118.5 -256t-231.5 -80q-128 0 -227 30l75 172q74 -18 131 -18q62 0 95.5 34.5t50.5 114.5l184 863h-221l37 170h219l29 131q35 165 126.5 246t245.5 81q121 0 228 -36l-80 -170q-76 20 -127 20q-74 0 -113.5 -36
t-58.5 -122z" />
    <glyph glyph-name="uni0218" unicode="&#x218;" horiz-adv-x="1331" 
d="M1337 1251l-145 -161q-111 96 -213 141t-215 45q-135 0 -223 -64t-88 -161q0 -56 32 -88q31 -31 92.5 -56.5t202.5 -68.5q128 -41 206.5 -77t133 -83.5t77 -105.5t24.5 -140q0 -87 -35.5 -169t-102 -148.5t-174 -107t-239.5 -40.5q-194 0 -342 62q-152 68 -299 198
l147 172q160 -129 258 -174q103 -47 244 -47q138 0 223.5 68t85.5 172q0 61 -39 100q-35 37 -97.5 63t-203.5 66q-240 70 -335 153t-95 230q-2 82 36 162.5t107.5 147t179.5 106.5t240 39q166 0 299 -57.5t258 -176.5zM647 -131l-43 -203l-172 -186h-121l162 186h-115
l43 203h246z" />
    <glyph glyph-name="uni0219" unicode="&#x219;" horiz-adv-x="1013" 
d="M977 885l-131 -146q-163 138 -322 138q-82 0 -135 -36.5t-53 -92.5q0 -47 41 -68q46 -22 170 -62q207 -60 281.5 -122.5t74.5 -178.5q0 -160 -122 -255t-322 -95q-254 0 -469 197l133 145q97 -81 177.5 -118t168.5 -37q100 0 157.5 38.5t57.5 104.5q0 51 -49 78t-193 67
q-184 51 -253.5 115t-69.5 168q0 132 114.5 233t307.5 101q250 0 436 -174zM539 -133l-43 -203l-172 -186h-121l162 186h-115l43 203h246z" />
    <glyph glyph-name="uni021A" unicode="&#x21a;" horiz-adv-x="1236" 
d="M1376 1454l-45 -207h-436l-264 -1247h-244l264 1247h-436l45 207h1116zM610 -133l-43 -203l-172 -186h-121l162 186h-114l43 203h245z" />
    <glyph glyph-name="uni021B" unicode="&#x21b;" horiz-adv-x="763" 
d="M520 860l-119 -559q-8 -41 -8 -57q0 -40 21.5 -56t70.5 -16q52 0 129 23l15 -181q-93 -37 -213 -37q-256 0 -256 209q0 46 12 101l123 573h-186l34 168h189l69 330h224l-70 -330h244l-35 -168h-244zM455 -133l-43 -203l-172 -186h-121l162 186h-115l43 203h246z" />
    <glyph glyph-name="uni0237" unicode="&#x237;" horiz-adv-x="489" 
d="M-145 -215q67 0 101.5 37.5t53.5 126.5l230 1079h225l-234 -1100q-35 -173 -118 -250t-236 -77q-115 0 -205 34l64 164q55 -14 119 -14z" />
    <glyph glyph-name="circumflex" unicode="&#x2c6;" horiz-adv-x="919" 
d="M770 1167l-119 193l-202 -193h-201l272 293h283l145 -293h-178z" />
    <glyph glyph-name="caron" unicode="&#x2c7;" horiz-adv-x="919" 
d="M1014 1479l-273 -299h-282l-146 299h183l116 -199l201 199h201z" />
    <glyph glyph-name="breve" unicode="&#x2d8;" horiz-adv-x="856" 
d="M942 1438q-23 -139 -114 -213t-232 -74q-139 0 -218 66.5t-79 173.5q0 1 4 47h172l-2 -29q0 -127 129 -127q140 0 168 156h172z" />
    <glyph glyph-name="dotaccent" unicode="&#x2d9;" horiz-adv-x="442" 
d="M530 1438l-49 -232h-225l49 232h225z" />
    <glyph glyph-name="ring" unicode="&#x2da;" horiz-adv-x="688" 
d="M762 1405q0 -105 -74 -176q-72 -72 -180 -72q-96 0 -155.5 58.5t-59.5 146.5q0 101 72 176q74 74 180 74q98 0 157.5 -58t59.5 -149zM406 1362q0 -47 29 -74.5t77 -27.5q57 0 96 41t39 102q0 51 -28.5 78.5t-79.5 27.5q-57 0 -95 -42.5t-38 -104.5z" />
    <glyph glyph-name="ogonek" unicode="&#x2db;" horiz-adv-x="532" 
d="M250 51l63 -51q-211 -120 -211 -225q0 -72 88 -72q39 0 60 8l-31 -135q-24 -12 -82 -12q-92 0 -142 44.5t-50 119.5q0 97 79 181.5t226 141.5z" />
    <glyph glyph-name="tilde" unicode="&#x2dc;" horiz-adv-x="884" 
d="M647 1360q39 -26 57.5 -34.5t40.5 -8.5q65 0 86 100h138q-24 -115 -83 -178t-134 -63q-39 0 -69.5 12t-86.5 43q-46 26 -69.5 35.5t-47.5 9.5q-66 0 -90 -98h-139q24 114 88.5 177.5t148.5 63.5q41 0 74 -13t86 -46z" />
    <glyph glyph-name="hungarumlaut" unicode="&#x2dd;" horiz-adv-x="923" 
d="M680 1479l-260 -301h-170l209 301h221zM1020 1479l-260 -301h-170l209 301h221z" />
    <glyph glyph-name="gravecomb" unicode="&#x300;" horiz-adv-x="0" 
d="M-373 1460h238l80 -293h-183z" />
    <glyph glyph-name="acutecomb" unicode="&#x301;" horiz-adv-x="0" 
d="M55 1460l-260 -293h-207l205 293h262z" />
    <glyph glyph-name="uni0302" unicode="&#x302;" horiz-adv-x="0" 
d="M-199 1167l-118 193l-203 -193h-201l272 293h283l146 -293h-179z" />
    <glyph glyph-name="tildecomb" unicode="&#x303;" horiz-adv-x="0" 
d="M-332 1360q38 -25 57.5 -34t41.5 -9q65 0 86 100h137q-24 -115 -83 -178t-134 -63q-39 0 -69.5 12t-86.5 43q-46 26 -69.5 35.5t-47.5 9.5q-66 0 -90 -98h-139q24 114 88.5 177.5t148.5 63.5q41 0 74 -13t86 -46z" />
    <glyph glyph-name="uni0304" unicode="&#x304;" horiz-adv-x="0" 
d="M-4 1378l-35 -164h-602l35 164h602z" />
    <glyph glyph-name="uni0306" unicode="&#x306;" horiz-adv-x="0" 
d="M0 1438q-23 -139 -114 -213t-232 -74q-139 0 -218 66.5t-79 173.5q0 1 4 47h172l-2 -29q0 -127 129 -127q140 0 168 156h172z" />
    <glyph glyph-name="uni0307" unicode="&#x307;" horiz-adv-x="0" 
d="M6 1438l-49 -232h-225l49 232h225z" />
    <glyph glyph-name="uni0308" unicode="&#x308;" horiz-adv-x="0" 
d="M-385 1438l-49 -232h-217l51 232h215zM-6 1438l-49 -232h-217l49 232h217z" />
    <glyph glyph-name="uni030A" unicode="&#x30a;" horiz-adv-x="0" 
d="M-41 1405q0 -104 -72 -176q-75 -72 -182 -72q-96 0 -155.5 58.5t-59.5 146.5q0 102 74 176q71 74 178 74q98 0 157.5 -58t59.5 -149zM-397 1362q0 -47 29 -74.5t77 -27.5q57 0 96 41t39 102q0 51 -28.5 78.5t-79.5 27.5q-57 0 -95 -42.5t-38 -104.5z" />
    <glyph glyph-name="uni030B" unicode="&#x30b;" horiz-adv-x="0" 
d="M-317 1479l-261 -301h-170l209 301h222zM23 1479l-261 -301h-170l209 301h222z" />
    <glyph glyph-name="uni030C" unicode="&#x30c;" horiz-adv-x="0" 
d="M20 1479l-272 -299h-283l-145 299h182l117 -199l201 199h200z" />
    <glyph glyph-name="uni0326" unicode="&#x326;" horiz-adv-x="0" 
d="M-336 -133l-43 -203l-172 -186h-121l162 186h-115l43 203h246z" />
    <glyph glyph-name="uni0327" unicode="&#x327;" horiz-adv-x="0" 
d="M-356 -287q0 -88 -62.5 -144t-177.5 -56q-123 0 -238 71l70 99q97 -54 166 -54q51 0 82 21.5t31 56.5q0 29 -28.5 46.5t-72.5 17.5q-31 0 -59 -7l-51 56l147 221l96 -41l-90 -135h4q79 0 131 -43t52 -109z" />
    <glyph glyph-name="uni0328" unicode="&#x328;" horiz-adv-x="0" 
d="M-367 51l64 -51q-211 -120 -211 -225q0 -72 88 -72q38 0 59 8l-30 -135q-24 -12 -82 -12q-92 0 -142.5 44.5t-50.5 119.5q0 97 79 181.5t226 141.5z" />
    <glyph glyph-name="uni037E" unicode="&#x37e;" horiz-adv-x="552" 
d="M371 262l-58 -262l-207 -283h-135l193 283h-119l55 262h271zM520 1028l-55 -262h-254l55 262h254z" />
    <glyph glyph-name="tonos" unicode="&#x384;" horiz-adv-x="741" 
d="M539 1180h-193l139 299h252z" />
    <glyph glyph-name="dieresistonos" unicode="&#x385;" horiz-adv-x="1042" 
d="M573 1204l101 277h225l-162 -277h-164zM313 1204l43 203h205l-43 -203h-205zM860 1204l45 203h203l-43 -203h-205z" />
    <glyph glyph-name="Alphatonos" unicode="&#x386;" horiz-adv-x="1419" 
d="M1042 0l-45 328h-641l-184 -328h-254l834 1454h317l213 -1454h-240zM469 528h502l-25 181l-18 139q-43 312 -51 426q-107 -208 -310 -569zM322 1155h-193l139 299h252z" />
    <glyph glyph-name="anoteleia" unicode="&#x387;" horiz-adv-x="471" 
d="M422 793l-55 -263h-254l55 263h254z" />
    <glyph glyph-name="Epsilontonos" unicode="&#x388;" horiz-adv-x="1271" 
d="M1362 1454l-45 -205h-754l-86 -397h705l-43 -203h-705l-94 -444h776l-43 -205h-1018l310 1454h997zM63 1155h-192l139 299h252z" />
    <glyph glyph-name="Etatonos" unicode="&#x389;" horiz-adv-x="1515" 
d="M1559 1454l-310 -1454h-243l139 657h-709l-139 -657h-242l310 1454h241l-125 -592h709l125 592h244zM63 1155h-192l139 299h252z" />
    <glyph glyph-name="Iotatonos" unicode="&#x38a;" horiz-adv-x="579" 
d="M621 1454l-310 -1454h-241l309 1454h242zM63 1155h-192l139 299h252z" />
    <glyph glyph-name="Omicrontonos" unicode="&#x38c;" horiz-adv-x="1548" 
d="M1522 881q2 -105 -21.5 -213t-68.5 -211t-115 -193.5t-156.5 -157.5t-199.5 -104.5t-238 -34.5q-275 0 -437.5 163t-162.5 443q0 203 90 418t270 355q181 141 445 141q272 0 433 -163.5t161 -442.5zM369 588q0 -195 94 -301.5t264 -106.5q104 -3 195.5 39t155 113
t109.5 162t68 187t21 187q0 195 -92 300.5t-262 105.5q-104 3 -196 -39t-156.5 -113t-111 -162t-68.5 -186.5t-21 -185.5zM96 1155h-192l139 299h252z" />
    <glyph glyph-name="Upsilontonos" unicode="&#x38e;" horiz-adv-x="1308" 
d="M1190 1454h283l-695 -840l-131 -614h-241l129 616l-332 838h248l237 -618zM-18 1155h-193l139 299h252z" />
    <glyph glyph-name="Omegatonos" unicode="&#x38f;" horiz-adv-x="1548" 
d="M1188 205h223l-45 -205h-563l45 205q195 84 311 262q115 180 115 403q0 191 -91.5 297.5t-258.5 106.5q-119 2 -223.5 -54t-176 -150.5t-112 -218t-39.5 -253.5q0 -133 58 -235t171 -158l-43 -205h-555l43 205h242q-78 78 -119 182.5t-41 222.5q-1 107 24.5 215t73.5 206
t120.5 182.5t160 146t196.5 95.5t226 32q274 0 432 -168.5t158 -444.5q0 -207 -85.5 -384t-246.5 -285zM96 1155h-192l139 299h252z" />
    <glyph glyph-name="iotadieresistonos" unicode="&#x390;" horiz-adv-x="487" 
d="M244 0h-226l218 1028h225zM287 1204l100 277h225l-161 -277h-164zM27 1204l43 203h204l-43 -203h-204zM573 1204l45 203h203l-43 -203h-205z" />
    <glyph glyph-name="Alpha" unicode="&#x391;" horiz-adv-x="1419" 
d="M1042 0l-45 328h-641l-184 -328h-254l834 1454h317l213 -1454h-240zM469 528h502l-25 181l-18 139q-43 312 -51 426q-107 -208 -310 -569z" />
    <glyph glyph-name="Beta" unicode="&#x392;" horiz-adv-x="1411" 
d="M1303 451q0 -88 -32.5 -167.5t-94 -143.5t-161 -102t-224.5 -38h-736l310 1454h620q179 0 291 -92q110 -88 110 -242q0 -130 -75.5 -234t-206.5 -141q93 -38 146 -114t53 -180zM565 1264l-86 -410h365q155 0 231 64.5t76 175.5q0 79 -60 124.5t-171 45.5h-355zM1063 459
q0 98 -68 151.5t-202 53.5h-355l-100 -474h385q173 0 256.5 72t83.5 197z" />
    <glyph glyph-name="Gamma" unicode="&#x393;" horiz-adv-x="1173" 
d="M1276 1249h-711l-266 -1249h-244l310 1454h954z" />
    <glyph glyph-name="uni0394" unicode="&#x394;" horiz-adv-x="1419" 
d="M1069 1454l213 -1454h-1362l830 1454h319zM285 201h731l-70 506l-12 86q-50 344 -60 479q-80 -162 -307 -567z" />
    <glyph glyph-name="Epsilon" unicode="&#x395;" horiz-adv-x="1280" 
d="M1362 1454l-45 -205h-754l-86 -397h705l-43 -203h-705l-94 -444h776l-43 -205h-1018l310 1454h997z" />
    <glyph glyph-name="Zeta" unicode="&#x396;" horiz-adv-x="1296" 
d="M1409 1454l-43 -197l-1036 -1052h811l-43 -205h-1118l40 197l1035 1052h-776l43 205h1087z" />
    <glyph glyph-name="Eta" unicode="&#x397;" horiz-adv-x="1521" 
d="M1559 1454l-310 -1454h-243l139 657h-709l-139 -657h-242l310 1454h241l-125 -592h709l125 592h244z" />
    <glyph glyph-name="Theta" unicode="&#x398;" horiz-adv-x="1566" 
d="M125 573q-2 133 33.5 266t106 250.5t167 208t226.5 141.5t274 48q280 0 440 -162.5t160 -443.5q2 -133 -33 -266t-105 -250.5t-165.5 -208t-225.5 -141.5t-274 -48q-281 0 -442.5 162.5t-161.5 443.5zM1286 872q0 192 -93.5 297t-266.5 105q-126 3 -234 -59t-177 -163
t-107.5 -224t-36.5 -246q0 -191 96 -296.5t268 -105.5q101 -2 191.5 38t155.5 109t112 159t70 189t22 197zM520 649l43 199h567l-43 -199h-567z" />
    <glyph glyph-name="Iota" unicode="&#x399;" horiz-adv-x="598" 
d="M621 1454l-310 -1454h-241l309 1454h242z" />
    <glyph glyph-name="Kappa" unicode="&#x39a;" horiz-adv-x="1396" 
d="M1542 1454l-663 -565l399 -889h-252l-330 733l-297 -254l-102 -479h-242l310 1454h241l-141 -659l760 659h317z" />
    <glyph glyph-name="Lambda" unicode="&#x39b;" horiz-adv-x="1329" 
d="M1018 1454l176 -1454h-240l-82 707q-36 316 -49 522q-140 -282 -268 -518l-379 -711h-258l795 1454h305z" />
    <glyph glyph-name="Mu" unicode="&#x39c;" horiz-adv-x="1839" 
d="M1485 1454h391l-309 -1454h-236l154 733l96 428l27 115q-80 -156 -291 -543l-397 -733h-213l-93 733q-51 372 -65 531q-37 -196 -109 -533l-153 -731h-232l310 1454h370l76 -614q44 -337 57 -539q93 199 281 539z" />
    <glyph glyph-name="Nu" unicode="&#x39d;" horiz-adv-x="1525" 
d="M1327 1454h236l-310 -1454h-256l-266 625q-148 348 -209 524q-38 -238 -110 -578l-121 -571h-236l310 1454h260l274 -649l27 -64q121 -293 168 -430q27 158 106 553z" />
    <glyph glyph-name="Xi" unicode="&#x39e;" horiz-adv-x="1337" 
d="M260 1237l47 217h1112l-47 -217h-1112zM205 643l45 215h969l-45 -215h-969zM-20 0l45 217h1149l-46 -217h-1148z" />
    <glyph glyph-name="Omicron" unicode="&#x39f;" horiz-adv-x="1554" 
d="M1522 881q2 -105 -21.5 -213t-68.5 -211t-115 -193.5t-156.5 -157.5t-199.5 -104.5t-238 -34.5q-275 0 -437.5 163t-162.5 443q0 203 90 418t270 355q181 141 445 141q272 0 433 -163.5t161 -442.5zM369 588q0 -195 94 -301.5t264 -106.5q104 -3 195.5 39t155 113
t109.5 162t68 187t21 187q0 195 -92 300.5t-262 105.5q-104 3 -196 -39t-156.5 -113t-111 -162t-68.5 -186.5t-21 -185.5z" />
    <glyph glyph-name="Pi" unicode="&#x3a0;" horiz-adv-x="1497" 
d="M1225 0h-242l266 1249h-686l-266 -1249h-242l310 1454h1169z" />
    <glyph glyph-name="Rho" unicode="&#x3a1;" horiz-adv-x="1380" 
d="M1413 1069q0 -103 -34 -193t-101.5 -162t-179.5 -113.5t-256 -41.5h-426l-119 -559h-242l310 1454h614q202 0 318 -108.5t116 -276.5zM936 1253h-373l-104 -493h364q179 0 269 78.5t90 208.5q0 102 -64 154t-182 52z" />
    <glyph glyph-name="Sigma" unicode="&#x3a3;" horiz-adv-x="1259" 
d="M1341 1454l-47 -205h-774l318 -516l-514 -528h774l-43 -205h-1075l43 199l538 551l-305 495l45 209h1040z" />
    <glyph glyph-name="Tau" unicode="&#x3a4;" horiz-adv-x="1236" 
d="M1376 1454l-45 -207h-436l-264 -1247h-244l264 1247h-436l45 207h1116z" />
    <glyph glyph-name="Upsilon" unicode="&#x3a5;" horiz-adv-x="1298" 
d="M1190 1454h283l-695 -840l-131 -614h-241l129 616l-332 838h248l237 -618z" />
    <glyph glyph-name="Phi" unicode="&#x3a6;" horiz-adv-x="1708" 
d="M879 115l-27 -127h-238l29 133q-258 26 -390 160.5t-132 355.5q-2 157 56.5 291t163 227.5t250 147.5t314.5 57l23 106h237l-22 -112q259 -29 390.5 -163.5t131.5 -354.5q3 -207 -100 -371.5t-283 -255.5t-403 -94zM688 313l180 848q-226 -22 -366 -160.5t-140 -355.5
q0 -140 83.5 -226t242.5 -106zM1419 829q0 141 -81 225.5t-240 104.5l-180 -848q222 22 361.5 162t139.5 356z" />
    <glyph glyph-name="Chi" unicode="&#x3a7;" horiz-adv-x="1390" 
d="M1507 1454l-620 -696l362 -758h-252l-282 594l-522 -594h-279l692 784l-323 670h252l241 -512l451 512h280z" />
    <glyph glyph-name="Psi" unicode="&#x3a8;" horiz-adv-x="1703" 
d="M1507 1454h242l-129 -610q-57 -270 -223 -404.5t-471 -134.5l-66 -305h-242l66 309q-235 20 -357 125.5t-122 288.5q0 69 18 151l123 580h244l-131 -598q-13 -60 -13 -100q0 -221 281 -242l201 940h241l-200 -940q176 12 276 94.5t135 241.5z" />
    <glyph glyph-name="uni03A9" unicode="&#x3a9;" horiz-adv-x="1560" 
d="M1188 205h223l-45 -205h-563l45 205q195 84 311 262q115 180 115 403q0 191 -91.5 297.5t-258.5 106.5q-119 2 -223.5 -54t-176 -150.5t-112 -218t-39.5 -253.5q0 -133 58 -235t171 -158l-43 -205h-555l43 205h242q-78 78 -119 182.5t-41 222.5q-1 107 24.5 215t73.5 206
t120.5 182.5t160 146t196.5 95.5t226 32q274 0 432 -168.5t158 -444.5q0 -207 -85.5 -384t-246.5 -285z" />
    <glyph glyph-name="Iotadieresis" unicode="&#x3aa;" horiz-adv-x="598" 
d="M621 1454l-310 -1454h-241l309 1454h242zM504 1849l-49 -231h-217l51 231h215zM883 1849l-49 -231h-218l50 231h217z" />
    <glyph glyph-name="Upsilondieresis" unicode="&#x3ab;" horiz-adv-x="1298" 
d="M1190 1454h283l-695 -840l-131 -614h-241l129 616l-332 838h248l237 -618zM834 1849l-50 -231h-217l51 231h216zM1212 1849l-49 -231h-217l49 231h217z" />
    <glyph glyph-name="alphatonos" unicode="&#x3ac;" horiz-adv-x="1189" 
d="M948 1028h207l-219 -1028h-203l35 162q-132 -187 -350 -187q-170 0 -263.5 104.5t-93.5 289.5q-2 97 22 196t72.5 187.5t115 157.5t156.5 108.5t189 36.5q237 0 297 -189zM838 653q0 101 -50.5 157t-150.5 56q-84 2 -153.5 -43t-111 -117t-64 -153t-21.5 -156
q0 -231 196 -231q75 -3 143.5 40.5t114.5 114t72 158.5t25 174zM825 1180h-192l139 299h252z" />
    <glyph glyph-name="epsilontonos" unicode="&#x3ad;" horiz-adv-x="1048" 
d="M846 303l121 -149q-221 -185 -504 -185q-213 0 -324.5 72.5t-111.5 204.5q0 224 256 301q-67 29 -102.5 79t-35.5 113q0 81 40.5 144.5t108.5 101.5t149.5 57t170.5 19q139 0 244.5 -40t196.5 -126l-140 -141q-127 127 -301 127q-95 0 -168 -33q-75 -34 -75 -117
q0 -55 46 -84t136 -29h164l-27 -161h-147q-115 0 -197 -39q-86 -38 -86 -133q0 -127 225 -127q98 0 183 35t178 110zM776 1180h-192l139 299h252z" />
    <glyph glyph-name="etatonos" unicode="&#x3ae;" horiz-adv-x="1157" 
d="M1069 782q0 -70 -14 -139l-213 -1012h-228l211 1004q13 57 13 94q0 69 -42 104t-122 35q-111 0 -193 -76.5t-108 -213.5l-123 -578h-227l217 1028h204l-28 -141q121 172 340 172q147 0 230 -74t83 -203zM825 1180h-192l139 299h252z" />
    <glyph glyph-name="iotatonos" unicode="&#x3af;" horiz-adv-x="487" 
d="M244 0h-226l218 1028h225zM467 1180h-193l140 299h252z" />
    <glyph glyph-name="upsilondieresistonos" unicode="&#x3b0;" horiz-adv-x="1136" 
d="M90 324q0 55 14 118l123 586h226l-129 -604q-9 -40 -9 -86q0 -84 46.5 -131t136.5 -47q111 0 170 63.5t86 196.5l127 608h225l-135 -635q-43 -208 -160.5 -316t-327.5 -108q-187 0 -290 96t-103 259zM588 1204l100 277h225l-161 -277h-164zM328 1204l43 203h204l-43 -203
h-204zM874 1204l46 203h202l-43 -203h-205z" />
    <glyph glyph-name="alpha" unicode="&#x3b1;" horiz-adv-x="1189" 
d="M948 1028h207l-219 -1028h-203l35 162q-132 -187 -350 -187q-170 0 -263.5 104.5t-93.5 289.5q-2 97 22 196t72.5 187.5t115 157.5t156.5 108.5t189 36.5q237 0 297 -189zM838 653q0 101 -50.5 157t-150.5 56q-84 2 -153.5 -43t-111 -117t-64 -153t-21.5 -156
q0 -231 196 -231q75 -3 143.5 40.5t114.5 114t72 158.5t25 174z" />
    <glyph glyph-name="beta" unicode="&#x3b2;" horiz-adv-x="1193" 
d="M1116 449q0 -201 -141 -338.5t-359 -137.5q-121 0 -207.5 55t-127.5 158l-119 -555h-225l296 1407q44 210 185 328.5t346 118.5q191 0 301.5 -96t110.5 -240q0 -135 -72 -234t-201 -147q101 -42 157 -125t56 -194zM887 446q0 100 -69 165t-179 65h-94l39 184h114
q104 0 179 72t75 180q0 86 -53.5 134t-150.5 48q-112 0 -189.5 -75t-103.5 -209l-105 -492q-12 -50 -12 -96q0 -118 71 -189t193 -71q128 0 206.5 78.5t78.5 205.5z" />
    <glyph glyph-name="gamma" unicode="&#x3b3;" horiz-adv-x="1040" 
d="M213 -369l78 367l-162 1030h227l47 -348q38 -326 48 -434l26 51l199 381l194 350h246l-598 -1032l-78 -365h-227z" />
    <glyph glyph-name="delta" unicode="&#x3b4;" horiz-adv-x="1159" 
d="M63 397q0 148 61 276.5t177.5 212t265.5 93.5q39 0 49 -2l-282 311l35 166h802l-38 -182h-504l282 -314q91 -97 129.5 -186.5t38.5 -196.5q1 -115 -42 -225t-118 -195.5t-185 -136.5t-234 -49q-202 0 -319.5 116t-117.5 312zM852 563q0 117 -57 182.5t-172 65.5
q-143 0 -238.5 -121t-95.5 -280q0 -116 56 -183t173 -67q88 0 166 58.5t123 151.5t45 193z" />
    <glyph glyph-name="epsilon" unicode="&#x3b5;" horiz-adv-x="1048" 
d="M846 303l121 -149q-221 -185 -504 -185q-213 0 -324.5 72.5t-111.5 204.5q0 224 256 301q-67 29 -102.5 79t-35.5 113q0 81 40.5 144.5t108.5 101.5t149.5 57t170.5 19q139 0 244.5 -40t196.5 -126l-140 -141q-127 127 -301 127q-95 0 -168 -33q-75 -34 -75 -117
q0 -55 46 -84t136 -29h164l-27 -161h-147q-115 0 -197 -39q-86 -38 -86 -133q0 -127 225 -127q98 0 183 35t178 110z" />
    <glyph glyph-name="zeta" unicode="&#x3b6;" horiz-adv-x="1003" 
d="M647 -360l-98 120q76 62 103.5 95t27.5 77q0 68 -90 68h-113q-193 0 -306.5 92.5t-113.5 253.5q0 263 197 492q198 229 504 434h-484l37 182h813l-34 -168q-191 -123 -375 -266q-173 -135 -301 -305q-131 -174 -131 -353q0 -172 235 -172h117q117 0 184.5 -52t67.5 -144
q0 -96 -59 -176.5t-181 -177.5z" />
    <glyph glyph-name="eta" unicode="&#x3b7;" horiz-adv-x="1157" 
d="M1069 782q0 -70 -14 -139l-213 -1012h-228l211 1004q13 57 13 94q0 69 -42 104t-122 35q-111 0 -193 -76.5t-108 -213.5l-123 -578h-227l217 1028h204l-28 -141q121 172 340 172q147 0 230 -74t83 -203z" />
    <glyph glyph-name="theta" unicode="&#x3b8;" horiz-adv-x="1181" 
d="M102 453q0 258 70 514q70 257 227 399q138 123 344 123q196 0 297 -131t101 -357q0 -259 -70 -512q-68 -256 -221 -397q-138 -123 -344 -123q-196 0 -300 130.5t-104 353.5zM377 821h526q17 107 17 187q0 290 -197 290q-114 0 -191 -86q-99 -111 -155 -391zM715 244
q103 120 159 409h-530q-20 -126 -20 -204q0 -129 48 -209t150 -80q115 0 193 84z" />
    <glyph glyph-name="iota" unicode="&#x3b9;" horiz-adv-x="487" 
d="M244 0h-226l218 1028h225z" />
    <glyph glyph-name="kappa" unicode="&#x3ba;" horiz-adv-x="1050" 
d="M1114 1028l-434 -407l274 -621h-231l-209 485l-205 -174l-65 -311h-226l218 1028h225l-94 -450l481 450h266z" />
    <glyph glyph-name="lambda" unicode="&#x3bb;" horiz-adv-x="1044" 
d="M721 1223l176 -1223h-223l-43 332q-16 133 -39 358l-6 62q-136 -257 -230 -420l-192 -332h-248l625 1044l-17 127q-7 73 -36 102.5t-85 29.5q-26 0 -120 -23l-50 170q123 39 201 39q129 0 198 -63.5t89 -202.5z" />
    <glyph glyph-name="uni03BC" unicode="&#x3bc;" horiz-adv-x="1146" 
d="M887 1028h225l-217 -1028h-207l31 150q-56 -82 -132.5 -130.5t-160.5 -48.5q-121 0 -174 74l-90 -420h-225l296 1403h226l-129 -608q-15 -64 -15 -119q0 -69 33.5 -102t110.5 -33q113 0 194.5 79t116.5 230z" />
    <glyph glyph-name="nu" unicode="&#x3bd;" horiz-adv-x="1044" 
d="M870 1028h244l-567 -1028h-287l-129 1028h227l37 -354q32 -316 43 -492q105 225 246 492z" />
    <glyph glyph-name="xi" unicode="&#x3be;" horiz-adv-x="1032" 
d="M643 -360l-98 120q76 62 103.5 95t27.5 77q0 68 -90 68h-113q-193 0 -306.5 92.5t-113.5 253.5q0 154 97 277q99 120 251 157q-63 25 -100 82.5t-37 132.5q0 95 55.5 171.5t149.5 113.5h-217l37 174h839l-41 -182h-274q-131 0 -229 -70q-97 -69 -97 -190q0 -73 52 -116.5
t135 -43.5h276l-41 -184h-272q-147 0 -251.5 -83.5t-104.5 -222.5q0 -88 60 -130t169 -42h121q119 0 186.5 -52t67.5 -144q0 -93 -59 -172.5t-183 -181.5z" />
    <glyph glyph-name="omicron" unicode="&#x3bf;" horiz-adv-x="1167" 
d="M1094 616q1 -83 -21 -172t-71 -175.5t-116.5 -154t-166 -108t-211.5 -37.5q-205 0 -322.5 118t-117.5 331q-1 81 21.5 169t71 174t116.5 154t166.5 108.5t211.5 37.5q203 0 321 -117t118 -328zM293 418q0 -122 59 -190t168 -68q79 -2 147.5 41.5t111 112.5t66.5 148
t23 152q0 256 -225 256q-80 3 -149 -40.5t-111.5 -113t-66.5 -148t-23 -150.5z" />
    <glyph glyph-name="pi" unicode="&#x3c0;" horiz-adv-x="1263" 
d="M1085 852l-120 -563q-7 -35 -7 -51q0 -35 17.5 -50.5t56.5 -15.5q47 0 96 14l19 -178q-91 -31 -199 -31q-221 0 -221 195q0 46 16 121l117 559h-344l-180 -852h-227l182 852h-189l39 176h1162l-39 -176h-179z" />
    <glyph glyph-name="rho" unicode="&#x3c1;" horiz-adv-x="1183" 
d="M1118 631q1 -95 -22 -190.5t-70.5 -180.5t-112.5 -150t-154 -102t-190 -35q-105 0 -181.5 45.5t-113.5 128.5l-110 -516h-227l200 947q50 225 195.5 354t359.5 129q197 0 311.5 -119.5t114.5 -310.5zM891 606q0 125 -55 194.5t-158 69.5t-183.5 -68.5t-120.5 -172.5
t-40 -221q0 -110 58.5 -177t160.5 -67q83 0 149.5 41t106.5 106.5t61 141.5t21 153z" />
    <glyph glyph-name="uni03C2" unicode="&#x3c2;" horiz-adv-x="1038" 
d="M584 -360l-99 120q67 52 96 85t29 71q0 29 -31 49.5t-116 46.5q-188 59 -290.5 174.5t-102.5 284.5q-3 160 69.5 296t205 216.5t294.5 77.5q253 0 391 -203l-158 -127q-61 78 -115.5 108.5t-129.5 30.5q-144 0 -236 -110.5t-92 -270.5q0 -208 219 -282q116 -41 168 -62
q135 -58 135 -168q0 -87 -58 -164.5t-179 -172.5z" />
    <glyph glyph-name="sigma" unicode="&#x3c3;" horiz-adv-x="1210" 
d="M1253 1028l-32 -182h-254q108 -86 108 -262q1 -116 -40.5 -228t-115 -199t-183.5 -139t-236 -49q-206 0 -322.5 117.5t-116.5 321.5q-1 124 41 237.5t118 199t190 135.5t247 48h596zM852 580q0 122 -57.5 194t-165.5 72q-102 0 -181.5 -62t-120 -159t-40.5 -207
q0 -124 57.5 -191t167.5 -67q96 0 175.5 61t122 157t42.5 202z" />
    <glyph glyph-name="tau" unicode="&#x3c4;" horiz-adv-x="903" 
d="M621 846l-117 -545q-6 -35 -6 -55q0 -41 21 -57.5t69 -16.5q55 0 129 23l14 -181q-93 -37 -213 -37q-256 0 -256 209q0 46 12 101l119 559h-303l41 182h838l-39 -182h-309z" />
    <glyph glyph-name="upsilon" unicode="&#x3c5;" horiz-adv-x="1136" 
d="M90 324q0 55 14 118l123 586h226l-129 -604q-9 -40 -9 -86q0 -84 46.5 -131t136.5 -47q111 0 170 63.5t86 196.5l127 608h225l-135 -635q-43 -208 -160.5 -316t-327.5 -108q-187 0 -290 96t-103 259z" />
    <glyph glyph-name="phi" unicode="&#x3c6;" horiz-adv-x="1488" 
d="M1419 641q0 -194 -80.5 -345.5t-237 -239t-366.5 -87.5h-6l-72 -338h-227l72 342q-214 17 -327.5 127.5t-113.5 302.5q0 231 120 402.5t345 255.5l66 -187q-150 -56 -227.5 -181t-77.5 -294q0 -218 254 -239l108 520q83 381 400 381q168 0 269 -113t101 -307zM1192 643
q0 105 -40.5 166t-113.5 61q-114 0 -161 -194l-109 -518q205 9 313 141q111 135 111 344z" />
    <glyph glyph-name="chi" unicode="&#x3c7;" horiz-adv-x="1058" 
d="M1135 1028l-527 -698l221 -699h-233l-152 502l-372 -502h-248l528 703l-217 694h232l147 -498l371 498h250z" />
    <glyph glyph-name="psi" unicode="&#x3c8;" horiz-adv-x="1550" 
d="M1298 1028h226l-115 -536q-57 -272 -210 -396.5t-435 -124.5l-72 -340h-225l74 344q-209 20 -322 127.5t-113 290.5q0 76 21 158l100 477h228l-109 -510q-14 -71 -14 -123q0 -108 61 -164.5t187 -68.5l254 1198h225l-254 -1200q171 6 258.5 88.5t126.5 269.5z" />
    <glyph glyph-name="omega" unicode="&#x3c9;" horiz-adv-x="1499" 
d="M59 365q0 260 124.5 437.5t369.5 258.5l65 -184q-333 -113 -333 -506q0 -98 33 -154.5t94 -56.5q164 0 204 248l54 294h225l-51 -294q-8 -36 -8 -91q0 -157 125 -157q56 -3 103.5 40.5t75.5 110.5t43.5 140t14.5 135q0 98 -50.5 169t-152.5 126l95 180
q180 -85 257.5 -198.5t77.5 -270.5q1 -82 -16 -168.5t-54 -169t-89 -147t-127.5 -102.5t-163.5 -36q-117 0 -192 58.5t-87 160.5q-93 -219 -321 -219q-149 0 -232.5 109t-83.5 287z" />
    <glyph glyph-name="iotadieresis" unicode="&#x3ca;" horiz-adv-x="487" 
d="M244 0h-226l218 1028h225zM360 1438l-49 -232h-217l51 232h215zM739 1438l-49 -232h-217l49 232h217z" />
    <glyph glyph-name="upsilondieresis" unicode="&#x3cb;" horiz-adv-x="1136" 
d="M90 324q0 55 14 118l123 586h226l-129 -604q-9 -40 -9 -86q0 -84 46.5 -131t136.5 -47q111 0 170 63.5t86 196.5l127 608h225l-135 -635q-43 -208 -160.5 -316t-327.5 -108q-187 0 -290 96t-103 259zM662 1438l-50 -232h-217l51 232h216zM1040 1438l-49 -232h-217l49 232
h217z" />
    <glyph glyph-name="omicrontonos" unicode="&#x3cc;" horiz-adv-x="1159" 
d="M1094 616q1 -83 -21 -172t-71 -175.5t-116.5 -154t-166 -108t-211.5 -37.5q-205 0 -322.5 118t-117.5 331q-1 81 21.5 169t71 174t116.5 154t166.5 108.5t211.5 37.5q203 0 321 -117t118 -328zM293 418q0 -122 59 -190t168 -68q79 -2 147.5 41.5t111 112.5t66.5 148
t23 152q0 256 -225 256q-80 3 -149 -40.5t-111.5 -113t-66.5 -148t-23 -150.5zM797 1180h-193l139 299h252z" />
    <glyph glyph-name="upsilontonos" unicode="&#x3cd;" horiz-adv-x="1136" 
d="M90 324q0 55 14 118l123 586h226l-129 -604q-9 -40 -9 -86q0 -84 46.5 -131t136.5 -47q111 0 170 63.5t86 196.5l127 608h225l-135 -635q-43 -208 -160.5 -316t-327.5 -108q-187 0 -290 96t-103 259zM780 1180h-192l139 299h252z" />
    <glyph glyph-name="omegatonos" unicode="&#x3ce;" horiz-adv-x="1499" 
d="M59 365q0 260 124.5 437.5t369.5 258.5l65 -184q-333 -113 -333 -506q0 -98 33 -154.5t94 -56.5q164 0 204 248l54 294h225l-51 -294q-8 -36 -8 -91q0 -157 125 -157q56 -3 103.5 40.5t75.5 110.5t43.5 140t14.5 135q0 98 -50.5 169t-152.5 126l95 180
q180 -85 257.5 -198.5t77.5 -270.5q1 -82 -16 -168.5t-54 -169t-89 -147t-127.5 -102.5t-163.5 -36q-117 0 -192 58.5t-87 160.5q-93 -219 -321 -219q-149 0 -232.5 109t-83.5 287zM940 1180h-192l139 299h252z" />
    <glyph glyph-name="uni0401" unicode="&#x401;" horiz-adv-x="1280" 
d="M1362 1454l-45 -205h-754l-86 -397h705l-43 -203h-705l-94 -444h776l-43 -205h-1018l310 1454h997zM864 1849l-49 -231h-217l51 231h215zM1243 1849l-49 -231h-217l49 231h217z" />
    <glyph glyph-name="uni0402" unicode="&#x402;" horiz-adv-x="1669" 
d="M1550 528q0 -259 -146 -407t-415 -148q-100 0 -205 19l52 198q74 -12 157 -12q148 0 230 83t82 231q0 105 -72 161t-201 56q-181 0 -315 -58l-139 -651h-244l266 1249h-383l43 205h1098l-43 -205h-471l-84 -389q154 60 338 60q208 0 330 -110.5t122 -281.5z" />
    <glyph glyph-name="uni0403" unicode="&#x403;" horiz-adv-x="1173" 
d="M1276 1249h-711l-266 -1249h-244l310 1454h954zM1200 1866l-260 -293h-207l205 293h262z" />
    <glyph glyph-name="uni0404" unicode="&#x404;" horiz-adv-x="1394" 
d="M1153 395l150 -151q-139 -146 -280 -211.5t-300 -65.5q-187 0 -324.5 78.5t-206.5 211.5t-69 302q0 205 84 420q83 216 268 360q186 148 469 148q310 0 506 -248l-174 -145q-81 96 -164.5 138t-187.5 42q-197 0 -330 -121q-132 -120 -191 -303h627l-45 -201h-623
q-4 -66 -4 -69q0 -187 96 -293.5t271 -106.5q113 0 205 47.5t223 167.5z" />
    <glyph glyph-name="uni0405" unicode="&#x405;" horiz-adv-x="1331" 
d="M1337 1251l-145 -161q-111 96 -213 141t-215 45q-135 0 -223 -64t-88 -161q0 -56 32 -88q31 -31 92.5 -56.5t202.5 -68.5q128 -41 206.5 -77t133 -83.5t77 -105.5t24.5 -140q0 -87 -35.5 -169t-102 -148.5t-174 -107t-239.5 -40.5q-194 0 -342 62q-152 68 -299 198
l147 172q160 -129 258 -174q103 -47 244 -47q138 0 223.5 68t85.5 172q0 61 -39 100q-35 37 -97.5 63t-203.5 66q-240 70 -335 153t-95 230q-2 82 36 162.5t107.5 147t179.5 106.5t240 39q166 0 299 -57.5t258 -176.5z" />
    <glyph glyph-name="uni0406" unicode="&#x406;" horiz-adv-x="598" 
d="M621 1454l-310 -1454h-241l309 1454h242z" />
    <glyph glyph-name="uni0407" unicode="&#x407;" horiz-adv-x="598" 
d="M621 1454l-310 -1454h-241l309 1454h242zM504 1849l-49 -231h-217l51 231h215zM883 1849l-49 -231h-218l50 231h217z" />
    <glyph glyph-name="uni0408" unicode="&#x408;" horiz-adv-x="966" 
d="M1014 1454l-230 -1071q-43 -213 -156.5 -312.5t-297.5 -99.5q-214 0 -391 105l96 182q86 -38 148 -55t130 -17q95 0 153 58t87 186l217 1024h244z" />
    <glyph glyph-name="uni0409" unicode="&#x409;" horiz-adv-x="2279" 
d="M2214 510q0 -227 -147 -368.5t-390 -141.5h-686l264 1249h-544l-140 -618q-59 -258 -102 -381q-45 -130 -135 -198t-244 -68q-101 0 -174 20l70 205q45 -10 98 -10q74 0 121 47q47 50 74 141q28 84 73 283l176 784h1014l-117 -553h342q200 0 323.5 -108.5t123.5 -282.5z
M1970 492q0 98 -64.5 153t-181.5 55h-342l-106 -499h377q144 0 230.5 77t86.5 214z" />
    <glyph glyph-name="uni040A" unicode="&#x40a;" horiz-adv-x="2299" 
d="M55 0l310 1454h243l-121 -571h707l121 571h246l-121 -571h344q200 0 323 -106.5t123 -274.5q0 -228 -149.5 -365t-397.5 -137h-677l145 682h-709l-143 -682h-244zM1294 201h365q150 0 239 73t89 207q0 97 -63.5 149t-180.5 52h-348z" />
    <glyph glyph-name="uni040B" unicode="&#x40b;" horiz-adv-x="1654" 
d="M1544 569q0 -67 -14 -127l-92 -442h-246l94 442q10 62 10 86q0 96 -63.5 138.5t-200.5 42.5q-172 0 -315 -58l-137 -651h-244l264 1247h-383l43 207h1098l-43 -207h-471l-82 -387q160 62 344 62q214 0 326 -92.5t112 -260.5z" />
    <glyph glyph-name="uni040C" unicode="&#x40c;" horiz-adv-x="1390" 
d="M1554 1454l-673 -704l376 -750h-260l-321 657h-236l-139 -657h-244l308 1454h243l-125 -592h219l560 592h292zM1284 1872l-260 -293h-207l205 293h262z" />
    <glyph glyph-name="uni040E" unicode="&#x40e;" horiz-adv-x="1316" 
d="M1481 1454h-260l-547 -854l-209 854h-238l283 -1106l-21 -33q-46 -72 -93 -100.5t-111 -28.5q-52 0 -123 23l-84 -203q78 -35 194 -35q103 3 170.5 30t122 82.5t127.5 166.5zM1223 1835q-23 -139 -114 -213t-232 -74q-139 0 -218 66.5t-79 173.5q0 1 4 47h172l-2 -29
q0 -127 129 -127q140 0 168 156h172z" />
    <glyph glyph-name="uni040F" unicode="&#x40f;" horiz-adv-x="1484" 
d="M365 1454h243l-266 -1249h670l266 1249h244l-310 -1454h-460l-68 -319h-238l68 319h-459z" />
    <glyph glyph-name="uni0410" unicode="&#x410;" horiz-adv-x="1419" 
d="M1042 0l-45 328h-641l-184 -328h-254l834 1454h317l213 -1454h-240zM469 528h502l-25 181l-18 139q-43 312 -51 426q-107 -208 -310 -569z" />
    <glyph glyph-name="uni0411" unicode="&#x411;" horiz-adv-x="1359" 
d="M55 0l310 1454h1013l-43 -205h-772l-78 -368h351q203 0 321.5 -103t118.5 -276q0 -229 -142.5 -365.5t-381.5 -136.5h-697zM340 201h385q139 0 223 73.5t84 206.5q0 97 -61 148t-178 51h-353z" />
    <glyph glyph-name="uni0412" unicode="&#x412;" horiz-adv-x="1411" 
d="M1303 451q0 -88 -32.5 -167.5t-94 -143.5t-161 -102t-224.5 -38h-736l310 1454h620q179 0 291 -92q110 -88 110 -242q0 -130 -75.5 -234t-206.5 -141q93 -38 146 -114t53 -180zM565 1264l-86 -410h365q155 0 231 64.5t76 175.5q0 79 -60 124.5t-171 45.5h-355zM1063 459
q0 98 -68 151.5t-202 53.5h-355l-100 -474h385q173 0 256.5 72t83.5 197z" />
    <glyph glyph-name="uni0413" unicode="&#x413;" horiz-adv-x="1173" 
d="M1276 1249h-711l-266 -1249h-244l310 1454h954z" />
    <glyph glyph-name="uni0414" unicode="&#x414;" horiz-adv-x="1599" 
d="M559 1454h1004l-265 -1249h177l-107 -508h-238l64 303h-1006l-63 -303h-238l109 508h127q98 113 168 256q77 152 143 442zM373 205h682l223 1044h-537l-79 -354q-63 -282 -140 -446t-149 -244z" />
    <glyph glyph-name="uni0415" unicode="&#x415;" horiz-adv-x="1280" 
d="M1362 1454l-45 -205h-754l-86 -397h705l-43 -203h-705l-94 -444h776l-43 -205h-1018l310 1454h997z" />
    <glyph glyph-name="uni0416" unicode="&#x416;" horiz-adv-x="2107" 
d="M2271 1454l-653 -709l356 -745h-260l-307 657h-201l-139 -657h-233l139 657h-191l-565 -657h-301l692 795l-336 659h252l295 -592h197l125 592h233l-125 -592h197l532 592h293z" />
    <glyph glyph-name="uni0417" unicode="&#x417;" horiz-adv-x="1320" 
d="M1212 440q0 -219 -159.5 -344t-436.5 -125q-162 0 -315 60.5t-278 183.5l145 168q108 -96 227 -149.5t234 -53.5q154 0 247 67.5t93 196.5q0 96 -75 150.5t-224 54.5h-219l43 197h245q140 0 226 59t86 180q0 83 -72 136t-193 53q-109 0 -216 -41t-226 -135l-127 174
q152 114 288 162.5t298 48.5q224 0 356.5 -101.5t132.5 -267.5q0 -142 -75 -235.5t-213 -139.5q101 -44 154.5 -121.5t53.5 -177.5z" />
    <glyph glyph-name="uni0418" unicode="&#x418;" horiz-adv-x="1527" 
d="M1294 1454h269l-308 -1454h-235l121 571q65 309 139 600q-153 -198 -440 -544l-521 -627h-262l308 1454h235l-125 -590q-60 -285 -133 -575q136 182 412 514z" />
    <glyph glyph-name="uni0419" unicode="&#x419;" horiz-adv-x="1527" 
d="M1563 1454h-269l-540 -651q-276 -332 -412 -514q73 290 133 575l125 590h-235l-308 -1454h262l521 627q287 346 440 544q-74 -291 -139 -600l-121 -571h235zM1356 1858q-24 -140 -123.5 -214.5t-251.5 -74.5q-144 0 -226.5 67t-82.5 174q0 2 4 48h176l-2 -23
q0 -55 37 -93t108 -38q75 0 122 40t61 114h178z" />
    <glyph glyph-name="uni041A" unicode="&#x41a;" horiz-adv-x="1390" 
d="M1554 1454l-673 -704l376 -750h-260l-321 657h-236l-139 -657h-244l308 1454h243l-125 -592h219l560 592h292z" />
    <glyph glyph-name="uni041B" unicode="&#x41b;" horiz-adv-x="1505" 
d="M-84 4l70 205q45 -10 98 -10q74 0 121 47q47 50 74 141q28 84 73 283l176 784h1014l-309 -1454h-242l264 1249h-544l-140 -618q-59 -258 -102 -381q-45 -130 -135 -198t-244 -68q-101 0 -174 20z" />
    <glyph glyph-name="uni041C" unicode="&#x41c;" horiz-adv-x="1839" 
d="M1485 1454h391l-309 -1454h-236l154 733l96 428l27 115q-80 -156 -291 -543l-397 -733h-213l-93 733q-51 372 -65 531q-37 -196 -109 -533l-153 -731h-232l310 1454h370l76 -614q44 -337 57 -539q93 199 281 539z" />
    <glyph glyph-name="uni041D" unicode="&#x41d;" horiz-adv-x="1521" 
d="M1559 1454l-310 -1454h-243l139 657h-709l-139 -657h-242l310 1454h241l-125 -592h709l125 592h244z" />
    <glyph glyph-name="uni041E" unicode="&#x41e;" horiz-adv-x="1554" 
d="M1522 881q2 -105 -21.5 -213t-68.5 -211t-115 -193.5t-156.5 -157.5t-199.5 -104.5t-238 -34.5q-275 0 -437.5 163t-162.5 443q0 203 90 418t270 355q181 141 445 141q272 0 433 -163.5t161 -442.5zM369 588q0 -195 94 -301.5t264 -106.5q104 -3 195.5 39t155 113
t109.5 162t68 187t21 187q0 195 -92 300.5t-262 105.5q-104 3 -196 -39t-156.5 -113t-111 -162t-68.5 -186.5t-21 -185.5z" />
    <glyph glyph-name="uni041F" unicode="&#x41f;" horiz-adv-x="1497" 
d="M1225 0h-242l266 1249h-686l-266 -1249h-242l310 1454h1169z" />
    <glyph glyph-name="uni0420" unicode="&#x420;" horiz-adv-x="1380" 
d="M1413 1069q0 -103 -34 -193t-101.5 -162t-179.5 -113.5t-256 -41.5h-426l-119 -559h-242l310 1454h614q202 0 318 -108.5t116 -276.5zM936 1253h-373l-104 -493h364q179 0 269 78.5t90 208.5q0 102 -64 154t-182 52z" />
    <glyph glyph-name="uni0421" unicode="&#x421;" horiz-adv-x="1398" 
d="M1454 1239l-172 -145q-85 97 -168 139.5t-186 42.5q-108 3 -202 -39.5t-158.5 -114t-111 -163.5t-68.5 -189t-21 -190q0 -186 95 -293t267 -107q113 0 205 47.5t223 167.5l150 -151q-139 -146 -280 -211.5t-300 -65.5q-142 0 -257 45t-190.5 125t-116 188t-40.5 234
q0 205 84 420q86 217 270 360q189 148 471 148q310 0 506 -248z" />
    <glyph glyph-name="uni0422" unicode="&#x422;" horiz-adv-x="1236" 
d="M1376 1454l-45 -207h-436l-264 -1247h-244l264 1247h-436l45 207h1116z" />
    <glyph glyph-name="uni0423" unicode="&#x423;" horiz-adv-x="1316" 
d="M1221 1454h260l-789 -1204q-73 -111 -127.5 -166.5t-122 -82.5t-170.5 -30q-116 0 -194 35l84 203q71 -23 123 -23q64 0 111 28.5t93 100.5l21 33l-283 1106h238l209 -854z" />
    <glyph glyph-name="uni0424" unicode="&#x424;" horiz-adv-x="1886" 
d="M1845 829q0 -219 -105.5 -384t-294 -253t-431.5 -88h-39l-37 -176h-238l39 181q-288 20 -446 163.5t-158 370.5q-3 217 104 384t298 256t434 87h35l32 156h238l-35 -160q285 -21 444.5 -166.5t159.5 -370.5zM784 305l183 866h-23q-158 0 -285 -61t-202.5 -179.5
t-75.5 -275.5q0 -150 105 -244t298 -106zM1597 817q0 152 -104 247t-297 105l-184 -866h22q159 0 285.5 59.5t202 177.5t75.5 277z" />
    <glyph glyph-name="uni0425" unicode="&#x425;" horiz-adv-x="1390" 
d="M1507 1454l-620 -696l362 -758h-252l-282 594l-522 -594h-279l692 784l-323 670h252l241 -512l451 512h280z" />
    <glyph glyph-name="uni0426" unicode="&#x426;" horiz-adv-x="1554" 
d="M365 1454h241l-266 -1249h672l264 1249h244l-267 -1249h177l-107 -508h-236l64 303h-1096z" />
    <glyph glyph-name="uni0427" unicode="&#x427;" horiz-adv-x="1380" 
d="M1174 1454h243l-309 -1454h-244l125 590q-171 -60 -340 -60q-448 0 -448 326q0 69 14 129l102 469h244l-102 -467q-10 -58 -10 -80q0 -89 62.5 -127.5t193.5 -38.5q178 0 329 60z" />
    <glyph glyph-name="uni0428" unicode="&#x428;" horiz-adv-x="2168" 
d="M2208 1454l-310 -1454h-1841l308 1454h243l-266 -1249h557l264 1249h246l-266 -1249h555l264 1249h246z" />
    <glyph glyph-name="uni0429" unicode="&#x429;" horiz-adv-x="2238" 
d="M1772 -303l63 303h-1780l310 1454h241l-266 -1249h557l266 1249h242l-266 -1249h557l266 1249h242l-265 -1249h177l-109 -508h-235z" />
    <glyph glyph-name="uni042A" unicode="&#x42a;" horiz-adv-x="1615" 
d="M1548 510q0 -228 -145.5 -369t-388.5 -141h-690l266 1249h-373l43 205h619l-119 -553h342q200 0 323 -108.5t123 -282.5zM1305 492q0 99 -64 153.5t-182 54.5h-342l-105 -499h377q144 0 230 77t86 214z" />
    <glyph glyph-name="uni042B" unicode="&#x42b;" horiz-adv-x="1869" 
d="M55 0l310 1454h243l-119 -553h345q199 0 321.5 -108.5t122.5 -282.5q0 -228 -146 -369t-389 -141h-688zM342 201h377q143 0 229 77t86 214q0 99 -64 153.5t-182 54.5h-342zM1907 1454l-310 -1454h-241l309 1454h242z" />
    <glyph glyph-name="uni042C" unicode="&#x42c;" horiz-adv-x="1345" 
d="M55 0l310 1454h243l-119 -553h345q199 0 321.5 -108.5t122.5 -282.5q0 -228 -146 -369t-389 -141h-688zM342 201h377q143 0 229 77t86 214q0 99 -64 153.5t-182 54.5h-342z" />
    <glyph glyph-name="uni042D" unicode="&#x42d;" horiz-adv-x="1378" 
d="M16 209l160 151q92 -99 176 -139.5t197 -40.5q194 0 331 126t189 343h-641l45 201h625q11 205 -81 314.5t-280 109.5q-106 0 -207 -37q-104 -38 -239 -135l-119 174q150 110 283 162q125 49 284 49q282 0 442 -163.5t160 -446.5q2 -129 -32 -260.5t-103 -249.5
t-163.5 -208.5t-223.5 -142.5t-274 -49q-159 0 -285.5 58.5t-243.5 183.5z" />
    <glyph glyph-name="uni042E" unicode="&#x42e;" horiz-adv-x="2107" 
d="M2073 881q1 -105 -22.5 -213t-68 -211.5t-114 -193.5t-156 -157t-199 -104.5t-237.5 -34.5q-275 0 -437.5 163t-162.5 443q0 40 4 76h-244l-139 -649h-242l310 1454h243l-129 -602h236q35 129 101.5 241.5t160.5 201.5t223.5 140.5t278.5 51.5q272 0 433 -163.5
t161 -442.5zM1827 868q0 195 -91.5 300.5t-262.5 105.5q-88 2 -166.5 -27t-138 -81t-107.5 -120.5t-78 -146.5t-46 -157t-15 -154q0 -196 93 -302t265 -106q103 -3 194 39t155 113t110 162t67.5 187t20.5 187z" />
    <glyph glyph-name="uni042F" unicode="&#x42f;" horiz-adv-x="1400" 
d="M760 1454h676l-310 -1454h-237l115 539h-252l-506 -539h-289l539 563q-134 42 -211.5 146t-77.5 235q0 224 157 367t396 143zM1047 741l108 512h-385q-143 0 -232 -79.5t-89 -217.5q0 -100 72 -157.5t200 -57.5h326z" />
    <glyph glyph-name="uni0430" unicode="&#x430;" horiz-adv-x="1189" 
d="M948 1028h207l-219 -1028h-203l35 162q-132 -187 -350 -187q-170 0 -263.5 104.5t-93.5 289.5q-2 97 22 196t72.5 187.5t115 157.5t156.5 108.5t189 36.5q237 0 297 -189zM838 653q0 101 -50.5 157t-150.5 56q-84 2 -153.5 -43t-111 -117t-64 -153t-21.5 -156
q0 -231 196 -231q75 -3 143.5 40.5t114.5 114t72 158.5t25 174z" />
    <glyph glyph-name="uni0431" unicode="&#x431;" horiz-adv-x="1200" 
d="M1124 612q2 -172 -73.5 -320.5t-211 -236t-298.5 -84.5q-208 0 -327.5 122.5t-119.5 340.5q0 114 25 252q46 251 127 408t217.5 243.5t343.5 104.5l367 33l16 -211l-338 -29q-123 -11 -202 -34t-140.5 -72.5t-100.5 -125t-73 -196.5q66 91 169 141.5t222 50.5
q184 0 290.5 -104t106.5 -283zM899 573q0 114 -61.5 177t-175.5 63q-153 0 -250 -117t-97 -280q0 -119 65 -185.5t183 -66.5q96 0 174.5 59t120 152t41.5 198z" />
    <glyph glyph-name="uni0432" unicode="&#x432;" horiz-adv-x="1140" 
d="M1024 315q0 -141 -106 -228t-283 -87h-602l219 1028h500q161 0 248 -65.5t87 -176.5q0 -100 -57.5 -168t-157.5 -98q72 -26 112 -79.5t40 -125.5zM440 858l-55 -258h287q88 0 138 39.5t50 108.5q0 49 -37.5 79.5t-107.5 30.5h-275zM801 328q0 58 -39 87t-125 29h-285
l-57 -270h295q103 0 157 39.5t54 114.5z" />
    <glyph glyph-name="uni0433" unicode="&#x433;" horiz-adv-x="890" 
d="M926 846h-490l-178 -846h-225l217 1028h715z" />
    <glyph glyph-name="uni0434" unicode="&#x434;" horiz-adv-x="1261" 
d="M-111 -256l93 438h102q146 128 223 457l90 389h785l-183 -846h150l-94 -438h-217l55 256h-731l-56 -256h-217zM322 182h452l141 664h-354l-51 -215q-85 -347 -188 -449z" />
    <glyph glyph-name="uni0435" unicode="&#x435;" horiz-adv-x="1144" 
d="M1034 467h-743q-2 -12 -2 -55q0 -120 59.5 -187t175.5 -67q86 0 163 41t175 139l144 -127q-114 -130 -234.5 -186t-261.5 -56q-203 0 -322.5 120.5t-119.5 324.5q-1 84 22.5 173.5t74.5 175.5t121 153.5t170 107.5t214 37q177 0 288 -104t111 -267q0 -113 -35 -223z
M330 627h528q4 50 4 57q0 93 -54 147t-153 54q-112 0 -195.5 -69t-129.5 -189z" />
    <glyph glyph-name="uni0436" unicode="&#x436;" horiz-adv-x="1611" 
d="M1694 1028l-441 -512l240 -516h-238l-198 442h-144l-94 -442h-215l94 442h-149l-383 -442h-264l499 573l-229 455h227l197 -401h141l86 401h215l-86 -401h154l334 401h254z" />
    <glyph glyph-name="uni0437" unicode="&#x437;" horiz-adv-x="1030" 
d="M920 307q0 -173 -132 -256q-128 -82 -323 -82q-258 0 -465 178l117 148q81 -62 175.5 -100.5t178.5 -38.5q103 0 165 39t62 118q0 125 -194 125h-168l37 168h180q89 0 142 39t53 111q0 56 -48 91.5t-133 35.5q-86 0 -163 -28t-181 -99l-102 151q127 87 229 121.5
t230 34.5q104 0 191.5 -30.5t143.5 -94.5t56 -150q0 -192 -219 -266q168 -64 168 -215z" />
    <glyph glyph-name="uni0438" unicode="&#x438;" horiz-adv-x="1220" 
d="M940 1028h250l-217 -1028h-211l80 377l18 80q52 251 80 350q-57 -74 -248 -309q-7 -11 -35 -43l-376 -455h-248l217 1028h211l-84 -397q-69 -318 -94 -402q183 229 280 346z" />
    <glyph glyph-name="uni0439" unicode="&#x439;" horiz-adv-x="1220" 
d="M1190 1028h-250l-377 -453q-97 -117 -280 -346q25 84 94 402l84 397h-211l-217 -1028h248l376 455q28 32 35 43q191 235 248 309q-28 -99 -80 -350l-18 -80l-80 -377h211zM1126 1446q-24 -140 -123 -214.5t-251 -74.5q-144 0 -227 67.5t-83 174.5q0 1 4 47h177l-2 -23
q0 -55 37 -93t108 -38q75 0 121.5 40t60.5 114h178z" />
    <glyph glyph-name="uni043A" unicode="&#x43a;" horiz-adv-x="1114" 
d="M1182 1028l-451 -504l268 -524h-233l-223 442h-191l-94 -442h-225l217 1028h225l-84 -401h180l351 401h260z" />
    <glyph glyph-name="uni043B" unicode="&#x43b;" horiz-adv-x="1210" 
d="M-80 2l62 182q52 -8 75 -8q32 3 52 8t39.5 23t31.5 39t28.5 69t30 98t35.5 142l109 473h795l-220 -1028h-225l180 846h-364l-72 -295q-62 -257 -96 -348q-40 -110 -112.5 -162.5t-202.5 -52.5q-86 0 -146 14z" />
    <glyph glyph-name="uni043C" unicode="&#x43c;" horiz-adv-x="1515" 
d="M1147 1028h336l-217 -1028h-209l90 428q28 135 65 293l35 151q-11 -21 -198 -352l-304 -520h-196l-80 520q-32 207 -49 350q-31 -196 -88 -442l-90 -428h-209l217 1028h321l70 -436q32 -228 49 -377q77 157 203 377z" />
    <glyph glyph-name="uni043D" unicode="&#x43d;" horiz-adv-x="1177" 
d="M928 0h-226l93 442h-443l-94 -442h-225l219 1028h225l-86 -401h445l86 401h225z" />
    <glyph glyph-name="uni043E" unicode="&#x43e;" horiz-adv-x="1167" 
d="M1094 616q1 -83 -21 -172t-71 -175.5t-116.5 -154t-166 -108t-211.5 -37.5q-205 0 -322.5 118t-117.5 331q-1 81 21.5 169t71 174t116.5 154t166.5 108.5t211.5 37.5q203 0 321 -117t118 -328zM293 418q0 -122 59 -190t168 -68q79 -2 147.5 41.5t111 112.5t66.5 148
t23 152q0 256 -225 256q-80 3 -149 -40.5t-111.5 -113t-66.5 -148t-23 -150.5z" />
    <glyph glyph-name="uni043F" unicode="&#x43f;" horiz-adv-x="1173" 
d="M922 0h-226l181 846h-439l-180 -846h-225l219 1028h889z" />
    <glyph glyph-name="uni0440" unicode="&#x440;" horiz-adv-x="1196" 
d="M1130 662q1 -97 -22 -196t-70 -188.5t-112 -159t-154.5 -109t-189.5 -36.5q-105 0 -181.5 44.5t-115.5 125.5l-111 -512h-225l297 1397h211l-35 -164q136 189 352 189q166 0 261 -104t95 -287zM905 631q0 118 -48 174.5t-150 56.5q-102 3 -188 -70t-131.5 -183
t-43.5 -224q0 -100 58 -160.5t157 -60.5q84 -3 153 41.5t110 116.5t62.5 152.5t20.5 156.5z" />
    <glyph glyph-name="uni0441" unicode="&#x441;" horiz-adv-x="1052" 
d="M645 870q-64 2 -121.5 -25t-99 -74t-72 -107t-45.5 -124.5t-14 -125.5q0 -118 58 -185t163 -67q81 0 150.5 36.5t175.5 131.5l133 -133q-115 -121 -228 -174.5t-243 -53.5q-197 0 -316 119q-118 118 -118 318q-1 88 22.5 180.5t74 178.5t119.5 153t166.5 106t208.5 37
q249 0 390 -203l-158 -127q-62 78 -115 108.5t-131 30.5z" />
    <glyph glyph-name="uni0442" unicode="&#x442;" horiz-adv-x="983" 
d="M1014 846h-340l-180 -846h-226l181 846h-343l41 182h908z" />
    <glyph glyph-name="uni0443" unicode="&#x443;" horiz-adv-x="1044" 
d="M881 1028h233l-641 -1165q-78 -143 -163.5 -201.5t-215.5 -58.5q-103 0 -182 26l59 166q62 -10 107 -10q67 0 112 32t95 117l12 19l-162 1075h225l43 -344q4 -31 54 -465q156 315 231 455z" />
    <glyph glyph-name="uni0444" unicode="&#x444;" horiz-adv-x="1517" 
d="M1440 584q2 -128 -48 -242.5t-139 -197.5t-218.5 -130t-278.5 -45h-6l-70 -338h-219l74 349q-211 31 -335 155t-124 311q0 269 187.5 441t496.5 172h6l82 395h219l-88 -405q216 -32 338.5 -155.5t122.5 -309.5zM580 158l153 723q-196 -3 -314 -122t-118 -306
q0 -118 72 -195t207 -100zM1214 578q0 118 -74 197.5t-202 98.5l-154 -724q205 3 316 120q114 120 114 308z" />
    <glyph glyph-name="uni0445" unicode="&#x445;" horiz-adv-x="1032" 
d="M1098 1028l-449 -493l250 -535h-231l-170 383l-336 -383h-256l497 549l-231 479h227l154 -334l289 334h256z" />
    <glyph glyph-name="uni0446" unicode="&#x446;" horiz-adv-x="1222" 
d="M799 -256l55 256h-821l219 1028h225l-180 -846h438l183 846h225l-182 -846h149l-94 -438h-217z" />
    <glyph glyph-name="uni0447" unicode="&#x447;" horiz-adv-x="1103" 
d="M848 1028h225l-219 -1028h-225l82 387q-127 -47 -256 -47q-172 0 -257 61.5t-85 188.5q0 46 14 112l72 326h225l-70 -313q-8 -31 -8 -70q0 -62 39 -89.5t131 -27.5q144 0 234 41z" />
    <glyph glyph-name="uni0448" unicode="&#x448;" horiz-adv-x="1679" 
d="M1649 1028l-219 -1028h-1397l217 1028h225l-178 -844h360l179 844h225l-178 -844h360l180 844h226z" />
    <glyph glyph-name="uni0449" unicode="&#x449;" horiz-adv-x="1730" 
d="M1305 -256l55 256h-1327l219 1028h225l-178 -844h360l181 844h223l-178 -844h360l180 844h226l-183 -846h150l-94 -438h-219z" />
    <glyph glyph-name="uni044A" unicode="&#x44a;" horiz-adv-x="1269" 
d="M1192 391q0 -182 -118.5 -286.5t-313.5 -104.5h-549l180 846h-285l39 182h510l-69 -323h221q178 0 281.5 -83.5t103.5 -230.5zM967 377q0 67 -47 105t-138 38h-235l-72 -336h270q101 0 161.5 49t60.5 144z" />
    <glyph glyph-name="uni044B" unicode="&#x44b;" horiz-adv-x="1538" 
d="M33 0l217 1028h225l-69 -323h221q178 0 281.5 -83.5t103.5 -230.5q0 -182 -117.5 -286.5t-312.5 -104.5h-549zM297 184h270q98 0 159.5 49.5t61.5 143.5q0 67 -47 105t-137 38h-235zM1505 1028l-217 -1028h-225l217 1028h225z" />
    <glyph glyph-name="uni044C" unicode="&#x44c;" horiz-adv-x="1091" 
d="M33 0l217 1028h225l-69 -323h221q178 0 281.5 -83.5t103.5 -230.5q0 -182 -117.5 -286.5t-312.5 -104.5h-549zM297 184h270q98 0 159.5 49.5t61.5 143.5q0 67 -47 105t-137 38h-235z" />
    <glyph glyph-name="uni044D" unicode="&#x44d;" horiz-adv-x="1071" 
d="M999 618q1 -90 -22.5 -181.5t-73.5 -176.5t-118.5 -151t-166 -104t-208.5 -36q-124 0 -221 49.5t-193 165.5l151 131q68 -86 131 -120.5t146 -34.5q111 0 193.5 75.5t125.5 202.5h-438l29 168h440v12q0 121 -55.5 186.5t-169.5 65.5q-78 0 -148 -29.5t-163 -107.5
l-119 148q121 103 221 141q95 39 217 39q204 0 323 -116t119 -327z" />
    <glyph glyph-name="uni044E" unicode="&#x44e;" horiz-adv-x="1638" 
d="M1567 616q1 -83 -21.5 -172t-71.5 -175.5t-116.5 -154t-166 -108t-212.5 -37.5q-204 0 -321 118t-117 331v33h-191l-96 -451h-225l219 1028h225l-90 -416h186q56 189 197 318q140 131 362 131q203 0 321 -117t118 -328zM1341 614q0 124 -57 190t-168 66q-65 2 -123.5 -26
t-99.5 -76t-70.5 -108t-43.5 -122.5t-13 -119.5q0 -123 58 -190.5t167 -67.5q80 -2 148.5 41.5t111.5 112.5t67 148t23 152z" />
    <glyph glyph-name="uni044F" unicode="&#x44f;" horiz-adv-x="1138" 
d="M567 1028h541l-219 -1028h-219l75 348h-196l-342 -348h-264l381 377q-93 35 -145 109t-52 169q0 176 123 275q125 98 317 98zM784 526l70 322h-285q-100 0 -158.5 -46t-58.5 -134q0 -66 52.5 -104t140.5 -38h239z" />
    <glyph glyph-name="uni0451" unicode="&#x451;" horiz-adv-x="1144" 
d="M1034 467h-743q-2 -12 -2 -55q0 -120 59.5 -187t175.5 -67q86 0 163 41t175 139l144 -127q-114 -130 -234.5 -186t-261.5 -56q-203 0 -322.5 120.5t-119.5 324.5q-1 84 22.5 173.5t74.5 175.5t121 153.5t170 107.5t214 37q177 0 288 -104t111 -267q0 -113 -35 -223z
M330 627h528q4 50 4 57q0 93 -54 147t-153 54q-112 0 -195.5 -69t-129.5 -189zM707 1438l-50 -232h-217l52 232h215zM1085 1438l-49 -232h-217l49 232h217z" />
    <glyph glyph-name="uni0452" unicode="&#x452;" horiz-adv-x="1191" 
d="M1106 743q0 -60 -16 -135l-144 -680q-37 -173 -120 -250t-236 -77q-115 0 -205 34l64 164q71 -14 118 -14q68 0 102.5 38t53.5 126l139 651q8 33 8 90q0 144 -161 144q-108 0 -190.5 -76t-108.5 -207l-119 -551h-228l254 1182h-147l31 143h147l27 129h225l-27 -129h377
l-30 -143h-377l-64 -297q126 141 312 141q147 0 231 -76.5t84 -206.5z" />
    <glyph glyph-name="uni0453" unicode="&#x453;" horiz-adv-x="890" 
d="M926 846h-490l-178 -846h-225l217 1028h715zM950 1460l-260 -293h-207l205 293h262z" />
    <glyph glyph-name="uni0454" unicode="&#x454;" horiz-adv-x="1048" 
d="M840 330l133 -133q-115 -121 -228 -174.5t-243 -53.5q-197 0 -316 119q-118 118 -118 318q-1 88 22.5 180.5t74 178.5t119.5 153t166.5 106t208.5 37q249 0 390 -203l-158 -127q-62 78 -116 108.5t-132 30.5q-116 0 -201.5 -72t-124.5 -192h443l-37 -168h-438v-24
q0 -118 60.5 -185t168.5 -67q81 0 150.5 36.5t175.5 131.5z" />
    <glyph glyph-name="uni0455" unicode="&#x455;" horiz-adv-x="1013" 
d="M977 885l-131 -146q-163 138 -322 138q-82 0 -135 -36.5t-53 -92.5q0 -47 41 -68q46 -22 170 -62q207 -60 281.5 -122.5t74.5 -178.5q0 -160 -122 -255t-322 -95q-254 0 -469 197l133 145q97 -81 177.5 -118t168.5 -37q100 0 157.5 38.5t57.5 104.5q0 51 -49 78t-193 67
q-184 51 -253.5 115t-69.5 168q0 132 114.5 233t307.5 101q250 0 436 -174z" />
    <glyph glyph-name="uni0456" unicode="&#x456;" horiz-adv-x="499" 
d="M471 1028l-217 -1028h-225l217 1028h225zM559 1438l-49 -232h-225l49 232h225z" />
    <glyph glyph-name="uni0457" unicode="&#x457;" horiz-adv-x="499" 
d="M471 1028l-217 -1028h-225l217 1028h225zM367 1438l-50 -232h-217l52 232h215zM745 1438l-49 -232h-217l49 232h217z" />
    <glyph glyph-name="uni0458" unicode="&#x458;" horiz-adv-x="489" 
d="M-145 -215q67 0 101.5 37.5t53.5 126.5l230 1079h225l-234 -1100q-35 -173 -118 -250t-236 -77q-115 0 -205 34l64 164q55 -14 119 -14zM551 1438l-49 -232h-226l50 232h225z" />
    <glyph glyph-name="uni0459" unicode="&#x459;" horiz-adv-x="1808" 
d="M1722 362q0 -171 -109 -266.5t-294 -95.5h-586l180 846h-364l-72 -295q-62 -257 -96 -348q-40 -110 -112.5 -162.5t-202.5 -52.5q-86 0 -146 14l62 182q52 -8 75 -8q32 3 52 8t39.5 23t31.5 39t28.5 69t30 98t35.5 142l109 473h795l-80 -371h254q173 0 271.5 -77.5
t98.5 -217.5zM1497 344q0 61 -42.5 94t-123.5 33h-272l-62 -287h301q91 0 145 39.5t54 120.5z" />
    <glyph glyph-name="uni045A" unicode="&#x45a;" horiz-adv-x="1777" 
d="M33 0l219 1028h225l-78 -371h443l80 371h225l-80 -371h254q173 0 272 -77.5t99 -217.5q0 -171 -109 -266.5t-295 -95.5h-586l101 473h-443l-102 -473h-225zM967 184h301q91 0 144.5 39.5t53.5 120.5q0 61 -42.5 94t-123.5 33h-272z" />
    <glyph glyph-name="uni045B" unicode="&#x45b;" horiz-adv-x="1191" 
d="M1106 743q0 -60 -16 -135l-129 -608h-228l129 600q8 33 8 90q0 144 -161 144q-108 0 -189 -75t-110 -208l-119 -551h-228l254 1182h-147l31 143h147l27 129h225l-27 -129h377l-30 -143h-377l-64 -297q126 141 312 141q147 0 231 -76.5t84 -206.5z" />
    <glyph glyph-name="uni045C" unicode="&#x45c;" horiz-adv-x="1114" 
d="M1182 1028l-451 -504l268 -524h-233l-223 442h-191l-94 -442h-225l217 1028h225l-84 -401h180l351 401h260zM1065 1460l-260 -293h-207l205 293h262z" />
    <glyph glyph-name="uni045E" unicode="&#x45e;" horiz-adv-x="1044" 
d="M1114 1028h-233l-193 -354q-75 -140 -231 -455q-50 434 -54 465l-43 344h-225l162 -1075l-12 -19q-50 -85 -95 -117t-112 -32q-45 0 -107 10l-59 -166q79 -26 182 -26q130 0 215.5 58.5t163.5 201.5zM1026 1446q-24 -140 -123.5 -214.5t-251.5 -74.5q-144 0 -226.5 67.5
t-82.5 174.5q0 1 4 47h176l-2 -23q0 -55 37.5 -93t108.5 -38q75 0 121.5 40t60.5 114h178z" />
    <glyph glyph-name="uni045F" unicode="&#x45f;" horiz-adv-x="1179" 
d="M313 -264l58 264h-338l217 1028h225l-178 -844h444l181 844h225l-219 -1028h-340l-58 -264h-217z" />
    <glyph glyph-name="uni0490" unicode="&#x490;" horiz-adv-x="1177" 
d="M55 0l310 1454h716l64 299h237l-108 -504h-711l-266 -1249h-242z" />
    <glyph glyph-name="uni0491" unicode="&#x491;" horiz-adv-x="937" 
d="M33 0l217 1028h547l57 268h217l-96 -450h-539l-178 -846h-225z" />
    <glyph glyph-name="Wgrave" unicode="&#x1e80;" horiz-adv-x="1968" 
d="M1855 1454h252l-659 -1454h-287l-31 610q-16 291 -16 525q-64 -158 -237 -527l-287 -608h-289l-43 1454h238l14 -659l2 -215q0 -32 -4 -306q126 288 235 519l318 661h237l31 -661q12 -267 12 -525l54 131l166 394zM971 1872h237l80 -293h-182z" />
    <glyph glyph-name="wgrave" unicode="&#x1e81;" horiz-adv-x="1583" 
d="M1403 1030h235l-497 -1030h-287l-16 303q-14 346 -15 440q-76 -176 -198 -442l-142 -301h-280l-58 1030h224l14 -358q8 -294 10 -473q125 296 211 473l174 358h211l21 -358q11 -207 14 -477q75 189 209 475zM680 1460h238l79 -293h-182z" />
    <glyph glyph-name="Wacute" unicode="&#x1e82;" horiz-adv-x="1968" 
d="M1855 1454h252l-659 -1454h-287l-31 610q-16 291 -16 525q-64 -158 -237 -527l-287 -608h-289l-43 1454h238l14 -659l2 -215q0 -32 -4 -306q126 288 235 519l318 661h237l31 -661q12 -267 12 -525l54 131l166 394zM1565 1872l-260 -293h-207l205 293h262z" />
    <glyph glyph-name="wacute" unicode="&#x1e83;" horiz-adv-x="1583" 
d="M1403 1030h235l-497 -1030h-287l-16 303q-14 346 -15 440q-76 -176 -198 -442l-142 -301h-280l-58 1030h224l14 -358q8 -294 10 -473q125 296 211 473l174 358h211l21 -358q11 -207 14 -477q75 189 209 475zM1274 1460l-260 -293h-207l205 293h262z" />
    <glyph glyph-name="Wdieresis" unicode="&#x1e84;" horiz-adv-x="1968" 
d="M1855 1454h252l-659 -1454h-287l-31 610q-16 291 -16 525q-64 -158 -237 -527l-287 -608h-289l-43 1454h238l14 -659l2 -215q0 -32 -4 -306q126 288 235 519l318 661h237l31 -661q12 -267 12 -525l54 131l166 394zM1178 1849l-50 -231h-217l52 231h215zM1556 1849
l-49 -231h-217l49 231h217z" />
    <glyph glyph-name="wdieresis" unicode="&#x1e85;" horiz-adv-x="1583" 
d="M1403 1030h235l-497 -1030h-287l-16 303q-14 346 -15 440q-76 -176 -198 -442l-142 -301h-280l-58 1030h224l14 -358q8 -294 10 -473q125 296 211 473l174 358h211l21 -358q11 -207 14 -477q75 189 209 475zM887 1438l-49 -232h-217l51 232h215zM1266 1438l-49 -232h-218
l50 232h217z" />
    <glyph glyph-name="Ygrave" unicode="&#x1ef2;" horiz-adv-x="1298" 
d="M1190 1454h283l-695 -840l-131 -614h-241l129 616l-332 838h248l237 -618zM627 1872h237l80 -293h-182z" />
    <glyph glyph-name="ygrave" unicode="&#x1ef3;" horiz-adv-x="1044" 
d="M881 1028h233l-641 -1165q-78 -143 -163.5 -201.5t-215.5 -58.5q-103 0 -182 26l59 166q62 -10 107 -10q67 0 112 32t95 117l12 19l-162 1075h225l43 -344q4 -31 54 -465q156 315 231 455zM412 1460h237l80 -293h-182z" />
    <glyph glyph-name="endash" unicode="&#x2013;" horiz-adv-x="1495" 
d="M1401 688l-39 -192h-1235l39 192h1235z" />
    <glyph glyph-name="emdash" unicode="&#x2014;" horiz-adv-x="2000" 
d="M1884 688l-39 -192h-1695l38 192h1696z" />
    <glyph glyph-name="quoteleft" unicode="&#x2018;" horiz-adv-x="440" 
d="M162 936l53 250l199 268h129l-185 -268h115l-53 -250h-258z" />
    <glyph glyph-name="quoteright" unicode="&#x2019;" horiz-adv-x="440" 
d="M549 1454l-55 -250l-199 -268h-129l184 268h-114l53 250h260z" />
    <glyph glyph-name="quotesinglbase" unicode="&#x201a;" horiz-adv-x="434" 
d="M293 256l-55 -256l-195 -258h-125l172 258h-110l53 256h260z" />
    <glyph glyph-name="quotedblleft" unicode="&#x201c;" horiz-adv-x="851" 
d="M162 936l53 250l199 268h129l-185 -268h115l-53 -250h-258zM573 936l54 250l198 268h129l-184 -268h115l-54 -250h-258z" />
    <glyph glyph-name="quotedblright" unicode="&#x201d;" horiz-adv-x="851" 
d="M549 1454l-55 -250l-199 -268h-129l184 268h-114l53 250h260zM961 1454l-56 -250l-198 -268h-129l184 268h-115l53 250h261z" />
    <glyph glyph-name="quotedblbase" unicode="&#x201e;" horiz-adv-x="845" 
d="M291 256l-53 -256l-195 -258h-127l174 258h-113l54 256h260zM702 256l-53 -256l-194 -258h-127l174 258h-113l53 256h260z" />
    <glyph glyph-name="dagger" unicode="&#x2020;" 
d="M1126 926v-203h-405v-1126h-232v1126h-405v203h405v528h232v-528h405z" />
    <glyph glyph-name="daggerdbl" unicode="&#x2021;" 
d="M1126 825h-405v-419h405v-203h-405v-606h-232v606h-405v203h405v419h-405v203h405v426h232v-426h405v-203z" />
    <glyph glyph-name="bullet" unicode="&#x2022;" horiz-adv-x="1044" 
d="M911 606q0 -154 -113 -267.5t-268 -113.5q-156 0 -268 113t-112 268q0 157 111.5 269t268.5 112q156 0 268.5 -112.5t112.5 -268.5z" />
    <glyph glyph-name="ellipsis" unicode="&#x2026;" horiz-adv-x="1388" 
d="M309 262l-55 -262h-254l55 262h254zM768 262l-57 -262h-254l57 262h254zM1227 262l-58 -262h-251l55 262h254z" />
    <glyph glyph-name="perthousand" unicode="&#x2030;" horiz-adv-x="2584" 
d="M1655 369q0 -69 -23.5 -137t-66.5 -125t-114 -92t-157 -35q-130 0 -209 79.5t-79 208.5q0 65 24 131.5t68 122.5t114.5 91.5t155.5 35.5q127 0 207 -78.5t80 -201.5zM1169 272q0 -70 37 -112.5t99 -42.5q90 0 137 78q49 76 49 167q0 71 -35 111.5t-102 40.5
q-82 0 -133.5 -71t-51.5 -171zM817 1135q0 -69 -23 -137t-66.5 -125t-114 -92.5t-156.5 -35.5q-130 0 -209.5 80t-79.5 209q0 65 24 131.5t68 122.5t114.5 91.5t155.5 35.5q127 0 207 -78.5t80 -201.5zM332 1038q0 -70 36.5 -112.5t98.5 -42.5q90 0 137 78q49 76 49 167
q0 71 -35 111.5t-102 40.5q-82 0 -133 -71t-51 -171zM2425 369q0 -69 -23.5 -137t-66.5 -125t-114 -92t-157 -35q-130 0 -209 79.5t-79 208.5q0 65 24 131.5t68 122.5t114.5 91.5t155.5 35.5q127 0 207 -78.5t80 -201.5zM1939 272q0 -70 37 -112.5t99 -42.5q90 0 137 78
q49 76 49 167q0 71 -35 111.5t-102 40.5q-82 0 -133.5 -71t-51.5 -171zM1493 1425l117 -92l-1260 -1366l-112 94z" />
    <glyph glyph-name="guilsinglleft" unicode="&#x2039;" horiz-adv-x="753" 
d="M733 973l-405 -471l190 -439h-205l-194 455l387 455h227z" />
    <glyph glyph-name="guilsinglright" unicode="&#x203a;" horiz-adv-x="753" 
d="M438 973l197 -455l-387 -455h-228l406 472l-193 438h205z" />
    <glyph glyph-name="fraction" unicode="&#x2044;" horiz-adv-x="477" 
d="M827 1425l117 -92l-1259 -1366l-113 94z" />
    <glyph glyph-name="Euro" unicode="&#x20ac;" horiz-adv-x="1249" 
d="M590 952h493l-32 -159h-523q-23 -72 -34 -158h522l-33 -160h-502q9 -309 262 -309q72 0 132.5 21t156.5 81l96 -168q-104 -70 -199 -101.5t-204 -31.5q-222 0 -343.5 136t-123.5 372h-160l33 160h137q14 86 33 158h-135l33 159h155q92 220 249.5 346.5t369.5 126.5
q122 0 213 -36.5t174 -116.5l-143 -148q-67 56 -124.5 79.5t-131.5 23.5q-118 0 -211.5 -72.5t-159.5 -202.5z" />
    <glyph glyph-name="uni20B9" unicode="&#x20b9;" 
d="M1278 1239h-254q62 -83 68 -188h147l-33 -154h-129q-40 -156 -171.5 -250t-340.5 -94h-125l441 -553h-281l-430 553l39 178h348q240 0 295 166h-608l32 154h588q-18 70 -70.5 108.5t-136.5 38.5h-350l8 41l33 154h963z" />
    <glyph glyph-name="uni20BA" unicode="&#x20ba;" 
d="M958 621l203 -33l-49 -123q-72 -179 -154.5 -276.5t-209 -143t-326.5 -45.5h-260l106 502l-205 -82l39 168l201 82l39 182l-203 -82l37 168l201 82l80 373h233l-57 -269l336 136l-37 -168l-334 -136l-39 -182l336 135l-37 -168l-334 -135l-86 -407h17q92 0 155 12
t119.5 45t99.5 93t82 155z" />
    <glyph glyph-name="uni20BD" unicode="&#x20bd;" horiz-adv-x="1249" 
d="M750 555h-252l-33 -158h412l-33 -153h-412l-51 -244h-234l52 244h-183l33 153h182l33 158h-180l37 176h182l139 662h404q186 0 300 -99t114 -268q0 -102 -32.5 -187.5t-94.5 -149t-160 -99t-223 -35.5zM635 1198l-98 -467h192q152 0 229.5 74.5t77.5 198.5q0 96 -57 145
t-166 49h-178z" />
    <glyph glyph-name="uni2116" unicode="&#x2116;" horiz-adv-x="2121" 
d="M1597 1077q0 163 97 278t256 115q127 0 200.5 -75.5t73.5 -200.5q0 -166 -98.5 -279.5t-259.5 -113.5q-123 0 -196 75.5t-73 200.5zM47 0l309 1454h265l258 -647q42 -99 131 -344q10 -31 28 -78t23 -63q45 266 106 544l123 588h238l-309 -1454h-258l-252 621
q-97 249 -193 520q-58 -327 -110 -572l-121 -569h-238zM2056 1192q0 137 -114 137q-87 0 -134 -78q-45 -74 -45 -176q0 -133 113 -133q84 0 132 73t48 177zM1503 575l31 140h573l-30 -140h-574z" />
    <glyph glyph-name="uni2117" unicode="&#x2117;" horiz-adv-x="1753" 
d="M123 727q-3 206 98 381.5t276 276t380 96.5q154 3 294.5 -56t241.5 -160t160 -242t57 -296q2 -155 -57 -296t-160 -242t-241.5 -160t-294.5 -56q-205 -4 -380 96.5t-276 276t-98 381.5zM1493 727q2 174 -78.5 320.5t-223 231.5t-314.5 83q-129 1 -244.5 -48.5
t-197.5 -135t-129 -203.5t-46 -248q-1 -130 46 -248t129 -203.5t197.5 -135t244.5 -48.5q172 -2 314.5 83t223 231.5t78.5 320.5zM604 305v846h342q121 0 198 -74t77 -190q0 -254 -275 -254h-201v-328h-141zM745 752h170q80 0 122 35.5t42 99.5t-42 100.5t-122 36.5h-170
v-272z" />
    <glyph glyph-name="trademark" unicode="&#x2122;" horiz-adv-x="1953" 
d="M762 1454v-131h-268v-661h-156v661h-270v131h694zM1819 1454v-792h-142v600l-241 -600h-133l-248 591v-591h-146v792h207l254 -610l242 610h207z" />
    <glyph glyph-name="uni2126" unicode="&#x2126;" horiz-adv-x="1560" 
d="M1188 205h223l-45 -205h-563l45 205q195 84 311 262q115 180 115 403q0 191 -91.5 297.5t-258.5 106.5q-119 2 -223.5 -54t-176 -150.5t-112 -218t-39.5 -253.5q0 -133 58 -235t171 -158l-43 -205h-555l43 205h242q-78 78 -119 182.5t-41 222.5q-1 107 24.5 215t73.5 206
t120.5 182.5t160 146t196.5 95.5t226 32q274 0 432 -168.5t158 -444.5q0 -207 -85.5 -384t-246.5 -285z" />
    <glyph glyph-name="uni2154" unicode="&#x2154;" horiz-adv-x="2152" 
d="M299 700h485l-30 -143h-668l14 68q25 122 107.5 201.5t236.5 150.5l70 31q121 53 162 85t41 83q0 44 -34.5 67t-98.5 23q-62 0 -122.5 -24t-139.5 -79l-72 123q176 129 352 129q129 0 207 -60t78 -155q-2 -51 -14.5 -88t-35.5 -68t-69.5 -62t-102.5 -59.5t-151 -70.5
q-93 -39 -142.5 -74t-72.5 -78zM1667 1425l117 -92l-1260 -1366l-112 94zM2091 836l-31 -142l-293 -194q109 -1 173.5 -61t64.5 -154q0 -126 -97.5 -217t-258.5 -91q-183 0 -346 111l92 121q78 -44 136 -63t118 -19q88 0 136 38t48 97q0 56 -40 87.5t-120 31.5
q-66 0 -100 -12l-60 100l330 223h-387l31 144h604z" />
    <glyph glyph-name="oneeighth" unicode="&#x215b;" horiz-adv-x="1906" 
d="M510 1393h131l-176 -836h-170l127 619l-156 -97l-59 123zM1452 1425l117 -92l-1260 -1366l-112 94zM1776 266q0 -117 -96.5 -199.5t-268.5 -82.5q-152 0 -234.5 63t-82.5 168q0 81 50 147t144 97q-74 50 -74 153q0 115 90 183.5t240 68.5q134 0 207.5 -57t73.5 -152
q0 -69 -40 -125t-114 -86q105 -56 105 -178zM1364 602q0 -42 35.5 -69t91.5 -27q76 0 125 36t49 95q0 41 -38 67.5t-99 26.5q-77 0 -120.5 -36t-43.5 -93zM1614 274q0 48 -42.5 78.5t-113.5 30.5q-93 0 -145.5 -45.5t-52.5 -110.5q0 -46 41 -74t114 -28q92 0 145.5 41
t53.5 108z" />
    <glyph glyph-name="threeeighths" unicode="&#x215c;" horiz-adv-x="2105" 
d="M893 1393l-31 -142l-293 -194q109 -1 173.5 -61t64.5 -154q0 -126 -97.5 -216.5t-258.5 -90.5q-185 0 -347 110l93 121q78 -44 136 -63t118 -19q88 0 136 38t48 97q0 56 -40 87.5t-120 31.5q-65 0 -100 -12l-60 100l330 223h-387l31 144h604zM1653 1425l116 -92
l-1259 -1366l-113 94zM1974 266q0 -118 -96 -200t-268 -82q-152 0 -235 63t-83 168q0 81 50.5 147t144.5 97q-74 50 -74 153q0 115 90 183.5t240 68.5q133 0 206.5 -57t73.5 -152q0 -69 -39.5 -125t-113.5 -86q104 -55 104 -178zM1563 602q0 -42 35.5 -69t91.5 -27
q76 0 125 36t49 95q0 41 -38.5 67.5t-99.5 26.5q-77 0 -120 -36t-43 -93zM1812 274q0 48 -42 78.5t-113 30.5q-93 0 -146 -45.5t-53 -110.5q0 -45 41.5 -73.5t114.5 -28.5q92 0 145 41t53 108z" />
    <glyph glyph-name="fiveeighths" unicode="&#x215d;" horiz-adv-x="2109" 
d="M870 1249h-415l-56 -188q71 41 170 41q118 0 188 -65.5t70 -162.5q0 -61 -22.5 -119t-66 -107.5t-118 -80t-167.5 -30.5q-98 0 -179.5 25.5t-164.5 84.5l92 123q131 -86 256 -86q91 0 143.5 48t52.5 120q0 52 -37 82.5t-104 30.5q-87 0 -172 -60l-131 15l135 473h555z
M1655 1425l117 -92l-1260 -1366l-113 94zM1978 266q0 -118 -96 -200t-268 -82q-152 0 -235 63t-83 168q0 81 50.5 147t144.5 97q-74 50 -74 153q0 115 90 183.5t240 68.5q134 0 207.5 -57t73.5 -152q0 -69 -40 -125t-114 -86q104 -55 104 -178zM1567 602q0 -42 35.5 -69
t91.5 -27q76 0 125 36t49 95q0 41 -38 67.5t-99 26.5q-77 0 -120.5 -36t-43.5 -93zM1817 274q0 48 -42.5 78.5t-113.5 30.5q-93 0 -146 -45.5t-53 -110.5q0 -45 41.5 -73.5t114.5 -28.5q92 0 145.5 41t53.5 108z" />
    <glyph glyph-name="seveneighths" unicode="&#x215e;" horiz-adv-x="1933" 
d="M238 1393h661l-27 -129q-176 -155 -297.5 -336t-177.5 -371h-186q46 176 176 371q125 188 277 321h-459zM1479 1425l116 -92l-1259 -1366l-113 94zM1802 266q0 -118 -96 -200t-268 -82q-152 0 -235 63t-83 168q0 81 50.5 147t144.5 97q-74 50 -74 153q0 115 90 183.5
t240 68.5q133 0 206.5 -57t73.5 -152q0 -69 -39.5 -125t-113.5 -86q104 -55 104 -178zM1391 602q0 -42 35.5 -69t91.5 -27q76 0 125 36t49 95q0 41 -38.5 67.5t-99.5 26.5q-77 0 -120 -36t-43 -93zM1640 274q0 48 -42 78.5t-113 30.5q-93 0 -146 -45.5t-53 -110.5
q0 -45 41.5 -73.5t114.5 -28.5q92 0 145 41t53 108z" />
    <glyph glyph-name="arrowleft" unicode="&#x2190;" horiz-adv-x="1898" 
d="M1782 788v-190h-1360l475 -469l-135 -137l-701 702l701 699l135 -136l-475 -469h1360z" />
    <glyph glyph-name="arrowup" unicode="&#x2191;" horiz-adv-x="1509" 
d="M1427 895l-131 -133l-438 444v-1206h-205v1208l-438 -446l-133 133l674 672z" />
    <glyph glyph-name="arrowright" unicode="&#x2192;" horiz-adv-x="1898" 
d="M1137 1393l700 -699l-700 -702l-136 137l476 469h-1360v190h1360l-476 469z" />
    <glyph glyph-name="arrowdown" unicode="&#x2193;" horiz-adv-x="1509" 
d="M1296 692l131 -133l-671 -672l-674 672l133 133l438 -446v1208h205v-1206z" />
    <glyph glyph-name="uni2196" unicode="&#x2196;" horiz-adv-x="1521" 
d="M1460 272l-135 -135l-993 993v-690h-189v1014h1014v-186h-692z" />
    <glyph glyph-name="uni2197" unicode="&#x2197;" horiz-adv-x="1521" 
d="M365 1454h1013v-1014h-188v690l-991 -993l-138 135l996 996h-692v186z" />
    <glyph glyph-name="uni2198" unicode="&#x2198;" horiz-adv-x="1521" 
d="M1190 1014h188v-1014h-1013v186h692l-996 996l138 135l991 -993v690z" />
    <glyph glyph-name="uni2199" unicode="&#x2199;" horiz-adv-x="1521" 
d="M1460 1182l-995 -996h692v-186h-1014v1014h189v-690l993 993z" />
    <glyph glyph-name="partialdiff" unicode="&#x2202;" horiz-adv-x="1150" 
d="M1083 600q0 -297 -138 -466t-380 -169q-113 0 -207.5 42.5t-157 113.5t-97.5 163.5t-35 194.5q0 134 54.5 245.5t159 180t238.5 68.5q99 0 184.5 -39t141.5 -109q-102 390 -582 455l49 203q388 -50 579 -279.5t191 -603.5zM842 473q0 129 -81.5 219t-201.5 90t-192 -86.5
t-72 -222.5q0 -135 74 -222t196 -87q123 0 199 88q78 90 78 221z" />
    <glyph glyph-name="uni2206" unicode="&#x2206;" horiz-adv-x="1419" 
d="M1069 1454l213 -1454h-1362l830 1454h319zM285 201h731l-70 506l-12 86q-50 344 -60 479q-80 -162 -307 -567z" />
    <glyph glyph-name="product" unicode="&#x220f;" horiz-adv-x="1472" 
d="M1358 1454v-1679h-244v1474h-674v-1474h-243v1679h1161z" />
    <glyph glyph-name="summation" unicode="&#x2211;" horiz-adv-x="1230" 
d="M1157 1454v-201h-727l500 -639l-506 -649h786v-201h-1067v191l500 659l-496 650v190h1010z" />
    <glyph glyph-name="minus" unicode="&#x2212;" horiz-adv-x="1228" 
d="M1147 731v-192h-1065v192h1065z" />
    <glyph glyph-name="radical" unicode="&#x221a;" horiz-adv-x="1280" 
d="M1090 1454h249l-512 -1454h-307l-370 1028h251l281 -797z" />
    <glyph glyph-name="infinity" unicode="&#x221e;" horiz-adv-x="1673" 
d="M1567 594q0 -151 -100 -252.5t-246 -101.5q-207 0 -390 217q-98 -117 -187 -167t-191 -50q-144 0 -244 101.5t-100 252.5t102.5 253.5t253.5 102.5q198 0 381 -219q183 219 368 219q149 0 251 -102.5t102 -253.5zM725 582q-61 74 -96 108q-71 78 -164 78
q-73 0 -120.5 -49.5t-47.5 -126.5t46.5 -126.5t115.5 -49.5t131.5 39t134.5 127zM1378 592q0 78 -47 127t-119 49q-68 0 -130 -40.5t-130 -127.5q84 -101 140.5 -142.5t126.5 -41.5q69 0 114 49t45 127z" />
    <glyph glyph-name="integral" unicode="&#x222b;" horiz-adv-x="1228" 
d="M377 -399q-103 0 -205 30l41 170q72 -16 127 -16q65 0 92 34.5t27 114.5v1225q0 159 83.5 243.5t239.5 84.5q103 0 215 -37l-43 -170q-79 20 -131 20q-73 0 -106 -36.5t-33 -120.5v-1206q0 -336 -307 -336z" />
    <glyph glyph-name="approxequal" unicode="&#x2248;" horiz-adv-x="1243" 
d="M639 920q111 -44 147 -50q20 -4 41 -4q55 0 97 20.5t108 82.5l107 -133q-89 -95 -154 -125q-64 -31 -149 -31q-47 0 -92 13t-117 44q-82 33 -122.5 44.5t-84.5 11.5q-58 0 -100.5 -22t-108.5 -81l-107 133q85 86 154.5 121t155.5 35q52 0 98 -13t127 -46zM639 510
q79 -32 114 -42.5t74 -10.5q55 0 97 20t108 82l107 -133q-89 -95 -154 -125q-64 -31 -149 -31q-44 0 -84.5 11.5t-122.5 44.5q-72 31 -117 44t-92 13q-58 0 -101 -21.5t-108 -80.5l-107 133q84 86 153.5 120.5t156.5 34.5q52 0 98 -13t127 -46z" />
    <glyph glyph-name="notequal" unicode="&#x2260;" horiz-adv-x="1228" 
d="M1147 743h-402l-79 -217h481v-192h-553l-80 -221h-195l80 221h-317v192h389l80 217h-469v193h539l79 219h195l-80 -219h332v-193z" />
    <glyph glyph-name="lessequal" unicode="&#x2264;" horiz-adv-x="1228" 
d="M1106 1180v-201l-729 -258l729 -258v-201l-983 369v180zM1147 193v-193h-1065v193h1065z" />
    <glyph glyph-name="greaterequal" unicode="&#x2265;" horiz-adv-x="1228" 
d="M123 1180l983 -369v-180l-983 -369v201l729 258l-729 258v201zM1147 193v-193h-1065v193h1065z" />
    <glyph glyph-name="lozenge" unicode="&#x25ca;" horiz-adv-x="1255" 
d="M748 1454l440 -729l-440 -725h-240l-440 725l440 729h240zM627 1251l-318 -526l318 -522l317 522z" />
    <glyph glyph-name="uni2923" unicode="&#x2923;" horiz-adv-x="1413" 
d="M625 1386l34 -34q184 -193 248 -271q215 -251 215 -514q0 -145 -67 -282q-63 -126 -164 -248q-92 -111 -266 -291l-152 148q135 140 236 256q192 227 192 417q0 115 -53 224q-52 106 -137 204q-79 95 -230 252v-454h-184v774h774v-181h-446z" />
    <glyph glyph-name="uni2924" unicode="&#x2924;" horiz-adv-x="1316" 
d="M1071 793h-184v454q-166 -173 -232 -252q-188 -222 -188 -428q0 -108 55 -215q56 -110 137 -202q101 -116 236 -256l-152 -148q-188 195 -268 291q-229 275 -229 530q0 146 61 277q59 122 154 237q64 78 248 271l34 34h-446v181h774v-774z" />
    <glyph glyph-name="uni2925" unicode="&#x2925;" horiz-adv-x="1415" 
d="M801 627h184v-774h-774v180h444l-37 39q-144 147 -245 266q-213 255 -213 514q0 147 67 281q65 133 162 247q107 126 266 293l154 -147q-150 -157 -238 -258q-192 -220 -192 -416q0 -114 53 -223q60 -117 137 -205q102 -116 232 -252v455z" />
    <glyph glyph-name="uni2926" unicode="&#x2926;" horiz-adv-x="1318" 
d="M479 72l-37 -39h445v-180h-772v774h182v-455q119 124 231 252q191 226 191 428q0 108 -55 215q-54 104 -138 201q-99 113 -237 258l153 147q168 -177 267 -293q229 -269 229 -528q0 -146 -61 -277q-60 -126 -154 -237q-86 -105 -244 -266z" />
    <glyph glyph-name="uniE000" unicode="&#xe000;" horiz-adv-x="3670" 
d="M645 0h-543v471h27q78 -206 215.5 -325t296.5 -119q124 0 195 77q71 80 71 189q0 111 -78 192q-46 46 -100 71.5t-176 64.5q-121 35 -190 68t-127 91q-119 119 -119 295q0 160 100 269.5t258 109.5h498v-403h-21q-34 58 -48 81t-43.5 62.5t-63.5 73.5q-156 159 -324 159
q-91 0 -162 -51q-71 -53 -71 -172q0 -48 18.5 -98t50.5 -82q46 -46 107.5 -73.5t181.5 -63.5q138 -40 216.5 -77.5t143.5 -102.5q49 -47 76 -119.5t27 -157.5q0 -200 -113 -315t-303 -115zM1030 1454h768q143 2 268.5 -57t212 -161t135.5 -241t48 -293q1 -106 -24 -206
t-79 -191.5t-132.5 -159.5t-193.5 -107.5t-253 -37.5h-748v27h41q116 0 169.5 48.5t53.5 153.5v996q0 104 -54 153t-169 49h-43v27zM2353 27h33q117 0 171 49t54 153v996q0 106 -54 154t-171 48h-35v27h787v-27h-56q-116 0 -168.5 -48t-52.5 -154v-996q0 -113 34 -157.5
t120 -44.5h135q57 3 93 18t81.5 67t93.5 139.5t125 248.5h25v-500h-1215v27zM3387 1454v-27h-41v-110h-30v110h-41v27h112zM3568 1454v-137h-31v100l-39 -100h-23l-36 100v-100h-31v137h47l33 -92l35 92h45zM2195 674q0 195 -35 343t-96 236t-138 131t-167 43h-133
q-47 0 -63.5 -20t-16.5 -74v-1134q0 -84 56.5 -128t162.5 -44q226 0 328 182q102 184 102 465z" />
    <glyph glyph-name="uniE001" unicode="&#xe001;" horiz-adv-x="2070" 
d="M1034 -168q-207 0 -393 88q-248 116 -393.5 348t-145.5 498q0 205 88 391q116 249 347 394t499 145q208 0 394 -88q247 -116 392.5 -348t145.5 -498q0 -205 -88 -391q-116 -248 -347 -393.5t-499 -145.5zM1937 762q0 256 -139 483q-137 224 -381 338q-185 84 -381 84
q-258 0 -485 -139q-221 -135 -336 -381q-84 -185 -84 -381q0 -258 139 -485q135 -219 383 -336q185 -84 381 -84q169 0 328.5 61.5t289 180.5t201.5 278q84 185 84 381zM1079 1475l17 131l92 -13l-4 -30l-47 4l-2 -19l45 -6l-4 -33l-46 7l-6 -48zM881 1481l-2 22l45 6l2 -8
q0 -4 12 -4l10 6l-2 10q0 5 -12 5h-4q-43 0 -56 16l-6 37q5 13 23 23t47 10q30 0 43 -19l4 -22l-47 -7v9q-4 4 -12 4q-11 -4 -11 -6v-9q4 -4 15 -4h4q47 -3 55 -16l4 -37q-9 -33 -67 -33q-28 0 -45 17zM1272 1434l-8 47l-11 4l-12 -41l-45 14l41 127l72 -24q26 -9 32 -33
l-14 -43q-8 -6 -20 -10l8 -29l-8 -25zM823 1442l-35 33l-8 -2l13 -41l-43 -15l-43 125l71 25q4 2 17 2q18 0 28 -10l15 -41q-3 -15 -11 -23l25 -16l8 -25zM1264 1513l14 -6q10 0 12 2l6 17q-3 6 -10 8l-14 6zM770 1501l16 6q3 0 9 6l-7 19q-6 2 -12 0l-14 -6zM643 1358
l-65 117l84 47l16 -29l-43 -25l8 -14l41 23l14 -29l-39 -23l9 -16l45 25l14 -29zM1341 1434l41 71q8 8 25 8q19 0 39 -10q39 -20 39 -53l-41 -72q-8 -8 -25 -8q-18 0 -41 10q-37 21 -37 54zM1409 1409l31 53q0 8 -10 11q-11 4 -13 2l-31 -56q0 -5 9 -8q10 -6 14 -2z
M565 1296l-65 76l-23 -18l-20 24l82 68l20 -25l-22 -18l63 -78zM1454 1343l88 99l43 -39l-16 -45l4 -4l41 22l43 -39l-88 -98l-33 29l45 51l-2 2l-47 -21l-14 15l16 47l-4 4l-45 -51zM1034 111q-143 0 -274 61q-175 82 -277 246q-100 160 -100 348q0 143 61 274
q83 177 244 277q160 100 348 100q144 0 275 -61q173 -82 276 -246q101 -157 101 -348q0 -139 -62 -275q-82 -175 -244 -276q-160 -100 -348 -100zM1661 764q0 181 -98 332q-95 153 -265 233q-132 60 -262 60q-176 0 -336 -97q-155 -96 -231 -264q-59 -130 -59 -262
q0 -176 96 -334q100 -158 266 -233q132 -60 262 -60q177 0 334 97q158 96 234 264q59 133 59 264zM475 1200l-78 66l-18 -25l-25 23l68 82l24 -21l-18 -25l76 -63zM1636 1186l19 10l24 -39l-8 -4q-1 -1 2 -12q3 -8 8 -8l9 4q4 3 0 14l-2 4q-11 26 -11 39q0 6 4 18l31 19
q30 0 51 -37q13 -16 13 -39q0 -11 -7 -22l-18 -11l-25 39l9 4q2 2 -2 13q-3 8 -9 8l-8 -4q0 -11 2 -15l2 -4q11 -37 11 -41q0 -1 -5 -16l-32 -19q-31 0 -52 37q-12 24 -12 39q0 11 6 23zM395 1075l-114 66l47 84l28 -17l-24 -43l14 -8l23 39l28 -14l-22 -41l16 -11l25 46
l26 -17zM1055 1100q0 -14 -11 -43q-24 -47 -59 -47q-33 0 -33 43q0 14 11 43q21 47 57 47q35 0 35 -43zM1694 1038l96 52l25 6l12 -43l-68 -29v-4l76 6l10 -33l-65 -37v-2l73 11l13 -37l-25 -8l-108 -13l-15 54l43 24l-2 2l-49 -2zM356 973l-125 47l17 43l94 -35l12 35
l31 -10zM1346 965q0 -14 -11 -43q-22 -48 -57 -48t-35 44q0 16 10 43q21 47 58 47q35 0 35 -43zM289 883q0 -11 -2 -13q-1 -6 -8 -10t-13 -4l-10 2q-14 8 -14 23l2 10q6 12 20 12q10 0 12 -2q13 -3 13 -18zM1739 862l133 10l6 -94l-31 -4l-4 51l-16 -2l2 -47l-33 -2l-2 47
l-18 -2l2 -49l-31 -4zM1284 541l-31 14q-38 -65 -105.5 -103t-141.5 -38q-68 0 -121 26q-77 36 -121.5 106.5t-44.5 153.5q0 44 16 97l-30 14q-21 -53 -21 -111q0 -93 50.5 -172.5t135.5 -117.5q67 -31 136 -31q86 0 160.5 43.5t117.5 118.5zM330 668l-133 -9l-4 41l45 15
l-2 2l-43 8l-5 41l136 8l2 -31l-72 -4v-4l49 -8l2 -16l-49 -15v-2l72 4zM1747 741l131 -14l-6 -68q-6 -36 -31 -45l-82 9q-20 14 -20 45v6zM1774 692l-2 -14q0 -6 4 -10l59 -6q4 0 4 10l2 14zM348 586l-131 -29l-8 33l106 24l-6 25l25 6zM1729 602l124 -41l-26 -90l-31 8
l14 49l-16 4l-14 -45l-31 11l14 45l-18 4l-14 -47l-31 8zM365 477l-93 -33q-8 0 -18.5 8t-15.5 23q-2 4 -2 19q0 25 10 28l90 33q8 0 19 -8t16 -23l4 -18q0 -19 -10 -29zM336 520l-68 -24q-5 -5 -2 -11q4 -4 6 -4l70 25l2 8q-3 6 -8 6zM1692 485l116 -61l-22 -43h-66l-2 -4
l51 -27l-20 -37l-117 62l23 43h65l2 4l-51 27zM432 389l-119 -65l-16 30l45 25l-8 12l-43 -24l-17 30l117 64l17 -29l-48 -26l7 -15l49 27zM492 305l-107 -80l-20 27l26 20v2l-39 -8l-14 23l16 12l41 4l31 49l18 15l17 -23l-25 -37l6 2l29 21zM553 217l-68 -70
q-22 -8 -45 15q-16 16 -16 41l29 28l22 -22l-16 -19q-2 -2 -0.5 -6t6.5 -4h4l51 51q0 7 -2 9q-5 4 -8 2l-21 -19l-22 23l31 30q21 6 41 -14q16 -19 16 -37zM1640 250q0 -6 -2 -8q-6 -15 -22 -15q-8 0 -10 2q-13 7 -13 23q0 6 2 8q8 14 21 14q8 0 10 -2q14 -6 14 -22z
M1495 221l80 -108l-35 -25l-35 29l-2 -2l17 -41l-33 -25l-80 109l27 18l43 -57l2 2l-19 47l13 8l36 -33l2 2l-41 58zM639 150l-55 -78q-23 -9 -47 8q-21 12 -21 35v6l57 78q3 5 18 4.5t27 -10.5q21 -15 21 -35v-8zM594 170l-43 -59q-2 -2 2 -9q7 -3 10 0l43 60q0 4 -4 8
t-8 0zM1337 123l19 -29l16 8l-10 31l27 14l8 -20l35 -109l-48 -22l-65 92l-10 21zM717 129l-51 -94l18 -10l-12 -23l-66 33l12 24l19 -10l51 96zM823 70l-8 -27l-31 10l4 13q0 6 -6 6q-4 4 -8 0l-4 -15q0 -5 6 -8l2 -2q25 -22 25 -37l-15 -39q-12 -6 -26 -6q-13 0 -17 2
q-24 9 -30 33l8 25l31 -11l-4 -12q0 -6 8 -6q4 0 6 2l4 10q0 4 -6 10h-2q-25 19 -25 37l15 41q13 8 24 8q3 0 19 -4q30 -10 30 -30zM1288 100l39 -129l-47 -14q-20 -9 -37 8l-29 92q0 18 25 27zM1395 39l-15 39l-12 -6l23 -35zM1184 70l22 -133l-61 -11l-4 27l28 4l-6 27
l-26 -4l-4 24l26 6l-4 29l-29 -6l-4 26zM989 55l-18 -133l-35 4l-10 66h-2l-9 -64l-32 4l16 134l37 -5l10 -65l2 -2l8 65zM1264 63l-9 -2q-6 0 -6 -6l23 -69q5 -5 8 -2l8 2zM1049 53v-133h-35v135z" />
    <glyph glyph-name="uniE002" unicode="&#xe002;" 
d="M1122 436q0 -80 -27.5 -155.5t-79.5 -137.5t-137.5 -101t-191.5 -42l-45 -205h-156l45 205h-139l-45 -205h-156l46 205h-220l295 1393h217l45 204h156l-45 -204h141l43 204h156l-47 -221q115 -29 175 -107t60 -194q0 -125 -70 -224.5t-190 -135.5q77 -38 123.5 -112.5
t46.5 -166.5zM502 1210l-80 -393h301q131 0 196.5 62.5t65.5 167.5q0 75 -51.5 119t-147.5 44h-284zM895 440q0 92 -53 142.5t-154 50.5h-309l-90 -451h319q144 0 215.5 72t71.5 186z" />
    <glyph glyph-name="Adieresis.ss02" horiz-adv-x="1419" 
d="M1042 0l-45 328h-641l-184 -328h-254l834 1454h317l213 -1454h-240zM469 528h502l-25 181l-18 139q-43 312 -51 426q-107 -208 -310 -569zM625 1724q0 60 44 103t105 43q51 0 85 -34.5t34 -84.5q0 -60 -43.5 -102.5t-104.5 -42.5q-51 0 -85.5 33.5t-34.5 84.5zM1020 1724
q0 60 43 103t104 43q51 0 85 -34.5t34 -84.5q0 -60 -43 -102.5t-104 -42.5q-51 0 -85 33.5t-34 84.5z" />
    <glyph glyph-name="Cdotaccent.ss02" horiz-adv-x="1398" 
d="M1454 1239l-172 -145q-85 97 -168 139.5t-186 42.5q-108 3 -202 -39.5t-158.5 -114t-111 -163.5t-68.5 -189t-21 -190q0 -186 95 -293t267 -107q113 0 205 47.5t223 167.5l150 -151q-139 -146 -280 -211.5t-300 -65.5q-142 0 -257 45t-190.5 125t-116 188t-40.5 234
q0 205 84 420q86 217 270 360q189 148 471 148q310 0 506 -248zM872 1718q0 63 45.5 107.5t108.5 44.5q54 0 88.5 -34.5t34.5 -88.5q0 -63 -44.5 -107.5t-107.5 -44.5q-55 0 -90 34.5t-35 88.5z" />
    <glyph glyph-name="Edieresis.ss02" horiz-adv-x="1280" 
d="M1362 1454l-45 -205h-754l-86 -397h705l-43 -203h-705l-94 -444h776l-43 -205h-1018l310 1454h997zM575 1724q0 60 44 103t106 43q51 0 85 -34.5t34 -84.5q0 -60 -43.5 -102.5t-104.5 -42.5q-51 0 -86 33.5t-35 84.5zM971 1724q0 60 43 103t104 43q51 0 85 -34.5
t34 -84.5q0 -60 -43 -102.5t-104 -42.5q-51 0 -85 33.5t-34 84.5z" />
    <glyph glyph-name="Edotaccent.ss02" horiz-adv-x="1280" 
d="M1362 1454l-45 -205h-754l-86 -397h705l-43 -203h-705l-94 -444h776l-43 -205h-1018l310 1454h997zM772 1718q0 63 45.5 107.5t108.5 44.5q54 0 88.5 -34.5t34.5 -88.5q0 -63 -44.5 -107.5t-107.5 -44.5q-55 0 -90 34.5t-35 88.5z" />
    <glyph glyph-name="uni0122.ss02" horiz-adv-x="1550" 
d="M766 582l43 204h661l-165 -786h-187l21 166q-167 -197 -449 -197q-258 0 -413.5 161t-155.5 421q0 210 86 426q90 218 278 360q192 148 482 148q181 0 321.5 -68t257.5 -209l-176 -141q-105 112 -199 159.5t-221 47.5q-92 2 -175 -27t-146.5 -80.5t-114.5 -121
t-83.5 -149t-49.5 -164t-16 -167.5q0 -181 95 -283t275 -102q173 0 299 99q128 104 162 256l10 47h-440zM795 -260q0 -116 -80 -191t-207 -75l10 84q49 5 94 30t62 66q-28 -4 -35 -4q-56 0 -87.5 26.5t-31.5 73.5q0 55 41 91t101 36q57 0 95 -37.5t38 -99.5z" />
    <glyph glyph-name="Gdotaccent.ss02" horiz-adv-x="1550" 
d="M766 582l43 204h661l-165 -786h-187l21 166q-167 -197 -449 -197q-258 0 -413.5 161t-155.5 421q0 210 86 426q90 218 278 360q192 148 482 148q181 0 321.5 -68t257.5 -209l-176 -141q-105 112 -199 159.5t-221 47.5q-92 2 -175 -27t-146.5 -80.5t-114.5 -121
t-83.5 -149t-49.5 -164t-16 -167.5q0 -181 95 -283t275 -102q173 0 299 99q128 104 162 256l10 47h-440zM911 1718q0 63 45.5 107.5t108.5 44.5q54 0 88.5 -34.5t34.5 -88.5q0 -63 -44.5 -107.5t-107.5 -44.5q-55 0 -90 34.5t-35 88.5z" />
    <glyph glyph-name="Idieresis.ss02" horiz-adv-x="598" 
d="M621 1454l-310 -1454h-241l309 1454h242zM215 1724q0 60 44 103t106 43q51 0 84.5 -34.5t33.5 -84.5q0 -60 -43 -102.5t-104 -42.5q-51 0 -86 33.5t-35 84.5zM610 1724q0 60 43.5 103t104.5 43q51 0 85 -34.5t34 -84.5q0 -60 -43.5 -102.5t-104.5 -42.5q-51 0 -85 33.5
t-34 84.5z" />
    <glyph glyph-name="Idotaccent.ss02" horiz-adv-x="598" 
d="M621 1454l-310 -1454h-241l309 1454h242zM412 1718q0 63 45 107.5t108 44.5q54 0 88.5 -34.5t34.5 -88.5q0 -63 -44 -107.5t-107 -44.5q-55 0 -90 34.5t-35 88.5z" />
    <glyph glyph-name="K.ss01" horiz-adv-x="1396" 
d="M1477 1327l-586 -463l387 -864h-252l-321 717l-308 -244l-100 -473h-242l310 1454h241l-143 -676l880 709z" />
    <glyph glyph-name="uni0136.ss01" horiz-adv-x="1396" 
d="M1477 1327l-586 -463l387 -864h-252l-321 717l-308 -244l-100 -473h-242l310 1454h241l-143 -676l880 709zM733 -133l-43 -203l-172 -186h-121l162 186h-115l43 203h246z" />
    <glyph glyph-name="uni0136.ss01.ss02" horiz-adv-x="1396" 
d="M1477 1327l-586 -463l387 -864h-252l-321 717l-308 -244l-100 -473h-242l310 1454h241l-143 -676l880 709zM739 -260q0 -116 -79.5 -191t-206.5 -75l10 84q49 5 93 30t62 66q-28 -4 -34 -4q-56 0 -87.5 26.5t-31.5 73.5q0 55 40.5 91t100.5 36q57 0 95 -37.5t38 -99.5z
" />
    <glyph glyph-name="uni0136.ss02" horiz-adv-x="1396" 
d="M1542 1454l-663 -565l399 -889h-252l-330 733l-297 -254l-102 -479h-242l310 1454h241l-141 -659l760 659h317zM741 -260q0 -116 -79.5 -191t-206.5 -75l10 84q49 5 94 30t62 66q-28 -4 -35 -4q-56 0 -87.5 26.5t-31.5 73.5q0 55 40.5 91t100.5 36q57 0 95 -37.5
t38 -99.5z" />
    <glyph glyph-name="uni013B.ss02" horiz-adv-x="1124" 
d="M606 1454l-266 -1247h659l-43 -207h-901l310 1454h241zM608 -260q0 -116 -79.5 -191t-206.5 -75l10 84q49 5 93 30t62 66q-28 -4 -34 -4q-56 0 -87.5 26.5t-31.5 73.5q0 55 40.5 91t100.5 36q57 0 95 -37.5t38 -99.5z" />
    <glyph glyph-name="Ldot.ss02" horiz-adv-x="1118" 
d="M606 1454l-266 -1247h659l-43 -207h-901l310 1454h241zM670 743q0 68 50.5 118t121.5 50q60 0 98.5 -38.5t38.5 -98.5q0 -69 -50.5 -119.5t-119.5 -50.5q-60 0 -99.5 39.5t-39.5 99.5z" />
    <glyph glyph-name="uni0145.ss02" horiz-adv-x="1525" 
d="M1327 1454h236l-310 -1454h-256l-266 625q-148 348 -209 524q-38 -238 -110 -578l-121 -571h-236l310 1454h260l274 -649l27 -64q121 -293 168 -430q27 158 106 553zM758 -260q0 -116 -80 -191t-207 -75l10 84q49 5 94 30t62 66q-28 -4 -35 -4q-56 0 -87.5 26.5
t-31.5 73.5q0 55 41 91t101 36q57 0 95 -37.5t38 -99.5z" />
    <glyph glyph-name="Odieresis.ss02" horiz-adv-x="1554" 
d="M1522 881q2 -105 -21.5 -213t-68.5 -211t-115 -193.5t-156.5 -157.5t-199.5 -104.5t-238 -34.5q-275 0 -437.5 163t-162.5 443q0 203 90 418t270 355q181 141 445 141q272 0 433 -163.5t161 -442.5zM369 588q0 -195 94 -301.5t264 -106.5q104 -3 195.5 39t155 113
t109.5 162t68 187t21 187q0 195 -92 300.5t-262 105.5q-104 3 -196 -39t-156.5 -113t-111 -162t-68.5 -186.5t-21 -185.5zM700 1724q0 60 44 103t106 43q51 0 85 -34.5t34 -84.5q0 -60 -43.5 -102.5t-104.5 -42.5q-51 0 -86 33.5t-35 84.5zM1096 1724q0 60 43 103t104 43
q51 0 85 -34.5t34 -84.5q0 -60 -43.5 -102.5t-104.5 -42.5q-51 0 -84.5 33.5t-33.5 84.5z" />
    <glyph glyph-name="uni0156.ss02" horiz-adv-x="1411" 
d="M973 571l264 -571h-254l-254 559h-313l-119 -559h-242l310 1454h602q200 0 316 -107.5t116 -273.5q0 -183 -107 -323q-106 -142 -319 -179zM1165 1049q0 101 -63 152.5t-180 51.5h-359l-104 -493h350q177 0 266.5 79t89.5 210zM694 -260q0 -116 -79.5 -191t-206.5 -75
l10 84q49 5 93 30t62 66q-28 -4 -34 -4q-56 0 -87.5 26.5t-31.5 73.5q0 55 40.5 91t100.5 36q57 0 95 -37.5t38 -99.5z" />
    <glyph glyph-name="uni0218.ss02" horiz-adv-x="1331" 
d="M1337 1251l-145 -161q-111 96 -213 141t-215 45q-135 0 -223 -64t-88 -161q0 -56 32 -88q31 -31 92.5 -56.5t202.5 -68.5q128 -41 206.5 -77t133 -83.5t77 -105.5t24.5 -140q0 -87 -35.5 -169t-102 -148.5t-174 -107t-239.5 -40.5q-194 0 -342 62q-152 68 -299 198
l147 172q160 -129 258 -174q103 -47 244 -47q138 0 223.5 68t85.5 172q0 61 -39 100q-35 37 -97.5 63t-203.5 66q-240 70 -335 153t-95 230q-2 82 36 162.5t107.5 147t179.5 106.5t240 39q166 0 299 -57.5t258 -176.5zM655 -258q0 -116 -79.5 -191t-206.5 -75l10 84
q49 5 94 30t62 66q-28 -4 -35 -4q-56 0 -87.5 26.5t-31.5 73.5q0 55 40.5 91t100.5 36q57 0 95 -37.5t38 -99.5z" />
    <glyph glyph-name="uni021A.ss02" horiz-adv-x="1236" 
d="M1376 1454l-45 -207h-436l-264 -1247h-244l264 1247h-436l45 207h1116zM616 -260q0 -116 -79.5 -191t-206.5 -75l10 84q49 5 94 30t62 66q-28 -4 -35 -4q-56 0 -87.5 26.5t-31.5 73.5q0 55 40.5 91t100.5 36q57 0 95 -37.5t38 -99.5z" />
    <glyph glyph-name="Udieresis.ss02" horiz-adv-x="1441" 
d="M1487 1454l-209 -983q-108 -504 -614 -504q-533 0 -533 385q0 58 23 170l198 932h242l-205 -952q-10 -62 -10 -103q0 -104 74.5 -161.5t210.5 -57.5q307 0 374 309l205 965h244zM618 1724q0 60 44 103t106 43q51 0 85 -34.5t34 -84.5q0 -60 -43.5 -102.5t-104.5 -42.5
q-51 0 -86 33.5t-35 84.5zM1014 1724q0 60 43 103t104 43q51 0 85 -34.5t34 -84.5q0 -60 -43 -102.5t-104 -42.5q-51 0 -85 33.5t-34 84.5z" />
    <glyph glyph-name="Wdieresis.ss02" horiz-adv-x="1968" 
d="M1855 1454h252l-659 -1454h-287l-31 610q-16 291 -16 525q-64 -158 -237 -527l-287 -608h-289l-43 1454h238l14 -659l2 -215q0 -32 -4 -306q126 288 235 519l318 661h237l31 -661q12 -267 12 -525l54 131l166 394zM889 1724q0 60 44 103t105 43q51 0 85 -34.5t34 -84.5
q0 -60 -43 -102.5t-104 -42.5q-51 0 -86 33.5t-35 84.5zM1284 1724q0 60 43.5 103t104.5 43q51 0 84.5 -34.5t33.5 -84.5q0 -60 -43 -102.5t-104 -42.5q-51 0 -85 33.5t-34 84.5z" />
    <glyph glyph-name="Ydieresis.ss02" horiz-adv-x="1298" 
d="M1190 1454h283l-695 -840l-131 -614h-241l129 616l-332 838h248l237 -618zM545 1724q0 60 44 103t105 43q51 0 85 -34.5t34 -84.5q0 -60 -43 -102.5t-104 -42.5q-51 0 -86 33.5t-35 84.5zM940 1724q0 60 43 103t104 43q51 0 85 -34.5t34 -84.5q0 -60 -43 -102.5
t-104 -42.5q-51 0 -85 33.5t-34 84.5z" />
    <glyph glyph-name="Zdotaccent.ss02" horiz-adv-x="1296" 
d="M1409 1454l-43 -197l-1036 -1052h811l-43 -205h-1118l40 197l1035 1052h-776l43 205h1087zM762 1718q0 63 45 107.5t108 44.5q54 0 88.5 -34.5t34.5 -88.5q0 -63 -44 -107.5t-107 -44.5q-55 0 -90 34.5t-35 88.5z" />
    <glyph glyph-name="adieresis.ss02" horiz-adv-x="1189" 
d="M948 1028h207l-219 -1028h-203l35 162q-132 -187 -350 -187q-170 0 -263.5 104.5t-93.5 289.5q-2 97 22 196t72.5 187.5t115 157.5t156.5 108.5t189 36.5q237 0 297 -189zM838 653q0 101 -50.5 157t-150.5 56q-84 2 -153.5 -43t-111 -117t-64 -153t-21.5 -156
q0 -231 196 -231q75 -3 143.5 40.5t114.5 114t72 158.5t25 174zM420 1313q0 60 43.5 102.5t105.5 42.5q51 0 85 -34.5t34 -84.5q0 -60 -43 -102.5t-104 -42.5q-51 0 -86 34t-35 85zM815 1313q0 60 43.5 102.5t104.5 42.5q51 0 84.5 -34.5t33.5 -84.5q0 -60 -43 -102.5
t-104 -42.5q-51 0 -85 34t-34 85z" />
    <glyph glyph-name="cdotaccent.ss02" horiz-adv-x="1052" 
d="M645 870q-64 2 -121.5 -25t-99 -74t-72 -107t-45.5 -124.5t-14 -125.5q0 -118 58 -185t163 -67q81 0 150.5 36.5t175.5 131.5l133 -133q-115 -121 -228 -174.5t-243 -53.5q-197 0 -316 119q-118 118 -118 318q-1 88 22.5 180.5t74 178.5t119.5 153t166.5 106t208.5 37
q249 0 390 -203l-158 -127q-62 78 -115 108.5t-131 30.5zM602 1307q0 63 45.5 107t108.5 44q54 0 88.5 -34.5t34.5 -88.5q0 -63 -44.5 -107t-107.5 -44q-55 0 -90 34.5t-35 88.5z" />
    <glyph glyph-name="edieresis.ss02" horiz-adv-x="1144" 
d="M1034 467h-743q-2 -12 -2 -55q0 -120 59.5 -187t175.5 -67q86 0 163 41t175 139l144 -127q-114 -130 -234.5 -186t-261.5 -56q-203 0 -322.5 120.5t-119.5 324.5q-1 84 22.5 173.5t74.5 175.5t121 153.5t170 107.5t214 37q177 0 288 -104t111 -267q0 -113 -35 -223z
M330 627h528q4 50 4 57q0 93 -54 147t-153 54q-112 0 -195.5 -69t-129.5 -189zM418 1313q0 60 43.5 102.5t105.5 42.5q51 0 85 -34.5t34 -84.5q0 -60 -43 -102.5t-104 -42.5q-51 0 -86 34t-35 85zM813 1313q0 60 43.5 102.5t104.5 42.5q51 0 84.5 -34.5t33.5 -84.5
q0 -60 -43 -102.5t-104 -42.5q-51 0 -85 34t-34 85z" />
    <glyph glyph-name="edotaccent.ss02" horiz-adv-x="1144" 
d="M1034 467h-743q-2 -12 -2 -55q0 -120 59.5 -187t175.5 -67q86 0 163 41t175 139l144 -127q-114 -130 -234.5 -186t-261.5 -56q-203 0 -322.5 120.5t-119.5 324.5q-1 84 22.5 173.5t74.5 175.5t121 153.5t170 107.5t214 37q177 0 288 -104t111 -267q0 -113 -35 -223z
M330 627h528q4 50 4 57q0 93 -54 147t-153 54q-112 0 -195.5 -69t-129.5 -189zM614 1307q0 63 45.5 107t108.5 44q54 0 88.5 -34.5t34.5 -88.5q0 -63 -44.5 -107t-107.5 -44q-55 0 -90 34.5t-35 88.5z" />
    <glyph glyph-name="uni0123.ss02" horiz-adv-x="1167" 
d="M938 1028h207l-211 -991q-47 -219 -171 -325.5t-331 -106.5q-250 0 -465 159l119 154q100 -68 180 -98.5t168 -30.5q118 0 185 62.5t98 203.5l26 121q-132 -156 -321 -156q-164 0 -261.5 102.5t-97.5 274.5q-1 87 22 179.5t69.5 179t110.5 154.5t153.5 108t189.5 37
q231 0 295 -189zM838 643q0 106 -54.5 164.5t-156.5 58.5q-78 2 -144.5 -39t-108 -106t-64 -140t-21.5 -145q0 -227 194 -227q78 -3 147 38t113.5 106t70 142t24.5 148zM676 1407q28 4 35 4q116 0 116 -98q0 -55 -41.5 -92t-99.5 -37t-95.5 37.5t-37.5 99.5q0 116 83 191
t212 75l-19 -84q-51 -5 -93 -29.5t-60 -66.5z" />
    <glyph glyph-name="gdotaccent.ss02" horiz-adv-x="1167" 
d="M938 1028h207l-211 -991q-47 -219 -171 -325.5t-331 -106.5q-250 0 -465 159l119 154q100 -68 180 -98.5t168 -30.5q118 0 185 62.5t98 203.5l26 121q-132 -156 -321 -156q-164 0 -261.5 102.5t-97.5 274.5q-1 87 22 179.5t69.5 179t110.5 154.5t153.5 108t189.5 37
q231 0 295 -189zM838 643q0 106 -54.5 164.5t-156.5 58.5q-78 2 -144.5 -39t-108 -106t-64 -140t-21.5 -145q0 -227 194 -227q78 -3 147 38t113.5 106t70 142t24.5 148zM600 1307q0 63 45.5 107t108.5 44q54 0 88.5 -34.5t34.5 -88.5q0 -63 -44.5 -107t-107.5 -44
q-55 0 -90 34.5t-35 88.5z" />
    <glyph glyph-name="i.ss02" horiz-adv-x="499" 
d="M471 1028l-217 -1028h-225l217 1028h225zM274 1307q0 63 45.5 107t108.5 44q54 0 88.5 -34.5t34.5 -88.5q0 -63 -44.5 -107t-107.5 -44q-55 0 -90 34.5t-35 88.5z" />
    <glyph glyph-name="idieresis.ss02" horiz-adv-x="499" 
d="M471 1028l-217 -1028h-225l217 1028h225zM78 1313q0 60 43.5 102.5t105.5 42.5q51 0 85 -34.5t34 -84.5q0 -60 -43 -102.5t-104 -42.5q-51 0 -86 34t-35 85zM473 1313q0 60 43.5 102.5t104.5 42.5q51 0 84.5 -34.5t33.5 -84.5q0 -60 -43 -102.5t-104 -42.5q-51 0 -85 34
t-34 85z" />
    <glyph glyph-name="i.loclTRK" horiz-adv-x="499" 
d="M471 1028l-217 -1028h-225l217 1028h225zM559 1438l-49 -232h-225l49 232h225z" />
    <glyph glyph-name="i.loclTRK.ss02" horiz-adv-x="499" 
d="M471 1028l-217 -1028h-225l217 1028h225zM274 1307q0 63 45.5 107t108.5 44q54 0 88.5 -34.5t34.5 -88.5q0 -63 -44.5 -107t-107.5 -44q-55 0 -90 34.5t-35 88.5z" />
    <glyph glyph-name="ij.ss02" horiz-adv-x="989" 
d="M471 1028l-217 -1028h-225l217 1028h225zM274 1307q0 63 45.5 107t108.5 44q54 0 88.5 -34.5t34.5 -88.5q0 -63 -44.5 -107t-107.5 -44q-55 0 -90 34.5t-35 88.5zM354 -215q68 0 102.5 38t53.5 126l229 1079h226l-234 -1100q-35 -173 -118 -250t-236 -77q-115 0 -205 34
l64 164q55 -14 118 -14zM764 1307q0 63 45.5 107t108.5 44q54 0 88 -34.5t34 -88.5q0 -63 -44 -107t-107 -44q-55 0 -90 34.5t-35 88.5z" />
    <glyph glyph-name="iogonek.ss02" horiz-adv-x="499" 
d="M551 1335q0 -63 -45.5 -107t-108.5 -44q-54 0 -89.5 34.5t-35.5 88.5q0 63 45.5 107t108.5 44q55 0 90 -34.5t35 -88.5zM29 0l217 1028h225l-217 -1028q-211 -120 -211 -225q0 -72 88 -72q38 0 59 8l-28 -135q-27 -12 -84 -12q-92 0 -142.5 44.5t-50.5 119.5
q0 159 197 272h-53z" />
    <glyph glyph-name="j.calt" horiz-adv-x="471" 
d="M547 1438l-49 -232h-222l50 232h221zM-133 -217q109 0 135 129l236 1116h223l-244 -1137q-31 -142 -111.5 -216t-203.5 -74q-72 0 -135 14l49 170q10 -2 51 -2z" />
    <glyph glyph-name="j.calt.ss02" horiz-adv-x="477" 
d="M262 1307q0 63 45.5 107t108.5 44q54 0 89.5 -34.5t35.5 -88.5q0 -63 -45.5 -107t-108.5 -44q-55 0 -90 34.5t-35 88.5zM-133 -217q109 0 135 129l236 1116h223l-244 -1137q-31 -142 -111.5 -216t-203.5 -74q-72 0 -135 14l49 170q10 -2 51 -2z" />
    <glyph glyph-name="j.ss02" horiz-adv-x="489" 
d="M-145 -215q67 0 101.5 37.5t53.5 126.5l230 1079h225l-234 -1100q-35 -173 -118 -250t-236 -77q-115 0 -205 34l64 164q55 -14 119 -14zM264 1307q0 63 45.5 107t108.5 44q54 0 88.5 -34.5t34.5 -88.5q0 -63 -44.5 -107t-107.5 -44q-55 0 -90 34.5t-35 88.5z" />
    <glyph glyph-name="k.ss01" horiz-adv-x="1067" 
d="M1081 911l-381 -311l271 -600h-228l-208 465l-220 -180l-61 -285h-225l309 1454h225l-188 -885l581 486z" />
    <glyph glyph-name="uni0137.ss01" horiz-adv-x="1067" 
d="M1081 911l-381 -311l271 -600h-228l-208 465l-220 -180l-61 -285h-225l309 1454h225l-188 -885l581 486zM573 -133l-43 -203l-172 -186h-120l161 186h-114l43 203h245z" />
    <glyph glyph-name="uni0137.ss01.ss02" horiz-adv-x="1067" 
d="M1081 911l-381 -311l271 -600h-228l-208 465l-220 -180l-61 -285h-225l309 1454h225l-188 -885l581 486zM580 -260q0 -116 -80 -191t-207 -75l10 84q49 5 94 30t62 66q-28 -4 -35 -4q-56 0 -87.5 26.5t-31.5 73.5q0 55 40.5 91t100.5 36q57 0 95.5 -37.5t38.5 -99.5z" />
    <glyph glyph-name="uni0137.ss02" horiz-adv-x="1067" 
d="M1137 1028l-451 -395l285 -633h-228l-225 500l-192 -166l-72 -334h-225l309 1454h225l-182 -856l479 430h277zM575 -260q0 -116 -79.5 -191t-206.5 -75l10 84q49 5 94 30t62 66q-28 -4 -35 -4q-56 0 -87.5 26.5t-31.5 73.5q0 55 40.5 91t100.5 36q57 0 95 -37.5t38 -99.5
z" />
    <glyph glyph-name="uni013C.ss02" horiz-adv-x="505" 
d="M565 1454l-309 -1454h-225l309 1454h225zM242 -260q0 -116 -80 -191t-207 -75l10 84q49 5 94 30t62 66q-28 -4 -35 -4q-56 0 -87.5 26.5t-31.5 73.5q0 55 41 91t101 36q57 0 95 -37.5t38 -99.5z" />
    <glyph glyph-name="ldot.ss02" horiz-adv-x="937" 
d="M565 1454l-309 -1454h-225l309 1454h225zM569 637q0 68 50.5 118t121.5 50q60 0 99 -38.5t39 -98.5q0 -69 -50.5 -119.5t-119.5 -50.5q-60 0 -100 39.5t-40 99.5z" />
    <glyph glyph-name="uni0146.ss02" horiz-adv-x="1157" 
d="M1069 782q0 -48 -16 -139l-135 -643h-226l133 635q11 72 11 94q0 139 -162 139q-111 0 -192.5 -76.5t-110.5 -213.5l-123 -578h-225l217 1028h204l-30 -141q122 172 340 172q147 0 231 -74t84 -203zM559 -260q0 -116 -80 -191t-207 -75l11 84q49 5 93 30t62 66
q-28 -4 -35 -4q-56 0 -87 26.5t-31 73.5q0 55 40.5 91t100.5 36q57 0 95 -37.5t38 -99.5z" />
    <glyph glyph-name="odieresis.ss02" horiz-adv-x="1167" 
d="M1094 616q1 -83 -21 -172t-71 -175.5t-116.5 -154t-166 -108t-211.5 -37.5q-205 0 -322.5 118t-117.5 331q-1 81 21.5 169t71 174t116.5 154t166.5 108.5t211.5 37.5q203 0 321 -117t118 -328zM293 418q0 -122 59 -190t168 -68q79 -2 147.5 41.5t111 112.5t66.5 148
t23 152q0 256 -225 256q-80 3 -149 -40.5t-111.5 -113t-66.5 -148t-23 -150.5zM412 1313q0 60 43.5 102.5t105.5 42.5q51 0 85 -34.5t34 -84.5q0 -60 -43.5 -102.5t-104.5 -42.5q-51 0 -85.5 34t-34.5 85zM807 1313q0 60 43 102.5t104 42.5q51 0 85 -34.5t34 -84.5
q0 -60 -43 -102.5t-104 -42.5q-51 0 -85 34t-34 85z" />
    <glyph glyph-name="uni0157.ss02" horiz-adv-x="790" 
d="M864 997l-80 -192q-85 29 -133 29q-107 0 -185.5 -86t-113.5 -248l-104 -500h-225l217 1028h209l-35 -166q111 178 280 178q77 0 170 -43zM225 -260q0 -116 -79.5 -191t-206.5 -75l10 84q49 5 93 30t62 66q-28 -4 -34 -4q-56 0 -87.5 26.5t-31.5 73.5q0 55 40.5 91
t100.5 36q57 0 95 -37.5t38 -99.5z" />
    <glyph glyph-name="uni0219.ss02" horiz-adv-x="1013" 
d="M977 885l-131 -146q-163 138 -322 138q-82 0 -135 -36.5t-53 -92.5q0 -47 41 -68q46 -22 170 -62q207 -60 281.5 -122.5t74.5 -178.5q0 -160 -122 -255t-322 -95q-254 0 -469 197l133 145q97 -81 177.5 -118t168.5 -37q100 0 157.5 38.5t57.5 104.5q0 51 -49 78t-193 67
q-184 51 -253.5 115t-69.5 168q0 132 114.5 233t307.5 101q250 0 436 -174zM547 -260q0 -116 -80 -191t-207 -75l10 84q49 5 94 30t62 66q-28 -4 -35 -4q-56 0 -87.5 26.5t-31.5 73.5q0 55 41 91t101 36q57 0 95 -37.5t38 -99.5z" />
    <glyph glyph-name="uni021B.ss02" horiz-adv-x="763" 
d="M520 860l-119 -559q-8 -41 -8 -57q0 -40 21.5 -56t70.5 -16q52 0 129 23l15 -181q-93 -37 -213 -37q-256 0 -256 209q0 46 12 101l123 573h-186l34 168h189l69 330h224l-70 -330h244l-35 -168h-244zM463 -260q0 -116 -80 -191t-207 -75l10 84q49 5 94 30t62 66
q-28 -4 -35 -4q-56 0 -87.5 26.5t-31.5 73.5q0 55 41 91t101 36q57 0 95 -37.5t38 -99.5z" />
    <glyph glyph-name="udieresis.ss02" horiz-adv-x="1140" 
d="M883 1028h225l-219 -1028h-205l31 145q-56 -82 -144 -128t-192 -46q-142 0 -222.5 71.5t-80.5 193.5q0 68 18 151l133 641h226l-127 -610q-19 -87 -19 -123q0 -65 39 -98t109 -33q113 0 195 79.5t114 231.5zM373 1313q0 60 43.5 102.5t105.5 42.5q51 0 85 -34.5t34 -84.5
q0 -60 -43 -102.5t-104 -42.5q-51 0 -86 34t-35 85zM768 1313q0 60 43 102.5t104 42.5q51 0 85 -34.5t34 -84.5q0 -60 -43 -102.5t-104 -42.5q-51 0 -85 34t-34 85z" />
    <glyph glyph-name="wdieresis.ss02" horiz-adv-x="1583" 
d="M1403 1030h235l-497 -1030h-287l-16 303q-14 346 -15 440q-76 -176 -198 -442l-142 -301h-280l-58 1030h224l14 -358q8 -294 10 -473q125 296 211 473l174 358h211l21 -358q11 -207 14 -477q75 189 209 475zM598 1313q0 60 44 102.5t106 42.5q51 0 84.5 -34.5t33.5 -84.5
q0 -60 -43 -102.5t-104 -42.5q-51 0 -86 34t-35 85zM993 1313q0 60 43.5 102.5t104.5 42.5q51 0 85 -34.5t34 -84.5q0 -60 -43.5 -102.5t-104.5 -42.5q-51 0 -85 34t-34 85z" />
    <glyph glyph-name="ydieresis.ss02" horiz-adv-x="1044" 
d="M881 1028h233l-641 -1165q-78 -143 -163.5 -201.5t-215.5 -58.5q-103 0 -182 26l59 166q62 -10 107 -10q67 0 112 32t95 117l12 19l-162 1075h225l43 -344q4 -31 54 -465q156 315 231 455zM328 1313q0 60 43.5 102.5t105.5 42.5q51 0 85 -34.5t34 -84.5q0 -60 -43 -102.5
t-104 -42.5q-51 0 -86 34t-35 85zM723 1313q0 60 43 102.5t104 42.5q51 0 85 -34.5t34 -84.5q0 -60 -43 -102.5t-104 -42.5q-51 0 -85 34t-34 85z" />
    <glyph glyph-name="zdotaccent.ss02" horiz-adv-x="1001" 
d="M1024 1028l-35 -168l-696 -676h553l-39 -184h-842l35 170l696 676h-518l39 182h807zM539 1307q0 63 45 107t108 44q54 0 88.5 -34.5t34.5 -88.5q0 -63 -44 -107t-107 -44q-55 0 -90 34.5t-35 88.5z" />
    <glyph glyph-name="f_f_i.liga.ss02" horiz-adv-x="1884" 
d="M580 1133l-23 -105h201l-37 -168h-199l-182 -860h-225l182 860h-188l36 168h187l28 131q35 167 124 248.5t237 81.5q118 0 225 -43l-65 -164q-71 21 -133 21q-73 0 -110.5 -38.5t-57.5 -131.5zM1444 860h-240l-182 -860h-225l182 860h-164l35 168h164l28 131
q35 167 124 248.5t237 81.5q87 0 188 -29l-63 -170q-57 13 -107 13q-67 0 -103 -38.5t-56 -131.5l-23 -105h242zM1935 1331q0 -63 -45 -107t-108 -44q-54 0 -89.5 35.5t-35.5 89.5q0 63 45 106t108 43q55 0 90 -34.5t35 -88.5zM1415 0l217 1028h226l-218 -1028h-225z" />
    <glyph glyph-name="f_f_j.liga.ss02" horiz-adv-x="1886" 
d="M580 1133l-23 -105h201l-37 -168h-199l-182 -860h-225l182 860h-188l36 168h187l28 131q35 167 124 248.5t237 81.5q118 0 225 -43l-65 -164q-71 21 -133 21q-73 0 -110.5 -38.5t-57.5 -131.5zM1444 860h-240l-182 -860h-225l182 860h-164l35 168h164l28 131
q35 167 124 248.5t237 81.5q87 0 188 -29l-63 -170q-57 13 -107 13q-67 0 -103 -38.5t-56 -131.5l-23 -105h242zM1937 1331q0 -63 -44 -107t-107 -44q-55 0 -90 35.5t-35 89.5q0 63 45.5 106t108.5 43q54 0 88 -34.5t34 -88.5zM1403 -51l229 1079h226l-234 -1100
q-37 -174 -119.5 -250.5t-234.5 -76.5q-115 0 -205 34l63 164q55 -14 119 -14q68 0 102.5 38t53.5 126z" />
    <glyph glyph-name="f_j.liga.ss02" horiz-adv-x="1202" 
d="M764 860h-242l-182 -860h-225l182 860h-188l34 168h189l28 131q35 167 124 248.5t237 81.5q87 0 188 -29l-63 -170q-57 13 -107 13q-67 0 -103 -38.5t-56 -131.5l-23 -105h242zM1255 1331q0 -63 -45 -107t-108 -44q-55 0 -90 35.5t-35 89.5q0 63 45 106t108 43
q54 0 89.5 -34.5t35.5 -88.5zM719 -51l229 1079h226l-234 -1100q-35 -173 -118 -250t-236 -77q-115 0 -205 34l63 164q55 -14 119 -14q68 0 102.5 38t53.5 126z" />
    <glyph glyph-name="fi.ss02" horiz-adv-x="1200" 
d="M764 860h-242l-182 -860h-225l182 860h-188l34 168h189l28 131q35 167 124 248.5t237 81.5q87 0 188 -29l-63 -170q-57 13 -107 13q-67 0 -103 -38.5t-56 -131.5l-23 -105h242zM1251 1331q0 -63 -45 -107t-108 -44q-54 0 -88.5 35.5t-34.5 89.5q0 63 43.5 106t109.5 43
q54 0 88.5 -34.5t34.5 -88.5zM731 0l217 1028h226l-218 -1028h-225z" />
    <glyph glyph-name="uni0401.ss02" horiz-adv-x="1280" 
d="M1362 1454l-45 -205h-754l-86 -397h705l-43 -203h-705l-94 -444h776l-43 -205h-1018l310 1454h997zM575 1724q0 60 44 103t106 43q51 0 85 -34.5t34 -84.5q0 -60 -43.5 -102.5t-104.5 -42.5q-51 0 -86 33.5t-35 84.5zM971 1724q0 60 43 103t104 43q51 0 85 -34.5
t34 -84.5q0 -60 -43 -102.5t-104 -42.5q-51 0 -85 33.5t-34 84.5z" />
    <glyph glyph-name="uni0407.ss02" horiz-adv-x="598" 
d="M621 1454l-310 -1454h-241l309 1454h242zM215 1724q0 60 44 103t106 43q51 0 84.5 -34.5t33.5 -84.5q0 -60 -43 -102.5t-104 -42.5q-51 0 -86 33.5t-35 84.5zM610 1724q0 60 43.5 103t104.5 43q51 0 85 -34.5t34 -84.5q0 -60 -43.5 -102.5t-104.5 -42.5q-51 0 -85 33.5
t-34 84.5z" />
    <glyph glyph-name="uni0451.ss02" horiz-adv-x="1144" 
d="M1034 467h-743q-2 -12 -2 -55q0 -120 59.5 -187t175.5 -67q86 0 163 41t175 139l144 -127q-114 -130 -234.5 -186t-261.5 -56q-203 0 -322.5 120.5t-119.5 324.5q-1 84 22.5 173.5t74.5 175.5t121 153.5t170 107.5t214 37q177 0 288 -104t111 -267q0 -113 -35 -223z
M330 627h528q4 50 4 57q0 93 -54 147t-153 54q-112 0 -195.5 -69t-129.5 -189zM418 1313q0 60 43.5 102.5t105.5 42.5q51 0 85 -34.5t34 -84.5q0 -60 -43 -102.5t-104 -42.5q-51 0 -86 34t-35 85zM813 1313q0 60 43.5 102.5t104.5 42.5q51 0 84.5 -34.5t33.5 -84.5
q0 -60 -43 -102.5t-104 -42.5q-51 0 -85 34t-34 85z" />
    <glyph glyph-name="uni0456.ss02" horiz-adv-x="499" 
d="M471 1028l-217 -1028h-225l217 1028h225zM274 1307q0 63 45.5 107t108.5 44q54 0 88.5 -34.5t34.5 -88.5q0 -63 -44.5 -107t-107.5 -44q-55 0 -90 34.5t-35 88.5z" />
    <glyph glyph-name="uni0457.ss02" horiz-adv-x="499" 
d="M471 1028l-217 -1028h-225l217 1028h225zM78 1313q0 60 43.5 102.5t105.5 42.5q51 0 85 -34.5t34 -84.5q0 -60 -43 -102.5t-104 -42.5q-51 0 -86 34t-35 85zM473 1313q0 60 43.5 102.5t104.5 42.5q51 0 84.5 -34.5t33.5 -84.5q0 -60 -43 -102.5t-104 -42.5q-51 0 -85 34
t-34 85z" />
    <glyph glyph-name="uni0458.ss02" horiz-adv-x="489" 
d="M-145 -215q67 0 101.5 37.5t53.5 126.5l230 1079h225l-234 -1100q-35 -173 -118 -250t-236 -77q-115 0 -205 34l64 164q55 -14 119 -14zM264 1307q0 63 45.5 107t108.5 44q54 0 88.5 -34.5t34.5 -88.5q0 -63 -44.5 -107t-107.5 -44q-55 0 -90 34.5t-35 88.5z" />
    <glyph glyph-name="Iotadieresis.ss02" horiz-adv-x="598" 
d="M621 1454l-310 -1454h-241l309 1454h242zM215 1724q0 60 44 103t106 43q51 0 84.5 -34.5t33.5 -84.5q0 -60 -43 -102.5t-104 -42.5q-51 0 -86 33.5t-35 84.5zM610 1724q0 60 43.5 103t104.5 43q51 0 85 -34.5t34 -84.5q0 -60 -43.5 -102.5t-104.5 -42.5q-51 0 -85 33.5
t-34 84.5z" />
    <glyph glyph-name="Upsilondieresis.ss02" horiz-adv-x="1298" 
d="M1190 1454h283l-695 -840l-131 -614h-241l129 616l-332 838h248l237 -618zM545 1724q0 60 44 103t105 43q51 0 85 -34.5t34 -84.5q0 -60 -43 -102.5t-104 -42.5q-51 0 -86 33.5t-35 84.5zM940 1724q0 60 43 103t104 43q51 0 85 -34.5t34 -84.5q0 -60 -43 -102.5
t-104 -42.5q-51 0 -85 33.5t-34 84.5z" />
    <glyph glyph-name="iotadieresis.ss02" horiz-adv-x="487" 
d="M244 0h-226l218 1028h225zM72 1313q0 60 43.5 102.5t105.5 42.5q51 0 85 -34.5t34 -84.5q0 -60 -43 -102.5t-104 -42.5q-51 0 -86 34t-35 85zM467 1313q0 60 43 102.5t104 42.5q51 0 85 -34.5t34 -84.5q0 -60 -43 -102.5t-104 -42.5q-51 0 -85 34t-34 85z" />
    <glyph glyph-name="iotadieresistonos.ss02" horiz-adv-x="487" 
d="M244 0h-226l218 1028h225zM287 1204l100 277h225l-161 -277h-164zM29 1307q0 59 39.5 96t97.5 37q47 0 78.5 -30.5t31.5 -74.5q0 -57 -39 -94t-96 -37q-47 0 -79.5 29.5t-32.5 73.5zM584 1307q0 59 38.5 96t96.5 37q48 0 81.5 -30.5t33.5 -74.5q0 -56 -40 -93.5
t-98 -37.5q-47 0 -79.5 29.5t-32.5 73.5z" />
    <glyph glyph-name="upsilondieresis.ss02" horiz-adv-x="1136" 
d="M90 324q0 55 14 118l123 586h226l-129 -604q-9 -40 -9 -86q0 -84 46.5 -131t136.5 -47q111 0 170 63.5t86 196.5l127 608h225l-135 -635q-43 -208 -160.5 -316t-327.5 -108q-187 0 -290 96t-103 259zM373 1313q0 60 43.5 102.5t105.5 42.5q51 0 85 -34.5t34 -84.5
q0 -60 -43 -102.5t-104 -42.5q-51 0 -86 34t-35 85zM768 1313q0 60 43 102.5t104 42.5q51 0 85 -34.5t34 -84.5q0 -60 -43 -102.5t-104 -42.5q-51 0 -85 34t-34 85z" />
    <glyph glyph-name="upsilondieresistonos.ss02" horiz-adv-x="1136" 
d="M90 324q0 55 14 118l123 586h226l-129 -604q-9 -40 -9 -86q0 -84 46.5 -131t136.5 -47q111 0 170 63.5t86 196.5l127 608h225l-135 -635q-43 -208 -160.5 -316t-327.5 -108q-187 0 -290 96t-103 259zM588 1204l100 277h225l-161 -277h-164zM330 1307q0 59 39.5 96
t97.5 37q47 0 79 -30.5t32 -74.5q0 -57 -39 -94t-97 -37q-47 0 -79.5 29.5t-32.5 73.5zM885 1307q0 59 38.5 96t96.5 37q48 0 81.5 -30.5t33.5 -74.5q0 -56 -40 -93.5t-98 -37.5q-47 0 -79.5 29.5t-32.5 73.5z" />
    <glyph glyph-name="zero.case" horiz-adv-x="1228" 
d="M1217 981q0 -195 -70 -430q-68 -237 -223 -412q-152 -174 -396 -174q-211 0 -319.5 134t-108.5 368q0 197 70 432t225 410q155 174 393 174q214 0 321.5 -133t107.5 -369zM332 467q0 -303 211 -303q148 0 250 147q96 138 145 342q47 196 47 332q0 299 -209 299
q-147 0 -250 -145q-99 -140 -147 -340q-47 -196 -47 -332z" />
    <glyph glyph-name="zero.pcnt" horiz-adv-x="849" 
d="M860 1135q0 -69 -23 -137t-66 -125t-114 -92.5t-157 -35.5q-130 0 -209.5 80t-79.5 209q0 65 24 131.5t68 122.5t114.5 91.5t155.5 35.5q127 0 207 -78.5t80 -201.5zM375 1038q0 -70 36.5 -112.5t98.5 -42.5q90 0 137 78q49 76 49 167q0 71 -35 111.5t-102 40.5
q-82 0 -133 -71t-51 -171z" />
    <glyph glyph-name="zero.tf" 
d="M1198 936q0 -187 -65 -414q-63 -219 -218 -391q-150 -164 -391 -164q-216 0 -327 130.5t-111 359.5q0 185 66 415q67 225 219 390q150 163 387 163q216 0 328 -131t112 -358zM317 455q0 -289 213 -289q144 0 244 133q99 132 146 315t47 324q0 289 -215 289
q-144 0 -244 -133t-146 -314q-45 -176 -45 -325z" />
    <glyph glyph-name="zero.zero" 
d="M1200 936q0 -187 -65 -414q-63 -220 -217 -391q-150 -164 -392 -164q-216 0 -327 130.5t-111 359.5q0 185 66 415q67 225 219 390q150 163 387 163q216 0 328 -131t112 -358zM319 455q0 -28 3 -43l591 743q-57 72 -159 72q-144 0 -244 -133q-98 -131 -145 -314
q-46 -180 -46 -325zM969 938q0 43 -2 53l-598 -747q57 -78 163 -78q144 0 244 133q99 132 146 315t47 324z" />
    <glyph glyph-name="one.case" horiz-adv-x="960" 
d="M705 1454h180l-310 -1454h-233l246 1155l-293 -176l-90 162z" />
    <glyph glyph-name="one.tf" 
d="M715 180h327l-36 -180h-910l37 180h348l195 916l-309 -189l-91 160l515 326h180z" />
    <glyph glyph-name="two.case" horiz-adv-x="1218" 
d="M283 195h764l-43 -195h-1016l20 98q30 140 98 240q63 92 152 162q74 56 231 149q3 2 20 11.5t30 17.5l145 86q126 72 190 117q134 91 134 225q0 84 -55.5 132t-145.5 48q-107 0 -204 -59t-222 -197l-162 129q276 326 606 326q188 0 300 -97.5t112 -248.5q0 -141 -59 -236
q-61 -98 -168 -172q-99 -68 -357 -213q-131 -73 -184 -110q-139 -90 -186 -213z" />
    </font>
</defs>
</svg>
