<?xml version="1.0" standalone="no"?>
<!DOCTYPE svg PUBLIC "-//W3C//DTD SVG 1.1//EN" "http://www.w3.org/Graphics/SVG/1.1/DTD/svg11.dtd" >
<svg xmlns="http://www.w3.org/2000/svg" xmlns:xlink="http://www.w3.org/1999/xlink" version="1.1">
<metadata>
Created by FontForge 20170731 at Wed Sep  1 14:14:22 2021
 By Aleksey,,,
Copyright (c) 2015 by Letters from Sweden. All rights reserved. |DCNT
</metadata>
<defs>
<font id="LabGrotesqueMono" horiz-adv-x="1187" >
  <font-face 
    font-family="Lab Grotesque Mono"
    font-weight="911"
    font-stretch="normal"
    units-per-em="2048"
    panose-1="0 0 5 0 0 0 0 0 0 0"
    ascent="1536"
    descent="-512"
    x-height="993"
    cap-height="1315"
    bbox="-940 -539 1376 2091"
    underline-thickness="120"
    underline-position="-448"
    unicode-range="U+0020-E002"
  />
<missing-glyph 
d="M956 1542v-1732h-720v1732h720z" />
    <glyph glyph-name=".notdef" 
d="M956 1542v-1732h-720v1732h720z" />
    <glyph glyph-name=".null" horiz-adv-x="0" 
 />
    <glyph glyph-name="nonmarkingreturn" horiz-adv-x="682" 
 />
    <glyph glyph-name="space" unicode=" " 
 />
    <glyph glyph-name="exclam" unicode="!" 
d="M680 1315v-385l-31 -539h-108l-29 539v385h168zM723 238v-238h-256v238h256z" />
    <glyph glyph-name="quotedbl" unicode="&#x22;" 
d="M483 1315l-20 -486h-152l-20 486h192zM897 1315l-20 -486h-152l-20 486h192z" />
    <glyph glyph-name="numbersign" unicode="#" 
d="M1102 852h-207l-80 -385h209l-27 -115h-206l-74 -352h-131l73 352h-256l-73 -352h-133l73 352h-211l27 115h209l80 385h-213l26 115h211l72 348h133l-72 -348h256l74 348h129l-71 -348h208zM684 467l80 385h-256l-80 -385h256z" />
    <glyph glyph-name="dollar" unicode="$" 
d="M684 -27v-166h-123v166q-126 10 -232 60.5t-229 156.5l101 115q107 -95 190 -137.5t170 -50.5v506q-229 60 -312 133.5t-83 220.5q0 148 113 246q112 97 282 112v164h123v-166q111 -7 206 -51.5t193 -132.5l-100 -113q-80 74 -150 109.5t-149 46.5v-447
q226 -61 316 -143.5t90 -239.5q0 -164 -111 -269.5t-295 -119.5zM561 776v418q-110 -12 -174.5 -70t-64.5 -143q0 -82 53 -125.5t186 -79.5zM930 360q0 90 -57.5 140.5t-188.5 89.5v-475q112 12 179 77.5t67 167.5z" />
    <glyph glyph-name="percent" unicode="%" 
d="M991 1341l88 -55l-884 -1313l-86 56zM39 1065q0 118 73 196t183 78q112 0 184 -77.5t72 -196.5q0 -117 -73 -195.5t-183 -78.5t-183 78.5t-73 195.5zM428 1065q0 75 -35.5 121.5t-97.5 46.5t-97.5 -46.5t-35.5 -121.5t35.5 -121.5t97.5 -46.5t97.5 46.5t35.5 121.5z
M637 250q0 119 72 196.5t184 77.5q110 0 183 -78t73 -196q0 -117 -73 -196t-183 -79t-183 79t-73 196zM1026 250q0 75 -35.5 121.5t-97.5 46.5t-97.5 -46.5t-35.5 -121.5t35.5 -121.5t97.5 -46.5t97.5 46.5t35.5 121.5z" />
    <glyph glyph-name="ampersand" unicode="&#x26;" 
d="M1194 0h-195l-145 180q-91 -107 -183.5 -157t-215.5 -50q-166 0 -276.5 100.5t-110.5 252.5q0 135 73 229q74 95 246 203q-127 168 -127 303q0 127 86.5 206t220.5 79q128 0 212.5 -78.5t84.5 -196.5q0 -102 -55 -178q-56 -77 -201 -172l248 -305l178 235l113 -84
l-199 -266zM410 1061q0 -53 26.5 -107t87.5 -129q109 68 152 123q41 53 41 125q0 67 -43.5 109.5t-110.5 42.5t-110 -45.5t-43 -118.5zM762 293l-293 362q-134 -88 -186 -157t-52 -160q0 -103 65 -167.5t169 -64.5q83 0 152.5 45.5t144.5 141.5z" />
    <glyph glyph-name="quotesingle" unicode="'" 
d="M690 1315l-20 -486h-152l-20 486h192z" />
    <glyph glyph-name="parenleft" unicode="(" 
d="M733 1491l105 -86q-164 -200 -248 -393q-82 -189 -82 -426t82 -426q84 -193 248 -396l-105 -86q-193 210 -288 426t-95 482q0 265 95 480t288 425z" />
    <glyph glyph-name="parenright" unicode=")" 
d="M838 586q0 -266 -95 -482t-288 -426l-105 86q164 203 248 396q82 189 82 426t-82 426q-84 193 -248 393l105 86q193 -210 288 -425t95 -480z" />
    <glyph glyph-name="asterisk" unicode="*" 
d="M1020 1030l-330 -104l205 -275l-96 -65l-203 274l-205 -276l-96 67l207 273l-334 104l37 111l330 -105v338h118v-336l330 103z" />
    <glyph glyph-name="plus" unicode="+" 
d="M668 1085v-426h424v-139h-424v-424h-144v424h-424v139h424v426h144z" />
    <glyph glyph-name="comma" unicode="," horiz-adv-x="1183" 
d="M469 238h260v-232l-149 -299h-121l127 293h-117v238z" />
    <glyph glyph-name="hyphen" unicode="-" 
d="M930 633v-156h-672v156h672z" />
    <glyph glyph-name="period" unicode="." 
d="M723 238v-238h-254v238h254z" />
    <glyph glyph-name="slash" unicode="/" 
d="M971 1352l-592 -1352h-158l590 1352h160z" />
    <glyph glyph-name="zero" unicode="0" 
d="M1067 655q0 -299 -117 -493q-117 -193 -358 -193q-239 0 -356 193q-115 195 -115 493q0 304 115 496q117 190 356 190q245 0 358 -192q117 -194 117 -494zM283 655q0 -200 45 -325l471 772q-79 102 -207 102q-164 0 -238 -153q-71 -154 -71 -396zM905 655q0 194 -45 328
l-473 -772q76 -105 205 -105q163 0 237 154q76 152 76 395z" />
    <glyph glyph-name="one" unicode="1" 
d="M727 129h369v-129h-922v129h389v983l-319 -229l-82 108l440 324h125v-1186z" />
    <glyph glyph-name="two" unicode="2" 
d="M311 139h746v-139h-910v61q0 134 48 232q50 96 124 158q68 57 207 143l78 45q104 61 154 98q129 96 129 238q0 108 -71 169.5t-183 61.5q-62 -3 -105.5 -15t-89.5 -45t-84.5 -73t-105.5 -119l-119 84q114 161 231 234.5t267 73.5q189 0 306.5 -104t117.5 -263
q0 -114 -47 -197q-46 -79 -119 -133q-79 -59 -193 -127l-71 -43q-109 -65 -164 -106q-127 -95 -146 -234z" />
    <glyph glyph-name="three" unicode="3" 
d="M1038 399q0 -81 -30.5 -157t-86.5 -136.5t-144 -97.5t-193 -37q-130 0 -245.5 40t-240.5 128l82 121q126 -83 214.5 -116t185.5 -33q132 0 212 80t80 206q0 124 -80.5 193t-228.5 69q-91 0 -153 -26l-76 102l450 441h-610v139h809v-137l-403 -394q6 2 26 2
q192 0 312 -102t120 -285z" />
    <glyph glyph-name="four" unicode="4" 
d="M920 442h192v-135h-192v-307h-164v307h-631v150l514 858h184l-528 -873h461v303h164v-303z" />
    <glyph glyph-name="five" unicode="5" 
d="M1061 428q0 -91 -32.5 -173.5t-91 -145.5t-144.5 -100.5t-187 -37.5q-147 0 -248 39q-99 38 -247 140l84 122q135 -93 215 -127q81 -34 180 -34q137 0 221 90q84 93 84 225q0 134 -75 208.5t-214 74.5q-156 0 -264 -105l-141 14l57 697h743v-139h-602l-34 -414
q109 86 272 86q191 0 307.5 -117t116.5 -303z" />
    <glyph glyph-name="six" unicode="6" 
d="M1073 418q0 -118 -55.5 -219t-163.5 -164.5t-248 -63.5q-220 0 -346.5 143t-126.5 369q0 207 103 381q105 178 294 361l93 90h215l2 -4l-178 -168q-253 -229 -336 -418q116 135 313 135q194 0 314 -127.5t120 -314.5zM907 416q0 137 -79 221t-214 84q-141 0 -226 -85
t-85 -220q0 -132 84 -218.5t219 -86.5t218 86.5t83 218.5z" />
    <glyph glyph-name="seven" unicode="7" 
d="M156 1315h919v-123q-191 -238 -342 -557q-152 -328 -198 -635h-179q39 290 193 614q150 318 342 564h-735v137z" />
    <glyph glyph-name="eight" unicode="8" 
d="M1071 356q0 -169 -131 -278t-352 -109t-351.5 108.5t-130.5 278.5q0 125 65.5 217t186.5 136q-89 43 -137.5 117t-48.5 171q0 153 116 249.5t300 96.5q186 0 302 -96.5t116 -249.5q0 -97 -49 -171t-138 -117q121 -44 186.5 -136t65.5 -217zM330 993q0 -100 71.5 -161.5
t186.5 -61.5q116 0 188 61.5t72 161.5q0 97 -71 158t-189 61q-117 0 -187.5 -60.5t-70.5 -158.5zM903 369q0 120 -85 194t-230 74q-144 0 -229 -74t-85 -194q0 -117 84.5 -188.5t229.5 -71.5q146 0 230.5 71.5t84.5 188.5z" />
    <glyph glyph-name="nine" unicode="9" 
d="M1055 834q0 -209 -101 -377q-103 -171 -295 -363l-94 -94h-215v2l180 170q250 231 330 414q-115 -131 -311 -131q-128 0 -228.5 60.5t-153 160.5t-52.5 219t55.5 220t163.5 163.5t248 62.5q221 0 347 -141t126 -366zM887 897q0 132 -85 218.5t-220 86.5t-218 -85
t-83 -220t78.5 -219t213.5 -84q141 0 227.5 85.5t86.5 217.5z" />
    <glyph glyph-name="colon" unicode=":" 
d="M723 238v-238h-254v238h254zM723 1059v-238h-254v238h254z" />
    <glyph glyph-name="semicolon" unicode=";" 
d="M520 238h260v-232l-149 -299h-121l127 293h-117v238zM778 1030v-237h-254v237h254z" />
    <glyph glyph-name="less" unicode="&#x3c;" 
d="M1051 1006v-148l-736 -268l736 -268v-148l-914 344v146z" />
    <glyph glyph-name="equal" unicode="=" 
d="M1092 850v-139h-992v139h992zM1092 469v-139h-992v139h992z" />
    <glyph glyph-name="greater" unicode="&#x3e;" 
d="M137 1006l914 -342v-146l-914 -344v148l735 268l-735 268v148z" />
    <glyph glyph-name="question" unicode="?" 
d="M1020 1016q0 -75 -31 -137.5t-81.5 -110.5t-139.5 -111q-89 -61 -115 -100q-29 -44 -32 -111l-7 -55h-135v68q0 112 31 165t147 136q105 73 149 127.5t44 124.5q0 90 -62 139t-172 49q-87 0 -162.5 -35.5t-181.5 -122.5l-98 111q119 101 223 148t224 47q169 0 282 -88
q117 -86 117 -244zM678 238v-238h-256v238h256z" />
    <glyph glyph-name="at" unicode="@" 
d="M1049 119h-140v98q-65 -115 -217 -115q-120 0 -208.5 89.5t-88.5 244.5t88.5 244.5t208.5 89.5q146 0 209 -100v106q0 147 -64.5 218t-195.5 71q-187 0 -307.5 -156t-120.5 -440q0 -314 138 -468.5t435 -154.5h140v-114h-156q-343 0 -518.5 188.5t-175.5 550.5
q0 170 43 308t119 228.5t179 139.5t224 49q188 0 298 -104t110 -287v-686zM901 420v33q0 99 -49.5 151.5t-130.5 52.5t-132.5 -60t-51.5 -161t51.5 -161t132.5 -60t130.5 53t49.5 152z" />
    <glyph glyph-name="A" unicode="A" 
d="M958 0l-104 338h-522l-105 -338h-164l418 1315h226l417 -1315h-166zM375 477h436l-219 711z" />
    <glyph glyph-name="B" unicode="B" 
d="M1087 369q0 -168 -106.5 -268.5t-284.5 -100.5h-522v1315h496q168 0 272.5 -88.5t104.5 -243.5q0 -104 -54.5 -180t-146.5 -109q114 -36 177.5 -119t63.5 -206zM340 1180v-422h311q110 0 170 56t60 159q0 98 -61.5 152.5t-170.5 54.5h-309zM920 375q0 113 -73.5 179.5
t-201.5 66.5h-305v-486h322q127 0 192.5 63t65.5 177z" />
    <glyph glyph-name="C" unicode="C" 
d="M1083 1167l-96 -118q-94 80 -172 112.5t-162 32.5q-179 0 -274 -147q-96 -149 -96 -392q0 -238 97.5 -388t262.5 -150q104 0 180 43q90 55 183 145l100 -117q-117 -117 -225 -168q-101 -49 -240 -49q-163 0 -283.5 88.5t-181.5 242.5t-61 353q0 202 60.5 355t183.5 241
t294 88q119 0 221 -40t209 -132z" />
    <glyph glyph-name="D" unicode="D" 
d="M1098 655q0 -297 -133 -477q-132 -178 -396 -178h-385v1315h385q265 0 396 -180q133 -180 133 -480zM553 1176h-203v-1037h203q188 0 281.5 132.5t93.5 383.5q0 252 -94 386.5t-281 134.5z" />
    <glyph glyph-name="E" unicode="E" 
d="M1034 1315v-139h-647v-428h598v-140h-598v-469h666v-139h-832v1315h813z" />
    <glyph glyph-name="F" unicode="F" 
d="M1053 1315v-139h-656v-457h600v-139h-600v-580h-166v1315h822z" />
    <glyph glyph-name="G" unicode="G" 
d="M592 547v141h489v-688h-123l-16 184q-105 -211 -342 -211q-247 0 -379 187q-131 186 -131 495t133 498q132 190 389 190q134 0 243.5 -52t227.5 -163l-100 -118q-110 104 -189.5 146t-185.5 42q-166 0 -258 -146t-92 -399q0 -251 92 -393.5t262 -142.5q146 0 231 109.5
t85 289.5v31h-336z" />
    <glyph glyph-name="H" unicode="H" 
d="M1016 1315v-1315h-166v608h-512v-608h-166v1315h166v-567h512v567h166z" />
    <glyph glyph-name="I" unicode="I" 
d="M1012 1184h-334v-1053h334v-131h-836v131h334v1053h-334v131h836v-131z" />
    <glyph glyph-name="J" unicode="J" 
d="M911 1315v-977q0 -182 -99 -269t-304 -87q-189 0 -389 84l57 135q194 -74 332 -74q121 0 179 52.5t58 172.5v963h166z" />
    <glyph glyph-name="K" unicode="K" 
d="M975 0l-443 676l-192 -201v-475h-166v1315h166v-633l596 633h207l-500 -522l520 -793h-188z" />
    <glyph glyph-name="L" unicode="L" 
d="M393 1315v-1174h682v-141h-850v1315h168z" />
    <glyph glyph-name="M" unicode="M" 
d="M801 1315h237v-1315h-151v1196l-225 -920h-140l-225 920v-1196h-147v1315h235l207 -883z" />
    <glyph glyph-name="N" unicode="N" 
d="M858 1315h152v-1315h-174l-506 1065v-1065h-152v1315h174l506 -1061v1061z" />
    <glyph glyph-name="O" unicode="O" 
d="M92 657q0 309 127 498q129 191 377 191q249 0 375 -191q127 -189 127 -498q0 -310 -127 -499t-375 -189q-247 0 -377 189q-127 189 -127 499zM930 657q0 256 -85 399.5t-249 143.5t-250 -144t-86 -399t86 -398.5t250 -143.5t249 143t85 399z" />
    <glyph glyph-name="P" unicode="P" 
d="M1092 924q0 -181 -113.5 -285t-304.5 -104h-326v-535h-166v1315h492q191 0 304.5 -104.5t113.5 -286.5zM924 924q0 122 -72.5 187t-202.5 65h-301v-502h301q131 0 203 64t72 186z" />
    <glyph glyph-name="Q" unicode="Q" 
d="M946 125l127 -170l-125 -86l-119 158q-101 -58 -233 -58q-247 0 -377 189q-127 189 -127 499q0 309 127 498q129 191 377 191q249 0 375 -191q127 -189 127 -498q0 -348 -152 -532zM735 150l-209 276l125 88l193 -256q86 139 86 399q0 256 -85 399.5t-249 143.5
t-250 -144t-86 -399t86 -398.5t250 -143.5q80 0 139 35z" />
    <glyph glyph-name="R" unicode="R" 
d="M938 0l-340 545h-252v-545h-168v1315h477q190 0 304 -104t114 -283q0 -148 -79 -244t-220 -127l350 -557h-186zM346 1176v-492h285q133 0 204.5 61.5t71.5 182.5t-72.5 184.5t-203.5 63.5h-285z" />
    <glyph glyph-name="S" unicode="S" 
d="M1081 1149l-100 -119q-108 93 -198.5 130.5t-202.5 37.5q-135 0 -221.5 -62t-86.5 -157q0 -66 39 -105q39 -36 105.5 -58.5t228.5 -61.5q252 -58 351.5 -139t99.5 -238q0 -182 -135 -294t-351 -112q-163 0 -288 52q-124 52 -271 174l103 120q137 -117 241 -161
q103 -41 217 -41q141 0 229.5 68.5t88.5 183.5q-2 30 -7.5 53.5t-18 43.5t-26.5 35.5t-38.5 29t-48.5 23.5t-63.5 21.5t-75.5 20t-91 20.5q-263 62 -355.5 134.5t-96.5 226.5q0 162 136.5 264t334.5 102q149 0 264 -44.5t237 -147.5z" />
    <glyph glyph-name="T" unicode="T" 
d="M1108 1315v-146h-430v-1169h-168v1169h-430v146h1028z" />
    <glyph glyph-name="U" unicode="U" 
d="M1030 1315v-916q0 -210 -110.5 -319t-323.5 -109q-215 0 -325.5 109t-110.5 319v916h166v-905q0 -142 68.5 -216.5t201.5 -74.5t201.5 74.5t68.5 216.5v905h164z" />
    <glyph glyph-name="V" unicode="V" 
d="M948 1315h168l-414 -1315h-217l-413 1315h170l354 -1165z" />
    <glyph glyph-name="W" unicode="W" 
d="M967 1315h149l-131 -1315h-217l-174 911l-172 -911h-219l-131 1315h153l113 -1174l180 949h152l184 -963z" />
    <glyph glyph-name="X" unicode="X" 
d="M1151 0h-188l-369 571l-369 -571h-186l455 690l-414 625h188l330 -510l328 510h186l-414 -625z" />
    <glyph glyph-name="Y" unicode="Y" 
d="M942 1315h184l-452 -754v-561h-168v563l-443 752h185l346 -598z" />
    <glyph glyph-name="Z" unicode="Z" 
d="M1077 1315v-135l-778 -1041h776v-139h-962v133l776 1043h-739v139h927z" />
    <glyph glyph-name="bracketleft" unicode="[" 
d="M924 1444v-119h-375v-1477h375v-116h-531v1712h531z" />
    <glyph glyph-name="backslash" unicode="\" 
d="M301 1352h160l590 -1352h-158z" />
    <glyph glyph-name="bracketright" unicode="]" 
d="M264 1444h531v-1712h-531v116h375v1477h-375v119z" />
    <glyph glyph-name="asciicircum" unicode="^" 
d="M670 1352l379 -820h-142l-311 676l-313 -676h-142l381 820h148z" />
    <glyph glyph-name="underscore" unicode="_" 
d="M1198 -209v-115h-1208v115h1208z" />
    <glyph glyph-name="grave" unicode="`" 
d="M365 1475h206l156 -289h-154z" />
    <glyph glyph-name="a" unicode="a" 
d="M991 696v-696h-147v127q-49 -77 -137.5 -117.5t-202.5 -40.5q-164 0 -260.5 70t-96.5 205q2 67 25.5 118t60 85.5t99 62t126 44.5t158.5 36l220 39v57q0 97 -66 151t-178 54q-90 0 -164 -38.5t-174 -133.5l-102 92q101 110 205.5 161.5t230.5 51.5q187 0 295 -90
t108 -238zM836 365v143l-183 -37q-117 -23 -194 -49q-156 -53 -156 -172q0 -72 56 -111t159 -39q138 0 228 74t90 191z" />
    <glyph glyph-name="b" unicode="b" 
d="M1092 496q0 -231 -121 -376t-307 -145q-227 0 -336 183v-158h-150v1372h160v-526q108 172 326 172q189 0 308.5 -145.5t119.5 -376.5zM928 496q0 174 -78.5 279.5t-208.5 105.5q-139 0 -225 -104t-86 -281t86 -281t225 -104q129 0 208 106.5t79 278.5z" />
    <glyph glyph-name="c" unicode="c" 
d="M657 889q-158 0 -241 -115q-82 -113 -82 -278q0 -105 35.5 -191t111.5 -141t181 -55q87 0 155.5 35.5t161.5 131.5l102 -90q-97 -117 -192.5 -165t-224.5 -48q-227 0 -360.5 142.5t-133.5 380.5q0 237 134 381.5t355 144.5q126 0 219.5 -43.5t186.5 -144.5l-104 -95
q-83 83 -152.5 116.5t-151.5 33.5z" />
    <glyph glyph-name="d" unicode="d" 
d="M850 1372h160v-1372h-150v162q-108 -187 -336 -187q-190 0 -309 144.5t-119 376.5q0 231 121 376.5t311 145.5q220 0 322 -166v520zM858 496q0 176 -86.5 280.5t-224.5 104.5q-129 0 -208 -106.5t-79 -278.5q0 -175 77.5 -280t209.5 -105q137 0 224 104.5t87 280.5z" />
    <glyph glyph-name="e" unicode="e" 
d="M987 289l94 -99q-116 -117 -223.5 -167t-236.5 -50q-225 0 -359 140q-131 140 -131 374q0 236 131.5 385.5t341.5 149.5q214 0 333.5 -127t119.5 -348q0 -28 -4 -74h-762q6 -167 91.5 -267t240.5 -100q96 0 177.5 41.5t186.5 141.5zM297 598h602q-6 132 -84.5 211.5
t-210.5 79.5q-125 0 -206 -75.5t-101 -215.5z" />
    <glyph glyph-name="f" unicode="f" 
d="M604 1096v-103h459v-131h-459v-862h-160v862h-346v131h346v123q0 145 101 231.5t268 86.5q150 0 320 -62l-39 -127q-144 53 -275 53q-215 0 -215 -202z" />
    <glyph glyph-name="g" unicode="g" 
d="M864 993h150v-958q0 -192 -119 -301t-326 -109q-232 0 -460 127l73 125q211 -117 389 -117q132 0 209.5 72.5t77.5 214.5v137q-100 -161 -317 -161q-194 0 -312 139t-118 360q0 220 120 360t310 140q221 0 323 -172v143zM860 522q0 163 -80.5 264t-214.5 101
q-135 0 -213 -99.5t-78 -265.5q0 -168 76.5 -266t214.5 -98q135 0 215 99.5t80 264.5z" />
    <glyph glyph-name="h" unicode="h" 
d="M993 680v-680h-159v629q0 256 -213 256q-110 0 -182 -75.5t-72 -191.5v-618h-160v1372h160v-498q96 146 292 146q161 0 247.5 -93.5t86.5 -246.5z" />
    <glyph glyph-name="i" unicode="i" 
d="M713 131h360v-131h-909v131h389v731h-317v131h477v-862zM727 1425v-211h-229v211h229z" />
    <glyph glyph-name="j" unicode="j" 
d="M756 993v-1052q0 -144 -94 -230t-259 -86q-133 0 -272 43l35 129q116 -39 229 -39q104 0 152.5 50t48.5 153v901h-324v131h484zM772 1425v-211h-229v211h229z" />
    <glyph glyph-name="k" unicode="k" 
d="M942 0l-369 492l-176 -175v-317h-159v1372h159v-880l498 501h197l-406 -401l442 -592h-186z" />
    <glyph glyph-name="l" unicode="l" 
d="M1028 229l74 -108q-97 -71 -180 -106t-172 -35q-143 0 -219 74t-76 202v985h-318v131h477v-1089q0 -81 39 -123.5t111 -42.5q112 0 264 112z" />
    <glyph glyph-name="m" unicode="m" 
d="M1079 768v-768h-149v729q0 154 -119 154q-65 0 -104 -50.5t-39 -132.5v-700h-140v729q0 154 -118 154q-64 0 -104 -49.5t-40 -133.5v-700h-149v993h135v-108q62 133 197 133q141 0 194 -139q32 66 86 102.5t123 36.5q110 0 168.5 -67.5t58.5 -182.5z" />
    <glyph glyph-name="n" unicode="n" 
d="M995 680v-680h-159v629q0 256 -213 256q-110 0 -182 -75.5t-72 -191.5v-618h-160v993h149v-135q47 79 125.5 120.5t178.5 41.5q161 0 247 -93.5t86 -246.5z" />
    <glyph glyph-name="o" unicode="o" 
d="M1071 496q0 -232 -132 -377.5t-345 -145.5q-212 0 -343.5 145.5t-131.5 377.5q0 234 131.5 380t343.5 146q213 0 345 -146t132 -380zM283 496q0 -179 83 -284.5t228 -105.5q146 0 229.5 105.5t83.5 284.5q0 180 -83.5 286.5t-229.5 106.5t-228.5 -106t-82.5 -287z" />
    <glyph glyph-name="p" unicode="p" 
d="M1092 498q0 -234 -119 -378.5t-309 -144.5q-218 0 -326 164v-481h-160v1335h150v-162q106 189 336 189q189 0 308.5 -145.5t119.5 -376.5zM928 498q0 175 -77.5 280t-209.5 105q-139 0 -225 -104t-86 -281q0 -176 88 -281.5t223 -105.5q129 0 208 107t79 280z" />
    <glyph glyph-name="q" unicode="q" 
d="M860 993h150v-1335h-160v483q-108 -166 -324 -166q-189 0 -309.5 145t-120.5 378q0 232 120.5 376t309.5 144q233 0 334 -180v155zM858 498q0 177 -86 281t-225 104q-129 0 -208 -106.5t-79 -278.5q0 -174 78.5 -280.5t208.5 -106.5q137 0 224 105t87 282z" />
    <glyph glyph-name="r" unicode="r" 
d="M1098 932l-45 -133q-170 69 -308 69q-134 0 -238 -93.5t-104 -242.5v-532h-159v993h149v-186q55 93 151.5 148t215.5 55q156 0 338 -78z" />
    <glyph glyph-name="s" unicode="s" 
d="M1008 881l-88 -109q-95 71 -164 96t-162 25q-107 0 -171.5 -44.5t-64.5 -113.5q7 -64 58 -89.5t223 -61.5q207 -42 296 -110.5t89 -194.5q0 -141 -113 -226q-113 -84 -290 -84q-139 0 -245.5 41t-223.5 142l94 106q108 -89 192 -123.5t183 -34.5q110 0 177.5 46.5
t67.5 123.5q0 75 -65.5 112.5t-227.5 70.5q-212 44 -290 100t-78 176q0 131 108.5 214t278.5 83q126 0 221.5 -33t194.5 -112z" />
    <glyph glyph-name="t" unicode="t" 
d="M1051 190l45 -124q-80 -38 -167 -61t-155 -23q-167 0 -253.5 71.5t-86.5 198.5v610h-366v131h366v355h160v-355h475v-131h-475v-581q0 -79 48 -120.5t140 -41.5q95 0 269 71z" />
    <glyph glyph-name="u" unicode="u" 
d="M819 993h160v-993h-150v135q-47 -79 -125 -120.5t-178 -41.5q-161 0 -247 93.5t-86 246.5v680h159v-628q0 -256 213 -256q110 0 182 75.5t72 190.5v618z" />
    <glyph glyph-name="v" unicode="v" 
d="M911 993h158l-373 -993h-207l-372 993h166l313 -862z" />
    <glyph glyph-name="w" unicode="w" 
d="M983 993h141l-166 -993h-206l-170 807l-166 -807h-205l-166 993h143l144 -889l180 889h145l183 -895z" />
    <glyph glyph-name="x" unicode="x" 
d="M1077 0h-180l-301 414l-305 -414h-178l389 522l-363 471h178l279 -368l276 368h172l-352 -469z" />
    <glyph glyph-name="y" unicode="y" 
d="M901 993h162l-418 -1120q-52 -137 -116.5 -191.5t-186.5 -54.5q-82 0 -162 17l25 133q67 -15 125 -15q70 0 107.5 31.5t72.5 122.5l8 25l-393 1052h168l303 -839z" />
    <glyph glyph-name="z" unicode="z" 
d="M1010 993v-119l-637 -741h637v-133h-832v119l635 741h-608v133h805z" />
    <glyph glyph-name="braceleft" unicode="{" 
d="M971 1444v-119h-158q-36 -2 -60 -5.5t-41 -15t-26 -23t-14 -38t-6 -50.5t-2 -69v-290q0 -109 -40 -166t-139 -74v-4q99 -17 139 -74t40 -164v-303q1 -45 2 -69t6 -50.5t14 -38t26 -23t41 -15t60 -5.5h158v-116h-191q-76 0 -124.5 12t-83 44.5t-49.5 88.5t-15 143v308
q0 110 -45 152t-158 42v137q111 0 157 44t46 153v299q0 87 15 143t49.5 88.5t83 45t124.5 12.5h191z" />
    <glyph glyph-name="bar" unicode="|" 
d="M666 1524v-1790h-142v1790h142z" />
    <glyph glyph-name="braceright" unicode="}" 
d="M217 1444h191q76 0 124.5 -12.5t83 -45t49.5 -88.5t15 -143v-299q0 -109 46 -153t157 -44v-137q-113 0 -158 -42t-45 -152v-308q0 -87 -15 -143t-49.5 -88.5t-83 -44.5t-124.5 -12h-191v116h158q36 2 60 5.5t41 15t26 23t14 38t6 50.5t2 69v303q0 107 39.5 164t138.5 74
v4q-99 17 -138.5 74t-39.5 166v290q-1 45 -2 69t-6 50.5t-14 38t-26 23t-41 15t-60 5.5h-158v119z" />
    <glyph glyph-name="asciitilde" unicode="~" 
d="M631 705q75 -29 110.5 -39.5t71.5 -10.5q102 0 111 103h133q-5 -107 -65.5 -170.5t-166.5 -63.5q-50 0 -92.5 12t-134.5 48q-79 30 -119.5 41.5t-79.5 11.5q-56 0 -90.5 -28.5t-40.5 -76.5h-135q6 106 76 170t184 64q101 0 238 -61z" />
    <glyph glyph-name="exclamdown" unicode="&#xa1;" 
d="M465 756v237h256v-237h-256zM508 -322v385l31 539h108l29 -539v-385h-168z" />
    <glyph glyph-name="cent" unicode="&#xa2;" 
d="M696 -23v-167h-125v167q-180 18 -288 150q-107 131 -107 340q0 207 107 338q108 132 288 153v175h125v-175q89 -7 162 -49t146 -125l-105 -98q-109 115 -203 135v-704q53 10 102 44.5t111 104.5l107 -88q-77 -96 -153 -143t-167 -58zM571 117v704q-108 -23 -169.5 -120.5
t-61.5 -233.5q0 -135 60.5 -231t170.5 -119z" />
    <glyph glyph-name="sterling" unicode="&#xa3;" 
d="M1049 190l53 -127q-155 -88 -289 -88q-109 0 -242 39q-138 33 -202 33q-36 0 -68.5 -4.5t-57.5 -13t-41.5 -15t-33 -15t-18.5 -9.5l-50 131q122 48 186.5 114.5t65.5 180.5q0 61 -10 133h-186v121h153q-33 114 -41 155q-12 59 -12 148q0 168 112.5 268t282.5 100
q230 0 432 -151l-88 -117q-187 129 -344 129q-106 0 -166.5 -62t-60.5 -171q0 -83 12 -144q13 -66 39 -155h412v-121h-383q8 -65 8 -121q0 -156 -137 -252q72 -2 221 -33q143 -28 209 -28q97 0 244 75z" />
    <glyph glyph-name="currency" unicode="&#xa4;" 
d="M958 1094l82 -80l-127 -127q80 -109 80 -240q0 -130 -80 -239l127 -125l-84 -80l-127 127q-107 -66 -231 -66q-135 0 -236 70l-133 -133l-79 80l131 131q-78 107 -78 235q0 133 76 234l-132 131l82 80l133 -131q103 71 236 71q128 0 229 -67zM334 647q0 -116 74 -189
t190 -73t191 73.5t75 188.5q0 116 -75 189t-191 73t-190 -73t-74 -189z" />
    <glyph glyph-name="yen" unicode="&#xa5;" 
d="M1092 1315l-297 -514h229v-119h-299l-51 -90v-94h350v-115h-350v-383h-164v383h-348v115h348v96l-51 88h-297v119h229l-295 514h183l317 -576l319 576h177z" />
    <glyph glyph-name="brokenbar" unicode="&#xa6;" 
d="M666 1524v-762h-142v762h142zM666 496v-762h-142v762h142z" />
    <glyph glyph-name="section" unicode="&#xa7;" 
d="M983 131q0 -133 -108.5 -218t-276.5 -85q-122 0 -215.5 34.5t-194.5 114.5l86 111q94 -76 164 -100q70 -27 160 -27q102 0 166.5 46t64.5 118q-2 18 -5.5 32t-13.5 26.5t-17 21t-27.5 18t-34.5 15t-48.5 15.5t-58 16t-73.5 18q-215 49 -306 117t-91 192q0 167 178 240
q-66 35 -95.5 85.5t-29.5 125.5q0 136 106 217q110 84 279 84q123 0 216 -34t193 -116l-86 -111q-95 77 -163 103q-70 27 -160 27q-102 0 -168 -47t-66 -119q0 -46 31 -74q30 -26 81.5 -43.5t170.5 -44.5q215 -49 305 -116t90 -191q0 -169 -180 -242q67 -32 97 -81.5
t30 -127.5zM618 414l58 -13q96 18 149.5 60.5t53.5 107.5q0 77 -70 116.5t-236 74.5l-65 14q-91 -19 -144 -62t-53 -104q0 -80 69.5 -119.5t237.5 -74.5z" />
    <glyph glyph-name="dieresis" unicode="&#xa8;" 
d="M420 1425v-211h-203v211h203zM836 1425v-211h-203v211h203z" />
    <glyph glyph-name="copyright" unicode="&#xa9;" 
d="M47 657q0 200 72 358.5t197 245.5t278 87t278 -87t197 -245.5t72 -358.5q0 -303 -156 -496.5t-391 -193.5t-391 193.5t-156 496.5zM1038 657q0 263 -124 427.5t-320 164.5t-320 -164.5t-124 -427.5q0 -262 124 -425.5t320 -163.5t320 163.5t124 425.5zM291 657
q0 179 86.5 297.5t222.5 118.5q186 0 266 -201l-102 -53q-32 74 -70 106.5t-92 32.5q-85 0 -137.5 -84.5t-52.5 -216.5t52 -214.5t138 -82.5q60 0 96.5 33.5t71.5 120.5l100 -53q-44 -116 -107 -166.5t-163 -50.5q-136 0 -222.5 118t-86.5 295z" />
    <glyph glyph-name="ordfeminine" unicode="&#xaa;" 
d="M915 1153v-526h-127v98q-77 -121 -262 -121q-121 0 -194.5 55.5t-73.5 153.5q0 116 85 174.5t267 91.5l170 31v27q0 75 -47.5 116t-132.5 41q-66 0 -124.5 -30.5t-121.5 -94.5l-86 80q135 156 336 156q148 0 229.5 -67.5t81.5 -184.5zM780 924v80l-141 -27
q-132 -25 -189 -58t-57 -96q0 -49 41 -76.5t113 -27.5q106 0 169.5 54t63.5 151z" />
    <glyph glyph-name="guillemotleft" unicode="&#xab;" 
d="M602 897l-268 -416l268 -413h-160l-266 413l266 416h160zM1014 897l-266 -416l266 -413h-160l-264 413l264 416h160z" />
    <glyph glyph-name="logicalnot" unicode="&#xac;" 
d="M100 659h992v-516h-142v377h-850v139z" />
    <glyph glyph-name="registered" unicode="&#xae;" 
d="M1016 985q0 -179 -121 -300.5t-299 -121.5q-180 0 -301 121t-121 301q0 179 121 299.5t301 120.5q177 0 298.5 -121t121.5 -299zM934 985q0 150 -95.5 249t-242.5 99q-148 0 -244 -99t-96 -249q0 -149 96 -248.5t244 -99.5q144 0 241 100t97 248zM674 940l112 -184h-96
l-106 180h-66v-180h-86v473h197q65 0 108 -43t43 -107q0 -55 -28 -92t-78 -47zM518 1153v-145h92q84 0 84 71q0 33 -22 53.5t-62 20.5h-92z" />
    <glyph glyph-name="overscore" unicode="&#xaf;" 
d="M811 1376v-137h-594v137h594z" />
    <glyph glyph-name="degree" unicode="&#xb0;" 
d="M322 1126q0 115 79 191q81 78 195 78q112 0 192 -77.5t80 -191.5t-80 -191t-192 -77q-116 0 -195 76t-79 192zM752 1126q0 69 -44.5 115.5t-111.5 46.5q-69 0 -113.5 -46.5t-44.5 -115.5t44.5 -114t113.5 -45t112.5 45t43.5 114z" />
    <glyph glyph-name="plusminus" unicode="&#xb1;" 
d="M668 1311v-426h424v-140h-424v-423h-144v423h-424v140h424v426h144zM1092 139v-139h-992v139h992z" />
    <glyph glyph-name="uni00B2" unicode="&#xb2;" 
d="M432 711h461v-111h-598v51q0 76 29 134t79.5 99.5t137.5 88.5l45 22q101 52 137.5 85t36.5 85q0 55 -40.5 85t-113.5 30q-107 0 -223 -102l-76 84q141 135 301 135q129 0 207 -64t78 -162q-6 -100 -53.5 -149.5t-175.5 -114.5l-50 -26q-97 -54 -134.5 -87.5t-47.5 -82.5z
" />
    <glyph glyph-name="uni00B3" unicode="&#xb3;" 
d="M897 836q0 -104 -80 -179t-215 -75q-83 0 -154.5 21t-156.5 75l65 96q77 -44 131.5 -61t112.5 -17q74 0 119 39t45 101q0 63 -47 99t-129 36q-72 0 -99 -15l-59 82l277 228h-379v110h540v-108l-247 -203h10q117 0 191.5 -62.5t74.5 -166.5z" />
    <glyph glyph-name="acute" unicode="&#xb4;" 
d="M680 1475l-209 -289h-156l156 289h209z" />
    <glyph glyph-name="uni00B5" unicode="&#xb5;" 
d="M831 993h160v-993h-149v131q-87 -158 -269 -158q-139 0 -217 84v-399h-159v1335h159v-631q0 -123 59 -188t165 -65q110 0 180.5 75t70.5 191v618z" />
    <glyph glyph-name="paragraph" unicode="&#xb6;" 
d="M741 1315v-1505h-131v673h-61q-194 0 -313 113t-119 305q0 191 119 301q119 113 313 113h192zM1028 1315v-1505h-129v1505h129z" />
    <glyph glyph-name="middot" unicode="&#xb7;" 
d="M723 768v-238h-254v238h254z" />
    <glyph glyph-name="cedilla" unicode="&#xb8;" 
d="M715 -313q0 -88 -65.5 -144.5t-168.5 -56.5q-128 0 -237 80l53 88q65 -35 102.5 -48.5t79.5 -13.5q54 0 86.5 24.5t32.5 66.5q0 38 -33 61t-88 23q-33 0 -65 -7l-62 58l109 231l92 -43l-70 -149q104 6 169 -41t65 -129z" />
    <glyph glyph-name="uni00B9" unicode="&#xb9;" 
d="M602 1376h100v-776h-131v617l-143 -105l-66 90z" />
    <glyph glyph-name="ordmasculine" unicode="&#xba;" 
d="M965 1004q0 -177 -104 -288.5t-267 -111.5t-267 111.5t-104 288.5q0 175 104.5 288t266.5 113q161 0 266 -113t105 -288zM360 1004q0 -128 64 -205.5t170 -77.5q104 0 167.5 77.5t63.5 205.5t-63.5 207t-167.5 79q-105 0 -169.5 -78.5t-64.5 -207.5z" />
    <glyph glyph-name="guillemotright" unicode="&#xbb;" 
d="M176 897h160l266 -416l-266 -413h-160l266 413zM590 897h160l264 -416l-264 -413h-160l264 413z" />
    <glyph glyph-name="onequarter" unicode="&#xbc;" 
d="M903 1348l90 -50l-743 -1331l-88 49zM236 721v453l-95 -72l-57 80l176 133h90v-594h-114zM1042 223h74v-92h-74v-131h-116v131h-271v109l217 350h127l-229 -367h156v119h116v-119z" />
    <glyph glyph-name="onehalf" unicode="&#xbd;" 
d="M907 1348l90 -50l-743 -1331l-88 49zM221 721v450l-92 -69l-57 80l174 133h92v-594h-117zM834 98h323v-98h-444v47q0 86 42.5 139.5t135.5 104.5l61 33q88 49 88 104q0 35 -25.5 54.5t-70.5 19.5q-71 0 -162 -76l-61 80q100 100 227 100q96 0 152.5 -49.5t56.5 -126.5
q0 -70 -34.5 -109t-127.5 -90q-31 -15 -37 -20q-68 -40 -92.5 -61.5t-31.5 -51.5z" />
    <glyph glyph-name="threequarters" unicode="&#xbe;" 
d="M907 1348l90 -50l-743 -1331l-88 49zM328 903q0 43 -31.5 66.5t-87.5 23.5q-53 0 -66 -8l-51 72l189 157h-258v101h399v-98l-168 -140q87 0 139.5 -47.5t52.5 -126.5q0 -83 -59.5 -139.5t-159.5 -56.5q-121 0 -233 75l57 86q57 -32 95 -44.5t79 -12.5q49 0 76 24.5
t27 67.5zM1042 223h74v-92h-74v-131h-114v131h-273v109l217 350h127l-229 -367h158v119h114v-119z" />
    <glyph glyph-name="questiondown" unicode="&#xbf;" 
d="M510 756v237h256v-237h-256zM168 -23q0 75 31 137.5t81.5 110.5t139.5 111q91 62 115 98q29 44 32 113l6 55h136v-67q0 -112 -31.5 -165.5t-147.5 -136.5q-105 -73 -148.5 -127t-43.5 -124q0 -90 61.5 -139.5t171.5 -49.5q87 0 162.5 35.5t181.5 122.5l99 -111
q-119 -101 -223 -147.5t-224 -46.5q-168 0 -284 88q-115 86 -115 243z" />
    <glyph glyph-name="Agrave" unicode="&#xc0;" 
d="M958 0l-104 338h-522l-105 -338h-164l418 1315h226l417 -1315h-166zM375 477h436l-219 711zM342 1757h207l156 -289h-154z" />
    <glyph glyph-name="Aacute" unicode="&#xc1;" 
d="M958 0l-104 338h-522l-105 -338h-164l418 1315h226l417 -1315h-166zM375 477h436l-219 711zM848 1757l-209 -289h-156l156 289h209z" />
    <glyph glyph-name="Acircumflex" unicode="&#xc2;" 
d="M958 0l-104 338h-522l-105 -338h-164l418 1315h226l417 -1315h-166zM375 477h436l-219 711zM762 1468l-168 195l-168 -195h-158l211 289h232l209 -289h-158z" />
    <glyph glyph-name="Atilde" unicode="&#xc3;" 
d="M958 0l-104 338h-522l-105 -338h-164l418 1315h226l417 -1315h-166zM375 477h436l-219 711zM633 1647q34 -24 54 -33.5t42 -9.5q68 0 68 104h118q0 -110 -47.5 -170.5t-132.5 -60.5q-72 0 -155 57q-71 45 -113 45q-36 0 -55 -27t-19 -75h-119q0 110 50 170.5t141 60.5
q46 0 81 -13.5t87 -47.5z" />
    <glyph glyph-name="Adieresis" unicode="&#xc4;" 
d="M958 0l-104 338h-522l-105 -338h-164l418 1315h226l417 -1315h-166zM375 477h436l-219 711zM487 1708v-211h-202v211h202zM903 1708v-211h-203v211h203z" />
    <glyph glyph-name="Aring" unicode="&#xc5;" 
d="M958 0l-104 338h-522l-105 -338h-164l416 1311q-66 29 -104.5 88t-38.5 131q0 104 74 174t184 70t184 -70t74 -174q0 -72 -38.5 -131t-104.5 -88l415 -1311h-166zM449 1530q0 -63 41 -103.5t104 -40.5t104 40.5t41 103.5t-41 103t-104 40t-104 -40t-41 -103zM375 477h436
l-219 711z" />
    <glyph glyph-name="AE" unicode="&#xc6;" 
d="M711 139h391v-139h-549v340h-285l-108 -340h-152l426 1315h653v-139h-376v-435h344v-139h-344v-463zM313 481h240v756z" />
    <glyph glyph-name="Ccedilla" unicode="&#xc7;" 
d="M868 -313q0 -88 -65 -144.5t-168 -56.5q-125 0 -240 80l56 88q107 -62 182 -62q54 0 86.5 24.5t32.5 66.5q0 38 -33 61t-88 23q-35 0 -66 -7l-61 58l74 157q-222 24 -342 211q-121 189 -121 469q0 202 60.5 355t183.5 241t294 88q119 0 221 -40t209 -132l-96 -118
q-94 80 -172 112.5t-162 32.5q-179 0 -274 -147q-96 -149 -96 -392q0 -238 97.5 -388t262.5 -150q104 0 180 43q90 55 183 145l100 -117q-111 -110 -205.5 -159t-212.5 -56l-53 -116q104 6 168.5 -41t64.5 -129z" />
    <glyph glyph-name="Egrave" unicode="&#xc8;" 
d="M1034 1315v-139h-647v-428h598v-140h-598v-469h666v-139h-832v1315h813zM408 1757h206l156 -289h-154z" />
    <glyph glyph-name="Eacute" unicode="&#xc9;" 
d="M1034 1315v-139h-647v-428h598v-140h-598v-469h666v-139h-832v1315h813zM913 1757l-208 -289h-156l156 289h208z" />
    <glyph glyph-name="Ecircumflex" unicode="&#xca;" 
d="M1034 1315v-139h-647v-428h598v-140h-598v-469h666v-139h-832v1315h813zM827 1468l-168 195l-167 -195h-158l211 289h231l209 -289h-158z" />
    <glyph glyph-name="Edieresis" unicode="&#xcb;" 
d="M1034 1315v-139h-647v-428h598v-140h-598v-469h666v-139h-832v1315h813zM553 1708v-211h-203v211h203zM969 1708v-211h-203v211h203z" />
    <glyph glyph-name="Igrave" unicode="&#xcc;" 
d="M1012 1184h-334v-1053h334v-131h-836v131h334v1053h-334v131h836v-131zM342 1757h207l156 -289h-154z" />
    <glyph glyph-name="Iacute" unicode="&#xcd;" 
d="M1012 1184h-334v-1053h334v-131h-836v131h334v1053h-334v131h836v-131zM848 1757l-209 -289h-156l156 289h209z" />
    <glyph glyph-name="Icircumflex" unicode="&#xce;" 
d="M1012 1184h-334v-1053h334v-131h-836v131h334v1053h-334v131h836v-131zM762 1468l-168 195l-168 -195h-158l211 289h232l209 -289h-158z" />
    <glyph glyph-name="Idieresis" unicode="&#xcf;" 
d="M1012 1184h-334v-1053h334v-131h-836v131h334v1053h-334v131h836v-131zM487 1708v-211h-202v211h202zM903 1708v-211h-203v211h203z" />
    <glyph glyph-name="Eth" unicode="&#xd0;" 
d="M1122 655q0 -297 -133 -477q-132 -178 -395 -178h-385v610h-180v135h180v570h385q264 0 395 -180q133 -180 133 -480zM952 655q0 252 -93.5 386.5t-280.5 134.5h-203v-431h299v-135h-299v-471h203q188 0 281 132.5t93 383.5z" />
    <glyph glyph-name="Ntilde" unicode="&#xd1;" 
d="M858 1315h152v-1315h-174l-506 1065v-1065h-152v1315h174l506 -1061v1061zM633 1647q34 -24 54 -33.5t42 -9.5q68 0 68 104h118q0 -110 -47.5 -170.5t-132.5 -60.5q-72 0 -155 57q-71 45 -113 45q-36 0 -55 -27t-19 -75h-119q0 110 50 170.5t141 60.5q46 0 81 -13.5
t87 -47.5z" />
    <glyph glyph-name="Ograve" unicode="&#xd2;" 
d="M92 657q0 309 127 498q129 191 377 191q249 0 375 -191q127 -189 127 -498q0 -310 -127 -499t-375 -189q-247 0 -377 189q-127 189 -127 499zM930 657q0 256 -85 399.5t-249 143.5t-250 -144t-86 -399t86 -398.5t250 -143.5t249 143t85 399zM342 1757h207l156 -289h-154z
" />
    <glyph glyph-name="Oacute" unicode="&#xd3;" 
d="M92 657q0 309 127 498q129 191 377 191q249 0 375 -191q127 -189 127 -498q0 -310 -127 -499t-375 -189q-247 0 -377 189q-127 189 -127 499zM930 657q0 256 -85 399.5t-249 143.5t-250 -144t-86 -399t86 -398.5t250 -143.5t249 143t85 399zM848 1757l-209 -289h-156
l156 289h209z" />
    <glyph glyph-name="Ocircumflex" unicode="&#xd4;" 
d="M92 657q0 309 127 498q129 191 377 191q249 0 375 -191q127 -189 127 -498q0 -310 -127 -499t-375 -189q-247 0 -377 189q-127 189 -127 499zM930 657q0 256 -85 399.5t-249 143.5t-250 -144t-86 -399t86 -398.5t250 -143.5t249 143t85 399zM762 1468l-168 195l-168 -195
h-158l211 289h232l209 -289h-158z" />
    <glyph glyph-name="Otilde" unicode="&#xd5;" 
d="M92 657q0 309 127 498q129 191 377 191q249 0 375 -191q127 -189 127 -498q0 -310 -127 -499t-375 -189q-247 0 -377 189q-127 189 -127 499zM930 657q0 256 -85 399.5t-249 143.5t-250 -144t-86 -399t86 -398.5t250 -143.5t249 143t85 399zM633 1647q34 -24 54 -33.5
t42 -9.5q68 0 68 104h118q0 -110 -47.5 -170.5t-132.5 -60.5q-72 0 -155 57q-71 45 -113 45q-36 0 -55 -27t-19 -75h-119q0 110 50 170.5t141 60.5q46 0 81 -13.5t87 -47.5z" />
    <glyph glyph-name="Odieresis" unicode="&#xd6;" 
d="M92 657q0 309 127 498q129 191 377 191q249 0 375 -191q127 -189 127 -498q0 -310 -127 -499t-375 -189q-247 0 -377 189q-127 189 -127 499zM930 657q0 256 -85 399.5t-249 143.5t-250 -144t-86 -399t86 -398.5t250 -143.5t249 143t85 399zM487 1708v-211h-202v211h202z
M903 1708v-211h-203v211h203z" />
    <glyph glyph-name="multiply" unicode="&#xd7;" 
d="M1032 930l-340 -338l340 -340l-96 -96l-340 340l-340 -340l-96 96l340 340l-340 338l96 98l340 -340l340 340z" />
    <glyph glyph-name="Oslash" unicode="&#xd8;" 
d="M1098 657q0 -310 -127 -499t-375 -189q-179 0 -295 101l-80 -131l-100 61l98 160q-127 183 -127 497q0 309 127 498q129 191 377 191q176 0 293 -99l80 131l102 -63l-98 -160q125 -184 125 -498zM315 317l490 795q-82 88 -209 88q-164 0 -250 -144t-86 -399
q0 -206 55 -340zM930 657q0 204 -56 340l-489 -792q84 -90 211 -90q164 0 249 143t85 399z" />
    <glyph glyph-name="Ugrave" unicode="&#xd9;" 
d="M1030 1315v-916q0 -210 -110.5 -319t-323.5 -109q-215 0 -325.5 109t-110.5 319v916h166v-905q0 -142 68.5 -216.5t201.5 -74.5t201.5 74.5t68.5 216.5v905h164zM344 1757h207l156 -289h-154z" />
    <glyph glyph-name="Uacute" unicode="&#xda;" 
d="M1030 1315v-916q0 -210 -110.5 -319t-323.5 -109q-215 0 -325.5 109t-110.5 319v916h166v-905q0 -142 68.5 -216.5t201.5 -74.5t201.5 74.5t68.5 216.5v905h164zM850 1757l-209 -289h-156l156 289h209z" />
    <glyph glyph-name="Ucircumflex" unicode="&#xdb;" 
d="M1030 1315v-916q0 -210 -110.5 -319t-323.5 -109q-215 0 -325.5 109t-110.5 319v916h166v-905q0 -142 68.5 -216.5t201.5 -74.5t201.5 74.5t68.5 216.5v905h164zM764 1468l-168 195l-168 -195h-158l211 289h232l209 -289h-158z" />
    <glyph glyph-name="Udieresis" unicode="&#xdc;" 
d="M1030 1315v-916q0 -210 -110.5 -319t-323.5 -109q-215 0 -325.5 109t-110.5 319v916h166v-905q0 -142 68.5 -216.5t201.5 -74.5t201.5 74.5t68.5 216.5v905h164zM489 1708v-211h-202v211h202zM905 1708v-211h-203v211h203z" />
    <glyph glyph-name="Yacute" unicode="&#xdd;" 
d="M942 1315h184l-452 -754v-561h-168v563l-443 752h185l346 -598zM848 1757l-209 -289h-156l156 289h209z" />
    <glyph glyph-name="Thorn" unicode="&#xde;" 
d="M1092 680q0 -182 -112.5 -285.5t-303.5 -103.5h-338v-291h-168v1315h168v-244h338q188 0 302 -105t114 -286zM924 680q0 122 -72.5 187t-202.5 65h-311v-502h311q131 0 203 64t72 186z" />
    <glyph glyph-name="germandbls" unicode="&#xdf;" 
d="M1059 406q0 -190 -97 -304t-276 -114q-107 0 -211 26l21 131q93 -22 180 -22q103 0 163 75.5t60 209.5q0 288 -297 288h-59v125h59q97 0 150 63t53 169q0 93 -59.5 150t-153.5 57q-107 0 -167 -72.5t-60 -206.5v-981h-160v995q0 185 109.5 292.5t279.5 107.5
q162 0 263 -95.5t101 -240.5q0 -101 -43 -173.5t-118 -109.5q125 -38 193.5 -134t68.5 -236z" />
    <glyph glyph-name="agrave" unicode="&#xe0;" 
d="M991 696v-696h-147v127q-49 -77 -137.5 -117.5t-202.5 -40.5q-164 0 -260.5 70t-96.5 205q2 67 25.5 118t60 85.5t99 62t126 44.5t158.5 36l220 39v57q0 97 -66 151t-178 54q-90 0 -164 -38.5t-174 -133.5l-102 92q101 110 205.5 161.5t230.5 51.5q187 0 295 -90
t108 -238zM836 365v143l-183 -37q-117 -23 -194 -49q-156 -53 -156 -172q0 -72 56 -111t159 -39q138 0 228 74t90 191zM348 1475h207l156 -289h-154z" />
    <glyph glyph-name="aacute" unicode="&#xe1;" 
d="M991 696v-696h-147v127q-49 -77 -137.5 -117.5t-202.5 -40.5q-164 0 -260.5 70t-96.5 205q2 67 25.5 118t60 85.5t99 62t126 44.5t158.5 36l220 39v57q0 97 -66 151t-178 54q-90 0 -164 -38.5t-174 -133.5l-102 92q101 110 205.5 161.5t230.5 51.5q187 0 295 -90
t108 -238zM836 365v143l-183 -37q-117 -23 -194 -49q-156 -53 -156 -172q0 -72 56 -111t159 -39q138 0 228 74t90 191zM854 1475l-209 -289h-156l156 289h209z" />
    <glyph glyph-name="acircumflex" unicode="&#xe2;" 
d="M991 696v-696h-147v127q-49 -77 -137.5 -117.5t-202.5 -40.5q-164 0 -260.5 70t-96.5 205q2 67 25.5 118t60 85.5t99 62t126 44.5t158.5 36l220 39v57q0 97 -66 151t-178 54q-90 0 -164 -38.5t-174 -133.5l-102 92q101 110 205.5 161.5t230.5 51.5q187 0 295 -90
t108 -238zM836 365v143l-183 -37q-117 -23 -194 -49q-156 -53 -156 -172q0 -72 56 -111t159 -39q138 0 228 74t90 191zM768 1186l-168 194l-168 -194h-158l211 289h232l209 -289h-158z" />
    <glyph glyph-name="atilde" unicode="&#xe3;" 
d="M991 696v-696h-147v127q-49 -77 -137.5 -117.5t-202.5 -40.5q-164 0 -260.5 70t-96.5 205q2 67 25.5 118t60 85.5t99 62t126 44.5t158.5 36l220 39v57q0 97 -66 151t-178 54q-90 0 -164 -38.5t-174 -133.5l-102 92q101 110 205.5 161.5t230.5 51.5q187 0 295 -90
t108 -238zM836 365v143l-183 -37q-117 -23 -194 -49q-156 -53 -156 -172q0 -72 56 -111t159 -39q138 0 228 74t90 191zM639 1364q34 -24 54 -33.5t42 -9.5q68 0 68 104h119q0 -110 -48 -170.5t-133 -60.5q-72 0 -155 57q-71 45 -113 45q-36 0 -55 -27t-19 -75h-118
q0 110 49.5 170.5t140.5 60.5q46 0 81 -13.5t87 -47.5z" />
    <glyph glyph-name="adieresis" unicode="&#xe4;" 
d="M991 696v-696h-147v127q-49 -77 -137.5 -117.5t-202.5 -40.5q-164 0 -260.5 70t-96.5 205q2 67 25.5 118t60 85.5t99 62t126 44.5t158.5 36l220 39v57q0 97 -66 151t-178 54q-90 0 -164 -38.5t-174 -133.5l-102 92q101 110 205.5 161.5t230.5 51.5q187 0 295 -90
t108 -238zM836 365v143l-183 -37q-117 -23 -194 -49q-156 -53 -156 -172q0 -72 56 -111t159 -39q138 0 228 74t90 191zM494 1425v-211h-203v211h203zM909 1425v-211h-202v211h202z" />
    <glyph glyph-name="aring" unicode="&#xe5;" 
d="M991 696v-696h-147v127q-49 -77 -137.5 -117.5t-202.5 -40.5q-164 0 -260.5 70t-96.5 205q2 67 25.5 118t60 85.5t99 62t126 44.5t158.5 36l220 39v57q0 97 -66 151t-178 54q-90 0 -164 -38.5t-174 -133.5l-102 92q101 110 205.5 161.5t230.5 51.5q187 0 295 -90
t108 -238zM836 365v143l-183 -37q-117 -23 -194 -49q-156 -53 -156 -172q0 -72 56 -111t159 -39q138 0 228 74t90 191zM858 1389q0 -104 -74 -175q-72 -69 -184 -69t-184 69q-74 71 -74 175t74 173.5t184 69.5t184 -69.5t74 -173.5zM455 1389q0 -63 41 -103.5t104 -40.5
t104 40.5t41 103.5t-41 103t-104 40t-104 -40t-41 -103z" />
    <glyph glyph-name="ae" unicode="&#xe6;" 
d="M1085 238l80 -103q-82 -88 -154 -121.5t-163 -33.5q-192 0 -281 147q-126 -147 -272 -147q-117 0 -193.5 72t-76.5 198q0 122 70.5 189t238.5 124l155 51v88q0 179 -157 179q-60 0 -111.5 -26.5t-111.5 -86.5l-89 94q134 152 318 152q190 0 254 -129q78 125 227 125
q160 0 238 -109t78 -307q0 -38 -5 -125h-491q1 -173 57.5 -264.5t159.5 -91.5q58 0 105.5 26.5t123.5 98.5zM639 590h352q-2 150 -40 219.5t-128 69.5q-87 0 -135 -72t-49 -217zM516 242q-24 91 -27 243l-122 -41q-103 -34 -148 -74.5t-45 -109.5q0 -71 39 -109t102 -38
q99 0 201 129z" />
    <glyph glyph-name="ccedilla" unicode="&#xe7;" 
d="M692 -27l-55 -116q104 6 168.5 -41t64.5 -129q0 -88 -65 -144.5t-168 -56.5q-129 0 -238 80l54 88q65 -35 102.5 -48.5t79.5 -13.5q54 0 86.5 24.5t32.5 66.5q0 38 -33 61t-88 23q-35 0 -66 -7l-61 58l76 162q-192 25 -302 163t-110 353q0 237 134 381.5t355 144.5
q126 0 219.5 -43.5t186.5 -144.5l-104 -95q-83 83 -152.5 116.5t-151.5 33.5q-158 0 -241 -115q-82 -113 -82 -278q0 -105 35.5 -191t111.5 -141t181 -55q87 0 155.5 35.5t161.5 131.5l102 -90q-94 -110 -183.5 -159t-205.5 -54z" />
    <glyph glyph-name="egrave" unicode="&#xe8;" 
d="M987 289l94 -99q-116 -117 -223.5 -167t-236.5 -50q-225 0 -359 140q-131 140 -131 374q0 236 131.5 385.5t341.5 149.5q214 0 333.5 -127t119.5 -348q0 -28 -4 -74h-762q6 -167 91.5 -267t240.5 -100q96 0 177.5 41.5t186.5 141.5zM297 598h602q-6 132 -84.5 211.5
t-210.5 79.5q-125 0 -206 -75.5t-101 -215.5zM362 1475h207l156 -289h-154z" />
    <glyph glyph-name="eacute" unicode="&#xe9;" 
d="M987 289l94 -99q-116 -117 -223.5 -167t-236.5 -50q-225 0 -359 140q-131 140 -131 374q0 236 131.5 385.5t341.5 149.5q214 0 333.5 -127t119.5 -348q0 -28 -4 -74h-762q6 -167 91.5 -267t240.5 -100q96 0 177.5 41.5t186.5 141.5zM297 598h602q-6 132 -84.5 211.5
t-210.5 79.5q-125 0 -206 -75.5t-101 -215.5zM868 1475l-209 -289h-155l155 289h209z" />
    <glyph glyph-name="ecircumflex" unicode="&#xea;" 
d="M987 289l94 -99q-116 -117 -223.5 -167t-236.5 -50q-225 0 -359 140q-131 140 -131 374q0 236 131.5 385.5t341.5 149.5q214 0 333.5 -127t119.5 -348q0 -28 -4 -74h-762q6 -167 91.5 -267t240.5 -100q96 0 177.5 41.5t186.5 141.5zM297 598h602q-6 132 -84.5 211.5
t-210.5 79.5q-125 0 -206 -75.5t-101 -215.5zM782 1186l-168 194l-168 -194h-157l211 289h231l209 -289h-158z" />
    <glyph glyph-name="edieresis" unicode="&#xeb;" 
d="M987 289l94 -99q-116 -117 -223.5 -167t-236.5 -50q-225 0 -359 140q-131 140 -131 374q0 236 131.5 385.5t341.5 149.5q214 0 333.5 -127t119.5 -348q0 -28 -4 -74h-762q6 -167 91.5 -267t240.5 -100q96 0 177.5 41.5t186.5 141.5zM297 598h602q-6 132 -84.5 211.5
t-210.5 79.5q-125 0 -206 -75.5t-101 -215.5zM508 1425v-211h-203v211h203zM924 1425v-211h-203v211h203z" />
    <glyph glyph-name="igrave" unicode="&#xec;" 
d="M713 131h360v-131h-909v131h389v731h-317v131h477v-862zM360 1475h207l156 -289h-154z" />
    <glyph glyph-name="iacute" unicode="&#xed;" 
d="M713 131h360v-131h-909v131h389v731h-317v131h477v-862zM866 1475l-209 -289h-155l155 289h209z" />
    <glyph glyph-name="icircumflex" unicode="&#xee;" 
d="M713 131h360v-131h-909v131h389v731h-317v131h477v-862zM780 1186l-168 194l-168 -194h-157l211 289h231l209 -289h-158z" />
    <glyph glyph-name="idieresis" unicode="&#xef;" 
d="M713 131h360v-131h-909v131h389v731h-317v131h477v-862zM506 1425v-211h-203v211h203zM922 1425v-211h-203v211h203z" />
    <glyph glyph-name="eth" unicode="&#xf0;" 
d="M1049 561q0 -278 -124.5 -435t-349.5 -157q-139 0 -243 66t-155.5 172.5t-51.5 236.5q0 127 51.5 232.5t150 170t224.5 64.5q116 0 204 -51.5t138 -144.5q-19 129 -75 224t-159 169l-219 -137l-59 80l186 116q-90 47 -157 72l-97 39l62 121l86 -33q126 -44 239 -115
l162 101l56 -82l-132 -82q263 -213 263 -627zM874 440q0 141 -87.5 237.5t-219.5 96.5q-134 0 -207 -91.5t-73 -242.5q0 -149 77 -240t211 -91q136 0 218 94q81 93 81 237z" />
    <glyph glyph-name="ntilde" unicode="&#xf1;" 
d="M995 680v-680h-159v629q0 256 -213 256q-110 0 -182 -75.5t-72 -191.5v-618h-160v993h149v-135q47 79 125.5 120.5t178.5 41.5q161 0 247 -93.5t86 -246.5zM633 1364q34 -24 54 -33.5t42 -9.5q68 0 68 104h118q0 -110 -47.5 -170.5t-132.5 -60.5q-72 0 -155 57
q-71 45 -113 45q-36 0 -55 -27t-19 -75h-119q0 110 50 170.5t141 60.5q46 0 81 -13.5t87 -47.5z" />
    <glyph glyph-name="ograve" unicode="&#xf2;" 
d="M1071 496q0 -232 -132 -377.5t-345 -145.5q-212 0 -343.5 145.5t-131.5 377.5q0 234 131.5 380t343.5 146q213 0 345 -146t132 -380zM283 496q0 -179 83 -284.5t228 -105.5q146 0 229.5 105.5t83.5 284.5q0 180 -83.5 286.5t-229.5 106.5t-228.5 -106t-82.5 -287z
M342 1475h207l156 -289h-154z" />
    <glyph glyph-name="oacute" unicode="&#xf3;" 
d="M1071 496q0 -232 -132 -377.5t-345 -145.5q-212 0 -343.5 145.5t-131.5 377.5q0 234 131.5 380t343.5 146q213 0 345 -146t132 -380zM283 496q0 -179 83 -284.5t228 -105.5q146 0 229.5 105.5t83.5 284.5q0 180 -83.5 286.5t-229.5 106.5t-228.5 -106t-82.5 -287z
M848 1475l-209 -289h-156l156 289h209z" />
    <glyph glyph-name="ocircumflex" unicode="&#xf4;" 
d="M1071 496q0 -232 -132 -377.5t-345 -145.5q-212 0 -343.5 145.5t-131.5 377.5q0 234 131.5 380t343.5 146q213 0 345 -146t132 -380zM283 496q0 -179 83 -284.5t228 -105.5q146 0 229.5 105.5t83.5 284.5q0 180 -83.5 286.5t-229.5 106.5t-228.5 -106t-82.5 -287z
M762 1186l-168 194l-168 -194h-158l211 289h232l209 -289h-158z" />
    <glyph glyph-name="otilde" unicode="&#xf5;" 
d="M1071 496q0 -232 -132 -377.5t-345 -145.5q-212 0 -343.5 145.5t-131.5 377.5q0 234 131.5 380t343.5 146q213 0 345 -146t132 -380zM283 496q0 -179 83 -284.5t228 -105.5q146 0 229.5 105.5t83.5 284.5q0 180 -83.5 286.5t-229.5 106.5t-228.5 -106t-82.5 -287z
M633 1364q34 -24 54 -33.5t42 -9.5q68 0 68 104h118q0 -110 -47.5 -170.5t-132.5 -60.5q-72 0 -155 57q-71 45 -113 45q-36 0 -55 -27t-19 -75h-119q0 110 50 170.5t141 60.5q46 0 81 -13.5t87 -47.5z" />
    <glyph glyph-name="odieresis" unicode="&#xf6;" 
d="M1071 496q0 -232 -132 -377.5t-345 -145.5q-212 0 -343.5 145.5t-131.5 377.5q0 234 131.5 380t343.5 146q213 0 345 -146t132 -380zM283 496q0 -179 83 -284.5t228 -105.5q146 0 229.5 105.5t83.5 284.5q0 180 -83.5 286.5t-229.5 106.5t-228.5 -106t-82.5 -287z
M487 1425v-211h-202v211h202zM903 1425v-211h-203v211h203z" />
    <glyph glyph-name="divide" unicode="&#xf7;" 
d="M692 1030v-201h-190v201h190zM1092 659v-139h-992v139h992zM692 352v-200h-190v200h190z" />
    <glyph glyph-name="oslash" unicode="&#xf8;" 
d="M1071 496q0 -232 -132 -377.5t-345 -145.5q-139 0 -246 64l-72 -103l-94 66l76 109q-139 142 -139 387q0 234 131.5 380t343.5 146q139 0 254 -68l74 107l94 -68l-80 -112q135 -147 135 -385zM348 238l418 600q-71 51 -172 51q-146 0 -228.5 -106t-82.5 -287
q0 -155 65 -258zM907 496q0 156 -61 254l-416 -596q73 -48 164 -48q146 0 229.5 105.5t83.5 284.5z" />
    <glyph glyph-name="ugrave" unicode="&#xf9;" 
d="M819 993h160v-993h-150v135q-47 -79 -125 -120.5t-178 -41.5q-161 0 -247 93.5t-86 246.5v680h159v-628q0 -256 213 -256q110 0 182 75.5t72 190.5v618zM342 1475h207l156 -289h-154z" />
    <glyph glyph-name="uacute" unicode="&#xfa;" 
d="M819 993h160v-993h-150v135q-47 -79 -125 -120.5t-178 -41.5q-161 0 -247 93.5t-86 246.5v680h159v-628q0 -256 213 -256q110 0 182 75.5t72 190.5v618zM848 1475l-209 -289h-156l156 289h209z" />
    <glyph glyph-name="ucircumflex" unicode="&#xfb;" 
d="M819 993h160v-993h-150v135q-47 -79 -125 -120.5t-178 -41.5q-161 0 -247 93.5t-86 246.5v680h159v-628q0 -256 213 -256q110 0 182 75.5t72 190.5v618zM762 1186l-168 194l-168 -194h-158l211 289h232l209 -289h-158z" />
    <glyph glyph-name="udieresis" unicode="&#xfc;" 
d="M819 993h160v-993h-150v135q-47 -79 -125 -120.5t-178 -41.5q-161 0 -247 93.5t-86 246.5v680h159v-628q0 -256 213 -256q110 0 182 75.5t72 190.5v618zM487 1425v-211h-202v211h202zM903 1425v-211h-203v211h203z" />
    <glyph glyph-name="yacute" unicode="&#xfd;" 
d="M901 993h162l-418 -1120q-52 -137 -116.5 -191.5t-186.5 -54.5q-82 0 -162 17l25 133q67 -15 125 -15q70 0 107.5 31.5t72.5 122.5l8 25l-393 1052h168l303 -839zM848 1475l-209 -289h-156l156 289h209z" />
    <glyph glyph-name="thorn" unicode="&#xfe;" 
d="M1092 498q0 -234 -119 -378.5t-309 -144.5q-218 0 -326 164v-481h-160v1657h160v-467q108 172 326 172q189 0 308.5 -145.5t119.5 -376.5zM928 498q0 175 -77.5 280t-209.5 105q-139 0 -225 -104t-86 -281q0 -176 88 -281.5t223 -105.5q129 0 208 107t79 280z" />
    <glyph glyph-name="ydieresis" unicode="&#xff;" 
d="M901 993h162l-418 -1120q-52 -137 -116.5 -191.5t-186.5 -54.5q-82 0 -162 17l25 133q67 -15 125 -15q70 0 107.5 31.5t72.5 122.5l8 25l-393 1052h168l303 -839zM487 1425v-211h-202v211h202zM903 1425v-211h-203v211h203z" />
    <glyph glyph-name="Amacron" unicode="&#x100;" 
d="M958 0l-104 338h-522l-105 -338h-164l418 1315h226l417 -1315h-166zM375 477h436l-219 711zM891 1659v-137h-594v137h594z" />
    <glyph glyph-name="amacron" unicode="&#x101;" 
d="M991 696v-696h-147v127q-49 -77 -137.5 -117.5t-202.5 -40.5q-164 0 -260.5 70t-96.5 205q2 67 25.5 118t60 85.5t99 62t126 44.5t158.5 36l220 39v57q0 97 -66 151t-178 54q-90 0 -164 -38.5t-174 -133.5l-102 92q101 110 205.5 161.5t230.5 51.5q187 0 295 -90
t108 -238zM836 365v143l-183 -37q-117 -23 -194 -49q-156 -53 -156 -172q0 -72 56 -111t159 -39q138 0 228 74t90 191zM897 1376v-137h-594v137h594z" />
    <glyph glyph-name="Abreve" unicode="&#x102;" 
d="M958 0l-104 338h-522l-105 -338h-164l418 1315h226l417 -1315h-166zM375 477h436l-219 711zM289 1729h131q5 -69 50 -111.5t124 -42.5t125 42.5t51 111.5h131q0 -119 -86.5 -198t-220.5 -79q-132 0 -219 78q-86 80 -86 199z" />
    <glyph glyph-name="abreve" unicode="&#x103;" 
d="M991 696v-696h-147v127q-49 -77 -137.5 -117.5t-202.5 -40.5q-164 0 -260.5 70t-96.5 205q2 67 25.5 118t60 85.5t99 62t126 44.5t158.5 36l220 39v57q0 97 -66 151t-178 54q-90 0 -164 -38.5t-174 -133.5l-102 92q101 110 205.5 161.5t230.5 51.5q187 0 295 -90
t108 -238zM836 365v143l-183 -37q-117 -23 -194 -49q-156 -53 -156 -172q0 -72 56 -111t159 -39q138 0 228 74t90 191zM295 1446h131q5 -69 50 -111.5t124 -42.5t125 42.5t51 111.5h131q0 -119 -86.5 -198t-220.5 -79q-132 0 -219 78q-86 80 -86 199z" />
    <glyph glyph-name="Aogonek" unicode="&#x104;" 
d="M1059 -342q23 0 61 10v-125q-32 -14 -86 -14q-101 0 -161 51.5t-60 143.5q0 149 160 276h-15l-104 338h-522l-105 -338h-164l418 1315h226l417 -1315q-86 -50 -131 -113.5t-45 -128.5q0 -48 28.5 -74t82.5 -26zM375 477h436l-219 711z" />
    <glyph glyph-name="aogonek" unicode="&#x105;" 
d="M815 -242q0 -48 28.5 -74t82.5 -26q26 0 59 10v-125q-32 -14 -86 -14q-101 0 -160 51t-59 144q0 155 164 278v125q-49 -77 -137.5 -117.5t-202.5 -40.5q-164 0 -260.5 70t-96.5 205q2 67 25.5 118t60 85.5t99 62t126 44.5t158.5 36l220 39v57q0 97 -66 151t-178 54
q-90 0 -164 -38.5t-174 -133.5l-102 92q101 110 205.5 161.5t230.5 51.5q187 0 295 -90t108 -238v-696q-86 -50 -131 -113.5t-45 -128.5zM836 365v143l-183 -37q-117 -23 -194 -49q-156 -53 -156 -172q0 -72 56 -111t159 -39q138 0 228 74t90 191z" />
    <glyph glyph-name="Cacute" unicode="&#x106;" 
d="M1083 1167l-96 -118q-94 80 -172 112.5t-162 32.5q-179 0 -274 -147q-96 -149 -96 -392q0 -238 97.5 -388t262.5 -150q104 0 180 43q90 55 183 145l100 -117q-117 -117 -225 -168q-101 -49 -240 -49q-163 0 -283.5 88.5t-181.5 242.5t-61 353q0 202 60.5 355t183.5 241
t294 88q119 0 221 -40t209 -132zM920 1757l-209 -289h-156l156 289h209z" />
    <glyph glyph-name="cacute" unicode="&#x107;" 
d="M657 889q-158 0 -241 -115q-82 -113 -82 -278q0 -105 35.5 -191t111.5 -141t181 -55q87 0 155.5 35.5t161.5 131.5l102 -90q-97 -117 -192.5 -165t-224.5 -48q-227 0 -360.5 142.5t-133.5 380.5q0 237 134 381.5t355 144.5q126 0 219.5 -43.5t186.5 -144.5l-104 -95
q-83 83 -152.5 116.5t-151.5 33.5zM932 1475l-209 -289h-156l156 289h209z" />
    <glyph glyph-name="Cdotaccent" unicode="&#x10a;" 
d="M1083 1167l-96 -118q-94 80 -172 112.5t-162 32.5q-179 0 -274 -147q-96 -149 -96 -392q0 -238 97.5 -388t262.5 -150q104 0 180 43q90 55 183 145l100 -117q-117 -117 -225 -168q-101 -49 -240 -49q-163 0 -283.5 88.5t-181.5 242.5t-61 353q0 202 60.5 355t183.5 241
t294 88q119 0 221 -40t209 -132zM782 1708v-211h-229v211h229z" />
    <glyph glyph-name="cdotaccent" unicode="&#x10b;" 
d="M657 889q-158 0 -241 -115q-82 -113 -82 -278q0 -105 35.5 -191t111.5 -141t181 -55q87 0 155.5 35.5t161.5 131.5l102 -90q-97 -117 -192.5 -165t-224.5 -48q-227 0 -360.5 142.5t-133.5 380.5q0 237 134 381.5t355 144.5q126 0 219.5 -43.5t186.5 -144.5l-104 -95
q-83 83 -152.5 116.5t-151.5 33.5zM795 1425v-211h-230v211h230z" />
    <glyph glyph-name="Ccaron" unicode="&#x10c;" 
d="M1083 1167l-96 -118q-94 80 -172 112.5t-162 32.5q-179 0 -274 -147q-96 -149 -96 -392q0 -238 97.5 -388t262.5 -150q104 0 180 43q90 55 183 145l100 -117q-117 -117 -225 -168q-101 -49 -240 -49q-163 0 -283.5 88.5t-181.5 242.5t-61 353q0 202 60.5 355t183.5 241
t294 88q119 0 221 -40t209 -132zM834 1757h157l-209 -289h-231l-211 289h158l168 -194z" />
    <glyph glyph-name="ccaron" unicode="&#x10d;" 
d="M657 889q-158 0 -241 -115q-82 -113 -82 -278q0 -105 35.5 -191t111.5 -141t181 -55q87 0 155.5 35.5t161.5 131.5l102 -90q-97 -117 -192.5 -165t-224.5 -48q-227 0 -360.5 142.5t-133.5 380.5q0 237 134 381.5t355 144.5q126 0 219.5 -43.5t186.5 -144.5l-104 -95
q-83 83 -152.5 116.5t-151.5 33.5zM846 1475h158l-209 -289h-232l-211 289h158l168 -195z" />
    <glyph glyph-name="Dcaron" unicode="&#x10e;" 
d="M1098 655q0 -297 -133 -477q-132 -178 -396 -178h-385v1315h385q265 0 396 -180q133 -180 133 -480zM553 1176h-203v-1037h203q188 0 281.5 132.5t93.5 383.5q0 252 -94 386.5t-281 134.5zM762 1757h158l-209 -289h-232l-211 289h158l168 -194z" />
    <glyph glyph-name="dcaron" unicode="&#x10f;" 
d="M850 1372h160v-1372h-150v162q-108 -187 -336 -187q-190 0 -309 144.5t-119 376.5q0 231 121 376.5t311 145.5q220 0 322 -166v520zM858 496q0 176 -86.5 280.5t-224.5 104.5q-129 0 -208 -106.5t-79 -278.5q0 -175 77.5 -280t209.5 -105q137 0 224 104.5t87 280.5z
M1376 1372l-90 -377h-127l37 377h180z" />
    <glyph glyph-name="Dcroat" unicode="&#x110;" 
d="M1122 655q0 -297 -133 -477q-132 -178 -395 -178h-385v610h-180v135h180v570h385q264 0 395 -180q133 -180 133 -480zM952 655q0 252 -93.5 386.5t-280.5 134.5h-203v-431h299v-135h-299v-471h203q188 0 281 132.5t93 383.5z" />
    <glyph glyph-name="dslash" unicode="&#x111;" 
d="M1184 1229v-127h-172v-1102h-150v154q-105 -179 -334 -179q-189 0 -306.5 136t-117.5 356t121 357t310 137q214 0 317 -158v299h-262v127h262v143h160v-143h172zM858 467q0 164 -83.5 260t-221.5 96q-129 0 -207 -98t-78 -258q0 -162 76.5 -259t206.5 -97q137 0 222 96
t85 260z" />
    <glyph glyph-name="Emacron" unicode="&#x112;" 
d="M1034 1315v-139h-647v-428h598v-140h-598v-469h666v-139h-832v1315h813zM956 1659v-137h-594v137h594z" />
    <glyph glyph-name="emacron" unicode="&#x113;" 
d="M987 289l94 -99q-116 -117 -223.5 -167t-236.5 -50q-225 0 -359 140q-131 140 -131 374q0 236 131.5 385.5t341.5 149.5q214 0 333.5 -127t119.5 -348q0 -28 -4 -74h-762q6 -167 91.5 -267t240.5 -100q96 0 177.5 41.5t186.5 141.5zM297 598h602q-6 132 -84.5 211.5
t-210.5 79.5q-125 0 -206 -75.5t-101 -215.5zM911 1376v-137h-594v137h594z" />
    <glyph glyph-name="Edotaccent" unicode="&#x116;" 
d="M1034 1315v-139h-647v-428h598v-140h-598v-469h666v-139h-832v1315h813zM774 1708v-211h-229v211h229z" />
    <glyph glyph-name="edotaccent" unicode="&#x117;" 
d="M987 289l94 -99q-116 -117 -223.5 -167t-236.5 -50q-225 0 -359 140q-131 140 -131 374q0 236 131.5 385.5t341.5 149.5q214 0 333.5 -127t119.5 -348q0 -28 -4 -74h-762q6 -167 91.5 -267t240.5 -100q96 0 177.5 41.5t186.5 141.5zM297 598h602q-6 132 -84.5 211.5
t-210.5 79.5q-125 0 -206 -75.5t-101 -215.5zM729 1425v-211h-229v211h229z" />
    <glyph glyph-name="Eogonek" unicode="&#x118;" 
d="M877 -242q0 -48 28 -74t82 -26q27 0 60 10v-125q-32 -14 -84 -14q-101 0 -161.5 51.5t-60.5 143.5q0 152 160 276h-680v1315h813v-139h-647v-428h598v-140h-598v-469h666v-139q-86 -50 -131 -113.5t-45 -128.5z" />
    <glyph glyph-name="eogonek" unicode="&#x119;" 
d="M930 63q-103 -78 -148 -148.5t-45 -147.5q0 -54 33.5 -82.5t93.5 -28.5q27 0 60 10v-125q-32 -14 -84 -14q-110 0 -174 54t-64 151q0 135 113 248q-54 -7 -94 -7q-225 0 -359 140q-131 140 -131 374q0 236 131.5 385.5t341.5 149.5q214 0 333.5 -127t119.5 -348
q0 -28 -4 -74h-762q6 -167 91.5 -267t240.5 -100q96 0 177.5 41.5t186.5 141.5l94 -99q-77 -78 -151 -127zM297 598h602q-6 132 -84.5 211.5t-210.5 79.5q-125 0 -206 -75.5t-101 -215.5z" />
    <glyph glyph-name="Ecaron" unicode="&#x11a;" 
d="M1034 1315v-139h-647v-428h598v-140h-598v-469h666v-139h-832v1315h813zM827 1757h158l-209 -289h-231l-211 289h158l167 -194z" />
    <glyph glyph-name="ecaron" unicode="&#x11b;" 
d="M987 289l94 -99q-116 -117 -223.5 -167t-236.5 -50q-225 0 -359 140q-131 140 -131 374q0 236 131.5 385.5t341.5 149.5q214 0 333.5 -127t119.5 -348q0 -28 -4 -74h-762q6 -167 91.5 -267t240.5 -100q96 0 177.5 41.5t186.5 141.5zM297 598h602q-6 132 -84.5 211.5
t-210.5 79.5q-125 0 -206 -75.5t-101 -215.5zM782 1475h158l-209 -289h-231l-211 289h157l168 -195z" />
    <glyph glyph-name="Gbreve" unicode="&#x11e;" 
d="M592 547v141h489v-688h-123l-16 184q-105 -211 -342 -211q-247 0 -379 187q-131 186 -131 495t133 498q132 190 389 190q134 0 243.5 -52t227.5 -163l-100 -118q-110 104 -189.5 146t-185.5 42q-166 0 -258 -146t-92 -399q0 -251 92 -393.5t262 -142.5q146 0 231 109.5
t85 289.5v31h-336zM330 1729h131q5 -69 50 -111.5t124 -42.5t125 42.5t51 111.5h131q0 -119 -86.5 -198t-220.5 -79q-132 0 -219 78q-86 80 -86 199z" />
    <glyph glyph-name="gbreve" unicode="&#x11f;" 
d="M864 993h150v-958q0 -192 -119 -301t-326 -109q-232 0 -460 127l73 125q211 -117 389 -117q132 0 209.5 72.5t77.5 214.5v137q-100 -161 -317 -161q-194 0 -312 139t-118 360q0 220 120 360t310 140q221 0 323 -172v143zM860 522q0 163 -80.5 264t-214.5 101
q-135 0 -213 -99.5t-78 -265.5q0 -168 76.5 -266t214.5 -98q135 0 215 99.5t80 264.5zM293 1446h131q5 -69 50 -111.5t124 -42.5t125 42.5t51 111.5h131q0 -119 -86.5 -198t-220.5 -79q-132 0 -219 78q-86 80 -86 199z" />
    <glyph glyph-name="Gdotaccent" unicode="&#x120;" 
d="M592 547v141h489v-688h-123l-16 184q-105 -211 -342 -211q-247 0 -379 187q-131 186 -131 495t133 498q132 190 389 190q134 0 243.5 -52t227.5 -163l-100 -118q-110 104 -189.5 146t-185.5 42q-166 0 -258 -146t-92 -399q0 -251 92 -393.5t262 -142.5q146 0 231 109.5
t85 289.5v31h-336zM750 1708v-211h-230v211h230z" />
    <glyph glyph-name="gdotaccent" unicode="&#x121;" 
d="M864 993h150v-958q0 -192 -119 -301t-326 -109q-232 0 -460 127l73 125q211 -117 389 -117q132 0 209.5 72.5t77.5 214.5v137q-100 -161 -317 -161q-194 0 -312 139t-118 360q0 220 120 360t310 140q221 0 323 -172v143zM860 522q0 163 -80.5 264t-214.5 101
q-135 0 -213 -99.5t-78 -265.5q0 -168 76.5 -266t214.5 -98q135 0 215 99.5t80 264.5zM713 1425v-211h-230v211h230z" />
    <glyph glyph-name="uni0122" unicode="&#x122;" 
d="M592 547v141h489v-688h-123l-16 184q-105 -211 -342 -211q-247 0 -379 187q-131 186 -131 495t133 498q132 190 389 190q134 0 243.5 -52t227.5 -163l-100 -118q-110 104 -189.5 146t-185.5 42q-166 0 -258 -146t-92 -399q0 -251 92 -393.5t262 -142.5q146 0 231 109.5
t85 289.5v31h-336zM776 -166v-182l-117 -184h-102l105 184h-99v182h213z" />
    <glyph glyph-name="uni0123" unicode="&#x123;" 
d="M864 993h150v-958q0 -192 -119 -301t-326 -109q-232 0 -460 127l73 125q211 -117 389 -117q132 0 209.5 72.5t77.5 214.5v137q-100 -161 -317 -161q-194 0 -312 139t-118 360q0 220 120 360t310 140q221 0 323 -172v143zM860 522q0 163 -80.5 264t-214.5 101
q-135 0 -213 -99.5t-78 -265.5q0 -168 76.5 -266t214.5 -98q135 0 215 99.5t80 264.5zM485 1225v182l117 186h103l-105 -186h98v-182h-213z" />
    <glyph glyph-name="Hbar" unicode="&#x126;" 
d="M1130 1137v-125h-114v-1012h-166v608h-512v-608h-166v1012h-115v125h115v178h166v-178h512v178h166v-178h114zM850 748v264h-512v-264h512z" />
    <glyph glyph-name="hbar" unicode="&#x127;" 
d="M1006 623v-623h-160v571q0 254 -213 254q-110 0 -182 -74.5t-72 -189.5v-561h-160v1102h-172v127h172v143h160v-143h266v-127h-266v-285q96 146 293 146q161 0 247.5 -93.5t86.5 -246.5z" />
    <glyph glyph-name="Itilde" unicode="&#x128;" 
d="M1012 1184h-334v-1053h334v-131h-836v131h334v1053h-334v131h836v-131zM633 1647q34 -24 54 -33.5t42 -9.5q68 0 68 104h118q0 -110 -47.5 -170.5t-132.5 -60.5q-72 0 -155 57q-71 45 -113 45q-36 0 -55 -27t-19 -75h-119q0 110 50 170.5t141 60.5q46 0 81 -13.5
t87 -47.5z" />
    <glyph glyph-name="itilde" unicode="&#x129;" 
d="M713 131h360v-131h-909v131h389v731h-317v131h477v-862zM651 1364q60 -43 97 -43q36 0 51.5 25.5t15.5 78.5h119q0 -110 -47.5 -170.5t-132.5 -60.5q-73 0 -156 57q-71 45 -113 45q-73 0 -73 -102h-119q0 110 49.5 170.5t140.5 60.5q46 0 81 -13.5t87 -47.5z" />
    <glyph glyph-name="Imacron" unicode="&#x12a;" 
d="M1012 1184h-334v-1053h334v-131h-836v131h334v1053h-334v131h836v-131zM891 1659v-137h-594v137h594z" />
    <glyph glyph-name="imacron" unicode="&#x12b;" 
d="M713 131h360v-131h-909v131h389v731h-317v131h477v-862zM909 1376v-137h-594v137h594z" />
    <glyph glyph-name="Iogonek" unicode="&#x12e;" 
d="M1012 1184h-334v-1053h334v-131h-252q-86 -50 -131 -113.5t-45 -128.5q0 -48 28 -74t82 -26q27 0 60 10v-125q-32 -14 -86 -14q-101 0 -160 51t-59 144q0 153 159 276h-432v131h334v1053h-334v131h836v-131z" />
    <glyph glyph-name="iogonek" unicode="&#x12f;" 
d="M727 1425v-211h-229v211h229zM713 131h360v-131h-334q-86 -50 -131 -113.5t-45 -128.5q0 -48 28.5 -74t82.5 -26q19 0 61 10v-125q-32 -14 -86 -14q-101 0 -161 51.5t-60 143.5q0 149 160 276h-424v131h389v731h-317v131h477v-862z" />
    <glyph glyph-name="Idot" unicode="&#x130;" 
d="M1012 1184h-334v-1053h334v-131h-836v131h334v1053h-334v131h836v-131zM709 1708v-211h-230v211h230z" />
    <glyph glyph-name="dotlessi" unicode="&#x131;" 
d="M713 131h360v-131h-909v131h389v731h-317v131h477v-862z" />
    <glyph glyph-name="uni0136" unicode="&#x136;" 
d="M975 0l-443 676l-192 -201v-475h-166v1315h166v-633l596 633h207l-500 -522l520 -793h-188zM705 -166v-182l-117 -184h-103l105 184h-98v182h213z" />
    <glyph glyph-name="uni0137" unicode="&#x137;" 
d="M942 0l-369 492l-176 -175v-317h-159v1372h159v-880l498 501h197l-406 -401l442 -592h-186zM707 -166v-182l-117 -184h-103l105 184h-98v182h213z" />
    <glyph glyph-name="Lacute" unicode="&#x139;" 
d="M393 1315v-1174h682v-141h-850v1315h168zM600 1757l-209 -289h-155l155 289h209z" />
    <glyph glyph-name="lacute" unicode="&#x13a;" 
d="M1028 229l74 -108q-97 -71 -180 -106t-172 -35q-143 0 -219 74t-76 202v985h-318v131h477v-1089q0 -81 39 -123.5t111 -42.5q112 0 264 112zM758 1817l-209 -289h-156l156 289h209z" />
    <glyph glyph-name="uni013B" unicode="&#x13b;" 
d="M393 1315v-1174h682v-141h-850v1315h168zM764 -166v-182l-117 -184h-102l104 184h-98v182h213z" />
    <glyph glyph-name="uni013C" unicode="&#x13c;" 
d="M1028 229l74 -108q-97 -71 -180 -106t-172 -35q-143 0 -219 74t-76 202v985h-318v131h477v-1089q0 -81 39 -123.5t111 -42.5q112 0 264 112zM848 -166v-182l-117 -184h-102l104 184h-98v182h213z" />
    <glyph glyph-name="Lcaron" unicode="&#x13d;" 
d="M393 1315v-1174h682v-141h-850v1315h168zM762 1315l-90 -377h-127l37 377h180z" />
    <glyph glyph-name="lcaron" unicode="&#x13e;" 
d="M1028 229l74 -108q-97 -71 -180 -106t-172 -35q-143 0 -219 74t-76 202v985h-318v131h477v-1089q0 -81 39 -123.5t111 -42.5q112 0 264 112zM1006 1372l-91 -377h-127l37 377h181z" />
    <glyph glyph-name="Ldot" unicode="&#x13f;" 
d="M393 1315v-1174h682v-141h-850v1315h168zM948 846v-238h-254v238h254z" />
    <glyph glyph-name="ldot" unicode="&#x140;" 
d="M1028 229l74 -108q-97 -71 -180 -106t-172 -35q-143 0 -219 74t-76 202v985h-318v131h477v-1089q0 -81 39 -123.5t111 -42.5q112 0 264 112zM1217 842v-238h-254v238h254z" />
    <glyph glyph-name="Lslash" unicode="&#x141;" 
d="M477 141h682v-141h-848v508l-155 -86v149l155 86v658h166v-574l340 191v-150l-340 -190v-451z" />
    <glyph glyph-name="lslash" unicode="&#x142;" 
d="M1028 229l74 -108q-97 -71 -180 -106t-172 -35q-143 0 -219 74t-76 202v365l-316 -148v139l316 148v481h-318v131h477v-538l344 159v-139l-344 -160v-411q0 -81 39 -123.5t111 -42.5q112 0 264 112z" />
    <glyph glyph-name="Nacute" unicode="&#x143;" 
d="M858 1315h152v-1315h-174l-506 1065v-1065h-152v1315h174l506 -1061v1061zM848 1757l-209 -289h-156l156 289h209z" />
    <glyph glyph-name="nacute" unicode="&#x144;" 
d="M995 680v-680h-159v629q0 256 -213 256q-110 0 -182 -75.5t-72 -191.5v-618h-160v993h149v-135q47 79 125.5 120.5t178.5 41.5q161 0 247 -93.5t86 -246.5zM848 1475l-209 -289h-156l156 289h209z" />
    <glyph glyph-name="uni0145" unicode="&#x145;" 
d="M858 1315h152v-1315h-174l-506 1065v-1065h-152v1315h174l506 -1061v1061zM705 -166v-182l-117 -184h-103l105 184h-98v182h213z" />
    <glyph glyph-name="uni0146" unicode="&#x146;" 
d="M995 680v-680h-159v629q0 256 -213 256q-110 0 -182 -75.5t-72 -191.5v-618h-160v993h149v-135q47 79 125.5 120.5t178.5 41.5q161 0 247 -93.5t86 -246.5zM705 -166v-182l-117 -184h-103l105 184h-98v182h213z" />
    <glyph glyph-name="Ncaron" unicode="&#x147;" 
d="M858 1315h152v-1315h-174l-506 1065v-1065h-152v1315h174l506 -1061v1061zM762 1757h158l-209 -289h-232l-211 289h158l168 -194z" />
    <glyph glyph-name="ncaron" unicode="&#x148;" 
d="M995 680v-680h-159v629q0 256 -213 256q-110 0 -182 -75.5t-72 -191.5v-618h-160v993h149v-135q47 79 125.5 120.5t178.5 41.5q161 0 247 -93.5t86 -246.5zM762 1475h158l-209 -289h-232l-211 289h158l168 -195z" />
    <glyph glyph-name="Eng" unicode="&#x14a;" 
d="M858 1315h152v-1407q0 -144 -67.5 -220.5t-201.5 -76.5q-95 0 -190 31l33 133q86 -25 141 -25q66 0 96.5 40.5t30.5 125.5v84h-16l-506 1065v-1065h-152v1315h174l506 -1061v1061z" />
    <glyph glyph-name="eng" unicode="&#x14b;" 
d="M995 90h4v-158q0 -305 -280 -305q-93 0 -195 31l35 121q84 -19 143 -19q74 0 106 41t32 133v66h-4v629q0 256 -213 256q-110 0 -182 -75.5t-72 -191.5v-618h-160v993h149v-135q47 79 125.5 120.5t178.5 41.5q161 0 247 -93.5t86 -246.5v-590z" />
    <glyph glyph-name="Omacron" unicode="&#x14c;" 
d="M92 657q0 309 127 498q129 191 377 191q249 0 375 -191q127 -189 127 -498q0 -310 -127 -499t-375 -189q-247 0 -377 189q-127 189 -127 499zM930 657q0 256 -85 399.5t-249 143.5t-250 -144t-86 -399t86 -398.5t250 -143.5t249 143t85 399zM891 1659v-137h-594v137h594z
" />
    <glyph glyph-name="omacron" unicode="&#x14d;" 
d="M1071 496q0 -232 -132 -377.5t-345 -145.5q-212 0 -343.5 145.5t-131.5 377.5q0 234 131.5 380t343.5 146q213 0 345 -146t132 -380zM283 496q0 -179 83 -284.5t228 -105.5q146 0 229.5 105.5t83.5 284.5q0 180 -83.5 286.5t-229.5 106.5t-228.5 -106t-82.5 -287z
M891 1376v-137h-594v137h594z" />
    <glyph glyph-name="Ohungarumlaut" unicode="&#x150;" 
d="M92 657q0 309 127 498q129 191 377 191q249 0 375 -191q127 -189 127 -498q0 -310 -127 -499t-375 -189q-247 0 -377 189q-127 189 -127 499zM930 657q0 256 -85 399.5t-249 143.5t-250 -144t-86 -399t86 -398.5t250 -143.5t249 143t85 399zM674 1757l-191 -289h-149
l155 289h185zM1012 1757l-193 -289h-149l155 289h187z" />
    <glyph glyph-name="ohungarumlaut" unicode="&#x151;" 
d="M1071 496q0 -232 -132 -377.5t-345 -145.5q-212 0 -343.5 145.5t-131.5 377.5q0 234 131.5 380t343.5 146q213 0 345 -146t132 -380zM283 496q0 -179 83 -284.5t228 -105.5q146 0 229.5 105.5t83.5 284.5q0 180 -83.5 286.5t-229.5 106.5t-228.5 -106t-82.5 -287z
M674 1475l-191 -289h-149l155 289h185zM1012 1475l-193 -289h-149l155 289h187z" />
    <glyph glyph-name="OE" unicode="&#x152;" 
d="M778 139h379v-139h-534v74q-92 -92 -197 -92q-371 0 -371 673q0 674 371 674q110 0 197 -90v76h522v-139h-367v-435h330v-139h-330v-463zM623 209v895q-64 82 -174 82q-122 0 -177 -129t-55 -402t55 -400.5t177 -127.5q110 0 174 82z" />
    <glyph glyph-name="oe" unicode="&#x153;" 
d="M1124 236l80 -103q-77 -84 -154 -118.5t-171 -34.5q-182 0 -275 161q-76 -159 -254 -159q-158 0 -242.5 127.5t-84.5 386.5q0 261 84.5 389.5t242.5 128.5q180 0 256 -166q88 162 256 162q312 0 312 -420q0 -34 -5 -121h-491q5 -174 60 -265t159 -91q54 0 105.5 29
t121.5 94zM680 590h348q0 150 -39 219.5t-131 69.5q-84 0 -125.5 -69.5t-52.5 -219.5zM520 496q0 204 -41.5 292.5t-128.5 88.5t-129.5 -89.5t-42.5 -291.5t42.5 -291.5t129.5 -89.5t128.5 89t41.5 292z" />
    <glyph glyph-name="Racute" unicode="&#x154;" 
d="M938 0l-340 545h-252v-545h-168v1315h477q190 0 304 -104t114 -283q0 -148 -79 -244t-220 -127l350 -557h-186zM346 1176v-492h285q133 0 204.5 61.5t71.5 182.5t-72.5 184.5t-203.5 63.5h-285zM850 1757l-209 -289h-156l156 289h209z" />
    <glyph glyph-name="racute" unicode="&#x155;" 
d="M1098 932l-45 -133q-170 69 -308 69q-134 0 -238 -93.5t-104 -242.5v-532h-159v993h149v-186q55 93 151.5 148t215.5 55q156 0 338 -78zM926 1475l-209 -289h-156l156 289h209z" />
    <glyph glyph-name="uni0156" unicode="&#x156;" 
d="M938 0l-340 545h-252v-545h-168v1315h477q190 0 304 -104t114 -283q0 -148 -79 -244t-220 -127l350 -557h-186zM346 1176v-492h285q133 0 204.5 61.5t71.5 182.5t-72.5 184.5t-203.5 63.5h-285zM707 -166v-182l-117 -184h-103l105 184h-98v182h213z" />
    <glyph glyph-name="uni0157" unicode="&#x157;" 
d="M1098 932l-45 -133q-170 69 -308 69q-134 0 -238 -93.5t-104 -242.5v-532h-159v993h149v-186q55 93 151.5 148t215.5 55q156 0 338 -78zM432 -166v-182l-117 -184h-102l104 184h-98v182h213z" />
    <glyph glyph-name="Rcaron" unicode="&#x158;" 
d="M938 0l-340 545h-252v-545h-168v1315h477q190 0 304 -104t114 -283q0 -148 -79 -244t-220 -127l350 -557h-186zM346 1176v-492h285q133 0 204.5 61.5t71.5 182.5t-72.5 184.5t-203.5 63.5h-285zM764 1757h158l-209 -289h-232l-211 289h158l168 -194z" />
    <glyph glyph-name="rcaron" unicode="&#x159;" 
d="M1098 932l-45 -133q-170 69 -308 69q-134 0 -238 -93.5t-104 -242.5v-532h-159v993h149v-186q55 93 151.5 148t215.5 55q156 0 338 -78zM840 1475h157l-209 -289h-231l-211 289h158l168 -195z" />
    <glyph glyph-name="Sacute" unicode="&#x15a;" 
d="M1081 1149l-100 -119q-108 93 -198.5 130.5t-202.5 37.5q-135 0 -221.5 -62t-86.5 -157q0 -66 39 -105q39 -36 105.5 -58.5t228.5 -61.5q252 -58 351.5 -139t99.5 -238q0 -182 -135 -294t-351 -112q-163 0 -288 52q-124 52 -271 174l103 120q137 -117 241 -161
q103 -41 217 -41q141 0 229.5 68.5t88.5 183.5q-2 30 -7.5 53.5t-18 43.5t-26.5 35.5t-38.5 29t-48.5 23.5t-63.5 21.5t-75.5 20t-91 20.5q-263 62 -355.5 134.5t-96.5 226.5q0 162 136.5 264t334.5 102q149 0 264 -44.5t237 -147.5zM883 1757l-209 -289h-156l156 289h209z
" />
    <glyph glyph-name="sacute" unicode="&#x15b;" 
d="M1008 881l-88 -109q-95 71 -164 96t-162 25q-107 0 -171.5 -44.5t-64.5 -113.5q7 -64 58 -89.5t223 -61.5q207 -42 296 -110.5t89 -194.5q0 -141 -113 -226q-113 -84 -290 -84q-139 0 -245.5 41t-223.5 142l94 106q108 -89 192 -123.5t183 -34.5q110 0 177.5 46.5
t67.5 123.5q0 75 -65.5 112.5t-227.5 70.5q-212 44 -290 100t-78 176q0 131 108.5 214t278.5 83q126 0 221.5 -33t194.5 -112zM872 1475l-208 -289h-156l156 289h208z" />
    <glyph glyph-name="Scedilla" unicode="&#x15e;" 
d="M653 -27l-53 -116q106 6 171 -41t65 -129q0 -88 -66 -144.5t-170 -56.5q-123 0 -238 80l54 88q59 -34 100 -48t84 -14q54 0 86.5 24.5t32.5 66.5q0 38 -33 61t-88 23q-34 0 -66 -7l-61 58l74 155q-133 7 -248 60t-246 164l103 120q137 -117 241 -161q103 -41 217 -41
q141 0 229.5 68.5t88.5 183.5q-2 30 -7.5 53.5t-18 43.5t-26.5 35.5t-38.5 29t-48.5 23.5t-63.5 21.5t-75.5 20t-91 20.5q-263 62 -355.5 134.5t-96.5 226.5q0 162 136.5 264t334.5 102q149 0 264 -44.5t237 -147.5l-100 -119q-108 93 -198.5 130.5t-202.5 37.5
q-135 0 -221.5 -62t-86.5 -157q0 -66 39 -105q39 -36 105.5 -58.5t228.5 -61.5q252 -58 351.5 -139t99.5 -238q0 -173 -121 -285q-122 -110 -322 -119z" />
    <glyph glyph-name="scedilla" unicode="&#x15f;" 
d="M645 -31l-55 -119q104 6 168.5 -40.5t64.5 -128.5q0 -88 -65 -144.5t-168 -56.5q-125 0 -240 80l56 88q107 -62 182 -62q55 0 87 24t32 66q0 38 -33 61t-88 23q-39 0 -66 -6l-61 58l76 161q-105 11 -194.5 52.5t-188.5 126.5l94 106q108 -89 192 -123.5t183 -34.5
q110 0 177.5 46.5t67.5 123.5q0 75 -65.5 112.5t-227.5 70.5q-212 44 -290 100t-78 176q0 131 108.5 214t278.5 83q126 0 221.5 -33t194.5 -112l-88 -109q-95 71 -164 96t-162 25q-107 0 -171.5 -44.5t-64.5 -113.5q7 -64 58 -89.5t223 -61.5q207 -42 296 -110.5t89 -194.5
q0 -133 -104.5 -218.5t-274.5 -91.5z" />
    <glyph glyph-name="Scaron" unicode="&#x160;" 
d="M1081 1149l-100 -119q-108 93 -198.5 130.5t-202.5 37.5q-135 0 -221.5 -62t-86.5 -157q0 -66 39 -105q39 -36 105.5 -58.5t228.5 -61.5q252 -58 351.5 -139t99.5 -238q0 -182 -135 -294t-351 -112q-163 0 -288 52q-124 52 -271 174l103 120q137 -117 241 -161
q103 -41 217 -41q141 0 229.5 68.5t88.5 183.5q-2 30 -7.5 53.5t-18 43.5t-26.5 35.5t-38.5 29t-48.5 23.5t-63.5 21.5t-75.5 20t-91 20.5q-263 62 -355.5 134.5t-96.5 226.5q0 162 136.5 264t334.5 102q149 0 264 -44.5t237 -147.5zM797 1757h157l-209 -289h-231l-211 289
h158l168 -194z" />
    <glyph glyph-name="scaron" unicode="&#x161;" 
d="M1008 881l-88 -109q-95 71 -164 96t-162 25q-107 0 -171.5 -44.5t-64.5 -113.5q7 -64 58 -89.5t223 -61.5q207 -42 296 -110.5t89 -194.5q0 -141 -113 -226q-113 -84 -290 -84q-139 0 -245.5 41t-223.5 142l94 106q108 -89 192 -123.5t183 -34.5q110 0 177.5 46.5
t67.5 123.5q0 75 -65.5 112.5t-227.5 70.5q-212 44 -290 100t-78 176q0 131 108.5 214t278.5 83q126 0 221.5 -33t194.5 -112zM786 1475h158l-209 -289h-231l-211 289h158l167 -195z" />
    <glyph glyph-name="uni0162" unicode="&#x162;" 
d="M678 0h-27l-67 -143q106 6 170.5 -41t64.5 -129q0 -88 -65.5 -144.5t-169.5 -56.5q-123 0 -238 80l53 88q110 -62 185 -62q54 0 86 24.5t32 66.5q0 38 -32.5 61t-87.5 23q-34 0 -66 -7l-61 58l86 182h-31v1169h-430v146h1028v-146h-430v-1169z" />
    <glyph glyph-name="uni0163" unicode="&#x163;" 
d="M961 -317q0 -90 -64.5 -145.5t-169.5 -55.5q-123 0 -238 80l54 88q60 -34 98 -47t84 -13q55 0 88 23t33 65q0 38 -33.5 61t-89.5 23q-39 0 -66 -6l-61 60l82 172q-120 20 -182 88.5t-62 175.5v610h-366v131h366v355h160v-355h475v-131h-475v-581q0 -79 48 -120.5
t140 -41.5q95 0 269 71l45 -124q-169 -81 -310 -84l-59 -129q104 7 169 -40.5t65 -129.5z" />
    <glyph glyph-name="Tcaron" unicode="&#x164;" 
d="M1108 1315v-146h-430v-1169h-168v1169h-430v146h1028zM762 1757h158l-209 -289h-232l-211 289h158l168 -194z" />
    <glyph glyph-name="tcaron" unicode="&#x165;" 
d="M1051 190l45 -124q-80 -38 -167 -61t-155 -23q-167 0 -253.5 71.5t-86.5 198.5v610h-366v131h366v355h160v-355h475v-131h-475v-581q0 -79 48 -120.5t140 -41.5q95 0 269 71zM1014 1536l-90 -377h-127l37 377h180z" />
    <glyph glyph-name="Tbar" unicode="&#x166;" 
d="M1108 1169h-430v-407h268v-123h-268v-639h-168v639h-250v123h250v407h-430v146h1028v-146z" />
    <glyph glyph-name="tbar" unicode="&#x167;" 
d="M1051 190l45 -124q-80 -38 -167 -61t-155 -23q-167 0 -253.5 71.5t-86.5 198.5v201h-366v131h366v278h-366v131h366v355h160v-355h475v-131h-475v-278h475v-131h-475v-172q0 -79 48 -120.5t140 -41.5q95 0 269 71z" />
    <glyph glyph-name="Utilde" unicode="&#x168;" 
d="M1030 1315v-916q0 -210 -110.5 -319t-323.5 -109q-215 0 -325.5 109t-110.5 319v916h166v-905q0 -142 68.5 -216.5t201.5 -74.5t201.5 74.5t68.5 216.5v905h164zM635 1647q34 -24 54 -33.5t42 -9.5q68 0 68 104h119q0 -110 -48 -170.5t-133 -60.5q-72 0 -155 57
q-71 45 -113 45q-36 0 -55 -27t-19 -75h-119q0 110 50 170.5t141 60.5q46 0 81 -13.5t87 -47.5z" />
    <glyph glyph-name="utilde" unicode="&#x169;" 
d="M819 993h160v-993h-150v135q-47 -79 -125 -120.5t-178 -41.5q-161 0 -247 93.5t-86 246.5v680h159v-628q0 -256 213 -256q110 0 182 75.5t72 190.5v618zM633 1364q34 -24 54 -33.5t42 -9.5q68 0 68 104h118q0 -110 -47.5 -170.5t-132.5 -60.5q-72 0 -155 57
q-71 45 -113 45q-36 0 -55 -27t-19 -75h-119q0 110 50 170.5t141 60.5q46 0 81 -13.5t87 -47.5z" />
    <glyph glyph-name="Umacron" unicode="&#x16a;" 
d="M1030 1315v-916q0 -210 -110.5 -319t-323.5 -109q-215 0 -325.5 109t-110.5 319v916h166v-905q0 -142 68.5 -216.5t201.5 -74.5t201.5 74.5t68.5 216.5v905h164zM893 1659v-137h-594v137h594z" />
    <glyph glyph-name="umacron" unicode="&#x16b;" 
d="M819 993h160v-993h-150v135q-47 -79 -125 -120.5t-178 -41.5q-161 0 -247 93.5t-86 246.5v680h159v-628q0 -256 213 -256q110 0 182 75.5t72 190.5v618zM891 1376v-137h-594v137h594z" />
    <glyph glyph-name="Uring" unicode="&#x16e;" 
d="M1030 1315v-916q0 -210 -110.5 -319t-323.5 -109q-215 0 -325.5 109t-110.5 319v916h166v-905q0 -142 68.5 -216.5t201.5 -74.5t201.5 74.5t68.5 216.5v905h164zM854 1671q0 -103 -74 -174q-73 -70 -184 -70t-184 70q-74 71 -74 174q0 104 74 174t184 70t184 -70t74 -174
zM451 1671q0 -63 41 -103t104 -40t104 40t41 103t-41 103.5t-104 40.5t-104 -40.5t-41 -103.5z" />
    <glyph glyph-name="uring" unicode="&#x16f;" 
d="M819 993h160v-993h-150v135q-47 -79 -125 -120.5t-178 -41.5q-161 0 -247 93.5t-86 246.5v680h159v-628q0 -256 213 -256q110 0 182 75.5t72 190.5v618zM852 1389q0 -104 -74 -175q-72 -69 -184 -69t-184 69q-74 71 -74 175t74 173.5t184 69.5t184 -69.5t74 -173.5z
M449 1389q0 -63 41 -103.5t104 -40.5t104 40.5t41 103.5t-41 103t-104 40t-104 -40t-41 -103z" />
    <glyph glyph-name="Uhungarumlaut" unicode="&#x170;" 
d="M1030 1315v-916q0 -210 -110.5 -319t-323.5 -109q-215 0 -325.5 109t-110.5 319v916h166v-905q0 -142 68.5 -216.5t201.5 -74.5t201.5 74.5t68.5 216.5v905h164zM676 1757l-191 -289h-149l156 289h184zM1014 1757l-193 -289h-149l155 289h187z" />
    <glyph glyph-name="uhungarumlaut" unicode="&#x171;" 
d="M819 993h160v-993h-150v135q-47 -79 -125 -120.5t-178 -41.5q-161 0 -247 93.5t-86 246.5v680h159v-628q0 -256 213 -256q110 0 182 75.5t72 190.5v618zM674 1475l-191 -289h-149l155 289h185zM1012 1475l-193 -289h-149l155 289h187z" />
    <glyph glyph-name="Uogonek" unicode="&#x172;" 
d="M866 1315h164v-916q0 -253 -162 -360q-88 -70 -124.5 -134t-36.5 -138q0 -54 33.5 -82.5t93.5 -28.5q26 0 59 10v-125q-32 -14 -84 -14q-110 0 -174 54t-64 151q0 129 111 243q-70 -4 -86 -4q-215 0 -325.5 109t-110.5 319v916h166v-905q0 -142 68.5 -216.5t201.5 -74.5
t201.5 74.5t68.5 216.5v905z" />
    <glyph glyph-name="uogonek" unicode="&#x173;" 
d="M803 -242q0 -48 28 -74t82 -26q27 0 60 10v-125q-32 -14 -84 -14q-101 0 -161 51.5t-60 143.5q0 160 161 278v133q-47 -79 -125 -120.5t-178 -41.5q-161 0 -247 93.5t-86 246.5v680h159v-628q0 -256 213 -256q110 0 182 75.5t72 190.5v618h160v-993q-86 -50 -131 -113.5
t-45 -128.5z" />
    <glyph glyph-name="Wcircumflex" unicode="&#x174;" 
d="M967 1315h149l-131 -1315h-217l-174 911l-172 -911h-219l-131 1315h153l113 -1174l180 949h152l184 -963zM762 1468l-168 195l-168 -195h-158l211 289h232l209 -289h-158z" />
    <glyph glyph-name="wcircumflex" unicode="&#x175;" 
d="M983 993h141l-166 -993h-206l-170 807l-166 -807h-205l-166 993h143l144 -889l180 889h145l183 -895zM764 1186l-168 194l-168 -194h-158l211 289h232l209 -289h-158z" />
    <glyph glyph-name="Ycircumflex" unicode="&#x176;" 
d="M942 1315h184l-452 -754v-561h-168v563l-443 752h185l346 -598zM762 1468l-168 195l-168 -195h-158l211 289h232l209 -289h-158z" />
    <glyph glyph-name="ycircumflex" unicode="&#x177;" 
d="M901 993h162l-418 -1120q-52 -137 -116.5 -191.5t-186.5 -54.5q-82 0 -162 17l25 133q67 -15 125 -15q70 0 107.5 31.5t72.5 122.5l8 25l-393 1052h168l303 -839zM762 1186l-168 194l-168 -194h-158l211 289h232l209 -289h-158z" />
    <glyph glyph-name="Ydieresis" unicode="&#x178;" 
d="M942 1315h184l-452 -754v-561h-168v563l-443 752h185l346 -598zM487 1708v-211h-202v211h202zM903 1708v-211h-203v211h203z" />
    <glyph glyph-name="Zacute" unicode="&#x179;" 
d="M1077 1315v-135l-778 -1041h776v-139h-962v133l776 1043h-739v139h927zM850 1757l-209 -289h-156l156 289h209z" />
    <glyph glyph-name="zacute" unicode="&#x17a;" 
d="M1010 993v-119l-637 -741h637v-133h-832v119l635 741h-608v133h805zM866 1475l-209 -289h-155l155 289h209z" />
    <glyph glyph-name="Zdotaccent" unicode="&#x17b;" 
d="M1077 1315v-135l-778 -1041h776v-139h-962v133l776 1043h-739v139h927zM711 1708v-211h-230v211h230z" />
    <glyph glyph-name="zdotaccent" unicode="&#x17c;" 
d="M1010 993v-119l-637 -741h637v-133h-832v119l635 741h-608v133h805zM727 1425v-211h-229v211h229z" />
    <glyph glyph-name="Zcaron" unicode="&#x17d;" 
d="M1077 1315v-135l-778 -1041h776v-139h-962v133l776 1043h-739v139h927zM764 1757h158l-209 -289h-232l-211 289h158l168 -194z" />
    <glyph glyph-name="zcaron" unicode="&#x17e;" 
d="M1010 993v-119l-637 -741h637v-133h-832v119l635 741h-608v133h805zM780 1475h158l-209 -289h-231l-211 289h157l168 -195z" />
    <glyph glyph-name="florin" unicode="&#x192;" 
d="M664 1067v-102h370v-131h-370v-893q0 -145 -92.5 -230.5t-245.5 -85.5q-101 0 -234 39l37 127q103 -33 190 -33q185 0 185 205v871h-305v131h305v125q0 145 92.5 230t245.5 85q65 0 145.5 -18t145.5 -44l-35 -124q-137 53 -248 53q-186 0 -186 -205z" />
    <glyph glyph-name="Ohorn" unicode="&#x1a0;" 
d="M1098 657q0 -310 -127 -499t-375 -189q-247 0 -377 189q-127 189 -127 499q0 309 127 498q129 191 377 191q97 0 176 -31h41q73 0 97 32t24 140h147q0 -140 -32.5 -202t-116.5 -81q81 -90 123.5 -231t42.5 -316zM930 657q0 256 -85 399.5t-249 143.5t-250 -144t-86 -399
t86 -398.5t250 -143.5t249 143t85 399z" />
    <glyph glyph-name="ohorn" unicode="&#x1a1;" 
d="M940 877q131 -143 131 -381q0 -232 -132 -377.5t-345 -145.5q-212 0 -343.5 145.5t-131.5 377.5q0 234 131.5 380t343.5 146q83 0 172 -29h90q73 0 97 32t24 140h147q0 -153 -38.5 -214.5t-145.5 -73.5zM907 496q0 180 -83.5 286.5t-229.5 106.5t-228.5 -106t-82.5 -287
q0 -179 83 -284.5t228 -105.5q146 0 229.5 105.5t83.5 284.5z" />
    <glyph glyph-name="Uhorn" unicode="&#x1af;" 
d="M1030 1196v-797q0 -210 -110.5 -319t-323.5 -109q-215 0 -325.5 109t-110.5 319v916h166v-905q0 -142 68.5 -216.5t201.5 -74.5t201.5 74.5t68.5 216.5v905h113q73 0 96 31.5t23 140.5h149q0 -162 -45 -223.5t-172 -67.5z" />
    <glyph glyph-name="uhorn" unicode="&#x1b0;" 
d="M979 877v-877h-150v135q-47 -79 -125 -120.5t-178 -41.5q-161 0 -247 93.5t-86 246.5v680h159v-628q0 -256 213 -256q110 0 182 75.5t72 190.5v610l-2 8h103q72 0 96 32t24 140h148q0 -162 -42.5 -222t-166.5 -66z" />
    <glyph glyph-name="uni0218" unicode="&#x218;" 
d="M1081 1149l-100 -119q-108 93 -198.5 130.5t-202.5 37.5q-135 0 -221.5 -62t-86.5 -157q0 -66 39 -105q39 -36 105.5 -58.5t228.5 -61.5q252 -58 351.5 -139t99.5 -238q0 -182 -135 -294t-351 -112q-163 0 -288 52q-124 52 -271 174l103 120q137 -117 241 -161
q103 -41 217 -41q141 0 229.5 68.5t88.5 183.5q-2 30 -7.5 53.5t-18 43.5t-26.5 35.5t-38.5 29t-48.5 23.5t-63.5 21.5t-75.5 20t-91 20.5q-263 62 -355.5 134.5t-96.5 226.5q0 162 136.5 264t334.5 102q149 0 264 -44.5t237 -147.5zM721 -166v-182l-117 -184h-102l104 184
h-98v182h213z" />
    <glyph glyph-name="uni0219" unicode="&#x219;" 
d="M1008 881l-88 -109q-95 71 -164 96t-162 25q-107 0 -171.5 -44.5t-64.5 -113.5q7 -64 58 -89.5t223 -61.5q207 -42 296 -110.5t89 -194.5q0 -141 -113 -226q-113 -84 -290 -84q-139 0 -245.5 41t-223.5 142l94 106q108 -89 192 -123.5t183 -34.5q110 0 177.5 46.5
t67.5 123.5q0 75 -65.5 112.5t-227.5 70.5q-212 44 -290 100t-78 176q0 131 108.5 214t278.5 83q126 0 221.5 -33t194.5 -112zM709 -172v-182l-117 -185h-103l105 185h-98v182h213z" />
    <glyph glyph-name="uni021A" unicode="&#x21a;" 
d="M1108 1315v-146h-430v-1169h-168v1169h-430v146h1028zM705 -166v-182l-117 -184h-103l105 184h-98v182h213z" />
    <glyph glyph-name="uni021B" unicode="&#x21b;" 
d="M1051 190l45 -124q-80 -38 -167 -61t-155 -23q-167 0 -253.5 71.5t-86.5 198.5v610h-366v131h366v355h160v-355h475v-131h-475v-581q0 -79 48 -120.5t140 -41.5q95 0 269 71zM848 -170v-182l-117 -185h-102l104 185h-98v182h213z" />
    <glyph glyph-name="uni0237" unicode="&#x237;" 
d="M756 993v-1052q0 -144 -94 -230t-259 -86q-133 0 -272 43l35 129q116 -39 229 -39q104 0 152.5 50t48.5 153v901h-324v131h484z" />
    <glyph glyph-name="circumflex" unicode="&#x2c6;" 
d="M707 1186l-168 194l-168 -194h-158l211 289h231l209 -289h-157z" />
    <glyph glyph-name="caron" unicode="&#x2c7;" 
d="M692 1475h158l-209 -289h-231l-211 289h157l168 -195z" />
    <glyph glyph-name="breve" unicode="&#x2d8;" 
d="M199 1446h131q5 -69 50 -111.5t124 -42.5t125 42.5t51 111.5h131q0 -119 -86.5 -198t-220.5 -79q-132 0 -219 78q-86 80 -86 199z" />
    <glyph glyph-name="dotaccent" unicode="&#x2d9;" 
d="M709 1425v-211h-230v211h230z" />
    <glyph glyph-name="ring" unicode="&#x2da;" 
d="M756 1389q0 -104 -74 -175q-72 -69 -184 -69q-113 0 -185 69q-73 70 -73 175q0 104 74 173.5t184 69.5t184 -69.5t74 -173.5zM352 1389q0 -63 41.5 -103.5t104.5 -40.5t104 40.5t41 103.5t-41 103t-104 40t-104.5 -40t-41.5 -103z" />
    <glyph glyph-name="ogonek" unicode="&#x2db;" 
d="M520 45l84 -45q-86 -50 -131 -113.5t-45 -128.5q0 -48 28.5 -74t82.5 -26q26 0 59 10v-125q-32 -14 -86 -14q-101 0 -160 51t-59 144q0 187 227 321z" />
    <glyph glyph-name="tilde" unicode="&#x2dc;" 
d="M535 1364q34 -24 54 -33.5t42 -9.5q36 0 51.5 25.5t15.5 78.5h119q0 -110 -47.5 -170.5t-132.5 -60.5q-73 0 -156 57q-71 45 -112 45q-36 0 -55 -27t-19 -75h-119q0 110 50 170.5t141 60.5q46 0 81 -13.5t87 -47.5z" />
    <glyph glyph-name="hungarumlaut" unicode="&#x2dd;" 
d="M592 1475l-191 -289h-149l156 289h184zM930 1475l-193 -289h-149l155 289h187z" />
    <glyph glyph-name="gravecomb" unicode="&#x300;" horiz-adv-x="0" 
d="M-786 1475h206l156 -289h-154z" />
    <glyph glyph-name="acutecomb" unicode="&#x301;" horiz-adv-x="0" 
d="M-426 1475l-209 -289h-156l156 289h209z" />
    <glyph glyph-name="uni0302" unicode="&#x302;" horiz-adv-x="0" 
d="M-426 1186l-168 194l-168 -194h-158l211 289h232l209 -289h-158z" />
    <glyph glyph-name="tildecomb" unicode="&#x303;" horiz-adv-x="0" 
d="M-555 1364q34 -24 54 -33.5t42 -9.5q68 0 68 104h119q0 -110 -48 -170.5t-133 -60.5q-72 0 -155 57q-71 45 -113 45q-36 0 -55 -27t-19 -75h-118q0 110 49.5 170.5t140.5 60.5q46 0 81 -13.5t87 -47.5z" />
    <glyph glyph-name="uni0304" unicode="&#x304;" horiz-adv-x="0" 
d="M-297 1376v-137h-594v137h594z" />
    <glyph glyph-name="uni0306" unicode="&#x306;" horiz-adv-x="0" 
d="M-899 1446h131q5 -69 50 -111.5t124 -42.5t125 42.5t51 111.5h131q0 -119 -86.5 -198t-220.5 -79q-132 0 -219 78q-86 80 -86 199z" />
    <glyph glyph-name="uni0307" unicode="&#x307;" horiz-adv-x="0" 
d="M-479 1425v-211h-230v211h230z" />
    <glyph glyph-name="uni0308" unicode="&#x308;" horiz-adv-x="0" 
d="M-700 1425v-211h-203v211h203zM-285 1425v-211h-202v211h202z" />
    <glyph glyph-name="hookabovecomb" unicode="&#x309;" horiz-adv-x="0" 
d="M-614 1534q99 0 153.5 -41.5t54.5 -118.5q0 -72 -54.5 -132.5t-145.5 -96.5l-68 80q137 60 137 133q0 67 -102 67q-63 0 -119 -20l-20 104q67 25 164 25z" />
    <glyph glyph-name="uni030A" unicode="&#x30a;" horiz-adv-x="0" 
d="M-336 1389q0 -104 -74 -175q-72 -69 -184 -69t-184 69q-74 71 -74 175t74 173.5t184 69.5t184 -69.5t74 -173.5zM-739 1389q0 -63 41 -103.5t104 -40.5t104 40.5t41 103.5t-41 103t-104 40t-104 -40t-41 -103z" />
    <glyph glyph-name="uni030B" unicode="&#x30b;" horiz-adv-x="0" 
d="M-512 1475l-190 -289h-150l156 289h184zM-174 1475l-193 -289h-149l156 289h186z" />
    <glyph glyph-name="uni030C" unicode="&#x30c;" horiz-adv-x="0" 
d="M-426 1475h158l-209 -289h-232l-211 289h158l168 -195z" />
    <glyph glyph-name="uni031B" unicode="&#x31b;" horiz-adv-x="0" 
d="M-733 874l-33 119h102q73 0 97 32t24 140h148q0 -172 -50.5 -231.5t-199.5 -59.5h-88z" />
    <glyph glyph-name="dotbelowcomb" unicode="&#x323;" horiz-adv-x="0" 
d="M-479 -213v-207h-230v207h230z" />
    <glyph glyph-name="uni0326" unicode="&#x326;" horiz-adv-x="0" 
d="M-481 -166v-182l-117 -184h-102l104 184h-98v182h213z" />
    <glyph glyph-name="uni0327" unicode="&#x327;" horiz-adv-x="0" 
d="M-373 -313q0 -88 -65 -144.5t-168 -56.5q-129 0 -238 80l53 88q65 -35 103 -48.5t80 -13.5q54 0 86.5 24.5t32.5 66.5q0 38 -33 61t-88 23q-34 0 -66 -7l-61 58l108 231l92 -43l-69 -149q104 6 168.5 -41t64.5 -129z" />
    <glyph glyph-name="uni0328" unicode="&#x328;" horiz-adv-x="0" 
d="M-520 45l84 -45q-86 -50 -131 -113.5t-45 -128.5q0 -48 28 -74t82 -26q27 0 60 10v-125q-32 -14 -86 -14q-101 0 -160.5 51.5t-59.5 143.5q0 186 228 321z" />
    <glyph glyph-name="uni037E" unicode="&#x37e;" 
d="M520 238h260v-232l-149 -299h-121l127 293h-117v238zM778 1030v-237h-254v237h254z" />
    <glyph glyph-name="tonos" unicode="&#x384;" 
d="M782 1475l-131 -289h-151l84 289h198z" />
    <glyph glyph-name="dieresistonos" unicode="&#x385;" 
d="M756 1503l-133 -289h-152l86 289h199zM401 1421v-207h-190v207h190zM979 1421v-207h-191v207h191z" />
    <glyph glyph-name="Alphatonos" unicode="&#x386;" 
d="M958 0l-104 338h-522l-105 -338h-164l418 1315h226l417 -1315h-166zM375 477h436l-219 711zM311 1315l-114 -338h-140l88 338h166z" />
    <glyph glyph-name="anoteleia" unicode="&#x387;" 
d="M723 768v-238h-254v238h254z" />
    <glyph glyph-name="Epsilontonos" unicode="&#x388;" 
d="M1034 1315v-139h-647v-428h598v-140h-598v-469h666v-139h-832v1315h813zM115 1315l-115 -338h-139l88 338h166z" />
    <glyph glyph-name="Etatonos" unicode="&#x389;" 
d="M1016 1315v-1315h-166v608h-512v-608h-166v1315h166v-567h512v567h166zM41 1315l-115 -338h-139l88 338h166z" />
    <glyph glyph-name="Iotatonos" unicode="&#x38a;" 
d="M1012 1184h-334v-1053h334v-131h-836v131h334v1053h-334v131h836v-131zM82 1315l-115 -338h-139l88 338h166z" />
    <glyph glyph-name="Omicrontonos" unicode="&#x38c;" 
d="M92 657q0 309 127 498q129 191 377 191q249 0 375 -191q127 -189 127 -498q0 -310 -127 -499t-375 -189q-247 0 -377 189q-127 189 -127 499zM930 657q0 256 -85 399.5t-249 143.5t-250 -144t-86 -399t86 -398.5t250 -143.5t249 143t85 399zM115 1315l-115 -338h-139
l88 338h166z" />
    <glyph glyph-name="Upsilontonos" unicode="&#x38e;" 
d="M942 1315h184l-452 -754v-561h-168v563l-443 752h185l346 -598zM12 1315l-114 -338h-140l88 338h166z" />
    <glyph glyph-name="Omegatonos" unicode="&#x38f;" 
d="M877 139h219v-139h-400v141q110 72 168 219.5t58 341.5q0 233 -82.5 363.5t-243.5 130.5t-243.5 -130.5t-82.5 -363.5q0 -195 57 -342t167 -219v-141h-398v139h219q-97 87 -155 239t-58 324q0 289 125 463q126 176 369 176t369 -176q125 -174 125 -463q0 -170 -60 -327
q-61 -155 -153 -236zM119 1315l-115 -338h-139l88 338h166z" />
    <glyph glyph-name="iotadieresistonos" unicode="&#x390;" 
d="M713 131h360v-131h-909v131h389v731h-317v131h477v-862zM770 1503l-133 -289h-152l86 289h199zM416 1421v-207h-191v207h191zM993 1421v-207h-190v207h190z" />
    <glyph glyph-name="Alpha" unicode="&#x391;" 
d="M958 0l-104 338h-522l-105 -338h-164l418 1315h226l417 -1315h-166zM375 477h436l-219 711z" />
    <glyph glyph-name="Beta" unicode="&#x392;" 
d="M1087 369q0 -168 -106.5 -268.5t-284.5 -100.5h-522v1315h496q168 0 272.5 -88.5t104.5 -243.5q0 -104 -54.5 -180t-146.5 -109q114 -36 177.5 -119t63.5 -206zM340 1180v-422h311q110 0 170 56t60 159q0 98 -61.5 152.5t-170.5 54.5h-309zM920 375q0 113 -73.5 179.5
t-201.5 66.5h-305v-486h322q127 0 192.5 63t65.5 177z" />
    <glyph glyph-name="Gamma" unicode="&#x393;" 
d="M1053 1176h-645v-1176h-168v1315h813v-139z" />
    <glyph glyph-name="uni0394" unicode="&#x394;" 
d="M705 1315l432 -1315h-1082l432 1315h218zM266 139h656l-330 1030z" />
    <glyph glyph-name="Epsilon" unicode="&#x395;" 
d="M1034 1315v-139h-647v-428h598v-140h-598v-469h666v-139h-832v1315h813z" />
    <glyph glyph-name="Zeta" unicode="&#x396;" 
d="M1077 1315v-135l-778 -1041h776v-139h-962v133l776 1043h-739v139h927z" />
    <glyph glyph-name="Eta" unicode="&#x397;" 
d="M1016 1315v-1315h-166v608h-512v-608h-166v1315h166v-567h512v567h166z" />
    <glyph glyph-name="Theta" unicode="&#x398;" 
d="M92 657q0 309 127 498q129 191 377 191q249 0 375 -191q127 -189 127 -498q0 -310 -127 -499t-375 -189q-247 0 -377 189q-127 189 -127 499zM930 657q0 256 -85 399.5t-249 143.5t-250 -144t-86 -399t86 -398.5t250 -143.5t249 143t85 399zM367 729h458v-139h-458v139z
" />
    <glyph glyph-name="Iota" unicode="&#x399;" 
d="M1012 1184h-334v-1053h334v-131h-836v131h334v1053h-334v131h836v-131z" />
    <glyph glyph-name="Kappa" unicode="&#x39a;" 
d="M975 0l-443 676l-192 -201v-475h-166v1315h166v-633l596 633h207l-500 -522l520 -793h-188z" />
    <glyph glyph-name="Lambda" unicode="&#x39b;" 
d="M1137 0h-170l-375 1155l-371 -1155h-166l432 1315h218z" />
    <glyph glyph-name="Mu" unicode="&#x39c;" 
d="M801 1315h237v-1315h-151v1196l-225 -920h-140l-225 920v-1196h-147v1315h235l207 -883z" />
    <glyph glyph-name="Nu" unicode="&#x39d;" 
d="M858 1315h152v-1315h-174l-506 1065v-1065h-152v1315h174l506 -1061v1061z" />
    <glyph glyph-name="Xi" unicode="&#x39e;" 
d="M174 1165v150h838v-150h-838zM238 604v150h712v-150h-712zM160 0v150h868v-150h-868z" />
    <glyph glyph-name="Omicron" unicode="&#x39f;" 
d="M92 657q0 309 127 498q129 191 377 191q249 0 375 -191q127 -189 127 -498q0 -310 -127 -499t-375 -189q-247 0 -377 189q-127 189 -127 499zM930 657q0 256 -85 399.5t-249 143.5t-250 -144t-86 -399t86 -398.5t250 -143.5t249 143t85 399z" />
    <glyph glyph-name="Pi" unicode="&#x3a0;" 
d="M1020 0h-166v1176h-516v-1176h-168v1315h850v-1315z" />
    <glyph glyph-name="Rho" unicode="&#x3a1;" 
d="M1092 924q0 -181 -113.5 -285t-304.5 -104h-326v-535h-166v1315h492q191 0 304.5 -104.5t113.5 -286.5zM924 924q0 122 -72.5 187t-202.5 65h-301v-502h301q131 0 203 64t72 186z" />
    <glyph glyph-name="Sigma" unicode="&#x3a3;" 
d="M362 139h666v-139h-860v133l430 539l-416 493v150h834v-139h-643l422 -500z" />
    <glyph glyph-name="Tau" unicode="&#x3a4;" 
d="M1108 1315v-146h-430v-1169h-168v1169h-430v146h1028z" />
    <glyph glyph-name="Upsilon" unicode="&#x3a5;" 
d="M942 1315h184l-452 -754v-561h-168v563l-443 752h185l346 -598z" />
    <glyph glyph-name="Phi" unicode="&#x3a6;" horiz-adv-x="1185" 
d="M676 113v-156h-162v156q-223 12 -350 166.5t-127 388.5q0 231 127 385t350 166v139h162v-139q220 -15 347.5 -168t127.5 -383q0 -232 -127.5 -386t-347.5 -169zM518 244v846q-150 -18 -234.5 -133t-84.5 -289q0 -176 84.5 -291t234.5 -133zM991 668q0 173 -85.5 288.5
t-235.5 133.5v-846q150 18 235.5 134t85.5 290z" />
    <glyph glyph-name="Chi" unicode="&#x3a7;" 
d="M1151 0h-188l-369 571l-369 -571h-186l455 690l-414 625h188l330 -510l328 510h186l-414 -625z" />
    <glyph glyph-name="Psi" unicode="&#x3a8;" 
d="M915 1315h158v-574q0 -202 -104.5 -323.5t-296.5 -128.5v-289h-154v289q-192 7 -296.5 128.5t-104.5 323.5v574h155v-570q0 -141 63 -224t183 -93v887h154v-887q120 10 181.5 92t61.5 225v570z" />
    <glyph glyph-name="uni03A9" unicode="&#x3a9;" 
d="M877 139h219v-139h-400v141q110 72 168 219.5t58 341.5q0 233 -82.5 363.5t-243.5 130.5t-243.5 -130.5t-82.5 -363.5q0 -195 57 -342t167 -219v-141h-398v139h219q-97 87 -155 239t-58 324q0 289 125 463q126 176 369 176t369 -176q125 -174 125 -463q0 -170 -60 -327
q-61 -155 -153 -236z" />
    <glyph glyph-name="Iotadieresis" unicode="&#x3aa;" 
d="M1012 1184h-334v-1053h334v-131h-836v131h334v1053h-334v131h836v-131zM487 1708v-211h-202v211h202zM903 1708v-211h-203v211h203z" />
    <glyph glyph-name="Upsilondieresis" unicode="&#x3ab;" 
d="M942 1315h184l-452 -754v-561h-168v563l-443 752h185l346 -598zM487 1747v-211h-202v211h202zM903 1747v-211h-203v211h203z" />
    <glyph glyph-name="alphatonos" unicode="&#x3ac;" 
d="M866 993h152v-993h-152v156q-102 -181 -329 -181q-183 0 -303.5 146t-120.5 377t120 375.5t304 144.5q227 0 329 -178v153zM864 498q0 176 -84 280.5t-219 104.5q-127 0 -204.5 -106.5t-77.5 -278.5q0 -174 77 -280.5t205 -106.5q135 0 219 105t84 282zM780 1475
l-131 -289h-151l84 289h198z" />
    <glyph glyph-name="epsilontonos" unicode="&#x3ad;" 
d="M961 248l90 -105q-98 -91 -199.5 -131.5t-230.5 -40.5q-209 0 -320 78.5t-111 224.5q0 86 51.5 151t149.5 97q-80 32 -122 89t-42 132q0 128 112 204.5t294 76.5q119 0 216.5 -35t190.5 -112l-88 -107q-86 68 -158.5 95.5t-158.5 27.5q-114 0 -179 -41t-65 -111
q0 -75 58.5 -117t162.5 -42h146v-121h-144q-258 0 -258 -182q0 -85 67.5 -130t199.5 -45q191 0 338 144zM780 1495l-131 -289h-151l84 289h198z" />
    <glyph glyph-name="etatonos" unicode="&#x3ae;" 
d="M1001 680v-1022h-159v971q0 125 -55.5 190.5t-161.5 65.5q-112 0 -185 -75.5t-73 -191.5v-618h-160v993h149v-135q96 162 308 162q161 0 249 -93.5t88 -246.5zM780 1475l-131 -289h-151l84 289h198z" />
    <glyph glyph-name="iotatonos" unicode="&#x3af;" 
d="M713 131h360v-131h-909v131h389v731h-317v131h477v-862zM799 1475l-131 -289h-152l84 289h199z" />
    <glyph glyph-name="upsilondieresistonos" unicode="&#x3b0;" 
d="M193 377v616h161v-608q0 -135 56.5 -205.5t181.5 -70.5q244 0 244 276v608h161v-616q0 -193 -101.5 -298.5t-301.5 -105.5q-199 0 -300 105.5t-101 298.5zM752 1503l-134 -289h-151l86 289h199zM397 1421v-207h-190v207h190zM975 1421v-207h-191v207h191z" />
    <glyph glyph-name="alpha" unicode="&#x3b1;" 
d="M866 993h152v-993h-152v156q-102 -181 -329 -181q-183 0 -303.5 146t-120.5 377t120 375.5t304 144.5q227 0 329 -178v153zM864 498q0 176 -84 280.5t-219 104.5q-127 0 -204.5 -106.5t-77.5 -278.5q0 -174 77 -280.5t205 -106.5q135 0 219 105t84 282z" />
    <glyph glyph-name="beta" unicode="&#x3b2;" 
d="M1075 381q0 -179 -111.5 -291.5t-293.5 -112.5q-238 0 -336 175v-496h-162v1309q0 188 113 301q113 116 309 116q189 0 299.5 -95.5t110.5 -250.5q0 -109 -60 -189t-156 -112q128 -26 207.5 -119t79.5 -235zM909 389q0 126 -83.5 198t-217.5 72h-100v132h106
q100 0 165 67t65 170q0 104 -67.5 160.5t-180.5 56.5q-124 0 -193 -76t-69 -208v-512q0 -153 85.5 -245.5t225.5 -92.5q126 0 195 75.5t69 202.5z" />
    <glyph glyph-name="gamma" unicode="&#x3b3;" 
d="M516 -358v354l-393 997h170l305 -811l301 811h166l-387 -993v-358h-162z" />
    <glyph glyph-name="delta" unicode="&#x3b4;" 
d="M123 444q0 97 36 184t95.5 149t139 98t165.5 36q33 0 43 -2l-375 342v121h734v-133h-508l393 -356q221 -203 221 -439q0 -128 -57 -234.5t-166.5 -171.5t-249.5 -65q-206 0 -338.5 134.5t-132.5 336.5zM901 444q0 64 -19 124t-55.5 110t-96 80t-134.5 30
q-144 0 -226.5 -100.5t-82.5 -243.5q0 -63 19 -121t55.5 -106.5t97 -78t135.5 -29.5q142 0 224.5 99t82.5 236z" />
    <glyph glyph-name="epsilon" unicode="&#x3b5;" 
d="M961 248l90 -105q-98 -91 -199.5 -131.5t-230.5 -40.5q-209 0 -320 78.5t-111 224.5q0 86 51.5 151t149.5 97q-80 32 -122 89t-42 132q0 128 112 204.5t294 76.5q119 0 216.5 -35t190.5 -112l-88 -107q-86 68 -158.5 95.5t-158.5 27.5q-114 0 -179 -41t-65 -111
q0 -75 58.5 -117t162.5 -42h146v-121h-144q-258 0 -258 -182q0 -85 67.5 -130t199.5 -45q191 0 338 144z" />
    <glyph glyph-name="zeta" unicode="&#x3b6;" 
d="M1069 -66q0 -74 -43 -138t-127 -138l-94 100q51 39 83 85t32 83q0 74 -113 74h-152q-214 0 -333 96.5t-119 278.5q0 218 176 450q173 228 412 414h-539v133h774v-119q-284 -210 -473 -442q-191 -235 -191 -430q0 -246 304 -246h147q125 0 190.5 -51.5t65.5 -149.5z" />
    <glyph glyph-name="eta" unicode="&#x3b7;" 
d="M1001 680v-1022h-159v971q0 125 -55.5 190.5t-161.5 65.5q-112 0 -185 -75.5t-73 -191.5v-618h-160v993h149v-135q96 162 308 162q161 0 249 -93.5t88 -246.5z" />
    <glyph glyph-name="theta" unicode="&#x3b8;" 
d="M1049 655q0 -303 -109 -495q-108 -191 -348 -191q-238 0 -346 191q-109 192 -109 495q0 309 109 498q108 188 346 188q240 0 348 -190q109 -192 109 -496zM303 733h580q-18 475 -291 475q-144 0 -212.5 -122.5t-76.5 -352.5zM885 602h-584q15 -500 291 -500
q280 0 293 500z" />
    <glyph glyph-name="iota" unicode="&#x3b9;" 
d="M713 131h360v-131h-909v131h389v731h-317v131h477v-862z" />
    <glyph glyph-name="kappa" unicode="&#x3ba;" 
d="M942 0l-369 492l-176 -175v-317h-159v993h159v-501l498 501h197l-406 -399l442 -594h-186z" />
    <glyph glyph-name="lambda" unicode="&#x3bb;" 
d="M1065 0h-164l-299 758l-321 -758h-160l405 948l-69 176q-59 142 -150 142q-35 0 -121 -25l-39 127q95 31 172 31q105 0 167.5 -55t111.5 -179z" />
    <glyph glyph-name="uni03BC" unicode="&#x3bc;" 
d="M831 993h160v-993h-149v131q-87 -158 -269 -158q-139 0 -217 84v-399h-159v1335h159v-631q0 -123 59 -188t165 -65q110 0 180.5 75t70.5 191v618z" />
    <glyph glyph-name="nu" unicode="&#x3bd;" 
d="M911 993h158l-373 -993h-207l-372 993h166l313 -862z" />
    <glyph glyph-name="xi" unicode="&#x3be;" 
d="M778 0h-143q-208 0 -326.5 97t-118.5 270q0 143 78 234.5t203 119.5q-88 25 -145.5 100t-57.5 168q0 90 43.5 156.5t132.5 97.5h-231v129h782v-133h-264q-142 0 -222.5 -60.5t-80.5 -183.5q0 -92 72 -153.5t178 -61.5h268v-133h-260q-157 0 -246.5 -71t-89.5 -203
q0 -123 77 -180.5t214 -57.5h143q125 0 190.5 -51.5t65.5 -149.5q0 -75 -42 -138.5t-128 -137.5l-94 100q51 39 83 85t32 83q0 74 -113 74z" />
    <glyph glyph-name="omicron" unicode="&#x3bf;" 
d="M1071 496q0 -232 -132 -377.5t-345 -145.5q-212 0 -343.5 145.5t-131.5 377.5q0 234 131.5 380t343.5 146q213 0 345 -146t132 -380zM283 496q0 -179 83 -284.5t228 -105.5q146 0 229.5 105.5t83.5 284.5q0 180 -83.5 286.5t-229.5 106.5t-228.5 -106t-82.5 -287z" />
    <glyph glyph-name="pi" unicode="&#x3c0;" 
d="M1092 137l22 -125q-77 -32 -162 -32q-121 0 -170 58t-49 185v643h-325v-866h-160v866h-166v127h983v-127h-172v-612q0 -75 19.5 -105t70.5 -30t109 18z" />
    <glyph glyph-name="rho" unicode="&#x3c1;" 
d="M1061 496q0 -234 -115.5 -377.5t-300.5 -143.5q-206 0 -309 152v-469h-162v838q0 239 117 383q116 143 323 143q203 0 325 -147t122 -379zM897 498q0 174 -77 282.5t-206 108.5q-133 0 -209.5 -106.5t-76.5 -284.5q0 -176 82.5 -280.5t214.5 -104.5q123 0 197.5 106.5
t74.5 278.5z" />
    <glyph glyph-name="uni03C2" unicode="&#x3c2;" 
d="M786 -344l-90 98q111 86 111 140q0 37 -39.5 60t-153.5 56q-212 64 -322 186t-110 320q0 232 127 369t344 137q124 0 218 -44t182 -144l-109 -97q-80 84 -146.5 117t-148.5 33q-149 0 -229 -109q-78 -110 -78 -264q0 -132 77.5 -225.5t219.5 -138.5l43 -15
q53 -17 74.5 -24.5t58.5 -22t51.5 -24t36 -26t30 -33.5t16 -40.5t9.5 -52.5q0 -72 -42 -129.5t-130 -126.5z" />
    <glyph glyph-name="sigma" unicode="&#x3c3;" 
d="M1100 993v-131h-244q178 -111 178 -381q0 -227 -124 -368.5t-326 -141.5t-327.5 142t-125.5 368q0 228 125.5 370t327.5 142h516zM872 481q0 173 -77.5 277t-210.5 104q-134 0 -211.5 -104t-77.5 -277q0 -168 78.5 -271.5t210.5 -103.5q130 0 209 104t79 271z" />
    <glyph glyph-name="tau" unicode="&#x3c4;" 
d="M1071 862h-418v-581q0 -162 181 -162q96 0 200 39l33 -129q-132 -47 -244 -47q-167 0 -248 69.5t-81 200.5v610h-400v131h977v-131z" />
    <glyph glyph-name="upsilon" unicode="&#x3c5;" 
d="M193 377v616h161v-608q0 -135 56.5 -205.5t181.5 -70.5q244 0 244 276v608h161v-616q0 -193 -101.5 -298.5t-301.5 -105.5q-199 0 -300 105.5t-101 298.5z" />
    <glyph glyph-name="phi" unicode="&#x3c6;" 
d="M524 -342v313q-205 11 -324.5 142t-119.5 360q0 212 67 338t234 211l51 -131q-112 -60 -154 -154t-42 -264q0 -357 288 -369v572q0 170 67.5 258t192.5 88q152 0 242 -129t90 -363q0 -255 -124 -402.5t-318 -156.5v-313h-150zM963 530q0 178 -47 273.5t-132 95.5
q-110 0 -110 -223v-572q141 11 215 118t74 308z" />
    <glyph glyph-name="chi" unicode="&#x3c7;" 
d="M1069 -342h-166l-311 547l-311 -547h-162l381 666l-379 669h168l299 -528l299 528h162l-371 -649z" />
    <glyph glyph-name="psi" unicode="&#x3c8;" 
d="M909 993h156v-504q0 -242 -100.5 -374t-296.5 -142v-315h-148v315q-196 10 -296.5 142t-100.5 374v504h153v-504q0 -185 59 -279t185 -104v1209h148v-1209q126 10 183.5 104t57.5 279v504z" />
    <glyph glyph-name="omega" unicode="&#x3c9;" 
d="M82 461q0 214 70 347t231 210l51 -129q-107 -55 -150.5 -157.5t-43.5 -270.5q0 -166 36 -259t103 -93q139 0 139 272v297h154v-297q0 -272 141 -272q65 0 100 93t35 259q0 168 -43.5 270.5t-150.5 157.5l49 129q163 -76 233 -209.5t70 -347.5t-72 -352
q-71 -136 -207 -136q-90 0 -151.5 57t-81.5 156q-24 -101 -83 -157t-146 -56q-140 0 -211 136q-72 138 -72 352z" />
    <glyph glyph-name="iotadieresis" unicode="&#x3ca;" 
d="M713 131h360v-131h-909v131h389v731h-317v131h477v-862zM506 1425v-211h-203v211h203zM922 1425v-211h-203v211h203z" />
    <glyph glyph-name="upsilondieresis" unicode="&#x3cb;" 
d="M193 377v616h161v-608q0 -135 56.5 -205.5t181.5 -70.5q244 0 244 276v608h161v-616q0 -193 -101.5 -298.5t-301.5 -105.5q-199 0 -300 105.5t-101 298.5zM487 1425v-211h-202v211h202zM903 1425v-211h-203v211h203z" />
    <glyph glyph-name="omicrontonos" unicode="&#x3cc;" 
d="M1071 496q0 -232 -132 -377.5t-345 -145.5q-212 0 -343.5 145.5t-131.5 377.5q0 234 131.5 380t343.5 146q213 0 345 -146t132 -380zM283 496q0 -179 83 -284.5t228 -105.5q146 0 229.5 105.5t83.5 284.5q0 180 -83.5 286.5t-229.5 106.5t-228.5 -106t-82.5 -287z
M780 1475l-131 -289h-151l84 289h198z" />
    <glyph glyph-name="upsilontonos" unicode="&#x3cd;" 
d="M193 377v616h161v-608q0 -135 56.5 -205.5t181.5 -70.5q244 0 244 276v608h161v-616q0 -193 -101.5 -298.5t-301.5 -105.5q-199 0 -300 105.5t-101 298.5zM780 1475l-131 -289h-151l84 289h198z" />
    <glyph glyph-name="omegatonos" unicode="&#x3ce;" 
d="M82 461q0 214 70 347t231 210l51 -129q-107 -55 -150.5 -157.5t-43.5 -270.5q0 -166 36 -259t103 -93q139 0 139 272v297h154v-297q0 -272 141 -272q65 0 100 93t35 259q0 168 -43.5 270.5t-150.5 157.5l49 129q163 -76 233 -209.5t70 -347.5t-72 -352
q-71 -136 -207 -136q-90 0 -151.5 57t-81.5 156q-24 -101 -83 -157t-146 -56q-140 0 -211 136q-72 138 -72 352zM782 1475l-131 -289h-151l84 289h198z" />
    <glyph glyph-name="uni0401" unicode="&#x401;" 
d="M1034 1315v-139h-647v-428h598v-140h-598v-469h666v-139h-832v1315h813zM526 1702v-211h-202v211h202zM942 1702v-211h-203v211h203z" />
    <glyph glyph-name="uni0402" unicode="&#x402;" 
d="M1100 408q0 -431 -309 -431q-70 0 -154 19l18 137q55 -14 119 -14q86 0 123 65t37 217q0 138 -53 205.5t-164 67.5q-121 0 -211 -45v-629h-164v1176h-266v139h768v-139h-338v-402q91 45 227 45q367 0 367 -411z" />
    <glyph glyph-name="uni0403" unicode="&#x403;" 
d="M1053 1176h-645v-1176h-168v1315h813v-139zM926 1772l-209 -289h-156l156 289h209z" />
    <glyph glyph-name="uni0404" unicode="&#x404;" 
d="M1006 305l100 -117q-117 -117 -225 -168q-101 -49 -240 -49q-163 0 -283.5 88.5t-181.5 242.5t-61 353q0 202 60.5 355t183.5 241t294 88q119 0 221 -40t209 -132l-96 -118q-94 80 -172 112.5t-162 32.5q-157 0 -252.5 -119.5t-113.5 -326.5h559v-140h-561
q9 -217 104 -356q95 -135 254 -135q104 0 180 43q90 55 183 145z" />
    <glyph glyph-name="uni0405" unicode="&#x405;" 
d="M1081 1149l-100 -119q-108 93 -198.5 130.5t-202.5 37.5q-135 0 -221.5 -62t-86.5 -157q0 -66 39 -105q39 -36 105.5 -58.5t228.5 -61.5q252 -58 351.5 -139t99.5 -238q0 -182 -135 -294t-351 -112q-163 0 -288 52q-124 52 -271 174l103 120q137 -117 241 -161
q103 -41 217 -41q141 0 229.5 68.5t88.5 183.5q-2 30 -7.5 53.5t-18 43.5t-26.5 35.5t-38.5 29t-48.5 23.5t-63.5 21.5t-75.5 20t-91 20.5q-263 62 -355.5 134.5t-96.5 226.5q0 162 136.5 264t334.5 102q149 0 264 -44.5t237 -147.5z" />
    <glyph glyph-name="uni0406" unicode="&#x406;" 
d="M1012 1184h-334v-1053h334v-131h-836v131h334v1053h-334v131h836v-131z" />
    <glyph glyph-name="uni0407" unicode="&#x407;" 
d="M1012 1184h-334v-1053h334v-131h-836v131h334v1053h-334v131h836v-131zM487 1708v-211h-202v211h202zM903 1708v-211h-203v211h203z" />
    <glyph glyph-name="uni0408" unicode="&#x408;" 
d="M911 1315v-977q0 -182 -99 -269t-304 -87q-189 0 -389 84l57 135q194 -74 332 -74q121 0 179 52.5t58 172.5v963h166z" />
    <glyph glyph-name="uni0409" unicode="&#x409;" 
d="M1171 393q0 -179 -97 -286t-245 -107h-264v1182h-211l-6 -666v-55q-3 -197 -14 -277q-13 -96 -62 -146t-149 -50q-60 0 -113 16l19 143q35 -6 69 -6q50 0 70 33q22 36 25 113q5 61 8 270l6 758h512v-529h110q149 0 245.5 -106t96.5 -287zM1016 393q0 121 -55.5 188.5
t-149.5 67.5h-92v-512h92q94 0 149.5 67.5t55.5 188.5z" />
    <glyph glyph-name="uni040A" unicode="&#x40a;" 
d="M1141 393q0 -179 -97 -286t-245 -107h-264v649h-295v-649h-156v1315h156v-529h295v529h155v-529h109q149 0 245.5 -106t96.5 -287zM987 393q0 121 -56 188.5t-151 67.5h-90v-512h90q95 0 151 67.5t56 188.5z" />
    <glyph glyph-name="uni040B" unicode="&#x40b;" 
d="M1083 440v-440h-168v440q0 121 -50.5 177.5t-155.5 56.5q-124 0 -220 -47v-627h-165v1176h-267v139h752v-139h-320v-404q96 47 234 47q187 0 273.5 -93.5t86.5 -285.5z" />
    <glyph glyph-name="uni040C" unicode="&#x40c;" 
d="M944 0l-401 608h-185v-608h-168v1315h168v-565h177l387 565h188l-430 -625l455 -690h-191zM893 1757l-209 -289h-156l156 289h209z" />
    <glyph glyph-name="uni040E" unicode="&#x40e;" 
d="M965 1315h165l-485 -1098q-61 -135 -124.5 -188.5t-168.5 -53.5q-87 0 -205 31l31 146q114 -27 166 -27q53 0 93.5 32t74.5 109l14 35l-460 1014h174l366 -830zM283 1726h151q2 -74 41 -119.5t119 -45.5q152 0 162 165h149q0 -117 -88 -196q-90 -78 -223 -78t-223 78
q-88 79 -88 196z" />
    <glyph glyph-name="uni040F" unicode="&#x40f;" 
d="M164 1315h168v-1172h524v1172h168v-1315h-348v-274h-164v274h-348v1315z" />
    <glyph glyph-name="uni0410" unicode="&#x410;" 
d="M958 0l-104 338h-522l-105 -338h-164l418 1315h226l417 -1315h-166zM375 477h436l-219 711z" />
    <glyph glyph-name="uni0411" unicode="&#x411;" 
d="M195 0v1315h815v-139h-650v-398h308q193 0 308.5 -104t115.5 -285t-115.5 -285t-308.5 -104h-473zM360 139h285q129 0 202 65t73 185t-73 185t-202 65h-285v-500z" />
    <glyph glyph-name="uni0412" unicode="&#x412;" 
d="M1087 369q0 -168 -106.5 -268.5t-284.5 -100.5h-522v1315h496q168 0 272.5 -88.5t104.5 -243.5q0 -104 -54.5 -180t-146.5 -109q114 -36 177.5 -119t63.5 -206zM340 1180v-422h311q110 0 170 56t60 159q0 98 -61.5 152.5t-170.5 54.5h-309zM920 375q0 113 -73.5 179.5
t-201.5 66.5h-305v-486h322q127 0 192.5 63t65.5 177z" />
    <glyph glyph-name="uni0413" unicode="&#x413;" 
d="M1053 1176h-645v-1176h-168v1315h813v-139z" />
    <glyph glyph-name="uni0414" unicode="&#x414;" 
d="M299 1315h690v-1176h141v-413h-161v274h-752v-274h-162v413h101q56 88 98 246q40 154 43 434zM328 139h493v1037h-368l-4 -363q-6 -470 -121 -674z" />
    <glyph glyph-name="uni0415" unicode="&#x415;" 
d="M1034 1315v-139h-647v-428h598v-140h-598v-469h666v-139h-832v1315h813z" />
    <glyph glyph-name="uni0416" unicode="&#x416;" 
d="M1012 0l-236 608h-110v-608h-142v608h-110l-236 -608h-166l277 690l-256 625h164l221 -561h106v561h142v-561h106l221 561h162l-254 -625l277 -690h-166z" />
    <glyph glyph-name="uni0417" unicode="&#x417;" 
d="M1096 377q0 -185 -139.5 -295.5t-366.5 -110.5q-151 0 -277.5 51.5t-249.5 167.5l101 119q107 -101 207.5 -147.5t220.5 -46.5q152 0 243 69.5t91 196.5q0 106 -81.5 166.5t-232.5 60.5h-225v142h221q135 0 207 58t72 163q0 101 -80.5 164t-212.5 63q-111 0 -204.5 -38
t-188.5 -128l-99 117q113 103 229 147.5t261 44.5q209 0 334 -98q127 -100 127 -262q0 -100 -52 -176t-149 -117q118 -38 181 -118t63 -193z" />
    <glyph glyph-name="uni0418" unicode="&#x418;" 
d="M838 1315h182v-1315h-162v1085l-514 -1085h-176v1315h162v-1088z" />
    <glyph glyph-name="uni0419" unicode="&#x419;" 
d="M838 1315h182v-1315h-162v1085l-514 -1085h-176v1315h162v-1088zM283 1726h151q2 -74 41 -119.5t119 -45.5q152 0 162 165h149q0 -117 -88 -196q-90 -78 -223 -78t-223 78q-88 79 -88 196z" />
    <glyph glyph-name="uni041A" unicode="&#x41a;" 
d="M944 0l-401 608h-185v-608h-168v1315h168v-565h177l387 565h188l-430 -625l455 -690h-191z" />
    <glyph glyph-name="uni041B" unicode="&#x41b;" 
d="M51 6l21 146q37 -11 82 -11q69 0 98 45q31 45 40 124t11 257l10 748h707v-1315h-168v1176h-387l-8 -654q-1 -82 -4.5 -140t-11 -116.5t-20.5 -98t-34 -75t-50.5 -56t-70 -33.5t-92.5 -15q-58 0 -123 18z" />
    <glyph glyph-name="uni041C" unicode="&#x41c;" 
d="M801 1315h237v-1315h-151v1196l-225 -920h-140l-225 920v-1196h-147v1315h235l207 -883z" />
    <glyph glyph-name="uni041D" unicode="&#x41d;" 
d="M1016 1315v-1315h-166v608h-512v-608h-166v1315h166v-567h512v567h166z" />
    <glyph glyph-name="uni041E" unicode="&#x41e;" 
d="M92 657q0 309 127 498q129 191 377 191q249 0 375 -191q127 -189 127 -498q0 -310 -127 -499t-375 -189q-247 0 -377 189q-127 189 -127 499zM930 657q0 256 -85 399.5t-249 143.5t-250 -144t-86 -399t86 -398.5t250 -143.5t249 143t85 399z" />
    <glyph glyph-name="uni041F" unicode="&#x41f;" 
d="M1020 0h-166v1176h-516v-1176h-168v1315h850v-1315z" />
    <glyph glyph-name="uni0420" unicode="&#x420;" 
d="M1092 924q0 -181 -113.5 -285t-304.5 -104h-326v-535h-166v1315h492q191 0 304.5 -104.5t113.5 -286.5zM924 924q0 122 -72.5 187t-202.5 65h-301v-502h301q131 0 203 64t72 186z" />
    <glyph glyph-name="uni0421" unicode="&#x421;" 
d="M1083 1167l-96 -118q-94 80 -172 112.5t-162 32.5q-179 0 -274 -147q-96 -149 -96 -392q0 -238 97.5 -388t262.5 -150q104 0 180 43q90 55 183 145l100 -117q-117 -117 -225 -168q-101 -49 -240 -49q-163 0 -283.5 88.5t-181.5 242.5t-61 353q0 202 60.5 355t183.5 241
t294 88q119 0 221 -40t209 -132z" />
    <glyph glyph-name="uni0422" unicode="&#x422;" 
d="M1108 1315v-146h-430v-1169h-168v1169h-430v146h1028z" />
    <glyph glyph-name="uni0423" unicode="&#x423;" 
d="M965 1315h165l-485 -1098q-61 -135 -124.5 -188.5t-168.5 -53.5q-87 0 -205 31l31 146q114 -27 166 -27q53 0 93.5 32t74.5 109l14 35l-460 1014h174l366 -830z" />
    <glyph glyph-name="uni0424" unicode="&#x424;" 
d="M516 -66v179q-216 17 -334.5 160t-118.5 393q0 248 120.5 392t332.5 161v159h152v-159q213 -17 332.5 -160.5t119.5 -392.5t-120 -392.5t-332 -160.5v-179h-152zM518 246v841q-143 -14 -221 -122.5t-78 -298.5q0 -189 78.5 -297.5t220.5 -122.5zM967 666q0 187 -80 297
t-221 124v-841q143 14 222 123t79 297z" />
    <glyph glyph-name="uni0425" unicode="&#x425;" 
d="M1151 0h-188l-369 571l-369 -571h-186l455 690l-414 625h188l330 -510l328 510h186l-414 -625z" />
    <glyph glyph-name="uni0426" unicode="&#x426;" 
d="M180 1315h166v-1176h485v1176h166v-1176h144v-413h-164v274h-797v1315z" />
    <glyph glyph-name="uni0427" unicode="&#x427;" 
d="M848 1315h166v-1315h-166v557q-51 -26 -128.5 -41.5t-156.5 -15.5q-209 0 -306 94.5t-97 288.5v432h166v-430q0 -124 60.5 -182t188.5 -58q158 0 273 62v608z" />
    <glyph glyph-name="uni0428" unicode="&#x428;" 
d="M1051 1315v-1315h-914v1315h150v-1182h233v1182h148v-1182h233v1182h150z" />
    <glyph glyph-name="uni0429" unicode="&#x429;" 
d="M1042 133h113v-407h-143v274h-883v1315h150v-1182h233v1182h147v-1182h234v1182h149v-1182z" />
    <glyph glyph-name="uni042A" unicode="&#x42a;" 
d="M1130 393q0 -181 -114 -289q-113 -104 -301 -104h-426v1171h-232v144h400v-529h258q190 0 302.5 -105t112.5 -288zM965 393q0 122 -73.5 188t-203.5 66h-231v-508h231q130 0 203.5 66t73.5 188z" />
    <glyph glyph-name="uni042B" unicode="&#x42b;" 
d="M772 393q0 -179 -97 -286t-245 -107h-264v1315h156v-529h108q149 0 245.5 -106t96.5 -287zM866 1315h156v-1315h-156v1315zM618 393q0 121 -55.5 188.5t-150.5 67.5h-90v-512h90q95 0 150.5 67.5t55.5 188.5z" />
    <glyph glyph-name="uni042C" unicode="&#x42c;" 
d="M1092 391q0 -182 -113.5 -286.5t-304.5 -104.5h-492v1315h166v-535h326q191 0 304.5 -104t113.5 -285zM924 391q0 122 -72 186t-203 64h-301v-502h301q130 0 202.5 65t72.5 187z" />
    <glyph glyph-name="uni042D" unicode="&#x42d;" 
d="M1073 655q0 -199 -61 -353t-181.5 -242.5t-283.5 -88.5q-138 0 -242 49q-107 52 -223 168l100 117q93 -90 183 -145q76 -43 180 -43q157 0 252 135q97 142 106 356h-561v140h559q-18 207 -113.5 326.5t-252.5 119.5q-84 0 -162 -32.5t-172 -112.5l-97 118
q107 92 209.5 132t221.5 40q171 0 294 -88t183.5 -241t60.5 -355z" />
    <glyph glyph-name="uni042E" unicode="&#x42e;" 
d="M1137 657q0 -333 -78 -512q-77 -176 -285 -176q-206 0 -285 168q-80 171 -83 488h-144v-625h-160v1315h160v-549h146q11 292 95.5 436t270.5 144q208 0 285 -177q78 -179 78 -512zM977 657q0 136 -10 232.5t-33 167.5t-62.5 105t-97.5 34q-114 0 -161.5 -132.5
t-47.5 -406.5t47.5 -406t161.5 -132q113 0 158 131t45 407z" />
    <glyph glyph-name="uni042F" unicode="&#x42f;" 
d="M1010 1315v-1315h-168v545h-252l-340 -545h-187l351 557q-141 31 -220 127t-79 244q0 179 113.5 283t303.5 104h478zM557 684h285v492h-285q-131 0 -203.5 -63.5t-72.5 -184.5t71.5 -182.5t204.5 -61.5z" />
    <glyph glyph-name="uni0430" unicode="&#x430;" 
d="M991 696v-696h-147v127q-49 -77 -137.5 -117.5t-202.5 -40.5q-164 0 -260.5 70t-96.5 205q2 67 25.5 118t60 85.5t99 62t126 44.5t158.5 36l220 39v57q0 97 -66 151t-178 54q-90 0 -164 -38.5t-174 -133.5l-102 92q101 110 205.5 161.5t230.5 51.5q187 0 295 -90
t108 -238zM836 365v143l-183 -37q-117 -23 -194 -49q-156 -53 -156 -172q0 -72 56 -111t159 -39q138 0 228 74t90 191z" />
    <glyph glyph-name="uni0431" unicode="&#x431;" 
d="M1083 467q0 -217 -133 -354.5t-332 -137.5q-222 0 -347.5 157.5t-125.5 447.5q1 162 16.5 275.5t50.5 204.5t97 148.5t152 93.5t219 52l328 37l14 -146l-326 -37q-118 -15 -190.5 -44t-121.5 -88.5t-71 -145t-32 -223.5q45 104 145.5 166.5t228.5 62.5q193 0 310.5 -127
t117.5 -342zM920 465q0 153 -81 246.5t-212 93.5q-134 0 -225 -95t-91 -245q0 -161 83 -258.5t218 -97.5q140 0 224 97.5t84 258.5z" />
    <glyph glyph-name="uni0432" unicode="&#x432;" 
d="M1047 281q0 -126 -87 -203.5t-233 -77.5h-498v993h473q143 0 231.5 -69.5t88.5 -186.5q0 -78 -45.5 -137t-120.5 -84q89 -21 140 -82.5t51 -152.5zM387 866v-295h293q89 0 136.5 41t47.5 111q0 68 -46 105.5t-136 37.5h-295zM887 289q0 75 -53.5 119.5t-151.5 44.5h-295
v-326h295q101 0 153 43.5t52 118.5z" />
    <glyph glyph-name="uni0433" unicode="&#x433;" 
d="M1030 862h-579v-862h-160v993h739v-131z" />
    <glyph glyph-name="uni0434" unicode="&#x434;" 
d="M90 -248v379h90q120 127 123 473l6 389h652v-862h137v-379h-154v248h-700v-248h-154zM346 131h455v731h-348l-7 -262q-9 -362 -100 -469z" />
    <glyph glyph-name="uni0435" unicode="&#x435;" 
d="M987 289l94 -99q-116 -117 -223.5 -167t-236.5 -50q-225 0 -359 140q-131 140 -131 374q0 236 131.5 385.5t341.5 149.5q214 0 333.5 -127t119.5 -348q0 -28 -4 -74h-762q6 -167 91.5 -267t240.5 -100q96 0 177.5 41.5t186.5 141.5zM297 598h602q-6 132 -84.5 211.5
t-210.5 79.5q-125 0 -206 -75.5t-101 -215.5z" />
    <glyph glyph-name="uni0436" unicode="&#x436;" 
d="M985 0l-215 438h-106v-438h-138v438h-106l-217 -438h-158l256 512l-242 481h156l205 -422h106v422h138v-422h106l205 422h155l-243 -481l258 -512h-160z" />
    <glyph glyph-name="uni0437" unicode="&#x437;" 
d="M999 281q0 -134 -115 -223t-298 -89q-249 0 -453 168l90 107q87 -68 181.5 -105t181.5 -37q118 0 187 50t69 135q0 157 -234 157h-190v125h192q97 0 151 43.5t54 118.5q0 73 -63 114.5t-174 41.5q-85 0 -162.5 -29t-165.5 -92l-76 113q104 73 201.5 107t206.5 34
q161 0 276 -74q113 -73 113 -205q0 -161 -172 -225q200 -60 200 -235z" />
    <glyph glyph-name="uni0438" unicode="&#x438;" 
d="M829 993h172v-993h-155v815l-484 -815h-174v993h156v-811z" />
    <glyph glyph-name="uni0439" unicode="&#x439;" 
d="M829 993h172v-993h-155v815l-484 -815h-174v993h156v-811zM283 1444h151q2 -74 41 -120t119 -46q152 0 162 166h149q0 -118 -88 -197q-90 -78 -223 -78t-223 78q-88 79 -88 197z" />
    <glyph glyph-name="uni043A" unicode="&#x43a;" 
d="M911 0l-331 446h-181v-446h-159v993h159v-415h181l315 415h180l-368 -475l391 -518h-187z" />
    <glyph glyph-name="uni043B" unicode="&#x43b;" 
d="M74 2l16 133q27 -6 76 -6q31 3 50.5 9.5t35 26t23.5 42t14 72t8.5 100.5t5.5 141l6 473h649v-993h-159v862h-348l-9 -348q-3 -209 -24 -317q-19 -108 -74 -157.5t-162 -49.5q-46 0 -108 12z" />
    <glyph glyph-name="uni043C" unicode="&#x43c;" 
d="M803 993h215v-993h-141v862l-222 -663h-125l-219 665v-864h-141v993h217l209 -643z" />
    <glyph glyph-name="uni043D" unicode="&#x43d;" 
d="M991 0h-160v449h-473v-449h-159v993h159v-415h473v415h160v-993z" />
    <glyph glyph-name="uni043E" unicode="&#x43e;" 
d="M1071 496q0 -232 -132 -377.5t-345 -145.5q-212 0 -343.5 145.5t-131.5 377.5q0 234 131.5 380t343.5 146q213 0 345 -146t132 -380zM283 496q0 -179 83 -284.5t228 -105.5q146 0 229.5 105.5t83.5 284.5q0 180 -83.5 286.5t-229.5 106.5t-228.5 -106t-82.5 -287z" />
    <glyph glyph-name="uni043F" unicode="&#x43f;" 
d="M977 0h-160v862h-444v-862h-160v993h764v-993z" />
    <glyph glyph-name="uni0440" unicode="&#x440;" 
d="M1092 498q0 -234 -119 -378.5t-309 -144.5q-218 0 -326 164v-481h-160v1335h150v-162q106 189 336 189q189 0 308.5 -145.5t119.5 -376.5zM928 498q0 175 -77.5 280t-209.5 105q-139 0 -225 -104t-86 -281q0 -176 88 -281.5t223 -105.5q129 0 208 107t79 280z" />
    <glyph glyph-name="uni0441" unicode="&#x441;" 
d="M657 889q-158 0 -241 -115q-82 -113 -82 -278q0 -105 35.5 -191t111.5 -141t181 -55q87 0 155.5 35.5t161.5 131.5l102 -90q-97 -117 -192.5 -165t-224.5 -48q-227 0 -360.5 142.5t-133.5 380.5q0 237 134 381.5t355 144.5q126 0 219.5 -43.5t186.5 -144.5l-104 -95
q-83 83 -152.5 116.5t-151.5 33.5z" />
    <glyph glyph-name="uni0442" unicode="&#x442;" 
d="M1079 862h-405v-862h-160v862h-403v131h968v-131z" />
    <glyph glyph-name="uni0443" unicode="&#x443;" 
d="M901 993h162l-418 -1120q-52 -137 -116.5 -191.5t-186.5 -54.5q-82 0 -162 17l25 133q67 -15 125 -15q70 0 107.5 31.5t72.5 122.5l8 25l-393 1052h168l303 -839z" />
    <glyph glyph-name="uni0444" unicode="&#x444;" 
d="M522 1352h148v-351q200 -11 318 -146.5t118 -369.5t-118 -368.5t-318 -145.5v-329h-148v329q-200 11 -318 145.5t-118 368.5t118 369.5t318 146.5v351zM524 100v770q-130 -8 -205 -108t-75 -277q0 -176 75.5 -276.5t204.5 -108.5zM666 870v-770q131 8 205.5 107.5
t74.5 277.5t-74.5 277.5t-205.5 107.5z" />
    <glyph glyph-name="uni0445" unicode="&#x445;" 
d="M1077 0h-180l-301 414l-305 -414h-178l389 522l-363 471h178l279 -368l276 368h172l-352 -469z" />
    <glyph glyph-name="uni0446" unicode="&#x446;" 
d="M948 -248v248h-739v993h160v-862h436v862h160v-862h139v-379h-156z" />
    <glyph glyph-name="uni0447" unicode="&#x447;" 
d="M799 993h159v-993h-159v399q-111 -51 -269 -51q-186 0 -273 75t-87 226v344h160v-338q0 -89 49.5 -131.5t165.5 -42.5q143 0 254 54v458z" />
    <glyph glyph-name="uni0448" unicode="&#x448;" 
d="M1049 993v-993h-910v993h148v-868h235v868h144v-868h237v868h146z" />
    <glyph glyph-name="uni0449" unicode="&#x449;" 
d="M1034 125h131v-373h-145v248h-897v993h147v-868h238v868h141v-868h238v868h147v-868z" />
    <glyph glyph-name="uni044A" unicode="&#x44a;" 
d="M1141 319q0 -148 -96.5 -233.5t-256.5 -85.5h-444v862h-256v131h416v-352h284q160 0 256.5 -86t96.5 -236zM981 319q0 92 -57.5 141.5t-157.5 49.5h-262v-379h262q100 0 157.5 48t57.5 140z" />
    <glyph glyph-name="uni044B" unicode="&#x44b;" 
d="M172 993h150v-381h110q133 0 218 -83t85 -226q0 -139 -85.5 -221t-217.5 -82h-260v993zM1016 993v-993h-150v993h150zM322 127h96q79 0 123.5 47t44.5 129q0 83 -44.5 131.5t-123.5 48.5h-96v-356z" />
    <glyph glyph-name="uni044C" unicode="&#x44c;" 
d="M256 0v993h160v-352h284q160 0 256.5 -86t96.5 -236q0 -148 -96.5 -233.5t-256.5 -85.5h-444zM416 131h262q100 0 157.5 48t57.5 140t-57.5 141.5t-157.5 49.5h-262v-379z" />
    <glyph glyph-name="uni044D" unicode="&#x44d;" 
d="M1018 496q0 -237 -133.5 -380t-360.5 -143q-129 0 -225 48t-193 165l103 90q93 -96 161.5 -131.5t155.5 -35.5q145 0 230.5 92t99.5 243h-494v125h492q-20 145 -103 232.5t-219 87.5q-82 0 -152 -33.5t-153 -116.5l-104 95q93 101 186 144.5t219 43.5q221 0 355.5 -145.5
t134.5 -380.5z" />
    <glyph glyph-name="uni044E" unicode="&#x44e;" 
d="M1108 496q0 -246 -87 -382.5t-257 -136.5q-161 0 -247 121.5t-97 345.5h-137v-444h-148v993h148v-420h139q12 214 98.5 329.5t243.5 115.5q170 0 257 -136.5t87 -385.5zM961 496q0 391 -197 391t-197 -391q0 -387 197 -387t197 387z" />
    <glyph glyph-name="uni044F" unicode="&#x44f;" 
d="M526 993h439v-993h-152v373h-211l-289 -373h-180l301 381q-123 23 -192.5 103.5t-69.5 199.5q0 142 95 225.5t259 83.5zM813 502v360h-264q-108 0 -163.5 -45.5t-55.5 -132.5t56 -134.5t161 -47.5h266z" />
    <glyph glyph-name="uni0451" unicode="&#x451;" 
d="M987 289l94 -99q-116 -117 -223.5 -167t-236.5 -50q-225 0 -359 140q-131 140 -131 374q0 236 131.5 385.5t341.5 149.5q214 0 333.5 -127t119.5 -348q0 -28 -4 -74h-762q6 -167 91.5 -267t240.5 -100q96 0 177.5 41.5t186.5 141.5zM297 598h602q-6 132 -84.5 211.5
t-210.5 79.5q-125 0 -206 -75.5t-101 -215.5zM522 1425v-211h-203v211h203zM938 1425v-211h-203v211h203z" />
    <glyph glyph-name="uni0452" unicode="&#x452;" 
d="M1006 264h8v-319q0 -320 -285 -320q-92 0 -197 31l31 127q90 -23 152 -23q76 0 107.5 45t31.5 142v53h-8v571q0 254 -213 254q-110 0 -182 -74.5t-72 -189.5v-561h-160v1102h-172v127h172v143h160v-143h266v-127h-266v-285q96 146 293 146q161 0 247.5 -93.5t86.5 -246.5
v-359z" />
    <glyph glyph-name="uni0453" unicode="&#x453;" 
d="M1030 862h-579v-862h-160v993h739v-131zM936 1475l-209 -289h-156l156 289h209z" />
    <glyph glyph-name="uni0454" unicode="&#x454;" 
d="M979 276l102 -90q-97 -117 -192.5 -165t-224.5 -48q-227 0 -360.5 143t-133.5 380q0 236 134 381t355 145q126 0 219.5 -43.5t186.5 -144.5l-104 -95q-83 83 -153.5 116.5t-152.5 33.5q-136 0 -218.5 -87.5t-102.5 -232.5h491v-125h-493q14 -151 99.5 -243t230.5 -92
q87 0 155.5 35.5t161.5 131.5z" />
    <glyph glyph-name="uni0455" unicode="&#x455;" 
d="M1008 881l-88 -109q-95 71 -164 96t-162 25q-107 0 -171.5 -44.5t-64.5 -113.5q7 -64 58 -89.5t223 -61.5q207 -42 296 -110.5t89 -194.5q0 -141 -113 -226q-113 -84 -290 -84q-139 0 -245.5 41t-223.5 142l94 106q108 -89 192 -123.5t183 -34.5q110 0 177.5 46.5
t67.5 123.5q0 75 -65.5 112.5t-227.5 70.5q-212 44 -290 100t-78 176q0 131 108.5 214t278.5 83q126 0 221.5 -33t194.5 -112z" />
    <glyph glyph-name="uni0456" unicode="&#x456;" 
d="M713 131h360v-131h-909v131h389v731h-317v131h477v-862zM727 1425v-211h-229v211h229z" />
    <glyph glyph-name="uni0457" unicode="&#x457;" 
d="M713 131h360v-131h-909v131h389v731h-317v131h477v-862zM506 1425v-211h-203v211h203zM922 1425v-211h-203v211h203z" />
    <glyph glyph-name="uni0458" unicode="&#x458;" 
d="M756 993v-1052q0 -144 -94 -230t-259 -86q-133 0 -272 43l35 129q116 -39 229 -39q104 0 152.5 50t48.5 153v901h-324v131h484zM772 1425v-211h-229v211h229z" />
    <glyph glyph-name="uni0459" unicode="&#x459;" 
d="M1137 303q0 -139 -85.5 -221t-217.5 -82h-259v864h-204l-4 -375q-3 -212 -17 -307q-14 -100 -65.5 -146t-159.5 -46q-41 0 -102 12l16 133q31 -8 74 -8q54 0 77 29q26 33 29 100q5 56 8 240l4 497h492v-381h111q133 0 218 -83t85 -226zM987 303q0 83 -44.5 131.5
t-123.5 48.5h-96v-356h96q79 0 123.5 47t44.5 129z" />
    <glyph glyph-name="uni045A" unicode="&#x45a;" 
d="M1116 303q0 -139 -85.5 -221t-217.5 -82h-260v483h-252v-483h-149v993h149v-381h252v381h149v-381h111q133 0 218 -83t85 -226zM967 303q0 83 -44.5 131.5t-123.5 48.5h-97v-356h97q79 0 123.5 47t44.5 129z" />
    <glyph glyph-name="uni045B" unicode="&#x45b;" 
d="M1006 623v-623h-160v571q0 254 -213 254q-110 0 -182 -74.5t-72 -189.5v-561h-160v1102h-172v127h172v143h160v-143h266v-127h-266v-285q96 146 293 146q161 0 247.5 -93.5t86.5 -246.5z" />
    <glyph glyph-name="uni045C" unicode="&#x45c;" 
d="M911 0l-331 446h-181v-446h-159v993h159v-415h181l315 415h180l-368 -475l391 -518h-187zM854 1475l-209 -289h-156l156 289h209z" />
    <glyph glyph-name="uni045E" unicode="&#x45e;" 
d="M901 993h162l-418 -1120q-52 -137 -116.5 -191.5t-186.5 -54.5q-82 0 -162 17l25 133q67 -15 125 -15q70 0 107.5 31.5t72.5 122.5l8 25l-393 1052h168l303 -839zM283 1444h151q2 -74 41 -120t119 -46q152 0 162 166h149q0 -118 -88 -197q-90 -78 -223 -78t-223 78
q-88 79 -88 197z" />
    <glyph glyph-name="uni045F" unicode="&#x45f;" 
d="M518 -252v252h-313v993h160v-862h460v862h160v-993h-315v-252h-152z" />
    <glyph glyph-name="uni0490" unicode="&#x490;" 
d="M242 0v1315h655v268h164v-407h-651v-1176h-168z" />
    <glyph glyph-name="uni0491" unicode="&#x491;" 
d="M283 0v993h624v256h152v-387h-617v-862h-159z" />
    <glyph glyph-name="Wgrave" unicode="&#x1e80;" 
d="M967 1315h149l-131 -1315h-217l-174 911l-172 -911h-219l-131 1315h153l113 -1174l180 949h152l184 -963zM342 1757h207l156 -289h-154z" />
    <glyph glyph-name="wgrave" unicode="&#x1e81;" 
d="M983 993h141l-166 -993h-206l-170 807l-166 -807h-205l-166 993h143l144 -889l180 889h145l183 -895zM344 1475h207l156 -289h-154z" />
    <glyph glyph-name="Wacute" unicode="&#x1e82;" 
d="M967 1315h149l-131 -1315h-217l-174 911l-172 -911h-219l-131 1315h153l113 -1174l180 949h152l184 -963zM848 1757l-209 -289h-156l156 289h209z" />
    <glyph glyph-name="wacute" unicode="&#x1e83;" 
d="M983 993h141l-166 -993h-206l-170 807l-166 -807h-205l-166 993h143l144 -889l180 889h145l183 -895zM850 1475l-209 -289h-156l156 289h209z" />
    <glyph glyph-name="Wdieresis" unicode="&#x1e84;" 
d="M967 1315h149l-131 -1315h-217l-174 911l-172 -911h-219l-131 1315h153l113 -1174l180 949h152l184 -963zM487 1708v-211h-202v211h202zM903 1708v-211h-203v211h203z" />
    <glyph glyph-name="wdieresis" unicode="&#x1e85;" 
d="M983 993h141l-166 -993h-206l-170 807l-166 -807h-205l-166 993h143l144 -889l180 889h145l183 -895zM489 1425v-211h-202v211h202zM905 1425v-211h-203v211h203z" />
    <glyph glyph-name="uni1E9E" unicode="&#x1e9e;" 
d="M1141 360q0 -176 -101.5 -278t-287.5 -102q-132 0 -289 40l31 144q140 -41 251 -41q113 0 174.5 58t61.5 173q0 108 -93.5 181t-285.5 131l-49 14v113l305 381h-536v-1174h-166v1315h901v-121l-332 -412q416 -134 416 -422z" />
    <glyph glyph-name="uni1EA0" unicode="&#x1ea0;" 
d="M958 0l-104 338h-522l-105 -338h-164l418 1315h226l417 -1315h-166zM375 477h436l-219 711zM709 -213v-207h-230v207h230z" />
    <glyph glyph-name="uni1EA1" unicode="&#x1ea1;" 
d="M991 696v-696h-147v127q-49 -77 -137.5 -117.5t-202.5 -40.5q-164 0 -260.5 70t-96.5 205q2 67 25.5 118t60 85.5t99 62t126 44.5t158.5 36l220 39v57q0 97 -66 151t-178 54q-90 0 -164 -38.5t-174 -133.5l-102 92q101 110 205.5 161.5t230.5 51.5q187 0 295 -90
t108 -238zM836 365v143l-183 -37q-117 -23 -194 -49q-156 -53 -156 -172q0 -72 56 -111t159 -39q138 0 228 74t90 191zM709 -213v-207h-230v207h230z" />
    <glyph glyph-name="uni1EA2" unicode="&#x1ea2;" 
d="M958 0l-104 338h-522l-105 -338h-164l418 1315h226l417 -1315h-166zM375 477h436l-219 711zM569 1817q99 0 154 -41.5t55 -118.5q0 -72 -55 -133t-145 -97l-68 80q137 60 137 133q0 68 -102 68q-63 0 -119 -20l-20 104q67 25 163 25z" />
    <glyph glyph-name="uni1EA3" unicode="&#x1ea3;" 
d="M991 696v-696h-147v127q-49 -77 -137.5 -117.5t-202.5 -40.5q-164 0 -260.5 70t-96.5 205q2 67 25.5 118t60 85.5t99 62t126 44.5t158.5 36l220 39v57q0 97 -66 151t-178 54q-90 0 -164 -38.5t-174 -133.5l-102 92q101 110 205.5 161.5t230.5 51.5q187 0 295 -90
t108 -238zM836 365v143l-183 -37q-117 -23 -194 -49q-156 -53 -156 -172q0 -72 56 -111t159 -39q138 0 228 74t90 191zM575 1534q99 0 154 -41.5t55 -118.5q0 -72 -54.5 -132.5t-145.5 -96.5l-68 80q137 60 137 133q0 67 -102 67q-63 0 -119 -20l-20 104q67 25 163 25z" />
    <glyph glyph-name="uni1EA4" unicode="&#x1ea4;" 
d="M958 0l-104 338h-522l-105 -338h-164l418 1315h226l417 -1315h-166zM375 477h436l-219 711zM1165 1982l-190 -262h-141l141 262h190zM778 1468l-168 195l-168 -195h-157l211 289h231l209 -289h-158z" />
    <glyph glyph-name="uni1EA5" unicode="&#x1ea5;" 
d="M991 696v-696h-147v127q-49 -77 -137.5 -117.5t-202.5 -40.5q-164 0 -260.5 70t-96.5 205q2 67 25.5 118t60 85.5t99 62t126 44.5t158.5 36l220 39v57q0 97 -66 151t-178 54q-90 0 -164 -38.5t-174 -133.5l-102 92q101 110 205.5 161.5t230.5 51.5q187 0 295 -90
t108 -238zM836 365v143l-183 -37q-117 -23 -194 -49q-156 -53 -156 -172q0 -72 56 -111t159 -39q138 0 228 74t90 191zM1171 1700l-190 -262h-141l141 262h190zM784 1186l-168 194l-167 -194h-158l211 289h231l209 -289h-158z" />
    <glyph glyph-name="uni1EA6" unicode="&#x1ea6;" 
d="M958 0l-104 338h-522l-105 -338h-164l418 1315h226l417 -1315h-166zM375 477h436l-219 711zM690 1982h191l141 -262h-141zM768 1468l-168 195l-168 -195h-158l211 289h232l209 -289h-158z" />
    <glyph glyph-name="uni1EA7" unicode="&#x1ea7;" 
d="M991 696v-696h-147v127q-49 -77 -137.5 -117.5t-202.5 -40.5q-164 0 -260.5 70t-96.5 205q2 67 25.5 118t60 85.5t99 62t126 44.5t158.5 36l220 39v57q0 97 -66 151t-178 54q-90 0 -164 -38.5t-174 -133.5l-102 92q101 110 205.5 161.5t230.5 51.5q187 0 295 -90
t108 -238zM836 365v143l-183 -37q-117 -23 -194 -49q-156 -53 -156 -172q0 -72 56 -111t159 -39q138 0 228 74t90 191zM696 1700h191l141 -262h-141zM774 1186l-168 194l-168 -194h-157l211 289h231l209 -289h-158z" />
    <glyph glyph-name="uni1EA8" unicode="&#x1ea8;" 
d="M958 0l-104 338h-522l-105 -338h-164l418 1315h226l417 -1315h-166zM375 477h436l-219 711zM883 2042q95 0 149.5 -42t54.5 -116q0 -71 -53.5 -130t-144.5 -95l-66 78q133 62 133 131q0 33 -22.5 49t-75.5 16q-61 0 -117 -20l-20 104q77 25 162 25zM768 1468l-168 195
l-168 -195h-158l211 289h232l209 -289h-158z" />
    <glyph glyph-name="uni1EA9" unicode="&#x1ea9;" 
d="M991 696v-696h-147v127q-49 -77 -137.5 -117.5t-202.5 -40.5q-164 0 -260.5 70t-96.5 205q2 67 25.5 118t60 85.5t99 62t126 44.5t158.5 36l220 39v57q0 97 -66 151t-178 54q-90 0 -164 -38.5t-174 -133.5l-102 92q101 110 205.5 161.5t230.5 51.5q187 0 295 -90
t108 -238zM836 365v143l-183 -37q-117 -23 -194 -49q-156 -53 -156 -172q0 -72 56 -111t159 -39q138 0 228 74t90 191zM891 1759q95 0 150 -41.5t55 -115.5q0 -71 -54 -130.5t-145 -95.5l-66 78q134 62 134 131q0 66 -99 66q-58 0 -116 -21l-21 105q73 24 162 24zM776 1186
l-168 194l-168 -194h-157l211 289h231l209 -289h-158z" />
    <glyph glyph-name="uni1EAA" unicode="&#x1eaa;" 
d="M958 0l-104 338h-522l-105 -338h-164l418 1315h226l417 -1315h-166zM375 477h436l-219 711zM631 1999q25 -16 37 -23t27 -12.5t30 -5.5q34 0 48.5 24.5t14.5 77.5h115q0 -105 -46 -165t-126 -60q-38 0 -67.5 12t-81.5 43q-62 45 -109 45q-72 0 -72 -100h-114
q0 108 47.5 166.5t134.5 58.5q45 0 79.5 -14t82.5 -47zM762 1468l-168 195l-168 -195h-158l211 289h232l209 -289h-158z" />
    <glyph glyph-name="uni1EAB" unicode="&#x1eab;" 
d="M991 696v-696h-147v127q-49 -77 -137.5 -117.5t-202.5 -40.5q-164 0 -260.5 70t-96.5 205q2 67 25.5 118t60 85.5t99 62t126 44.5t158.5 36l220 39v57q0 97 -66 151t-178 54q-90 0 -164 -38.5t-174 -133.5l-102 92q101 110 205.5 161.5t230.5 51.5q187 0 295 -90
t108 -238zM836 365v143l-183 -37q-117 -23 -194 -49q-156 -53 -156 -172q0 -72 56 -111t159 -39q138 0 228 74t90 191zM637 1716q25 -16 37 -23t27 -12.5t30 -5.5q34 0 49 25t15 78h114q0 -105 -46 -165.5t-126 -60.5q-37 0 -66.5 12t-82.5 44q-62 45 -109 45
q-71 0 -71 -101h-115q0 108 47.5 167t134.5 59q44 0 79 -14t83 -48zM768 1186l-168 194l-168 -194h-158l211 289h232l209 -289h-158z" />
    <glyph glyph-name="uni1EAC" unicode="&#x1eac;" 
d="M958 0l-104 338h-522l-105 -338h-164l418 1315h226l417 -1315h-166zM375 477h436l-219 711zM709 -213v-207h-230v207h230zM762 1468l-168 195l-168 -195h-158l211 289h232l209 -289h-158z" />
    <glyph glyph-name="uni1EAD" unicode="&#x1ead;" 
d="M991 696v-696h-147v127q-49 -77 -137.5 -117.5t-202.5 -40.5q-164 0 -260.5 70t-96.5 205q2 67 25.5 118t60 85.5t99 62t126 44.5t158.5 36l220 39v57q0 97 -66 151t-178 54q-90 0 -164 -38.5t-174 -133.5l-102 92q101 110 205.5 161.5t230.5 51.5q187 0 295 -90
t108 -238zM836 365v143l-183 -37q-117 -23 -194 -49q-156 -53 -156 -172q0 -72 56 -111t159 -39q138 0 228 74t90 191zM709 -213v-207h-230v207h230zM768 1186l-168 194l-168 -194h-158l211 289h232l209 -289h-158z" />
    <glyph glyph-name="uni1EAE" unicode="&#x1eae;" 
d="M958 0l-104 338h-522l-105 -338h-164l418 1315h226l417 -1315h-166zM375 477h436l-219 711zM852 2048l-190 -262h-142l144 262h188zM287 1729h131q5 -69 50 -111.5t124 -42.5t125 42.5t51 111.5h131q0 -119 -86.5 -198t-220.5 -79q-132 0 -219 78q-86 80 -86 199z" />
    <glyph glyph-name="uni1EAF" unicode="&#x1eaf;" 
d="M991 696v-696h-147v127q-49 -77 -137.5 -117.5t-202.5 -40.5q-164 0 -260.5 70t-96.5 205q2 67 25.5 118t60 85.5t99 62t126 44.5t158.5 36l220 39v57q0 97 -66 151t-178 54q-90 0 -164 -38.5t-174 -133.5l-102 92q101 110 205.5 161.5t230.5 51.5q187 0 295 -90
t108 -238zM836 365v143l-183 -37q-117 -23 -194 -49q-156 -53 -156 -172q0 -72 56 -111t159 -39q138 0 228 74t90 191zM858 1765l-190 -262h-142l144 262h188zM293 1446h131q5 -69 50 -111.5t124 -42.5t125 42.5t51 111.5h131q0 -119 -86.5 -198t-220.5 -79q-132 0 -219 78
q-86 80 -86 199z" />
    <glyph glyph-name="uni1EB0" unicode="&#x1eb0;" 
d="M958 0l-104 338h-522l-105 -338h-164l418 1315h226l417 -1315h-166zM375 477h436l-219 711zM346 2048h189l141 -262h-139zM287 1729h131q5 -69 50 -111.5t124 -42.5t125 42.5t51 111.5h131q0 -119 -86.5 -198t-220.5 -79q-132 0 -219 78q-86 80 -86 199z" />
    <glyph glyph-name="uni1EB1" unicode="&#x1eb1;" 
d="M991 696v-696h-147v127q-49 -77 -137.5 -117.5t-202.5 -40.5q-164 0 -260.5 70t-96.5 205q2 67 25.5 118t60 85.5t99 62t126 44.5t158.5 36l220 39v57q0 97 -66 151t-178 54q-90 0 -164 -38.5t-174 -133.5l-102 92q101 110 205.5 161.5t230.5 51.5q187 0 295 -90
t108 -238zM836 365v143l-183 -37q-117 -23 -194 -49q-156 -53 -156 -172q0 -72 56 -111t159 -39q138 0 228 74t90 191zM352 1765h189l141 -262h-139zM293 1446h131q5 -69 50 -111.5t124 -42.5t125 42.5t51 111.5h131q0 -119 -86.5 -198t-220.5 -79q-132 0 -219 78
q-86 80 -86 199z" />
    <glyph glyph-name="uni1EB2" unicode="&#x1eb2;" 
d="M958 0l-104 338h-522l-105 -338h-164l418 1315h226l417 -1315h-166zM375 477h436l-219 711zM575 2091q95 0 150 -42t55 -116q0 -71 -53 -129.5t-143 -95.5l-66 78q59 26 96 60t37 69t-23 51t-77 16q-61 0 -117 -20l-18 102q68 27 159 27zM287 1729h131q5 -69 50 -111.5
t124 -42.5t125 42.5t51 111.5h131q0 -119 -86.5 -198t-220.5 -79q-132 0 -219 78q-86 80 -86 199z" />
    <glyph glyph-name="uni1EB3" unicode="&#x1eb3;" 
d="M991 696v-696h-147v127q-49 -77 -137.5 -117.5t-202.5 -40.5q-164 0 -260.5 70t-96.5 205q2 67 25.5 118t60 85.5t99 62t126 44.5t158.5 36l220 39v57q0 97 -66 151t-178 54q-90 0 -164 -38.5t-174 -133.5l-102 92q101 110 205.5 161.5t230.5 51.5q187 0 295 -90
t108 -238zM836 365v143l-183 -37q-117 -23 -194 -49q-156 -53 -156 -172q0 -72 56 -111t159 -39q138 0 228 74t90 191zM582 1808q95 0 149.5 -41.5t54.5 -115.5q0 -71 -53.5 -130t-142.5 -96l-66 78q59 26 96 60t37 69q0 36 -23.5 52t-76.5 16q-59 0 -117 -21l-18 103
q65 26 160 26zM293 1446h131q5 -69 50 -111.5t124 -42.5t125 42.5t51 111.5h131q0 -119 -86.5 -198t-220.5 -79q-132 0 -219 78q-86 80 -86 199z" />
    <glyph glyph-name="uni1EB4" unicode="&#x1eb4;" 
d="M958 0l-104 338h-522l-105 -338h-164l418 1315h226l417 -1315h-166zM375 477h436l-219 711zM631 2001q25 -16 37 -23t27 -12.5t30 -5.5q34 0 48.5 24t14.5 76h115q0 -105 -46 -165t-126 -60q-38 0 -67.5 12t-81.5 43q-62 45 -109 45q-72 0 -72 -100h-114
q0 108 47.5 166.5t134.5 58.5q44 0 75.5 -12.5t86.5 -46.5zM289 1729h131q5 -69 50 -111.5t124 -42.5t125 42.5t51 111.5h131q0 -119 -86.5 -198t-220.5 -79q-132 0 -219 78q-86 80 -86 199z" />
    <glyph glyph-name="uni1EB5" unicode="&#x1eb5;" 
d="M991 696v-696h-147v127q-49 -77 -137.5 -117.5t-202.5 -40.5q-164 0 -260.5 70t-96.5 205q2 67 25.5 118t60 85.5t99 62t126 44.5t158.5 36l220 39v57q0 97 -66 151t-178 54q-90 0 -164 -38.5t-174 -133.5l-102 92q101 110 205.5 161.5t230.5 51.5q187 0 295 -90
t108 -238zM836 365v143l-183 -37q-117 -23 -194 -49q-156 -53 -156 -172q0 -72 56 -111t159 -39q138 0 228 74t90 191zM637 1718q25 -16 37 -23t27 -12.5t30 -5.5q35 0 49.5 24.5t14.5 76.5h114q0 -105 -46 -165.5t-126 -60.5q-37 0 -66.5 12t-82.5 44q-62 45 -109 45
q-71 0 -71 -101h-115q0 108 47.5 167t134.5 59q44 0 75 -12.5t87 -47.5zM295 1446h131q5 -69 50 -111.5t124 -42.5t125 42.5t51 111.5h131q0 -119 -86.5 -198t-220.5 -79q-132 0 -219 78q-86 80 -86 199z" />
    <glyph glyph-name="uni1EB6" unicode="&#x1eb6;" 
d="M958 0l-104 338h-522l-105 -338h-164l418 1315h226l417 -1315h-166zM375 477h436l-219 711zM709 -213v-207h-230v207h230zM289 1729h131q5 -69 50 -111.5t124 -42.5t125 42.5t51 111.5h131q0 -119 -86.5 -198t-220.5 -79q-132 0 -219 78q-86 80 -86 199z" />
    <glyph glyph-name="uni1EB7" unicode="&#x1eb7;" 
d="M991 696v-696h-147v127q-49 -77 -137.5 -117.5t-202.5 -40.5q-164 0 -260.5 70t-96.5 205q2 67 25.5 118t60 85.5t99 62t126 44.5t158.5 36l220 39v57q0 97 -66 151t-178 54q-90 0 -164 -38.5t-174 -133.5l-102 92q101 110 205.5 161.5t230.5 51.5q187 0 295 -90
t108 -238zM836 365v143l-183 -37q-117 -23 -194 -49q-156 -53 -156 -172q0 -72 56 -111t159 -39q138 0 228 74t90 191zM709 -213v-207h-230v207h230zM295 1446h131q5 -69 50 -111.5t124 -42.5t125 42.5t51 111.5h131q0 -119 -86.5 -198t-220.5 -79q-132 0 -219 78
q-86 80 -86 199z" />
    <glyph glyph-name="uni1EB8" unicode="&#x1eb8;" 
d="M1034 1315v-139h-647v-428h598v-140h-598v-469h666v-139h-832v1315h813zM709 -213v-207h-230v207h230z" />
    <glyph glyph-name="uni1EB9" unicode="&#x1eb9;" 
d="M987 289l94 -99q-116 -117 -223.5 -167t-236.5 -50q-225 0 -359 140q-131 140 -131 374q0 236 131.5 385.5t341.5 149.5q214 0 333.5 -127t119.5 -348q0 -28 -4 -74h-762q6 -167 91.5 -267t240.5 -100q96 0 177.5 41.5t186.5 141.5zM297 598h602q-6 132 -84.5 211.5
t-210.5 79.5q-125 0 -206 -75.5t-101 -215.5zM727 -213v-207h-229v207h229z" />
    <glyph glyph-name="uni1EBA" unicode="&#x1eba;" 
d="M1034 1315v-139h-647v-428h598v-140h-598v-469h666v-139h-832v1315h813zM635 1817q99 0 154 -41.5t55 -118.5q0 -72 -55 -133t-146 -97l-68 80q63 28 100.5 62t37.5 71q0 68 -103 68q-62 0 -118 -20l-21 104q67 25 164 25z" />
    <glyph glyph-name="uni1EBB" unicode="&#x1ebb;" 
d="M987 289l94 -99q-116 -117 -223.5 -167t-236.5 -50q-225 0 -359 140q-131 140 -131 374q0 236 131.5 385.5t341.5 149.5q214 0 333.5 -127t119.5 -348q0 -28 -4 -74h-762q6 -167 91.5 -267t240.5 -100q96 0 177.5 41.5t186.5 141.5zM297 598h602q-6 132 -84.5 211.5
t-210.5 79.5q-125 0 -206 -75.5t-101 -215.5zM590 1534q99 0 154 -41.5t55 -118.5q0 -71 -55 -132t-146 -97l-68 80q63 28 100.5 62t37.5 71q0 67 -103 67q-63 0 -119 -20l-20 104q67 25 164 25z" />
    <glyph glyph-name="uni1EBC" unicode="&#x1ebc;" 
d="M1034 1315v-139h-647v-428h598v-140h-598v-469h666v-139h-832v1315h813zM698 1647q60 -43 97 -43q36 0 51.5 25.5t15.5 78.5h119q0 -110 -47.5 -170.5t-132.5 -60.5q-73 0 -156 57q-71 45 -113 45q-73 0 -73 -102h-119q0 110 49.5 170.5t140.5 60.5q46 0 81 -13.5
t87 -47.5z" />
    <glyph glyph-name="uni1EBD" unicode="&#x1ebd;" 
d="M987 289l94 -99q-116 -117 -223.5 -167t-236.5 -50q-225 0 -359 140q-131 140 -131 374q0 236 131.5 385.5t341.5 149.5q214 0 333.5 -127t119.5 -348q0 -28 -4 -74h-762q6 -167 91.5 -267t240.5 -100q96 0 177.5 41.5t186.5 141.5zM297 598h602q-6 132 -84.5 211.5
t-210.5 79.5q-125 0 -206 -75.5t-101 -215.5zM653 1364q60 -43 97 -43q36 0 51.5 25.5t15.5 78.5h119q0 -110 -47.5 -170.5t-132.5 -60.5q-73 0 -156 57q-71 45 -113 45q-73 0 -73 -102h-119q0 110 49.5 170.5t140.5 60.5q46 0 81 -13.5t87 -47.5z" />
    <glyph glyph-name="uni1EBE" unicode="&#x1ebe;" 
d="M1034 1315v-139h-647v-428h598v-140h-598v-469h666v-139h-832v1315h813zM1231 1982l-191 -262h-141l141 262h191zM844 1468l-168 195l-168 -195h-158l211 289h232l208 -289h-157z" />
    <glyph glyph-name="uni1EBF" unicode="&#x1ebf;" 
d="M987 289l94 -99q-116 -117 -223.5 -167t-236.5 -50q-225 0 -359 140q-131 140 -131 374q0 236 131.5 385.5t341.5 149.5q214 0 333.5 -127t119.5 -348q0 -28 -4 -74h-762q6 -167 91.5 -267t240.5 -100q96 0 177.5 41.5t186.5 141.5zM297 598h602q-6 132 -84.5 211.5
t-210.5 79.5q-125 0 -206 -75.5t-101 -215.5zM1186 1700l-191 -262h-141l141 262h191zM799 1186l-168 194l-168 -194h-158l211 289h232l208 -289h-157z" />
    <glyph glyph-name="uni1EC0" unicode="&#x1ec0;" 
d="M1034 1315v-139h-647v-428h598v-140h-598v-469h666v-139h-832v1315h813zM756 1982h190l141 -262h-141zM834 1468l-168 195l-168 -195h-158l211 289h231l209 -289h-157z" />
    <glyph glyph-name="uni1EC1" unicode="&#x1ec1;" 
d="M987 289l94 -99q-116 -117 -223.5 -167t-236.5 -50q-225 0 -359 140q-131 140 -131 374q0 236 131.5 385.5t341.5 149.5q214 0 333.5 -127t119.5 -348q0 -28 -4 -74h-762q6 -167 91.5 -267t240.5 -100q96 0 177.5 41.5t186.5 141.5zM297 598h602q-6 132 -84.5 211.5
t-210.5 79.5q-125 0 -206 -75.5t-101 -215.5zM711 1700h190l141 -262h-141zM788 1186l-167 194l-168 -194h-158l211 289h231l209 -289h-158z" />
    <glyph glyph-name="uni1EC2" unicode="&#x1ec2;" 
d="M1034 1315v-139h-647v-428h598v-140h-598v-469h666v-139h-832v1315h813zM948 2042q95 0 150 -42t55 -116q0 -71 -54 -129.5t-145 -95.5l-65 78q133 62 133 131q0 33 -22.5 49t-75.5 16q-61 0 -117 -20l-21 104q77 25 162 25zM834 1468l-168 195l-168 -195h-158l211 289
h231l209 -289h-157z" />
    <glyph glyph-name="uni1EC3" unicode="&#x1ec3;" 
d="M987 289l94 -99q-116 -117 -223.5 -167t-236.5 -50q-225 0 -359 140q-131 140 -131 374q0 236 131.5 385.5t341.5 149.5q214 0 333.5 -127t119.5 -348q0 -28 -4 -74h-762q6 -167 91.5 -267t240.5 -100q96 0 177.5 41.5t186.5 141.5zM297 598h602q-6 132 -84.5 211.5
t-210.5 79.5q-125 0 -206 -75.5t-101 -215.5zM905 1759q95 0 150 -41.5t55 -115.5q0 -71 -54 -130.5t-145 -95.5l-65 78q133 62 133 131q0 33 -23 49.5t-75 16.5q-59 0 -117 -21l-21 105q73 24 162 24zM791 1186l-168 194l-168 -194h-158l211 289h231l209 -289h-157z" />
    <glyph glyph-name="uni1EC4" unicode="&#x1ec4;" 
d="M1034 1315v-139h-647v-428h598v-140h-598v-469h666v-139h-832v1315h813zM696 1999q62 -41 95 -41q34 0 48.5 24.5t14.5 77.5h115q0 -105 -46 -165t-126 -60q-38 0 -68.5 12t-81.5 43q-62 45 -108 45q-72 0 -72 -100h-115q0 108 48 166.5t135 58.5q45 0 79 -14t82 -47z
M827 1468l-168 195l-167 -195h-158l211 289h231l209 -289h-158z" />
    <glyph glyph-name="uni1EC5" unicode="&#x1ec5;" 
d="M987 289l94 -99q-116 -117 -223.5 -167t-236.5 -50q-225 0 -359 140q-131 140 -131 374q0 236 131.5 385.5t341.5 149.5q214 0 333.5 -127t119.5 -348q0 -28 -4 -74h-762q6 -167 91.5 -267t240.5 -100q96 0 177.5 41.5t186.5 141.5zM297 598h602q-6 132 -84.5 211.5
t-210.5 79.5q-125 0 -206 -75.5t-101 -215.5zM651 1716q25 -16 37 -23t27 -12.5t30 -5.5q34 0 49 25t15 78h115q0 -105 -46 -165.5t-126 -60.5q-38 0 -67.5 12.5t-82.5 43.5q-62 45 -108 45q-72 0 -72 -101h-115q0 108 47.5 167t134.5 59q44 0 79 -14t83 -48zM782 1186
l-168 194l-168 -194h-157l211 289h231l209 -289h-158z" />
    <glyph glyph-name="uni1EC6" unicode="&#x1ec6;" 
d="M1034 1315v-139h-647v-428h598v-140h-598v-469h666v-139h-832v1315h813zM709 -213v-207h-230v207h230zM827 1468l-168 195l-167 -195h-158l211 289h231l209 -289h-158z" />
    <glyph glyph-name="uni1EC7" unicode="&#x1ec7;" 
d="M987 289l94 -99q-116 -117 -223.5 -167t-236.5 -50q-225 0 -359 140q-131 140 -131 374q0 236 131.5 385.5t341.5 149.5q214 0 333.5 -127t119.5 -348q0 -28 -4 -74h-762q6 -167 91.5 -267t240.5 -100q96 0 177.5 41.5t186.5 141.5zM297 598h602q-6 132 -84.5 211.5
t-210.5 79.5q-125 0 -206 -75.5t-101 -215.5zM727 -213v-207h-229v207h229zM782 1186l-168 194l-168 -194h-157l211 289h231l209 -289h-158z" />
    <glyph glyph-name="uni1EC8" unicode="&#x1ec8;" 
d="M1012 1184h-334v-1053h334v-131h-836v131h334v1053h-334v131h836v-131zM569 1817q99 0 154 -41.5t55 -118.5q0 -72 -55 -133t-145 -97l-68 80q137 60 137 133q0 68 -102 68q-63 0 -119 -20l-20 104q67 25 163 25z" />
    <glyph glyph-name="uni1EC9" unicode="&#x1ec9;" 
d="M713 131h360v-131h-909v131h389v731h-317v131h477v-862zM588 1534q99 0 154 -41.5t55 -118.5q0 -71 -55 -132t-146 -97l-68 80q63 28 100.5 62t37.5 71q0 67 -103 67q-63 0 -119 -20l-20 104q67 25 164 25z" />
    <glyph glyph-name="uni1ECA" unicode="&#x1eca;" 
d="M1012 1184h-334v-1053h334v-131h-836v131h334v1053h-334v131h836v-131zM709 -213v-207h-230v207h230z" />
    <glyph glyph-name="uni1ECB" unicode="&#x1ecb;" 
d="M713 131h360v-131h-909v131h389v731h-317v131h477v-862zM727 1425v-211h-229v211h229zM748 -213v-207h-230v207h230z" />
    <glyph glyph-name="uni1ECC" unicode="&#x1ecc;" 
d="M92 657q0 309 127 498q129 191 377 191q249 0 375 -191q127 -189 127 -498q0 -310 -127 -499t-375 -189q-247 0 -377 189q-127 189 -127 499zM930 657q0 256 -85 399.5t-249 143.5t-250 -144t-86 -399t86 -398.5t250 -143.5t249 143t85 399zM709 -213v-207h-230v207h230z
" />
    <glyph glyph-name="uni1ECD" unicode="&#x1ecd;" 
d="M1071 496q0 -232 -132 -377.5t-345 -145.5q-212 0 -343.5 145.5t-131.5 377.5q0 234 131.5 380t343.5 146q213 0 345 -146t132 -380zM283 496q0 -179 83 -284.5t228 -105.5q146 0 229.5 105.5t83.5 284.5q0 180 -83.5 286.5t-229.5 106.5t-228.5 -106t-82.5 -287z
M709 -213v-207h-230v207h230z" />
    <glyph glyph-name="uni1ECE" unicode="&#x1ece;" 
d="M92 657q0 309 127 498q129 191 377 191q249 0 375 -191q127 -189 127 -498q0 -310 -127 -499t-375 -189q-247 0 -377 189q-127 189 -127 499zM930 657q0 256 -85 399.5t-249 143.5t-250 -144t-86 -399t86 -398.5t250 -143.5t249 143t85 399zM569 1817q99 0 154 -41.5
t55 -118.5q0 -72 -55 -133t-145 -97l-68 80q137 60 137 133q0 68 -102 68q-63 0 -119 -20l-20 104q67 25 163 25z" />
    <glyph glyph-name="uni1ECF" unicode="&#x1ecf;" 
d="M1071 496q0 -232 -132 -377.5t-345 -145.5q-212 0 -343.5 145.5t-131.5 377.5q0 234 131.5 380t343.5 146q213 0 345 -146t132 -380zM283 496q0 -179 83 -284.5t228 -105.5q146 0 229.5 105.5t83.5 284.5q0 180 -83.5 286.5t-229.5 106.5t-228.5 -106t-82.5 -287z
M569 1534q99 0 154 -41.5t55 -118.5q0 -72 -54.5 -132.5t-145.5 -96.5l-68 80q137 60 137 133q0 67 -102 67q-63 0 -119 -20l-20 104q67 25 163 25z" />
    <glyph glyph-name="uni1ED0" unicode="&#x1ed0;" 
d="M92 657q0 309 127 498q129 191 377 191q249 0 375 -191q127 -189 127 -498q0 -310 -127 -499t-375 -189q-247 0 -377 189q-127 189 -127 499zM930 657q0 256 -85 399.5t-249 143.5t-250 -144t-86 -399t86 -398.5t250 -143.5t249 143t85 399zM1165 1982l-190 -262h-141
l141 262h190zM778 1468l-168 195l-168 -195h-157l211 289h231l209 -289h-158z" />
    <glyph glyph-name="uni1ED1" unicode="&#x1ed1;" 
d="M1071 496q0 -232 -132 -377.5t-345 -145.5q-212 0 -343.5 145.5t-131.5 377.5q0 234 131.5 380t343.5 146q213 0 345 -146t132 -380zM283 496q0 -179 83 -284.5t228 -105.5q146 0 229.5 105.5t83.5 284.5q0 180 -83.5 286.5t-229.5 106.5t-228.5 -106t-82.5 -287z
M1165 1700l-190 -262h-141l141 262h190zM778 1186l-168 194l-168 -194h-157l211 289h231l209 -289h-158z" />
    <glyph glyph-name="uni1ED2" unicode="&#x1ed2;" 
d="M92 657q0 309 127 498q129 191 377 191q249 0 375 -191q127 -189 127 -498q0 -310 -127 -499t-375 -189q-247 0 -377 189q-127 189 -127 499zM930 657q0 256 -85 399.5t-249 143.5t-250 -144t-86 -399t86 -398.5t250 -143.5t249 143t85 399zM690 1982h191l141 -262h-141z
M768 1468l-168 195l-168 -195h-158l211 289h232l209 -289h-158z" />
    <glyph glyph-name="uni1ED3" unicode="&#x1ed3;" 
d="M1071 496q0 -232 -132 -377.5t-345 -145.5q-212 0 -343.5 145.5t-131.5 377.5q0 234 131.5 380t343.5 146q213 0 345 -146t132 -380zM283 496q0 -179 83 -284.5t228 -105.5q146 0 229.5 105.5t83.5 284.5q0 180 -83.5 286.5t-229.5 106.5t-228.5 -106t-82.5 -287z
M690 1700h191l141 -262h-141zM768 1186l-168 194l-168 -194h-158l211 289h232l209 -289h-158z" />
    <glyph glyph-name="uni1ED4" unicode="&#x1ed4;" 
d="M92 657q0 309 127 498q129 191 377 191q249 0 375 -191q127 -189 127 -498q0 -310 -127 -499t-375 -189q-247 0 -377 189q-127 189 -127 499zM930 657q0 256 -85 399.5t-249 143.5t-250 -144t-86 -399t86 -398.5t250 -143.5t249 143t85 399zM883 2042q95 0 149.5 -42
t54.5 -116q0 -71 -53.5 -130t-144.5 -95l-66 78q133 62 133 131q0 33 -22.5 49t-75.5 16q-61 0 -117 -20l-20 104q77 25 162 25zM768 1468l-168 195l-168 -195h-158l211 289h232l209 -289h-158z" />
    <glyph glyph-name="uni1ED5" unicode="&#x1ed5;" 
d="M1071 496q0 -232 -132 -377.5t-345 -145.5q-212 0 -343.5 145.5t-131.5 377.5q0 234 131.5 380t343.5 146q213 0 345 -146t132 -380zM283 496q0 -179 83 -284.5t228 -105.5q146 0 229.5 105.5t83.5 284.5q0 180 -83.5 286.5t-229.5 106.5t-228.5 -106t-82.5 -287z
M883 1759q95 0 149.5 -41.5t54.5 -115.5q0 -71 -53.5 -130.5t-144.5 -95.5l-66 78q133 62 133 131q0 33 -23 49.5t-75 16.5q-58 0 -117 -21l-20 105q73 24 162 24zM768 1186l-168 194l-168 -194h-158l211 289h232l209 -289h-158z" />
    <glyph glyph-name="uni1ED6" unicode="&#x1ed6;" 
d="M92 657q0 309 127 498q129 191 377 191q249 0 375 -191q127 -189 127 -498q0 -310 -127 -499t-375 -189q-247 0 -377 189q-127 189 -127 499zM930 657q0 256 -85 399.5t-249 143.5t-250 -144t-86 -399t86 -398.5t250 -143.5t249 143t85 399zM631 1999q25 -16 37 -23
t27 -12.5t30 -5.5q34 0 48.5 24.5t14.5 77.5h115q0 -105 -46 -165t-126 -60q-38 0 -67.5 12t-81.5 43q-62 45 -109 45q-72 0 -72 -100h-114q0 108 47.5 166.5t134.5 58.5q45 0 79.5 -14t82.5 -47zM762 1468l-168 195l-168 -195h-158l211 289h232l209 -289h-158z" />
    <glyph glyph-name="uni1ED7" unicode="&#x1ed7;" 
d="M1071 496q0 -232 -132 -377.5t-345 -145.5q-212 0 -343.5 145.5t-131.5 377.5q0 234 131.5 380t343.5 146q213 0 345 -146t132 -380zM283 496q0 -179 83 -284.5t228 -105.5q146 0 229.5 105.5t83.5 284.5q0 180 -83.5 286.5t-229.5 106.5t-228.5 -106t-82.5 -287z
M631 1716q25 -16 37 -23t27 -12.5t30 -5.5q34 0 48.5 25t14.5 78h115q0 -105 -46 -165.5t-126 -60.5q-37 0 -66.5 12t-82.5 44q-62 45 -109 45q-72 0 -72 -101h-114q0 108 47.5 167t134.5 59q44 0 79 -14t83 -48zM762 1186l-168 194l-168 -194h-158l211 289h232l209 -289
h-158z" />
    <glyph glyph-name="uni1ED8" unicode="&#x1ed8;" 
d="M92 657q0 309 127 498q129 191 377 191q249 0 375 -191q127 -189 127 -498q0 -310 -127 -499t-375 -189q-247 0 -377 189q-127 189 -127 499zM930 657q0 256 -85 399.5t-249 143.5t-250 -144t-86 -399t86 -398.5t250 -143.5t249 143t85 399zM709 -213v-207h-230v207h230z
M762 1468l-168 195l-168 -195h-158l211 289h232l209 -289h-158z" />
    <glyph glyph-name="uni1ED9" unicode="&#x1ed9;" 
d="M1071 496q0 -232 -132 -377.5t-345 -145.5q-212 0 -343.5 145.5t-131.5 377.5q0 234 131.5 380t343.5 146q213 0 345 -146t132 -380zM283 496q0 -179 83 -284.5t228 -105.5q146 0 229.5 105.5t83.5 284.5q0 180 -83.5 286.5t-229.5 106.5t-228.5 -106t-82.5 -287z
M709 -213v-207h-230v207h230zM762 1186l-168 194l-168 -194h-158l211 289h232l209 -289h-158z" />
    <glyph glyph-name="uni1EDA" unicode="&#x1eda;" 
d="M1098 657q0 -310 -127 -499t-375 -189q-247 0 -377 189q-127 189 -127 499q0 309 127 498q129 191 377 191q97 0 176 -31h41q73 0 97 32t24 140h147q0 -140 -32.5 -202t-116.5 -81q81 -90 123.5 -231t42.5 -316zM930 657q0 256 -85 399.5t-249 143.5t-250 -144t-86 -399
t86 -398.5t250 -143.5t249 143t85 399zM848 1757l-209 -289h-156l156 289h209z" />
    <glyph glyph-name="uni1EDB" unicode="&#x1edb;" 
d="M940 877q131 -143 131 -381q0 -232 -132 -377.5t-345 -145.5q-212 0 -343.5 145.5t-131.5 377.5q0 234 131.5 380t343.5 146q83 0 172 -29h90q73 0 97 32t24 140h147q0 -153 -38.5 -214.5t-145.5 -73.5zM907 496q0 180 -83.5 286.5t-229.5 106.5t-228.5 -106t-82.5 -287
q0 -179 83 -284.5t228 -105.5q146 0 229.5 105.5t83.5 284.5zM848 1475l-209 -289h-156l156 289h209z" />
    <glyph glyph-name="uni1EDC" unicode="&#x1edc;" 
d="M1098 657q0 -310 -127 -499t-375 -189q-247 0 -377 189q-127 189 -127 499q0 309 127 498q129 191 377 191q97 0 176 -31h41q73 0 97 32t24 140h147q0 -140 -32.5 -202t-116.5 -81q81 -90 123.5 -231t42.5 -316zM930 657q0 256 -85 399.5t-249 143.5t-250 -144t-86 -399
t86 -398.5t250 -143.5t249 143t85 399zM342 1757h207l156 -289h-154z" />
    <glyph glyph-name="uni1EDD" unicode="&#x1edd;" 
d="M940 877q131 -143 131 -381q0 -232 -132 -377.5t-345 -145.5q-212 0 -343.5 145.5t-131.5 377.5q0 234 131.5 380t343.5 146q83 0 172 -29h90q73 0 97 32t24 140h147q0 -153 -38.5 -214.5t-145.5 -73.5zM907 496q0 180 -83.5 286.5t-229.5 106.5t-228.5 -106t-82.5 -287
q0 -179 83 -284.5t228 -105.5q146 0 229.5 105.5t83.5 284.5zM342 1475h207l156 -289h-154z" />
    <glyph glyph-name="uni1EDE" unicode="&#x1ede;" 
d="M1098 657q0 -310 -127 -499t-375 -189q-247 0 -377 189q-127 189 -127 499q0 309 127 498q129 191 377 191q97 0 176 -31h41q73 0 97 32t24 140h147q0 -140 -32.5 -202t-116.5 -81q81 -90 123.5 -231t42.5 -316zM930 657q0 256 -85 399.5t-249 143.5t-250 -144t-86 -399
t86 -398.5t250 -143.5t249 143t85 399zM569 1817q99 0 154 -41.5t55 -118.5q0 -72 -55 -133t-145 -97l-68 80q137 60 137 133q0 68 -102 68q-63 0 -119 -20l-20 104q67 25 163 25z" />
    <glyph glyph-name="uni1EDF" unicode="&#x1edf;" 
d="M940 877q131 -143 131 -381q0 -232 -132 -377.5t-345 -145.5q-212 0 -343.5 145.5t-131.5 377.5q0 234 131.5 380t343.5 146q83 0 172 -29h90q73 0 97 32t24 140h147q0 -153 -38.5 -214.5t-145.5 -73.5zM907 496q0 180 -83.5 286.5t-229.5 106.5t-228.5 -106t-82.5 -287
q0 -179 83 -284.5t228 -105.5q146 0 229.5 105.5t83.5 284.5zM569 1534q99 0 154 -41.5t55 -118.5q0 -72 -54.5 -132.5t-145.5 -96.5l-68 80q137 60 137 133q0 67 -102 67q-63 0 -119 -20l-20 104q67 25 163 25z" />
    <glyph glyph-name="uni1EE0" unicode="&#x1ee0;" 
d="M1098 657q0 -310 -127 -499t-375 -189q-247 0 -377 189q-127 189 -127 499q0 309 127 498q129 191 377 191q97 0 176 -31h41q73 0 97 32t24 140h147q0 -140 -32.5 -202t-116.5 -81q81 -90 123.5 -231t42.5 -316zM930 657q0 256 -85 399.5t-249 143.5t-250 -144t-86 -399
t86 -398.5t250 -143.5t249 143t85 399zM633 1647q34 -24 54 -33.5t42 -9.5q68 0 68 104h118q0 -110 -47.5 -170.5t-132.5 -60.5q-72 0 -155 57q-71 45 -113 45q-36 0 -55 -27t-19 -75h-119q0 110 50 170.5t141 60.5q46 0 81 -13.5t87 -47.5z" />
    <glyph glyph-name="uni1EE1" unicode="&#x1ee1;" 
d="M940 877q131 -143 131 -381q0 -232 -132 -377.5t-345 -145.5q-212 0 -343.5 145.5t-131.5 377.5q0 234 131.5 380t343.5 146q83 0 172 -29h90q73 0 97 32t24 140h147q0 -153 -38.5 -214.5t-145.5 -73.5zM907 496q0 180 -83.5 286.5t-229.5 106.5t-228.5 -106t-82.5 -287
q0 -179 83 -284.5t228 -105.5q146 0 229.5 105.5t83.5 284.5zM633 1364q34 -24 54 -33.5t42 -9.5q68 0 68 104h118q0 -110 -47.5 -170.5t-132.5 -60.5q-72 0 -155 57q-71 45 -113 45q-36 0 -55 -27t-19 -75h-119q0 110 50 170.5t141 60.5q46 0 81 -13.5t87 -47.5z" />
    <glyph glyph-name="uni1EE2" unicode="&#x1ee2;" 
d="M1098 657q0 -310 -127 -499t-375 -189q-247 0 -377 189q-127 189 -127 499q0 309 127 498q129 191 377 191q97 0 176 -31h41q73 0 97 32t24 140h147q0 -140 -32.5 -202t-116.5 -81q81 -90 123.5 -231t42.5 -316zM930 657q0 256 -85 399.5t-249 143.5t-250 -144t-86 -399
t86 -398.5t250 -143.5t249 143t85 399zM709 -213v-207h-230v207h230z" />
    <glyph glyph-name="uni1EE3" unicode="&#x1ee3;" 
d="M940 877q131 -143 131 -381q0 -232 -132 -377.5t-345 -145.5q-212 0 -343.5 145.5t-131.5 377.5q0 234 131.5 380t343.5 146q83 0 172 -29h90q73 0 97 32t24 140h147q0 -153 -38.5 -214.5t-145.5 -73.5zM907 496q0 180 -83.5 286.5t-229.5 106.5t-228.5 -106t-82.5 -287
q0 -179 83 -284.5t228 -105.5q146 0 229.5 105.5t83.5 284.5zM709 -213v-207h-230v207h230z" />
    <glyph glyph-name="uni1EE4" unicode="&#x1ee4;" 
d="M1030 1315v-916q0 -210 -110.5 -319t-323.5 -109q-215 0 -325.5 109t-110.5 319v916h166v-905q0 -142 68.5 -216.5t201.5 -74.5t201.5 74.5t68.5 216.5v905h164zM711 -213v-207h-230v207h230z" />
    <glyph glyph-name="uni1EE5" unicode="&#x1ee5;" 
d="M819 993h160v-993h-150v135q-47 -79 -125 -120.5t-178 -41.5q-161 0 -247 93.5t-86 246.5v680h159v-628q0 -256 213 -256q110 0 182 75.5t72 190.5v618zM709 -213v-207h-230v207h230z" />
    <glyph glyph-name="uni1EE6" unicode="&#x1ee6;" 
d="M1030 1315v-916q0 -210 -110.5 -319t-323.5 -109q-215 0 -325.5 109t-110.5 319v916h166v-905q0 -142 68.5 -216.5t201.5 -74.5t201.5 74.5t68.5 216.5v905h164zM571 1817q99 0 154 -41.5t55 -118.5q0 -72 -55 -133t-145 -97l-68 80q137 60 137 133q0 68 -102 68
q-63 0 -119 -20l-20 104q67 25 163 25z" />
    <glyph glyph-name="uni1EE7" unicode="&#x1ee7;" 
d="M819 993h160v-993h-150v135q-47 -79 -125 -120.5t-178 -41.5q-161 0 -247 93.5t-86 246.5v680h159v-628q0 -256 213 -256q110 0 182 75.5t72 190.5v618zM569 1534q99 0 154 -41.5t55 -118.5q0 -72 -54.5 -132.5t-145.5 -96.5l-68 80q137 60 137 133q0 67 -102 67
q-63 0 -119 -20l-20 104q67 25 163 25z" />
    <glyph glyph-name="uni1EE8" unicode="&#x1ee8;" 
d="M1030 1196v-797q0 -210 -110.5 -319t-323.5 -109q-215 0 -325.5 109t-110.5 319v916h166v-905q0 -142 68.5 -216.5t201.5 -74.5t201.5 74.5t68.5 216.5v905h113q73 0 96 31.5t23 140.5h149q0 -162 -45 -223.5t-172 -67.5zM850 1757l-209 -289h-156l156 289h209z" />
    <glyph glyph-name="uni1EE9" unicode="&#x1ee9;" 
d="M979 877v-877h-150v135q-47 -79 -125 -120.5t-178 -41.5q-161 0 -247 93.5t-86 246.5v680h159v-628q0 -256 213 -256q110 0 182 75.5t72 190.5v610l-2 8h103q72 0 96 32t24 140h148q0 -162 -42.5 -222t-166.5 -66zM848 1475l-209 -289h-156l156 289h209z" />
    <glyph glyph-name="uni1EEA" unicode="&#x1eea;" 
d="M1030 1196v-797q0 -210 -110.5 -319t-323.5 -109q-215 0 -325.5 109t-110.5 319v916h166v-905q0 -142 68.5 -216.5t201.5 -74.5t201.5 74.5t68.5 216.5v905h113q73 0 96 31.5t23 140.5h149q0 -162 -45 -223.5t-172 -67.5zM344 1757h207l156 -289h-154z" />
    <glyph glyph-name="uni1EEB" unicode="&#x1eeb;" 
d="M979 877v-877h-150v135q-47 -79 -125 -120.5t-178 -41.5q-161 0 -247 93.5t-86 246.5v680h159v-628q0 -256 213 -256q110 0 182 75.5t72 190.5v610l-2 8h103q72 0 96 32t24 140h148q0 -162 -42.5 -222t-166.5 -66zM342 1475h207l156 -289h-154z" />
    <glyph glyph-name="uni1EEC" unicode="&#x1eec;" 
d="M1030 1196v-797q0 -210 -110.5 -319t-323.5 -109q-215 0 -325.5 109t-110.5 319v916h166v-905q0 -142 68.5 -216.5t201.5 -74.5t201.5 74.5t68.5 216.5v905h113q73 0 96 31.5t23 140.5h149q0 -162 -45 -223.5t-172 -67.5zM571 1817q99 0 154 -41.5t55 -118.5
q0 -72 -55 -133t-145 -97l-68 80q137 60 137 133q0 68 -102 68q-63 0 -119 -20l-20 104q67 25 163 25z" />
    <glyph glyph-name="uni1EED" unicode="&#x1eed;" 
d="M979 877v-877h-150v135q-47 -79 -125 -120.5t-178 -41.5q-161 0 -247 93.5t-86 246.5v680h159v-628q0 -256 213 -256q110 0 182 75.5t72 190.5v610l-2 8h103q72 0 96 32t24 140h148q0 -162 -42.5 -222t-166.5 -66zM569 1534q99 0 154 -41.5t55 -118.5q0 -72 -54.5 -132.5
t-145.5 -96.5l-68 80q137 60 137 133q0 67 -102 67q-63 0 -119 -20l-20 104q67 25 163 25z" />
    <glyph glyph-name="uni1EEE" unicode="&#x1eee;" 
d="M1030 1196v-797q0 -210 -110.5 -319t-323.5 -109q-215 0 -325.5 109t-110.5 319v916h166v-905q0 -142 68.5 -216.5t201.5 -74.5t201.5 74.5t68.5 216.5v905h113q73 0 96 31.5t23 140.5h149q0 -162 -45 -223.5t-172 -67.5zM635 1647q34 -24 54 -33.5t42 -9.5q68 0 68 104
h119q0 -110 -48 -170.5t-133 -60.5q-72 0 -155 57q-71 45 -113 45q-36 0 -55 -27t-19 -75h-119q0 110 50 170.5t141 60.5q46 0 81 -13.5t87 -47.5z" />
    <glyph glyph-name="uni1EEF" unicode="&#x1eef;" 
d="M979 877v-877h-150v135q-47 -79 -125 -120.5t-178 -41.5q-161 0 -247 93.5t-86 246.5v680h159v-628q0 -256 213 -256q110 0 182 75.5t72 190.5v610l-2 8h103q72 0 96 32t24 140h148q0 -162 -42.5 -222t-166.5 -66zM633 1364q34 -24 54 -33.5t42 -9.5q68 0 68 104h118
q0 -110 -47.5 -170.5t-132.5 -60.5q-72 0 -155 57q-71 45 -113 45q-36 0 -55 -27t-19 -75h-119q0 110 50 170.5t141 60.5q46 0 81 -13.5t87 -47.5z" />
    <glyph glyph-name="uni1EF0" unicode="&#x1ef0;" 
d="M1030 1196v-797q0 -210 -110.5 -319t-323.5 -109q-215 0 -325.5 109t-110.5 319v916h166v-905q0 -142 68.5 -216.5t201.5 -74.5t201.5 74.5t68.5 216.5v905h113q73 0 96 31.5t23 140.5h149q0 -162 -45 -223.5t-172 -67.5zM750 -213v-207h-230v207h230z" />
    <glyph glyph-name="uni1EF1" unicode="&#x1ef1;" 
d="M979 877v-877h-150v135q-47 -79 -125 -120.5t-178 -41.5q-161 0 -247 93.5t-86 246.5v680h159v-628q0 -256 213 -256q110 0 182 75.5t72 190.5v610l-2 8h103q72 0 96 32t24 140h148q0 -162 -42.5 -222t-166.5 -66zM709 -213v-207h-230v207h230z" />
    <glyph glyph-name="Ygrave" unicode="&#x1ef2;" 
d="M942 1315h184l-452 -754v-561h-168v563l-443 752h185l346 -598zM342 1757h207l156 -289h-154z" />
    <glyph glyph-name="ygrave" unicode="&#x1ef3;" 
d="M901 993h162l-418 -1120q-52 -137 -116.5 -191.5t-186.5 -54.5q-82 0 -162 17l25 133q67 -15 125 -15q70 0 107.5 31.5t72.5 122.5l8 25l-393 1052h168l303 -839zM342 1475h207l156 -289h-154z" />
    <glyph glyph-name="uni1EF4" unicode="&#x1ef4;" 
d="M942 1315h184l-452 -754v-561h-168v563l-443 752h185l346 -598zM709 -213v-207h-230v207h230z" />
    <glyph glyph-name="uni1EF5" unicode="&#x1ef5;" 
d="M901 993h162l-418 -1120q-52 -137 -116.5 -191.5t-186.5 -54.5q-82 0 -162 17l25 133q67 -15 125 -15q70 0 107.5 31.5t72.5 122.5l8 25l-393 1052h168l303 -839zM1044 -213v-207h-229v207h229z" />
    <glyph glyph-name="uni1EF6" unicode="&#x1ef6;" 
d="M942 1315h184l-452 -754v-561h-168v563l-443 752h185l346 -598zM569 1817q99 0 154 -41.5t55 -118.5q0 -72 -55 -133t-145 -97l-68 80q137 60 137 133q0 68 -102 68q-63 0 -119 -20l-20 104q67 25 163 25z" />
    <glyph glyph-name="uni1EF7" unicode="&#x1ef7;" 
d="M901 993h162l-418 -1120q-52 -137 -116.5 -191.5t-186.5 -54.5q-82 0 -162 17l25 133q67 -15 125 -15q70 0 107.5 31.5t72.5 122.5l8 25l-393 1052h168l303 -839zM569 1534q99 0 154 -41.5t55 -118.5q0 -72 -54.5 -132.5t-145.5 -96.5l-68 80q137 60 137 133
q0 67 -102 67q-63 0 -119 -20l-20 104q67 25 163 25z" />
    <glyph glyph-name="uni1EF8" unicode="&#x1ef8;" 
d="M942 1315h184l-452 -754v-561h-168v563l-443 752h185l346 -598zM633 1647q34 -24 54 -33.5t42 -9.5q68 0 68 104h118q0 -110 -47.5 -170.5t-132.5 -60.5q-72 0 -155 57q-71 45 -113 45q-36 0 -55 -27t-19 -75h-119q0 110 50 170.5t141 60.5q46 0 81 -13.5t87 -47.5z" />
    <glyph glyph-name="uni1EF9" unicode="&#x1ef9;" 
d="M901 993h162l-418 -1120q-52 -137 -116.5 -191.5t-186.5 -54.5q-82 0 -162 17l25 133q67 -15 125 -15q70 0 107.5 31.5t72.5 122.5l8 25l-393 1052h168l303 -839zM633 1364q34 -24 54 -33.5t42 -9.5q68 0 68 104h118q0 -110 -47.5 -170.5t-132.5 -60.5q-72 0 -155 57
q-71 45 -113 45q-36 0 -55 -27t-19 -75h-119q0 110 50 170.5t141 60.5q46 0 81 -13.5t87 -47.5z" />
    <glyph glyph-name="endash" unicode="&#x2013;" 
d="M1126 625v-140h-1065v140h1065z" />
    <glyph glyph-name="emdash" unicode="&#x2014;" 
d="M1188 625v-140h-1188v140h1188z" />
    <glyph glyph-name="quoteleft" unicode="&#x2018;" 
d="M719 819h-260v232l149 299h121l-127 -293h117v-238z" />
    <glyph glyph-name="quoteright" unicode="&#x2019;" 
d="M469 1315h260v-232l-149 -299h-121l127 293h-117v238z" />
    <glyph glyph-name="quotesinglbase" unicode="&#x201a;" 
d="M469 238h260v-232l-149 -299h-121l127 293h-117v238z" />
    <glyph glyph-name="quotedblleft" unicode="&#x201c;" 
d="M514 819h-260v232l149 299h121l-127 -293h117v-238zM924 819h-260v232l149 299h121l-127 -293h117v-238z" />
    <glyph glyph-name="quotedblright" unicode="&#x201d;" 
d="M264 1315h260v-232l-149 -299h-121l127 293h-117v238zM674 1315h260v-232l-150 -299h-120l127 293h-117v238z" />
    <glyph glyph-name="quotedblbase" unicode="&#x201e;" 
d="M264 238h260v-232l-149 -299h-121l127 293h-117v238zM674 238h260v-232l-150 -299h-120l127 293h-117v238z" />
    <glyph glyph-name="dagger" unicode="&#x2020;" 
d="M1073 842v-142h-403v-1075h-150v1075h-403v142h403v473h150v-473h403z" />
    <glyph glyph-name="daggerdbl" unicode="&#x2021;" 
d="M1073 797h-403v-449h403v-137h-403v-586h-150v586h-403v137h403v449h-403v139h403v379h150v-379h403v-139z" />
    <glyph glyph-name="bullet" unicode="&#x2022;" 
d="M928 569q0 -136 -99 -236t-235 -100t-235 100t-99 236q0 138 98.5 237t235.5 99t235.5 -99t98.5 -237z" />
    <glyph glyph-name="ellipsis" unicode="&#x2026;" 
d="M332 238v-238h-221v238h221zM705 238v-238h-222v238h222zM1077 238v-238h-221v238h221z" />
    <glyph glyph-name="perthousand" unicode="&#x2030;" 
d="M1001 1341l89 -55l-500 -743l-86 57zM39 1065q0 118 73 196t183 78q112 0 184 -77.5t72 -196.5q0 -117 -73 -195.5t-183 -78.5t-183 78.5t-73 195.5zM428 1065q0 75 -35.5 121.5t-97.5 46.5t-97.5 -46.5t-35.5 -121.5t35.5 -121.5t97.5 -46.5t97.5 46.5t35.5 121.5z
M39 250q0 118 73 196t183 78q112 0 184 -77.5t72 -196.5q0 -117 -73 -196t-183 -79t-183 79t-73 196zM664 250q0 119 72 196.5t184 77.5t184 -77.5t72 -196.5q0 -117 -73 -196t-183 -79t-183 79t-73 196zM428 250q0 75 -35.5 121.5t-97.5 46.5t-97.5 -46.5t-35.5 -121.5
t35.5 -121.5t97.5 -46.5t97.5 46.5t35.5 121.5zM1053 250q0 75 -35.5 121.5t-97.5 46.5t-98 -46.5t-36 -121.5t36 -121.5t98 -46.5t97.5 46.5t35.5 121.5z" />
    <glyph glyph-name="guilsinglleft" unicode="&#x2039;" 
d="M807 897l-268 -416l268 -413h-160l-266 413l266 416h160z" />
    <glyph glyph-name="guilsinglright" unicode="&#x203a;" 
d="M381 897h160l266 -416l-266 -413h-160l266 413z" />
    <glyph glyph-name="fraction" unicode="&#x2044;" 
d="M991 1341l88 -55l-884 -1313l-86 56z" />
    <glyph glyph-name="Euro" unicode="&#x20ac;" 
d="M1012 211l90 -117q-94 -68 -176.5 -95.5t-194.5 -27.5q-201 0 -334 136t-172 368h-139v121h127q-2 12 -2 57q0 13 4 107h-129v121h147q45 212 175 333t323 121q112 0 195 -27.5t176 -95.5l-90 -116q-74 56 -137 78t-144 22q-120 0 -204.5 -83t-120.5 -232h493v-121h-514
q-6 -52 -6 -107q0 -45 2 -57h518v-121h-506q31 -171 119.5 -267.5t218.5 -96.5q81 0 144 22t137 78z" />
    <glyph glyph-name="uni20B9" unicode="&#x20b9;" 
d="M1055 1196h-221q80 -83 98 -203h123v-119h-123q-19 -149 -130 -236t-282 -87h-102l534 -551h-223l-522 551v127h295q113 0 185 51.5t85 144.5h-565v119h563q-20 90 -89 136.5t-179 46.5h-295v139h848v-119z" />
    <glyph glyph-name="uni20BA" unicode="&#x20ba;" 
d="M942 575l150 -24l-21 -121q-23 -124 -65 -206.5t-110 -132t-156.5 -70.5t-213.5 -21h-209v514l-178 -82v123l178 80v188l-178 -80v127l178 80v365h162v-293l318 143v-125l-318 -143v-188l318 143v-121l-318 -143v-447h23q104 0 171 13t119 48.5t82 98t48 162.5z" />
    <glyph glyph-name="uni20BD" unicode="&#x20bd;" 
d="M676 555h-234v-162h412v-117h-412v-276h-163v276h-179v117h179v162h-179v125h179v635h397q182 0 299 -106t117 -279q0 -168 -117 -271.5t-299 -103.5zM442 1176v-496h215q126 0 200.5 67t74.5 183t-74.5 181t-200.5 65h-215z" />
    <glyph glyph-name="uni2116" unicode="&#x2116;" 
d="M709 1042q0 131 60.5 210t164.5 79q107 0 167 -79t60 -210q0 -132 -60 -210t-167 -78q-105 0 -165 78t-60 210zM492 221v1094h114v-1315h-164l-264 1116v-1116h-115v1315h170zM823 1042q0 -184 113 -184t113 184q0 183 -113 183t-113 -183zM721 582v102h428v-102h-428z
" />
    <glyph glyph-name="uni2117" unicode="&#x2117;" 
d="M47 657q0 198 72 356t197 245.5t278 87.5t278 -87.5t197 -245.5t72 -356q0 -200 -72 -358.5t-197 -245t-278 -86.5t-278 86.5t-197 245t-72 358.5zM1038 657q0 263 -124 426.5t-320 163.5t-320 -163.5t-124 -426.5q0 -262 124 -425.5t320 -163.5t320 163.5t124 425.5z
M395 270v774h234q101 0 168 -65.5t67 -175.5q0 -106 -66 -168t-169 -62h-115v-303h-119zM514 676h104q61 0 92 33.5t31 95.5q0 63 -31.5 98t-91.5 35h-104v-262z" />
    <glyph glyph-name="trademark" unicode="&#x2122;" 
d="M459 1315v-94h-160v-541h-111v541h-161v94h432zM1116 1315v-635h-98v563l-141 -563h-93l-147 555v-555h-102v635h163l133 -502l123 502h162z" />
    <glyph glyph-name="uni2126" unicode="&#x2126;" 
d="M877 139h219v-139h-400v141q110 72 168 219.5t58 341.5q0 233 -82.5 363.5t-243.5 130.5t-243.5 -130.5t-82.5 -363.5q0 -195 57 -342t167 -219v-141h-398v139h219q-97 87 -155 239t-58 324q0 289 125 463q126 176 369 176t369 -176q125 -174 125 -463q0 -170 -60 -327
q-61 -155 -153 -236z" />
    <glyph glyph-name="uni2154" unicode="&#x2154;" 
d="M909 1348l90 -50l-743 -1331l-88 49zM440 823v-102h-446v51q0 84 43 138t139 104q88 45 118 71t30 66q0 35 -25.5 55.5t-69.5 20.5q-37 0 -74 -18t-89 -60l-62 80q100 100 225 100q96 0 154.5 -50t58.5 -124q0 -57 -26 -96q-23 -39 -58 -60q-20 -14 -114 -67
q-70 -39 -96 -59.5t-33 -49.5h325zM1161 180q0 -83 -58.5 -138.5t-158.5 -55.5q-120 0 -233 73l57 86q57 -32 95 -44.5t79 -12.5q47 0 74.5 25t27.5 67q0 43 -32 67.5t-86 24.5q-49 0 -66 -10l-49 70l186 160h-258v98h398v-96l-164 -138q85 -2 136.5 -49.5t51.5 -126.5z" />
    <glyph glyph-name="oneeighth" unicode="&#x215b;" 
d="M907 1348l90 -50l-743 -1331l-88 49zM217 721v450l-90 -69l-57 80l176 133h90v-594h-119zM1163 162q0 -80 -61 -130t-168 -50q-104 0 -164.5 50t-60.5 130q0 109 102 151q-80 44 -80 129q0 73 55.5 118.5t147.5 45.5t149.5 -46t57.5 -118q0 -86 -82 -129
q104 -47 104 -151zM840 434q0 -35 26.5 -58.5t67.5 -23.5q42 0 69 23t27 59q0 35 -26 56.5t-70 21.5q-43 0 -68.5 -21.5t-25.5 -56.5zM1047 172q0 42 -29.5 68t-83.5 26q-53 0 -82 -26t-29 -68q0 -40 29.5 -66t81.5 -26t82.5 26t30.5 66z" />
    <glyph glyph-name="threeeighths" unicode="&#x215c;" 
d="M909 1348l90 -50l-743 -1331l-88 49zM334 903q0 42 -32.5 66t-88.5 24q-55 0 -68 -8l-49 72l189 157h-258v101h399v-98l-168 -140q86 0 139.5 -47.5t53.5 -126.5q0 -82 -60 -139t-160 -57q-123 0 -231 75l55 86q57 -32 95 -44.5t79 -12.5q49 0 77 24.5t28 67.5zM1163 162
q0 -79 -61.5 -129.5t-165.5 -50.5q-107 0 -168 50t-61 130q0 51 27.5 91t78.5 60q-82 43 -82 129q0 72 56.5 118t148.5 46t148.5 -46t56.5 -118q0 -86 -82 -129q104 -49 104 -151zM840 434q0 -35 27.5 -58.5t68.5 -23.5q42 0 68 23t26 59q0 35 -25.5 56.5t-68.5 21.5
q-44 0 -70 -21.5t-26 -56.5zM1049 172q0 42 -30 68t-83 26q-54 0 -82.5 -25t-28.5 -69q0 -40 29.5 -66t81.5 -26t82.5 26t30.5 66z" />
    <glyph glyph-name="fiveeighths" unicode="&#x215d;" 
d="M909 1348l90 -50l-743 -1331l-88 49zM334 915q0 45 -27 71t-80 26q-59 0 -106 -41l-94 12l28 332h371v-101h-272l-15 -141q53 35 125 35q83 0 136 -53.5t53 -130.5q0 -98 -61.5 -157.5t-160.5 -59.5q-61 0 -115 18t-122 61l53 86q105 -61 178 -61q48 0 78.5 28t30.5 76z
M1163 162q0 -79 -61.5 -129.5t-165.5 -50.5q-107 0 -168 50t-61 130q0 109 106 151q-80 47 -80 129q0 73 55.5 118.5t147.5 45.5t149.5 -46t57.5 -118q0 -85 -84 -129q104 -49 104 -151zM842 434q0 -36 26 -59t68 -23t68 23t26 59t-25 57t-69 21t-69 -21t-25 -57zM1047 172
q0 42 -29 68t-82 26q-54 0 -82.5 -25t-28.5 -69q0 -40 29.5 -66t81.5 -26t81.5 26t29.5 66z" />
    <glyph glyph-name="seveneighths" unicode="&#x215e;" 
d="M899 1348l90 -50l-743 -1331l-88 49zM395 1214h-315v101h444v-90q-197 -250 -221 -504h-129q12 124 76 258q65 136 145 235zM1155 162q0 -80 -60.5 -130t-166.5 -50q-104 0 -167 50.5t-63 129.5q0 109 107 151q-82 43 -82 129q0 73 56 118.5t149 45.5q92 0 148.5 -46
t56.5 -118q0 -86 -82 -129q104 -41 104 -151zM831 434q0 -35 27 -58.5t70 -23.5q42 0 68 23t26 59q0 35 -25.5 56.5t-68.5 21.5q-44 0 -70.5 -21.5t-26.5 -56.5zM1038 172q0 42 -28.5 68t-81.5 26t-83 -26t-30 -68q0 -40 30.5 -66t82.5 -26t81 26t29 66z" />
    <glyph glyph-name="arrowleft" unicode="&#x2190;" 
d="M1229 766v-131h-1039l379 -375l-96 -96l-534 536l534 535l96 -96l-379 -373h1039z" />
    <glyph glyph-name="arrowup" unicode="&#x2191;" 
d="M1171 829l-96 -96l-405 412v-1145h-148v1145l-407 -412l-97 96l578 576z" />
    <glyph glyph-name="arrowright" unicode="&#x2192;" 
d="M715 1235l534 -535l-534 -536l-97 96l379 375h-1038v131h1038l-379 373z" />
    <glyph glyph-name="arrowdown" unicode="&#x2193;" 
d="M1075 582l96 -97l-575 -575l-578 575l97 97l407 -412v1145h148v-1145z" />
    <glyph glyph-name="uni2196" unicode="&#x2196;" 
d="M1145 379l-105 -103l-811 809l4 -577h-135v815h815v-135l-579 2z" />
    <glyph glyph-name="uni2197" unicode="&#x2197;" 
d="M274 1317l816 -2v-813h-136l4 577l-811 -811l-104 105l811 811l-580 -4v137z" />
    <glyph glyph-name="uni2198" unicode="&#x2198;" 
d="M954 815h136v-815l-816 -2v137l580 -2l-811 809l104 105l811 -811z" />
    <glyph glyph-name="uni2199" unicode="&#x2199;" 
d="M1145 944l-811 -811l579 4v-137h-815v815h135l-4 -577l811 811z" />
    <glyph glyph-name="partialdiff" unicode="&#x2202;" 
d="M1053 557q0 -272 -124.5 -430t-340.5 -158q-101 0 -187 38.5t-143.5 103.5t-90 151t-32.5 180q0 126 51 231.5t147.5 169.5t219.5 64q114 0 202 -49.5t140 -138.5q-33 227 -172.5 360t-400.5 174l34 138q343 -47 520 -261t177 -573zM879 438q0 139 -86.5 234.5
t-214.5 95.5q-127 0 -203 -92.5t-76 -237.5q0 -143 80 -236t209 -93q128 0 209.5 95t81.5 234z" />
    <glyph glyph-name="uni2206" unicode="&#x2206;" 
d="M705 1315l432 -1315h-1082l432 1315h218zM266 139h656l-330 1030z" />
    <glyph glyph-name="product" unicode="&#x220f;" 
d="M1016 1315v-1520h-166v1379h-512v-1379h-166v1520h844z" />
    <glyph glyph-name="summation" unicode="&#x2211;" 
d="M1036 1315v-144h-712l456 -614l-463 -625h770v-141h-962v131l461 635l-455 623v135h905z" />
    <glyph glyph-name="minus" unicode="&#x2212;" 
d="M1092 659v-139h-992v139h992z" />
    <glyph glyph-name="radical" unicode="&#x221a;" 
d="M913 1315h177l-420 -1315h-226l-346 993h176l283 -835z" />
    <glyph glyph-name="infinity" unicode="&#x221e;" 
d="M1143 553q0 -133 -71.5 -215t-184.5 -82q-172 0 -295 188q-73 -103 -140 -145.5t-149 -42.5q-113 0 -184.5 82t-71.5 215q0 131 73.5 214t190.5 83q86 0 155.5 -45t131.5 -143q124 188 283 188q115 0 188.5 -83t73.5 -214zM524 549l-8 10q-59 93 -99.5 127.5t-99.5 34.5
q-63 0 -101 -45.5t-38 -124.5q0 -80 37 -125t96 -45q57 0 105 38t108 130zM1012 551q0 79 -37.5 124.5t-100.5 45.5q-107 0 -208 -170l8 -12q52 -79 101 -118.5t104 -39.5q61 0 97 44.5t36 125.5z" />
    <glyph glyph-name="integral" unicode="&#x222b;" 
d="M399 -369q-93 0 -182 27l35 121q87 -19 129 -19q67 0 95 38t28 124v1172q0 137 72 211.5t206 74.5q101 0 189 -32l-33 -121q-86 22 -131 22q-75 0 -109 -41t-34 -133v-1155q0 -289 -265 -289z" />
    <glyph glyph-name="approxequal" unicode="&#x2248;" 
d="M614 834q113 -52 172 -52q50 0 88.5 19t104.5 80l80 -93q-79 -79 -135 -108q-52 -27 -133 -27q-41 0 -83 12.5t-112 41.5q-73 29 -111.5 40t-78.5 11q-55 0 -96 -21.5t-99 -77.5l-80 93q72 77 135 108t140 31q46 0 85.5 -11.5t122.5 -45.5zM614 453q113 -52 172 -52
q50 0 88.5 19t104.5 80l80 -92q-81 -81 -135 -109q-52 -27 -133 -27q-40 0 -81.5 12.5t-111.5 41.5q-75 31 -112 41t-80 10q-55 0 -96 -21t-99 -77l-80 92q72 77 135 108t140 31q46 0 85.5 -11.5t122.5 -45.5z" />
    <glyph glyph-name="notequal" unicode="&#x2260;" 
d="M1092 711h-390l-88 -242h478v-139h-529l-82 -226h-143l82 226h-320v139h373l88 242h-461v139h512l80 217h142l-80 -217h338v-139z" />
    <glyph glyph-name="lessequal" unicode="&#x2264;" 
d="M1051 1075v-147l-736 -269l736 -268v-147l-914 344v145zM1092 139v-139h-992v139h992z" />
    <glyph glyph-name="greaterequal" unicode="&#x2265;" 
d="M137 1075l914 -342v-145l-914 -344v147l735 268l-735 269v147zM1092 139v-139h-992v139h992z" />
    <glyph glyph-name="lozenge" unicode="&#x25ca;" 
d="M692 1315l391 -660l-391 -655h-194l-392 655l392 660h194zM596 1188l-315 -533l315 -528l313 528z" />
    <glyph glyph-name="uni2923" unicode="&#x2923;" 
d="M1087 1315v-133h-577l27 -27l73 -74q104 -104 172 -182q148 -173 148 -340q0 -98 -49 -192q-51 -94 -121 -170q-85 -93 -193 -195l-63 -61l-109 102l47 43q156 147 181 174q151 158 151 299q0 101 -61 186q-66 95 -193 222l-86 88l-28 30v-585h-134v815h815z" />
    <glyph glyph-name="uni2924" unicode="&#x2924;" 
d="M915 500h-133v585l-28 -30l-86 -88q-127 -127 -193 -222q-61 -85 -61 -186q0 -77 43 -153q41 -72 103 -140t185 -180l48 -43l-109 -102l-63 61q-124 118 -195 195q-168 190 -168 362q0 97 43 182q46 90 105 158q68 78 172 182l73 74l27 27h-578v133h815v-815z" />
    <glyph glyph-name="uni2925" unicode="&#x2925;" 
d="M782 815h133v-815h-815v133h578l-27 27l-73 73q-97 97 -172 183q-148 173 -148 340q0 99 49 190q52 99 119 172q71 77 195 195l63 61l109 -102l-48 -43q-142 -135 -180 -176q-151 -154 -151 -297q0 -101 61 -189q67 -93 193 -219l86 -88l28 -31v586z" />
    <glyph glyph-name="uni2926" unicode="&#x2926;" 
d="M510 135h577v-133h-815v815h134v-586l28 31l86 88q126 126 193 219q61 88 61 189q0 79 -45 153q-41 72 -104.5 141.5t-186.5 180.5l-43 39l109 102l59 -57q127 -121 193 -195q174 -185 174 -364q0 -98 -43 -183q-45 -88 -105 -157q-68 -78 -172 -182l-73 -74z" />
    <glyph glyph-name="uniE002" unicode="&#xe002;" 
d="M780 4v-199h-121v195h-153v-195h-117v195h-211v1315h211v194h117v-194h153v194h121v-202q128 -25 200.5 -108.5t72.5 -215.5q0 -104 -52.5 -179t-142.5 -108q111 -33 174.5 -118t63.5 -207q0 -151 -84 -247.5t-232 -119.5zM344 1182v-424h301q117 0 181.5 57t64.5 160
q0 102 -63.5 154.5t-182.5 52.5h-301zM932 377q0 113 -72.5 178.5t-202.5 65.5h-313v-486h311q133 0 205 64t72 178z" />
    <glyph glyph-name="i.loclTRK" 
d="M713 131h360v-131h-909v131h389v731h-317v131h477v-862zM727 1425v-211h-229v211h229z" />
    <glyph glyph-name="l.ss01" 
d="M702 131h361v-131h-905v131h385v1110h-316v131h475v-1241z" />
    <glyph glyph-name="zero.dnom" 
d="M285 389q0 185 81 296.5t230 111.5t230 -111.5t81 -296.5q0 -187 -81 -297t-230 -110t-230 110t-81 297zM774 389q0 136 -46.5 213.5t-131.5 77.5t-131.5 -77.5t-46.5 -213.5q0 -138 46.5 -215.5t131.5 -77.5t131.5 77.5t46.5 215.5z" />
    <glyph glyph-name="one.dnom" 
d="M602 776h100v-776h-131v616l-143 -104l-66 90z" />
    <glyph glyph-name="two.dnom" 
d="M432 111h461v-111h-598v51q0 76 29 134t79.5 99.5t137.5 88.5l45 22q101 52 137.5 85t36.5 85q0 55 -40.5 85t-113.5 30q-107 0 -223 -102l-76 84q141 135 301 135q129 0 207 -64t78 -162q-6 -100 -53.5 -149.5t-175.5 -114.5l-50 -26q-97 -54 -134.5 -87.5t-47.5 -82.5z
" />
    <glyph glyph-name="three.dnom" 
d="M897 236q0 -104 -80 -179t-215 -75q-83 0 -154.5 21t-156.5 75l65 96q77 -44 131.5 -61t112.5 -17q74 0 119 39t45 101q0 63 -47 99t-129 36q-72 0 -99 -15l-59 82l277 228h-379v110h540v-108l-247 -203h10q117 0 191.5 -62.5t74.5 -166.5z" />
    <glyph glyph-name="four.dnom" 
d="M803 283h108v-107h-108v-176h-131v176h-393v121l321 479h143l-331 -493h260v163h131v-163z" />
    <glyph glyph-name="five.dnom" 
d="M907 260q0 -124 -84.5 -201t-224.5 -77q-83 0 -156.5 23.5t-158.5 78.5l63 96q82 -46 135.5 -65t114.5 -19q75 0 124.5 44.5t49.5 111.5q0 69 -42.5 107t-125.5 38q-98 0 -168 -61l-104 12l41 428h495v-110h-389l-20 -213q71 53 182 53q119 0 193.5 -70.5t74.5 -175.5z
" />
    <glyph glyph-name="six.dnom" 
d="M905 256q0 -111 -85 -192.5t-222 -81.5q-147 0 -230 87t-83 232q0 266 295 475h184v-2q-257 -165 -326 -325q70 73 191 73q122 0 199 -76.5t77 -189.5zM778 254q0 68 -47.5 113t-124.5 45q-81 0 -133.5 -45t-52.5 -113q0 -70 48.5 -114t129.5 -44t130.5 44t49.5 114z" />
    <glyph glyph-name="seven.dnom" 
d="M291 776h608v-102q-142 -159 -224.5 -333t-94.5 -341h-142q15 161 103 344q87 182 215 322h-465v110z" />
    <glyph glyph-name="eight.dnom" 
d="M903 211q0 -105 -81.5 -168t-225.5 -63t-226.5 63.5t-82.5 167.5q0 69 38.5 122t110.5 79q-117 62 -117 174q0 92 77 151.5t200 59.5q122 0 199 -59.5t77 -151.5q0 -56 -30.5 -102t-85.5 -72q147 -60 147 -201zM440 575q0 -51 44.5 -84.5t111.5 -33.5t110.5 33.5
t43.5 84.5t-42.5 83t-111.5 32t-112.5 -32t-43.5 -83zM772 221q0 63 -46.5 100t-129.5 37q-84 0 -131 -37.5t-47 -99.5q0 -59 47.5 -96t130.5 -37t129.5 37t46.5 96z" />
    <glyph glyph-name="nine.dnom" 
d="M905 475q0 -264 -295 -475h-184v2q253 161 322 322q-68 -68 -187 -68q-121 0 -198.5 77t-77.5 189q0 111 86 193t223 82q145 0 228 -88.5t83 -233.5zM770 524q0 68 -48.5 112t-127.5 44q-84 0 -132 -43t-48 -113t47 -114.5t125 -44.5q79 0 131.5 45.5t52.5 113.5z" />
    <glyph glyph-name="zero.numr" 
d="M285 928q0 185 81 296t230 111t230 -111t81 -296q0 -187 -81 -297.5t-230 -110.5t-230 110.5t-81 297.5zM774 928q0 136 -46.5 213.5t-131.5 77.5t-131.5 -77.5t-46.5 -213.5q0 -138 46.5 -215.5t131.5 -77.5t131.5 77.5t46.5 215.5z" />
    <glyph glyph-name="one.numr" 
d="M602 1315h100v-776h-131v616l-143 -104l-66 90z" />
    <glyph glyph-name="two.numr" 
d="M432 649h461v-110h-598v51q0 111 57.5 180.5t188.5 140.5l45 23q101 52 137.5 85t36.5 85q0 55 -40.5 85t-113.5 30q-106 0 -223 -103l-76 84q141 135 301 135q129 0 207 -63.5t78 -161.5q-6 -100 -53.5 -149.5t-175.5 -114.5l-50 -27q-97 -54 -134.5 -87.5t-47.5 -82.5z
" />
    <glyph glyph-name="three.numr" 
d="M897 774q0 -104 -80 -179t-215 -75q-83 0 -154.5 21t-156.5 75l65 97q77 -44 131.5 -61t112.5 -17q74 0 119 38.5t45 100.5q0 63 -47 99t-129 36q-74 0 -99 -14l-59 82l277 227h-379v111h540v-109l-247 -202h10q117 0 191.5 -63t74.5 -167z" />
    <glyph glyph-name="four.numr" 
d="M803 821h108v-106h-108v-176h-131v176h-393v121l321 479h143l-331 -494h260v164h131v-164z" />
    <glyph glyph-name="five.numr" 
d="M907 799q0 -124 -84.5 -201.5t-224.5 -77.5q-82 0 -155.5 24t-159.5 79l63 96q82 -46 135.5 -65t114.5 -19q75 0 124.5 44.5t49.5 111.5q0 69 -42.5 107t-125.5 38q-97 0 -168 -62l-104 13l41 428h495v-111h-389l-20 -213q71 53 182 53q119 0 193.5 -70t74.5 -175z" />
    <glyph glyph-name="six.numr" 
d="M905 795q0 -111 -85 -193t-222 -82q-147 0 -230 87.5t-83 232.5q0 266 295 475h184v-2q-256 -164 -326 -326q71 74 191 74q122 0 199 -76.5t77 -189.5zM778 793q0 68 -47.5 112.5t-124.5 44.5q-81 0 -133.5 -44.5t-52.5 -112.5q0 -70 48.5 -114t129.5 -44t130.5 44
t49.5 114z" />
    <glyph glyph-name="seven.numr" 
d="M291 1315h608v-103q-142 -159 -224.5 -333t-94.5 -340h-142q15 161 103 344q86 180 215 321h-465v111z" />
    <glyph glyph-name="eight.numr" 
d="M903 758q0 -105 -81.5 -168.5t-225.5 -63.5t-226.5 64t-82.5 168q0 69 38.5 121.5t110.5 78.5q-117 62 -117 175q0 92 77 151t200 59q122 0 199 -59.5t77 -150.5q0 -56 -30.5 -102.5t-85.5 -72.5q147 -60 147 -200zM440 1122q0 -51 44.5 -84.5t111.5 -33.5t110.5 33.5
t43.5 84.5t-42.5 83t-111.5 32t-112.5 -32t-43.5 -83zM772 768q0 63 -46.5 100t-129.5 37q-84 0 -131 -37.5t-47 -99.5q0 -59 47.5 -96t130.5 -37t129.5 37t46.5 96z" />
    <glyph glyph-name="nine.numr" 
d="M905 1014q0 -264 -295 -475h-184v2q253 162 322 321q-67 -67 -187 -67q-121 0 -198.5 77t-77.5 189q0 111 86 192.5t223 81.5q145 0 228 -88t83 -233zM770 1063q0 68 -48.5 112t-127.5 44q-84 0 -132 -43t-48 -113t47 -115t125 -45q79 0 131.5 46t52.5 114z" />
    <glyph glyph-name="fraction.narrow" 
d="M920 1348l90 -50l-744 -1331l-88 49z" />
    <glyph glyph-name="caroncomb.alt" horiz-adv-x="0" 
d="M-489 1372l-91 -377h-127l37 377h181z" />
    <glyph glyph-name="uni0326.alt" horiz-adv-x="0" 
d="M-702 1225v182l116 186h103l-105 -186h99v-182h-213z" />
    <glyph glyph-name="uni0328.alt" horiz-adv-x="0" 
d="M-500 104l64 -38q-103 -78 -148 -149t-45 -148q0 -54 33.5 -82.5t93.5 -28.5q27 0 60 10v-125q-32 -14 -86 -14q-108 0 -172 54t-64 151q0 100 64 189.5t200 180.5z" />
    <glyph glyph-name="tonos.case" 
d="M766 1315l-115 -338h-139l88 338h166z" />
    <glyph glyph-name="brevecombcy" horiz-adv-x="0" 
d="M-905 1444h151q2 -74 41 -120t119 -46q152 0 162 166h149q0 -118 -88 -197q-90 -78 -223 -78t-223 78q-88 79 -88 197z" />
    <glyph glyph-name="uni03060301" horiz-adv-x="0" 
d="M-334 1765l-190 -262h-142l144 262h188zM-899 1446h131q5 -69 50 -111.5t124 -42.5t125 42.5t51 111.5h131q0 -119 -86.5 -198t-220.5 -79q-132 0 -219 78q-86 80 -86 199z" />
    <glyph glyph-name="uni03060300" horiz-adv-x="0" 
d="M-840 1765h189l141 -262h-139zM-899 1446h131q5 -69 50 -111.5t124 -42.5t125 42.5t51 111.5h131q0 -119 -86.5 -198t-220.5 -79q-132 0 -219 78q-86 80 -86 199z" />
    <glyph glyph-name="uni03060309" horiz-adv-x="0" 
d="M-610 1808q95 0 149.5 -41.5t54.5 -115.5q0 -71 -53.5 -130t-142.5 -96l-66 78q59 26 96 60t37 69q0 36 -23.5 52t-76.5 16q-59 0 -117 -21l-18 103q65 26 160 26zM-899 1446h131q5 -69 50 -111.5t124 -42.5t125 42.5t51 111.5h131q0 -119 -86.5 -198t-220.5 -79
q-132 0 -219 78q-86 80 -86 199z" />
    <glyph glyph-name="uni03060303" horiz-adv-x="0" 
d="M-557 1718q25 -16 37 -23t27 -12.5t30 -5.5q35 0 49.5 24.5t14.5 76.5h114q0 -105 -46 -165.5t-126 -60.5q-37 0 -66.5 12t-82.5 44q-62 45 -109 45q-71 0 -71 -101h-115q0 108 47.5 167t134.5 59q44 0 75 -12.5t87 -47.5zM-899 1446h131q5 -69 50 -111.5t124 -42.5
t125 42.5t51 111.5h131q0 -119 -86.5 -198t-220.5 -79q-132 0 -219 78q-86 80 -86 199z" />
    <glyph glyph-name="uni03020301" horiz-adv-x="0" 
d="M-59 1700l-191 -262h-141l141 262h191zM-446 1186l-168 194l-168 -194h-158l211 289h231l209 -289h-157z" />
    <glyph glyph-name="uni03020300" horiz-adv-x="0" 
d="M-504 1700h191l141 -262h-141zM-426 1186l-168 194l-168 -194h-158l211 289h232l209 -289h-158z" />
    <glyph glyph-name="uni03020309" horiz-adv-x="0" 
d="M-311 1759q95 0 150 -41.5t55 -115.5q0 -71 -54 -130.5t-145 -95.5l-66 78q133 62 133 131q0 33 -23 49.5t-75 16.5q-58 0 -117 -21l-20 105q73 24 162 24zM-426 1186l-168 194l-168 -194h-158l211 289h232l209 -289h-158z" />
    <glyph glyph-name="uni03020303" horiz-adv-x="0" 
d="M-557 1716q25 -16 37 -23t27 -12.5t30 -5.5q34 0 49 25t15 78h114q0 -105 -46 -165.5t-126 -60.5q-37 0 -66.5 12t-82.5 44q-62 45 -109 45q-71 0 -71 -101h-115q0 108 47.5 167t134.5 59q44 0 79 -14t83 -48zM-426 1186l-168 194l-168 -194h-158l211 289h232l209 -289
h-158z" />
    <glyph glyph-name="NULL" horiz-adv-x="0" 
 />
    <glyph glyph-name="CR" 
 />
  </font>
</defs>
</svg>
