<?xml version="1.0" standalone="no"?>
<!DOCTYPE svg PUBLIC "-//W3C//DTD SVG 1.1//EN" "http://www.w3.org/Graphics/SVG/1.1/DTD/svg11.dtd" >
<svg xmlns="http://www.w3.org/2000/svg" xmlns:xlink="http://www.w3.org/1999/xlink" version="1.1">
<metadata>
Created by FontForge 20170731 at Wed Sep  1 14:14:27 2021
 By Aleksey,,,
Copyright (c) 2015 by Letters from Sweden. All rights reserved. |DCNT
</metadata>
<defs>
<font id="LabGrotesque-Light" horiz-adv-x="1228" >
  <font-face 
    font-family="Lab Grotesque"
    font-weight="300"
    font-stretch="normal"
    units-per-em="2048"
    panose-1="0 0 5 0 0 0 0 0 0 0"
    ascent="1536"
    descent="-512"
    x-height="989"
    cap-height="1454"
    bbox="-825 -512 3568 1917"
    underline-thickness="120"
    underline-position="-448"
    unicode-range="U+0020-FB02"
  />
<missing-glyph horiz-adv-x="1185" 
d="M981 1659v-1864h-776v1864h776z" />
    <glyph glyph-name="fi" unicode="fi" horiz-adv-x="1085" 
d="M512 1479q69 0 152 -25l-23 -104q-66 14 -113 14q-90 0 -128 -47t-38 -158v-170h263v-100h-263v-889h-135v889h-188v100h188v193q0 140 74.5 218.5t210.5 78.5zM803 1401h135v-193h-135v193zM803 0v989h135v-989h-135z" />
    <glyph glyph-name="fl" unicode="fl" horiz-adv-x="1091" 
d="M512 1479q69 0 152 -25l-23 -104q-66 14 -113 14q-90 0 -128 -47t-38 -158v-170h263v-100h-263v-889h-135v889h-188v100h188v193q0 140 74.5 218.5t210.5 78.5zM803 1454h135v-1454h-135v1454z" />
    <glyph glyph-name="f_f.liga" unicode="ff" horiz-adv-x="1296" 
d="M362 1165v-176h216v-100h-216v-889h-135v889h-188v100h188v199q0 140 74.5 218.5t210.5 78.5q94 0 197 -35l-33 -107q-86 27 -146 27q-92 0 -130 -47t-38 -158zM991 1165v-176h260v-100h-260v-889h-135v889h-172v100h172v199q0 140 74.5 218.5t210.5 78.5q94 0 194 -35
l-30 -107q-85 27 -148 27q-90 0 -128 -47t-38 -158z" />
    <glyph glyph-name="f_f_i.liga" unicode="ffi" horiz-adv-x="1714" 
d="M362 1159v-170h216v-100h-216v-889h-135v889h-188v100h188v193q0 140 74.5 218.5t210.5 78.5q94 0 197 -35l-33 -107q-86 27 -146 27q-92 0 -130 -47t-38 -158zM1141 1479q65 0 151 -25l-22 -104q-66 14 -115 14q-90 0 -127 -47t-37 -158v-170h260v-100h-260v-889h-135
v889h-172v100h172v193q0 140 74.5 218.5t210.5 78.5zM1432 1401h135v-193h-135v193zM1432 0v989h135v-989h-135z" />
    <glyph glyph-name="f_f_j.liga" unicode="ffj" horiz-adv-x="1714" 
d="M362 1159v-170h216v-100h-216v-889h-135v889h-188v100h188v193q0 140 74.5 218.5t210.5 78.5q94 0 197 -35l-33 -107q-86 27 -146 27q-92 0 -130 -47t-38 -158zM1251 889h-260v-889h-135v889h-172v100h172v193q0 140 74.5 218.5t210.5 78.5q65 0 151 -25l-22 -104
q-66 14 -115 14q-90 0 -127 -47t-37 -158v-170h260v-100zM1432 1401h135v-193h-135v193zM1432 -90v1079h135v-1083q0 -297 -267 -297q-90 0 -188 31l31 104q94 -23 149 -23q76 0 108 45t32 144z" />
    <glyph glyph-name="f_j.liga" unicode="fj" horiz-adv-x="1085" 
d="M625 889h-263v-889h-135v889h-188v100h188v193q0 140 74.5 218.5t210.5 78.5q69 0 152 -25l-23 -104q-66 14 -113 14q-90 0 -128 -47t-38 -158v-170h263v-100zM803 1401h135v-193h-135v193zM803 -90v1079h135v-1083q0 -297 -266 -297q-89 0 -187 31l31 104
q94 -23 150 -23q74 0 105.5 45t31.5 144z" />
    <glyph glyph-name=".notdef" horiz-adv-x="1185" 
d="M981 1659v-1864h-776v1864h776z" />
    <glyph glyph-name=".null" horiz-adv-x="0" 
 />
    <glyph glyph-name="nonmarkingreturn" horiz-adv-x="682" 
 />
    <glyph glyph-name="space" unicode=" " horiz-adv-x="471" 
 />
    <glyph glyph-name="exclam" unicode="!" horiz-adv-x="536" 
d="M352 1454v-434l-30 -629h-84l-31 629v434h145zM365 188v-188h-172v188h172z" />
    <glyph glyph-name="quotedbl" unicode="&#x22;" horiz-adv-x="706" 
d="M252 1454l-16 -438h-97l-16 438h129zM586 1454l-17 -438h-96l-16 438h129z" />
    <glyph glyph-name="numbersign" unicode="#" horiz-adv-x="1208" 
d="M1165 903h-215l-86 -409h213l-22 -103h-213l-82 -391h-119l82 391h-342l-82 -391h-119l82 391h-217l23 103h217l86 409h-215l22 103h215l82 387h119l-82 -387h342l82 387h119l-82 -387h215zM745 494l86 409h-342l-86 -409h342z" />
    <glyph glyph-name="dollar" unicode="$" horiz-adv-x="1249" 
d="M686 -27v-178h-111v178q-134 7 -248.5 60.5t-244.5 165.5l82 98q125 -104 220 -150.5t191 -54.5v594q-250 67 -333.5 137t-89.5 230q0 154 121.5 255t301.5 113v176h111v-176q243 -21 430 -194l-84 -97q-91 83 -172.5 122.5t-173.5 47.5v-516q242 -62 339 -151.5
t97 -253.5q0 -173 -121 -285q-121 -109 -315 -121zM575 813v490q-130 -10 -211 -79.5t-81 -168.5q0 -97 64 -147.5t228 -94.5zM987 379q0 113 -70 173t-231 105v-565q136 11 218.5 88t82.5 199z" />
    <glyph glyph-name="percent" unicode="%" horiz-adv-x="1736" 
d="M1315 1421l90 -55l-981 -1395l-88 58zM1612 299q0 -139 -89 -229t-218 -90q-130 0 -219 90t-89 229q0 138 89.5 227.5t218.5 89.5t218 -89.5t89 -227.5zM1112 299q0 -98 53 -159.5t140 -61.5t139.5 61.5t52.5 159.5t-52.5 159.5t-139.5 61.5t-140 -61.5t-53 -159.5z
M737 1096q0 -139 -89 -229.5t-218 -90.5t-218 90.5t-89 229.5q0 138 89 227.5t218 89.5t218 -89.5t89 -227.5zM238 1096q0 -98 52.5 -160t139.5 -62t140 62t53 160t-53 159.5t-140 61.5t-139.5 -61.5t-52.5 -159.5z" />
    <glyph glyph-name="ampersand" unicode="&#x26;" horiz-adv-x="1411" 
d="M1391 0h-170l-195 227q-110 -133 -220.5 -194.5t-260.5 -61.5q-193 0 -318 109.5t-125 275.5q3 81 23.5 142t71 118t118.5 108t183 120q-90 106 -130 180t-40 154q0 128 97.5 211.5t240.5 83.5q141 0 234 -82t93 -203q0 -112 -63 -193q-65 -83 -236 -184l332 -385
l213 270l100 -71l-231 -295zM459 1178q0 -62 33 -117.5t124 -161.5q139 80 195 145q53 65 53 146q0 79 -57.5 128.5t-144.5 49.5t-145 -52.5t-58 -137.5zM944 324l-369 430q-193 -111 -263 -192.5t-70 -196.5q0 -123 86 -202t221 -79q116 0 202.5 55.5t192.5 184.5z" />
    <glyph glyph-name="quotesingle" unicode="'" horiz-adv-x="374" 
d="M252 1454l-16 -438h-97l-16 438h129z" />
    <glyph glyph-name="parenleft" unicode="(" horiz-adv-x="684" 
d="M575 1604l89 -78q-186 -221 -273.5 -431.5t-87.5 -465.5q0 -258 90 -473q88 -211 271 -424l-89 -78q-207 226 -309 458.5t-102 516.5t102 516.5t309 458.5z" />
    <glyph glyph-name="parenright" unicode=")" horiz-adv-x="684" 
d="M109 -346l-89 78q187 222 273 426q90 215 90 471q0 253 -89 466.5t-274 430.5l89 78q207 -226 309 -458.5t102 -516.5t-102 -516.5t-309 -458.5z" />
    <glyph glyph-name="asterisk" unicode="*" horiz-adv-x="890" 
d="M494 1454v-283l266 89l28 -84l-272 -86l178 -232l-73 -55l-179 233l-172 -229l-75 57l180 226l-273 88l29 84l264 -91v283h99z" />
    <glyph glyph-name="plus" unicode="+" 
d="M674 1167v-475h473v-114h-473v-476h-119v476h-473v114h473v475h119z" />
    <glyph glyph-name="comma" unicode="," horiz-adv-x="417" 
d="M307 188v-188l-110 -236h-84l96 236h-86v188h184z" />
    <glyph glyph-name="hyphen" unicode="-" horiz-adv-x="823" 
d="M700 647v-121h-577v121h577z" />
    <glyph glyph-name="period" unicode="." horiz-adv-x="417" 
d="M295 188v-188h-172v188h172z" />
    <glyph glyph-name="slash" unicode="/" horiz-adv-x="868" 
d="M817 1454l-635 -1454h-131l635 1454h131z" />
    <glyph glyph-name="zero" unicode="0" horiz-adv-x="1208" 
d="M1018 1171q98 -189 98 -475t-98 -475q-62 -120 -168.5 -186t-245.5 -66t-245.5 66t-168.5 186q-98 189 -98 475t98 475q62 120 168.5 186t245.5 66t245.5 -66t168.5 -186zM311 1108q-78 -167 -78 -412q0 -244 78 -411q95 -197 293 -197t293 197q78 167 78 411
q0 245 -78 412q-95 197 -293 197t-293 -197z" />
    <glyph glyph-name="one" unicode="1" horiz-adv-x="942" 
d="M510 1393h102v-1393h-137v1214l-321 -229l-68 96z" />
    <glyph glyph-name="two" unicode="2" horiz-adv-x="1150" 
d="M223 119h836v-119h-971v49q0 146 51 242q51 99 135 168q80 66 232 157q61 40 102 60q94 53 164 102q141 100 141 256q0 125 -86 198t-215 73q-128 0 -219 -60q-95 -63 -205 -196l-100 73q109 152 233.5 226.5t286.5 74.5q194 0 319.5 -108.5t125.5 -274.5
q0 -118 -52 -200q-53 -88 -122 -140q-65 -48 -201 -129l-94 -55q-150 -93 -201 -129q-141 -101 -160 -268z" />
    <glyph glyph-name="three" unicode="3" horiz-adv-x="1173" 
d="M1053 418q0 -84 -31.5 -163.5t-90 -143.5t-150.5 -103t-203 -39q-134 0 -255 40.5t-251 127.5l71 105q138 -86 228 -119q96 -35 202 -35q151 0 245.5 94t94.5 234q0 142 -93 221.5t-269 79.5q-99 0 -164 -27l-68 90l527 494h-707v119h879v-117l-483 -451l51 2
q204 0 336 -108q131 -107 131 -301z" />
    <glyph glyph-name="four" unicode="4" horiz-adv-x="1183" 
d="M924 453h215v-117h-215v-336h-136v336h-722v121l596 936h155l-598 -940h569v331h136v-331z" />
    <glyph glyph-name="five" unicode="5" horiz-adv-x="1208" 
d="M1094 449q1 -89 -34 -176t-97.5 -155.5t-156 -109.5t-198.5 -39q-154 0 -258 39q-110 41 -258 142l70 104q141 -97 229 -131q90 -35 203 -35q162 0 260 103t98 255q0 154 -90 243t-250 89q-190 0 -315 -125l-117 15l62 725h786v-119h-670l-41 -477q124 100 312 100
q207 0 336 -124.5t129 -323.5z" />
    <glyph glyph-name="six" unicode="6" horiz-adv-x="1208" 
d="M1116 440q0 -126 -59 -232.5t-173 -172.5t-261 -66q-157 0 -272 71.5t-172.5 190.5t-57.5 269q0 217 106 401t328 391l109 101h186v-2l-215 -195q-256 -238 -340 -440q126 151 356 151q138 0 245.5 -64.5t163.5 -170t56 -232.5zM975 438q0 156 -91.5 253t-250.5 97
q-171 0 -268 -100q-99 -99 -99 -250t98 -250.5t259 -99.5q162 0 257 97.5t95 252.5z" />
    <glyph glyph-name="seven" unicode="7" horiz-adv-x="1085" 
d="M49 1393h985v-99q-207 -263 -372 -606q-163 -346 -213 -688h-148q48 334 207 668q164 345 366 608h-825v117z" />
    <glyph glyph-name="eight" unicode="8" horiz-adv-x="1208" 
d="M1116 379q0 -179 -139.5 -294.5t-372.5 -115.5t-372.5 115.5t-139.5 294.5q0 134 74 233.5t207 143.5q-98 45 -152.5 123.5t-54.5 181.5q0 160 122.5 261t315.5 101t315.5 -101t122.5 -261q0 -103 -54 -181.5t-152 -123.5q133 -44 206.5 -143.5t73.5 -233.5zM604 807
q135 0 219 70.5t84 185.5q0 110 -82.5 178t-220.5 68t-220.5 -68t-82.5 -178q0 -115 84 -185.5t219 -70.5zM975 383q0 140 -101 225.5t-270 85.5t-270 -85.5t-101 -225.5q0 -131 101.5 -213t269.5 -82t269.5 82t101.5 213z" />
    <glyph glyph-name="nine" unicode="9" horiz-adv-x="1208" 
d="M1087 893q0 -230 -112 -414q-117 -190 -324 -379l-106 -100h-187v2l215 195q256 238 340 440q-127 -152 -356 -152q-138 0 -245.5 64.5t-163.5 170t-56 232.5q0 94 35 179t98 150t156.5 103.5t204.5 38.5q157 0 272 -71t172 -190t57 -269zM942 954q0 151 -97.5 251
t-258.5 100q-162 0 -257.5 -98t-95.5 -253q0 -156 91.5 -253t250.5 -97q167 0 267 99.5t100 250.5z" />
    <glyph glyph-name="colon" unicode=":" horiz-adv-x="499" 
d="M336 989v-186h-172v186h172zM336 188v-188h-172v188h172z" />
    <glyph glyph-name="semicolon" unicode=";" horiz-adv-x="499" 
d="M358 188v-188l-110 -236h-84l96 236h-86v188h184zM350 991v-188h-172v188h172z" />
    <glyph glyph-name="less" unicode="&#x3c;" 
d="M1106 1073v-131l-834 -307l834 -307v-131l-983 368v140z" />
    <glyph glyph-name="equal" unicode="=" 
d="M1147 897v-115h-1065v115h1065zM1147 487v-114h-1065v114h1065z" />
    <glyph glyph-name="greater" unicode="&#x3e;" 
d="M123 1073l983 -368v-140l-983 -368v131l833 307l-833 307v131z" />
    <glyph glyph-name="question" unicode="?" horiz-adv-x="989" 
d="M950 1128q0 -74 -29 -138t-72 -111.5t-122 -116.5q-30 -24 -55 -49q-67 -64 -94 -95q-62 -65 -70 -169l-6 -68h-105v84q0 83 15.5 133t51 93t118.5 114l39 33q106 93 146 150.5t40 137.5q0 106 -78 170t-207 64q-98 0 -181 -38.5t-196 -135.5l-84 92q119 107 227.5 157
t235.5 50q115 0 210 -39.5t155.5 -122.5t60.5 -195zM539 188v-188h-172v188h172z" />
    <glyph glyph-name="at" unicode="@" horiz-adv-x="1914" 
d="M1395 922l-113 -535q-14 -57 -14 -106q0 -158 155 -158q119 0 198 119t79 315q0 135 -37 251t-103.5 200.5t-156.5 144.5t-197 89.5t-225 29.5q-165 3 -309.5 -59.5t-245 -171.5t-157 -258t-54.5 -314q0 -165 53.5 -304.5t153.5 -242t252 -160t340 -57.5h436v-94h-467
q-199 -2 -366 62t-280 178.5t-175 274.5t-60 347q-3 189 60 355t176.5 286t278.5 188.5t358 65.5q180 1 336 -57t267 -163t173.5 -256.5t60.5 -328.5q0 -240 -111.5 -388t-285.5 -148q-122 0 -184.5 60t-69.5 151q-68 -106 -154 -158.5t-202 -52.5q-136 0 -213.5 81
t-77.5 226q-1 105 35 214t98.5 196.5t155 142t194.5 51.5q104 0 169 -45.5t83 -124.5l31 154h115zM1190 629q0 107 -44 158t-145 51q-75 3 -144.5 -42t-117 -116.5t-74.5 -160.5t-26 -173q0 -107 47 -161t135 -54q69 -3 131 31t104.5 89.5t73.5 123.5t46 134t14 120z" />
    <glyph glyph-name="A" unicode="A" horiz-adv-x="1331" 
d="M1143 0l-148 408h-661l-146 -408h-147l530 1454h189l530 -1454h-147zM379 530h571l-71 201l-17 43l-94 260q-49 138 -104 309q-54 -171 -175 -505l-38 -107z" />
    <glyph glyph-name="B" unicode="B" horiz-adv-x="1351" 
d="M1266 408q0 -186 -122 -297t-325 -111h-643v1454h619q192 0 305.5 -96.5t113.5 -270.5q0 -117 -60.5 -199t-166.5 -118q130 -39 204.5 -133.5t74.5 -228.5zM322 1333v-510h448q141 0 221 69t80 193q0 118 -79 183t-222 65h-448zM1120 410q0 136 -89.5 215.5t-248.5 79.5
h-460v-584h458q164 0 252 77t88 212z" />
    <glyph glyph-name="C" unicode="C" horiz-adv-x="1359" 
d="M1284 1284l-84 -100q-118 97 -216 136.5t-204 39.5q-247 0 -394.5 -176t-147.5 -457q0 -277 146.5 -455t379.5 -178q127 0 229 52.5t228 175.5l90 -97q-144 -141 -264 -198q-122 -58 -281 -58q-202 0 -356 97.5t-236 269.5t-82 391q0 221 81.5 392t238.5 268.5t368 97.5
q138 0 257 -46.5t247 -154.5z" />
    <glyph glyph-name="D" unicode="D" horiz-adv-x="1423" 
d="M1333 727q0 -329 -168.5 -528t-468.5 -199h-520v1454h520q300 0 468.5 -199t168.5 -528zM672 1333h-350v-1212h350q245 0 379.5 161t134.5 445q0 282 -134.5 444t-379.5 162z" />
    <glyph glyph-name="E" unicode="E" 
d="M1118 1454v-121h-796v-526h739v-119h-739v-567h813v-121h-959v1454h942z" />
    <glyph glyph-name="F" unicode="F" horiz-adv-x="1202" 
d="M1118 1454v-121h-796v-553h733v-121h-733v-659h-146v1454h942z" />
    <glyph glyph-name="G" unicode="G" horiz-adv-x="1505" 
d="M739 621v120h625v-741h-115l-14 213q-66 -120 -189 -181t-282 -61q-208 0 -361 95.5t-232 265.5t-79 395q0 218 82.5 389t240 269t367.5 98q171 0 309.5 -67t274.5 -210l-92 -94q-120 126 -238 188q-110 58 -258 58q-159 0 -282 -80t-190.5 -224t-67.5 -329
q0 -283 143.5 -456t386.5 -173q203 0 332 121.5t129 327.5v76h-490z" />
    <glyph glyph-name="H" unicode="H" horiz-adv-x="1478" 
d="M1305 1454v-1454h-148v690h-835v-690h-146v1454h146v-643h835v643h148z" />
    <glyph glyph-name="I" unicode="I" horiz-adv-x="526" 
d="M336 1454v-1454h-146v1454h146z" />
    <glyph glyph-name="J" unicode="J" horiz-adv-x="935" 
d="M770 1454v-1087q0 -196 -92.5 -293t-282.5 -97q-178 0 -364 103l57 108q183 -86 307 -86q112 0 171 68.5t59 206.5v1077h145z" />
    <glyph glyph-name="K" unicode="K" horiz-adv-x="1312" 
d="M1122 0l-526 776l-274 -280v-496h-146v1454h146v-782l757 782h178l-563 -577l594 -877h-166z" />
    <glyph glyph-name="L" unicode="L" horiz-adv-x="1091" 
d="M322 1454v-1333h716v-121h-862v1454h146z" />
    <glyph glyph-name="M" unicode="M" horiz-adv-x="1742" 
d="M1331 1454h236v-1454h-142v721q0 64 1 157t2 231.5t2 244.5q-29 -86 -230 -633l-264 -721h-129l-270 723q-92 237 -228 631q4 -552 4 -635v-719h-137v1454h234l245 -661q152 -409 217 -621q61 201 177 514l38 107z" />
    <glyph glyph-name="N" unicode="N" horiz-adv-x="1486" 
d="M1169 1454h142v-1454h-166l-459 694l-24 39q-245 367 -353 543q8 -213 8 -553v-723h-141v1454h166l457 -692l78 -121q217 -332 301 -467q-9 243 -9 555v725z" />
    <glyph glyph-name="O" unicode="O" horiz-adv-x="1540" 
d="M1448 727q0 -220 -81.5 -391t-236.5 -269t-360 -98t-360 98t-236.5 269t-81.5 391t81.5 391t236.5 269t360 98t360 -98t236.5 -269t81.5 -391zM238 727q0 -277 148 -455t384 -178t384.5 178t148.5 455t-148.5 455t-384.5 178t-384 -178t-148 -455z" />
    <glyph glyph-name="P" unicode="P" horiz-adv-x="1304" 
d="M1237 1030q0 -200 -127.5 -313t-341.5 -113h-446v-604h-146v1454h592q214 0 341.5 -112t127.5 -312zM750 1333h-428v-608h428q162 0 253 79t91 226q0 146 -91 224.5t-253 78.5z" />
    <glyph glyph-name="Q" unicode="Q" horiz-adv-x="1540" 
d="M1200 119l129 -172l-106 -74l-131 172q-140 -76 -322 -76q-205 0 -360 98t-236.5 269t-81.5 391t81.5 391t236.5 269t360 98t360 -98t236.5 -269t81.5 -391q0 -192 -64.5 -350t-183.5 -258zM1012 152l-203 268l106 76l201 -267q91 85 139 213.5t48 284.5
q0 277 -148.5 455t-384.5 178t-384 -178t-148 -455t148 -455t384 -178q132 0 242 58z" />
    <glyph glyph-name="R" unicode="R" horiz-adv-x="1343" 
d="M1268 0h-166l-408 604h-372v-604h-146v1454h576q212 0 339.5 -113t127.5 -311q0 -174 -98.5 -283.5t-268.5 -134.5zM322 1333v-608h407q163 0 254.5 78.5t91.5 226.5q0 146 -92.5 224.5t-255.5 78.5h-405z" />
    <glyph glyph-name="S" unicode="S" horiz-adv-x="1271" 
d="M1155 1278l-84 -100q-114 98 -218.5 140t-229.5 42q-159 0 -261 -74t-102 -188q0 -83 45 -131q45 -47 123 -75.5t250 -68.5q276 -65 387 -156.5t111 -258.5q0 -196 -146 -317.5t-373 -121.5q-169 0 -306 56t-292 186l84 102q150 -124 273 -174q113 -45 241 -45
q167 0 271 84t104 225q0 93 -49 148q-47 52 -126 82.5t-249 68.5q-115 26 -192.5 51.5t-136 56.5t-91 71.5t-49 91.5t-18.5 121q0 116 69.5 206.5t182.5 137.5t248 47q155 0 280.5 -49t253.5 -158z" />
    <glyph glyph-name="T" unicode="T" horiz-adv-x="1216" 
d="M1151 1454v-121h-469v-1333h-145v1333h-469v121h1083z" />
    <glyph glyph-name="U" unicode="U" horiz-adv-x="1392" 
d="M1229 1454v-1003q0 -231 -133.5 -355.5t-399.5 -124.5q-264 0 -397 124.5t-133 355.5v1003h145v-993q0 -179 99 -272t286 -93q191 0 289 92.5t98 272.5v993h146z" />
    <glyph glyph-name="V" unicode="V" horiz-adv-x="1265" 
d="M1077 1454h148l-500 -1454h-184l-500 1454h147l250 -731q140 -401 197 -608q73 255 194 606z" />
    <glyph glyph-name="W" unicode="W" horiz-adv-x="1892" 
d="M1679 1454h144l-350 -1454h-187l-196 717q-96 370 -142 557q-52 -234 -139 -559l-197 -715h-192l-350 1454h147l174 -733q57 -241 131 -590q66 283 152 590l203 733h151l199 -733q69 -252 149 -586q52 267 129 586z" />
    <glyph glyph-name="X" unicode="X" horiz-adv-x="1257" 
d="M1231 0h-162l-440 659l-441 -659h-163l516 762l-469 692h161l400 -594l393 594h162l-469 -692z" />
    <glyph glyph-name="Y" unicode="Y" horiz-adv-x="1247" 
d="M1051 1454h159l-516 -829v-625h-145v627l-512 827h162l426 -700z" />
    <glyph glyph-name="Z" unicode="Z" horiz-adv-x="1259" 
d="M1176 1454v-113l-922 -1220h917v-121h-1089v113l922 1220h-879v121h1051z" />
    <glyph glyph-name="bracketleft" unicode="[" horiz-adv-x="649" 
d="M567 1540v-100h-229v-1618h229v-98h-362v1816h362z" />
    <glyph glyph-name="backslash" unicode="\" horiz-adv-x="868" 
d="M51 1454h131l635 -1454h-131z" />
    <glyph glyph-name="bracketright" unicode="]" horiz-adv-x="649" 
d="M82 1540h362v-1816h-362v98h229v1618h-229v100z" />
    <glyph glyph-name="asciicircum" unicode="^" horiz-adv-x="1208" 
d="M676 1454l407 -881h-129l-350 760l-350 -760h-129l410 881h141z" />
    <glyph glyph-name="underscore" unicode="_" 
d="M1239 -295v-94h-1249v94h1249z" />
    <glyph glyph-name="grave" unicode="`" horiz-adv-x="550" 
d="M123 1434h156l149 -287h-119z" />
    <glyph glyph-name="a" unicode="a" horiz-adv-x="1064" 
d="M922 696v-696h-125v131q-50 -79 -140 -120.5t-204 -41.5q-163 0 -259 70t-96 203q2 67 25.5 117.5t60 85t100.5 61.5t128.5 44t162.5 36l216 39v61q0 103 -68.5 161t-185.5 58q-94 0 -169 -38.5t-165 -133.5l-86 78q92 106 192 155.5t221 49.5q182 0 287 -88t105 -232z
M791 354v166l-187 -37q-128 -26 -207 -51q-166 -56 -166 -188q0 -75 61 -118.5t167 -43.5q146 0 237 76q95 77 95 196z" />
    <glyph glyph-name="b" unicode="b" horiz-adv-x="1146" 
d="M1061 494q0 -228 -123 -373.5t-313 -145.5q-243 0 -351 187v-162h-127v1454h136v-620q111 180 342 180q192 0 314 -145t122 -375zM922 494q0 183 -85.5 295t-224.5 112q-151 0 -243.5 -109.5t-92.5 -297.5q0 -186 93 -295t243 -109q142 0 224 113q86 115 86 291z" />
    <glyph glyph-name="c" unicode="c" horiz-adv-x="997" 
d="M543 905q-101 0 -176 -59t-110.5 -151t-35.5 -201t35.5 -199t112 -148.5t180.5 -58.5q86 0 151 36t156 134l90 -76q-91 -114 -181.5 -161.5t-213.5 -47.5q-214 0 -341.5 142.5t-127.5 378.5q0 233 127.5 377.5t337.5 144.5q125 0 214 -43t175 -146l-92 -79
q-79 87 -147 122t-154 35z" />
    <glyph glyph-name="d" unicode="d" horiz-adv-x="1146" 
d="M864 1454h135v-1454h-127v168q-111 -193 -350 -193q-191 0 -313.5 145.5t-122.5 373.5q0 229 125 374.5t315 145.5q228 0 338 -174v614zM870 494q0 189 -92 298t-246 109q-138 0 -223 -113q-84 -116 -84 -294q0 -177 84 -293q83 -111 223 -111q151 0 244.5 109t93.5 295z
" />
    <glyph glyph-name="e" unicode="e" horiz-adv-x="1069" 
d="M899 266l86 -82q-104 -115 -203.5 -163t-224.5 -48q-218 0 -346.5 141t-128.5 373q0 234 127.5 381.5t333.5 147.5q203 0 320.5 -126.5t117.5 -342.5q0 -28 -4 -64h-758q6 -166 90 -282q83 -115 248 -115q102 0 170 39q76 42 172 141zM223 586h623q-5 148 -85 233.5
t-218 85.5q-135 0 -218 -81.5t-102 -237.5z" />
    <glyph glyph-name="f" unicode="f" horiz-adv-x="669" 
d="M362 1165v-176h263v-100h-263v-889h-135v889h-188v100h188v199q0 140 74.5 218.5t210.5 78.5q94 0 197 -35l-33 -107q-86 27 -146 27q-92 0 -130 -47t-38 -158z" />
    <glyph glyph-name="g" unicode="g" horiz-adv-x="1134" 
d="M860 989h127v-979q0 -186 -115 -293.5t-317 -107.5q-231 0 -438 145l69 101q111 -70 192.5 -100.5t176.5 -30.5q139 0 219 74.5t80 221.5v164q-108 -178 -332 -178q-191 0 -311.5 141.5t-120.5 362.5q0 220 120.5 363t311.5 143q232 0 338 -191v164zM856 510
q0 173 -88 283t-231 110q-144 0 -226 -107t-82 -286q0 -176 82 -282.5t226 -106.5q143 0 231 108q88 107 88 281z" />
    <glyph glyph-name="h" unicode="h" horiz-adv-x="1091" 
d="M948 678v-678h-135v633q0 133 -64 201.5t-186 68.5q-116 0 -198 -81t-82 -199v-623h-136v1454h136v-590q49 74 130 113t181 39q168 0 261 -95t93 -243z" />
    <glyph glyph-name="i" unicode="i" horiz-adv-x="430" 
d="M283 989v-989h-136v989h136zM283 1401v-193h-136v193h136z" />
    <glyph glyph-name="j" unicode="j" horiz-adv-x="436" 
d="M14 -281q76 0 108 45t32 144v1081h135v-1085q0 -297 -269 -297q-88 0 -186 31l31 104q94 -23 149 -23zM289 1401v-193h-135v193h135z" />
    <glyph glyph-name="k" unicode="k" horiz-adv-x="1003" 
d="M834 0l-357 520l-194 -198v-322h-136v1454h136v-983l499 518h166l-381 -387l418 -602h-151z" />
    <glyph glyph-name="l" unicode="l" horiz-adv-x="442" 
d="M289 1454v-1454h-135v1454h135z" />
    <glyph glyph-name="m" unicode="m" horiz-adv-x="1632" 
d="M1489 690v-690h-135v653q0 122 -55.5 186t-163.5 64q-110 0 -180 -76.5t-70 -197.5v-629h-135v653q0 122 -56 186t-164 64t-177.5 -74.5t-69.5 -199.5v-629h-136v989h127v-125q90 152 287 152q104 0 178.5 -45.5t110.5 -126.5q108 172 309 172q156 0 243 -90t87 -236z
" />
    <glyph glyph-name="n" unicode="n" horiz-adv-x="1091" 
d="M948 678v-678h-135v633q0 133 -64 201.5t-186 68.5q-116 0 -198 -81t-82 -199v-623h-136v989h127v-137q96 164 320 164q169 0 261.5 -93.5t92.5 -244.5z" />
    <glyph glyph-name="o" unicode="o" horiz-adv-x="1120" 
d="M1038 494q0 -230 -133.5 -375.5t-345.5 -145.5q-211 0 -344 145.5t-133 375.5q0 231 133 376.5t344 145.5q212 0 345.5 -145t133.5 -377zM221 494q0 -180 92 -295q91 -113 246 -113q154 0 247 113t93 295t-92 297q-91 114 -248 114q-155 0 -246 -114q-92 -115 -92 -297z
" />
    <glyph glyph-name="p" unicode="p" horiz-adv-x="1146" 
d="M1061 496q0 -230 -122.5 -375.5t-313.5 -145.5q-234 0 -342 172v-516h-136v1358h127v-166q112 191 351 191q191 0 313.5 -145t122.5 -373zM922 496q0 181 -85 293t-225 112q-151 0 -243.5 -108.5t-92.5 -296.5q0 -187 93 -296.5t243 -109.5q142 0 224 113q86 115 86 293z
" />
    <glyph glyph-name="q" unicode="q" horiz-adv-x="1146" 
d="M872 989h127v-1358h-135v521q-111 -177 -340 -177q-190 0 -314 146t-124 375q0 228 124 373t314 145q239 0 348 -189v164zM870 496q0 189 -92 297t-246 108q-136 0 -221.5 -112.5t-85.5 -292.5t85.5 -293t221.5 -113q151 0 244.5 109.5t93.5 296.5z" />
    <glyph glyph-name="r" unicode="r" horiz-adv-x="698" 
d="M676 971l-27 -109q-71 21 -129 21q-106 0 -171.5 -89.5t-65.5 -242.5v-551h-136v989h127v-153q35 79 98.5 121t147.5 42q77 0 156 -28z" />
    <glyph glyph-name="s" unicode="s" horiz-adv-x="954" 
d="M862 874l-76 -92q-96 71 -164 97t-155 26q-109 0 -175.5 -48t-66.5 -124q0 -46 31 -74q30 -26 81.5 -43.5t170.5 -44.5q202 -45 286.5 -110.5t84.5 -186.5q0 -135 -106.5 -218t-278.5 -83q-128 0 -227.5 41.5t-217.5 141.5l82 90q110 -93 188 -127q76 -33 175 -33
q111 0 181 50.5t70 131.5t-67 121.5t-227 73.5q-206 45 -279.5 97.5t-77.5 168.5q0 131 105 207q106 80 264 80q120 0 210.5 -33t188.5 -109z" />
    <glyph glyph-name="t" unicode="t" horiz-adv-x="700" 
d="M639 125l25 -107q-90 -34 -195 -34q-127 0 -184.5 57.5t-57.5 173.5v674h-188v100h188v346h135v-346h283v-100h-283v-656q0 -73 28.5 -104t96.5 -31q67 0 152 27z" />
    <glyph glyph-name="u" unicode="u" horiz-adv-x="1075" 
d="M793 989h135v-989h-127v131q-43 -76 -123.5 -117t-179.5 -41q-175 0 -265 88.5t-90 239.5v688h136v-659q0 -117 59 -178.5t168 -61.5q127 0 207 78t80 215v606z" />
    <glyph glyph-name="v" unicode="v" horiz-adv-x="944" 
d="M770 989h137l-348 -989h-176l-346 989h141l133 -383q64 -182 164 -504q55 193 162 504z" />
    <glyph glyph-name="w" unicode="w" horiz-adv-x="1452" 
d="M1264 989h139l-281 -989h-166l-100 340q-84 294 -133 491q-38 -167 -133 -495l-96 -336h-164l-281 989h139l107 -389q72 -269 123 -481q49 202 129 481l112 389h132l114 -389q92 -318 131 -485q47 203 123 485z" />
    <glyph glyph-name="x" unicode="x" horiz-adv-x="942" 
d="M911 0h-151l-287 426l-291 -426h-149l358 516l-332 473h152l262 -381l258 381h148l-326 -467z" />
    <glyph glyph-name="y" unicode="y" horiz-adv-x="956" 
d="M776 989h137l-403 -1139q-26 -71 -46.5 -111.5t-52 -73.5t-74.5 -45.5t-106 -12.5q-64 0 -133 16l23 107q67 -13 102 -13q63 0 100 36.5t72 135.5l19 56l-371 1044h143l123 -360l25 -72l145 -438l99 289l75 225z" />
    <glyph glyph-name="z" unicode="z" horiz-adv-x="958" 
d="M868 989v-96l-616 -780h616v-113h-786v100l618 779h-579v110h747z" />
    <glyph glyph-name="braceleft" unicode="{" horiz-adv-x="743" 
d="M662 1540v-100h-80q-73 0 -103 -23q-30 -24 -33 -55q-4 -46 -4 -137v-332q0 -115 -43 -177.5t-149 -80.5v-4q106 -18 149 -80.5t43 -177.5v-334v-90q0 -73 32 -100t108 -27h80v-98h-109q-76 0 -120 11t-73.5 44.5t-40 90.5t-10.5 155v329q0 109 -50 157t-157 48v148
q107 0 157 47.5t50 156.5v328q0 98 10.5 155t40 90.5t73.5 44.5t120 11h109z" />
    <glyph glyph-name="bar" unicode="|" horiz-adv-x="778" 
d="M451 1638v-1925h-123v1925h123z" />
    <glyph glyph-name="braceright" unicode="}" horiz-adv-x="743" 
d="M82 1540h108q76 0 120 -11t73.5 -44.5t40 -90.5t10.5 -155v-328q0 -109 50 -156.5t157 -47.5v-148q-107 0 -157 -48t-50 -157v-329q0 -98 -10.5 -155t-40 -90.5t-73.5 -44.5t-120 -11h-108v98h82q74 0 102 22q30 24 33 58q4 46 4 137v334q0 115 43.5 177.5t149.5 80.5v4
q-106 18 -149.5 80.5t-43.5 177.5v332v90q0 73 -31.5 99t-107.5 26h-82v100z" />
    <glyph glyph-name="asciitilde" unicode="~" 
d="M651 743q140 -57 209 -57q61 0 90.5 29t34.5 88h115q-5 -107 -62.5 -168.5t-169.5 -61.5q-51 0 -103.5 15t-135.5 49q-84 33 -135 47t-99 14q-65 0 -104 -31.5t-45 -86.5h-117q6 102 76.5 165.5t191.5 63.5q56 0 111 -15t143 -51z" />
    <glyph glyph-name="uni00A0" unicode="&#xa0;" horiz-adv-x="471" 
 />
    <glyph glyph-name="exclamdown" unicode="&#xa1;" horiz-adv-x="434" 
d="M131 805v186h172v-186h-172zM143 -463v434l31 631h84l31 -631v-434h-146z" />
    <glyph glyph-name="cent" unicode="&#xa2;" horiz-adv-x="1208" 
d="M690 -25v-180h-112v180q-192 21 -304 160q-110 137 -110 359q0 221 112 360q115 142 302 160v194h112v-194q99 -10 176.5 -55t151.5 -134l-92 -80q-66 74 -120.5 110t-115.5 46v-809q63 11 119.5 48t128.5 118l90 -76q-85 -100 -163.5 -148.5t-174.5 -58.5zM578 92v809
q-134 -21 -203 -139q-72 -119 -72 -268q0 -154 70 -267q70 -114 205 -135z" />
    <glyph glyph-name="sterling" unicode="&#xa3;" horiz-adv-x="1208" 
d="M1090 174l51 -108q-145 -93 -295 -93q-93 0 -256 39q-140 35 -219 35q-31 0 -59.5 -2.5t-51.5 -8t-42 -10.5t-35.5 -12t-26 -11.5t-20 -10t-11.5 -6.5l-43 114q121 50 201 121q79 73 82 209q0 79 -17 166h-201v104h172q-25 80 -47 168q-14 60 -14 162q0 179 123 284
t301 105q117 0 218.5 -39.5t205.5 -122.5l-78 -100q-98 78 -177 110.5t-171 32.5q-125 0 -203 -72t-78 -190q0 -40 4 -80.5t8.5 -69.5t12.5 -64.5t12.5 -51t13.5 -43.5t9 -29h463v-104h-437q15 -64 15 -156q-1 -99 -38 -164t-112 -114q120 -3 268 -39q155 -31 224 -31
q107 0 248 82z" />
    <glyph glyph-name="currency" unicode="&#xa4;" horiz-adv-x="1208" 
d="M993 1167l82 -80l-139 -139q86 -109 86 -252t-86 -252l137 -137l-82 -80l-139 140q-110 -72 -244 -72q-144 0 -248 76l-145 -146l-80 80l144 144q-84 110 -84 247q0 140 81 246l-143 143l82 80l143 -145q110 78 250 78q132 0 242 -72zM315 696q0 -124 84 -204t209 -80
t209 80t84 204t-84 204.5t-209 80.5t-209 -80.5t-84 -204.5z" />
    <glyph glyph-name="yen" unicode="&#xa5;" horiz-adv-x="1208" 
d="M1124 1393l-323 -549h254v-107h-318l-65 -112v-103h383v-106h-383v-416h-140v416h-380v106h380v105l-65 110h-315v107h254l-322 549h154l368 -648l369 648h149z" />
    <glyph glyph-name="brokenbar" unicode="&#xa6;" horiz-adv-x="778" 
d="M451 1638v-819h-123v819h123zM451 532v-819h-123v819h123z" />
    <glyph glyph-name="section" unicode="&#xa7;" horiz-adv-x="1208" 
d="M1022 180q0 -138 -118 -225.5t-294 -87.5q-132 0 -233 35t-211 118l72 97q111 -85 188 -111t182 -26q127 0 206 54.5t79 141.5q0 54 -37 84q-33 30 -91 49t-202 51q-237 53 -338.5 124.5t-101.5 201.5q0 183 221 260q-83 38 -120.5 89t-37.5 134q0 138 117.5 225
t294.5 87q134 0 235 -35t209 -119l-71 -96q-115 82 -191 108q-82 29 -180 29q-127 0 -206 -54.5t-79 -139.5q0 -52 35 -87q36 -32 100 -53.5t195 -48.5q237 -51 338.5 -121.5t101.5 -199.5q0 -187 -229 -263q89 -36 127.5 -86.5t38.5 -134.5zM618 467l64 -14q270 49 270 204
q0 66 -47 107q-44 39 -111.5 61.5t-203.5 51.5l-74 16q-260 -51 -260 -201q2 -41 19.5 -72t44.5 -53t75 -40.5t97.5 -31t125.5 -28.5z" />
    <glyph glyph-name="dieresis" unicode="&#xa8;" horiz-adv-x="724" 
d="M258 1401v-193h-135v193h135zM602 1401v-193h-135v193h135z" />
    <glyph glyph-name="copyright" unicode="&#xa9;" horiz-adv-x="1753" 
d="M123 727q-3 206 98 381.5t276 276t380 96.5q154 3 294.5 -56t241.5 -160t160 -242t57 -296q2 -155 -57 -296t-160 -242t-241.5 -160t-294.5 -56q-205 -4 -380 96.5t-276 276t-98 381.5zM1513 727q3 181 -80 332.5t-230.5 238.5t-325.5 84q-178 3 -325.5 -84t-231 -238.5
t-80.5 -332.5q-3 -181 80.5 -332.5t231 -238.5t325.5 -84q178 -3 325.5 84t230.5 238.5t80 332.5zM459 727q0 195 119 324t307 129q248 0 360 -219l-112 -54q-47 86 -104 123t-142 37q-132 0 -211 -98q-80 -95 -80 -242t80 -242q81 -96 211 -96q91 0 147 38.5t105 137.5
l112 -55q-64 -125 -148.5 -180.5t-217.5 -55.5q-188 0 -307 129t-119 324z" />
    <glyph glyph-name="ordfeminine" unicode="&#xaa;" horiz-adv-x="829" 
d="M717 1219v-527h-107v109q-76 -131 -264 -131q-120 0 -192 55t-72 152q0 111 87.5 169t270.5 91l164 30v37q0 78 -50.5 121t-137.5 43q-71 0 -129.5 -30t-122.5 -97l-72 66q131 155 326 155q141 0 220 -65.5t79 -177.5zM604 983v94l-137 -28q-148 -28 -210 -62t-62 -102
q0 -57 41.5 -88t119.5 -31q114 0 181 57.5t67 159.5z" />
    <glyph glyph-name="guillemotleft" unicode="&#xab;" horiz-adv-x="1132" 
d="M557 958l-283 -440l283 -440h-141l-283 440l283 440h141zM989 958l-282 -440l282 -440h-141l-283 440l283 440h141z" />
    <glyph glyph-name="logicalnot" unicode="&#xac;" 
d="M82 692h1065v-532h-121v418h-944v114z" />
    <glyph glyph-name="registered" unicode="&#xae;" horiz-adv-x="1150" 
d="M123 1026q0 192 130 322.5t322 130.5t322.5 -130.5t130.5 -322.5t-130.5 -322.5t-322.5 -130.5t-322 130.5t-130 322.5zM946 1026q0 162 -106 271.5t-265 109.5q-161 0 -265.5 -108.5t-104.5 -272.5t104.5 -272.5t265.5 -108.5q159 0 265 109.5t106 271.5zM401 778v508
h207q72 0 118 -45t46 -113q0 -103 -100 -143l129 -207h-96l-119 197h-99v-197h-86zM487 1047h103q98 0 98 81q0 38 -25 60t-73 22h-103v-163z" />
    <glyph glyph-name="overscore" unicode="&#xaf;" horiz-adv-x="780" 
d="M659 1329v-110h-534v110h534z" />
    <glyph glyph-name="degree" unicode="&#xb0;" horiz-adv-x="813" 
d="M123 1198q0 118 82.5 197.5t200.5 79.5t201 -80t83 -197q0 -120 -82 -199t-202 -79q-119 0 -201 79t-82 199zM580 1198q0 78 -49 127t-125 49t-125.5 -49.5t-49.5 -126.5q0 -78 50 -128t125 -50t124.5 50t49.5 128z" />
    <glyph glyph-name="plusminus" unicode="&#xb1;" 
d="M674 1333v-475h473v-115h-473v-475h-119v475h-473v115h473v475h119zM1147 115v-115h-1065v115h1065z" />
    <glyph glyph-name="uni00B2" unicode="&#xb2;" horiz-adv-x="813" 
d="M217 721h504v-103h-625v48q0 123 66 198q68 78 196 146l58 30q102 51 143 91t41 102q0 65 -47.5 100t-130.5 35q-114 0 -240 -117l-73 78q155 146 315 146q135 0 216 -67t81 -171q-3 -45 -15 -80t-27 -59t-49.5 -50.5t-62.5 -44t-86 -49.5l-57 -30q-111 -62 -154 -101.5
t-53 -101.5z" />
    <glyph glyph-name="uni00B3" unicode="&#xb3;" horiz-adv-x="802" 
d="M705 872q0 -69 -35 -130.5t-107.5 -102.5t-167.5 -41q-86 0 -158 22.5t-167 81.5l61 89q78 -49 137.5 -67.5t124.5 -18.5q85 0 137 47t52 120q0 70 -53 114t-142 44q-71 0 -111 -16l-55 76l307 262h-422v102h570v-100l-279 -236h25q125 0 204 -66t79 -180z" />
    <glyph glyph-name="acute" unicode="&#xb4;" horiz-adv-x="550" 
d="M428 1434l-186 -287h-119l149 287h156z" />
    <glyph glyph-name="uni00B5" unicode="&#xb5;" horiz-adv-x="1081" 
d="M797 989h137v-989h-125v141q-42 -83 -119.5 -125.5t-179.5 -42.5q-150 0 -225 78v-426h-138v1364h138v-659q0 -117 60.5 -177.5t176.5 -60.5q120 0 197.5 78t77.5 213v606z" />
    <glyph glyph-name="paragraph" unicode="&#xb6;" horiz-adv-x="1294" 
d="M823 1454v-1659h-118v776h-158q-209 0 -337 120.5t-128 322.5q0 203 127 321q128 119 338 119h276zM1118 1454v-1659h-121v1659h121z" />
    <glyph glyph-name="middot" unicode="&#xb7;" horiz-adv-x="417" 
d="M295 719v-189h-172v189h172z" />
    <glyph glyph-name="cedilla" unicode="&#xb8;" horiz-adv-x="667" 
d="M545 -293q0 -79 -58 -128.5t-149 -49.5q-105 0 -215 70l43 73q60 -32 93.5 -43.5t74.5 -11.5q52 0 84.5 23t32.5 65q0 37 -34.5 59.5t-90.5 22.5q-36 0 -60 -6l-51 49l96 207l76 -37l-65 -139q98 8 160.5 -34.5t62.5 -119.5z" />
    <glyph glyph-name="uni00B9" unicode="&#xb9;" horiz-adv-x="649" 
d="M346 1454h90v-836h-117v687l-165 -121l-60 82z" />
    <glyph glyph-name="ordmasculine" unicode="&#xba;" horiz-adv-x="905" 
d="M815 1071q0 -173 -102 -284t-260 -111q-157 0 -259 111t-102 284q0 174 102 285.5t259 111.5q159 0 260.5 -111.5t101.5 -285.5zM209 1071q0 -135 66 -217t178 -82t178.5 82.5t66.5 216.5q0 136 -66.5 218.5t-178.5 82.5t-178 -82t-66 -219z" />
    <glyph glyph-name="guillemotright" unicode="&#xbb;" horiz-adv-x="1132" 
d="M143 958h142l282 -440l-282 -440h-142l283 440zM575 958h142l282 -440l-282 -440h-142l283 440z" />
    <glyph glyph-name="onequarter" unicode="&#xbc;" horiz-adv-x="1773" 
d="M346 1393h90v-836h-117v686l-165 -121l-60 82zM1280 1421l90 -55l-981 -1395l-88 58zM1587 293h119v-98h-119v-195h-119v195h-432v110l355 531h133l-365 -543h309v184h119v-184z" />
    <glyph glyph-name="onehalf" unicode="&#xbd;" horiz-adv-x="1837" 
d="M346 1393h90v-836h-117v686l-165 -121l-60 82zM1280 1421l90 -55l-981 -1395l-88 58zM1241 102h504v-102h-625v47q0 124 66 199q67 76 196 145l58 31q102 52 143 91t41 101q0 65 -47.5 100.5t-130.5 35.5q-114 0 -240 -117l-73 78q154 145 315 145q135 0 216 -67t81 -171
q-3 -45 -15 -80t-27 -59t-49.5 -50.5t-62.5 -43.5t-86 -49l-57 -31q-111 -62 -154 -101.5t-53 -101.5z" />
    <glyph glyph-name="threequarters" unicode="&#xbe;" horiz-adv-x="1927" 
d="M705 811q0 -69 -35 -130.5t-107.5 -102.5t-167.5 -41q-86 0 -158 22.5t-167 81.5l61 88q78 -49 137.5 -67.5t124.5 -18.5q85 0 137 47.5t52 120.5q0 70 -53 114t-142 44q-69 0 -111 -17l-55 76l307 262h-422v103h570v-101l-279 -235h25q125 0 204 -66t79 -180zM1434 1421
l90 -55l-981 -1395l-88 58zM1741 293h119v-98h-119v-195h-119v195h-432v110l354 531h133l-364 -543h309v184h119v-184z" />
    <glyph glyph-name="questiondown" unicode="&#xbf;" horiz-adv-x="927" 
d="M430 805v186h172v-186h-172zM18 -135q0 83 33 145q30 61 70 105.5t121 115.5l55 50q60 54 92 90q64 67 72 172l6 69h104v-86q-3 -87 -18.5 -135t-48 -88t-117.5 -117l-41 -36q-104 -88 -145 -146.5t-41 -136.5q0 -108 78 -172t206 -64q98 0 181 38.5t196 135.5l86 -92
q-119 -107 -228 -157t-237 -50q-113 0 -208 40.5t-155.5 124t-60.5 194.5z" />
    <glyph glyph-name="Agrave" unicode="&#xc0;" horiz-adv-x="1331" 
d="M1143 0l-148 408h-661l-146 -408h-147l530 1454h189l530 -1454h-147zM379 530h571l-71 201l-17 43l-94 260q-49 138 -104 309q-54 -171 -175 -505l-38 -107zM422 1858h156l149 -287h-119z" />
    <glyph glyph-name="Aacute" unicode="&#xc1;" horiz-adv-x="1331" 
d="M1143 0l-148 408h-661l-146 -408h-147l530 1454h189l530 -1454h-147zM379 530h571l-71 201l-17 43l-94 260q-49 138 -104 309q-54 -171 -175 -505l-38 -107zM907 1858l-186 -287h-119l150 287h155z" />
    <glyph glyph-name="Acircumflex" unicode="&#xc2;" horiz-adv-x="1331" 
d="M1143 0l-148 408h-661l-146 -408h-147l530 1454h189l530 -1454h-147zM379 530h571l-71 201l-17 43l-94 260q-49 138 -104 309q-54 -171 -175 -505l-38 -107zM827 1571l-161 211l-164 -211h-119l197 287h170l196 -287h-119z" />
    <glyph glyph-name="Atilde" unicode="&#xc3;" horiz-adv-x="1331" 
d="M1143 0l-148 408h-661l-146 -408h-147l530 1454h189l530 -1454h-147zM379 530h571l-71 201l-17 43l-94 260q-49 138 -104 309q-54 -171 -175 -505l-38 -107zM690 1745q46 -28 70 -38.5t49 -10.5q65 0 65 108h95q0 -96 -40 -152.5t-112 -56.5q-33 0 -63.5 12.5t-85.5 45.5
q-95 53 -142 53q-69 0 -69 -109h-95q0 95 44 152t122 57q38 0 69 -12.5t93 -48.5z" />
    <glyph glyph-name="Adieresis" unicode="&#xc4;" horiz-adv-x="1331" 
d="M1143 0l-148 408h-661l-146 -408h-147l530 1454h189l530 -1454h-147zM379 530h571l-71 201l-17 43l-94 260q-49 138 -104 309q-54 -171 -175 -505l-38 -107zM559 1825v-193h-135v193h135zM903 1825v-193h-135v193h135z" />
    <glyph glyph-name="Aring" unicode="&#xc5;" horiz-adv-x="1339" 
d="M1151 0l-147 408h-668l-148 -408h-147l522 1432q-60 29 -94.5 83t-34.5 121q0 97 68 162q71 68 168 68q98 0 166 -68q69 -63 69 -162q0 -67 -34.5 -121t-94.5 -83l522 -1432h-147zM530 1636q0 -61 40 -101t100 -40q62 0 100.5 39t38.5 102t-39 103.5t-100 40.5
t-100.5 -40.5t-39.5 -103.5zM379 530h579l-71 199l-27 76q-41 108 -86 235q-68 191 -106 318q-46 -153 -217 -629z" />
    <glyph glyph-name="AE" unicode="&#xc6;" horiz-adv-x="1929" 
d="M1020 121h815v-121h-961v408h-491l-213 -408h-150l760 1454h1039v-121h-799v-526h741v-119h-741v-567zM446 530h428v818z" />
    <glyph glyph-name="Ccedilla" unicode="&#xc7;" horiz-adv-x="1359" 
d="M963 -293q0 -79 -58 -128.5t-149 -49.5q-105 0 -215 70l43 73q60 -32 93.5 -43.5t74.5 -11.5q52 0 84 23t32 65q0 37 -34.5 59.5t-90.5 22.5q-35 0 -59 -6l-51 49l65 141q-184 16 -322.5 117.5t-211 266.5t-72.5 372q0 221 81.5 392t238.5 268.5t368 97.5
q138 0 257 -46.5t247 -154.5l-84 -100q-118 97 -216 136.5t-204 39.5q-247 0 -394.5 -176t-147.5 -457q0 -277 146.5 -455t379.5 -178q127 0 229 52.5t228 175.5l90 -97q-135 -135 -253.5 -193t-266.5 -63l-52 -108q98 8 161 -34.5t63 -119.5z" />
    <glyph glyph-name="Egrave" unicode="&#xc8;" 
d="M1118 1454v-121h-796v-526h739v-119h-739v-567h813v-121h-959v1454h942zM403 1858h156l150 -287h-119z" />
    <glyph glyph-name="Eacute" unicode="&#xc9;" 
d="M1118 1454v-121h-796v-526h739v-119h-739v-567h813v-121h-959v1454h942zM891 1858l-186 -287h-119l149 287h156z" />
    <glyph glyph-name="Ecircumflex" unicode="&#xca;" 
d="M1118 1454v-121h-796v-526h739v-119h-739v-567h813v-121h-959v1454h942zM811 1571l-162 211l-164 -211h-118l196 287h170l197 -287h-119z" />
    <glyph glyph-name="Edieresis" unicode="&#xcb;" 
d="M1118 1454v-121h-796v-526h739v-119h-739v-567h813v-121h-959v1454h942zM543 1825v-193h-135v193h135zM887 1825v-193h-135v193h135z" />
    <glyph glyph-name="Igrave" unicode="&#xcc;" horiz-adv-x="526" 
d="M336 1454v-1454h-146v1454h146zM20 1858h156l150 -287h-119z" />
    <glyph glyph-name="Iacute" unicode="&#xcd;" horiz-adv-x="526" 
d="M336 1454v-1454h-146v1454h146zM506 1858l-187 -287h-118l149 287h156z" />
    <glyph glyph-name="Icircumflex" unicode="&#xce;" horiz-adv-x="526" 
d="M336 1454v-1454h-146v1454h146zM426 1571l-162 211l-164 -211h-118l196 287h170l197 -287h-119z" />
    <glyph glyph-name="Idieresis" unicode="&#xcf;" horiz-adv-x="526" 
d="M336 1454v-1454h-146v1454h146zM158 1825v-193h-135v193h135zM502 1825v-193h-135v193h135z" />
    <glyph glyph-name="Eth" unicode="&#xd0;" horiz-adv-x="1478" 
d="M1389 727q0 -329 -168.5 -528t-468.5 -199h-521v690h-178v119h178v645h521q300 0 468.5 -199t168.5 -528zM1241 727q0 282 -134.5 444t-379.5 162h-350v-524h399v-119h-399v-569h350q245 0 379.5 161t134.5 445z" />
    <glyph glyph-name="Ntilde" unicode="&#xd1;" horiz-adv-x="1486" 
d="M1169 1454h142v-1454h-166l-459 694l-24 39q-245 367 -353 543q8 -213 8 -553v-723h-141v1454h166l457 -692l78 -121q217 -332 301 -467q-9 243 -9 555v725zM782 1745q46 -28 70 -38.5t49 -10.5q66 0 66 108h94q0 -96 -40 -152.5t-112 -56.5q-33 0 -63.5 12.5t-85.5 45.5
q-95 53 -142 53q-69 0 -69 -109h-94q0 95 44 152t122 57q38 0 68 -12.5t93 -48.5z" />
    <glyph glyph-name="Ograve" unicode="&#xd2;" horiz-adv-x="1540" 
d="M1448 727q0 -220 -81.5 -391t-236.5 -269t-360 -98t-360 98t-236.5 269t-81.5 391t81.5 391t236.5 269t360 98t360 -98t236.5 -269t81.5 -391zM238 727q0 -277 148 -455t384 -178t384.5 178t148.5 455t-148.5 455t-384.5 178t-384 -178t-148 -455zM526 1858h156l149 -287
h-118z" />
    <glyph glyph-name="Oacute" unicode="&#xd3;" horiz-adv-x="1540" 
d="M1448 727q0 -220 -81.5 -391t-236.5 -269t-360 -98t-360 98t-236.5 269t-81.5 391t81.5 391t236.5 269t360 98t360 -98t236.5 -269t81.5 -391zM238 727q0 -277 148 -455t384 -178t384.5 178t148.5 455t-148.5 455t-384.5 178t-384 -178t-148 -455zM1014 1858l-187 -287
h-118l149 287h156z" />
    <glyph glyph-name="Ocircumflex" unicode="&#xd4;" horiz-adv-x="1540" 
d="M1448 727q0 -220 -81.5 -391t-236.5 -269t-360 -98t-360 98t-236.5 269t-81.5 391t81.5 391t236.5 269t360 98t360 -98t236.5 -269t81.5 -391zM238 727q0 -277 148 -455t384 -178t384.5 178t148.5 455t-148.5 455t-384.5 178t-384 -178t-148 -455zM934 1571l-162 211
l-164 -211h-119l197 287h170l197 -287h-119z" />
    <glyph glyph-name="Otilde" unicode="&#xd5;" horiz-adv-x="1540" 
d="M1448 727q0 -220 -81.5 -391t-236.5 -269t-360 -98t-360 98t-236.5 269t-81.5 391t81.5 391t236.5 269t360 98t360 -98t236.5 -269t81.5 -391zM238 727q0 -277 148 -455t384 -178t384.5 178t148.5 455t-148.5 455t-384.5 178t-384 -178t-148 -455zM795 1745
q46 -29 69.5 -39t48.5 -10q66 0 66 108h94q0 -96 -39.5 -152.5t-111.5 -56.5q-33 0 -64 13t-86 45q-95 53 -141 53q-70 0 -70 -109h-94q0 95 44 152t122 57q38 0 69 -12.5t93 -48.5z" />
    <glyph glyph-name="Odieresis" unicode="&#xd6;" horiz-adv-x="1540" 
d="M1448 727q0 -220 -81.5 -391t-236.5 -269t-360 -98t-360 98t-236.5 269t-81.5 391t81.5 391t236.5 269t360 98t360 -98t236.5 -269t81.5 -391zM238 727q0 -277 148 -455t384 -178t384.5 178t148.5 455t-148.5 455t-384.5 178t-384 -178t-148 -455zM666 1825v-193h-136
v193h136zM1010 1825v-193h-136v193h136z" />
    <glyph glyph-name="multiply" unicode="&#xd7;" 
d="M1071 1012l-377 -377l377 -377l-80 -80l-377 377l-378 -377l-80 80l376 377l-376 377l80 82l378 -377l377 377z" />
    <glyph glyph-name="Oslash" unicode="&#xd8;" horiz-adv-x="1540" 
d="M1448 727q0 -220 -81.5 -391t-236.5 -269t-360 -98q-253 0 -434 152l-100 -121l-84 72l108 129q-82 100 -125 235.5t-43 290.5q0 220 81.5 391t236.5 269t360 98q253 0 434 -152l101 121l84 -72l-109 -129q82 -100 125 -235.5t43 -290.5zM352 313l762 914
q-142 133 -344 133q-236 0 -384 -178t-148 -455q0 -245 114 -414zM1303 727q0 243 -115 414l-762 -914q145 -133 344 -133q236 0 384.5 178t148.5 455z" />
    <glyph glyph-name="Ugrave" unicode="&#xd9;" horiz-adv-x="1392" 
d="M1229 1454v-1003q0 -231 -133.5 -355.5t-399.5 -124.5q-264 0 -397 124.5t-133 355.5v1003h145v-993q0 -179 99 -272t286 -93q191 0 289 92.5t98 272.5v993h146zM453 1858h155l150 -287h-119z" />
    <glyph glyph-name="Uacute" unicode="&#xda;" horiz-adv-x="1392" 
d="M1229 1454v-1003q0 -231 -133.5 -355.5t-399.5 -124.5q-264 0 -397 124.5t-133 355.5v1003h145v-993q0 -179 99 -272t286 -93q191 0 289 92.5t98 272.5v993h146zM940 1858l-186 -287h-119l149 287h156z" />
    <glyph glyph-name="Ucircumflex" unicode="&#xdb;" horiz-adv-x="1392" 
d="M1229 1454v-1003q0 -231 -133.5 -355.5t-399.5 -124.5q-264 0 -397 124.5t-133 355.5v1003h145v-993q0 -179 99 -272t286 -93q191 0 289 92.5t98 272.5v993h146zM860 1571l-162 211l-163 -211h-119l196 287h170l197 -287h-119z" />
    <glyph glyph-name="Udieresis" unicode="&#xdc;" horiz-adv-x="1392" 
d="M1229 1454v-1003q0 -231 -133.5 -355.5t-399.5 -124.5q-264 0 -397 124.5t-133 355.5v1003h145v-993q0 -179 99 -272t286 -93q191 0 289 92.5t98 272.5v993h146zM592 1825v-193h-135v193h135zM936 1825v-193h-135v193h135z" />
    <glyph glyph-name="Yacute" unicode="&#xdd;" horiz-adv-x="1247" 
d="M1051 1454h159l-516 -829v-625h-145v627l-512 827h162l426 -700zM866 1858l-186 -287h-119l150 287h155z" />
    <glyph glyph-name="Thorn" unicode="&#xde;" horiz-adv-x="1304" 
d="M1237 758q0 -200 -127.5 -312t-341.5 -112h-446v-334h-146v1454h146v-272h446q214 0 341.5 -112t127.5 -312zM1094 758q0 146 -91 224.5t-253 78.5h-428v-606h428q162 0 253 78t91 225z" />
    <glyph glyph-name="germandbls" unicode="&#xdf;" horiz-adv-x="1167" 
d="M1081 432q0 -189 -122 -317.5t-314 -128.5q-113 0 -242 37l25 106q1 0 15 -4t33 -8.5t44 -9.5t56.5 -8t62.5 -3q129 0 217 92.5t88 241.5q0 162 -101.5 249t-295.5 87h-51v104h51q129 0 198.5 69.5t69.5 193.5q0 105 -74 171t-188 66q-131 0 -200.5 -78t-69.5 -227v-1065
h-136v1081q0 187 111 294.5t297 107.5q168 0 279.5 -100.5t111.5 -249.5q0 -104 -47.5 -180.5t-128.5 -114.5q144 -39 227.5 -146.5t83.5 -259.5z" />
    <glyph glyph-name="agrave" unicode="&#xe0;" horiz-adv-x="1064" 
d="M922 696v-696h-125v131q-50 -79 -140 -120.5t-204 -41.5q-163 0 -259 70t-96 203q2 67 25.5 117.5t60 85t100.5 61.5t128.5 44t162.5 36l216 39v61q0 103 -68.5 161t-185.5 58q-94 0 -169 -38.5t-165 -133.5l-86 78q92 106 192 155.5t221 49.5q182 0 287 -88t105 -232z
M791 354v166l-187 -37q-128 -26 -207 -51q-166 -56 -166 -188q0 -75 61 -118.5t167 -43.5q146 0 237 76q95 77 95 196zM303 1434h156l149 -287h-119z" />
    <glyph glyph-name="aacute" unicode="&#xe1;" horiz-adv-x="1064" 
d="M922 696v-696h-125v131q-50 -79 -140 -120.5t-204 -41.5q-163 0 -259 70t-96 203q2 67 25.5 117.5t60 85t100.5 61.5t128.5 44t162.5 36l216 39v61q0 103 -68.5 161t-185.5 58q-94 0 -169 -38.5t-165 -133.5l-86 78q92 106 192 155.5t221 49.5q182 0 287 -88t105 -232z
M791 354v166l-187 -37q-128 -26 -207 -51q-166 -56 -166 -188q0 -75 61 -118.5t167 -43.5q146 0 237 76q95 77 95 196zM788 1434l-186 -287h-119l150 287h155z" />
    <glyph glyph-name="acircumflex" unicode="&#xe2;" horiz-adv-x="1064" 
d="M922 696v-696h-125v131q-50 -79 -140 -120.5t-204 -41.5q-163 0 -259 70t-96 203q2 67 25.5 117.5t60 85t100.5 61.5t128.5 44t162.5 36l216 39v61q0 103 -68.5 161t-185.5 58q-94 0 -169 -38.5t-165 -133.5l-86 78q92 106 192 155.5t221 49.5q182 0 287 -88t105 -232z
M791 354v166l-187 -37q-128 -26 -207 -51q-166 -56 -166 -188q0 -75 61 -118.5t167 -43.5q146 0 237 76q95 77 95 196zM709 1147l-162 211l-164 -211h-119l197 287h170l196 -287h-118z" />
    <glyph glyph-name="atilde" unicode="&#xe3;" horiz-adv-x="1064" 
d="M922 696v-696h-125v131q-50 -79 -140 -120.5t-204 -41.5q-163 0 -259 70t-96 203q2 67 25.5 117.5t60 85t100.5 61.5t128.5 44t162.5 36l216 39v61q0 103 -68.5 161t-185.5 58q-94 0 -169 -38.5t-165 -133.5l-86 78q92 106 192 155.5t221 49.5q182 0 287 -88t105 -232z
M791 354v166l-187 -37q-128 -26 -207 -51q-166 -56 -166 -188q0 -75 61 -118.5t167 -43.5q146 0 237 76q95 77 95 196zM571 1321q46 -28 70 -38.5t49 -10.5q66 0 66 108h94q0 -96 -40 -152.5t-112 -56.5q-33 0 -63.5 12.5t-85.5 45.5q-95 53 -141 53q-70 0 -70 -108h-94
q0 95 44 151.5t122 56.5q38 0 68 -12.5t93 -48.5z" />
    <glyph glyph-name="adieresis" unicode="&#xe4;" horiz-adv-x="1064" 
d="M922 696v-696h-125v131q-50 -79 -140 -120.5t-204 -41.5q-163 0 -259 70t-96 203q2 67 25.5 117.5t60 85t100.5 61.5t128.5 44t162.5 36l216 39v61q0 103 -68.5 161t-185.5 58q-94 0 -169 -38.5t-165 -133.5l-86 78q92 106 192 155.5t221 49.5q182 0 287 -88t105 -232z
M791 354v166l-187 -37q-128 -26 -207 -51q-166 -56 -166 -188q0 -75 61 -118.5t167 -43.5q146 0 237 76q95 77 95 196zM440 1401v-193h-135v193h135zM784 1401v-193h-135v193h135z" />
    <glyph glyph-name="aring" unicode="&#xe5;" horiz-adv-x="1064" 
d="M922 696v-696h-125v131q-50 -79 -140 -120.5t-204 -41.5q-163 0 -259 70t-96 203q2 67 25.5 117.5t60 85t100.5 61.5t128.5 44t162.5 36l216 39v61q0 103 -68.5 161t-185.5 58q-94 0 -169 -38.5t-165 -133.5l-86 78q92 106 192 155.5t221 49.5q182 0 287 -88t105 -232z
M791 354v166l-187 -37q-128 -26 -207 -51q-166 -56 -166 -188q0 -75 61 -118.5t167 -43.5q146 0 237 76q95 77 95 196zM752 1335q0 -85 -59.5 -143.5t-147.5 -58.5q-86 0 -145.5 58.5t-59.5 143.5t59.5 143t145.5 58q88 0 147.5 -58t59.5 -143zM424 1335q0 -56 33.5 -90.5
t87.5 -34.5t87.5 34.5t33.5 90.5t-33.5 90.5t-87.5 34.5t-87.5 -34.5t-33.5 -90.5z" />
    <glyph glyph-name="ae" unicode="&#xe6;" horiz-adv-x="1777" 
d="M1610 266l84 -82q-104 -115 -203.5 -163t-224.5 -48q-123 0 -222 49.5t-163 141.5q-170 -195 -432 -195q-159 0 -255 70.5t-96 198.5q0 130 90 205.5t289 113.5l314 61v60q0 227 -242 227q-85 0 -165 -37.5t-171 -119.5l-80 83q102 97 203 141t221 44q260 0 336 -176
q122 176 358 176q203 0 321 -126.5t118 -342.5l-4 -70h-758q6 -162 90 -278q82 -113 248 -113q102 0 170 39q74 40 174 141zM932 580h624q-5 151 -86 239t-219 88q-132 0 -216 -85t-103 -242zM827 264q-33 84 -36 252l-265 -55q-157 -33 -225 -82t-68 -133q0 -78 61.5 -121
t162.5 -43q113 0 208.5 49.5t161.5 132.5z" />
    <glyph glyph-name="ccedilla" unicode="&#xe7;" horiz-adv-x="997" 
d="M578 -27l-54 -112q97 8 160.5 -35.5t63.5 -118.5q0 -79 -58 -128.5t-151 -49.5q-105 0 -215 70l43 73q60 -32 93.5 -43.5t74.5 -11.5q52 0 84 23t32 65q0 37 -34.5 59.5t-90.5 22.5q-35 0 -59 -6l-51 49l67 147q-186 21 -295 160q-106 138 -106 357q0 233 127.5 377.5
t337.5 144.5q125 0 214 -43t175 -146l-92 -79q-79 87 -147 122t-154 35q-101 0 -176 -59t-110.5 -151t-35.5 -201t35.5 -199t112 -148.5t180.5 -58.5q86 0 151 36t156 134l90 -76q-85 -108 -171.5 -156t-196.5 -53z" />
    <glyph glyph-name="egrave" unicode="&#xe8;" horiz-adv-x="1069" 
d="M899 266l86 -82q-104 -115 -203.5 -163t-224.5 -48q-218 0 -346.5 141t-128.5 373q0 234 127.5 381.5t333.5 147.5q203 0 320.5 -126.5t117.5 -342.5q0 -28 -4 -64h-758q6 -166 90 -282q83 -115 248 -115q102 0 170 39q76 42 172 141zM223 586h623q-5 148 -85 233.5
t-218 85.5q-135 0 -218 -81.5t-102 -237.5zM319 1434h156l150 -287h-119z" />
    <glyph glyph-name="eacute" unicode="&#xe9;" horiz-adv-x="1069" 
d="M899 266l86 -82q-104 -115 -203.5 -163t-224.5 -48q-218 0 -346.5 141t-128.5 373q0 234 127.5 381.5t333.5 147.5q203 0 320.5 -126.5t117.5 -342.5q0 -28 -4 -64h-758q6 -166 90 -282q83 -115 248 -115q102 0 170 39q76 42 172 141zM223 586h623q-5 148 -85 233.5
t-218 85.5q-135 0 -218 -81.5t-102 -237.5zM805 1434l-187 -287h-118l149 287h156z" />
    <glyph glyph-name="ecircumflex" unicode="&#xea;" horiz-adv-x="1069" 
d="M899 266l86 -82q-104 -115 -203.5 -163t-224.5 -48q-218 0 -346.5 141t-128.5 373q0 234 127.5 381.5t333.5 147.5q203 0 320.5 -126.5t117.5 -342.5q0 -28 -4 -64h-758q6 -166 90 -282q83 -115 248 -115q102 0 170 39q76 42 172 141zM223 586h623q-5 148 -85 233.5
t-218 85.5q-135 0 -218 -81.5t-102 -237.5zM725 1147l-162 211l-164 -211h-118l196 287h170l197 -287h-119z" />
    <glyph glyph-name="edieresis" unicode="&#xeb;" horiz-adv-x="1069" 
d="M899 266l86 -82q-104 -115 -203.5 -163t-224.5 -48q-218 0 -346.5 141t-128.5 373q0 234 127.5 381.5t333.5 147.5q203 0 320.5 -126.5t117.5 -342.5q0 -28 -4 -64h-758q6 -166 90 -282q83 -115 248 -115q102 0 170 39q76 42 172 141zM223 586h623q-5 148 -85 233.5
t-218 85.5q-135 0 -218 -81.5t-102 -237.5zM457 1401v-193h-135v193h135zM801 1401v-193h-135v193h135z" />
    <glyph glyph-name="igrave" unicode="&#xec;" horiz-adv-x="430" 
d="M283 989v-989h-136v989h136zM-27 1434h156l150 -287h-119z" />
    <glyph glyph-name="iacute" unicode="&#xed;" horiz-adv-x="430" 
d="M283 989v-989h-136v989h136zM459 1434l-187 -287h-118l149 287h156z" />
    <glyph glyph-name="icircumflex" unicode="&#xee;" horiz-adv-x="430" 
d="M283 989v-989h-136v989h136zM379 1147l-162 211l-164 -211h-119l197 287h170l197 -287h-119z" />
    <glyph glyph-name="idieresis" unicode="&#xef;" horiz-adv-x="430" 
d="M283 989v-989h-136v989h136zM111 1401v-193h-136v193h136zM455 1401v-193h-136v193h136z" />
    <glyph glyph-name="eth" unicode="&#xf0;" horiz-adv-x="1150" 
d="M1044 600q0 -290 -129 -463q-126 -170 -356 -170q-138 0 -248.5 71t-169.5 186.5t-59 248.5q0 99 32.5 190.5t89.5 160.5t141.5 110t182.5 41q133 0 235.5 -63t154.5 -173q-17 159 -80 269.5t-185 195.5l-227 -149l-55 78l194 127q-87 46 -170 77l-92 37l51 103l80 -31
q132 -52 242 -115l182 119l51 -78l-149 -98q144 -111 214 -272.5t70 -401.5zM895 471q0 162 -100.5 273.5t-251.5 111.5q-147 0 -236 -111q-86 -109 -86 -274t93 -275t245 -110q148 0 242 110.5t94 274.5z" />
    <glyph glyph-name="ntilde" unicode="&#xf1;" horiz-adv-x="1091" 
d="M948 678v-678h-135v633q0 133 -64 201.5t-186 68.5q-116 0 -198 -81t-82 -199v-623h-136v989h127v-137q96 164 320 164q169 0 261.5 -93.5t92.5 -244.5zM573 1321q46 -28 70 -38.5t49 -10.5q66 0 66 108h94q0 -96 -40 -152.5t-112 -56.5q-33 0 -63.5 12.5t-85.5 45.5
q-95 53 -141 53q-70 0 -70 -108h-94q0 95 44 151.5t122 56.5q38 0 68 -12.5t93 -48.5z" />
    <glyph glyph-name="ograve" unicode="&#xf2;" horiz-adv-x="1120" 
d="M1038 494q0 -230 -133.5 -375.5t-345.5 -145.5q-211 0 -344 145.5t-133 375.5q0 231 133 376.5t344 145.5q212 0 345.5 -145t133.5 -377zM221 494q0 -180 92 -295q91 -113 246 -113q154 0 247 113t93 295t-92 297q-91 114 -248 114q-155 0 -246 -114q-92 -115 -92 -297z
M313 1434h156l149 -287h-118z" />
    <glyph glyph-name="oacute" unicode="&#xf3;" horiz-adv-x="1120" 
d="M1038 494q0 -230 -133.5 -375.5t-345.5 -145.5q-211 0 -344 145.5t-133 375.5q0 231 133 376.5t344 145.5q212 0 345.5 -145t133.5 -377zM221 494q0 -180 92 -295q91 -113 246 -113q154 0 247 113t93 295t-92 297q-91 114 -248 114q-155 0 -246 -114q-92 -115 -92 -297z
M799 1434l-187 -287h-118l149 287h156z" />
    <glyph glyph-name="ocircumflex" unicode="&#xf4;" horiz-adv-x="1120" 
d="M1038 494q0 -230 -133.5 -375.5t-345.5 -145.5q-211 0 -344 145.5t-133 375.5q0 231 133 376.5t344 145.5q212 0 345.5 -145t133.5 -377zM221 494q0 -180 92 -295q91 -113 246 -113q154 0 247 113t93 295t-92 297q-91 114 -248 114q-155 0 -246 -114q-92 -115 -92 -297z
M719 1147l-162 211l-164 -211h-119l197 287h170l197 -287h-119z" />
    <glyph glyph-name="otilde" unicode="&#xf5;" horiz-adv-x="1120" 
d="M1038 494q0 -230 -133.5 -375.5t-345.5 -145.5q-211 0 -344 145.5t-133 375.5q0 231 133 376.5t344 145.5q212 0 345.5 -145t133.5 -377zM221 494q0 -180 92 -295q91 -113 246 -113q154 0 247 113t93 295t-92 297q-91 114 -248 114q-155 0 -246 -114q-92 -115 -92 -297z
M582 1321q46 -29 69.5 -39t48.5 -10q66 0 66 108h94q0 -96 -39.5 -152.5t-111.5 -56.5q-33 0 -64 13t-86 45q-95 53 -141 53q-70 0 -70 -108h-94q0 95 44 151.5t122 56.5q38 0 69 -12.5t93 -48.5z" />
    <glyph glyph-name="odieresis" unicode="&#xf6;" horiz-adv-x="1120" 
d="M1038 494q0 -230 -133.5 -375.5t-345.5 -145.5q-211 0 -344 145.5t-133 375.5q0 231 133 376.5t344 145.5q212 0 345.5 -145t133.5 -377zM221 494q0 -180 92 -295q91 -113 246 -113q154 0 247 113t93 295t-92 297q-91 114 -248 114q-155 0 -246 -114q-92 -115 -92 -297z
M451 1401v-193h-136v193h136zM795 1401v-193h-136v193h136z" />
    <glyph glyph-name="divide" unicode="&#xf7;" 
d="M700 1085v-188h-170v188h170zM1147 692v-114h-1065v114h1065zM700 373v-189h-170v189h170z" />
    <glyph glyph-name="oslash" unicode="&#xf8;" horiz-adv-x="1120" 
d="M1038 494q0 -230 -133.5 -375.5t-345.5 -145.5q-145 0 -260 74l-59 -86l-80 57l63 91q-141 144 -141 385q0 231 133 376.5t344 145.5q137 0 252 -68l63 90l82 -57l-65 -94q70 -70 108.5 -171.5t38.5 -221.5zM299 217l444 633q-82 55 -184 55q-155 0 -246 -114
q-92 -115 -92 -297q0 -161 78 -277zM899 494q0 170 -84 286l-446 -635q86 -59 190 -59q154 0 247 113t93 295z" />
    <glyph glyph-name="ugrave" unicode="&#xf9;" horiz-adv-x="1075" 
d="M793 989h135v-989h-127v131q-43 -76 -123.5 -117t-179.5 -41q-175 0 -265 88.5t-90 239.5v688h136v-659q0 -117 59 -178.5t168 -61.5q127 0 207 78t80 215v606zM276 1434h156l150 -287h-119z" />
    <glyph glyph-name="uacute" unicode="&#xfa;" horiz-adv-x="1075" 
d="M793 989h135v-989h-127v131q-43 -76 -123.5 -117t-179.5 -41q-175 0 -265 88.5t-90 239.5v688h136v-659q0 -117 59 -178.5t168 -61.5q127 0 207 78t80 215v606zM762 1434l-187 -287h-118l149 287h156z" />
    <glyph glyph-name="ucircumflex" unicode="&#xfb;" horiz-adv-x="1075" 
d="M793 989h135v-989h-127v131q-43 -76 -123.5 -117t-179.5 -41q-175 0 -265 88.5t-90 239.5v688h136v-659q0 -117 59 -178.5t168 -61.5q127 0 207 78t80 215v606zM682 1147l-162 211l-164 -211h-118l196 287h170l197 -287h-119z" />
    <glyph glyph-name="udieresis" unicode="&#xfc;" horiz-adv-x="1075" 
d="M793 989h135v-989h-127v131q-43 -76 -123.5 -117t-179.5 -41q-175 0 -265 88.5t-90 239.5v688h136v-659q0 -117 59 -178.5t168 -61.5q127 0 207 78t80 215v606zM414 1401v-193h-135v193h135zM758 1401v-193h-135v193h135z" />
    <glyph glyph-name="yacute" unicode="&#xfd;" horiz-adv-x="956" 
d="M776 989h137l-403 -1139q-26 -71 -46.5 -111.5t-52 -73.5t-74.5 -45.5t-106 -12.5q-64 0 -133 16l23 107q67 -13 102 -13q63 0 100 36.5t72 135.5l19 56l-371 1044h143l123 -360l25 -72l145 -438l99 289l75 225zM717 1434l-187 -287h-118l149 287h156z" />
    <glyph glyph-name="thorn" unicode="&#xfe;" horiz-adv-x="1146" 
d="M1061 496q0 -230 -122.5 -375.5t-313.5 -145.5q-234 0 -342 172v-516h-136v1823h136v-618q111 178 342 178q191 0 313.5 -145t122.5 -373zM922 496q0 181 -85 293t-225 112q-151 0 -243.5 -108.5t-92.5 -296.5q0 -187 93 -296.5t243 -109.5q142 0 224 113q86 115 86 293z
" />
    <glyph glyph-name="ydieresis" unicode="&#xff;" horiz-adv-x="956" 
d="M776 989h137l-403 -1139q-26 -71 -46.5 -111.5t-52 -73.5t-74.5 -45.5t-106 -12.5q-64 0 -133 16l23 107q67 -13 102 -13q63 0 100 36.5t72 135.5l19 56l-371 1044h143l123 -360l25 -72l145 -438l99 289l75 225zM369 1401v-193h-136v193h136zM713 1401v-193h-135v193h135
z" />
    <glyph glyph-name="Amacron" unicode="&#x100;" horiz-adv-x="1331" 
d="M1143 0l-148 408h-661l-146 -408h-147l530 1454h189l530 -1454h-147zM379 530h571l-71 201l-17 43l-94 260q-49 138 -104 309q-54 -171 -175 -505l-38 -107zM934 1753v-111h-535v111h535z" />
    <glyph glyph-name="amacron" unicode="&#x101;" horiz-adv-x="1064" 
d="M922 696v-696h-125v131q-50 -79 -140 -120.5t-204 -41.5q-163 0 -259 70t-96 203q2 67 25.5 117.5t60 85t100.5 61.5t128.5 44t162.5 36l216 39v61q0 103 -68.5 161t-185.5 58q-94 0 -169 -38.5t-165 -133.5l-86 78q92 106 192 155.5t221 49.5q182 0 287 -88t105 -232z
M791 354v166l-187 -37q-128 -26 -207 -51q-166 -56 -166 -188q0 -75 61 -118.5t167 -43.5q146 0 237 76q95 77 95 196zM815 1329v-110h-534v110h534z" />
    <glyph glyph-name="Abreve" unicode="&#x102;" horiz-adv-x="1331" 
d="M1143 0l-148 408h-661l-146 -408h-147l530 1454h189l530 -1454h-147zM379 530h571l-71 201l-17 43l-94 260q-49 138 -104 309q-54 -171 -175 -505l-38 -107zM387 1817h105q2 -68 46.5 -111t123.5 -43q81 0 124 41.5t48 112.5h104q0 -113 -75 -182.5t-201 -69.5
q-124 0 -199.5 69.5t-75.5 182.5z" />
    <glyph glyph-name="abreve" unicode="&#x103;" horiz-adv-x="1064" 
d="M922 696v-696h-125v131q-50 -79 -140 -120.5t-204 -41.5q-163 0 -259 70t-96 203q2 67 25.5 117.5t60 85t100.5 61.5t128.5 44t162.5 36l216 39v61q0 103 -68.5 161t-185.5 58q-94 0 -169 -38.5t-165 -133.5l-86 78q92 106 192 155.5t221 49.5q182 0 287 -88t105 -232z
M791 354v166l-187 -37q-128 -26 -207 -51q-166 -56 -166 -188q0 -75 61 -118.5t167 -43.5q146 0 237 76q95 77 95 196zM268 1393h105q2 -68 46.5 -111t123.5 -43q81 0 124 41.5t48 112.5h104q0 -113 -75 -182.5t-201 -69.5q-124 0 -199.5 69.5t-75.5 182.5z" />
    <glyph glyph-name="Aogonek" unicode="&#x104;" horiz-adv-x="1331" 
d="M1239 -324q27 0 51 7v-93q-27 -10 -67 -10q-87 0 -140 43t-53 123q0 132 146 254h-33l-148 408h-661l-146 -408h-147l530 1454h189l530 -1454q-157 -115 -157 -231q0 -44 28 -68.5t78 -24.5zM379 530h571l-71 201l-17 43l-94 260q-49 138 -104 309q-54 -171 -175 -505
l-38 -107z" />
    <glyph glyph-name="aogonek" unicode="&#x105;" horiz-adv-x="1064" 
d="M764 -231q0 -44 28 -68.5t78 -24.5q27 0 52 7v-93q-27 -10 -70 -10q-85 0 -137.5 43.5t-52.5 122.5q0 133 145 254h-10v131q-50 -79 -140 -120.5t-204 -41.5q-163 0 -259 70t-96 203q2 67 25.5 117.5t60 85t100.5 61.5t128.5 44t162.5 36l216 39v61q0 103 -68.5 161
t-185.5 58q-94 0 -169 -38.5t-165 -133.5l-86 78q92 106 192 155.5t221 49.5q182 0 287 -88t105 -232v-696q-158 -115 -158 -231zM791 354v166l-187 -37q-128 -26 -207 -51q-166 -56 -166 -188q0 -75 61 -118.5t167 -43.5q146 0 237 76q95 77 95 196z" />
    <glyph glyph-name="Cacute" unicode="&#x106;" horiz-adv-x="1359" 
d="M1284 1284l-84 -100q-118 97 -216 136.5t-204 39.5q-247 0 -394.5 -176t-147.5 -457q0 -277 146.5 -455t379.5 -178q127 0 229 52.5t228 175.5l90 -97q-144 -141 -264 -198q-122 -58 -281 -58q-202 0 -356 97.5t-236 269.5t-82 391q0 221 81.5 392t238.5 268.5t368 97.5
q138 0 257 -46.5t247 -154.5zM1028 1858l-186 -287h-119l149 287h156z" />
    <glyph glyph-name="cacute" unicode="&#x107;" horiz-adv-x="997" 
d="M543 905q-101 0 -176 -59t-110.5 -151t-35.5 -201t35.5 -199t112 -148.5t180.5 -58.5q86 0 151 36t156 134l90 -76q-91 -114 -181.5 -161.5t-213.5 -47.5q-214 0 -341.5 142.5t-127.5 378.5q0 233 127.5 377.5t337.5 144.5q125 0 214 -43t175 -146l-92 -79
q-79 87 -147 122t-154 35zM788 1434l-186 -287h-119l150 287h155z" />
    <glyph glyph-name="Cdotaccent" unicode="&#x10a;" horiz-adv-x="1359" 
d="M1284 1284l-84 -100q-118 97 -216 136.5t-204 39.5q-247 0 -394.5 -176t-147.5 -457q0 -277 146.5 -455t379.5 -178q127 0 229 52.5t228 175.5l90 -97q-144 -141 -264 -198q-122 -58 -281 -58q-202 0 -356 97.5t-236 269.5t-82 391q0 221 81.5 392t238.5 268.5t368 97.5
q138 0 257 -46.5t247 -154.5zM852 1825v-193h-135v193h135z" />
    <glyph glyph-name="cdotaccent" unicode="&#x10b;" horiz-adv-x="997" 
d="M543 905q-101 0 -176 -59t-110.5 -151t-35.5 -201t35.5 -199t112 -148.5t180.5 -58.5q86 0 151 36t156 134l90 -76q-91 -114 -181.5 -161.5t-213.5 -47.5q-214 0 -341.5 142.5t-127.5 378.5q0 233 127.5 377.5t337.5 144.5q125 0 214 -43t175 -146l-92 -79
q-79 87 -147 122t-154 35zM612 1401v-193h-135v193h135z" />
    <glyph glyph-name="Ccaron" unicode="&#x10c;" horiz-adv-x="1359" 
d="M1284 1284l-84 -100q-118 97 -216 136.5t-204 39.5q-247 0 -394.5 -176t-147.5 -457q0 -277 146.5 -455t379.5 -178q127 0 229 52.5t228 175.5l90 -97q-144 -141 -264 -198q-122 -58 -281 -58q-202 0 -356 97.5t-236 269.5t-82 391q0 221 81.5 392t238.5 268.5t368 97.5
q138 0 257 -46.5t247 -154.5zM1067 1858l-197 -287h-170l-196 287h119l163 -211l164 211h117z" />
    <glyph glyph-name="ccaron" unicode="&#x10d;" horiz-adv-x="997" 
d="M543 905q-101 0 -176 -59t-110.5 -151t-35.5 -201t35.5 -199t112 -148.5t180.5 -58.5q86 0 151 36t156 134l90 -76q-91 -114 -181.5 -161.5t-213.5 -47.5q-214 0 -341.5 142.5t-127.5 378.5q0 233 127.5 377.5t337.5 144.5q125 0 214 -43t175 -146l-92 -79
q-79 87 -147 122t-154 35zM827 1434l-196 -287h-170l-197 287h119l164 -211l164 211h116z" />
    <glyph glyph-name="Dcaron" unicode="&#x10e;" horiz-adv-x="1423" 
d="M1333 727q0 -329 -168.5 -528t-468.5 -199h-520v1454h520q300 0 468.5 -199t168.5 -528zM672 1333h-350v-1212h350q245 0 379.5 161t134.5 445q0 282 -134.5 444t-379.5 162zM979 1858l-197 -287h-170l-196 287h119l163 -211l164 211h117z" />
    <glyph glyph-name="dcaron" unicode="&#x10f;" horiz-adv-x="1417" 
d="M860 1454h135v-1454h-127v168q-111 -193 -350 -193q-191 0 -313.5 145.5t-122.5 373.5q0 229 125 374.5t315 145.5q228 0 338 -174v614zM866 494q0 189 -92 298t-246 109q-138 0 -223 -113q-84 -116 -84 -294q0 -177 84 -293q83 -111 223 -111q151 0 244.5 109t93.5 295z
M1389 1454l-115 -389h-88l63 389h140z" />
    <glyph glyph-name="Dcroat" unicode="&#x110;" horiz-adv-x="1478" 
d="M1389 727q0 -329 -168.5 -528t-468.5 -199h-521v690h-178v119h178v645h521q300 0 468.5 -199t168.5 -528zM1241 727q0 282 -134.5 444t-379.5 162h-350v-524h399v-119h-399v-569h350q245 0 379.5 161t134.5 445z" />
    <glyph glyph-name="dslash" unicode="&#x111;" horiz-adv-x="1183" 
d="M1151 1272v-103h-154v-1169h-125v168q-111 -193 -350 -193q-191 0 -313.5 145.5t-122.5 373.5q0 229 125 374.5t315 145.5q228 0 336 -170v325h-254v103h254v182h135v-182h154zM870 494q0 189 -92 297t-246 108q-138 0 -223 -113q-84 -113 -84 -292q0 -177 84 -293
q83 -111 223 -111q151 0 244.5 109t93.5 295z" />
    <glyph glyph-name="Emacron" unicode="&#x112;" 
d="M1118 1454v-121h-796v-526h739v-119h-739v-567h813v-121h-959v1454h942zM915 1753v-111h-534v111h534z" />
    <glyph glyph-name="emacron" unicode="&#x113;" horiz-adv-x="1069" 
d="M899 266l86 -82q-104 -115 -203.5 -163t-224.5 -48q-218 0 -346.5 141t-128.5 373q0 234 127.5 381.5t333.5 147.5q203 0 320.5 -126.5t117.5 -342.5q0 -28 -4 -64h-758q6 -166 90 -282q83 -115 248 -115q102 0 170 39q76 42 172 141zM223 586h623q-5 148 -85 233.5
t-218 85.5q-135 0 -218 -81.5t-102 -237.5zM831 1329v-110h-534v110h534z" />
    <glyph glyph-name="Edotaccent" unicode="&#x116;" 
d="M1118 1454v-121h-796v-526h739v-119h-739v-567h813v-121h-959v1454h942zM715 1825v-193h-135v193h135z" />
    <glyph glyph-name="edotaccent" unicode="&#x117;" horiz-adv-x="1069" 
d="M899 266l86 -82q-104 -115 -203.5 -163t-224.5 -48q-218 0 -346.5 141t-128.5 373q0 234 127.5 381.5t333.5 147.5q203 0 320.5 -126.5t117.5 -342.5q0 -28 -4 -64h-758q6 -166 90 -282q83 -115 248 -115q102 0 170 39q76 42 172 141zM223 586h623q-5 148 -85 233.5
t-218 85.5q-135 0 -218 -81.5t-102 -237.5zM629 1401v-193h-135v193h135z" />
    <glyph glyph-name="Eogonek" unicode="&#x118;" 
d="M977 -231q0 -44 28 -68.5t78 -24.5q27 0 52 7v-93q-27 -10 -68 -10q-85 0 -137.5 43.5t-52.5 122.5q0 133 145 254h-846v1454h942v-121h-796v-526h739v-119h-739v-567h813v-121q-158 -115 -158 -231z" />
    <glyph glyph-name="eogonek" unicode="&#x119;" horiz-adv-x="1069" 
d="M612 -238q0 114 93 230q-71 -19 -148 -19q-218 0 -346.5 141t-128.5 373q0 234 127.5 381.5t333.5 147.5q203 0 320.5 -126.5t117.5 -342.5q0 -28 -4 -64h-758q6 -166 90 -282q83 -115 248 -115q102 0 170 39q76 42 172 141l86 -82q-36 -41 -88 -88q-178 -163 -178 -315
q0 -51 29 -78t83 -27q29 0 54 7v-93q-27 -10 -68 -10q-91 0 -148 46t-57 136zM223 586h623q-5 148 -85 233.5t-218 85.5q-132 0 -216 -81.5t-104 -237.5z" />
    <glyph glyph-name="Ecaron" unicode="&#x11a;" 
d="M1118 1454v-121h-796v-526h739v-119h-739v-567h813v-121h-959v1454h942zM930 1858l-197 -287h-170l-196 287h118l164 -211l164 211h117z" />
    <glyph glyph-name="ecaron" unicode="&#x11b;" horiz-adv-x="1069" 
d="M899 266l86 -82q-104 -115 -203.5 -163t-224.5 -48q-218 0 -346.5 141t-128.5 373q0 234 127.5 381.5t333.5 147.5q203 0 320.5 -126.5t117.5 -342.5q0 -28 -4 -64h-758q6 -166 90 -282q83 -115 248 -115q102 0 170 39q76 42 172 141zM223 586h623q-5 148 -85 233.5
t-218 85.5q-135 0 -218 -81.5t-102 -237.5zM844 1434l-197 -287h-170l-196 287h118l164 -211l164 211h117z" />
    <glyph glyph-name="Gbreve" unicode="&#x11e;" horiz-adv-x="1505" 
d="M739 621v120h625v-741h-115l-14 213q-66 -120 -189 -181t-282 -61q-208 0 -361 95.5t-232 265.5t-79 395q0 218 82.5 389t240 269t367.5 98q171 0 309.5 -67t274.5 -210l-92 -94q-120 126 -238 188q-110 58 -258 58q-159 0 -282 -80t-190.5 -224t-67.5 -329
q0 -283 143.5 -456t386.5 -173q203 0 332 121.5t129 327.5v76h-490zM508 1817h104q2 -68 46.5 -111t123.5 -43q81 0 124 41.5t48 112.5h105q0 -113 -75 -182.5t-202 -69.5q-124 0 -199 69.5t-75 182.5z" />
    <glyph glyph-name="gbreve" unicode="&#x11f;" horiz-adv-x="1134" 
d="M860 989h127v-979q0 -186 -115 -293.5t-317 -107.5q-231 0 -438 145l69 101q111 -70 192.5 -100.5t176.5 -30.5q139 0 219 74.5t80 221.5v164q-108 -178 -332 -178q-191 0 -311.5 141.5t-120.5 362.5q0 220 120.5 363t311.5 143q232 0 338 -191v164zM856 510
q0 173 -88 283t-231 110q-144 0 -226 -107t-82 -286q0 -176 82 -282.5t226 -106.5q143 0 231 108q88 107 88 281zM293 1393h104q2 -68 46.5 -111t123.5 -43q81 0 124 41.5t48 112.5h105q0 -113 -75 -182.5t-202 -69.5q-124 0 -199 69.5t-75 182.5z" />
    <glyph glyph-name="Gdotaccent" unicode="&#x120;" horiz-adv-x="1505" 
d="M739 621v120h625v-741h-115l-14 213q-66 -120 -189 -181t-282 -61q-208 0 -361 95.5t-232 265.5t-79 395q0 218 82.5 389t240 269t367.5 98q171 0 309.5 -67t274.5 -210l-92 -94q-120 126 -238 188q-110 58 -258 58q-159 0 -282 -80t-190.5 -224t-67.5 -329
q0 -283 143.5 -456t386.5 -173q203 0 332 121.5t129 327.5v76h-490zM854 1825v-193h-135v193h135z" />
    <glyph glyph-name="gdotaccent" unicode="&#x121;" horiz-adv-x="1134" 
d="M860 989h127v-979q0 -186 -115 -293.5t-317 -107.5q-231 0 -438 145l69 101q111 -70 192.5 -100.5t176.5 -30.5q139 0 219 74.5t80 221.5v164q-108 -178 -332 -178q-191 0 -311.5 141.5t-120.5 362.5q0 220 120.5 363t311.5 143q232 0 338 -191v164zM856 510
q0 173 -88 283t-231 110q-144 0 -226 -107t-82 -286q0 -176 82 -282.5t226 -106.5q143 0 231 108q88 107 88 281zM637 1401v-193h-135v193h135z" />
    <glyph glyph-name="uni0122" unicode="&#x122;" horiz-adv-x="1505" 
d="M739 621v120h625v-741h-115l-14 213q-66 -120 -189 -181t-282 -61q-208 0 -361 95.5t-232 265.5t-79 395q0 218 82.5 389t240 269t367.5 98q171 0 309.5 -67t274.5 -210l-92 -94q-120 126 -238 188q-110 58 -258 58q-159 0 -282 -80t-190.5 -224t-67.5 -329
q0 -283 143.5 -456t386.5 -173q203 0 332 121.5t129 327.5v76h-490zM854 -162v-157l-104 -193h-80l92 193h-82v157h174z" />
    <glyph glyph-name="uni0123" unicode="&#x123;" horiz-adv-x="1134" 
d="M860 989h127v-979q0 -186 -115 -293.5t-317 -107.5q-231 0 -438 145l69 101q111 -70 192.5 -100.5t176.5 -30.5q139 0 219 74.5t80 221.5v164q-108 -178 -332 -178q-191 0 -311.5 141.5t-120.5 362.5q0 220 120.5 363t311.5 143q232 0 338 -191v164zM856 510
q0 173 -88 283t-231 110q-144 0 -226 -107t-82 -286q0 -176 82 -282.5t226 -106.5q143 0 231 108q88 107 88 281zM467 1200v162l102 205h82l-94 -205h84v-162h-174z" />
    <glyph glyph-name="Hbar" unicode="&#x126;" horiz-adv-x="1581" 
d="M1520 1214v-108h-164v-1106h-148v690h-835v-690h-146v1106h-166v108h166v240h146v-240h835v240h148v-240h164zM1208 811v295h-835v-295h835z" />
    <glyph glyph-name="hbar" unicode="&#x127;" horiz-adv-x="1130" 
d="M987 678v-678h-135v631q0 133 -64 200.5t-186 67.5q-112 0 -196 -81.5t-84 -196.5v-621h-136v1169h-153v103h153v182h136v-182h253v-103h-253v-317q96 164 313 164q167 0 259.5 -95t92.5 -243z" />
    <glyph glyph-name="Imacron" unicode="&#x12a;" horiz-adv-x="526" 
d="M336 1454v-1454h-146v1454h146zM532 1753v-111h-534v111h534z" />
    <glyph glyph-name="imacron" unicode="&#x12b;" horiz-adv-x="430" 
d="M283 989v-989h-136v989h136zM483 1329v-110h-534v110h534z" />
    <glyph glyph-name="Iogonek" unicode="&#x12e;" horiz-adv-x="526" 
d="M178 -231q0 -44 28.5 -68.5t78.5 -24.5q27 0 51 7v-93q-27 -10 -68 -10q-87 0 -139.5 43t-52.5 123q0 133 145 254h-31v1454h146v-1454q-158 -115 -158 -231z" />
    <glyph glyph-name="iogonek" unicode="&#x12f;" horiz-adv-x="430" 
d="M147 1401h136v-193h-136v193zM147 0v989h136v-989q-158 -115 -158 -231q0 -44 28 -68.5t78 -24.5q27 0 52 7v-93q-30 -10 -70 -10q-85 0 -137.5 43.5t-52.5 122.5q0 133 145 254h-21z" />
    <glyph glyph-name="Idot" unicode="&#x130;" horiz-adv-x="526" 
d="M336 1454v-1454h-146v1454h146zM330 1825v-193h-135v193h135z" />
    <glyph glyph-name="dotlessi" unicode="&#x131;" horiz-adv-x="430" 
d="M283 989v-989h-136v989h136z" />
    <glyph glyph-name="IJ" unicode="&#x132;" horiz-adv-x="1462" 
d="M336 1454v-1454h-146v1454h146zM1296 1454v-1087q0 -196 -92 -293t-282 -97q-179 0 -365 103l57 108q183 -86 308 -86q112 0 170.5 68.5t58.5 206.5v1077h145z" />
    <glyph glyph-name="ij" unicode="&#x133;" horiz-adv-x="864" 
d="M283 989v-989h-136v989h136zM283 1401v-193h-136v193h136zM444 -281q76 0 108 45t32 144v1081h135v-1085q0 -297 -268 -297q-89 0 -187 31l31 104q94 -23 149 -23zM719 1401v-193h-135v193h135z" />
    <glyph glyph-name="uni0136" unicode="&#x136;" horiz-adv-x="1312" 
d="M1122 0l-526 776l-274 -280v-496h-146v1454h146v-782l757 782h178l-563 -577l594 -877h-166zM782 -162v-157l-104 -193h-80l92 193h-82v157h174z" />
    <glyph glyph-name="uni0137" unicode="&#x137;" horiz-adv-x="1003" 
d="M834 0l-357 520l-194 -198v-322h-136v1454h136v-983l499 518h166l-381 -387l418 -602h-151zM625 -162v-157l-105 -193h-80l92 193h-81v157h174z" />
    <glyph glyph-name="Lacute" unicode="&#x139;" horiz-adv-x="1091" 
d="M322 1454v-1333h716v-121h-862v1454h146zM494 1858l-187 -287h-119l150 287h156z" />
    <glyph glyph-name="lacute" unicode="&#x13a;" horiz-adv-x="442" 
d="M289 1454v-1454h-135v1454h135zM463 1837l-187 -287h-118l149 287h156z" />
    <glyph glyph-name="uni013B" unicode="&#x13b;" horiz-adv-x="1091" 
d="M322 1454v-1333h716v-121h-862v1454h146zM709 -162v-157l-105 -193h-80l92 193h-81v157h174z" />
    <glyph glyph-name="uni013C" unicode="&#x13c;" horiz-adv-x="442" 
d="M289 1454v-1454h-135v1454h135zM311 -162v-157l-104 -193h-80l92 193h-82v157h174z" />
    <glyph glyph-name="Lcaron" unicode="&#x13d;" horiz-adv-x="1091" 
d="M322 1454v-1333h716v-121h-862v1454h146zM731 1454l-115 -389h-88l64 389h139z" />
    <glyph glyph-name="lcaron" unicode="&#x13e;" horiz-adv-x="708" 
d="M289 1454v-1454h-135v1454h135zM680 1454l-115 -389h-88l64 389h139z" />
    <glyph glyph-name="Ldot" unicode="&#x13f;" horiz-adv-x="1071" 
d="M322 1454v-1333h716v-121h-862v1454h146zM862 846v-189h-172v189h172z" />
    <glyph glyph-name="ldot" unicode="&#x140;" horiz-adv-x="741" 
d="M289 1454v-1454h-135v1454h135zM668 719v-189h-172v189h172z" />
    <glyph glyph-name="Lslash" unicode="&#x141;" horiz-adv-x="1173" 
d="M403 121h717v-121h-862v641l-197 -113v129l197 111v686h145v-612l299 168v-127l-299 -168v-594z" />
    <glyph glyph-name="lslash" unicode="&#x142;" horiz-adv-x="684" 
d="M604 997v-123l-186 -110v-764h-135v684l-201 -119v125l201 119v645h135v-567z" />
    <glyph glyph-name="Nacute" unicode="&#x143;" horiz-adv-x="1486" 
d="M1169 1454h142v-1454h-166l-459 694l-24 39q-245 367 -353 543q8 -213 8 -553v-723h-141v1454h166l457 -692l78 -121q217 -332 301 -467q-9 243 -9 555v725zM1001 1858l-186 -287h-119l150 287h155z" />
    <glyph glyph-name="nacute" unicode="&#x144;" horiz-adv-x="1091" 
d="M948 678v-678h-135v633q0 133 -64 201.5t-186 68.5q-116 0 -198 -81t-82 -199v-623h-136v989h127v-137q96 164 320 164q169 0 261.5 -93.5t92.5 -244.5zM793 1434l-187 -287h-119l150 287h156z" />
    <glyph glyph-name="uni0145" unicode="&#x145;" horiz-adv-x="1486" 
d="M1169 1454h142v-1454h-166l-459 694l-24 39q-245 367 -353 543q8 -213 8 -553v-723h-141v1454h166l457 -692l78 -121q217 -332 301 -467q-9 243 -9 555v725zM831 -162v-157l-104 -193h-80l92 193h-82v157h174z" />
    <glyph glyph-name="uni0146" unicode="&#x146;" horiz-adv-x="1091" 
d="M948 678v-678h-135v633q0 133 -64 201.5t-186 68.5q-116 0 -198 -81t-82 -199v-623h-136v989h127v-137q96 164 320 164q169 0 261.5 -93.5t92.5 -244.5zM631 -162v-157l-105 -193h-80l93 193h-82v157h174z" />
    <glyph glyph-name="Ncaron" unicode="&#x147;" horiz-adv-x="1486" 
d="M1169 1454h142v-1454h-166l-459 694l-24 39q-245 367 -353 543q8 -213 8 -553v-723h-141v1454h166l457 -692l78 -121q217 -332 301 -467q-9 243 -9 555v725zM1040 1858l-196 -287h-170l-197 287h119l164 -211l164 211h116z" />
    <glyph glyph-name="ncaron" unicode="&#x148;" horiz-adv-x="1091" 
d="M948 678v-678h-135v633q0 133 -64 201.5t-186 68.5q-116 0 -198 -81t-82 -199v-623h-136v989h127v-137q96 164 320 164q169 0 261.5 -93.5t92.5 -244.5zM831 1434l-196 -287h-170l-197 287h119l164 -211l164 211h116z" />
    <glyph glyph-name="Eng" unicode="&#x14a;" horiz-adv-x="1486" 
d="M1169 1454h142v-1560q0 -142 -70 -218.5t-205 -76.5q-103 0 -215 36l33 115q98 -33 170 -33q80 0 116 45t36 138v55l-490 739q-207 309 -375 580q6 -182 6 -551v-723h-141v1454h166l457 -692l78 -121q217 -332 301 -467q-9 243 -9 555v725z" />
    <glyph glyph-name="eng" unicode="&#x14b;" horiz-adv-x="1095" 
d="M948 678v-774q0 -297 -268 -297q-88 0 -186 31l30 104q94 -23 150 -23q76 0 107.5 45t31.5 144v725q0 133 -64 201.5t-186 68.5q-116 0 -198 -81t-82 -199v-623h-136v989h127v-137q96 164 320 164q169 0 261.5 -93.5t92.5 -244.5z" />
    <glyph glyph-name="Omacron" unicode="&#x14c;" horiz-adv-x="1540" 
d="M1448 727q0 -220 -81.5 -391t-236.5 -269t-360 -98t-360 98t-236.5 269t-81.5 391t81.5 391t236.5 269t360 98t360 -98t236.5 -269t81.5 -391zM238 727q0 -277 148 -455t384 -178t384.5 178t148.5 455t-148.5 455t-384.5 178t-384 -178t-148 -455zM1038 1753v-111h-534
v111h534z" />
    <glyph glyph-name="omacron" unicode="&#x14d;" horiz-adv-x="1120" 
d="M1038 494q0 -230 -133.5 -375.5t-345.5 -145.5q-211 0 -344 145.5t-133 375.5q0 231 133 376.5t344 145.5q212 0 345.5 -145t133.5 -377zM221 494q0 -180 92 -295q91 -113 246 -113q154 0 247 113t93 295t-92 297q-91 114 -248 114q-155 0 -246 -114q-92 -115 -92 -297z
M825 1329v-110h-534v110h534z" />
    <glyph glyph-name="Ohungarumlaut" unicode="&#x150;" horiz-adv-x="1540" 
d="M1448 727q0 -220 -81.5 -391t-236.5 -269t-360 -98t-360 98t-236.5 269t-81.5 391t81.5 391t236.5 269t360 98t360 -98t236.5 -269t81.5 -391zM238 727q0 -277 148 -455t384 -178t384.5 178t148.5 455t-148.5 455t-384.5 178t-384 -178t-148 -455zM868 1862l-188 -291
h-111l152 291h147zM1169 1862l-188 -291h-113l154 291h147z" />
    <glyph glyph-name="ohungarumlaut" unicode="&#x151;" horiz-adv-x="1120" 
d="M1038 494q0 -230 -133.5 -375.5t-345.5 -145.5q-211 0 -344 145.5t-133 375.5q0 231 133 376.5t344 145.5q212 0 345.5 -145t133.5 -377zM221 494q0 -180 92 -295q91 -113 246 -113q154 0 247 113t93 295t-92 297q-91 114 -248 114q-155 0 -246 -114q-92 -115 -92 -297z
M653 1438l-188 -291h-111l152 291h147zM954 1438l-188 -291h-113l154 291h147z" />
    <glyph glyph-name="OE" unicode="&#x152;" horiz-adv-x="2357" 
d="M1448 121h815v-121h-960v264q-86 -142 -221.5 -218.5t-311.5 -76.5q-205 0 -360 98t-236.5 269t-81.5 391t81.5 391t236.5 269t360 98q176 0 311.5 -76.5t221.5 -218.5v264h944v-121h-799v-526h741v-119h-741v-567zM1303 727q0 277 -148.5 455t-384.5 178t-384 -178
t-148 -455t148 -455t384 -178t384.5 178t148.5 455z" />
    <glyph glyph-name="oe" unicode="&#x153;" horiz-adv-x="1888" 
d="M1720 266l84 -82q-104 -115 -203.5 -163t-224.5 -48q-140 0 -246 62.5t-163 175.5q-60 -113 -166 -175.5t-242 -62.5q-211 0 -344 145.5t-133 375.5q0 231 133 376.5t344 145.5q136 0 243 -63t167 -179q56 116 158 179t235 63q203 0 320.5 -126.5t117.5 -342.5l-4 -70
h-758q6 -162 90 -278q82 -113 250 -113q100 0 168 39q74 40 174 141zM1042 580h625q-5 151 -86 239t-219 88q-135 0 -218 -84t-102 -243zM899 494q0 182 -92 297q-91 114 -248 114q-155 0 -246 -114q-92 -115 -92 -297q0 -180 92 -295q91 -113 246 -113q154 0 247 113
t93 295z" />
    <glyph glyph-name="Racute" unicode="&#x154;" horiz-adv-x="1343" 
d="M1268 0h-166l-408 604h-372v-604h-146v1454h576q212 0 339.5 -113t127.5 -311q0 -174 -98.5 -283.5t-268.5 -134.5zM322 1333v-608h407q163 0 254.5 78.5t91.5 226.5q0 146 -92.5 224.5t-255.5 78.5h-405zM907 1858l-186 -287h-119l150 287h155z" />
    <glyph glyph-name="racute" unicode="&#x155;" horiz-adv-x="698" 
d="M676 971l-27 -109q-71 21 -129 21q-106 0 -171.5 -89.5t-65.5 -242.5v-551h-136v989h127v-153q35 79 98.5 121t147.5 42q77 0 156 -28zM662 1434l-187 -287h-119l150 287h156z" />
    <glyph glyph-name="uni0156" unicode="&#x156;" horiz-adv-x="1343" 
d="M1268 0h-166l-408 604h-372v-604h-146v1454h576q212 0 339.5 -113t127.5 -311q0 -174 -98.5 -283.5t-268.5 -134.5zM322 1333v-608h407q163 0 254.5 78.5t91.5 226.5q0 146 -92.5 224.5t-255.5 78.5h-405zM768 -162v-157l-104 -193h-80l92 193h-82v157h174z" />
    <glyph glyph-name="uni0157" unicode="&#x157;" horiz-adv-x="698" 
d="M676 971l-27 -109q-71 21 -129 21q-106 0 -171.5 -89.5t-65.5 -242.5v-551h-136v989h127v-153q35 79 98.5 121t147.5 42q77 0 156 -28zM299 -162v-157l-104 -193h-80l92 193h-82v157h174z" />
    <glyph glyph-name="Rcaron" unicode="&#x158;" horiz-adv-x="1343" 
d="M1268 0h-166l-408 604h-372v-604h-146v1454h576q212 0 339.5 -113t127.5 -311q0 -174 -98.5 -283.5t-268.5 -134.5zM322 1333v-608h407q163 0 254.5 78.5t91.5 226.5q0 146 -92.5 224.5t-255.5 78.5h-405zM946 1858l-196 -287h-170l-197 287h119l164 -211l163 211h117z
" />
    <glyph glyph-name="rcaron" unicode="&#x159;" horiz-adv-x="698" 
d="M676 971l-27 -109q-71 21 -129 21q-106 0 -171.5 -89.5t-65.5 -242.5v-551h-136v989h127v-153q35 79 98.5 121t147.5 42q77 0 156 -28zM700 1434l-196 -287h-170l-197 287h119l164 -211l164 211h116z" />
    <glyph glyph-name="Sacute" unicode="&#x15a;" horiz-adv-x="1271" 
d="M1155 1278l-84 -100q-114 98 -218.5 140t-229.5 42q-159 0 -261 -74t-102 -188q0 -83 45 -131q45 -47 123 -75.5t250 -68.5q276 -65 387 -156.5t111 -258.5q0 -196 -146 -317.5t-373 -121.5q-169 0 -306 56t-292 186l84 102q150 -124 273 -174q113 -45 241 -45
q167 0 271 84t104 225q0 93 -49 148q-47 52 -126 82.5t-249 68.5q-115 26 -192.5 51.5t-136 56.5t-91 71.5t-49 91.5t-18.5 121q0 116 69.5 206.5t182.5 137.5t248 47q155 0 280.5 -49t253.5 -158zM879 1858l-187 -287h-119l150 287h156z" />
    <glyph glyph-name="sacute" unicode="&#x15b;" horiz-adv-x="954" 
d="M862 874l-76 -92q-96 71 -164 97t-155 26q-109 0 -175.5 -48t-66.5 -124q0 -46 31 -74q30 -26 81.5 -43.5t170.5 -44.5q202 -45 286.5 -110.5t84.5 -186.5q0 -135 -106.5 -218t-278.5 -83q-128 0 -227.5 41.5t-217.5 141.5l82 90q110 -93 188 -127q76 -33 175 -33
q111 0 181 50.5t70 131.5t-67 121.5t-227 73.5q-206 45 -279.5 97.5t-77.5 168.5q0 131 105 207q106 80 264 80q120 0 210.5 -33t188.5 -109zM729 1434l-186 -287h-119l149 287h156z" />
    <glyph glyph-name="Scedilla" unicode="&#x15e;" horiz-adv-x="1271" 
d="M657 -31h-2l-51 -108q98 8 160.5 -34.5t62.5 -119.5q0 -79 -57.5 -128.5t-148.5 -49.5q-105 0 -215 70l43 73q60 -32 93 -43.5t74 -11.5q52 0 84.5 23t32.5 65q0 37 -34.5 59.5t-90.5 22.5q-35 0 -59 -6l-51 49l67 143q-134 13 -252 69.5t-254 168.5l84 102
q150 -124 273 -174q113 -45 241 -45q167 0 271 84t104 225q0 93 -49 148q-47 52 -126 82.5t-249 68.5q-115 26 -192.5 51.5t-136 56.5t-91 71.5t-49 91.5t-18.5 121q0 116 69.5 206.5t182.5 137.5t248 47q155 0 280.5 -49t253.5 -158l-84 -100q-114 98 -218.5 140t-229.5 42
q-159 0 -261 -74t-102 -188q0 -83 45 -131q45 -47 123 -75.5t250 -68.5q276 -65 387 -156.5t111 -258.5q0 -196 -146 -317.5t-373 -121.5z" />
    <glyph glyph-name="scedilla" unicode="&#x15f;" horiz-adv-x="954" 
d="M494 -27h-7l-53 -112q98 8 160.5 -34.5t62.5 -119.5q0 -79 -58 -128.5t-150 -49.5q-106 0 -216 70l46 73q55 -31 90 -43t75 -12q52 0 84.5 23t32.5 65q0 37 -34.5 59.5t-90.5 22.5q-35 0 -59 -6l-51 49l69 150q-92 12 -172 53t-174 123l82 90q110 -93 188 -127
q76 -33 175 -33q111 0 181 50.5t70 131.5t-67 121.5t-227 73.5q-206 45 -279.5 97.5t-77.5 168.5q0 131 105 207q106 80 264 80q120 0 210.5 -33t188.5 -109l-76 -92q-96 71 -164 97t-155 26q-109 0 -175.5 -48t-66.5 -124q0 -46 31 -74q30 -26 81.5 -43.5t170.5 -44.5
q202 -45 286.5 -110.5t84.5 -186.5q0 -135 -106.5 -218t-278.5 -83z" />
    <glyph glyph-name="Scaron" unicode="&#x160;" horiz-adv-x="1271" 
d="M1155 1278l-84 -100q-114 98 -218.5 140t-229.5 42q-159 0 -261 -74t-102 -188q0 -83 45 -131q45 -47 123 -75.5t250 -68.5q276 -65 387 -156.5t111 -258.5q0 -196 -146 -317.5t-373 -121.5q-169 0 -306 56t-292 186l84 102q150 -124 273 -174q113 -45 241 -45
q167 0 271 84t104 225q0 93 -49 148q-47 52 -126 82.5t-249 68.5q-115 26 -192.5 51.5t-136 56.5t-91 71.5t-49 91.5t-18.5 121q0 116 69.5 206.5t182.5 137.5t248 47q155 0 280.5 -49t253.5 -158zM918 1858l-197 -287h-170l-197 287h119l164 -211l164 211h117z" />
    <glyph glyph-name="scaron" unicode="&#x161;" horiz-adv-x="954" 
d="M862 874l-76 -92q-96 71 -164 97t-155 26q-109 0 -175.5 -48t-66.5 -124q0 -46 31 -74q30 -26 81.5 -43.5t170.5 -44.5q202 -45 286.5 -110.5t84.5 -186.5q0 -135 -106.5 -218t-278.5 -83q-128 0 -227.5 41.5t-217.5 141.5l82 90q110 -93 188 -127q76 -33 175 -33
q111 0 181 50.5t70 131.5t-67 121.5t-227 73.5q-206 45 -279.5 97.5t-77.5 168.5q0 131 105 207q106 80 264 80q120 0 210.5 -33t188.5 -109zM768 1434l-197 -287h-170l-196 287h119l163 -211l164 211h117z" />
    <glyph glyph-name="uni0162" unicode="&#x162;" horiz-adv-x="1216" 
d="M682 0h-33l-65 -139q97 8 159 -35.5t62 -118.5q0 -79 -58 -128.5t-149 -49.5q-105 0 -215 70l43 73q60 -32 93.5 -43.5t74.5 -11.5q52 0 84.5 23t32.5 65q0 37 -34.5 59.5t-90.5 22.5q-36 0 -60 -6l-51 49l80 170h-18v1333h-469v121h1083v-121h-469v-1333z" />
    <glyph glyph-name="uni0163" unicode="&#x163;" horiz-adv-x="700" 
d="M639 -293q0 -79 -58 -128.5t-151 -49.5q-105 0 -215 70l43 73q60 -32 93.5 -43.5t74.5 -11.5q52 0 84.5 23t32.5 65q0 37 -34.5 59.5t-90.5 22.5q-36 0 -60 -6l-51 49l76 162q-156 36 -156 223v674h-188v100h188v346h135v-346h283v-100h-283v-656q0 -73 28.5 -104
t96.5 -31q67 0 152 27l25 -107q-87 -34 -191 -34l-57 -123q98 8 160.5 -34.5t62.5 -119.5z" />
    <glyph glyph-name="Tcaron" unicode="&#x164;" horiz-adv-x="1216" 
d="M1151 1454v-121h-469v-1333h-145v1333h-469v121h1083zM893 1858l-197 -287h-170l-196 287h119l163 -211l164 211h117z" />
    <glyph glyph-name="tcaron" unicode="&#x165;" horiz-adv-x="700" 
d="M639 125l25 -107q-90 -34 -195 -34q-127 0 -184.5 57.5t-57.5 173.5v674h-188v100h188v346h135v-346h283v-100h-283v-656q0 -73 28.5 -104t96.5 -31q67 0 152 27zM737 1556l-114 -389h-88l63 389h139z" />
    <glyph glyph-name="Tbar" unicode="&#x166;" horiz-adv-x="1216" 
d="M1149 1333h-467v-475h264v-110h-264v-748h-145v748h-263v110h263v475h-469v121h1081v-121z" />
    <glyph glyph-name="tbar" unicode="&#x167;" horiz-adv-x="700" 
d="M639 125l25 -107q-90 -34 -195 -34q-127 0 -184.5 57.5t-57.5 173.5v262h-188v105h188v307h-188v100h188v346h135v-346h283v-100h-283v-307h283v-105h-283v-244q0 -73 28.5 -104t96.5 -31q67 0 152 27z" />
    <glyph glyph-name="Umacron" unicode="&#x16a;" horiz-adv-x="1392" 
d="M1229 1454v-1003q0 -231 -133.5 -355.5t-399.5 -124.5q-264 0 -397 124.5t-133 355.5v1003h145v-993q0 -179 99 -272t286 -93q191 0 289 92.5t98 272.5v993h146zM965 1753v-111h-535v111h535z" />
    <glyph glyph-name="umacron" unicode="&#x16b;" horiz-adv-x="1075" 
d="M793 989h135v-989h-127v131q-43 -76 -123.5 -117t-179.5 -41q-175 0 -265 88.5t-90 239.5v688h136v-659q0 -117 59 -178.5t168 -61.5q127 0 207 78t80 215v606zM788 1329v-110h-534v110h534z" />
    <glyph glyph-name="Uring" unicode="&#x16e;" horiz-adv-x="1392" 
d="M1229 1454v-1003q0 -231 -133.5 -355.5t-399.5 -124.5q-264 0 -397 124.5t-133 355.5v1003h145v-993q0 -179 99 -272t286 -93q191 0 289 92.5t98 272.5v993h146zM901 1716q0 -85 -60 -144t-147 -59q-86 0 -145.5 59t-59.5 144t59.5 143t145.5 58q88 0 147.5 -58
t59.5 -143zM573 1716q0 -56 33.5 -90.5t87.5 -34.5t87.5 34.5t33.5 90.5t-33.5 90.5t-87.5 34.5t-87.5 -34.5t-33.5 -90.5z" />
    <glyph glyph-name="uring" unicode="&#x16f;" horiz-adv-x="1075" 
d="M793 989h135v-989h-127v131q-43 -76 -123.5 -117t-179.5 -41q-175 0 -265 88.5t-90 239.5v688h136v-659q0 -117 59 -178.5t168 -61.5q127 0 207 78t80 215v606zM725 1335q0 -85 -59.5 -143.5t-147.5 -58.5q-86 0 -145.5 58.5t-59.5 143.5t59.5 143t145.5 58
q88 0 147.5 -58t59.5 -143zM397 1335q0 -56 33.5 -90.5t87.5 -34.5t87.5 34.5t33.5 90.5t-33.5 90.5t-87.5 34.5t-87.5 -34.5t-33.5 -90.5z" />
    <glyph glyph-name="Uhungarumlaut" unicode="&#x170;" horiz-adv-x="1392" 
d="M1229 1454v-1003q0 -231 -133.5 -355.5t-399.5 -124.5q-264 0 -397 124.5t-133 355.5v1003h145v-993q0 -179 99 -272t286 -93q191 0 289 92.5t98 272.5v993h146zM795 1862l-189 -291h-110l151 291h148zM1096 1862l-189 -291h-112l153 291h148z" />
    <glyph glyph-name="uhungarumlaut" unicode="&#x171;" horiz-adv-x="1075" 
d="M793 989h135v-989h-127v131q-43 -76 -123.5 -117t-179.5 -41q-175 0 -265 88.5t-90 239.5v688h136v-659q0 -117 59 -178.5t168 -61.5q127 0 207 78t80 215v606zM616 1438l-188 -291h-111l152 291h147zM918 1438l-189 -291h-113l154 291h148z" />
    <glyph glyph-name="Uogonek" unicode="&#x172;" horiz-adv-x="1392" 
d="M1083 1454h146v-1003q0 -150 -49 -244q-50 -93 -170 -178q-87 -62 -137 -128t-50 -126q0 -46 30.5 -72.5t78.5 -26.5q28 0 53 7v-93q-30 -10 -67 -10q-88 0 -141.5 45.5t-53.5 128.5q0 123 117 228q-86 -11 -144 -11q-264 0 -397 124.5t-133 355.5v1003h145v-993
q0 -179 99 -272t286 -93q191 0 289 92.5t98 272.5v993z" />
    <glyph glyph-name="uogonek" unicode="&#x173;" horiz-adv-x="1075" 
d="M770 -231q0 -44 28.5 -68.5t78.5 -24.5q26 0 51 7v-93q-27 -10 -70 -10q-85 0 -137.5 43.5t-52.5 122.5q0 133 145 254h-12v131q-43 -76 -123.5 -117t-179.5 -41q-175 0 -265 88.5t-90 239.5v688h136v-659q0 -117 59 -178.5t168 -61.5q127 0 207 78t80 215v606h135v-989
q-158 -115 -158 -231z" />
    <glyph glyph-name="Wcircumflex" unicode="&#x174;" horiz-adv-x="1892" 
d="M1679 1454h144l-350 -1454h-187l-196 717q-96 370 -142 557q-52 -234 -139 -559l-197 -715h-192l-350 1454h147l174 -733q57 -241 131 -590q66 283 152 590l203 733h151l199 -733q69 -252 149 -586q52 267 129 586zM1110 1571l-162 211l-164 -211h-118l196 287h170
l197 -287h-119z" />
    <glyph glyph-name="wcircumflex" unicode="&#x175;" horiz-adv-x="1452" 
d="M1264 989h139l-281 -989h-166l-100 340q-84 294 -133 491q-38 -167 -133 -495l-96 -336h-164l-281 989h139l107 -389q72 -269 123 -481q49 202 129 481l112 389h132l114 -389q92 -318 131 -485q47 203 123 485zM887 1147l-162 211l-164 -211h-119l197 287h170l197 -287
h-119z" />
    <glyph glyph-name="Ycircumflex" unicode="&#x176;" horiz-adv-x="1247" 
d="M1051 1454h159l-516 -829v-625h-145v627l-512 827h162l426 -700zM786 1571l-161 211l-164 -211h-119l197 287h170l196 -287h-119z" />
    <glyph glyph-name="ycircumflex" unicode="&#x177;" horiz-adv-x="956" 
d="M776 989h137l-403 -1139q-26 -71 -46.5 -111.5t-52 -73.5t-74.5 -45.5t-106 -12.5q-64 0 -133 16l23 107q67 -13 102 -13q63 0 100 36.5t72 135.5l19 56l-371 1044h143l123 -360l25 -72l145 -438l99 289l75 225zM637 1147l-162 211l-164 -211h-118l196 287h170l197 -287
h-119z" />
    <glyph glyph-name="Ydieresis" unicode="&#x178;" horiz-adv-x="1247" 
d="M1051 1454h159l-516 -829v-625h-145v627l-512 827h162l426 -700zM518 1825v-193h-135v193h135zM862 1825v-193h-135v193h135z" />
    <glyph glyph-name="Zacute" unicode="&#x179;" horiz-adv-x="1259" 
d="M1176 1454v-113l-922 -1220h917v-121h-1089v113l922 1220h-879v121h1051zM901 1858l-186 -287h-119l149 287h156z" />
    <glyph glyph-name="zacute" unicode="&#x17a;" horiz-adv-x="958" 
d="M868 989v-96l-616 -780h616v-113h-786v100l618 779h-579v110h747zM731 1434l-186 -287h-119l149 287h156z" />
    <glyph glyph-name="Zdotaccent" unicode="&#x17b;" horiz-adv-x="1259" 
d="M1176 1454v-113l-922 -1220h917v-121h-1089v113l922 1220h-879v121h1051zM725 1825v-193h-135v193h135z" />
    <glyph glyph-name="zdotaccent" unicode="&#x17c;" horiz-adv-x="958" 
d="M868 989v-96l-616 -780h616v-113h-786v100l618 779h-579v110h747zM555 1401v-193h-135v193h135z" />
    <glyph glyph-name="Zcaron" unicode="&#x17d;" horiz-adv-x="1259" 
d="M1176 1454v-113l-922 -1220h917v-121h-1089v113l922 1220h-879v121h1051zM940 1858l-197 -287h-170l-196 287h119l163 -211l164 211h117z" />
    <glyph glyph-name="zcaron" unicode="&#x17e;" horiz-adv-x="958" 
d="M868 989v-96l-616 -780h616v-113h-786v100l618 779h-579v110h747zM770 1434l-197 -287h-170l-196 287h119l163 -211l164 211h117z" />
    <glyph glyph-name="florin" unicode="&#x192;" horiz-adv-x="1208" 
d="M633 928h272v-101h-272v-927q0 -297 -268 -297q-93 0 -187 30l31 105q94 -23 149 -23q76 0 108 45t32 144v923h-240v101h240v198q0 140 74 218.5t210 78.5q97 0 195 -34l-31 -107q-86 27 -147 27q-90 0 -128 -47t-38 -158v-176z" />
    <glyph glyph-name="uni0218" unicode="&#x218;" horiz-adv-x="1271" 
d="M1155 1278l-84 -100q-114 98 -218.5 140t-229.5 42q-159 0 -261 -74t-102 -188q0 -83 45 -131q45 -47 123 -75.5t250 -68.5q276 -65 387 -156.5t111 -258.5q0 -196 -146 -317.5t-373 -121.5q-169 0 -306 56t-292 186l84 102q150 -124 273 -174q113 -45 241 -45
q167 0 271 84t104 225q0 93 -49 148q-47 52 -126 82.5t-249 68.5q-115 26 -192.5 51.5t-136 56.5t-91 71.5t-49 91.5t-18.5 121q0 116 69.5 206.5t182.5 137.5t248 47q155 0 280.5 -49t253.5 -158zM719 -162v-157l-105 -193h-79l92 193h-82v157h174z" />
    <glyph glyph-name="uni0219" unicode="&#x219;" horiz-adv-x="954" 
d="M862 874l-76 -92q-96 71 -164 97t-155 26q-109 0 -175.5 -48t-66.5 -124q0 -46 31 -74q30 -26 81.5 -43.5t170.5 -44.5q202 -45 286.5 -110.5t84.5 -186.5q0 -135 -106.5 -218t-278.5 -83q-128 0 -227.5 41.5t-217.5 141.5l82 90q110 -93 188 -127q76 -33 175 -33
q111 0 181 50.5t70 131.5t-67 121.5t-227 73.5q-206 45 -279.5 97.5t-77.5 168.5q0 131 105 207q106 80 264 80q120 0 210.5 -33t188.5 -109zM547 -162v-157l-105 -193h-80l93 193h-82v157h174z" />
    <glyph glyph-name="uni021A" unicode="&#x21a;" horiz-adv-x="1216" 
d="M1151 1454v-121h-469v-1333h-145v1333h-469v121h1083zM696 -162v-157l-104 -193h-80l92 193h-82v157h174z" />
    <glyph glyph-name="uni021B" unicode="&#x21b;" horiz-adv-x="700" 
d="M639 125l25 -107q-90 -34 -195 -34q-127 0 -184.5 57.5t-57.5 173.5v674h-188v100h188v346h135v-346h283v-100h-283v-656q0 -73 28.5 -104t96.5 -31q67 0 152 27zM528 -162v-157l-104 -193h-80l92 193h-82v157h174z" />
    <glyph glyph-name="uni0237" unicode="&#x237;" horiz-adv-x="436" 
d="M14 -281q76 0 108 45t32 144v1081h135v-1085q0 -297 -269 -297q-88 0 -186 31l31 104q94 -23 149 -23z" />
    <glyph glyph-name="circumflex" unicode="&#x2c6;" horiz-adv-x="808" 
d="M567 1147l-161 211l-164 -211h-119l196 287h170l197 -287h-119z" />
    <glyph glyph-name="caron" unicode="&#x2c7;" horiz-adv-x="808" 
d="M686 1434l-197 -287h-170l-196 287h119l164 -211l163 211h117z" />
    <glyph glyph-name="breve" unicode="&#x2d8;" horiz-adv-x="796" 
d="M123 1393h104q2 -68 46.5 -111t123.5 -43q81 0 124 41.5t48 112.5h105q0 -113 -75 -182.5t-202 -69.5q-124 0 -199 69.5t-75 182.5z" />
    <glyph glyph-name="dotaccent" unicode="&#x2d9;" horiz-adv-x="380" 
d="M258 1401v-193h-135v193h135z" />
    <glyph glyph-name="ring" unicode="&#x2da;" horiz-adv-x="655" 
d="M535 1335q0 -85 -59.5 -143.5t-147.5 -58.5q-86 0 -145.5 58.5t-59.5 143.5t59.5 143t145.5 58q88 0 147.5 -58t59.5 -143zM207 1335q0 -56 33.5 -90.5t87.5 -34.5t87.5 34.5t33.5 90.5t-33.5 90.5t-87.5 34.5t-87.5 -34.5t-33.5 -90.5z" />
    <glyph glyph-name="ogonek" unicode="&#x2db;" horiz-adv-x="503" 
d="M332 47l49 -47q-158 -115 -158 -231q0 -44 28.5 -68.5t78.5 -24.5q26 0 51 7v-93q-30 -10 -68 -10q-85 0 -137.5 43.5t-52.5 122.5q0 160 209 301z" />
    <glyph glyph-name="tilde" unicode="&#x2dc;" horiz-adv-x="849" 
d="M451 1321q46 -29 69.5 -39t48.5 -10q66 0 66 108h94q0 -96 -39.5 -152.5t-111.5 -56.5q-33 0 -64 13t-86 45q-95 53 -141 53q-70 0 -70 -108h-94q0 95 44 151.5t122 56.5q38 0 69 -12.5t93 -48.5z" />
    <glyph glyph-name="hungarumlaut" unicode="&#x2dd;" horiz-adv-x="845" 
d="M422 1438l-189 -291h-110l151 291h148zM723 1438l-188 -291h-113l153 291h148z" />
    <glyph glyph-name="gravecomb" unicode="&#x300;" horiz-adv-x="0" 
d="M-510 1434h156l149 -287h-119z" />
    <glyph glyph-name="acutecomb" unicode="&#x301;" horiz-adv-x="0" 
d="M-154 1434l-186 -287h-119l150 287h155z" />
    <glyph glyph-name="uni0302" unicode="&#x302;" horiz-adv-x="0" 
d="M-283 1147l-161 211l-164 -211h-119l197 287h170l196 -287h-119z" />
    <glyph glyph-name="tildecomb" unicode="&#x303;" horiz-adv-x="0" 
d="M-498 1321q46 -28 70 -38.5t49 -10.5q66 0 66 108h94q0 -96 -40 -152.5t-112 -56.5q-33 0 -63.5 12.5t-85.5 45.5q-95 53 -142 53q-69 0 -69 -108h-94q0 95 44 151.5t122 56.5q38 0 68 -12.5t93 -48.5z" />
    <glyph glyph-name="uni0304" unicode="&#x304;" horiz-adv-x="0" 
d="M-201 1329v-110h-534v110h534z" />
    <glyph glyph-name="uni0306" unicode="&#x306;" horiz-adv-x="0" 
d="M-764 1393h105q2 -68 46.5 -111t123.5 -43q81 0 124 41.5t48 112.5h104q0 -113 -75 -182.5t-201 -69.5q-124 0 -199.5 69.5t-75.5 182.5z" />
    <glyph glyph-name="uni0307" unicode="&#x307;" horiz-adv-x="0" 
d="M-205 1401v-193h-135v193h135z" />
    <glyph glyph-name="uni0308" unicode="&#x308;" horiz-adv-x="0" 
d="M-549 1401v-193h-135v193h135zM-205 1401v-193h-135v193h135z" />
    <glyph glyph-name="uni030A" unicode="&#x30a;" horiz-adv-x="0" 
d="M-217 1335q0 -85 -59.5 -143.5t-147.5 -58.5q-86 0 -145.5 58.5t-59.5 143.5t59.5 143t145.5 58q88 0 147.5 -58t59.5 -143zM-545 1335q0 -56 33.5 -90.5t87.5 -34.5t87.5 34.5t33.5 90.5t-33.5 90.5t-87.5 34.5t-87.5 -34.5t-33.5 -90.5z" />
    <glyph glyph-name="uni030B" unicode="&#x30b;" horiz-adv-x="0" 
d="M-502 1438l-188 -291h-111l152 291h147zM-201 1438l-188 -291h-113l154 291h147z" />
    <glyph glyph-name="uni030C" unicode="&#x30c;" horiz-adv-x="0" 
d="M-188 1434l-197 -287h-170l-197 287h119l164 -211l164 211h117z" />
    <glyph glyph-name="uni0326" unicode="&#x326;" horiz-adv-x="0" 
d="M-205 -162v-157l-104 -193h-80l92 193h-82v157h174z" />
    <glyph glyph-name="uni0327" unicode="&#x327;" horiz-adv-x="0" 
d="M-190 -293q0 -79 -58 -128.5t-149 -49.5q-105 0 -215 70l43 73q60 -32 93.5 -43.5t74.5 -11.5q52 0 84 23t32 65q0 37 -34.5 59.5t-90.5 22.5q-35 0 -59 -6l-51 49l96 207l76 -37l-66 -139q98 8 161 -34.5t63 -119.5z" />
    <glyph glyph-name="uni0328" unicode="&#x328;" horiz-adv-x="0" 
d="M-238 47l50 -47q-158 -115 -158 -231q0 -44 28 -68.5t78 -24.5q28 0 52 7v-93q-30 -10 -68 -10q-85 0 -137.5 43.5t-52.5 122.5q0 160 208 301z" />
    <glyph glyph-name="uni037E" unicode="&#x37e;" horiz-adv-x="501" 
d="M358 188v-188l-110 -236h-84l96 236h-86v188h184zM350 991v-188h-172v188h172z" />
    <glyph glyph-name="tonos" unicode="&#x384;" horiz-adv-x="665" 
d="M346 1163h-113l84 291h152z" />
    <glyph glyph-name="dieresistonos" unicode="&#x385;" horiz-adv-x="890" 
d="M379 1208l57 246h150l-94 -246h-113zM184 1208v172h138v-172h-138zM618 1208v172h138v-172h-138z" />
    <glyph glyph-name="Alphatonos" unicode="&#x386;" horiz-adv-x="1333" 
d="M1143 0l-148 408h-661l-146 -408h-147l530 1454h189l530 -1454h-147zM379 530h571l-71 201l-17 43l-94 260q-49 138 -104 309q-54 -171 -175 -505l-38 -107zM182 1163h-112l84 291h151z" />
    <glyph glyph-name="anoteleia" unicode="&#x387;" horiz-adv-x="419" 
d="M295 719v-189h-172v189h172z" />
    <glyph glyph-name="Epsilontonos" unicode="&#x388;" 
d="M1118 1454v-121h-796v-526h739v-119h-739v-567h813v-121h-959v1454h942zM-66 1163h-112l84 291h151z" />
    <glyph glyph-name="Etatonos" unicode="&#x389;" horiz-adv-x="1482" 
d="M1305 1454v-1454h-148v690h-835v-690h-146v1454h146v-643h835v643h148zM-66 1163h-112l84 291h151z" />
    <glyph glyph-name="Iotatonos" unicode="&#x38a;" horiz-adv-x="528" 
d="M336 1454v-1454h-146v1454h146zM-66 1163h-112l84 291h151z" />
    <glyph glyph-name="Omicrontonos" unicode="&#x38c;" horiz-adv-x="1538" 
d="M1448 727q0 -220 -81.5 -391t-236.5 -269t-360 -98t-360 98t-236.5 269t-81.5 391t81.5 391t236.5 269t360 98t360 -98t236.5 -269t81.5 -391zM238 727q0 -277 148 -455t384 -178t384.5 178t148.5 455t-148.5 455t-384.5 178t-384 -178t-148 -455zM-2 1163h-113l84 291
h152z" />
    <glyph glyph-name="Upsilontonos" unicode="&#x38e;" horiz-adv-x="1249" 
d="M1051 1454h159l-516 -829v-625h-145v627l-512 827h162l426 -700zM-127 1163h-113l84 291h152z" />
    <glyph glyph-name="Omegatonos" unicode="&#x38f;" horiz-adv-x="1538" 
d="M1143 121h307v-121h-537v123q392 151 392 608q0 181 -66.5 324t-189 224t-279.5 81q-156 0 -277.5 -81.5t-188 -224.5t-66.5 -323q0 -456 391 -608v-123h-537v121h307q-146 84 -226.5 247.5t-80.5 358.5q0 220 81.5 391t236.5 269t360 98q204 0 359.5 -97.5t238 -269.5
t82.5 -391q0 -195 -80.5 -358.5t-226.5 -247.5zM-2 1163h-113l84 291h152z" />
    <glyph glyph-name="iotadieresistonos" unicode="&#x390;" horiz-adv-x="432" 
d="M285 0h-138v989h138v-989zM150 1208l57 246h149l-94 -246h-112zM-45 1208v172h137v-172h-137zM389 1208v172h137v-172h-137z" />
    <glyph glyph-name="Alpha" unicode="&#x391;" horiz-adv-x="1331" 
d="M1143 0l-148 408h-661l-146 -408h-147l530 1454h189l530 -1454h-147zM379 530h571l-71 201l-17 43l-94 260q-49 138 -104 309q-54 -171 -175 -505l-38 -107z" />
    <glyph glyph-name="Beta" unicode="&#x392;" horiz-adv-x="1351" 
d="M1266 408q0 -186 -122 -297t-325 -111h-643v1454h619q192 0 305.5 -96.5t113.5 -270.5q0 -117 -60.5 -199t-166.5 -118q130 -39 204.5 -133.5t74.5 -228.5zM322 1333v-510h448q141 0 221 69t80 193q0 118 -79 183t-222 65h-448zM1120 410q0 136 -89.5 215.5t-248.5 79.5
h-460v-584h458q164 0 252 77t88 212z" />
    <glyph glyph-name="Gamma" unicode="&#x393;" horiz-adv-x="1142" 
d="M1077 1333h-755v-1333h-146v1454h901v-121z" />
    <glyph glyph-name="uni0394" unicode="&#x394;" horiz-adv-x="1333" 
d="M762 1454l530 -1454h-1251l530 1454h191zM233 121h867l-221 610l-54 146q-120 337 -159 466q-36 -115 -213 -612z" />
    <glyph glyph-name="Epsilon" unicode="&#x395;" 
d="M1118 1454v-121h-796v-526h739v-119h-739v-567h813v-121h-959v1454h942z" />
    <glyph glyph-name="Zeta" unicode="&#x396;" horiz-adv-x="1259" 
d="M1176 1454v-113l-922 -1220h917v-121h-1089v113l922 1220h-879v121h1051z" />
    <glyph glyph-name="Eta" unicode="&#x397;" horiz-adv-x="1478" 
d="M1305 1454v-1454h-148v690h-835v-690h-146v1454h146v-643h835v643h148z" />
    <glyph glyph-name="Theta" unicode="&#x398;" horiz-adv-x="1538" 
d="M1452 727q2 -217 -81.5 -390.5t-240.5 -272t-360 -95.5q-205 0 -360 98t-236.5 269t-81.5 391t81.5 391t236.5 269t360 98q203 3 360 -95.5t240.5 -272t81.5 -390.5zM240 727q0 -182 66.5 -325.5t188 -224.5t275.5 -81q157 0 278 80.5t186.5 224t65.5 326.5
q0 278 -146.5 454.5t-383.5 176.5q-154 0 -275.5 -81t-188 -224.5t-66.5 -325.5zM434 807h674v-119h-674v119z" />
    <glyph glyph-name="Iota" unicode="&#x399;" horiz-adv-x="526" 
d="M336 1454v-1454h-146v1454h146z" />
    <glyph glyph-name="Kappa" unicode="&#x39a;" horiz-adv-x="1312" 
d="M1122 0l-526 776l-274 -280v-496h-146v1454h146v-782l757 782h178l-563 -577l594 -877h-166z" />
    <glyph glyph-name="Lambda" unicode="&#x39b;" horiz-adv-x="1267" 
d="M727 1454l500 -1454h-150l-250 731q-138 407 -196 606q-70 -246 -193 -604l-248 -733h-149l500 1454h186z" />
    <glyph glyph-name="Mu" unicode="&#x39c;" horiz-adv-x="1742" 
d="M1331 1454h236v-1454h-142v721q0 64 1 157t2 231.5t2 244.5q-29 -86 -230 -633l-264 -721h-129l-270 723q-92 237 -228 631q4 -552 4 -635v-719h-137v1454h234l245 -661q152 -409 217 -621q61 201 177 514l38 107z" />
    <glyph glyph-name="Nu" unicode="&#x39d;" horiz-adv-x="1486" 
d="M1169 1454h142v-1454h-166l-459 694l-24 39q-245 367 -353 543q8 -213 8 -553v-723h-141v1454h166l457 -692l78 -121q217 -332 301 -467q-9 243 -9 555v725z" />
    <glyph glyph-name="Xi" unicode="&#x39e;" horiz-adv-x="1294" 
d="M109 1323v131h1077v-131h-1077zM174 684v129h946v-129h-946zM92 0v131h1110v-131h-1110z" />
    <glyph glyph-name="Omicron" unicode="&#x39f;" horiz-adv-x="1540" 
d="M1448 727q0 -220 -81.5 -391t-236.5 -269t-360 -98t-360 98t-236.5 269t-81.5 391t81.5 391t236.5 269t360 98t360 -98t236.5 -269t81.5 -391zM238 727q0 -277 148 -455t384 -178t384.5 178t148.5 455t-148.5 455t-384.5 178t-384 -178t-148 -455z" />
    <glyph glyph-name="Pi" unicode="&#x3a0;" horiz-adv-x="1447" 
d="M1274 0h-148v1333h-804v-1333h-146v1454h1098v-1454z" />
    <glyph glyph-name="Rho" unicode="&#x3a1;" horiz-adv-x="1304" 
d="M1237 1030q0 -200 -127.5 -313t-341.5 -113h-446v-604h-146v1454h592q214 0 341.5 -112t127.5 -312zM750 1333h-428v-608h428q162 0 253 79t91 226q0 146 -91 224.5t-253 78.5z" />
    <glyph glyph-name="Sigma" unicode="&#x3a3;" horiz-adv-x="1212" 
d="M250 121h880v-121h-1048v113l491 628l-479 580v133h1020v-121h-860l489 -583z" />
    <glyph glyph-name="Tau" unicode="&#x3a4;" horiz-adv-x="1216" 
d="M1151 1454v-121h-469v-1333h-145v1333h-469v121h1083z" />
    <glyph glyph-name="Upsilon" unicode="&#x3a5;" horiz-adv-x="1247" 
d="M1051 1454h159l-516 -829v-625h-145v627l-512 827h162l426 -700z" />
    <glyph glyph-name="Phi" unicode="&#x3a6;" horiz-adv-x="1617" 
d="M883 121v-121h-148v121q-154 4 -278.5 54.5t-205 134t-123 193t-42.5 234.5t42.5 234.5t123 193.5t205 134.5t278.5 54.5v100h148v-100q154 -4 278.5 -54.5t205 -134.5t123 -193.5t42.5 -234.5t-42.5 -234.5t-123 -193t-205 -134t-278.5 -54.5zM741 244v987
q-248 -12 -379 -149t-131 -345t131 -344.5t379 -148.5zM1386 737q0 208 -130.5 345t-378.5 149v-987q248 12 378.5 148.5t130.5 344.5z" />
    <glyph glyph-name="Chi" unicode="&#x3a7;" horiz-adv-x="1257" 
d="M1231 0h-162l-440 659l-441 -659h-163l516 762l-469 692h161l400 -594l393 594h162l-469 -692z" />
    <glyph glyph-name="Psi" unicode="&#x3a8;" horiz-adv-x="1574" 
d="M1266 1454h145v-653q0 -103 -34.5 -188t-102 -147.5t-173 -97.5t-241.5 -36v-332h-145v332q-136 1 -242 36t-173 97.5t-101.5 147.5t-34.5 188v653h145v-647q0 -159 106.5 -256t299.5 -98v1001h145v-1001q193 1 299.5 98t106.5 256v647z" />
    <glyph glyph-name="uni03A9" unicode="&#x3a9;" horiz-adv-x="1538" 
d="M1143 121h307v-121h-537v123q392 151 392 608q0 181 -66.5 324t-189 224t-279.5 81q-156 0 -277.5 -81.5t-188 -224.5t-66.5 -323q0 -456 391 -608v-123h-537v121h307q-146 84 -226.5 247.5t-80.5 358.5q0 220 81.5 391t236.5 269t360 98q204 0 359.5 -97.5t238 -269.5
t82.5 -391q0 -195 -80.5 -358.5t-226.5 -247.5z" />
    <glyph glyph-name="Iotadieresis" unicode="&#x3aa;" horiz-adv-x="526" 
d="M336 1454v-1454h-146v1454h146zM158 1825v-193h-135v193h135zM502 1825v-193h-135v193h135z" />
    <glyph glyph-name="Upsilondieresis" unicode="&#x3ab;" horiz-adv-x="1247" 
d="M1051 1454h159l-516 -829v-625h-145v627l-512 827h162l426 -700zM518 1825v-193h-135v193h135zM862 1825v-193h-135v193h135z" />
    <glyph glyph-name="alphatonos" unicode="&#x3ac;" horiz-adv-x="1148" 
d="M872 989h129v-989h-129v166q-112 -191 -348 -191q-190 0 -314 146t-124 375q0 228 124 373t314 145q239 0 348 -189v164zM870 496q0 188 -92 296.5t-243 108.5q-137 0 -222.5 -112.5t-85.5 -292.5q0 -175 84 -291q85 -113 224 -113q149 0 242 109t93 295zM633 1163h-113
l84 291h152z" />
    <glyph glyph-name="epsilontonos" unicode="&#x3ad;" horiz-adv-x="1009" 
d="M877 233l81 -90q-97 -90 -201.5 -130t-236.5 -40q-210 0 -324 77t-114 222q0 89 55 153.5t162 94.5q-86 31 -133 88.5t-47 132.5q0 131 117 201q118 74 296 74q123 0 222 -33.5t192 -108.5l-78 -92q-91 70 -166.5 96.5t-169.5 26.5q-125 0 -198.5 -43.5t-73.5 -116.5
q0 -84 65.5 -129t184.5 -45h147v-104h-145q-289 0 -289 -195q0 -91 75 -138.5t222 -47.5q104 0 188.5 36t168.5 111zM592 1163h-113l84 291h152z" />
    <glyph glyph-name="etatonos" unicode="&#x3ae;" horiz-adv-x="1093" 
d="M950 678v-1047h-137v1002q0 133 -64 201.5t-186 68.5q-115 0 -196.5 -81t-81.5 -199v-623h-138v989h129v-135q98 162 320 162q169 0 261.5 -93.5t92.5 -244.5zM612 1163h-112l84 291h151z" />
    <glyph glyph-name="iotatonos" unicode="&#x3af;" horiz-adv-x="432" 
d="M285 0h-138v989h138v-989zM276 1163h-112l84 291h151z" />
    <glyph glyph-name="upsilondieresistonos" unicode="&#x3b0;" horiz-adv-x="1073" 
d="M143 383v606h138v-602q0 -299 254 -299q258 0 258 299v602h137v-606q0 -195 -98 -302.5t-295 -107.5q-194 0 -294 108t-100 302zM471 1208l57 246h150l-94 -246h-113zM276 1208v172h138v-172h-138zM711 1208v172h137v-172h-137z" />
    <glyph glyph-name="alpha" unicode="&#x3b1;" horiz-adv-x="1148" 
d="M872 989h129v-989h-129v166q-112 -191 -348 -191q-190 0 -314 146t-124 375q0 228 124 373t314 145q239 0 348 -189v164zM870 496q0 188 -92 296.5t-243 108.5q-137 0 -222.5 -112.5t-85.5 -292.5q0 -175 84 -291q85 -113 224 -113q149 0 242 109t93 295z" />
    <glyph glyph-name="beta" unicode="&#x3b2;" horiz-adv-x="1148" 
d="M1063 408q0 -197 -120.5 -315t-324.5 -118q-109 0 -199 48.5t-134 132.5v-525h-138v1426q0 186 115 307t309 121q191 0 303.5 -100t112.5 -265q0 -123 -70.5 -211t-173.5 -114q132 -16 226 -121.5t94 -265.5zM922 410q0 147 -97 235q-95 86 -241 86h-105v115h115
q111 0 183.5 76.5t72.5 197.5t-75 184.5t-202 63.5q-136 0 -212 -84t-76 -231v-580q0 -171 91.5 -276t239.5 -105q146 0 226 87t80 231z" />
    <glyph glyph-name="gamma" unicode="&#x3b3;" horiz-adv-x="946" 
d="M408 -369v365l-371 993h143l137 -373q85 -237 158 -471q73 240 158 467l137 377h139l-364 -989v-369h-137z" />
    <glyph glyph-name="delta" unicode="&#x3b4;" horiz-adv-x="1120" 
d="M82 473q0 137 56 250.5t166 183.5t255 70q17 0 37 -4l-406 379v102h740v-113h-551l434 -403q225 -211 225 -465q0 -135 -58 -248t-169 -182.5t-252 -69.5q-136 0 -245.5 66t-170.5 180.5t-61 253.5zM897 473q0 73 -21.5 142t-62 125.5t-106.5 91t-146 34.5
q-104 0 -183 -56t-118 -144.5t-39 -192.5q0 -70 22 -137.5t63 -123t107 -90t146 -34.5q78 0 143 32.5t107 86.5t65 122.5t23 143.5z" />
    <glyph glyph-name="epsilon" unicode="&#x3b5;" horiz-adv-x="1009" 
d="M877 233l81 -90q-97 -90 -201.5 -130t-236.5 -40q-210 0 -324 77t-114 222q0 89 55 153.5t162 94.5q-86 31 -133 88.5t-47 132.5q0 131 117 201q118 74 296 74q123 0 222 -33.5t192 -108.5l-78 -92q-91 70 -166.5 96.5t-169.5 26.5q-125 0 -198.5 -43.5t-73.5 -116.5
q0 -84 65.5 -129t184.5 -45h147v-104h-145q-289 0 -289 -195q0 -91 75 -138.5t222 -47.5q104 0 188.5 36t168.5 111z" />
    <glyph glyph-name="zeta" unicode="&#x3b6;" horiz-adv-x="1007" 
d="M788 -348l-79 94l45 39q73 61 73 113q0 102 -122 102h-162q-217 0 -334 96t-117 279q0 276 187 530q190 258 434 436h-580v113h782v-98q-290 -205 -489 -471q-193 -254 -193 -510q0 -140 80 -200t234 -60h158q121 0 186 -53.5t65 -153.5q0 -50 -21 -93.5t-53 -77
t-94 -85.5z" />
    <glyph glyph-name="eta" unicode="&#x3b7;" horiz-adv-x="1093" 
d="M950 678v-1047h-137v1002q0 133 -64 201.5t-186 68.5q-115 0 -196.5 -81t-81.5 -199v-623h-138v989h129v-135q98 162 320 162q169 0 261.5 -93.5t92.5 -244.5z" />
    <glyph glyph-name="theta" unicode="&#x3b8;" horiz-adv-x="1148" 
d="M874 96q-114 -123 -301 -123q-185 0 -299 123q-92 100 -126.5 250t-34.5 383t34.5 383t126.5 250q114 123 299 123q187 0 301 -123q92 -100 127 -250.5t35 -382.5t-35 -382.5t-127 -250.5zM252 791h643q-9 339 -113 479q-77 102 -209 102q-130 0 -206 -102
q-106 -138 -115 -479zM897 688h-645q3 -355 115 -500q76 -102 206 -102q132 0 209 102q106 138 115 500z" />
    <glyph glyph-name="iota" unicode="&#x3b9;" horiz-adv-x="432" 
d="M285 0h-138v989h138v-989z" />
    <glyph glyph-name="kappa" unicode="&#x3ba;" horiz-adv-x="1005" 
d="M834 0l-355 516l-194 -197v-319h-138v989h138v-516l497 516h162l-371 -385l414 -604h-153z" />
    <glyph glyph-name="lambda" unicode="&#x3bb;" horiz-adv-x="946" 
d="M467 1245l442 -1245h-139l-137 389q-69 198 -148 449l-34 -101l-121 -346l-148 -391h-145l381 997l-70 211q-30 82 -62 121t-75 39q-47 0 -115 -27l-33 109q90 35 156 35q95 0 149 -56t99 -184z" />
    <glyph glyph-name="uni03BC" unicode="&#x3bc;" horiz-adv-x="1081" 
d="M797 989h137v-989h-125v141q-42 -83 -119.5 -125.5t-179.5 -42.5q-150 0 -225 78v-426h-138v1364h138v-659q0 -117 60.5 -177.5t176.5 -60.5q120 0 197.5 78t77.5 213v606z" />
    <glyph glyph-name="nu" unicode="&#x3bd;" horiz-adv-x="944" 
d="M770 989h137l-348 -989h-176l-346 989h141l133 -383q64 -182 164 -504q55 193 162 504z" />
    <glyph glyph-name="xi" unicode="&#x3be;" horiz-adv-x="1007" 
d="M788 -348l-79 94l45 39q73 61 73 113q0 102 -122 102h-162q-213 0 -332 101.5t-119 281.5q0 159 81.5 258t211.5 127q-90 21 -152 104q-61 82 -61 191q0 205 162 278h-221v113h802v-113h-278q-151 0 -236.5 -69t-85.5 -207q0 -108 77.5 -178t195.5 -70h274v-110h-266
q-171 0 -267 -83.5t-96 -236.5q0 -272 314 -272h158q121 0 186 -53.5t65 -153.5q0 -50 -21 -93.5t-53 -77t-94 -85.5z" />
    <glyph glyph-name="omicron" unicode="&#x3bf;" horiz-adv-x="1120" 
d="M1038 494q0 -230 -133.5 -375.5t-345.5 -145.5q-211 0 -344 145.5t-133 375.5q0 231 133 376.5t344 145.5q212 0 345.5 -145t133.5 -377zM221 494q0 -180 92 -295q91 -113 246 -113q154 0 247 113t93 295t-92 297q-91 114 -248 114q-155 0 -246 -114q-92 -115 -92 -297z
" />
    <glyph glyph-name="pi" unicode="&#x3c0;" horiz-adv-x="1216" 
d="M1159 121l21 -109q-82 -32 -164 -32q-124 0 -171.5 54.5t-47.5 180.5v664h-432v-879h-138v879h-188v110h1075v-110h-180v-629q0 -89 21 -121.5t83 -32.5q41 0 121 25z" />
    <glyph glyph-name="rho" unicode="&#x3c1;" horiz-adv-x="1110" 
d="M1028 494q0 -231 -122.5 -375t-313.5 -144q-234 0 -342 172v-516h-137v863q0 234 123.5 378t332.5 144t334 -146t125 -376zM887 496q0 177 -86 292q-83 117 -232 117q-148 0 -237 -114q-88 -113 -88 -295q0 -186 93 -295t241 -109q141 0 223 113q86 115 86 291z" />
    <glyph glyph-name="uni03C2" unicode="&#x3c2;" horiz-adv-x="989" 
d="M674 -348l-80 94l45 39q74 62 74 113q0 40 -40.5 62t-160.5 52q-204 51 -317 177t-113 323q0 227 128.5 365.5t338.5 138.5q125 0 214 -43t175 -146l-94 -79q-78 86 -147 121.5t-152 35.5q-100 0 -174.5 -56t-111 -144t-36.5 -193q0 -142 80.5 -242t228.5 -141
q95 -25 173 -53q139 -47 139 -170q0 -71 -39 -125t-131 -129z" />
    <glyph glyph-name="sigma" unicode="&#x3c3;" horiz-adv-x="1136" 
d="M1098 989v-110h-267q101 -56 155 -157t54 -239q0 -225 -133.5 -367.5t-345.5 -142.5t-345.5 142.5t-133.5 367.5t133 365.5t346 140.5h537zM899 483q0 176 -92 285q-91 111 -246 111t-246 -111q-92 -109 -92 -285q0 -172 92 -284q92 -111 246 -111q155 0 246 111
q92 112 92 284z" />
    <glyph glyph-name="tau" unicode="&#x3c4;" horiz-adv-x="849" 
d="M813 879h-324v-643q0 -73 28.5 -104.5t96.5 -31.5t150 27l27 -109q-90 -34 -197 -34q-127 0 -184.5 57.5t-57.5 173.5v664h-315v110h776v-110z" />
    <glyph glyph-name="upsilon" unicode="&#x3c5;" horiz-adv-x="1073" 
d="M143 383v606h138v-602q0 -299 254 -299q258 0 258 299v602h137v-606q0 -195 -98 -302.5t-295 -107.5q-194 0 -294 108t-100 302z" />
    <glyph glyph-name="phi" unicode="&#x3c6;" horiz-adv-x="1417" 
d="M639 -369v340q-262 11 -409.5 142.5t-147.5 367.5q0 201 81.5 325.5t280.5 209.5l50 -109q-149 -65 -210 -164.5t-61 -261.5q0 -188 107 -288.5t309 -108.5v590q0 166 79 254t226 88q175 0 283 -130t108 -364q0 -252 -154 -397t-405 -154v-340h-137zM1194 522
q0 182 -68 282.5t-182 100.5q-168 0 -168 -250v-571q199 11 308.5 123.5t109.5 314.5z" />
    <glyph glyph-name="chi" unicode="&#x3c7;" horiz-adv-x="989" 
d="M950 -369h-151l-307 568l-306 -568h-147l371 680l-369 678h152l292 -543l293 543h148l-359 -655z" />
    <glyph glyph-name="psi" unicode="&#x3c8;" horiz-adv-x="1435" 
d="M1159 989h137v-491q0 -245 -127.5 -380t-382.5 -145v-342h-137v342q-255 10 -382.5 145t-127.5 380v491h137v-491q0 -393 373 -414v1251h137v-1251q373 21 373 414v491z" />
    <glyph glyph-name="omega" unicode="&#x3c9;" horiz-adv-x="1415" 
d="M913 907l50 109q195 -80 282.5 -213.5t87.5 -333.5q0 -218 -90 -358q-89 -138 -256 -138q-108 0 -181.5 59t-98.5 163q-23 -103 -97 -162.5t-182 -59.5q-168 0 -256 138q-90 140 -90 358q0 200 88 333.5t283 213.5l49 -109q-146 -60 -212.5 -168t-66.5 -270
q0 -171 57 -276t150 -105q101 0 155 75.5t54 227.5v281h137v-281q0 -150 53.5 -226.5t153.5 -76.5q94 0 151.5 105.5t57.5 275.5q0 162 -66.5 270t-212.5 168z" />
    <glyph glyph-name="iotadieresis" unicode="&#x3ca;" horiz-adv-x="432" 
d="M285 0h-138v989h138v-989zM111 1401v-193h-136v193h136zM455 1401v-193h-136v193h136z" />
    <glyph glyph-name="upsilondieresis" unicode="&#x3cb;" horiz-adv-x="1073" 
d="M143 383v606h138v-602q0 -299 254 -299q258 0 258 299v602h137v-606q0 -195 -98 -302.5t-295 -107.5q-194 0 -294 108t-100 302zM432 1401v-193h-135v193h135zM776 1401v-193h-135v193h135z" />
    <glyph glyph-name="omicrontonos" unicode="&#x3cc;" horiz-adv-x="1122" 
d="M1038 494q0 -230 -133.5 -375.5t-345.5 -145.5q-211 0 -344 145.5t-133 375.5q0 231 133 376.5t344 145.5q212 0 345.5 -145t133.5 -377zM221 494q0 -180 92 -295q91 -113 246 -113q154 0 247 113t93 295t-92 297q-91 114 -248 114q-155 0 -246 -114q-92 -115 -92 -297z
M608 1163h-112l84 291h151z" />
    <glyph glyph-name="upsilontonos" unicode="&#x3cd;" horiz-adv-x="1073" 
d="M143 383v606h138v-602q0 -299 254 -299q258 0 258 299v602h137v-606q0 -195 -98 -302.5t-295 -107.5q-194 0 -294 108t-100 302zM592 1163h-113l84 291h152z" />
    <glyph glyph-name="omegatonos" unicode="&#x3ce;" horiz-adv-x="1415" 
d="M913 907l50 109q195 -80 282.5 -213.5t87.5 -333.5q0 -218 -90 -358q-89 -138 -256 -138q-108 0 -181.5 59t-98.5 163q-23 -103 -97 -162.5t-182 -59.5q-168 0 -256 138q-90 140 -90 358q0 200 88 333.5t283 213.5l49 -109q-146 -60 -212.5 -168t-66.5 -270
q0 -171 57 -276t150 -105q101 0 155 75.5t54 227.5v281h137v-281q0 -150 53.5 -226.5t153.5 -76.5q94 0 151.5 105.5t57.5 275.5q0 162 -66.5 270t-212.5 168zM772 1163h-113l84 291h152z" />
    <glyph glyph-name="uni0401" unicode="&#x401;" 
d="M1118 1454v-121h-796v-526h739v-119h-739v-567h813v-121h-959v1454h942zM543 1825v-193h-135v193h135zM887 1825v-193h-135v193h135z" />
    <glyph glyph-name="uni0402" unicode="&#x402;" horiz-adv-x="1576" 
d="M1483 442q0 -215 -123 -341t-334 -126q-88 0 -199 21l27 121q111 -19 164 -19q152 0 235.5 88.5t83.5 249.5q0 167 -90.5 249.5t-259.5 82.5q-191 0 -377 -80v-688h-145v1333h-397v121h1042v-121h-500v-518q68 35 175 56.5t206 21.5q232 0 362 -114.5t130 -336.5z" />
    <glyph glyph-name="uni0403" unicode="&#x403;" horiz-adv-x="1142" 
d="M1077 1333h-755v-1333h-146v1454h901v-121zM877 1858l-187 -287h-119l150 287h156z" />
    <glyph glyph-name="uni0404" unicode="&#x404;" horiz-adv-x="1359" 
d="M1221 322l90 -97q-144 -141 -264 -198q-122 -58 -281 -58q-202 0 -356 97.5t-236 269.5t-82 391q0 220 81.5 391t238.5 269t368 98q138 0 257 -46.5t247 -154.5l-84 -100q-117 96 -217 136t-207 40q-231 0 -377 -152q-140 -149 -161 -401h700v-119h-705
q12 -265 154.5 -429.5t372.5 -164.5q127 0 231 53.5t230 174.5z" />
    <glyph glyph-name="uni0405" unicode="&#x405;" horiz-adv-x="1271" 
d="M1155 1278l-84 -100q-114 98 -218.5 140t-229.5 42q-159 0 -261 -74t-102 -188q0 -83 45 -131q45 -47 123 -75.5t250 -68.5q276 -65 387 -156.5t111 -258.5q0 -196 -146 -317.5t-373 -121.5q-169 0 -306 56t-292 186l84 102q150 -124 273 -174q113 -45 241 -45
q167 0 271 84t104 225q0 93 -49 148q-47 52 -126 82.5t-249 68.5q-115 26 -192.5 51.5t-136 56.5t-91 71.5t-49 91.5t-18.5 121q0 116 69.5 206.5t182.5 137.5t248 47q155 0 280.5 -49t253.5 -158z" />
    <glyph glyph-name="uni0406" unicode="&#x406;" horiz-adv-x="526" 
d="M336 1454v-1454h-146v1454h146z" />
    <glyph glyph-name="uni0407" unicode="&#x407;" horiz-adv-x="526" 
d="M336 1454v-1454h-146v1454h146zM158 1825v-193h-135v193h135zM502 1825v-193h-135v193h135z" />
    <glyph glyph-name="uni0408" unicode="&#x408;" horiz-adv-x="935" 
d="M770 1454v-1087q0 -196 -92.5 -293t-282.5 -97q-178 0 -364 103l57 108q183 -86 307 -86q112 0 171 68.5t59 206.5v1077h145z" />
    <glyph glyph-name="uni0409" unicode="&#x409;" horiz-adv-x="2299" 
d="M2234 430q0 -202 -129.5 -316t-347.5 -114h-577v1333h-658l-4 -663q-3 -255 -20 -385q-20 -143 -90.5 -219t-206.5 -76q-73 0 -129 18l20 123q50 -12 103 -12q86 0 127 59q42 64 51 178q9 120 12 367l4 731h936v-592h432q218 0 347.5 -115t129.5 -317zM2089 430
q0 150 -93.5 231.5t-256.5 81.5h-414v-622h414q163 0 256.5 80.5t93.5 228.5z" />
    <glyph glyph-name="uni040A" unicode="&#x40a;" horiz-adv-x="2279" 
d="M2214 424q0 -199 -129.5 -311.5t-347.5 -112.5h-578v729h-837v-729h-146v1454h146v-604h837v604h148v-604h430q218 0 347.5 -113.5t129.5 -312.5zM2068 424q0 147 -93 226t-257 79h-411v-608h411q163 0 256.5 79t93.5 224z" />
    <glyph glyph-name="uni040B" unicode="&#x40b;" horiz-adv-x="1599" 
d="M1473 498v-498h-146v492q0 143 -81 209.5t-259 66.5q-191 0 -377 -80v-688h-145v1333h-397v121h1042v-121h-500v-518q68 35 175 56.5t206 21.5q482 0 482 -395z" />
    <glyph glyph-name="uni040C" unicode="&#x40c;" horiz-adv-x="1323" 
d="M1122 0l-522 692h-278v-692h-146v1454h146v-643h270l502 643h163l-542 -692l575 -762h-168zM901 1858l-186 -287h-119l149 287h156z" />
    <glyph glyph-name="uni040E" unicode="&#x40e;" horiz-adv-x="1249" 
d="M1212 1454h-143l-438 -1003l-445 1003h-149l524 -1165l-6 -13q-41 -94 -91.5 -133t-117.5 -39q-23 0 -139 17l-25 -125q90 -19 162 -19q117 0 190.5 56.5t135.5 193.5zM930 1815q0 -117 -80 -182.5t-223 -65.5q-142 0 -221.5 65.5t-79.5 182.5h120q0 -73 47 -114.5
t134 -41.5t134.5 41.5t47.5 114.5h121z" />
    <glyph glyph-name="uni040F" unicode="&#x40f;" horiz-adv-x="1449" 
d="M176 1454h146v-1333h806v1333h146v-1454h-475v-313h-146v313h-477v1454z" />
    <glyph glyph-name="uni0410" unicode="&#x410;" horiz-adv-x="1331" 
d="M1143 0l-148 408h-661l-146 -408h-147l530 1454h189l530 -1454h-147zM379 530h571l-71 201l-17 43l-94 260q-49 138 -104 309q-54 -171 -175 -505l-38 -107z" />
    <glyph glyph-name="uni0411" unicode="&#x411;" horiz-adv-x="1294" 
d="M176 0v1454h963v-121h-817v-487h438q212 0 340 -113q129 -111 129 -311q0 -198 -127.5 -310t-341.5 -112h-584zM322 121h419q161 0 251.5 78t90.5 223q0 147 -90 225t-252 78h-419v-604z" />
    <glyph glyph-name="uni0412" unicode="&#x412;" horiz-adv-x="1351" 
d="M1266 408q0 -186 -122 -297t-325 -111h-643v1454h619q192 0 305.5 -96.5t113.5 -270.5q0 -117 -60.5 -199t-166.5 -118q130 -39 204.5 -133.5t74.5 -228.5zM322 1333v-510h448q141 0 221 69t80 193q0 118 -79 183t-222 65h-448zM1120 410q0 136 -89.5 215.5t-248.5 79.5
h-460v-584h458q164 0 252 77t88 212z" />
    <glyph glyph-name="uni0413" unicode="&#x413;" horiz-adv-x="1142" 
d="M1077 1333h-755v-1333h-146v1454h901v-121z" />
    <glyph glyph-name="uni0414" unicode="&#x414;" horiz-adv-x="1529" 
d="M354 1454h930v-1333h174v-424h-145v303h-1123v-303h-145v424h121q181 242 184 794zM322 121h817v1212h-652l-4 -424q-3 -567 -161 -788z" />
    <glyph glyph-name="uni0415" unicode="&#x415;" 
d="M1118 1454v-121h-796v-526h739v-119h-739v-567h813v-121h-959v1454h942z" />
    <glyph glyph-name="uni0416" unicode="&#x416;" horiz-adv-x="1990" 
d="M1790 0l-496 692h-231v-692h-135v692h-230l-497 -692h-168l551 762l-516 692h163l478 -643h219v643h135v-643h221l475 643h164l-516 -692l551 -762h-168z" />
    <glyph glyph-name="uni0417" unicode="&#x417;" horiz-adv-x="1314" 
d="M1223 414q0 -201 -156 -323t-403 -122q-167 0 -305 57t-285 185l86 104q132 -115 250.5 -168t255.5 -53q189 0 301 85t112 237q0 129 -95 202.5t-273 73.5h-299v119h299q149 0 231 72.5t82 201.5q0 122 -100.5 198.5t-264.5 76.5q-124 0 -232.5 -40.5t-223.5 -143.5
l-84 96q127 115 255 164t285 49q222 0 364 -109.5t142 -283.5q0 -118 -59 -202.5t-168 -127.5q140 -38 212.5 -128t72.5 -220z" />
    <glyph glyph-name="uni0418" unicode="&#x418;" horiz-adv-x="1486" 
d="M1149 1454h162v-1454h-142v723q0 281 11 567q-181 -292 -383 -594l-459 -696h-162v1454h141v-725q0 -342 -8 -563q159 255 383 592z" />
    <glyph glyph-name="uni0419" unicode="&#x419;" horiz-adv-x="1486" 
d="M1311 1454h-162l-457 -696q-224 -337 -383 -592q8 221 8 563v725h-141v-1454h162l459 696q202 302 383 594q-11 -286 -11 -567v-723h142v1454zM1044 1815q0 -117 -80 -182.5t-223 -65.5q-142 0 -221.5 65.5t-79.5 182.5h121q0 -73 46.5 -114.5t133.5 -41.5t135 41.5
t48 114.5h120z" />
    <glyph glyph-name="uni041A" unicode="&#x41a;" horiz-adv-x="1323" 
d="M1122 0l-522 692h-278v-692h-146v1454h146v-643h270l502 643h163l-542 -692l575 -762h-168z" />
    <glyph glyph-name="uni041B" unicode="&#x41b;" horiz-adv-x="1501" 
d="M72 8l20 123q50 -12 103 -12q86 0 127 59q42 64 51 178q9 120 12 367l4 731h936v-1454h-145v1333h-658l-4 -663q-3 -255 -20 -385q-20 -143 -90.5 -219t-206.5 -76q-73 0 -129 18z" />
    <glyph glyph-name="uni041C" unicode="&#x41c;" horiz-adv-x="1742" 
d="M1331 1454h236v-1454h-142v721q0 64 1 157t2 231.5t2 244.5q-29 -86 -230 -633l-264 -721h-129l-270 723q-92 237 -228 631q4 -552 4 -635v-719h-137v1454h234l245 -661q152 -409 217 -621q61 201 177 514l38 107z" />
    <glyph glyph-name="uni041D" unicode="&#x41d;" horiz-adv-x="1478" 
d="M1305 1454v-1454h-148v690h-835v-690h-146v1454h146v-643h835v643h148z" />
    <glyph glyph-name="uni041E" unicode="&#x41e;" horiz-adv-x="1540" 
d="M1448 727q0 -220 -81.5 -391t-236.5 -269t-360 -98t-360 98t-236.5 269t-81.5 391t81.5 391t236.5 269t360 98t360 -98t236.5 -269t81.5 -391zM238 727q0 -277 148 -455t384 -178t384.5 178t148.5 455t-148.5 455t-384.5 178t-384 -178t-148 -455z" />
    <glyph glyph-name="uni041F" unicode="&#x41f;" horiz-adv-x="1447" 
d="M1274 0h-148v1333h-804v-1333h-146v1454h1098v-1454z" />
    <glyph glyph-name="uni0420" unicode="&#x420;" horiz-adv-x="1304" 
d="M1237 1030q0 -200 -127.5 -313t-341.5 -113h-446v-604h-146v1454h592q214 0 341.5 -112t127.5 -312zM750 1333h-428v-608h428q162 0 253 79t91 226q0 146 -91 224.5t-253 78.5z" />
    <glyph glyph-name="uni0421" unicode="&#x421;" horiz-adv-x="1359" 
d="M1284 1284l-84 -100q-118 97 -216 136.5t-204 39.5q-247 0 -394.5 -176t-147.5 -457q0 -277 146.5 -455t379.5 -178q127 0 229 52.5t228 175.5l90 -97q-144 -141 -264 -198q-122 -58 -281 -58q-202 0 -356 97.5t-236 269.5t-82 391q0 221 81.5 392t238.5 268.5t368 97.5
q138 0 257 -46.5t247 -154.5z" />
    <glyph glyph-name="uni0422" unicode="&#x422;" horiz-adv-x="1216" 
d="M1151 1454v-121h-469v-1333h-145v1333h-469v121h1083z" />
    <glyph glyph-name="uni0423" unicode="&#x423;" horiz-adv-x="1249" 
d="M1069 1454h143l-542 -1227q-62 -137 -135.5 -193.5t-190.5 -56.5q-72 0 -162 19l25 125q116 -17 139 -17q67 0 117.5 39t91.5 133l6 13l-524 1165h149l445 -1003z" />
    <glyph glyph-name="uni0424" unicode="&#x424;" horiz-adv-x="1787" 
d="M1696 737q0 -129 -46 -240.5t-131.5 -195.5t-217.5 -132t-295 -48h-41v-193h-142v193h-41q-163 0 -295 48t-217.5 132t-131.5 195.5t-46 240.5t46 241t131.5 196t217.5 132t295 48h41v172h142v-172h41q163 0 295 -48t217.5 -132t131.5 -196t46 -241zM782 242h43v991h-43
q-131 0 -235.5 -39t-171.5 -106.5t-102 -157t-35 -193.5t35 -193t102 -157t171.5 -106.5t235.5 -38.5zM1550 737q0 104 -35 193.5t-102 157t-171.5 106.5t-235.5 39h-43v-991h43q131 0 235.5 38.5t171.5 106.5t102 157t35 193z" />
    <glyph glyph-name="uni0425" unicode="&#x425;" horiz-adv-x="1257" 
d="M1231 0h-162l-440 659l-441 -659h-163l516 762l-469 692h161l400 -594l393 594h162l-469 -692z" />
    <glyph glyph-name="uni0426" unicode="&#x426;" horiz-adv-x="1517" 
d="M176 1454h146v-1333h804v1333h146v-1333h174v-424h-146v303h-1124v1454z" />
    <glyph glyph-name="uni0427" unicode="&#x427;" horiz-adv-x="1327" 
d="M1006 1454h145v-1454h-145v647q-68 -35 -175.5 -56.5t-207.5 -21.5q-480 0 -480 396v489h146v-483q0 -143 82 -210t258 -67q198 0 377 78v682z" />
    <glyph glyph-name="uni0428" unicode="&#x428;" horiz-adv-x="2121" 
d="M1948 1454v-1454h-1772v1454h146v-1333h667v1333h146v-1333h665v1333h148z" />
    <glyph glyph-name="uni0429" unicode="&#x429;" horiz-adv-x="2191" 
d="M1974 -303v303h-1798v1454h146v-1333h667v1333h146v-1333h665v1333h148v-1333h172v-424h-146z" />
    <glyph glyph-name="uni042A" unicode="&#x42a;" horiz-adv-x="1558" 
d="M1493 430q0 -202 -129.5 -316t-347.5 -114h-578v1331h-370v123h516v-592h432q218 0 347.5 -115t129.5 -317zM1348 430q0 151 -93.5 232t-259.5 81h-411v-622h411q166 0 259.5 80.5t93.5 228.5z" />
    <glyph glyph-name="uni042B" unicode="&#x42b;" horiz-adv-x="1765" 
d="M176 0v1454h146v-592h430q218 0 347.5 -115t129.5 -317t-129.5 -316t-347.5 -114h-576zM322 121h411q165 0 257.5 80.5t92.5 228.5q0 151 -92 232t-258 81h-411v-622zM1589 1454v-1454h-145v1454h145z" />
    <glyph glyph-name="uni042C" unicode="&#x42c;" horiz-adv-x="1294" 
d="M176 0v1454h146v-592h430q218 0 347.5 -115t129.5 -317t-129.5 -316t-347.5 -114h-576zM322 121h411q165 0 257.5 80.5t92.5 228.5q0 151 -92 232t-258 81h-411v-622z" />
    <glyph glyph-name="uni042D" unicode="&#x42d;" horiz-adv-x="1359" 
d="M1268 727q0 -219 -82 -391t-236 -269.5t-356 -97.5q-159 0 -281 58q-120 57 -264 198l90 97q126 -121 230 -174.5t231 -53.5q230 0 372 164.5t154 429.5h-704v119h700q-21 252 -161 401q-143 152 -377 152q-107 0 -207 -40t-217 -136l-84 100q131 108 249.5 154.5
t254.5 46.5q211 0 368 -98t238.5 -269t81.5 -391z" />
    <glyph glyph-name="uni042E" unicode="&#x42e;" horiz-adv-x="2062" 
d="M1970 727q0 -220 -81.5 -391t-236.5 -269t-360 -98q-199 0 -351.5 92.5t-236.5 255t-92 371.5h-290v-688h-146v1454h146v-647h292q17 200 102.5 352.5t234.5 239t341 86.5q205 0 360 -98t236.5 -269t81.5 -391zM1825 727q0 277 -148.5 455t-384.5 178q-157 0 -279 -81.5
t-188.5 -225.5t-66.5 -326t66.5 -326t188.5 -225.5t279 -81.5q236 0 384.5 178t148.5 455z" />
    <glyph glyph-name="uni042F" unicode="&#x42f;" horiz-adv-x="1318" 
d="M598 1454h545v-1454h-142v563h-284l-459 -563h-172l467 565q-192 15 -309 135t-117 310q0 198 131.5 321t339.5 123zM1001 684v649h-380q-162 0 -256.5 -86t-94.5 -237q0 -153 93 -239.5t255 -86.5h383z" />
    <glyph glyph-name="uni0430" unicode="&#x430;" horiz-adv-x="1064" 
d="M922 696v-696h-125v131q-50 -79 -140 -120.5t-204 -41.5q-163 0 -259 70t-96 203q2 67 25.5 117.5t60 85t100.5 61.5t128.5 44t162.5 36l216 39v61q0 103 -68.5 161t-185.5 58q-94 0 -169 -38.5t-165 -133.5l-86 78q92 106 192 155.5t221 49.5q182 0 287 -88t105 -232z
M791 354v166l-187 -37q-128 -26 -207 -51q-166 -56 -166 -188q0 -75 61 -118.5t167 -43.5q146 0 237 76q95 77 95 196z" />
    <glyph glyph-name="uni0431" unicode="&#x431;" horiz-adv-x="1126" 
d="M1044 496q0 -232 -133 -377.5t-344 -145.5q-227 0 -353 165t-126 472q1 174 18 298.5t55 222.5t103 159t157.5 97.5t223.5 50.5l326 28l10 -129l-322 -26q-102 -9 -173.5 -32.5t-123.5 -64t-84 -107t-49.5 -153.5t-25.5 -213q46 116 149.5 186t247.5 70q207 0 325.5 -134
t118.5 -367zM905 496q0 181 -86 285t-239 104q-151 0 -252 -107.5t-101 -281.5q0 -185 92.5 -297.5t245.5 -112.5q154 0 247 112t93 298z" />
    <glyph glyph-name="uni0432" unicode="&#x432;" horiz-adv-x="1077" 
d="M981 279q0 -126 -90 -202.5t-244 -76.5h-495v989h479q148 0 234.5 -67.5t86.5 -188.5q0 -78 -46.5 -137t-123.5 -84q94 -24 146.5 -84t52.5 -149zM285 879v-320h333q100 0 150.5 45t50.5 123q0 71 -51.5 111.5t-151.5 40.5h-331zM848 281q0 78 -61 127t-175 49h-327v-342
h333q230 0 230 166z" />
    <glyph glyph-name="uni0433" unicode="&#x433;" horiz-adv-x="856" 
d="M815 879h-528v-879h-135v989h663v-110z" />
    <glyph glyph-name="uni0434" unicode="&#x434;" horiz-adv-x="1191" 
d="M55 -256v369h95q132 122 135 499l4 377h690v-876h151v-369h-131v256h-813v-256h-131zM291 113h553v766h-432l-4 -267q-6 -391 -117 -499z" />
    <glyph glyph-name="uni0435" unicode="&#x435;" horiz-adv-x="1069" 
d="M899 266l86 -82q-104 -115 -203.5 -163t-224.5 -48q-218 0 -346.5 141t-128.5 373q0 234 127.5 381.5t333.5 147.5q203 0 320.5 -126.5t117.5 -342.5q0 -28 -4 -64h-758q6 -166 90 -282q83 -115 248 -115q102 0 170 39q76 42 172 141zM223 586h623q-5 148 -85 233.5
t-218 85.5q-135 0 -218 -81.5t-102 -237.5z" />
    <glyph glyph-name="uni0436" unicode="&#x436;" horiz-adv-x="1470" 
d="M1278 0l-322 455h-159v-455h-125v455h-158l-321 -455h-154l367 514l-338 475h147l297 -422h160v422h125v-422h161l297 422h148l-338 -475l367 -514h-154z" />
    <glyph glyph-name="uni0437" unicode="&#x437;" horiz-adv-x="997" 
d="M901 283q0 -131 -113.5 -220.5t-289.5 -89.5q-245 0 -443 168l76 95q183 -150 367 -150q124 0 197 53t73 144q0 84 -62.5 128t-181.5 44h-194v108h194q103 0 159 45t56 127q0 83 -66 126.5t-184 43.5q-83 0 -159 -28.5t-168 -92.5l-64 95q105 73 198.5 106t195.5 33
q163 0 272 -74q108 -73 108 -203q0 -167 -172 -225q201 -59 201 -233z" />
    <glyph glyph-name="uni0438" unicode="&#x438;" horiz-adv-x="1132" 
d="M840 989h141v-989h-129v442q0 247 6 406q-79 -128 -199 -305l-53 -80l-315 -463h-139v989h129v-487q0 -41 -2 -162.5t-3 -185.5q58 96 248 374z" />
    <glyph glyph-name="uni0439" unicode="&#x439;" horiz-adv-x="1132" 
d="M981 989h-141l-316 -461q-190 -278 -248 -374q1 64 3 185.5t2 162.5v487h-129v-989h139l315 463l53 80q120 177 199 305q-6 -159 -6 -406v-442h129v989zM866 1391q0 -117 -80 -182.5t-223 -65.5q-142 0 -221.5 65.5t-79.5 182.5h121q0 -73 46.5 -114.5t133.5 -41.5
t134.5 41.5t47.5 114.5h121z" />
    <glyph glyph-name="uni043A" unicode="&#x43a;" horiz-adv-x="1009" 
d="M821 0l-340 455h-194v-455h-135v989h135v-422h196l316 422h147l-358 -475l387 -514h-154z" />
    <glyph glyph-name="uni043B" unicode="&#x43b;" horiz-adv-x="1124" 
d="M35 2l14 117q44 -8 78 -8q25 2 42.5 5.5t32.5 14.5t24 22t17 37t12 50.5t7 72t4.5 91.5t3.5 118l4 467h699v-989h-135v879h-441l-4 -363q-2 -111 -6.5 -182.5t-15.5 -134t-28 -97t-47 -60.5t-68.5 -36.5t-96.5 -13.5q-44 0 -96 10z" />
    <glyph glyph-name="uni043C" unicode="&#x43c;" horiz-adv-x="1370" 
d="M1020 989h201v-989h-127v487q0 52 4 408l-158 -406l-195 -489h-120l-195 492q-102 253 -156 407q1 -65 2 -155t2 -151.5t1 -105.5v-487h-127v989h202l183 -459q62 -152 151 -405q33 93 152 403z" />
    <glyph glyph-name="uni043D" unicode="&#x43d;" horiz-adv-x="1101" 
d="M950 0h-135v455h-528v-455h-135v989h135v-422h528v422h135v-989z" />
    <glyph glyph-name="uni043E" unicode="&#x43e;" horiz-adv-x="1120" 
d="M1038 494q0 -230 -133.5 -375.5t-345.5 -145.5q-211 0 -344 145.5t-133 375.5q0 231 133 376.5t344 145.5q212 0 345.5 -145t133.5 -377zM221 494q0 -180 92 -295q91 -113 246 -113q154 0 247 113t93 295t-92 297q-91 114 -248 114q-155 0 -246 -114q-92 -115 -92 -297z
" />
    <glyph glyph-name="uni043F" unicode="&#x43f;" horiz-adv-x="1093" 
d="M152 0v989h790v-989h-135v879h-520v-879h-135z" />
    <glyph glyph-name="uni0440" unicode="&#x440;" horiz-adv-x="1146" 
d="M1061 496q0 -230 -122.5 -375.5t-313.5 -145.5q-234 0 -342 172v-516h-136v1358h127v-166q112 191 351 191q191 0 313.5 -145t122.5 -373zM922 496q0 181 -85 293t-225 112q-151 0 -243.5 -108.5t-92.5 -296.5q0 -187 93 -296.5t243 -109.5q142 0 224 113q86 115 86 293z
" />
    <glyph glyph-name="uni0441" unicode="&#x441;" horiz-adv-x="997" 
d="M543 905q-101 0 -176 -59t-110.5 -151t-35.5 -201t35.5 -199t112 -148.5t180.5 -58.5q86 0 151 36t156 134l90 -76q-91 -114 -181.5 -161.5t-213.5 -47.5q-214 0 -341.5 142.5t-127.5 378.5q0 233 127.5 377.5t337.5 144.5q125 0 214 -43t175 -146l-92 -79
q-79 87 -147 122t-154 35z" />
    <glyph glyph-name="uni0442" unicode="&#x442;" horiz-adv-x="884" 
d="M844 879h-334v-879h-135v879h-334v110h803v-110z" />
    <glyph glyph-name="uni0443" unicode="&#x443;" horiz-adv-x="956" 
d="M776 989h137l-403 -1139q-26 -71 -46.5 -111.5t-52 -73.5t-74.5 -45.5t-106 -12.5q-64 0 -133 16l23 107q67 -13 102 -13q63 0 100 36.5t72 135.5l19 56l-371 1044h143l123 -360l25 -72l145 -438l99 289l75 225z" />
    <glyph glyph-name="uni0444" unicode="&#x444;" horiz-adv-x="1411" 
d="M641 1454h129v-438q251 -9 405 -147.5t154 -374.5t-154.5 -375t-404.5 -148v-340h-129v340q-250 9 -404.5 148t-154.5 375t154 374.5t405 147.5v438zM645 82v825q-195 -8 -309.5 -116t-114.5 -297q0 -188 114.5 -296t309.5 -116zM766 907v-825q195 8 309.5 116t114.5 296
q0 189 -114.5 297t-309.5 116z" />
    <glyph glyph-name="uni0445" unicode="&#x445;" horiz-adv-x="942" 
d="M911 0h-151l-287 426l-291 -426h-149l358 516l-332 473h152l262 -381l258 381h148l-326 -467z" />
    <glyph glyph-name="uni0446" unicode="&#x446;" horiz-adv-x="1159" 
d="M967 -256v256h-815v989h135v-876h524v876h135v-876h152v-369h-131z" />
    <glyph glyph-name="uni0447" unicode="&#x447;" horiz-adv-x="1009" 
d="M723 989h135v-989h-135v426q-116 -55 -281 -55q-184 0 -267 72t-83 223v323h135v-323q0 -94 53 -139.5t173 -45.5q150 0 270 56v452z" />
    <glyph glyph-name="uni0448" unicode="&#x448;" horiz-adv-x="1548" 
d="M1397 989v-989h-1245v989h135v-874h420v874h135v-874h420v874h135z" />
    <glyph glyph-name="uni0449" unicode="&#x449;" horiz-adv-x="1609" 
d="M1417 -256v256h-1265v989h135v-874h420v874h135v-874h420v874h135v-874h151v-371h-131z" />
    <glyph glyph-name="uni044A" unicode="&#x44a;" horiz-adv-x="1189" 
d="M1112 317q0 -147 -99 -232t-261 -85h-435v879h-276v110h412v-350h299q162 0 261 -86t99 -236zM973 317q0 109 -61.5 159t-186.5 50h-272v-413h272q124 0 186 48.5t62 155.5z" />
    <glyph glyph-name="uni044B" unicode="&#x44b;" horiz-adv-x="1374" 
d="M152 0v989h135v-350h297q164 0 263 -86t99 -236q0 -147 -99.5 -232t-262.5 -85h-432zM287 113h270q126 0 188 48.5t62 155.5q0 108 -62.5 158.5t-187.5 50.5h-270v-413zM1225 989v-989h-135v989h135z" />
    <glyph glyph-name="uni044C" unicode="&#x44c;" horiz-adv-x="1024" 
d="M152 0v989h135v-350h297q164 0 263 -86t99 -236q0 -147 -99.5 -232t-262.5 -85h-432zM287 113h270q126 0 188 48.5t62 155.5q0 108 -62.5 158.5t-187.5 50.5h-270v-413z" />
    <glyph glyph-name="uni044D" unicode="&#x44d;" horiz-adv-x="997" 
d="M915 494q0 -236 -127.5 -378.5t-343.5 -142.5q-120 0 -211 47.5t-182 161.5l88 76q86 -97 154 -133.5t156 -36.5q157 0 239 105q83 109 92 262h-475v106h473q-14 153 -99.5 248.5t-223.5 95.5q-86 0 -155.5 -35.5t-147.5 -121.5l-91 79q86 102 175.5 145.5t212.5 43.5
q209 0 337.5 -145t128.5 -377z" />
    <glyph glyph-name="uni044E" unicode="&#x44e;" horiz-adv-x="1523" 
d="M1444 494q0 -230 -133.5 -375.5t-345.5 -145.5q-201 0 -333.5 134.5t-144.5 349.5h-204v-457h-136v989h136v-428h209q19 204 148.5 329.5t324.5 125.5q212 0 345.5 -145t133.5 -377zM1305 494q0 181 -93 297q-92 114 -247 114q-154 0 -246 -112.5t-92 -298.5
q0 -180 92 -295q91 -113 246 -113q154 0 247 113t93 295z" />
    <glyph glyph-name="uni044F" unicode="&#x44f;" horiz-adv-x="1032" 
d="M461 989h420v-989h-129v375h-195l-336 -375h-160l347 377q-138 14 -223 97.5t-85 209.5q0 138 100 221.5t261 83.5zM752 485v394h-273q-119 0 -184.5 -51t-65.5 -144q0 -94 65 -146.5t183 -52.5h275z" />
    <glyph glyph-name="uni0451" unicode="&#x451;" horiz-adv-x="1069" 
d="M899 266l86 -82q-104 -115 -203.5 -163t-224.5 -48q-218 0 -346.5 141t-128.5 373q0 234 127.5 381.5t333.5 147.5q203 0 320.5 -126.5t117.5 -342.5q0 -28 -4 -64h-758q6 -166 90 -282q83 -115 248 -115q102 0 170 39q76 42 172 141zM223 586h623q-5 148 -85 233.5
t-218 85.5q-135 0 -218 -81.5t-102 -237.5zM457 1401v-193h-135v193h135zM801 1401v-193h-135v193h135z" />
    <glyph glyph-name="uni0452" unicode="&#x452;" horiz-adv-x="1155" 
d="M1010 657v-753q0 -297 -269 -297q-88 0 -186 31l31 106q94 -23 149 -23q76 0 107.5 45t31.5 142v704q0 133 -63.5 201t-185.5 68q-115 0 -197 -81.5t-82 -197.5v-602h-135v1200h-139v100h139v154h135v-154h371v-100h-371v-356q49 74 130 112.5t181 38.5q166 0 259.5 -95
t93.5 -243z" />
    <glyph glyph-name="uni0453" unicode="&#x453;" horiz-adv-x="856" 
d="M815 879h-528v-879h-135v989h663v-110zM733 1434l-186 -287h-119l150 287h155z" />
    <glyph glyph-name="uni0454" unicode="&#x454;" horiz-adv-x="997" 
d="M856 258l90 -76q-91 -114 -181.5 -161.5t-213.5 -47.5q-214 0 -341.5 142.5t-127.5 378.5q0 233 127.5 377.5t337.5 144.5q125 0 214 -43t175 -146l-92 -79q-77 86 -146.5 121.5t-156.5 35.5q-145 0 -226 -100q-81 -97 -96 -244h471v-106h-473q9 -153 92 -262
q83 -105 238 -105q87 0 154.5 36.5t154.5 133.5z" />
    <glyph glyph-name="uni0455" unicode="&#x455;" horiz-adv-x="954" 
d="M862 874l-76 -92q-96 71 -164 97t-155 26q-109 0 -175.5 -48t-66.5 -124q0 -46 31 -74q30 -26 81.5 -43.5t170.5 -44.5q202 -45 286.5 -110.5t84.5 -186.5q0 -135 -106.5 -218t-278.5 -83q-128 0 -227.5 41.5t-217.5 141.5l82 90q110 -93 188 -127q76 -33 175 -33
q111 0 181 50.5t70 131.5t-67 121.5t-227 73.5q-206 45 -279.5 97.5t-77.5 168.5q0 131 105 207q106 80 264 80q120 0 210.5 -33t188.5 -109z" />
    <glyph glyph-name="uni0456" unicode="&#x456;" horiz-adv-x="430" 
d="M283 989v-989h-136v989h136zM283 1401v-193h-136v193h136z" />
    <glyph glyph-name="uni0457" unicode="&#x457;" horiz-adv-x="430" 
d="M283 989v-989h-136v989h136zM111 1401v-193h-136v193h136zM455 1401v-193h-136v193h136z" />
    <glyph glyph-name="uni0458" unicode="&#x458;" horiz-adv-x="436" 
d="M14 -281q76 0 108 45t32 144v1081h135v-1085q0 -297 -269 -297q-88 0 -186 31l31 104q94 -23 149 -23zM289 1401v-193h-135v193h135z" />
    <glyph glyph-name="uni0459" unicode="&#x459;" horiz-adv-x="1738" 
d="M1661 293q0 -145 -94.5 -219t-263.5 -74h-465v879h-441l-4 -363q-2 -111 -6.5 -182.5t-15.5 -134t-28 -97t-47 -60.5t-68.5 -36.5t-96.5 -13.5q-44 0 -96 10l14 117q44 -8 78 -8q25 2 42.5 5.5t32.5 14.5t24 22t17 37t12 50.5t7 72t4.5 91.5t3.5 118l4 467h699v-399h330
q168 0 263 -76t95 -221zM1522 293q0 184 -230 184h-319v-364h319q230 0 230 180z" />
    <glyph glyph-name="uni045A" unicode="&#x45a;" horiz-adv-x="1716" 
d="M152 0v989h135v-399h528v399h135v-399h330q168 0 263 -76t95 -221t-94.5 -219t-263.5 -74h-465v477h-528v-477h-135zM950 113h318q231 0 231 180q0 184 -231 184h-318v-364z" />
    <glyph glyph-name="uni045B" unicode="&#x45b;" horiz-adv-x="1155" 
d="M1010 657v-657h-136v612q0 133 -63.5 201t-185.5 68q-115 0 -197 -81.5t-82 -197.5v-602h-135v1200h-139v100h139v154h135v-154h371v-100h-371v-356q49 74 130 112.5t181 38.5q166 0 259.5 -95t93.5 -243z" />
    <glyph glyph-name="uni045C" unicode="&#x45c;" horiz-adv-x="1009" 
d="M821 0l-340 455h-194v-455h-135v989h135v-422h196l316 422h147l-358 -475l387 -514h-154zM748 1434l-187 -287h-119l150 287h156z" />
    <glyph glyph-name="uni045E" unicode="&#x45e;" horiz-adv-x="956" 
d="M913 989h-137l-123 -356l-75 -225l-99 -289l-145 438l-25 72l-123 360h-143l371 -1044l-19 -56q-35 -99 -72 -135.5t-100 -36.5q-35 0 -102 13l-23 -107q69 -16 133 -16q63 0 106 12.5t74.5 45.5t52 73.5t46.5 111.5zM774 1391q0 -117 -80 -182.5t-223 -65.5
q-142 0 -221.5 65.5t-79.5 182.5h121q0 -73 46.5 -114.5t133.5 -41.5t134.5 41.5t47.5 114.5h121z" />
    <glyph glyph-name="uni045F" unicode="&#x45f;" horiz-adv-x="1097" 
d="M481 -260v260h-329v989h135v-876h524v876h135v-989h-334v-260h-131z" />
    <glyph glyph-name="uni0490" unicode="&#x490;" horiz-adv-x="1142" 
d="M176 0v1454h756v299h145v-420h-755v-1333h-146z" />
    <glyph glyph-name="uni0491" unicode="&#x491;" horiz-adv-x="874" 
d="M152 0v989h557v264h129v-374h-551v-879h-135z" />
    <glyph glyph-name="Wgrave" unicode="&#x1e80;" horiz-adv-x="1892" 
d="M1679 1454h144l-350 -1454h-187l-196 717q-96 370 -142 557q-52 -234 -139 -559l-197 -715h-192l-350 1454h147l174 -733q57 -241 131 -590q66 283 152 590l203 733h151l199 -733q69 -252 149 -586q52 267 129 586zM705 1858h155l150 -287h-119z" />
    <glyph glyph-name="wgrave" unicode="&#x1e81;" horiz-adv-x="1452" 
d="M1264 989h139l-281 -989h-166l-100 340q-84 294 -133 491q-38 -167 -133 -495l-96 -336h-164l-281 989h139l107 -389q72 -269 123 -481q49 202 129 481l112 389h132l114 -389q92 -318 131 -485q47 203 123 485zM481 1434h156l149 -287h-118z" />
    <glyph glyph-name="Wacute" unicode="&#x1e82;" horiz-adv-x="1892" 
d="M1679 1454h144l-350 -1454h-187l-196 717q-96 370 -142 557q-52 -234 -139 -559l-197 -715h-192l-350 1454h147l174 -733q57 -241 131 -590q66 283 152 590l203 733h151l199 -733q69 -252 149 -586q52 267 129 586zM1190 1858l-186 -287h-119l149 287h156z" />
    <glyph glyph-name="wacute" unicode="&#x1e83;" horiz-adv-x="1452" 
d="M1264 989h139l-281 -989h-166l-100 340q-84 294 -133 491q-38 -167 -133 -495l-96 -336h-164l-281 989h139l107 -389q72 -269 123 -481q49 202 129 481l112 389h132l114 -389q92 -318 131 -485q47 203 123 485zM967 1434l-187 -287h-118l149 287h156z" />
    <glyph glyph-name="Wdieresis" unicode="&#x1e84;" horiz-adv-x="1892" 
d="M1679 1454h144l-350 -1454h-187l-196 717q-96 370 -142 557q-52 -234 -139 -559l-197 -715h-192l-350 1454h147l174 -733q57 -241 131 -590q66 283 152 590l203 733h151l199 -733q69 -252 149 -586q52 267 129 586zM842 1825v-193h-135v193h135zM1186 1825v-193h-135v193
h135z" />
    <glyph glyph-name="wdieresis" unicode="&#x1e85;" horiz-adv-x="1452" 
d="M1264 989h139l-281 -989h-166l-100 340q-84 294 -133 491q-38 -167 -133 -495l-96 -336h-164l-281 989h139l107 -389q72 -269 123 -481q49 202 129 481l112 389h132l114 -389q92 -318 131 -485q47 203 123 485zM618 1401v-193h-135v193h135zM963 1401v-193h-136v193h136z
" />
    <glyph glyph-name="Ygrave" unicode="&#x1ef2;" horiz-adv-x="1247" 
d="M1051 1454h159l-516 -829v-625h-145v627l-512 827h162l426 -700zM381 1858h156l149 -287h-119z" />
    <glyph glyph-name="ygrave" unicode="&#x1ef3;" horiz-adv-x="956" 
d="M776 989h137l-403 -1139q-26 -71 -46.5 -111.5t-52 -73.5t-74.5 -45.5t-106 -12.5q-64 0 -133 16l23 107q67 -13 102 -13q63 0 100 36.5t72 135.5l19 56l-371 1044h143l123 -360l25 -72l145 -438l99 289l75 225zM231 1434h156l150 -287h-119z" />
    <glyph glyph-name="endash" unicode="&#x2013;" horiz-adv-x="1468" 
d="M1321 643v-115h-1174v115h1174z" />
    <glyph glyph-name="emdash" unicode="&#x2014;" horiz-adv-x="1957" 
d="M1788 643v-115h-1616v115h1616z" />
    <glyph glyph-name="quoteleft" unicode="&#x2018;" horiz-adv-x="385" 
d="M102 1055v176l103 223h84l-94 -223h84v-176h-177z" />
    <glyph glyph-name="quoteright" unicode="&#x2019;" horiz-adv-x="385" 
d="M283 1454v-176l-105 -223h-82l92 223h-82v176h177z" />
    <glyph glyph-name="quotesinglbase" unicode="&#x201a;" horiz-adv-x="378" 
d="M276 178v-178l-104 -213h-76l84 213h-80v178h176z" />
    <glyph glyph-name="quotedblleft" unicode="&#x201c;" horiz-adv-x="718" 
d="M102 1055v176l103 223h84l-94 -223h84v-176h-177zM438 1055v176l103 223h84l-95 -223h84v-176h-176z" />
    <glyph glyph-name="quotedblright" unicode="&#x201d;" horiz-adv-x="718" 
d="M283 1454v-176l-105 -223h-82l92 223h-82v176h177zM618 1454v-176l-104 -223h-82l92 223h-82v176h176z" />
    <glyph glyph-name="quotedblbase" unicode="&#x201e;" horiz-adv-x="712" 
d="M276 178v-178l-104 -213h-76l84 213h-80v178h176zM612 178v-178l-104 -213h-76l84 213h-80v178h176z" />
    <glyph glyph-name="dagger" unicode="&#x2020;" horiz-adv-x="1208" 
d="M1126 887v-119h-450v-1171h-135v1171h-451v119h451v567h135v-567h450z" />
    <glyph glyph-name="daggerdbl" unicode="&#x2021;" horiz-adv-x="1208" 
d="M1126 870h-450v-514h450v-118h-450v-641h-135v641h-451v118h451v514h-451v119h451v465h135v-465h450v-119z" />
    <glyph glyph-name="bullet" unicode="&#x2022;" horiz-adv-x="1005" 
d="M848 616q0 -140 -103 -243t-243 -103q-142 0 -243 103t-101 243q0 143 101 244t243 101q140 0 243 -101.5t103 -243.5z" />
    <glyph glyph-name="ellipsis" unicode="&#x2026;" horiz-adv-x="1210" 
d="M295 188v-188h-172v188h172zM690 188v-188h-170v188h170zM1087 188v-188h-172v188h172z" />
    <glyph glyph-name="perthousand" unicode="&#x2030;" horiz-adv-x="2494" 
d="M1315 1421l90 -55l-981 -1395l-88 58zM1612 299q0 -139 -89 -229t-218 -90q-130 0 -219 90t-89 229q0 138 89.5 227.5t218.5 89.5t218 -89.5t89 -227.5zM1112 299q0 -98 53 -159.5t140 -61.5t139.5 61.5t52.5 159.5t-52.5 159.5t-139.5 61.5t-140 -61.5t-53 -159.5z
M737 1096q0 -139 -89 -229.5t-218 -90.5t-218 90.5t-89 229.5q0 138 89 227.5t218 89.5t218 -89.5t89 -227.5zM238 1096q0 -98 52.5 -160t139.5 -62t140 62t53 160t-53 159.5t-140 61.5t-139.5 -61.5t-52.5 -159.5zM2345 299q0 -139 -89 -229t-218 -90t-218 90t-89 229
q0 138 89 227.5t218 89.5t218 -89.5t89 -227.5zM1845 299q0 -98 53 -159.5t140 -61.5t139.5 61.5t52.5 159.5t-52.5 159.5t-139.5 61.5t-140 -61.5t-53 -159.5z" />
    <glyph glyph-name="guilsinglleft" unicode="&#x2039;" horiz-adv-x="700" 
d="M557 958l-283 -440l283 -440h-141l-283 440l283 440h141z" />
    <glyph glyph-name="guilsinglright" unicode="&#x203a;" horiz-adv-x="700" 
d="M143 958h142l282 -440l-282 -440h-142l283 440z" />
    <glyph glyph-name="fraction" unicode="&#x2044;" horiz-adv-x="374" 
d="M631 1421l90 -55l-981 -1395l-88 58z" />
    <glyph glyph-name="Euro" unicode="&#x20ac;" horiz-adv-x="1249" 
d="M1122 199l76 -101q-103 -72 -188.5 -100.5t-202.5 -28.5q-218 0 -358 146q-139 145 -179 387h-153v104h141q-4 78 -4 90q0 66 6 127h-143v105h159q48 231 186.5 363t344.5 132q115 0 202 -29.5t189 -99.5l-76 -100q-85 62 -155 86.5t-160 24.5q-145 0 -245 -99t-142 -278
h559v-105h-578q-6 -61 -6 -127q0 -12 4 -90h580v-104h-567q37 -194 140 -304t255 -110q90 0 160 24.5t155 86.5z" />
    <glyph glyph-name="uni20B9" unicode="&#x20b9;" horiz-adv-x="1208" 
d="M1108 1393v-109h-248q107 -94 125 -235h123v-107h-121q-15 -159 -139 -254q-121 -92 -299 -92h-195l647 -596h-194l-639 596v106h360q136 0 221.5 62t102.5 178h-684v107h682q-20 109 -105 167t-217 58h-360v119h940z" />
    <glyph glyph-name="uni20BA" unicode="&#x20ba;" horiz-adv-x="1208" 
d="M979 604l123 -18l-25 -129q-20 -107 -54.5 -185.5t-82.5 -131t-116 -83.5t-146 -44t-180 -13h-201v549l-195 -88v106l195 88v244l-195 -88v107l195 88v387h137v-326l363 162v-107l-363 -161v-244l363 162v-107l-363 -162v-491h27q85 1 144 7t112 21.5t88 40.5t64.5 66.5
t49.5 97.5t37 135z" />
    <glyph glyph-name="uni20BD" unicode="&#x20bd;" horiz-adv-x="1249" 
d="M694 600h-274v-213h463v-104h-463v-283h-137v283h-201v104h201v213h-201v105h201v688h411q191 0 316 -112t125 -290q0 -177 -124.5 -284t-316.5 -107zM420 1274v-569h258q149 0 235 76t86 210t-86 208.5t-235 74.5h-258z" />
    <glyph glyph-name="uni2116" unicode="&#x2116;" horiz-adv-x="2058" 
d="M1434 1159q0 131 84 221q82 88 217 88t217 -88q86 -89 86 -221q0 -134 -86 -223q-82 -88 -217 -88t-217 88q-84 90 -84 223zM1110 731v723h143v-1454h-172l-430 690q-94 142 -223 379l-117 205q8 -216 8 -555v-719h-143v1454h172l424 -690q79 -121 217 -369l127 -219
q-6 273 -6 555zM1550 1159q0 -98 53 -155.5t134 -57.5q80 0 132 58.5t52 154.5t-52 154.5t-132 58.5q-81 0 -134 -57.5t-53 -155.5zM1452 657v99h561v-99h-561z" />
    <glyph glyph-name="uni2117" unicode="&#x2117;" horiz-adv-x="1753" 
d="M123 727q-3 206 98 381.5t276 276t380 96.5q154 3 294.5 -56t241.5 -160t160 -242t57 -296q2 -155 -57 -296t-160 -242t-241.5 -160t-294.5 -56q-205 -4 -380 96.5t-276 276t-98 381.5zM1513 727q3 181 -80 332.5t-230.5 238.5t-325.5 84q-178 3 -325.5 -84t-231 -238.5
t-80.5 -332.5q-3 -181 80.5 -332.5t231 -238.5t325.5 -84q178 -3 325.5 84t230.5 238.5t80 332.5zM606 303v846h338q121 0 198 -73t77 -189q0 -120 -74 -184t-201 -64h-215v-336h-123zM729 741h184q91 0 137 39t46 109t-47 110.5t-136 40.5h-184v-299z" />
    <glyph glyph-name="trademark" unicode="&#x2122;" horiz-adv-x="1955" 
d="M764 1454v-92h-287v-700h-108v700h-287v92h682zM1792 1454v-792h-102v665l-277 -665h-104l-285 657v-657h-104v792h159l283 -666l270 666h160z" />
    <glyph glyph-name="uni2126" unicode="&#x2126;" horiz-adv-x="1538" 
d="M1143 121h307v-121h-537v123q392 151 392 608q0 181 -66.5 324t-189 224t-279.5 81q-156 0 -277.5 -81.5t-188 -224.5t-66.5 -323q0 -456 391 -608v-123h-537v121h307q-146 84 -226.5 247.5t-80.5 358.5q0 220 81.5 391t236.5 269t360 98q204 0 359.5 -97.5t238 -269.5
t82.5 -391q0 -195 -80.5 -358.5t-226.5 -247.5z" />
    <glyph glyph-name="uni2154" unicode="&#x2154;" horiz-adv-x="2031" 
d="M217 659h504v-102h-625v47q0 124 66 199q67 76 196 145l58 31q102 52 143 91t41 101q0 65 -47.5 100.5t-130.5 35.5q-114 0 -240 -117l-73 78q154 145 315 145q135 0 216 -66.5t81 -170.5q-3 -45 -15 -80t-27 -59t-49.5 -50.5t-62.5 -44t-86 -49.5l-57 -31
q-111 -62 -154 -101.5t-53 -101.5zM1485 1421l90 -55l-981 -1395l-88 58zM1933 254q0 -109 -84 -191.5t-225 -82.5q-87 0 -159 22.5t-167 81.5l62 88q78 -49 137.5 -67.5t124.5 -18.5q85 0 136.5 47.5t51.5 120.5q0 70 -52.5 114t-141.5 44q-68 0 -111 -17l-55 76l307 262
h-422v103h570v-101l-279 -235h25q125 0 203.5 -66t78.5 -180z" />
    <glyph glyph-name="oneeighth" unicode="&#x215b;" horiz-adv-x="1843" 
d="M346 1393h90v-836h-117v686l-165 -121l-60 82zM1280 1421l90 -55l-981 -1395l-88 58zM1759 227q0 -108 -88 -176.5t-237 -68.5q-150 0 -238 68.5t-88 176.5q0 75 44 131.5t124 85.5q-62 30 -97.5 80t-35.5 111q0 98 80.5 160.5t210.5 62.5t211 -63t81 -160
q0 -61 -36 -111.5t-99 -79.5q80 -29 124 -85.5t44 -131.5zM1255 627q0 -62 50.5 -102t128.5 -40q79 0 128.5 40t49.5 102q0 60 -49 96.5t-129 36.5t-129.5 -36.5t-49.5 -96.5zM1638 236q0 73 -54 116t-150 43t-150.5 -43t-54.5 -116q0 -69 55 -110.5t150 -41.5t149.5 41.5
t54.5 110.5z" />
    <glyph glyph-name="threeeighths" unicode="&#x215c;" horiz-adv-x="1996" 
d="M705 811q0 -69 -35 -130.5t-107.5 -102.5t-167.5 -41q-86 0 -158 22.5t-167 81.5l61 88q78 -49 137.5 -67.5t124.5 -18.5q85 0 137 47.5t52 120.5q0 70 -53 114t-142 44q-69 0 -111 -17l-55 76l307 262h-422v103h570v-101l-279 -235h25q125 0 204 -66t79 -180zM1434 1421
l90 -55l-981 -1395l-88 58zM1913 227q0 -108 -88 -176.5t-238 -68.5q-149 0 -237 68.5t-88 176.5q0 75 44 131.5t124 85.5q-62 30 -98 80t-36 111q0 98 80.5 160.5t210.5 62.5t211.5 -63t81.5 -160q0 -61 -36 -111.5t-99 -79.5q80 -29 124 -85.5t44 -131.5zM1409 627
q0 -62 50 -102t128 -40q79 0 128.5 40t49.5 102q0 60 -49 96.5t-129 36.5t-129 -36.5t-49 -96.5zM1792 236q0 73 -54.5 116t-150.5 43t-150.5 -43t-54.5 -116q0 -69 55 -110.5t150 -41.5t150 41.5t55 110.5z" />
    <glyph glyph-name="fiveeighths" unicode="&#x215d;" horiz-adv-x="2002" 
d="M729 834q0 -127 -89.5 -211t-236.5 -84q-85 0 -160 25t-167 83l59 88q89 -53 145 -72.5t123 -19.5q90 0 146.5 52.5t56.5 131.5q0 81 -48.5 126.5t-143.5 45.5q-116 0 -193 -71l-94 12l41 453h520v-103h-424l-24 -254q81 66 204 66q128 0 206.5 -75.5t78.5 -192.5z
M1440 1421l90 -55l-981 -1395l-88 58zM1919 227q0 -108 -88 -176.5t-238 -68.5q-149 0 -237 68.5t-88 176.5q0 75 44 131.5t124 85.5q-62 30 -97.5 80t-35.5 111q0 98 80.5 160.5t209.5 62.5q130 0 211.5 -63t81.5 -160q0 -61 -36 -111.5t-99 -79.5q80 -29 124 -85.5
t44 -131.5zM1415 627q0 -62 50 -102t128 -40q79 0 129 40t50 102q0 60 -49.5 96.5t-129.5 36.5t-129 -36.5t-49 -96.5zM1798 236q0 73 -54.5 116t-150.5 43t-150 -43t-54 -116q0 -69 54.5 -110.5t149.5 -41.5t150 41.5t55 110.5z" />
    <glyph glyph-name="seveneighths" unicode="&#x215e;" horiz-adv-x="1841" 
d="M55 1393h643v-97q-156 -171 -247 -365t-103 -374h-127q15 169 111 375q94 200 239 358h-516v103zM1280 1421l90 -55l-981 -1395l-88 58zM1757 227q0 -108 -88 -176.5t-237 -68.5q-150 0 -238 68.5t-88 176.5q0 75 44 131.5t124 85.5q-62 30 -97.5 80t-35.5 111
q0 98 80.5 160.5t210.5 62.5t211 -63t81 -160q0 -61 -36 -111.5t-99 -79.5q80 -29 124 -85.5t44 -131.5zM1253 627q0 -62 50.5 -102t128.5 -40q79 0 128.5 40t49.5 102q0 60 -49 96.5t-129 36.5t-129.5 -36.5t-49.5 -96.5zM1636 236q0 73 -54 116t-150 43t-150.5 -43
t-54.5 -116q0 -69 55 -110.5t150 -41.5t149.5 41.5t54.5 110.5z" />
    <glyph glyph-name="arrowleft" unicode="&#x2190;" horiz-adv-x="1884" 
d="M1782 754v-113h-1497l563 -557l-88 -86l-699 698l699 697l88 -88l-561 -551h1495z" />
    <glyph glyph-name="arrowup" unicode="&#x2191;" horiz-adv-x="1476" 
d="M1395 911l-82 -86l-506 512v-1337h-131v1341l-508 -516l-86 86l657 658z" />
    <glyph glyph-name="arrowright" unicode="&#x2192;" horiz-adv-x="1884" 
d="M1124 1393l699 -697l-699 -698l-86 86l564 557h-1500v113h1495l-559 551z" />
    <glyph glyph-name="arrowdown" unicode="&#x2193;" horiz-adv-x="1476" 
d="M1313 629l82 -86l-656 -658l-657 658l86 86l508 -516v1341h131v-1337z" />
    <glyph glyph-name="uni2196" unicode="&#x2196;" horiz-adv-x="1476" 
d="M1415 266l-84 -84l-1067 1065v-784h-121v991h992v-117h-789z" />
    <glyph glyph-name="uni2197" unicode="&#x2197;" horiz-adv-x="1476" 
d="M342 1454h991v-991h-119v786l-1067 -1067l-86 84l1072 1071h-791v117z" />
    <glyph glyph-name="uni2198" unicode="&#x2198;" horiz-adv-x="1476" 
d="M1214 991h119v-991h-991v117h791l-1072 1071l86 84l1067 -1067v786z" />
    <glyph glyph-name="uni2199" unicode="&#x2199;" horiz-adv-x="1476" 
d="M1415 1188l-1069 -1071h789v-117h-992v991h121v-784l1067 1065z" />
    <glyph glyph-name="partialdiff" unicode="&#x2202;" horiz-adv-x="1126" 
d="M1044 600q0 -290 -129 -463q-126 -170 -356 -170q-138 0 -248.5 71t-169.5 186.5t-59 248.5q0 99 32.5 190.5t89.5 160.5t141.5 110t182.5 41q132 0 233.5 -62.5t156.5 -171.5q-31 267 -185.5 420t-449.5 197l30 110q356 -44 543.5 -265.5t187.5 -602.5zM895 471
q0 162 -100.5 273.5t-251.5 111.5q-147 0 -236 -111q-86 -109 -86 -274t93 -275t245 -110q148 0 242 110.5t94 274.5z" />
    <glyph glyph-name="uni2206" unicode="&#x2206;" horiz-adv-x="1333" 
d="M762 1454l530 -1454h-1251l530 1454h191zM233 121h867l-221 610l-54 146q-120 337 -159 466q-36 -115 -213 -612z" />
    <glyph glyph-name="product" unicode="&#x220f;" horiz-adv-x="1462" 
d="M1286 1454v-1679h-145v1558h-819v-1558h-146v1679h1110z" />
    <glyph glyph-name="summation" unicode="&#x2211;" horiz-adv-x="1214" 
d="M1098 1454v-121h-819l520 -715l-527 -724h881v-121h-1051v110l529 735l-522 725v111h989z" />
    <glyph glyph-name="minus" unicode="&#x2212;" 
d="M1147 692v-114h-1065v114h1065z" />
    <glyph glyph-name="radical" unicode="&#x221a;" 
d="M1020 1454h147l-530 -1454h-195l-381 989h150l330 -878z" />
    <glyph glyph-name="infinity" unicode="&#x221e;" horiz-adv-x="1634" 
d="M1532 594q0 -137 -89 -231.5t-222 -94.5q-106 0 -194.5 53t-192.5 171l-17 18q-124 -135 -211 -191q-80 -51 -198 -51q-129 0 -217.5 94.5t-88.5 231.5q0 140 93.5 234t238.5 94q103 0 185.5 -52.5t185.5 -175.5l8 -10q111 126 203.5 182t185.5 56q147 0 238.5 -94
t91.5 -234zM743 592l-12 14l-41 45q-77 90 -127 125q-52 37 -131 37q-99 0 -156 -60.5t-57 -160.5q0 -97 54.5 -158t140.5 -61t157 47q70 49 172 172zM1417 592q0 100 -57 160.5t-158 60.5q-159 0 -315 -217l18 -25q84 -101 154.5 -149.5t152.5 -48.5q94 0 149.5 59.5
t55.5 159.5z" />
    <glyph glyph-name="integral" unicode="&#x222b;" 
d="M365 -397q-93 0 -187 30l31 105q94 -23 149 -23q76 0 108 45t32 144v1284q0 140 74 218.5t210 78.5q95 0 195 -35l-31 -107q-86 27 -147 27q-90 0 -128 -47t-38 -158v-1265q0 -297 -268 -297z" />
    <glyph glyph-name="approxequal" unicode="&#x2248;" horiz-adv-x="1226" 
d="M635 877q73 -32 109 -43t75 -11q53 0 94 21q39 20 113 88l72 -72q-83 -89 -140 -117q-53 -26 -139 -26q-44 0 -85 12t-122 45q-72 31 -116 44t-86 13q-60 0 -103.5 -22t-105.5 -84l-72 72q73 80 137.5 111.5t145.5 31.5q50 0 95 -14t128 -49zM635 467q72 -31 108.5 -42
t75.5 -11q55 0 94 20t113 88l72 -71q-83 -89 -140 -117q-56 -27 -139 -27q-44 0 -84 12t-123 46q-72 31 -116 44t-86 13q-60 0 -103.5 -22.5t-105.5 -84.5l-72 72q73 80 137.5 111.5t145.5 31.5q50 0 95 -14t128 -49z" />
    <glyph glyph-name="notequal" unicode="&#x2260;" 
d="M1147 782h-424l-109 -295h533v-114h-574l-96 -260h-125l97 260h-367v114h407l109 295h-516v115h559l90 248h125l-90 -248h381v-115z" />
    <glyph glyph-name="lessequal" unicode="&#x2264;" 
d="M1106 1075v-131l-834 -307l834 -307v-131l-983 368v140zM1147 115v-115h-1065v115h1065z" />
    <glyph glyph-name="greaterequal" unicode="&#x2265;" 
d="M123 1075l983 -368v-140l-983 -368v131l833 307l-833 307v131zM1147 115v-115h-1065v115h1065z" />
    <glyph glyph-name="lozenge" unicode="&#x25ca;" horiz-adv-x="1241" 
d="M713 1454l446 -729l-446 -725h-185l-446 725l446 729h185zM621 1362l-390 -637l390 -633l387 633z" />
    <glyph glyph-name="uni2923" unicode="&#x2923;" horiz-adv-x="1273" 
d="M598 1307q163 -170 233 -256q197 -232 197 -484q0 -136 -57 -256q-57 -121 -144 -227q-76 -94 -233 -260l-47 -49l-94 90l36 39q159 165 222 241q182 219 182 422q0 129 -57 240q-61 118 -140 209q-69 82 -239 260l-97 98v-526h-114v719h719v-111h-512l92 -96z" />
    <glyph glyph-name="uni2924" unicode="&#x2924;" horiz-adv-x="1273" 
d="M311 1567h717v-719h-113v526l-96 -98q-163 -171 -241 -260q-195 -230 -195 -449q0 -116 51 -221q48 -98 131 -201q70 -84 221 -241l37 -39l-96 -90l-47 49q-164 174 -234 260q-200 242 -200 483q0 141 55 260q57 121 141 224q64 80 234 256l53 53l92 96h-510v111z" />
    <glyph glyph-name="uni2925" unicode="&#x2925;" horiz-adv-x="1273" 
d="M915 571h113v-718h-717v110h510l-92 96l-53 54q-170 176 -234 256q-196 231 -196 483q0 136 57 256q59 124 143 227q70 86 234 260l47 50l96 -91l-37 -38q-150 -156 -221 -244q-182 -215 -182 -420q0 -129 57 -240q59 -115 138 -209q78 -89 241 -260l96 -98v526z" />
    <glyph glyph-name="uni2926" unicode="&#x2926;" horiz-adv-x="1273" 
d="M545 59l-92 -96h512v-110h-719v718h114v-526l97 98q170 178 239 260q197 226 197 449q0 112 -53 221q-52 107 -129 199q-66 81 -222 244l-36 38l94 91l47 -50q157 -166 233 -260q201 -243 201 -483q0 -142 -57 -262q-52 -112 -140 -221q-70 -86 -233 -256
q-18 -19 -53 -54z" />
    <glyph glyph-name="uniE000" unicode="&#xe000;" horiz-adv-x="3670" 
d="M645 0h-543v471h27q78 -206 215.5 -325t296.5 -119q124 0 195 77q71 80 71 189q0 111 -78 192q-46 46 -100 71.5t-176 64.5q-121 35 -190 68t-127 91q-119 119 -119 295q0 160 100 269.5t258 109.5h498v-403h-21q-34 58 -48 81t-43.5 62.5t-63.5 73.5q-156 159 -324 159
q-91 0 -162 -51q-71 -53 -71 -172q0 -48 18.5 -98t50.5 -82q46 -46 107.5 -73.5t181.5 -63.5q138 -40 216.5 -77.5t143.5 -102.5q49 -47 76 -119.5t27 -157.5q0 -200 -113 -315t-303 -115zM1030 1454h768q143 2 268.5 -57t212 -161t135.5 -241t48 -293q1 -106 -24 -206
t-79 -191.5t-132.5 -159.5t-193.5 -107.5t-253 -37.5h-748v27h41q116 0 169.5 48.5t53.5 153.5v996q0 104 -54 153t-169 49h-43v27zM2353 27h33q117 0 171 49t54 153v996q0 106 -54 154t-171 48h-35v27h787v-27h-56q-116 0 -168.5 -48t-52.5 -154v-996q0 -113 34 -157.5
t120 -44.5h135q57 3 93 18t81.5 67t93.5 139.5t125 248.5h25v-500h-1215v27zM3387 1454v-27h-41v-110h-30v110h-41v27h112zM3568 1454v-137h-31v100l-39 -100h-23l-36 100v-100h-31v137h47l33 -92l35 92h45zM2195 674q0 195 -35 343t-96 236t-138 131t-167 43h-133
q-47 0 -63.5 -20t-16.5 -74v-1134q0 -84 56.5 -128t162.5 -44q226 0 328 182q102 184 102 465z" />
    <glyph glyph-name="uniE001" unicode="&#xe001;" horiz-adv-x="2070" 
d="M1034 -168q-207 0 -393 88q-248 116 -393.5 348t-145.5 498q0 205 88 391q116 249 347 394t499 145q208 0 394 -88q247 -116 392.5 -348t145.5 -498q0 -205 -88 -391q-116 -248 -347 -393.5t-499 -145.5zM1937 762q0 256 -139 483q-137 224 -381 338q-185 84 -381 84
q-258 0 -485 -139q-221 -135 -336 -381q-84 -185 -84 -381q0 -258 139 -485q135 -219 383 -336q185 -84 381 -84q169 0 328.5 61.5t289 180.5t201.5 278q84 185 84 381zM1079 1475l17 131l92 -13l-4 -30l-47 4l-2 -19l45 -6l-4 -33l-46 7l-6 -48zM881 1481l-2 22l45 6l2 -8
q0 -4 12 -4l10 6l-2 10q0 5 -12 5h-4q-43 0 -56 16l-6 37q5 13 23 23t47 10q30 0 43 -19l4 -22l-47 -7v9q-4 4 -12 4q-11 -4 -11 -6v-9q4 -4 15 -4h4q47 -3 55 -16l4 -37q-9 -33 -67 -33q-28 0 -45 17zM1272 1434l-8 47l-11 4l-12 -41l-45 14l41 127l72 -24q26 -9 32 -33
l-14 -43q-8 -6 -20 -10l8 -29l-8 -25zM823 1442l-35 33l-8 -2l13 -41l-43 -15l-43 125l71 25q4 2 17 2q18 0 28 -10l15 -41q-3 -15 -11 -23l25 -16l8 -25zM1264 1513l14 -6q10 0 12 2l6 17q-3 6 -10 8l-14 6zM770 1501l16 6q3 0 9 6l-7 19q-6 2 -12 0l-14 -6zM643 1358
l-65 117l84 47l16 -29l-43 -25l8 -14l41 23l14 -29l-39 -23l9 -16l45 25l14 -29zM1341 1434l41 71q8 8 25 8q19 0 39 -10q39 -20 39 -53l-41 -72q-8 -8 -25 -8q-18 0 -41 10q-37 21 -37 54zM1409 1409l31 53q0 8 -10 11q-11 4 -13 2l-31 -56q0 -5 9 -8q10 -6 14 -2z
M565 1296l-65 76l-23 -18l-20 24l82 68l20 -25l-22 -18l63 -78zM1454 1343l88 99l43 -39l-16 -45l4 -4l41 22l43 -39l-88 -98l-33 29l45 51l-2 2l-47 -21l-14 15l16 47l-4 4l-45 -51zM1034 111q-143 0 -274 61q-175 82 -277 246q-100 160 -100 348q0 143 61 274
q83 177 244 277q160 100 348 100q144 0 275 -61q173 -82 276 -246q101 -157 101 -348q0 -139 -62 -275q-82 -175 -244 -276q-160 -100 -348 -100zM1661 764q0 181 -98 332q-95 153 -265 233q-132 60 -262 60q-176 0 -336 -97q-155 -96 -231 -264q-59 -130 -59 -262
q0 -176 96 -334q100 -158 266 -233q132 -60 262 -60q177 0 334 97q158 96 234 264q59 133 59 264zM475 1200l-78 66l-18 -25l-25 23l68 82l24 -21l-18 -25l76 -63zM1636 1186l19 10l24 -39l-8 -4q-1 -1 2 -12q3 -8 8 -8l9 4q4 3 0 14l-2 4q-11 26 -11 39q0 6 4 18l31 19
q30 0 51 -37q13 -16 13 -39q0 -11 -7 -22l-18 -11l-25 39l9 4q2 2 -2 13q-3 8 -9 8l-8 -4q0 -11 2 -15l2 -4q11 -37 11 -41q0 -1 -5 -16l-32 -19q-31 0 -52 37q-12 24 -12 39q0 11 6 23zM395 1075l-114 66l47 84l28 -17l-24 -43l14 -8l23 39l28 -14l-22 -41l16 -11l25 46
l26 -17zM1055 1100q0 -14 -11 -43q-24 -47 -59 -47q-33 0 -33 43q0 14 11 43q21 47 57 47q35 0 35 -43zM1694 1038l96 52l25 6l12 -43l-68 -29v-4l76 6l10 -33l-65 -37v-2l73 11l13 -37l-25 -8l-108 -13l-15 54l43 24l-2 2l-49 -2zM356 973l-125 47l17 43l94 -35l12 35
l31 -10zM1346 965q0 -14 -11 -43q-22 -48 -57 -48t-35 44q0 16 10 43q21 47 58 47q35 0 35 -43zM289 883q0 -11 -2 -13q-1 -6 -8 -10t-13 -4l-10 2q-14 8 -14 23l2 10q6 12 20 12q10 0 12 -2q13 -3 13 -18zM1739 862l133 10l6 -94l-31 -4l-4 51l-16 -2l2 -47l-33 -2l-2 47
l-18 -2l2 -49l-31 -4zM1284 541l-31 14q-38 -65 -105.5 -103t-141.5 -38q-68 0 -121 26q-77 36 -121.5 106.5t-44.5 153.5q0 44 16 97l-30 14q-21 -53 -21 -111q0 -93 50.5 -172.5t135.5 -117.5q67 -31 136 -31q86 0 160.5 43.5t117.5 118.5zM330 668l-133 -9l-4 41l45 15
l-2 2l-43 8l-5 41l136 8l2 -31l-72 -4v-4l49 -8l2 -16l-49 -15v-2l72 4zM1747 741l131 -14l-6 -68q-6 -36 -31 -45l-82 9q-20 14 -20 45v6zM1774 692l-2 -14q0 -6 4 -10l59 -6q4 0 4 10l2 14zM348 586l-131 -29l-8 33l106 24l-6 25l25 6zM1729 602l124 -41l-26 -90l-31 8
l14 49l-16 4l-14 -45l-31 11l14 45l-18 4l-14 -47l-31 8zM365 477l-93 -33q-8 0 -18.5 8t-15.5 23q-2 4 -2 19q0 25 10 28l90 33q8 0 19 -8t16 -23l4 -18q0 -19 -10 -29zM336 520l-68 -24q-5 -5 -2 -11q4 -4 6 -4l70 25l2 8q-3 6 -8 6zM1692 485l116 -61l-22 -43h-66l-2 -4
l51 -27l-20 -37l-117 62l23 43h65l2 4l-51 27zM432 389l-119 -65l-16 30l45 25l-8 12l-43 -24l-17 30l117 64l17 -29l-48 -26l7 -15l49 27zM492 305l-107 -80l-20 27l26 20v2l-39 -8l-14 23l16 12l41 4l31 49l18 15l17 -23l-25 -37l6 2l29 21zM553 217l-68 -70
q-22 -8 -45 15q-16 16 -16 41l29 28l22 -22l-16 -19q-2 -2 -0.5 -6t6.5 -4h4l51 51q0 7 -2 9q-5 4 -8 2l-21 -19l-22 23l31 30q21 6 41 -14q16 -19 16 -37zM1640 250q0 -6 -2 -8q-6 -15 -22 -15q-8 0 -10 2q-13 7 -13 23q0 6 2 8q8 14 21 14q8 0 10 -2q14 -6 14 -22z
M1495 221l80 -108l-35 -25l-35 29l-2 -2l17 -41l-33 -25l-80 109l27 18l43 -57l2 2l-19 47l13 8l36 -33l2 2l-41 58zM639 150l-55 -78q-23 -9 -47 8q-21 12 -21 35v6l57 78q3 5 18 4.5t27 -10.5q21 -15 21 -35v-8zM594 170l-43 -59q-2 -2 2 -9q7 -3 10 0l43 60q0 4 -4 8
t-8 0zM1337 123l19 -29l16 8l-10 31l27 14l8 -20l35 -109l-48 -22l-65 92l-10 21zM717 129l-51 -94l18 -10l-12 -23l-66 33l12 24l19 -10l51 96zM823 70l-8 -27l-31 10l4 13q0 6 -6 6q-4 4 -8 0l-4 -15q0 -5 6 -8l2 -2q25 -22 25 -37l-15 -39q-12 -6 -26 -6q-13 0 -17 2
q-24 9 -30 33l8 25l31 -11l-4 -12q0 -6 8 -6q4 0 6 2l4 10q0 4 -6 10h-2q-25 19 -25 37l15 41q13 8 24 8q3 0 19 -4q30 -10 30 -30zM1288 100l39 -129l-47 -14q-20 -9 -37 8l-29 92q0 18 25 27zM1395 39l-15 39l-12 -6l23 -35zM1184 70l22 -133l-61 -11l-4 27l28 4l-6 27
l-26 -4l-4 24l26 6l-4 29l-29 -6l-4 26zM989 55l-18 -133l-35 4l-10 66h-2l-9 -64l-32 4l16 134l37 -5l10 -65l2 -2l8 65zM1264 63l-9 -2q-6 0 -6 -6l23 -69q5 -5 8 -2l8 2zM1049 53v-133h-35v135z" />
    <glyph glyph-name="uniE002" unicode="&#xe002;" horiz-adv-x="1208" 
d="M780 4v-209h-104v205h-176v-205h-105v205h-239v1393h239v204h105v-204h176v204h104v-213q140 -24 218.5 -111.5t78.5 -230.5q0 -109 -57 -189.5t-152 -113.5q120 -36 188 -126t68 -222q0 -160 -92 -263.5t-252 -123.5zM295 1276v-488h362q135 0 211 66.5t76 185.5
q0 115 -75 175.5t-212 60.5h-362zM987 393q0 129 -84.5 205t-232.5 76h-375v-557h373q153 0 236 73t83 203z" />
    <glyph glyph-name="Adieresis.ss02" horiz-adv-x="1331" 
d="M1143 0l-148 408h-661l-146 -408h-147l530 1454h189l530 -1454h-147zM379 530h571l-71 201l-17 43l-94 260q-49 138 -104 309q-54 -171 -175 -505l-38 -107zM401 1733q0 38 28.5 66t66.5 28t67 -28t29 -66t-29 -66.5t-67 -28.5t-66.5 28.5t-28.5 66.5zM743 1733
q0 38 28.5 66t66.5 28t66 -28t28 -66t-28 -66.5t-66 -28.5t-66.5 28.5t-28.5 66.5z" />
    <glyph glyph-name="Cdotaccent.ss02" horiz-adv-x="1359" 
d="M1284 1284l-84 -100q-118 97 -216 136.5t-204 39.5q-247 0 -394.5 -176t-147.5 -457q0 -277 146.5 -455t379.5 -178q127 0 229 52.5t228 175.5l90 -97q-144 -141 -264 -198q-122 -58 -281 -58q-202 0 -356 97.5t-236 269.5t-82 391q0 221 81.5 392t238.5 268.5t368 97.5
q138 0 257 -46.5t247 -154.5zM688 1731q0 41 27.5 68.5t70.5 27.5q41 0 69 -27.5t28 -68.5t-28 -69t-69 -28q-42 0 -70 28t-28 69z" />
    <glyph glyph-name="Edieresis.ss02" 
d="M1118 1454v-121h-796v-526h739v-119h-739v-567h813v-121h-959v1454h942zM385 1733q0 38 28 66t66 28t67 -28t29 -66t-29 -66.5t-67 -28.5t-66 28.5t-28 66.5zM727 1733q0 38 28 66t66 28t66 -28t28 -66t-28 -66.5t-66 -28.5t-66 28.5t-28 66.5z" />
    <glyph glyph-name="Edotaccent.ss02" 
d="M1118 1454v-121h-796v-526h739v-119h-739v-567h813v-121h-959v1454h942zM551 1731q0 41 27.5 68.5t70.5 27.5q41 0 68.5 -27.5t27.5 -68.5t-27.5 -69t-68.5 -28q-43 0 -70.5 28t-27.5 69z" />
    <glyph glyph-name="uni0122.ss02" horiz-adv-x="1505" 
d="M739 621v120h625v-741h-115l-14 213q-66 -120 -189 -181t-282 -61q-208 0 -361 95.5t-232 265.5t-79 395q0 218 82.5 389t240 269t367.5 98q171 0 309.5 -67t274.5 -210l-92 -94q-120 126 -238 188q-110 58 -258 58q-159 0 -282 -80t-190.5 -224t-67.5 -329
q0 -283 143.5 -456t386.5 -173q203 0 332 121.5t129 327.5v76h-490zM879 -291q0 -85 -60.5 -152t-148.5 -67v61q44 5 78.5 36t44.5 83q-15 -6 -35 -6q-41 0 -67.5 25t-26.5 63q0 40 28.5 66t67.5 26q53 0 86 -35.5t33 -99.5z" />
    <glyph glyph-name="Gdotaccent.ss02" horiz-adv-x="1505" 
d="M739 621v120h625v-741h-115l-14 213q-66 -120 -189 -181t-282 -61q-208 0 -361 95.5t-232 265.5t-79 395q0 218 82.5 389t240 269t367.5 98q171 0 309.5 -67t274.5 -210l-92 -94q-120 126 -238 188q-110 58 -258 58q-159 0 -282 -80t-190.5 -224t-67.5 -329
q0 -283 143.5 -456t386.5 -173q203 0 332 121.5t129 327.5v76h-490zM690 1731q0 41 27.5 68.5t70.5 27.5q41 0 69 -27.5t28 -68.5t-28 -69t-69 -28q-42 0 -70 28t-28 69z" />
    <glyph glyph-name="Idieresis.ss02" horiz-adv-x="526" 
d="M336 1454v-1454h-146v1454h146zM0 1733q0 38 28 66t66 28t67 -28t29 -66t-29 -66.5t-67 -28.5t-66 28.5t-28 66.5zM342 1733q0 38 28 66t66 28t66 -28t28 -66t-28 -66.5t-66 -28.5t-66 28.5t-28 66.5z" />
    <glyph glyph-name="Idotaccent.ss02" horiz-adv-x="526" 
d="M336 1454v-1454h-146v1454h146zM166 1731q0 41 27.5 68.5t70.5 27.5q41 0 68.5 -27.5t27.5 -68.5t-27.5 -69t-68.5 -28q-42 0 -70 28t-28 69z" />
    <glyph glyph-name="K.ss01" horiz-adv-x="1312" 
d="M1122 0l-524 772l-276 -268v-504h-146v1454h146v-776l819 803l94 -88l-539 -525l592 -868h-166z" />
    <glyph glyph-name="uni0136.ss01" horiz-adv-x="1312" 
d="M1122 0l-524 772l-276 -268v-504h-146v1454h146v-776l819 803l94 -88l-539 -525l592 -868h-166zM805 -162v-157l-105 -193h-79l92 193h-82v157h174z" />
    <glyph glyph-name="uni0136.ss01.ss02" horiz-adv-x="1312" 
d="M1122 0l-524 772l-276 -268v-504h-146v1454h146v-776l819 803l94 -88l-539 -525l592 -868h-166zM829 -291q0 -85 -60 -152t-148 -67v61q44 5 78 36t44 83q-15 -6 -34 -6q-41 0 -68 25t-27 63q0 40 29 66t68 26q53 0 85.5 -35.5t32.5 -99.5z" />
    <glyph glyph-name="uni0136.ss02" horiz-adv-x="1312" 
d="M1122 0l-526 776l-274 -280v-496h-146v1454h146v-782l757 782h178l-563 -577l594 -877h-166zM807 -291q0 -85 -60.5 -152t-148.5 -67v61q44 5 78.5 36t44.5 83q-15 -6 -35 -6q-41 0 -67.5 25t-26.5 63q0 40 28.5 66t67.5 26q53 0 86 -35.5t33 -99.5z" />
    <glyph glyph-name="uni013B.ss02" horiz-adv-x="1091" 
d="M322 1454v-1333h716v-121h-862v1454h146zM733 -291q0 -85 -60.5 -152t-148.5 -67v61q44 5 78.5 36t44.5 83q-15 -6 -35 -6q-41 0 -67.5 25t-26.5 63q0 40 28.5 66t67.5 26q53 0 86 -35.5t33 -99.5z" />
    <glyph glyph-name="Ldot.ss02" horiz-adv-x="1071" 
d="M322 1454v-1333h716v-121h-862v1454h146zM649 748q0 43 31 73.5t74 30.5t73.5 -30.5t30.5 -73.5t-30.5 -74t-73.5 -31t-74 31t-31 74z" />
    <glyph glyph-name="uni0145.ss02" horiz-adv-x="1486" 
d="M1169 1454h142v-1454h-166l-459 694l-24 39q-245 367 -353 543q8 -213 8 -553v-723h-141v1454h166l457 -692l78 -121q217 -332 301 -467q-9 243 -9 555v725zM856 -291q0 -85 -60.5 -152t-148.5 -67v61q44 5 78.5 36t44.5 83q-15 -6 -35 -6q-41 0 -67.5 25t-26.5 63
q0 40 28.5 66t67.5 26q53 0 86 -35.5t33 -99.5z" />
    <glyph glyph-name="Odieresis.ss02" horiz-adv-x="1540" 
d="M1448 727q0 -220 -81.5 -391t-236.5 -269t-360 -98t-360 98t-236.5 269t-81.5 391t81.5 391t236.5 269t360 98t360 -98t236.5 -269t81.5 -391zM238 727q0 -277 148 -455t384 -178t384.5 178t148.5 455t-148.5 455t-384.5 178t-384 -178t-148 -455zM508 1733q0 38 28 66
t66 28t67 -28t29 -66t-29 -66.5t-67 -28.5t-66 28.5t-28 66.5zM850 1733q0 38 28 66t66 28t66 -28t28 -66t-28 -66.5t-66 -28.5t-66 28.5t-28 66.5z" />
    <glyph glyph-name="uni0156.ss02" horiz-adv-x="1343" 
d="M1268 0h-166l-408 604h-372v-604h-146v1454h576q212 0 339.5 -113t127.5 -311q0 -174 -98.5 -283.5t-268.5 -134.5zM322 1333v-608h407q163 0 254.5 78.5t91.5 226.5q0 146 -92.5 224.5t-255.5 78.5h-405zM793 -291q0 -85 -60.5 -152t-148.5 -67v61q44 5 78.5 36t44.5 83
q-15 -6 -35 -6q-41 0 -67.5 25t-26.5 63q0 40 28.5 66t67.5 26q53 0 86 -35.5t33 -99.5z" />
    <glyph glyph-name="uni0218.ss02" horiz-adv-x="1271" 
d="M1155 1278l-84 -100q-114 98 -218.5 140t-229.5 42q-159 0 -261 -74t-102 -188q0 -83 45 -131q45 -47 123 -75.5t250 -68.5q276 -65 387 -156.5t111 -258.5q0 -196 -146 -317.5t-373 -121.5q-169 0 -306 56t-292 186l84 102q150 -124 273 -174q113 -45 241 -45
q167 0 271 84t104 225q0 93 -49 148q-47 52 -126 82.5t-249 68.5q-115 26 -192.5 51.5t-136 56.5t-91 71.5t-49 91.5t-18.5 121q0 116 69.5 206.5t182.5 137.5t248 47q155 0 280.5 -49t253.5 -158zM743 -291q0 -85 -60 -152t-148 -67v61q44 5 78 36t44 83q-15 -6 -34 -6
q-41 0 -68 25t-27 63q0 40 29 66t68 26q53 0 85.5 -35.5t32.5 -99.5z" />
    <glyph glyph-name="uni021A.ss02" horiz-adv-x="1216" 
d="M1151 1454v-121h-469v-1333h-145v1333h-469v121h1083zM721 -291q0 -85 -60.5 -152t-148.5 -67v61q44 5 78.5 36t44.5 83q-15 -6 -35 -6q-41 0 -67.5 25t-26.5 63q0 40 28.5 66t67.5 26q53 0 86 -35.5t33 -99.5z" />
    <glyph glyph-name="Udieresis.ss02" horiz-adv-x="1392" 
d="M1229 1454v-1003q0 -231 -133.5 -355.5t-399.5 -124.5q-264 0 -397 124.5t-133 355.5v1003h145v-993q0 -179 99 -272t286 -93q191 0 289 92.5t98 272.5v993h146zM434 1733q0 38 28 66t66 28q39 0 68 -28t29 -66t-29.5 -66.5t-67.5 -28.5t-66 28.5t-28 66.5zM776 1733
q0 38 28 66t66 28t66.5 -28t28.5 -66t-28.5 -66.5t-66.5 -28.5t-66 28.5t-28 66.5z" />
    <glyph glyph-name="Wdieresis.ss02" horiz-adv-x="1892" 
d="M1679 1454h144l-350 -1454h-187l-196 717q-96 370 -142 557q-52 -234 -139 -559l-197 -715h-192l-350 1454h147l174 -733q57 -241 131 -590q66 283 152 590l203 733h151l199 -733q69 -252 149 -586q52 267 129 586zM684 1733q0 38 28 66t66 28t67 -28t29 -66t-29 -66.5
t-67 -28.5t-66 28.5t-28 66.5zM1026 1733q0 38 28 66t66 28t66 -28t28 -66t-28 -66.5t-66 -28.5t-66 28.5t-28 66.5z" />
    <glyph glyph-name="Ydieresis.ss02" horiz-adv-x="1247" 
d="M1051 1454h159l-516 -829v-625h-145v627l-512 827h162l426 -700zM360 1733q0 38 28.5 66t66.5 28t67 -28t29 -66t-29 -66.5t-67 -28.5t-66.5 28.5t-28.5 66.5zM702 1733q0 38 28.5 66t66.5 28t66 -28t28 -66t-28 -66.5t-66 -28.5t-66.5 28.5t-28.5 66.5z" />
    <glyph glyph-name="Zdotaccent.ss02" horiz-adv-x="1259" 
d="M1176 1454v-113l-922 -1220h917v-121h-1089v113l922 1220h-879v121h1051zM561 1731q0 41 27.5 68.5t70.5 27.5q41 0 69 -27.5t28 -68.5t-28 -69t-69 -28q-43 0 -70.5 28t-27.5 69z" />
    <glyph glyph-name="adieresis.ss02" horiz-adv-x="1064" 
d="M922 696v-696h-125v131q-50 -79 -140 -120.5t-204 -41.5q-163 0 -259 70t-96 203q2 67 25.5 117.5t60 85t100.5 61.5t128.5 44t162.5 36l216 39v61q0 103 -68.5 161t-185.5 58q-94 0 -169 -38.5t-165 -133.5l-86 78q92 106 192 155.5t221 49.5q182 0 287 -88t105 -232z
M791 354v166l-187 -37q-128 -26 -207 -51q-166 -56 -166 -188q0 -75 61 -118.5t167 -43.5q146 0 237 76q95 77 95 196zM283 1309q0 38 28 66t66 28t67 -28t29 -66t-29 -66.5t-67 -28.5t-66 28.5t-28 66.5zM625 1309q0 38 28 66t66 28t66 -28t28 -66t-28 -66.5t-66 -28.5
t-66 28.5t-28 66.5z" />
    <glyph glyph-name="cdotaccent.ss02" horiz-adv-x="997" 
d="M543 905q-101 0 -176 -59t-110.5 -151t-35.5 -201t35.5 -199t112 -148.5t180.5 -58.5q86 0 151 36t156 134l90 -76q-91 -114 -181.5 -161.5t-213.5 -47.5q-214 0 -341.5 142.5t-127.5 378.5q0 233 127.5 377.5t337.5 144.5q125 0 214 -43t175 -146l-92 -79
q-79 87 -147 122t-154 35zM449 1307q0 41 27.5 68.5t70.5 27.5q41 0 68.5 -27.5t27.5 -68.5t-27.5 -69t-68.5 -28q-43 0 -70.5 28t-27.5 69z" />
    <glyph glyph-name="edieresis.ss02" horiz-adv-x="1069" 
d="M899 266l86 -82q-104 -115 -203.5 -163t-224.5 -48q-218 0 -346.5 141t-128.5 373q0 234 127.5 381.5t333.5 147.5q203 0 320.5 -126.5t117.5 -342.5q0 -28 -4 -64h-758q6 -166 90 -282q83 -115 248 -115q102 0 170 39q76 42 172 141zM223 586h623q-5 148 -85 233.5
t-218 85.5q-135 0 -218 -81.5t-102 -237.5zM299 1309q0 38 28 66t66 28t67 -28t29 -66t-29 -66.5t-67 -28.5t-66 28.5t-28 66.5zM641 1309q0 38 28 66t66 28t66 -28t28 -66t-28 -66.5t-66 -28.5t-66 28.5t-28 66.5z" />
    <glyph glyph-name="edotaccent.ss02" horiz-adv-x="1069" 
d="M899 266l86 -82q-104 -115 -203.5 -163t-224.5 -48q-218 0 -346.5 141t-128.5 373q0 234 127.5 381.5t333.5 147.5q203 0 320.5 -126.5t117.5 -342.5q0 -28 -4 -64h-758q6 -166 90 -282q83 -115 248 -115q102 0 170 39q76 42 172 141zM223 586h623q-5 148 -85 233.5
t-218 85.5q-135 0 -218 -81.5t-102 -237.5zM465 1307q0 41 27.5 68.5t70.5 27.5q41 0 68.5 -27.5t27.5 -68.5t-27.5 -69t-68.5 -28q-43 0 -70.5 28t-27.5 69z" />
    <glyph glyph-name="uni0123.ss02" horiz-adv-x="1134" 
d="M860 989h127v-979q0 -186 -115 -293.5t-317 -107.5q-231 0 -438 145l69 101q111 -70 192.5 -100.5t176.5 -30.5q139 0 219 74.5t80 221.5v164q-108 -178 -332 -178q-191 0 -311.5 141.5t-120.5 362.5q0 220 120.5 363t311.5 143q232 0 338 -191v164zM856 510
q0 173 -88 283t-231 110q-144 0 -226 -107t-82 -286q0 -176 82 -282.5t226 -106.5q143 0 231 108q88 107 88 281zM672 1307q0 -41 -28.5 -67t-70.5 -26q-52 0 -84 35.5t-32 100.5q0 85 60 152t149 67v-62q-44 -5 -79.5 -36t-45.5 -82q18 6 37 6q42 0 68 -25t26 -63z" />
    <glyph glyph-name="gdotaccent.ss02" horiz-adv-x="1134" 
d="M860 989h127v-979q0 -186 -115 -293.5t-317 -107.5q-231 0 -438 145l69 101q111 -70 192.5 -100.5t176.5 -30.5q139 0 219 74.5t80 221.5v164q-108 -178 -332 -178q-191 0 -311.5 141.5t-120.5 362.5q0 220 120.5 363t311.5 143q232 0 338 -191v164zM856 510
q0 173 -88 283t-231 110q-144 0 -226 -107t-82 -286q0 -176 82 -282.5t226 -106.5q143 0 231 108q88 107 88 281zM473 1307q0 41 27.5 68.5t70.5 27.5q41 0 69 -27.5t28 -68.5t-28 -69t-69 -28q-43 0 -70.5 28t-27.5 69z" />
    <glyph glyph-name="i.ss02" horiz-adv-x="430" 
d="M283 989v-989h-136v989h136zM119 1307q0 41 27.5 68.5t70.5 27.5q41 0 68.5 -27.5t27.5 -68.5t-27.5 -69t-68.5 -28q-43 0 -70.5 28t-27.5 69z" />
    <glyph glyph-name="idieresis.ss02" horiz-adv-x="430" 
d="M283 989v-989h-136v989h136zM-47 1309q0 38 28 66t66 28t67 -28t29 -66t-29 -66.5t-67 -28.5t-66 28.5t-28 66.5zM295 1309q0 38 28 66t66 28t66 -28t28 -66t-28 -66.5t-66 -28.5t-66 28.5t-28 66.5z" />
    <glyph glyph-name="i.loclTRK" horiz-adv-x="430" 
d="M283 989v-989h-136v989h136zM283 1401v-193h-136v193h136z" />
    <glyph glyph-name="i.loclTRK.ss02" horiz-adv-x="430" 
d="M283 989v-989h-136v989h136zM119 1307q0 41 27.5 68.5t70.5 27.5q41 0 68.5 -27.5t27.5 -68.5t-27.5 -69t-68.5 -28q-43 0 -70.5 28t-27.5 69z" />
    <glyph glyph-name="ij.ss02" horiz-adv-x="864" 
d="M283 989v-989h-136v989h136zM119 1307q0 41 27.5 68.5t70.5 27.5q41 0 68.5 -27.5t27.5 -68.5t-27.5 -69t-68.5 -28q-43 0 -70.5 28t-27.5 69zM444 -281q76 0 108 45t32 144v1081h135v-1085q0 -297 -268 -297q-89 0 -187 31l31 104q94 -23 149 -23zM555 1307
q0 41 27.5 68.5t70.5 27.5q41 0 69 -27.5t28 -68.5t-28 -69t-69 -28q-43 0 -70.5 28t-27.5 69z" />
    <glyph glyph-name="iogonek.ss02" horiz-adv-x="430" 
d="M313 1307q0 -41 -27.5 -69t-70.5 -28q-41 0 -68.5 28t-27.5 69t27.5 68.5t68.5 27.5q43 0 70.5 -27.5t27.5 -68.5zM147 0v989h136v-989q-158 -115 -158 -231q0 -44 28 -68.5t78 -24.5q27 0 52 7v-93q-30 -10 -70 -10q-85 0 -137.5 43.5t-52.5 122.5q0 133 145 254h-21z
" />
    <glyph glyph-name="j.calt" horiz-adv-x="432" 
d="M152 1208v193h135v-193h-135zM-23 -387l15 108q32 -4 57 -4q59 0 81 32.5t22 105.5v1134h135v-1141q0 -127 -50.5 -184t-170.5 -57q-59 0 -89 6z" />
    <glyph glyph-name="j.calt.ss02" horiz-adv-x="436" 
d="M123 1307q0 41 27.5 68.5t68.5 27.5q43 0 70.5 -27.5t27.5 -68.5t-27.5 -69t-70.5 -28q-41 0 -68.5 28t-27.5 69zM-23 -387l15 108q32 -4 57 -4q59 0 81 32.5t22 105.5v1134h135v-1141q0 -127 -50.5 -184t-170.5 -57q-46 0 -89 6z" />
    <glyph glyph-name="j.ss02" horiz-adv-x="436" 
d="M14 -281q76 0 108 45t32 144v1081h135v-1085q0 -297 -269 -297q-88 0 -186 31l31 104q94 -23 149 -23zM125 1307q0 41 27.5 68.5t70.5 27.5q41 0 68.5 -27.5t27.5 -68.5t-27.5 -69t-68.5 -28q-43 0 -70.5 28t-27.5 69z" />
    <glyph glyph-name="k.ss01" horiz-adv-x="1003" 
d="M834 0l-336 492l-213 -205v-287h-138v1454h138v-1010l573 564l86 -82l-356 -346l397 -580h-151z" />
    <glyph glyph-name="uni0137.ss01" horiz-adv-x="1003" 
d="M834 0l-336 492l-213 -205v-287h-138v1454h138v-1010l573 564l86 -82l-356 -346l397 -580h-151zM635 -162v-157l-105 -193h-79l92 193h-82v157h174z" />
    <glyph glyph-name="uni0137.ss01.ss02" horiz-adv-x="1003" 
d="M834 0l-336 492l-213 -205v-287h-138v1454h138v-1010l573 564l86 -82l-356 -346l397 -580h-151zM659 -291q0 -85 -60 -152t-148 -67v61q44 5 78 36t44 83q-15 -6 -34 -6q-41 0 -68 25t-27 63q0 40 29 66t68 26q53 0 85.5 -35.5t32.5 -99.5z" />
    <glyph glyph-name="uni0137.ss02" horiz-adv-x="1003" 
d="M834 0l-357 520l-194 -198v-322h-136v1454h136v-983l499 518h166l-381 -387l418 -602h-151zM649 -291q0 -85 -60.5 -152t-148.5 -67v61q44 5 78.5 36t44.5 83q-15 -6 -35 -6q-41 0 -67.5 25t-26.5 63q0 40 28.5 66t67.5 26q53 0 86 -35.5t33 -99.5z" />
    <glyph glyph-name="uni013C.ss02" horiz-adv-x="442" 
d="M289 1454v-1454h-135v1454h135zM336 -291q0 -85 -60.5 -152t-148.5 -67v61q44 5 78.5 36t44.5 83q-15 -6 -35 -6q-41 0 -67.5 25t-26.5 63q0 40 28.5 66t67.5 26q53 0 86 -35.5t33 -99.5z" />
    <glyph glyph-name="ldot.ss02" horiz-adv-x="778" 
d="M289 1454v-1454h-135v1454h135zM496 614q0 43 30.5 74t73.5 31t74 -31t31 -74t-31 -73.5t-74 -30.5t-73.5 30.5t-30.5 73.5z" />
    <glyph glyph-name="uni0146.ss02" horiz-adv-x="1091" 
d="M948 678v-678h-135v633q0 133 -64 201.5t-186 68.5q-116 0 -198 -81t-82 -199v-623h-136v989h127v-137q96 164 320 164q169 0 261.5 -93.5t92.5 -244.5zM655 -291q0 -85 -60.5 -152t-148.5 -67v61q44 5 78.5 36t44.5 83q-15 -6 -34 -6q-41 0 -68 25t-27 63q0 40 29 66
t68 26q53 0 85.5 -35.5t32.5 -99.5z" />
    <glyph glyph-name="odieresis.ss02" horiz-adv-x="1120" 
d="M1038 494q0 -230 -133.5 -375.5t-345.5 -145.5q-211 0 -344 145.5t-133 375.5q0 231 133 376.5t344 145.5q212 0 345.5 -145t133.5 -377zM221 494q0 -180 92 -295q91 -113 246 -113q154 0 247 113t93 295t-92 297q-91 114 -248 114q-155 0 -246 -114q-92 -115 -92 -297z
M293 1309q0 38 28 66t66 28t67 -28t29 -66t-29 -66.5t-67 -28.5t-66 28.5t-28 66.5zM635 1309q0 38 28 66t66 28t66 -28t28 -66t-28 -66.5t-66 -28.5t-66 28.5t-28 66.5z" />
    <glyph glyph-name="uni0157.ss02" horiz-adv-x="698" 
d="M676 971l-27 -109q-71 21 -129 21q-106 0 -171.5 -89.5t-65.5 -242.5v-551h-136v989h127v-153q35 79 98.5 121t147.5 42q77 0 156 -28zM324 -291q0 -85 -60.5 -152t-148.5 -67v61q44 5 78.5 36t44.5 83q-15 -6 -35 -6q-41 0 -67.5 25t-26.5 63q0 40 28.5 66t67.5 26
q53 0 86 -35.5t33 -99.5z" />
    <glyph glyph-name="uni0219.ss02" horiz-adv-x="954" 
d="M862 874l-76 -92q-96 71 -164 97t-155 26q-109 0 -175.5 -48t-66.5 -124q0 -46 31 -74q30 -26 81.5 -43.5t170.5 -44.5q202 -45 286.5 -110.5t84.5 -186.5q0 -135 -106.5 -218t-278.5 -83q-128 0 -227.5 41.5t-217.5 141.5l82 90q110 -93 188 -127q76 -33 175 -33
q111 0 181 50.5t70 131.5t-67 121.5t-227 73.5q-206 45 -279.5 97.5t-77.5 168.5q0 131 105 207q106 80 264 80q120 0 210.5 -33t188.5 -109zM571 -291q0 -85 -60.5 -152t-148.5 -67v61q44 5 78.5 36t44.5 83q-15 -6 -34 -6q-41 0 -68 25t-27 63q0 40 29 66t68 26
q53 0 85.5 -35.5t32.5 -99.5z" />
    <glyph glyph-name="uni021B.ss02" horiz-adv-x="700" 
d="M639 125l25 -107q-90 -34 -195 -34q-127 0 -184.5 57.5t-57.5 173.5v674h-188v100h188v346h135v-346h283v-100h-283v-656q0 -73 28.5 -104t96.5 -31q67 0 152 27zM553 -291q0 -85 -60.5 -152t-148.5 -67v61q44 5 78.5 36t44.5 83q-15 -6 -35 -6q-41 0 -67.5 25t-26.5 63
q0 40 28.5 66t67.5 26q53 0 86 -35.5t33 -99.5z" />
    <glyph glyph-name="udieresis.ss02" horiz-adv-x="1075" 
d="M793 989h135v-989h-127v131q-43 -76 -123.5 -117t-179.5 -41q-175 0 -265 88.5t-90 239.5v688h136v-659q0 -117 59 -178.5t168 -61.5q127 0 207 78t80 215v606zM256 1309q0 38 28 66t66 28t67 -28t29 -66t-29 -66.5t-67 -28.5t-66 28.5t-28 66.5zM598 1309q0 38 28 66
t66 28t66 -28t28 -66t-28 -66.5t-66 -28.5t-66 28.5t-28 66.5z" />
    <glyph glyph-name="wdieresis.ss02" horiz-adv-x="1452" 
d="M1264 989h139l-281 -989h-166l-100 340q-84 294 -133 491q-38 -167 -133 -495l-96 -336h-164l-281 989h139l107 -389q72 -269 123 -481q49 202 129 481l112 389h132l114 -389q92 -318 131 -485q47 203 123 485zM461 1309q0 38 28 66t66 28t67 -28t29 -66t-29 -66.5
t-67 -28.5t-66 28.5t-28 66.5zM803 1309q0 38 28 66t66 28t66 -28t28 -66t-28 -66.5t-66 -28.5t-66 28.5t-28 66.5z" />
    <glyph glyph-name="ydieresis.ss02" horiz-adv-x="956" 
d="M776 989h137l-403 -1139q-26 -71 -46.5 -111.5t-52 -73.5t-74.5 -45.5t-106 -12.5q-64 0 -133 16l23 107q67 -13 102 -13q63 0 100 36.5t72 135.5l19 56l-371 1044h143l123 -360l25 -72l145 -438l99 289l75 225zM211 1309q0 38 28 66t66 28t67 -28t29 -66t-29 -66.5
t-67 -28.5t-66 28.5t-28 66.5zM553 1309q0 38 28 66t66 28t66 -28t28 -66t-28 -66.5t-66 -28.5t-66 28.5t-28 66.5z" />
    <glyph glyph-name="zdotaccent.ss02" horiz-adv-x="958" 
d="M868 989v-96l-616 -780h616v-113h-786v100l618 779h-579v110h747zM391 1307q0 41 27.5 68.5t70.5 27.5q41 0 69 -27.5t28 -68.5t-28 -69t-69 -28q-43 0 -70.5 28t-27.5 69z" />
    <glyph glyph-name="f_f_i.liga.ss02" horiz-adv-x="1712" 
d="M362 1159v-170h216v-100h-216v-889h-135v889h-188v100h188v193q0 140 74.5 218.5t210.5 78.5q94 0 197 -35l-33 -107q-86 27 -146 27q-92 0 -130 -47t-38 -158zM1141 1479q65 0 151 -25l-22 -104q-66 14 -115 14q-90 0 -127 -47t-37 -158v-170h260v-100h-260v-889h-135
v889h-172v100h172v193q0 140 74.5 218.5t210.5 78.5zM1595 1307q0 -41 -27.5 -69t-68.5 -28q-43 0 -70.5 28t-27.5 69t27.5 68.5t70.5 27.5q41 0 68.5 -27.5t27.5 -68.5zM1432 0v989h135v-989h-135z" />
    <glyph glyph-name="f_f_j.liga.ss02" horiz-adv-x="1712" 
d="M362 1159v-170h216v-100h-216v-889h-135v889h-188v100h188v193q0 140 74.5 218.5t210.5 78.5q94 0 197 -35l-33 -107q-86 27 -146 27q-92 0 -130 -47t-38 -158zM1251 889h-260v-889h-135v889h-172v100h172v193q0 140 74.5 218.5t210.5 78.5q65 0 151 -25l-22 -104
q-66 14 -115 14q-90 0 -127 -47t-37 -158v-170h260v-100zM1595 1307q0 -41 -27.5 -69t-68.5 -28q-43 0 -70.5 28t-27.5 69t27.5 68.5t70.5 27.5q41 0 68.5 -27.5t27.5 -68.5zM1432 -92v1081h135v-1085q0 -297 -267 -297q-90 0 -188 31l31 104q94 -23 149 -23q76 0 108 45
t32 144z" />
    <glyph glyph-name="f_j.liga.ss02" horiz-adv-x="1081" 
d="M625 889h-263v-889h-135v889h-188v100h188v193q0 140 74.5 218.5t210.5 78.5q69 0 152 -25l-23 -104q-66 14 -113 14q-90 0 -128 -47t-38 -158v-170h263v-100zM965 1307q0 -41 -28 -69t-69 -28t-69.5 28t-28.5 69t28.5 68.5t69.5 27.5t69 -27.5t28 -68.5zM801 -92v1081
h135v-1085q0 -297 -266 -297q-89 0 -187 31l31 104q94 -23 150 -23q74 0 105.5 45t31.5 144z" />
    <glyph glyph-name="fi.ss02" horiz-adv-x="1083" 
d="M512 1479q69 0 152 -25l-23 -104q-66 14 -113 14q-90 0 -128 -47t-38 -158v-170h263v-100h-263v-889h-135v889h-188v100h188v193q0 140 74.5 218.5t210.5 78.5zM967 1307q0 -41 -28 -69t-69 -28t-69.5 28t-28.5 69t28.5 68.5t69.5 27.5t69 -27.5t28 -68.5zM803 0v989h135
v-989h-135z" />
    <glyph glyph-name="uni0401.ss02" 
d="M1118 1454v-121h-796v-526h739v-119h-739v-567h813v-121h-959v1454h942zM385 1733q0 38 28 66t66 28t67 -28t29 -66t-29 -66.5t-67 -28.5t-66 28.5t-28 66.5zM727 1733q0 38 28 66t66 28t66 -28t28 -66t-28 -66.5t-66 -28.5t-66 28.5t-28 66.5z" />
    <glyph glyph-name="uni0407.ss02" horiz-adv-x="526" 
d="M336 1454v-1454h-146v1454h146zM0 1733q0 38 28 66t66 28t67 -28t29 -66t-29 -66.5t-67 -28.5t-66 28.5t-28 66.5zM342 1733q0 38 28 66t66 28t66 -28t28 -66t-28 -66.5t-66 -28.5t-66 28.5t-28 66.5z" />
    <glyph glyph-name="uni0451.ss02" horiz-adv-x="1069" 
d="M899 266l86 -82q-104 -115 -203.5 -163t-224.5 -48q-218 0 -346.5 141t-128.5 373q0 234 127.5 381.5t333.5 147.5q203 0 320.5 -126.5t117.5 -342.5q0 -28 -4 -64h-758q6 -166 90 -282q83 -115 248 -115q102 0 170 39q76 42 172 141zM223 586h623q-5 148 -85 233.5
t-218 85.5q-135 0 -218 -81.5t-102 -237.5zM299 1309q0 38 28 66t66 28t67 -28t29 -66t-29 -66.5t-67 -28.5t-66 28.5t-28 66.5zM641 1309q0 38 28 66t66 28t66 -28t28 -66t-28 -66.5t-66 -28.5t-66 28.5t-28 66.5z" />
    <glyph glyph-name="uni0456.ss02" horiz-adv-x="430" 
d="M283 989v-989h-136v989h136zM119 1307q0 41 27.5 68.5t70.5 27.5q41 0 68.5 -27.5t27.5 -68.5t-27.5 -69t-68.5 -28q-43 0 -70.5 28t-27.5 69z" />
    <glyph glyph-name="uni0457.ss02" horiz-adv-x="430" 
d="M283 989v-989h-136v989h136zM-47 1309q0 38 28 66t66 28t67 -28t29 -66t-29 -66.5t-67 -28.5t-66 28.5t-28 66.5zM295 1309q0 38 28 66t66 28t66 -28t28 -66t-28 -66.5t-66 -28.5t-66 28.5t-28 66.5z" />
    <glyph glyph-name="uni0458.ss02" horiz-adv-x="436" 
d="M14 -281q76 0 108 45t32 144v1081h135v-1085q0 -297 -269 -297q-88 0 -186 31l31 104q94 -23 149 -23zM125 1307q0 41 27.5 68.5t70.5 27.5q41 0 68.5 -27.5t27.5 -68.5t-27.5 -69t-68.5 -28q-43 0 -70.5 28t-27.5 69z" />
    <glyph glyph-name="Iotadieresis.ss02" horiz-adv-x="526" 
d="M336 1454v-1454h-146v1454h146zM0 1733q0 38 28 66t66 28t67 -28t29 -66t-29 -66.5t-67 -28.5t-66 28.5t-28 66.5zM342 1733q0 38 28 66t66 28t66 -28t28 -66t-28 -66.5t-66 -28.5t-66 28.5t-28 66.5z" />
    <glyph glyph-name="Upsilondieresis.ss02" horiz-adv-x="1247" 
d="M1051 1454h159l-516 -829v-625h-145v627l-512 827h162l426 -700zM360 1733q0 38 28.5 66t66.5 28t67 -28t29 -66t-29 -66.5t-67 -28.5t-66.5 28.5t-28.5 66.5zM702 1733q0 38 28.5 66t66.5 28t66 -28t28 -66t-28 -66.5t-66 -28.5t-66.5 28.5t-28.5 66.5z" />
    <glyph glyph-name="iotadieresis.ss02" horiz-adv-x="432" 
d="M285 0h-138v989h138v-989zM-47 1309q0 38 28 66t66 28t67 -28t29 -66t-29 -66.5t-67 -28.5t-66 28.5t-28 66.5zM295 1309q0 38 28 66t66 28t66 -28t28 -66t-28 -66.5t-66 -28.5t-66 28.5t-28 66.5z" />
    <glyph glyph-name="iotadieresistonos.ss02" horiz-adv-x="432" 
d="M285 0h-138v989h138v-989zM150 1208l57 246h149l-94 -246h-112zM-68 1292q0 36 28 63t65 27q39 0 66.5 -26t27.5 -64q0 -37 -28 -62.5t-66 -25.5q-37 0 -65 26t-28 62zM352 1292q0 38 27.5 64t66.5 26q37 0 65 -27t28 -63t-28 -62t-65 -26q-38 0 -66 25.5t-28 62.5z" />
    <glyph glyph-name="upsilondieresistonos.ss02" horiz-adv-x="1073" 
d="M143 383v606h138v-602q0 -299 254 -299q258 0 258 299v602h137v-606q0 -195 -98 -302.5t-295 -107.5q-194 0 -294 108t-100 302zM471 1208l57 246h150l-94 -246h-113zM254 1292q0 37 27.5 63.5t64.5 26.5q39 0 66.5 -26t27.5 -64q0 -37 -28 -62.5t-66 -25.5
q-37 0 -64.5 26t-27.5 62zM674 1292q0 38 27.5 64t66.5 26q37 0 64.5 -26.5t27.5 -63.5q0 -36 -27.5 -62t-64.5 -26q-38 0 -66 25.5t-28 62.5z" />
    <glyph glyph-name="zero.case" 
d="M1036 1223q101 -198 101 -496q0 -296 -101 -494q-64 -126 -172.5 -195t-249.5 -69t-249 69t-172 195q-101 198 -101 494q0 298 101 496q64 126 172 194t249 68t249.5 -68t172.5 -194zM313 1159q-80 -171 -80 -432q0 -259 80 -430q102 -209 301 -209t301 209
q80 171 80 430q0 261 -80 432q-100 207 -301 207t-301 -207z" />
    <glyph glyph-name="zero.pcnt" horiz-adv-x="860" 
d="M737 1096q0 -139 -89 -229.5t-218 -90.5t-218 90.5t-89 229.5q0 138 89 227.5t218 89.5t218 -89.5t89 -227.5zM238 1096q0 -98 52.5 -160t139.5 -62t140 62t53 160t-53 159.5t-140 61.5t-139.5 -61.5t-52.5 -159.5z" />
    <glyph glyph-name="zero.tf" horiz-adv-x="1208" 
d="M1018 1171q98 -189 98 -475t-98 -475q-62 -120 -168.5 -186t-245.5 -66t-245.5 66t-168.5 186q-98 189 -98 475t98 475q62 120 168.5 186t245.5 66t245.5 -66t168.5 -186zM311 1108q-78 -167 -78 -412q0 -244 78 -411q95 -197 293 -197t293 197q78 167 78 411
q0 245 -78 412q-95 197 -293 197t-293 -197z" />
    <glyph glyph-name="zero.zero" horiz-adv-x="1208" 
d="M1116 696q0 -286 -98 -475q-62 -120 -168.5 -186t-245.5 -66t-245.5 66t-168.5 186q-98 189 -98 475t98 475q62 120 168.5 186t245.5 66t245.5 -66t168.5 -186q98 -189 98 -475zM233 696q0 -237 72 -399l533 905q-92 103 -234 103q-198 0 -293 -197q-78 -167 -78 -412z
M975 696q0 246 -76 408l-532 -907q89 -109 237 -109q198 0 293 197q78 167 78 411z" />
    <glyph glyph-name="one.case" horiz-adv-x="958" 
d="M530 1454h103v-1454h-137v1278l-342 -246l-68 96z" />
    <glyph glyph-name="one.tf" horiz-adv-x="1208" 
d="M739 111h346v-111h-854v111h369v1103l-340 -243l-70 94l447 328h102v-1282z" />
    <glyph glyph-name="two.case" horiz-adv-x="1171" 
d="M229 119h854v-119h-991v49q0 153 51 252q51 101 138 176q96 79 235 164q99 60 107 64q121 69 170 106q143 103 143 268q0 132 -90 208.5t-225 76.5q-97 -4 -163 -31t-121 -77t-149 -160l-100 73q121 161 244 237.5t284 76.5q201 0 330 -111.5t129 -286.5q0 -122 -51 -208
q-50 -87 -125 -144q-71 -52 -205 -131l-102 -61q-138 -85 -197 -131q-153 -112 -166 -291z" />
    <glyph glyph-name="two.tf" horiz-adv-x="1208" 
d="M250 119h835v-119h-970v49q0 146 51 242q51 99 135 168q83 68 231 157q58 38 103 60q94 53 164 102q141 100 141 256q0 125 -86 198t-215 73q-128 0 -219 -60q-95 -63 -205 -196l-100 73q109 152 233.5 226.5t286.5 74.5q194 0 319 -108.5t125 -274.5q0 -120 -51 -200
q-52 -86 -123 -140q-69 -51 -200 -129l-95 -55q-142 -88 -200 -129q-141 -101 -160 -268z" />
    <glyph glyph-name="three.case" horiz-adv-x="1193" 
d="M1077 438q0 -88 -33 -171t-93.5 -150t-155 -107.5t-207.5 -40.5q-136 0 -260.5 43t-261.5 133l71 105q136 -87 236 -125q101 -37 211 -37q158 0 256 99t98 249t-96 233t-279 83q-103 0 -170 -27l-67 90l544 520h-733v119h905v-117l-501 -475l49 2q218 0 352 -110
q135 -111 135 -316z" />
    <glyph glyph-name="three.tf" horiz-adv-x="1208" 
d="M1057 418q0 -84 -31.5 -163.5t-90 -143.5t-150.5 -103t-203 -39q-134 0 -255 40.5t-251 127.5l71 105q138 -86 228 -119q96 -35 203 -35q151 0 245.5 94t94.5 234q0 142 -93.5 221.5t-269.5 79.5q-99 0 -164 -27l-67 90l526 494h-707v119h879v-117l-483 -451l51 2
q204 0 336 -108q131 -107 131 -301z" />
    <glyph glyph-name="four.case" horiz-adv-x="1204" 
d="M942 469h223v-117h-223v-352h-135v352h-746v121l617 981h158l-623 -985h594v350h135v-350z" />
    <glyph glyph-name="four.tf" horiz-adv-x="1208" 
d="M948 453h215v-117h-215v-336h-135v336h-723v121l596 936h156l-598 -940h569v331h135v-331z" />
    <glyph glyph-name="five.case" 
d="M1114 469q2 -92 -33.5 -182t-98.5 -161.5t-158.5 -114t-205.5 -40.5q-155 0 -270 41q-108 39 -262 146l72 104q134 -97 235 -137q93 -37 211 -37q168 0 269.5 110.5t101.5 270.5q0 165 -91.5 256.5t-260.5 91.5q-197 0 -328 -131l-117 14l64 754h809v-119h-693l-43 -504
q129 107 324 107q213 0 344 -129.5t131 -339.5z" />
    <glyph glyph-name="five.tf" horiz-adv-x="1208" 
d="M1094 449q1 -89 -34 -176t-97.5 -155.5t-156 -109.5t-198.5 -39q-154 0 -258 39q-110 41 -258 142l70 104q141 -97 229 -131q90 -35 203 -35q162 0 260 103t98 255q0 154 -90 243t-250 89q-190 0 -315 -125l-117 15l62 725h786v-119h-670l-41 -477q124 100 312 100
q207 0 336 -124.5t129 -323.5z" />
    <glyph glyph-name="six.case" 
d="M1143 461q0 -99 -36 -188.5t-101 -156.5t-162 -107t-211 -40q-161 0 -280 74.5t-177.5 198.5t-58.5 280q0 237 114 428q116 192 334 398l113 106h184v-2l-184 -168q-309 -280 -397 -510q61 83 157 129.5t217 46.5q110 0 202.5 -39t154.5 -105.5t96.5 -155.5t34.5 -189z
M1001 459q0 164 -96 267t-260 103q-175 0 -279 -104t-104 -266q0 -160 102 -265.5t269 -105.5t267.5 105.5t100.5 265.5z" />
    <glyph glyph-name="six.tf" horiz-adv-x="1208" 
d="M1116 440q0 -126 -59 -232.5t-173 -172.5t-261 -66q-157 0 -272 71.5t-172.5 190.5t-57.5 269q0 217 106 401t328 391l109 101h186v-2l-215 -195q-256 -238 -340 -440q126 151 356 151q138 0 245.5 -64.5t163.5 -170t56 -232.5zM975 438q0 156 -91.5 253t-250.5 97
q-171 0 -268 -100q-99 -99 -99 -250t98 -250.5t259 -99.5q162 0 257 97.5t95 252.5z" />
    <glyph glyph-name="seven.case" horiz-adv-x="1099" 
d="M43 1454h1012v-98q-217 -270 -385 -633q-166 -358 -219 -723h-148q50 341 219 707q163 352 377 630h-856v117z" />
    <glyph glyph-name="seven.tf" horiz-adv-x="1208" 
d="M94 1393h985v-99q-207 -263 -372 -606q-163 -346 -213 -688h-148q48 334 207 668q162 341 367 608h-826v117z" />
    <glyph glyph-name="eight.case" 
d="M1141 393q0 -187 -143.5 -306.5t-383.5 -119.5t-383 119.5t-143 306.5q0 137 76 240.5t215 152.5q-101 45 -158 127t-57 191q0 166 126 272.5t324 106.5t324.5 -106.5t126.5 -272.5q0 -109 -57 -191t-158 -127q139 -49 215 -152.5t76 -240.5zM614 838q142 0 229 74
t87 196q0 117 -85.5 188.5t-230.5 71.5t-230 -71.5t-85 -188.5q0 -122 86.5 -196t228.5 -74zM999 397q0 147 -104.5 236.5t-280.5 89.5t-280.5 -89.5t-104.5 -236.5q0 -137 104.5 -223t280.5 -86t280.5 86t104.5 223z" />
    <glyph glyph-name="eight.tf" horiz-adv-x="1208" 
d="M1116 379q0 -179 -139.5 -294.5t-372.5 -115.5t-372.5 115.5t-139.5 294.5q0 134 74 233.5t207 143.5q-98 45 -152.5 123.5t-54.5 181.5q0 160 122.5 261t315.5 101t315.5 -101t122.5 -261q0 -103 -54 -181.5t-152 -123.5q133 -44 206.5 -143.5t73.5 -233.5zM604 807
q135 0 219 70.5t84 185.5q0 110 -82.5 178t-220.5 68t-220.5 -68t-82.5 -178q0 -115 84 -185.5t219 -70.5zM975 383q0 140 -101 225.5t-270 85.5t-270 -85.5t-101 -225.5q0 -131 101.5 -213t269.5 -82t269.5 82t101.5 213z" />
    <glyph glyph-name="nine.case" 
d="M1112 934q0 -168 -57 -305q-54 -134 -147 -254t-246 -266l-111 -109h-184v2l184 168q316 294 399 514q-61 -84 -158.5 -131t-218.5 -47q-146 0 -258.5 67t-170.5 177t-58 243q0 98 36 187.5t101 157t162 107.5t211 40q162 0 280.5 -73.5t177 -197t58.5 -280.5zM967 995
q0 161 -102 266t-269 105q-169 0 -270 -104q-99 -105 -99 -267q0 -164 96 -267t261 -103q174 0 278.5 105t104.5 265z" />
    <glyph glyph-name="nine.tf" horiz-adv-x="1208" 
d="M1087 893q0 -230 -112 -414q-117 -190 -324 -379l-106 -100h-187v2l215 195q256 238 340 440q-127 -152 -356 -152q-138 0 -245.5 64.5t-163.5 170t-56 232.5q0 94 35 179t98 150t156.5 103.5t204.5 38.5q157 0 272 -71t172 -190t57 -269zM942 954q0 151 -97.5 251
t-258.5 100q-162 0 -257.5 -98t-95.5 -253q0 -156 91.5 -253t250.5 -97q167 0 267 99.5t100 250.5z" />
    <glyph glyph-name="zero.dnom" horiz-adv-x="817" 
d="M78 418q0 199 86.5 318.5t241.5 119.5q157 0 243 -119.5t86 -318.5t-86 -318.5t-243 -119.5q-155 0 -241.5 119.5t-86.5 318.5zM612 418q0 155 -54 243.5t-152 88.5q-96 0 -150.5 -89t-54.5 -243t54.5 -243t150.5 -89q98 0 152 88.5t54 243.5z" />
    <glyph glyph-name="one.dnom" horiz-adv-x="649" 
d="M346 836h90v-836h-117v686l-165 -121l-60 82z" />
    <glyph glyph-name="two.dnom" horiz-adv-x="813" 
d="M217 102h504v-102h-625v47q0 124 66 199q67 76 196 145l58 31q102 52 143 91t41 101q0 65 -47.5 100.5t-130.5 35.5q-114 0 -240 -117l-73 78q154 145 315 145q135 0 216 -67t81 -171q-3 -45 -15 -80t-27 -59t-49.5 -50.5t-62.5 -43.5t-86 -49l-57 -31
q-111 -62 -154 -101.5t-53 -101.5z" />
    <glyph glyph-name="three.dnom" horiz-adv-x="802" 
d="M705 254q0 -69 -35 -130.5t-107.5 -102.5t-167.5 -41q-86 0 -158 22.5t-167 81.5l61 88q78 -49 137.5 -67.5t124.5 -18.5q85 0 137 47.5t52 120.5q0 70 -53 114t-142 44q-69 0 -111 -17l-55 76l307 262h-422v103h570v-101l-279 -235h25q125 0 204 -66t79 -180z" />
    <glyph glyph-name="four.dnom" horiz-adv-x="811" 
d="M625 293h118v-98h-118v-195h-119v195h-432v110l354 531h133l-364 -543h309v184h119v-184z" />
    <glyph glyph-name="five.dnom" horiz-adv-x="808" 
d="M729 276q0 -127 -89.5 -210.5t-236.5 -83.5q-85 0 -160 25t-167 83l59 88q89 -53 145 -72.5t123 -19.5q90 0 146.5 52.5t56.5 131.5q0 81 -48.5 126.5t-143.5 45.5q-116 0 -193 -71l-94 12l41 453h520v-103h-424l-24 -254q81 66 204 66q127 0 206 -76t79 -193z" />
    <glyph glyph-name="six.dnom" horiz-adv-x="817" 
d="M737 274q0 -119 -90.5 -206.5t-234.5 -87.5q-156 0 -243 93.5t-87 248.5q0 288 330 514h174v-2q-126 -75 -223 -168t-138 -187q76 82 215 82q133 0 215 -84t82 -203zM618 272q0 81 -53.5 134t-142.5 53q-92 0 -153.5 -53.5t-61.5 -133.5t57 -133t148 -53q93 0 149.5 52
t56.5 134z" />
    <glyph glyph-name="seven.dnom" horiz-adv-x="755" 
d="M55 836h643v-97q-156 -171 -247 -365t-103 -374h-127q15 169 111 375q94 200 239 358h-516v103z" />
    <glyph glyph-name="eight.dnom" horiz-adv-x="819" 
d="M735 227q0 -108 -88 -176.5t-237 -68.5q-150 0 -238 68.5t-88 176.5q0 75 44 131.5t124 85.5q-62 30 -97.5 80t-35.5 111q0 98 80.5 160.5t210.5 62.5t211 -63t81 -160q0 -61 -36 -111.5t-99 -79.5q80 -29 124 -85.5t44 -131.5zM231 627q0 -62 50.5 -102t128.5 -40
q79 0 128.5 40t49.5 102q0 60 -49 96.5t-129 36.5t-129.5 -36.5t-49.5 -96.5zM614 236q0 73 -54 116t-150 43t-150.5 -43t-54.5 -116q0 -69 55 -110.5t150 -41.5t149.5 41.5t54.5 110.5z" />
    <glyph glyph-name="nine.dnom" horiz-adv-x="813" 
d="M731 514q0 -288 -330 -514h-174v2q126 75 221 166.5t136 185.5q-77 -80 -211 -80q-133 0 -215 84t-82 203t90.5 207t234.5 88q156 0 243 -93.5t87 -248.5zM606 563q0 81 -57 134t-148 53q-93 0 -149.5 -52t-56.5 -135q0 -81 53.5 -133.5t142.5 -52.5q92 0 153.5 53
t61.5 133z" />
    <glyph glyph-name="zero.numr" horiz-adv-x="817" 
d="M78 975q0 199 86.5 318.5t241.5 119.5q157 0 243 -119.5t86 -318.5t-86 -318.5t-243 -119.5q-155 0 -241.5 119.5t-86.5 318.5zM612 975q0 155 -54 243.5t-152 88.5q-96 0 -150.5 -89t-54.5 -243t54.5 -243t150.5 -89q98 0 152 88.5t54 243.5z" />
    <glyph glyph-name="one.numr" horiz-adv-x="649" 
d="M346 1393h90v-836h-117v686l-165 -121l-60 82z" />
    <glyph glyph-name="two.numr" horiz-adv-x="813" 
d="M217 659h504v-102h-625v47q0 124 66 199q67 76 196 145l58 31q102 52 143 91t41 101q0 65 -47.5 100.5t-130.5 35.5q-114 0 -240 -117l-73 78q154 145 315 145q135 0 216 -66.5t81 -170.5q-3 -45 -15 -80t-27 -59t-49.5 -50.5t-62.5 -44t-86 -49.5l-57 -31
q-111 -62 -154 -101.5t-53 -101.5z" />
    <glyph glyph-name="three.numr" horiz-adv-x="802" 
d="M705 811q0 -69 -35 -130.5t-107.5 -102.5t-167.5 -41q-86 0 -158 22.5t-167 81.5l61 88q78 -49 137.5 -67.5t124.5 -18.5q85 0 137 47.5t52 120.5q0 70 -53 114t-142 44q-69 0 -111 -17l-55 76l307 262h-422v103h570v-101l-279 -235h25q125 0 204 -66t79 -180z" />
    <glyph glyph-name="four.numr" horiz-adv-x="811" 
d="M625 850h118v-98h-118v-195h-119v195h-432v110l354 531h133l-364 -543h309v184h119v-184z" />
    <glyph glyph-name="five.numr" horiz-adv-x="808" 
d="M729 834q0 -127 -89.5 -211t-236.5 -84q-85 0 -160 25t-167 83l59 88q89 -53 145 -72.5t123 -19.5q90 0 146.5 52.5t56.5 131.5q0 81 -48.5 126.5t-143.5 45.5q-116 0 -193 -71l-94 12l41 453h520v-103h-424l-24 -254q81 66 204 66q128 0 206.5 -75.5t78.5 -192.5z" />
    <glyph glyph-name="six.numr" horiz-adv-x="817" 
d="M737 831q0 -119 -90.5 -206.5t-234.5 -87.5q-156 0 -243 93.5t-87 248.5q0 288 330 514h174v-2q-126 -75 -223 -168t-138 -187q76 82 215 82q133 0 215 -84t82 -203zM618 829q0 81 -53.5 134t-142.5 53q-92 0 -153.5 -53.5t-61.5 -133.5q0 -81 57 -133.5t148 -52.5
q93 0 149.5 52t56.5 134z" />
    <glyph glyph-name="seven.numr" horiz-adv-x="755" 
d="M55 1393h643v-97q-156 -171 -247 -365t-103 -374h-127q15 169 111 375q94 200 239 358h-516v103z" />
    <glyph glyph-name="eight.numr" horiz-adv-x="819" 
d="M735 793q0 -108 -88 -177t-237 -69t-237.5 69t-88.5 177q0 75 44 131.5t124 85.5q-62 30 -97.5 79.5t-35.5 110.5q0 98 80.5 160.5t210.5 62.5t211 -63t81 -160q0 -61 -35.5 -110.5t-99.5 -79.5q80 -29 124 -85.5t44 -131.5zM231 1192q0 -61 50.5 -101t128.5 -40
q79 0 128.5 39.5t49.5 101.5q0 60 -49 96.5t-129 36.5t-129.5 -36.5t-49.5 -96.5zM614 801q0 73 -54 116.5t-150 43.5t-150.5 -43.5t-54.5 -116.5q0 -69 55 -110.5t150 -41.5t149.5 41.5t54.5 110.5z" />
    <glyph glyph-name="nine.numr" horiz-adv-x="813" 
d="M731 1071q0 -288 -330 -514h-174v2q126 75 221 166.5t136 185.5q-77 -80 -211 -80q-133 0 -215 84t-82 203t90.5 207t234.5 88q156 0 243 -93.5t87 -248.5zM606 1120q0 81 -57 134t-148 53q-93 0 -149.5 -52t-56.5 -135q0 -81 53.5 -133.5t142.5 -52.5q92 0 153.5 53
t61.5 133z" />
    <glyph glyph-name="period.ss02" horiz-adv-x="413" 
d="M102 90q0 43 31 74t74 31t73.5 -31t30.5 -74t-30.5 -73.5t-73.5 -30.5t-74 30.5t-31 73.5z" />
    <glyph glyph-name="comma.ss02" horiz-adv-x="413" 
d="M334 27q0 -98 -63 -183.5t-162 -91.5v70q50 8 89.5 56.5t45.5 113.5q-18 -6 -39 -6q-43 0 -73 29t-30 73t31 75.5t74 31.5q58 0 92.5 -43t34.5 -125z" />
    <glyph glyph-name="colon.ss02" horiz-adv-x="495" 
d="M143 895q0 41 31.5 72.5t73.5 31.5t73 -31t31 -73q0 -43 -31 -75t-73 -32q-43 0 -74 32t-31 75zM143 90q0 43 31 74t74 31t73.5 -31t30.5 -74t-30.5 -73.5t-73.5 -30.5t-74 30.5t-31 73.5z" />
    <glyph glyph-name="semicolon.ss02" horiz-adv-x="495" 
d="M143 893q0 43 31 73.5t74 30.5t73.5 -30.5t30.5 -73.5t-30.5 -74t-73.5 -31t-74 31t-31 74zM375 27q0 -98 -63 -183.5t-162 -91.5v70q50 8 89.5 56.5t45.5 113.5q-18 -6 -39 -6q-43 0 -73 29t-30 73t31 75.5t74 31.5q58 0 92.5 -43t34.5 -125z" />
    <glyph glyph-name="ellipsis.ss02" horiz-adv-x="1247" 
d="M123 90q0 43 30.5 74t73.5 31t74 -31t31 -74t-31 -73.5t-74 -30.5t-73.5 30.5t-30.5 73.5zM520 90q0 43 31 74t74 31q41 0 72.5 -31.5t31.5 -73.5t-31 -73t-73 -31q-43 0 -74 30.5t-31 73.5zM915 90q0 43 31.5 74t75.5 31q41 0 71.5 -31t30.5 -74t-30.5 -73.5
t-71.5 -30.5q-44 0 -75.5 30.5t-31.5 73.5z" />
    <glyph glyph-name="exclam.ss02" horiz-adv-x="536" 
d="M352 1454v-434l-30 -629h-84l-31 629v434h145zM176 90q0 43 31 74t72 31q44 0 75 -31t31 -74t-31 -73.5t-75 -30.5q-41 0 -72 31t-31 73z" />
    <glyph glyph-name="exclamdown.case" horiz-adv-x="516" 
d="M172 1268v186h172v-186h-172zM184 0v434l31 631h84l31 -631v-434h-146z" />
    <glyph glyph-name="exclamdown.case.ss02" horiz-adv-x="516" 
d="M360 1364q0 -43 -30.5 -73.5t-73.5 -30.5t-73.5 30.5t-30.5 73.5t30.5 73.5t73.5 30.5t73.5 -30.5t30.5 -73.5zM184 0v434l31 629h84l31 -629v-434h-146z" />
    <glyph glyph-name="exclamdown.ss02" horiz-adv-x="434" 
d="M356 901q0 -41 -30.5 -72.5t-71.5 -31.5q-43 0 -75 31.5t-32 72.5q0 43 31.5 75t75.5 32q41 0 71.5 -32t30.5 -75zM180 -463v434l31 631h84l31 -631v-434h-146z" />
    <glyph glyph-name="question.ss02" horiz-adv-x="989" 
d="M397 381v84q0 83 15.5 133t51 93t118.5 114l39 33q106 93 146 150.5t40 137.5q0 106 -78 170t-207 64q-98 0 -181 -38.5t-196 -135.5l-84 92q119 107 227.5 157t235.5 50q115 0 210 -39.5t155.5 -122.5t60.5 -195q0 -74 -29 -138t-72 -111.5t-122 -116.5q-30 -24 -55 -49
q-67 -64 -94 -95q-62 -65 -70 -169l-6 -68h-105zM342 90q0 43 30.5 74t73.5 31t74 -31t31 -74t-31 -73.5t-74 -30.5t-73.5 30.5t-30.5 73.5z" />
    <glyph glyph-name="questiondown.case" horiz-adv-x="976" 
d="M440 1266v188h172v-188h-172zM29 326q0 87 32 147q30 62 69.5 106t123.5 117l53 45q59 56 92 93q64 67 72 172l6 67h105v-84q-2 -66 -8.5 -103.5t-30 -77t-52.5 -69.5t-94 -90l-41 -35q-73 -64 -108 -101.5t-56.5 -83.5t-21.5 -101q0 -105 78.5 -169.5t206.5 -64.5
q98 0 180.5 38.5t195.5 135.5l87 -92q-119 -107 -228 -157t-237 -50q-113 0 -208 39.5t-155.5 122.5t-60.5 195z" />
    <glyph glyph-name="questiondown.case.ss02" horiz-adv-x="976" 
d="M637 1378q0 -41 -31.5 -71.5t-75.5 -30.5q-41 0 -71.5 30.5t-30.5 71.5q0 44 30.5 75.5t71.5 31.5q44 0 75.5 -31.5t31.5 -75.5zM582 1090v-84q-2 -66 -8.5 -103.5t-30 -77t-52.5 -69.5t-94 -90l-41 -35q-106 -93 -146 -150t-40 -137q0 -105 78.5 -169t206.5 -64
q98 0 180.5 38.5t195.5 135.5l87 -92q-119 -107 -228 -157t-237 -50q-113 0 -208 39.5t-155.5 122t-60.5 194.5q0 87 32 147q30 62 70 107t123 117l53 45q65 62 92 92q64 67 72 172l6 68h105z" />
    <glyph glyph-name="questiondown.ss02" horiz-adv-x="927" 
d="M627 903q0 -42 -31.5 -73t-75.5 -31q-41 0 -71.5 31.5t-30.5 72.5q0 43 30.5 74t71.5 31q44 0 75.5 -31t31.5 -74zM571 614v-86q-3 -87 -18.5 -135t-48 -88t-117.5 -117l-41 -36q-104 -88 -145 -146.5t-41 -136.5q0 -108 78 -172t206 -64q98 0 181 38.5t196 135.5l86 -92
q-119 -107 -228 -157t-237 -50q-113 0 -208 40.5t-155.5 124t-60.5 194.5q0 83 33 145q20 43 51 81.5t58 64.5t84 75l53 48q65 62 92 92q64 67 72 172l6 69h104z" />
    <glyph glyph-name="periodcentered.ss02" horiz-adv-x="454" 
d="M123 621q0 43 30.5 73.5t73.5 30.5t74 -30.5t31 -73.5t-31 -74t-74 -31t-73.5 31t-30.5 74z" />
    <glyph glyph-name="hyphen.case" horiz-adv-x="823" 
d="M700 758v-121h-577v121h577z" />
    <glyph glyph-name="endash.case" horiz-adv-x="1468" 
d="M1321 754v-115h-1174v115h1174z" />
    <glyph glyph-name="emdash.case" horiz-adv-x="1957" 
d="M1788 754v-115h-1616v115h1616z" />
    <glyph glyph-name="quotesinglbase.ss02" horiz-adv-x="419" 
d="M317 25q0 -93 -59.5 -172.5t-155.5 -85.5v63q48 8 85.5 55t43.5 109q-13 -8 -36 -8q-42 0 -70.5 28t-28.5 70t29.5 71t71.5 29q55 0 87.5 -40.5t32.5 -118.5z" />
    <glyph glyph-name="quotedblbase.ss02" horiz-adv-x="753" 
d="M317 25q0 -93 -59.5 -172.5t-155.5 -85.5v63q48 8 85.5 55t43.5 109q-13 -8 -36 -8q-42 0 -70.5 28t-28.5 70t29.5 71t71.5 29q55 0 87.5 -40.5t32.5 -118.5zM651 25q0 -93 -59.5 -172.5t-155.5 -85.5v63q48 8 85.5 55t43.5 109q-13 -8 -37 -8q-42 0 -70 28t-28 70t29 71
t71 29q56 0 88.5 -41t32.5 -118z" />
    </font>
</defs>
</svg>
