<svg width="20" height="20" viewBox="0 0 20 20" fill="none" xmlns="http://www.w3.org/2000/svg">
<path fill-rule="evenodd" clip-rule="evenodd" d="M6.57623 11.3152C7.30261 10.5889 7.30261 9.41114 6.57622 8.68475L1.05426 3.16279C0.47201 2.58054 0.472011 1.63652 1.05427 1.05427C1.63652 0.472011 2.58054 0.472011 3.1628 1.05427L8.68476 6.57623C9.41115 7.30262 10.5889 7.30261 11.3152 6.57622L16.8372 1.05426C17.4195 0.47201 18.3635 0.472011 18.9457 1.05426C19.528 1.63652 19.528 2.58054 18.9457 3.1628L13.4238 8.68476C12.6974 9.41115 12.6974 10.5889 13.4238 11.3152L18.9457 16.8372C19.528 17.4195 19.528 18.3635 18.9457 18.9457C18.3635 19.528 17.4195 19.528 16.8372 18.9457L11.3152 13.4238C10.5889 12.6974 9.41114 12.6974 8.68475 13.4238L3.16279 18.9457C2.58054 19.528 1.63652 19.528 1.05426 18.9457C0.472011 18.3635 0.472011 17.4195 1.05427 16.8372L6.57623 11.3152Z" fill="#CAC9D8"/>
</svg>
