<svg width="39" height="23" viewBox="0 0 39 23" fill="none" xmlns="http://www.w3.org/2000/svg">
<path d="M38.4826 3.51141C37.7922 2.83002 36.6724 2.83002 35.9819 3.51141L23.5372 15.7903L19.0181 11.3303C18.3277 10.6489 17.2078 10.6489 16.5174 11.3303C15.8275 12.0112 15.8275 13.1146 16.5174 13.7954L22.2868 19.4893C22.9772 20.1707 24.0971 20.1707 24.7875 19.4893L38.4826 5.97651C39.1725 5.29567 39.1725 4.19224 38.4826 3.51141Z" fill="#CAC9D8"/>
<path d="M26.5363 2.44342L25.4875 3.50612L26.5363 2.44342C25.2617 1.18553 23.2028 1.18552 21.9283 2.44342L10.5373 13.6826L7.07173 10.2623C5.79715 9.00445 3.73832 9.00445 2.46375 10.2623C1.17875 11.5305 1.17875 13.5945 2.46375 14.8627L8.23317 20.5566C9.50776 21.8145 11.5666 21.8144 12.8411 20.5566L26.5361 7.04388L26.5363 7.04376C27.8213 5.77559 27.8212 3.71159 26.5363 2.44342Z" fill="#CAC9D8" stroke="white" stroke-width="3" stroke-linecap="round" stroke-linejoin="round"/>
</svg>
