<svg width="18" height="18" viewBox="0 0 18 18" fill="none" xmlns="http://www.w3.org/2000/svg">
<path d="M8.99986 6.13613C7.4229 6.13613 6.13599 7.42304 6.13599 8.99999C6.13599 10.5769 7.4229 11.8639 8.99986 11.8639C10.5768 11.8639 11.8637 10.5769 11.8637 8.99999C11.8637 7.42304 10.5768 6.13613 8.99986 6.13613ZM17.5893 8.99999C17.5893 7.81405 17.6001 6.63886 17.5335 5.45507C17.4669 4.08007 17.1532 2.85976 16.1477 1.85429C15.1401 0.846672 13.9219 0.535148 12.5469 0.468547C11.361 0.401945 10.1858 0.412687 9.00201 0.412687C7.81607 0.412687 6.64087 0.401945 5.45708 0.468547C4.08208 0.535148 2.86177 0.84882 1.8563 1.85429C0.848686 2.86191 0.537162 4.08007 0.470561 5.45507C0.403959 6.64101 0.414702 7.8162 0.414702 8.99999C0.414702 10.1838 0.403959 11.3611 0.470561 12.5449C0.537162 13.9199 0.850834 15.1402 1.8563 16.1457C2.86392 17.1533 4.08208 17.4648 5.45708 17.5314C6.64302 17.598 7.81822 17.5873 9.00201 17.5873C10.1879 17.5873 11.3631 17.598 12.5469 17.5314C13.9219 17.4648 15.1422 17.1512 16.1477 16.1457C17.1553 15.1381 17.4669 13.9199 17.5335 12.5449C17.6022 11.3611 17.5893 10.1859 17.5893 8.99999ZM8.99986 13.4064C6.56138 13.4064 4.59341 11.4385 4.59341 8.99999C4.59341 6.56152 6.56138 4.59355 8.99986 4.59355C11.4383 4.59355 13.4063 6.56152 13.4063 8.99999C13.4063 11.4385 11.4383 13.4064 8.99986 13.4064ZM13.5868 5.44218C13.0174 5.44218 12.5577 4.98241 12.5577 4.41308C12.5577 3.84374 13.0174 3.38398 13.5868 3.38398C14.1561 3.38398 14.6159 3.84374 14.6159 4.41308C14.616 4.54827 14.5895 4.68217 14.5379 4.8071C14.4862 4.93203 14.4104 5.04555 14.3148 5.14114C14.2192 5.23674 14.1057 5.31253 13.9808 5.36419C13.8559 5.41585 13.722 5.44235 13.5868 5.44218Z" fill="white"/>
</svg>
