<svg width="110" height="22" viewBox="0 0 110 22" fill="none" xmlns="http://www.w3.org/2000/svg">
<g clip-path="url(#clip0)">
<path fill-rule="evenodd" clip-rule="evenodd" d="M18.2131 13.7425C18.2131 18.5041 21.7596 22.0603 26.4481 22.0603C31.1967 22.0603 34.7432 18.5644 34.7432 13.8027C34.7432 12.9589 34.7432 14.5863 34.7432 13.7425C34.7432 8.92055 31.1967 5.42466 26.4481 5.42466C21.6995 5.42466 18.2131 8.98082 18.2131 13.7425ZM22 13.7425C22 11.2712 23.9235 9.10137 26.4481 9.10137C28.9727 9.10137 30.8962 11.211 30.8962 13.7425V13.8027C30.8962 16.274 28.9727 18.4438 26.4481 18.4438C23.9235 18.3233 22 16.2137 22 13.7425C22 12.8986 22 14.5863 22 13.7425ZM12.7432 6.69041V0.843836C12.7432 0.361644 13.1639 0 13.5847 0H15.6885C16.1694 0 16.5301 0.421918 16.5301 0.843836L16.4699 13.7425C16.4699 18.5041 12.9235 22 8.17486 22C3.54645 22 0 18.5041 0 13.7425C0 9.10137 3.60656 5.24383 8.29508 5.24383C9.97814 5.24383 11.4809 5.72603 12.7432 6.69041ZM40.153 13.7425C40.153 11.2712 42.0765 9.10137 44.6011 9.10137C45.7432 9.10137 46.7049 9.52329 47.4863 10.2466C47.6066 10.3068 47.6667 10.3671 47.7869 10.3671H51.3934C51.5738 10.3671 51.694 10.3068 51.8142 10.126C51.8743 9.9452 51.9344 9.82466 51.8142 9.64384C50.4317 7.11233 47.7869 5.42466 44.541 5.42466C39.7923 5.42466 36.306 8.98082 36.306 13.7425C36.306 18.5041 39.8525 22.0603 44.541 22.0603C47.7869 22.0603 50.4317 20.4329 51.8142 17.8411C51.8743 17.6603 51.8743 17.5397 51.8142 17.3589C51.7541 17.1781 51.5738 17.1178 51.3934 17.1178H47.7869C47.6667 17.1178 47.5464 17.1781 47.4863 17.2384C46.7049 17.9616 45.6831 18.3836 44.6011 18.3836C42.0765 18.3233 40.153 16.2137 40.153 13.7425C40.153 12.8986 40.153 14.5863 40.153 13.7425ZM3.84699 13.7425C3.84699 16.2137 5.77049 18.3836 8.29508 18.3836C10.8197 18.3836 12.7432 16.274 12.7432 13.7425C12.7432 11.2712 10.8197 9.16164 8.29508 9.16164C5.77049 9.16164 3.84699 11.2712 3.84699 13.7425Z" fill="#034694"/>
<path fill-rule="evenodd" clip-rule="evenodd" d="M57.8852 21.6384H60.1092C60.53 21.6384 60.8906 21.2767 60.8906 20.8548V11.8137L64.7978 15.7315C65.0983 16.0329 65.5792 16.0329 65.8797 15.7315L69.7868 11.8137V20.7945C69.7868 21.2164 70.1475 21.5781 70.5682 21.5781H72.7923C73.213 21.5781 73.5737 21.2164 73.5737 20.7945V6.69041C73.5737 6.26849 73.213 5.90685 72.7923 5.90685H70.5682C70.3278 5.90685 70.1475 6.0274 70.0273 6.14794L65.3387 10.8493L60.6502 6.14794C60.53 6.0274 60.2896 5.90685 60.1092 5.90685H57.8852C57.4644 5.90685 57.1038 6.26849 57.1038 6.69041V20.7945C57.1038 21.2767 57.4644 21.6384 57.8852 21.6384ZM97.2568 13.7425C97.2568 16.2137 99.1803 18.3836 101.705 18.3836C104.229 18.3836 106.153 16.274 106.153 13.7425C106.153 11.2712 104.229 9.16164 101.705 9.16164C99.2404 9.16164 97.2568 11.2712 97.2568 13.7425ZM106.153 6.69041V0.843836C106.153 0.361644 106.574 0 106.994 0H109.098C109.579 0 109.94 0.421918 109.94 0.843836L110 13.7425C110 18.5041 106.453 22 101.705 22C96.9562 22 93.4098 18.4438 93.4699 13.6822C93.4699 9.0411 97.0764 5.18356 101.765 5.18356C103.448 5.24384 104.891 5.72603 106.153 6.69041ZM87.7595 12.1753C87.1584 10.4274 85.5355 9.10137 83.612 9.10137C81.6284 9.10137 80.0054 10.4274 79.4043 12.1753H87.7595ZM79.4043 15.3096C80.0054 17.0575 81.6284 18.3836 83.612 18.3836C84.754 18.3836 85.7158 17.9616 86.4972 17.2384C86.6174 17.1781 86.6775 17.1178 86.7977 17.1178H90.4043C90.5846 17.1178 90.7049 17.1781 90.8251 17.3589C90.8852 17.5397 90.9453 17.6603 90.8251 17.8411C89.4426 20.3726 86.7977 22.0603 83.5518 22.0603C78.8032 22.0603 75.2568 18.5644 75.2568 13.8027C75.2568 12.9589 75.2568 14.5863 75.2568 13.7425C75.2568 8.98082 78.8032 5.48493 83.5518 5.48493C88.3005 5.48493 91.7868 9.04109 91.7868 13.8027C91.7868 14.0438 91.7868 14.3452 91.7267 14.5863C91.6666 15.0082 91.3059 15.3699 90.8852 15.3699H79.4043V15.3096Z" fill="#00B9F2"/>
</g>
<defs>
<clipPath id="clip0">
<rect width="110" height="22" fill="white"/>
</clipPath>
</defs>
</svg>
