<svg width="36" height="17" viewBox="0 0 36 17" fill="none" xmlns="http://www.w3.org/2000/svg">
<path d="M22.4826 0.511042C21.7922 -0.170347 20.6724 -0.170348 19.9819 0.511043L7.5372 12.7899L3.01808 8.32996C2.32765 7.64857 1.20782 7.64857 0.517396 8.32996C-0.172466 9.0108 -0.172466 10.1142 0.517397 10.7951L6.28682 16.489C6.97723 17.1704 8.09707 17.1703 8.7875 16.489L22.4826 2.97614C23.1725 2.29531 23.1725 1.19188 22.4826 0.511042Z" fill="white"/>
<path fill-rule="evenodd" clip-rule="evenodd" d="M16.5372 8.84241L14.0377 11.3087L13.5174 10.7952C12.8275 10.1144 12.8275 9.01092 13.5174 8.33008C14.2078 7.64869 15.3277 7.64869 16.0181 8.33008L16.5372 8.84241ZM18.6726 10.9499L20.5372 12.7901L32.9819 0.511165C33.6724 -0.170226 34.7922 -0.170225 35.4826 0.511164C36.1725 1.192 36.1725 2.29543 35.4826 2.97626L21.7875 16.4891C21.0971 17.1705 19.9772 17.1705 19.2868 16.4891L16.1731 13.4162L18.6726 10.9499Z" fill="white"/>
</svg>
