<?xml version="1.0" standalone="no"?>
<!DOCTYPE svg PUBLIC "-//W3C//DTD SVG 1.1//EN" "http://www.w3.org/Graphics/SVG/1.1/DTD/svg11.dtd" >
<svg xmlns="http://www.w3.org/2000/svg" xmlns:xlink="http://www.w3.org/1999/xlink" version="1.1">
<metadata>
Created by FontForge 20170731 at Wed Sep  1 14:14:25 2021
 By Aleksey,,,
Copyright (c) 2015 by Letters from Sweden. All rights reserved. |DCNT
</metadata>
<defs>
<font id="LabGrotesque-ThinItalic" horiz-adv-x="1208" >
  <font-face 
    font-family="Lab Grotesque"
    font-weight="250"
    font-style="italic"
    font-stretch="normal"
    units-per-em="2048"
    panose-1="0 0 5 0 0 0 0 0 0 0"
    ascent="1536"
    descent="-512"
    x-height="975"
    cap-height="1454"
    bbox="-782 -508 3568 1911"
    underline-thickness="120"
    underline-position="-448"
    unicode-range="U+0020-FB02"
  />
<missing-glyph horiz-adv-x="1185" 
d="M981 1659v-1864h-776v1864h776z" />
    <glyph glyph-name="fi" unicode="fi" horiz-adv-x="1048" 
d="M698 975l-16 -74h-256l-193 -901h-98l191 901h-203l14 74h205l47 223q29 138 107 210.5t194 72.5q74 0 166 -29l-33 -74q-65 21 -137 21q-83 0 -132 -56.5t-75 -187.5l-39 -180h258zM979 1386h98l-37 -176h-98zM686 0l205 975h98l-205 -975h-98z" />
    <glyph glyph-name="fl" unicode="fl" horiz-adv-x="1060" 
d="M700 975l-14 -74h-260l-193 -901h-98l191 901h-203l14 74h205l47 223q29 138 107 210.5t194 72.5q74 0 166 -29l-33 -74q-65 21 -137 21q-83 0 -132 -56.5t-75 -187.5l-39 -180h260zM1004 1454h98l-309 -1454h-99z" />
    <glyph glyph-name="f_f.liga" unicode="ff" horiz-adv-x="1259" 
d="M479 1155l-39 -180h222l-15 -74h-221l-193 -901h-98l191 901h-203l14 74h205l47 223q29 138 107 210.5t194 72.5q101 0 191 -43l-31 -72q-90 33 -158 33q-88 0 -137.5 -55.5t-75.5 -188.5zM1079 1155l-39 -180h260l-14 -74h-260l-192 -901h-99l191 901h-178l14 74h180
l47 223q29 138 107 210.5t194 72.5q101 0 191 -43l-31 -72q-90 33 -158 33q-88 0 -137.5 -55.5t-75.5 -188.5z" />
    <glyph glyph-name="f_f_i.liga" unicode="ffi" horiz-adv-x="1648" 
d="M479 1155l-39 -180h222l-15 -74h-221l-193 -901h-98l191 901h-203l14 74h205l47 223q29 138 107 210.5t194 72.5q101 0 191 -43l-31 -72q-90 33 -158 33q-88 0 -137.5 -55.5t-75.5 -188.5zM1296 975l-14 -74h-256l-192 -901h-99l191 901h-178l14 74h180l47 223
q29 138 107 210.5t194 72.5q74 0 166 -29l-33 -74q-64 21 -137 21q-83 0 -132 -56.5t-75 -187.5l-39 -180h256zM1579 1386h98l-37 -176h-98zM1286 0l205 975h98l-205 -975h-98z" />
    <glyph glyph-name="f_f_j.liga" unicode="ffj" horiz-adv-x="1644" 
d="M479 1155l-39 -180h224l-17 -74h-221l-193 -901h-98l191 901h-203l14 74h205l47 223q29 138 107 210.5t194 72.5q99 0 195 -41l-33 -70q-92 29 -158 29q-89 0 -139 -56t-76 -188zM1282 901h-256l-192 -901h-99l191 901h-178l14 74h180l47 223q29 138 107 210.5t194 72.5
q74 0 166 -29l-33 -74q-64 21 -137 21q-83 0 -132 -56.5t-75 -187.5l-39 -180h256zM1579 1386h98l-37 -176h-98zM1272 -76l221 1051h98l-231 -1094q-30 -147 -89 -212.5t-177 -65.5q-97 0 -181 32l31 74q77 -22 143 -22q46 3 74.5 14.5t49 43t32.5 68.5t29 111z" />
    <glyph glyph-name="f_j.liga" unicode="fj" horiz-adv-x="1044" 
d="M682 901h-256l-193 -901h-98l191 901h-203l14 74h205l47 223q29 138 107 210.5t194 72.5q74 0 166 -29l-33 -74q-65 21 -137 21q-83 0 -132 -56.5t-75 -187.5l-39 -180h258zM979 1386h98l-37 -176h-98zM672 -76l221 1051h98l-231 -1094q-30 -147 -89 -212.5t-177 -65.5
q-97 0 -181 32l31 74q77 -22 143 -22q46 3 74.5 14.5t49 43t32.5 68.5t29 111z" />
    <glyph glyph-name=".notdef" horiz-adv-x="1185" 
d="M981 1659v-1864h-776v1864h776z" />
    <glyph glyph-name=".null" horiz-adv-x="0" 
 />
    <glyph glyph-name="nonmarkingreturn" horiz-adv-x="682" 
 />
    <glyph glyph-name="space" unicode=" " horiz-adv-x="477" 
 />
    <glyph glyph-name="exclam" unicode="!" horiz-adv-x="514" 
d="M528 1454l-94 -434l-162 -649h-61l121 651l92 432h104zM266 158l-30 -158h-140l33 158h137z" />
    <glyph glyph-name="quotedbl" unicode="&#x22;" horiz-adv-x="651" 
d="M428 1454l-102 -401h-64l74 401h92zM731 1454l-102 -401h-64l74 401h92z" />
    <glyph glyph-name="numbersign" unicode="#" 
d="M1174 911h-228l-90 -426h225l-18 -84h-223l-86 -401h-99l86 401h-360l-86 -401h-98l86 401h-230l19 84h227l90 426h-225l18 84h226l84 398h98l-84 -398h360l84 398h99l-84 -398h227zM758 485l90 426h-361l-90 -426h361z" />
    <glyph glyph-name="dollar" unicode="$" horiz-adv-x="1249" 
d="M858 1337l-121 -569q183 -66 269 -150t86 -196q0 -89 -34 -170t-97 -144t-161.5 -100t-217.5 -37h-15l-37 -176h-88l39 182q-118 13 -215.5 65.5t-220.5 160.5l66 61q113 -100 202.5 -147.5t184.5 -59.5l139 650q-196 69 -279.5 139.5t-83.5 177.5q0 172 140.5 286.5
t363.5 114.5h10l37 172h88l-39 -178q104 -13 191.5 -60t175.5 -134l-61 -60q-87 77 -162.5 118t-159.5 54zM655 797l117 546q-172 0 -288.5 -86t-116.5 -225q0 -76 67.5 -129t220.5 -106zM719 678l-133 -625q98 0 178 32t130 84.5t76.5 117t26.5 133.5q0 96 -62 150.5
t-216 107.5z" />
    <glyph glyph-name="percent" unicode="%" horiz-adv-x="1716" 
d="M1516 1419l63 -51l-1284 -1395l-59 54zM1563 352q0 -68 -21 -133t-60 -118.5t-102 -86t-139 -32.5q-112 0 -185 70.5t-73 189.5q0 51 13 102t41 98t66.5 83t93.5 57.5t118 21.5q113 0 180.5 -68.5t67.5 -183.5zM1077 252q0 -91 44.5 -143t123.5 -52q73 0 125.5 47t75 111
t22.5 133q0 85 -41.5 132.5t-126.5 47.5q-45 0 -83.5 -18t-63.5 -47t-42.5 -66t-25.5 -73.5t-8 -71.5zM793 1159q0 -54 -13 -107t-40 -100.5t-64.5 -84t-90.5 -58t-114 -21.5q-111 0 -184.5 71t-73.5 190q0 51 13 102t41 98t66.5 83t93.5 57.5t118 21.5q113 0 180.5 -68.5
t67.5 -183.5zM307 1059q0 -91 44.5 -143t123.5 -52q73 0 125.5 47t75 111t22.5 133q0 85 -41.5 132.5t-126.5 47.5q-45 0 -83.5 -18t-63.5 -47t-42.5 -66t-25.5 -73.5t-8 -71.5z" />
    <glyph glyph-name="ampersand" unicode="&#x26;" horiz-adv-x="1398" 
d="M1346 618l-312 -321l170 -297h-106l-131 229q-141 -139 -251.5 -198.5t-246.5 -59.5q-92 0 -168.5 30t-125 78t-75 106t-26.5 118q3 94 24.5 157.5t83 129t159.5 126.5t267 146q-55 87 -77.5 151.5t-22.5 147.5q0 52 22 105t63.5 99t109.5 74.5t151 28.5
q121 0 195.5 -65.5t74.5 -171.5q-1 -59 -15 -102.5t-54 -94t-117 -103t-199 -114.5l246 -432l291 299zM604 1159q0 -64 19 -119q27 -64 71 -143q109 52 177 95t102 84t45 74.5t12 80.5q0 73 -50.5 115.5t-133.5 42.5q-113 0 -177.5 -70.5t-64.5 -159.5zM920 317l-267 469
q-158 -80 -247 -134.5t-142.5 -110.5t-70 -107t-19.5 -131q0 -95 85 -171.5t202 -76.5q116 0 219 61.5t240 200.5z" />
    <glyph glyph-name="quotesingle" unicode="'" horiz-adv-x="348" 
d="M428 1454l-102 -401h-64l74 401h92z" />
    <glyph glyph-name="parenleft" unicode="(" horiz-adv-x="677" 
d="M778 1599l51 -75q-577 -427 -577 -1098q0 -333 203 -711l-78 -47q-230 387 -230 750q0 358 153.5 648t477.5 533z" />
    <glyph glyph-name="parenright" unicode=")" horiz-adv-x="677" 
d="M-59 -324l-50 74q588 433 588 1096q0 179 -50.5 351t-154.5 368l82 43q228 -384 228 -746q0 -710 -643 -1186z" />
    <glyph glyph-name="asterisk" unicode="*" horiz-adv-x="888" 
d="M627 1454v-289l274 88l23 -65l-281 -88l184 -240l-59 -43l-184 242l-178 -238l-62 45l186 234l-280 90l22 67l275 -92v289h80z" />
    <glyph glyph-name="plus" unicode="+" horiz-adv-x="1228" 
d="M659 1167v-489h488v-86h-488v-490h-90v490h-487v86h487v489h90z" />
    <glyph glyph-name="comma" unicode="," horiz-adv-x="395" 
d="M207 158l-33 -158l-141 -215h-70l135 215h-73l32 158h150z" />
    <glyph glyph-name="hyphen" unicode="-" horiz-adv-x="819" 
d="M723 627l-21 -86h-563l21 86h563z" />
    <glyph glyph-name="period" unicode="." horiz-adv-x="395" 
d="M195 158l-31 -158h-139l32 158h138z" />
    <glyph glyph-name="slash" unicode="/" horiz-adv-x="841" 
d="M993 1454l-938 -1454h-100l936 1454h102z" />
    <glyph glyph-name="zero" unicode="0" 
d="M1178 950q0 -180 -68 -413q-64 -226 -213 -398q-146 -168 -379 -168q-197 0 -296 123.5t-99 345.5q0 183 70 412q70 230 217 399q150 170 372 170q198 0 297 -124.5t99 -346.5zM221 440q0 -182 76 -283.5t227 -101.5q183 0 310 154q129 160 186 366q59 213 59 377
q0 182 -75 283.5t-226 101.5q-185 0 -311 -153q-123 -150 -186 -365q-60 -217 -60 -379z" />
    <glyph glyph-name="one" unicode="1" horiz-adv-x="942" 
d="M717 1393h71l-294 -1393h-99l264 1251l-387 -239l-41 71z" />
    <glyph glyph-name="two" unicode="2" horiz-adv-x="1130" 
d="M113 84h845l-18 -84h-942l12 57q27 134 96 230q64 91 157.5 160.5t266.5 162.5q205 111 322 183q102 63 152.5 138t50.5 179q0 106 -78 166.5t-199 60.5q-133 0 -242.5 -60.5t-244.5 -199.5l-68 58q142 150 267.5 218t289.5 68q167 0 270 -85.5t103 -227.5
q0 -125 -55 -207q-58 -86 -156 -151q-112 -76 -307 -183l-66 -37q-136 -75 -225 -135q-178 -121 -231 -311z" />
    <glyph glyph-name="three" unicode="3" horiz-adv-x="1169" 
d="M1198 1393l-18 -82l-592 -490q6 2 30 2q182 0 301 -97.5t119 -256.5q1 -90 -31 -176.5t-93.5 -160t-165 -118t-232.5 -43.5q-139 0 -258 44.5t-242 131.5l64 70q121 -85 222 -123.5t216 -38.5q98 0 179 34t133 91.5t80 130.5t28 152q0 127 -90 202.5t-252 75.5
q-97 0 -164 -28l-37 55l652 541h-728l19 84h860z" />
    <glyph glyph-name="four" unicode="4" horiz-adv-x="1179" 
d="M895 430h223l-16 -84h-223l-74 -346h-96l73 346h-739l16 80l822 967h114l-817 -963h621l73 348h99z" />
    <glyph glyph-name="five" unicode="5" horiz-adv-x="1214" 
d="M1204 1309h-688l-158 -525q137 101 320 101q175 0 291 -105.5t116 -269.5q1 -77 -18 -152t-62 -146.5t-104.5 -125t-153.5 -85.5t-202 -30q-135 0 -252.5 44.5t-253.5 140.5l65 69q123 -92 226 -131t225 -39q88 -2 162 26t123.5 74.5t84 107t50 123t14.5 122.5
q0 129 -89 211t-236 82q-95 0 -178 -32t-169 -101l-79 12l213 713h770z" />
    <glyph glyph-name="six" unicode="6" horiz-adv-x="1210" 
d="M1096 535q1 -74 -20 -152.5t-65.5 -153.5t-106.5 -134t-152 -93.5t-193 -32.5q-190 0 -306 113t-116 276q0 242 138 458.5t434 445.5l168 131h147v-2l-248 -191q-307 -236 -434 -432q131 137 354 137q182 0 291 -105.5t109 -264.5zM997 530q0 137 -84 214t-233 77
q-110 0 -197 -38t-140.5 -103t-81.5 -146.5t-28 -173.5q0 -135 90 -221t238 -86q84 -2 157.5 27.5t123.5 79t86 113t53 129.5t16 128z" />
    <glyph glyph-name="seven" unicode="7" horiz-adv-x="1071" 
d="M242 1393h968l-14 -68q-265 -222 -529 -609t-356 -716h-102q62 216 203.5 469t311.5 470.5t337 369.5h-838z" />
    <glyph glyph-name="eight" unicode="8" horiz-adv-x="1210" 
d="M1094 432q0 -67 -17.5 -130.5t-58.5 -124.5t-101 -106t-153 -72.5t-207 -27.5q-209 0 -337 103.5t-128 257.5q0 146 88 268t289 166q-166 88 -166 260q0 54 16.5 108t54 106t91 92t133.5 64.5t176 24.5q163 0 275 -86t112 -223q0 -126 -76 -227t-217 -142
q106 -43 166 -125t60 -186zM682 793q181 0 284 91t103 230q0 101 -80 162t-223 61q-156 0 -266 -84q-105 -83 -105 -225q0 -100 81.5 -167.5t205.5 -67.5zM997 430q0 123 -99 201t-261 78q-113 0 -201.5 -31.5t-141 -85t-79.5 -118.5t-27 -136q0 -120 104 -201.5t288 -81.5
q104 0 186 32t131 86t74.5 119.5t25.5 137.5z" />
    <glyph glyph-name="nine" unicode="9" horiz-adv-x="1210" 
d="M1161 1034q0 -242 -139 -460t-432 -443l-170 -131h-144v2l248 191q313 240 445 448q-133 -154 -369 -154q-176 0 -286.5 107t-110.5 264q-1 74 20 152.5t65.5 153.5t106 133.5t151.5 93t193 32.5q190 0 306 -113t116 -276zM1065 1032q0 135 -90 221t-238 86
q-84 2 -157.5 -27.5t-123.5 -79t-86 -113t-53 -129.5t-16 -128q0 -134 86.5 -212.5t230.5 -78.5q110 0 197 38t140.5 103t81.5 146.5t28 173.5z" />
    <glyph glyph-name="colon" unicode=":" horiz-adv-x="477" 
d="M420 975l-31 -158h-139l33 158h137zM246 158l-31 -158h-139l33 158h137z" />
    <glyph glyph-name="semicolon" unicode=";" horiz-adv-x="477" 
d="M258 158l-33 -158l-141 -215h-70l136 215h-74l33 158h149zM422 975l-31 -158h-139l33 158h137z" />
    <glyph glyph-name="less" unicode="&#x3c;" horiz-adv-x="1228" 
d="M1106 1065v-98l-881 -332l881 -332v-98l-983 379v100z" />
    <glyph glyph-name="equal" unicode="=" horiz-adv-x="1228" 
d="M1147 883v-86h-1065v86h1065zM1147 473v-86h-1065v86h1065z" />
    <glyph glyph-name="greater" unicode="&#x3e;" horiz-adv-x="1228" 
d="M123 1065l983 -381v-100l-983 -379v98l878 332l-878 332v98z" />
    <glyph glyph-name="question" unicode="?" horiz-adv-x="974" 
d="M1069 1192q0 -92 -33 -154t-86 -112q-64 -60 -153 -127q-81 -61 -103 -80q-104 -82 -151 -139q-42 -51 -70 -142l-22 -78h-72l20 97q18 70 31.5 107.5t42 76.5t62.5 68t104 82l39 28q91 67 176 139q121 108 121 234q0 93 -71 147t-193 54q-212 0 -424 -179l-58 74
q248 195 490 195q144 0 248 -72q102 -71 102 -219zM442 158l-30 -158h-140l33 158h137z" />
    <glyph glyph-name="at" unicode="@" horiz-adv-x="1890" 
d="M1798 668q0 -83 -15 -171t-48.5 -174.5t-80.5 -154t-118.5 -108t-155.5 -37.5q-127 0 -174 71q-44 70 -41 160q-75 -118 -161 -174.5t-201 -56.5q-130 0 -205.5 78t-75.5 218q-1 84 21.5 171t66 164t102 137.5t135.5 94.5t159 32q112 0 174 -49t73 -136l39 168h86
l-110 -528q-25 -98 -25 -148q0 -129 131 -129q84 -3 152.5 50t108.5 138t61 181.5t20 189.5q0 149 -51.5 268.5t-142 195.5t-210 116.5t-257.5 40.5q-299 0 -494 -154q-190 -150 -280 -368q-88 -210 -88 -402q0 -319 196.5 -496.5t571.5 -177.5h385l-17 -67h-371
q-413 0 -630 195.5t-217 545.5q0 206 94 436q93 226 307 392q211 163 547 163q161 0 297.5 -47.5t234 -133.5t152.5 -213.5t55 -280.5zM1204 623q0 112 -47 166.5t-153 54.5q-81 3 -155.5 -43t-125 -120.5t-79.5 -167t-28 -181.5q0 -115 51 -172.5t144 -57.5q73 -3 139 32
t111 93t78.5 128.5t49.5 140t15 127.5z" />
    <glyph glyph-name="A" unicode="A" horiz-adv-x="1300" 
d="M1049 0l-68 440h-666l-254 -440h-114l841 1454h138l223 -1454h-100zM367 530h602l-33 213l-10 64q-71 464 -82 569q-129 -238 -357 -635z" />
    <glyph glyph-name="B" unicode="B" horiz-adv-x="1353" 
d="M1241 453q0 -91 -34.5 -172t-99 -144t-165.5 -100t-225 -37h-633l309 1454h557q168 0 272.5 -86t104.5 -233q0 -135 -79 -237.5t-212 -137.5q91 -34 148 -114.5t57 -192.5zM479 1362l-117 -551h455q208 0 310 87.5t102 236.5q0 108 -76.5 167.5t-212.5 59.5h-461z
M1137 461q0 122 -84.5 191t-233.5 69h-477l-133 -629h481q241 0 342 107q105 108 105 262z" />
    <glyph glyph-name="C" unicode="C" horiz-adv-x="1366" 
d="M1409 1253l-68 -57q-94 106 -185 152.5t-208 46.5q-131 3 -246.5 -47.5t-197.5 -136.5t-141.5 -197t-87.5 -230t-27 -233q0 -227 119.5 -358.5t328.5 -131.5q136 0 246 58q115 60 250 184l65 -65q-267 -267 -552 -267q-267 0 -414.5 157.5t-147.5 410.5q0 209 86 428
q85 217 269 366q182 150 456 150q142 0 252.5 -55.5t202.5 -174.5z" />
    <glyph glyph-name="D" unicode="D" horiz-adv-x="1417" 
d="M1372 909q1 -129 -27 -256.5t-90 -247t-150.5 -210.5t-219 -144.5t-285.5 -50.5h-516l309 1454h424q257 0 406 -151.5t149 -393.5zM788 1368h-307l-272 -1282h375q139 -3 255.5 47t194.5 133.5t132.5 192t78.5 219.5t23 219q0 223 -122 347t-358 124z" />
    <glyph glyph-name="E" unicode="E" horiz-adv-x="1222" 
d="M1315 1454l-21 -88h-815l-123 -575h756l-18 -89h-756l-131 -614h831l-18 -88h-936l309 1454h922z" />
    <glyph glyph-name="F" unicode="F" horiz-adv-x="1202" 
d="M1315 1454l-21 -88h-815l-127 -598h756l-21 -88h-753l-144 -680h-106l309 1454h922z" />
    <glyph glyph-name="G" unicode="G" horiz-adv-x="1513" 
d="M256 563q0 -228 120 -362.5t347 -134.5q88 0 175.5 33.5t163 95t133 156t81.5 208.5l16 76h-508l17 88h612l-151 -723h-88l36 236q-88 -132 -216 -197.5t-279 -65.5q-136 0 -245.5 46t-179 126t-106.5 183.5t-37 222.5q0 217 84 432q85 211 269 354q184 144 458 144
q327 0 545 -277l-82 -55q-107 130 -217 187t-260 57q-134 3 -249 -47t-195 -134t-136.5 -193.5t-82.5 -225.5t-25 -230z" />
    <glyph glyph-name="H" unicode="H" horiz-adv-x="1482" 
d="M1499 1454l-309 -1454h-105l148 702h-895l-148 -702h-106l309 1454h107l-142 -663h893l144 663h104z" />
    <glyph glyph-name="I" unicode="I" horiz-adv-x="483" 
d="M500 1454l-310 -1454h-106l309 1454h107z" />
    <glyph glyph-name="J" unicode="J" horiz-adv-x="933" 
d="M961 1454l-234 -1094q-39 -193 -134.5 -286.5t-260.5 -93.5q-194 0 -375 104l53 80q171 -96 318 -96q124 0 193 73.5t106 241.5l227 1071h107z" />
    <glyph glyph-name="K" unicode="K" horiz-adv-x="1290" 
d="M1419 1454l-686 -573l422 -881h-111l-389 817l-354 -295l-111 -522h-106l309 1454h107l-168 -790l944 790h143z" />
    <glyph glyph-name="L" unicode="L" horiz-adv-x="1054" 
d="M500 1454l-293 -1366h711l-19 -88h-815l309 1454h107z" />
    <glyph glyph-name="M" unicode="M" horiz-adv-x="1710" 
d="M1546 1454h180l-309 -1454h-102l151 717l142 657q-8 -14 -256 -436q-30 -48 -131 -221l-424 -717h-95l-124 719q-63 348 -107 659l-137 -663l-152 -715h-98l309 1454h164l115 -682q11 -71 14 -82l37 -229q30 -191 45 -340q138 254 354 614l21 37z" />
    <glyph glyph-name="N" unicode="N" horiz-adv-x="1486" 
d="M1401 1454h102l-309 -1454h-123l-332 727l-69 154q-128 278 -207 460q-68 -363 -111 -555l-166 -786h-102l309 1454h121l326 -715q106 -231 188 -420l94 -206q66 348 113 563z" />
    <glyph glyph-name="O" unicode="O" horiz-adv-x="1519" 
d="M1475 897q0 -206 -86 -422q-82 -213 -261 -360q-176 -144 -428 -144q-263 0 -409 155.5t-146 432.5q0 209 88 422t265 358q175 144 428 144q262 0 405.5 -156t143.5 -430zM250 557q0 -235 121.5 -366.5t326.5 -131.5q124 -3 234 47t189 136t136.5 196t85.5 228.5
t27 232.5q0 233 -119 364.5t-327 131.5q-124 3 -234.5 -46.5t-189.5 -135t-137 -195t-86 -228.5t-27 -233z" />
    <glyph glyph-name="P" unicode="P" horiz-adv-x="1290" 
d="M1341 1106q0 -74 -20 -143t-62.5 -130.5t-103 -107.5t-147.5 -73t-191 -27h-493l-134 -625h-106l309 1454h565q173 0 278 -93t105 -255zM932 1366h-453l-137 -653h438q235 0 346 114t111 281q0 122 -81 190t-224 68z" />
    <glyph glyph-name="Q" unicode="Q" horiz-adv-x="1519" 
d="M1108 100l96 -178l-78 -43l-94 174q-149 -82 -332 -82q-263 0 -409 155.5t-146 432.5q0 209 88 422t265 358q175 144 428 144q262 0 405.5 -156t143.5 -430q0 -142 -40 -289.5t-125.5 -285t-201.5 -222.5zM987 135l-151 277l79 45l146 -271q150 120 229 316
q80 201 80 397q0 233 -119 364.5t-327 131.5q-124 3 -234.5 -46.5t-189.5 -135t-137 -195t-86 -228.5t-27 -233q0 -235 121.5 -366.5t326.5 -131.5q158 0 289 76z" />
    <glyph glyph-name="R" unicode="R" horiz-adv-x="1339" 
d="M834 625l309 -625h-113l-307 625h-401l-134 -625h-104l309 1454h545q173 0 280 -95t107 -257q0 -88 -30.5 -170t-89 -149.5t-154.5 -110.5t-217 -47zM1223 1108q0 122 -82.5 190t-229.5 68h-434l-137 -655h426q242 0 348 112q109 115 109 285z" />
    <glyph glyph-name="S" unicode="S" horiz-adv-x="1271" 
d="M1274 1260l-70 -72q-193 205 -446 205q-172 0 -292 -92.5t-120 -231.5q0 -72 41 -119q42 -43 118 -76.5t236 -82.5q162 -51 251 -105.5t123 -118t34 -157.5q0 -83 -35 -161t-98.5 -140.5t-162.5 -100t-218 -37.5q-158 0 -295.5 58.5t-284.5 177.5l64 76
q272 -224 520 -224q181 0 293 102t112 249q-2 43 -10.5 75t-28.5 59.5t-45 47.5t-70 41.5t-93.5 39t-124.5 42.5q-89 29 -147.5 51t-109.5 47t-80 48t-50.5 54t-30 66t-10.5 82q0 172 146 295t372 123q291 0 512 -221z" />
    <glyph glyph-name="T" unicode="T" horiz-adv-x="1212" 
d="M1346 1454l-21 -88h-479l-291 -1366h-104l288 1366h-481l21 88h1067z" />
    <glyph glyph-name="U" unicode="U" horiz-adv-x="1394" 
d="M1421 1454l-217 -1012q-49 -234 -187 -351.5t-394 -117.5q-229 0 -345 92t-116 265q0 48 20 151l207 973h105l-209 -983q-19 -90 -19 -131q0 -136 93 -207.5t270 -71.5q197 0 312.5 97t158.5 293l215 1003h106z" />
    <glyph glyph-name="V" unicode="V" horiz-adv-x="1251" 
d="M1288 1454h111l-813 -1454h-140l-194 1454h102l101 -739l28 -223q29 -228 49 -410q178 346 340 631z" />
    <glyph glyph-name="W" unicode="W" horiz-adv-x="1875" 
d="M1882 1454h109l-660 -1454h-141l-51 760q-4 82 -4 92q-19 322 -23 477q-84 -183 -270 -571l-371 -758h-149l-39 1454h98l18 -764l4 -119q1 -18 5 -165q2 -72 2 -189l-2 -139q35 76 254 532l38 80l377 764h115l47 -764q23 -356 31 -608q72 176 266 608z" />
    <glyph glyph-name="X" unicode="X" horiz-adv-x="1218" 
d="M1335 1454l-612 -698l352 -756h-108l-320 688l-598 -688h-125l674 768l-322 686h109l287 -620l540 620h123z" />
    <glyph glyph-name="Y" unicode="Y" horiz-adv-x="1245" 
d="M1274 1454h123l-695 -825l-131 -629h-106l135 631l-338 823h107l295 -735z" />
    <glyph glyph-name="Z" unicode="Z" horiz-adv-x="1243" 
d="M1370 1454l-18 -78l-1221 -1288h942l-18 -88h-1080l17 78l1218 1288h-899l21 88h1038z" />
    <glyph glyph-name="bracketleft" unicode="[" horiz-adv-x="628" 
d="M764 1528l-19 -76h-229l-350 -1642h231l-16 -74h-330l383 1792h330z" />
    <glyph glyph-name="backslash" unicode="\" horiz-adv-x="800" 
d="M352 1454l289 -1454h-90l-289 1454h90z" />
    <glyph glyph-name="bracketright" unicode="]" horiz-adv-x="628" 
d="M309 1528h330l-381 -1792h-332l17 74h229l350 1642h-231z" />
    <glyph glyph-name="asciicircum" unicode="^" 
d="M670 1454l407 -881h-108l-365 793l-364 -793h-107l410 881h127z" />
    <glyph glyph-name="underscore" unicode="_" horiz-adv-x="1228" 
d="M1069 -317v-72h-1249v72h1249z" />
    <glyph glyph-name="grave" unicode="`" horiz-adv-x="514" 
d="M326 1417h104l94 -282h-73z" />
    <glyph glyph-name="a" unicode="a" horiz-adv-x="1091" 
d="M934 975h94l-207 -975h-90l43 201q-145 -224 -364 -224q-164 0 -250 93.5t-86 261.5q-1 88 20 181t66 180.5t107.5 155.5t150.5 108t188 38q118 0 192 -50.5t101 -141.5zM848 647q0 127 -60.5 197.5t-177.5 70.5q-100 4 -186 -51t-139.5 -142.5t-83.5 -188.5t-29 -195
q0 -142 58 -210.5t176 -68.5q71 -3 139.5 31t123 94t96 136t63 161.5t20.5 165.5z" />
    <glyph glyph-name="b" unicode="b" horiz-adv-x="1093" 
d="M1022 645q1 -90 -20 -183.5t-65.5 -181t-107 -155.5t-151 -108t-189.5 -37q-120 0 -196.5 52.5t-106.5 147.5l-39 -180h-92l310 1454h98l-141 -657q143 198 372 198q157 0 242.5 -92.5t85.5 -257.5zM926 639q0 140 -58.5 207t-177.5 67q-152 0 -272 -120
q-117 -117 -164 -295l-14 -66q-9 -46 -9 -104q0 -121 70 -194t186 -73q83 -2 156 33.5t124 95.5t88 137t54.5 157t16.5 155z" />
    <glyph glyph-name="c" unicode="c" horiz-adv-x="950" 
d="M600 918q-79 3 -150.5 -33t-121 -96t-86.5 -134.5t-54 -149.5t-16 -140q0 -149 67 -228.5t199 -79.5q167 0 353 183l65 -64q-201 -201 -420 -201q-170 0 -267 101.5t-97 281.5q-1 82 20.5 171t67 174t108 152t150 107t186.5 37q120 0 200.5 -47t143.5 -147l-78 -51
q-61 92 -120 128t-150 36z" />
    <glyph glyph-name="d" unicode="d" horiz-adv-x="1091" 
d="M1038 1454h99l-310 -1454h-88l45 215q-146 -238 -381 -238q-163 0 -249 93.5t-86 261.5q-1 88 20 181t66 180.5t107.5 155.5t150.5 108t188 38q119 0 195 -50t106 -140zM856 645q0 124 -68.5 196t-191.5 72q-81 3 -152.5 -32.5t-121.5 -96t-86 -137t-53.5 -156
t-16.5 -153.5q0 -145 57.5 -212t179.5 -67q117 -5 225 85.5t169.5 228.5t58.5 272z" />
    <glyph glyph-name="e" unicode="e" horiz-adv-x="1044" 
d="M934 492h-750q-10 -75 -10 -121q0 -145 70.5 -229.5t218.5 -84.5q188 0 375 213l69 -53q-205 -242 -444 -242q-184 0 -286.5 104t-102.5 283q-1 89 22 179.5t70.5 173.5t112 147.5t154 101.5t190.5 35q153 0 246.5 -87t93.5 -234q0 -112 -29 -186zM203 569h663q8 47 8 93
q0 117 -68.5 186.5t-191.5 69.5q-154 0 -259.5 -95t-151.5 -254z" />
    <glyph glyph-name="f" unicode="f" horiz-adv-x="659" 
d="M479 1155l-39 -180h258l-16 -74h-256l-193 -901h-98l191 901h-203l14 74h205l47 223q29 139 106 211t195 72q106 0 191 -43l-31 -72q-85 33 -162 33q-85 0 -134 -57t-75 -187z" />
    <glyph glyph-name="g" unicode="g" horiz-adv-x="1081" 
d="M930 975h94l-209 -979q-42 -194 -144.5 -288.5t-285.5 -94.5q-199 0 -399 147l55 70q97 -69 178 -102t170 -33q265 0 332 307l41 193q-139 -195 -356 -195q-154 0 -246 99.5t-92 260.5q-1 81 20 169t65 172.5t104 151t145 106t180 36.5q117 0 196.5 -54.5t110.5 -152.5z
M842 641q0 125 -67 198.5t-189 73.5q-78 3 -147.5 -30.5t-118.5 -90.5t-85 -129t-53 -147.5t-16 -144.5q0 -139 61.5 -214t182.5 -75q78 -3 149 32t122 94t88.5 133.5t55.5 152t17 147.5z" />
    <glyph glyph-name="h" unicode="h" horiz-adv-x="1067" 
d="M967 758q0 -54 -15 -131l-133 -627h-98l133 631q12 67 12 123q0 164 -204 164q-128 0 -242 -97q-111 -94 -148 -268l-116 -553h-99l308 1454h98l-133 -631q126 176 342 176q143 0 219 -67t76 -174z" />
    <glyph glyph-name="i" unicode="i" horiz-adv-x="421" 
d="M362 975l-204 -975h-99l205 975h98zM451 1386l-37 -176h-99l37 176h99z" />
    <glyph glyph-name="j" unicode="j" horiz-adv-x="411" 
d="M-145 -313q37 2 62.5 12t43 24t31.5 45.5t23.5 63.5t23.5 92l221 1051h98l-231 -1094q-30 -148 -88.5 -213t-177.5 -65q-96 0 -180 32l30 74q77 -22 144 -22zM444 1386l-36 -176h-99l37 176h98z" />
    <glyph glyph-name="k" unicode="k" horiz-adv-x="950" 
d="M987 975l-430 -375l283 -600h-99l-258 545l-262 -228l-67 -317h-99l310 1454h98l-215 -1014l608 535h131z" />
    <glyph glyph-name="l" unicode="l" horiz-adv-x="425" 
d="M467 1454l-309 -1454h-99l310 1454h98z" />
    <glyph glyph-name="m" unicode="m" horiz-adv-x="1603" 
d="M1505 762q0 -48 -14 -119l-135 -643h-99l136 659q9 47 12 89q-2 87 -47 128.5t-141 41.5q-120 0 -215.5 -97t-129.5 -270l-118 -551h-99l129 631q17 94 17 123q0 164 -185 164q-121 0 -212.5 -93.5t-131.5 -271.5l-116 -553h-99l205 975h96l-28 -133q118 157 305 157
q110 0 179.5 -53t74.5 -139q62 90 147.5 141t186.5 51q135 0 208.5 -65.5t73.5 -171.5z" />
    <glyph glyph-name="n" unicode="n" horiz-adv-x="1067" 
d="M967 758q0 -62 -15 -129l-133 -629h-98l133 631q12 68 12 121q0 85 -49.5 125.5t-150.5 40.5q-133 0 -246 -97t-148 -266l-116 -555h-99l205 975h96l-34 -162q64 95 153.5 140.5t192.5 45.5q142 0 219.5 -68t77.5 -173z" />
    <glyph glyph-name="o" unicode="o" horiz-adv-x="1056" 
d="M979 608q1 -83 -19 -170.5t-63 -171.5t-103.5 -149.5t-149 -104.5t-189.5 -37q-179 0 -280 105.5t-101 290.5q-1 80 19 165.5t63.5 170t104.5 150.5t150 105.5t193 36.5q176 0 275.5 -105t99.5 -286zM172 369q0 -147 74 -230.5t203 -83.5q80 -2 151 31t122 90t88 129.5
t54.5 150.5t16.5 152q0 148 -73 229t-204 81q-98 3 -182.5 -48.5t-137.5 -133.5t-83 -178.5t-29 -188.5z" />
    <glyph glyph-name="p" unicode="p" horiz-adv-x="1097" 
d="M1026 645q1 -90 -20 -183.5t-65.5 -181t-106.5 -155.5t-150.5 -108t-189.5 -37q-118 0 -195 51t-109 141l-114 -541h-99l287 1344h92l-41 -191q150 211 383 211q157 0 242.5 -93.5t85.5 -256.5zM928 639q0 136 -61 205t-177 69q-156 0 -278 -131t-164 -315v-6
q-15 -64 -15 -133q0 -120 74.5 -193.5t192.5 -73.5q83 -2 155 33t121.5 95t84.5 136.5t51.5 156.5t15.5 157z" />
    <glyph glyph-name="q" unicode="q" horiz-adv-x="1099" 
d="M946 975h92l-284 -1344h-99l121 570q-145 -224 -373 -224q-163 0 -249 93.5t-86 261.5q-1 88 20 181t66 180.5t107.5 155.5t150.5 108t188 38q121 0 199.5 -56t105.5 -153zM854 643q0 126 -66 198t-186 72q-100 4 -186 -51t-139.5 -142.5t-83 -188t-27.5 -193.5
q0 -145 57.5 -212t179.5 -67q89 -3 174.5 50t146 137t96.5 190t34 207z" />
    <glyph glyph-name="r" unicode="r" horiz-adv-x="675" 
d="M748 948l-35 -76q-67 27 -127 27q-116 0 -199 -93.5t-119 -270.5l-112 -535h-99l205 975h94l-30 -148q44 73 115 114.5t147 41.5t160 -35z" />
    <glyph glyph-name="s" unicode="s" horiz-adv-x="917" 
d="M864 844l-61 -68q-145 142 -309 142q-112 0 -186.5 -57t-74.5 -130q2 -32 10.5 -52.5t21.5 -36.5t45.5 -31t67 -27t103.5 -33q131 -41 181 -64q139 -59 139 -202q0 -129 -101 -219.5t-282 -90.5q-116 0 -209 44.5t-193 136.5l66 63q93 -84 172 -123t174 -39
q127 0 202 62.5t75 161.5q0 53 -35 88q-30 33 -76 51t-174 55q-117 37 -178.5 72t-83 73t-21.5 97q0 119 102.5 200.5t260.5 81.5q202 0 364 -155z" />
    <glyph glyph-name="t" unicode="t" horiz-adv-x="671" 
d="M414 901l-135 -639q-15 -70 -15 -102q0 -52 25 -74.5t84 -22.5q66 0 164 29l14 -76q-81 -34 -180 -34q-105 0 -155 41.5t-50 132.5q0 56 14 116l135 629h-192l14 74h193l76 350h98l-74 -350h281l-15 -74h-282z" />
    <glyph glyph-name="u" unicode="u" horiz-adv-x="1054" 
d="M891 975h98l-205 -975h-94l35 164q-60 -93 -149.5 -141t-182.5 -48q-145 0 -220 68.5t-75 183.5q0 41 17 135l129 613h98l-131 -623q-14 -69 -14 -114q0 -90 51.5 -135.5t142.5 -45.5q138 0 245 102.5t144 286.5z" />
    <glyph glyph-name="v" unicode="v" horiz-adv-x="919" 
d="M866 975h103l-553 -975h-137l-136 975h95l55 -397l67 -508q97 185 281 505z" />
    <glyph glyph-name="w" unicode="w" horiz-adv-x="1413" 
d="M1350 977h94l-490 -977h-116l-31 360q-26 284 -37 510q-86 -191 -248 -516l-174 -354h-129l-65 977h94l24 -408q1 -11 3 -37.5t3.5 -55.5t2.5 -58q15 -236 18 -334l109 217l131 266l206 410h93l34 -410q9 -103 9 -104q24 -270 26 -385q78 171 236 485z" />
    <glyph glyph-name="x" unicode="x" horiz-adv-x="905" 
d="M950 975l-426 -465l246 -510h-102l-211 451l-406 -451h-119l474 516l-226 459h103l192 -404l356 404h119z" />
    <glyph glyph-name="y" unicode="y" horiz-adv-x="915" 
d="M864 975h101l-629 -1141q-33 -59 -53.5 -90t-45.5 -61.5t-50 -43.5t-57.5 -21.5t-78.5 -10.5q-61 0 -123 16l27 78q49 -12 86 -12q68 0 112.5 39t106.5 153l29 51l-146 1043h93l49 -348q28 -189 77 -576l52 96q145 283 245 459z" />
    <glyph glyph-name="z" unicode="z" horiz-adv-x="942" 
d="M950 975l-14 -70l-805 -823h631l-17 -82h-761l14 72l803 819h-588l16 84h721z" />
    <glyph glyph-name="braceleft" unicode="{" horiz-adv-x="737" 
d="M866 1528l-16 -76h-92q-71 0 -107 -22q-33 -20 -45 -58q-13 -37 -33 -135l-73 -346q-25 -116 -80 -179t-166 -81l-2 -4q149 -25 149 -160q0 -45 -12 -98l-72 -342l-14 -66q-10 -55 -10 -76q0 -39 26.5 -57t90.5 -18h90l-15 -74h-108q-106 0 -145 25.5t-39 103.5
q0 51 22 164l70 327q6 24 6 68q0 73 -43 106t-135 33l26 133q111 0 175 49.5t87 157.5l70 332q18 69 31 112t31.5 78t35 52t46.5 29.5t61 16t82 5.5h108z" />
    <glyph glyph-name="bar" unicode="|" horiz-adv-x="772" 
d="M434 1638v-1925h-96v1925h96z" />
    <glyph glyph-name="braceright" unicode="}" horiz-adv-x="737" 
d="M309 1528h109q105 0 143.5 -25.5t38.5 -99.5q0 -40 -25 -168l-69 -332q-8 -27 -8 -63q0 -74 44.5 -109t137.5 -35l-29 -133q-111 0 -175.5 -49t-88.5 -158l-68 -327q-16 -68 -28.5 -111.5t-30 -78t-34.5 -52.5t-47 -30t-61.5 -15.5t-82.5 -5.5h-109l17 74h90q70 0 106 22
q33 20 45 57q16 46 35 138l72 342q26 118 81 179t167 79l2 4q-80 13 -116 54t-36 110q0 25 12 96l76 346q25 113 25 139q0 42 -26 59t-93 17h-92z" />
    <glyph glyph-name="asciitilde" unicode="~" horiz-adv-x="1228" 
d="M651 727q89 -34 134.5 -47.5t86.5 -13.5q66 0 94.5 30t34.5 95h91q-15 -209 -218 -209q-46 0 -97.5 14.5t-137.5 48.5q-92 36 -145.5 51t-104.5 15q-70 0 -111 -34t-47 -91h-92q8 92 74.5 150.5t183.5 58.5q35 0 77 -9.5t72.5 -20t104.5 -38.5z" />
    <glyph glyph-name="uni00A0" unicode="&#xa0;" horiz-adv-x="477" 
 />
    <glyph glyph-name="exclamdown" unicode="&#xa1;" horiz-adv-x="423" 
d="M229 819l31 158h139l-32 -158h-138zM-33 -477l94 434l162 649h62l-121 -651l-92 -432h-105z" />
    <glyph glyph-name="cent" unicode="&#xa2;" 
d="M760 913l-182 -856q74 5 146.5 43.5t168.5 128.5l65 -63q-197 -191 -397 -191l-39 -180h-90l39 187q-142 20 -219.5 113.5t-77.5 240.5q-1 89 18.5 180t62 177t102.5 153t145.5 109t185.5 44l43 201h90l-43 -205q91 -12 160 -59t127 -133l-74 -51q-57 77 -111 115.5
t-120 45.5zM489 63l181 852q-94 -6 -172.5 -64t-125 -143t-72 -180t-24.5 -184q0 -113 54 -188.5t159 -92.5z" />
    <glyph glyph-name="sterling" unicode="&#xa3;" 
d="M473 903q0 -42 4 -168l2 -47h479l-14 -78h-463v-6q0 -321 -205 -473q105 -2 265 -39q113 -31 215 -31q112 0 268 84l37 -82q-155 -90 -305 -90q-97 0 -254 37q-137 35 -217 35q-23 0 -46 -1.5t-41.5 -3.5t-37.5 -6t-32.5 -7t-29 -8t-25 -8.5t-21.5 -9t-17.5 -7.5
t-14.5 -6.5t-10 -5.5l-14 88q209 78 300 204t89 336h-203l15 78h188q-4 180 -4 232q0 215 108 356q107 143 359 143q228 0 412 -166l-70 -67q-166 147 -354 147q-187 0 -275 -114t-88 -316z" />
    <glyph glyph-name="currency" unicode="&#xa4;" 
d="M991 1159l74 -74l-141 -141q86 -109 86 -248q0 -138 -86 -247l139 -140l-74 -73l-143 141q-107 -72 -238 -72q-142 0 -243 76l-148 -148l-74 74l146 146q-84 110 -84 243q0 135 82 242l-146 145l76 74l145 -149q102 79 246 79q130 0 236 -71zM309 696q0 -121 86 -204
q85 -82 213 -82t213 82q86 83 86 204q0 122 -86 205q-85 82 -213 82t-213 -82q-86 -83 -86 -205z" />
    <glyph glyph-name="yen" unicode="&#xa5;" 
d="M1305 1393l-449 -549h264l-18 -84h-316l-106 -131l-23 -109h394l-17 -82h-393l-92 -438h-98l94 438h-393l18 82h391l25 111l-51 129h-316l19 84h264l-213 549h100l254 -678l539 678h123z" />
    <glyph glyph-name="brokenbar" unicode="&#xa6;" horiz-adv-x="772" 
d="M434 1638v-819h-96v819h96zM434 532v-819h-96v819h96z" />
    <glyph glyph-name="section" unicode="&#xa7;" 
d="M1008 186q0 -136 -114 -219.5t-280 -83.5q-125 0 -226.5 35t-219.5 115l55 73q107 -77 194 -107t193 -30q133 0 217 60.5t84 154.5q-3 30 -10.5 51.5t-28 39.5t-41 30t-65 26t-83.5 23.5t-112 26.5q-232 51 -333 120.5t-101 192.5q0 94 66 161t186 103q-99 36 -142.5 87
t-43.5 135q0 86 55.5 155.5t145 106.5t192.5 37q125 0 226.5 -35t207.5 -111l-57 -71q-107 76 -189.5 105.5t-183.5 29.5q-129 0 -215 -62t-86 -151q7 -85 74.5 -122t265.5 -79q232 -52 333 -120t101 -191q0 -98 -68 -165.5t-194 -103.5q107 -36 152 -84t45 -133zM612 457
l70 -17q134 26 214.5 85t80.5 143q0 71 -49 114q-47 42 -121 68.5t-209 54.5l-84 19q-130 -26 -205.5 -83.5t-75.5 -142.5q0 -68 48 -116q47 -41 118 -66.5t213 -58.5z" />
    <glyph glyph-name="dieresis" unicode="&#xa8;" horiz-adv-x="688" 
d="M420 1386l-37 -176h-102l36 176h103zM752 1386l-37 -176h-103l37 176h103z" />
    <glyph glyph-name="copyright" unicode="&#xa9;" horiz-adv-x="1753" 
d="M123 727q-3 206 96.5 380.5t274.5 275.5t383 98q154 3 294.5 -56t241.5 -160t160 -242t57 -296q2 -155 -57 -296t-160 -242t-241.5 -160t-294.5 -56q-205 -4 -380 96.5t-276 276t-98 381.5zM1542 727q3 185 -84.5 342.5t-242 249t-338.5 88.5q-138 2 -262.5 -51.5
t-213.5 -145.5t-140.5 -218.5t-49.5 -264.5q-2 -138 49.5 -264.5t140.5 -218.5t213.5 -145.5t262.5 -51.5q184 -3 338.5 88.5t242 249t84.5 342.5zM463 727q0 192 118 322.5t304 130.5q242 0 360 -219l-82 -41q-104 180 -278 180q-137 0 -229.5 -110.5t-92.5 -262.5
q0 -156 90.5 -262.5t233.5 -106.5q92 0 160 46.5t124 146.5l80 -41q-63 -122 -150.5 -179t-215.5 -57q-186 0 -304 130.5t-118 322.5z" />
    <glyph glyph-name="ordfeminine" unicode="&#xaa;" horiz-adv-x="808" 
d="M854 1276q0 -7 -4 -39l-111 -524h-84l23 112q-98 -133 -272 -133q-110 0 -169 44.5t-59 121.5q0 117 93 182.5t294 98.5l183 30l10 48q2 10 2 38q0 68 -37.5 101t-120.5 33q-71 0 -136.5 -30t-146.5 -97l-51 51q154 147 340 147q122 0 184 -51t62 -133zM711 991l22 109
l-155 -29q-170 -33 -243 -79t-73 -126q0 -47 38.5 -72.5t107.5 -25.5q117 0 198.5 60t104.5 163z" />
    <glyph glyph-name="guillemotleft" unicode="&#xab;" horiz-adv-x="1099" 
d="M635 952l-383 -444l186 -424h-104l-191 434l373 434h119zM1057 952l-383 -444l186 -424h-104l-191 434l373 434h119z" />
    <glyph glyph-name="logicalnot" unicode="&#xac;" horiz-adv-x="1228" 
d="M82 678h1065v-512h-90v426h-975v86z" />
    <glyph glyph-name="registered" unicode="&#xae;" horiz-adv-x="1161" 
d="M1034 1024q0 -192 -130 -322.5t-322 -130.5t-322.5 130.5t-130.5 322.5t130.5 322.5t322.5 130.5t322 -130.5t130 -322.5zM963 1024q0 167 -108 279t-273 112t-273 -112t-108 -279t108 -279t273 -112t273 112t108 279zM414 1282v-506h71v199h117l121 -199h82l-131 209
q100 37 100 141q0 67 -45.5 111.5t-114.5 44.5h-200zM596 1038h-111v179h111q50 0 76 -24.5t26 -66.5q0 -88 -102 -88z" />
    <glyph glyph-name="overscore" unicode="&#xaf;" horiz-adv-x="737" 
d="M784 1305l-18 -82h-483l18 82h483z" />
    <glyph glyph-name="degree" unicode="&#xb0;" horiz-adv-x="790" 
d="M668 1204q0 -115 -80 -192q-79 -76 -193 -76q-113 0 -192 76q-80 77 -80 192q0 114 80 191q81 78 192 78q112 0 193 -78q80 -77 80 -191zM582 1204q0 82 -52.5 135.5t-134.5 53.5q-81 0 -133.5 -53.5t-52.5 -135.5q0 -84 52 -137t134 -53t134.5 53t52.5 137z" />
    <glyph glyph-name="plusminus" unicode="&#xb1;" horiz-adv-x="1228" 
d="M659 1311v-490h488v-86h-488v-489h-90v489h-487v86h487v490h90zM1147 86v-86h-1065v86h1065z" />
    <glyph glyph-name="uni00B2" unicode="&#xb2;" horiz-adv-x="831" 
d="M246 698h524l-18 -80h-617l8 39q28 124 114 205t255 156q119 54 174 82q111 64 111 160q0 60 -51 97.5t-125 37.5q-67 0 -123 -23t-142 -86l-57 62q92 71 165 99t150 28q119 0 194 -56.5t75 -146.5q0 -76 -31 -127q-29 -46 -78.5 -78.5t-173.5 -91.5l-57 -27
q-147 -72 -205 -119q-66 -50 -92 -131z" />
    <glyph glyph-name="uni00B3" unicode="&#xb3;" horiz-adv-x="833" 
d="M889 1454l-19 -84l-348 -256q123 6 196 -54t73 -161q0 -56 -21.5 -108.5t-61.5 -96t-105 -70t-144 -26.5q-82 0 -157.5 23.5t-168.5 78.5l53 66q149 -90 277 -90q104 0 170.5 62.5t66.5 156.5q0 70 -51.5 111t-144.5 41q-45 0 -101 -17l-41 60l394 288h-449l17 76h565z
" />
    <glyph glyph-name="acute" unicode="&#xb4;" horiz-adv-x="532" 
d="M604 1417l-248 -282h-92l211 282h129z" />
    <glyph glyph-name="uni00B5" unicode="&#xb5;" horiz-adv-x="1071" 
d="M903 975h103l-207 -975h-97l31 152q-61 -87 -147.5 -133t-175.5 -46q-186 0 -242 109l-96 -457h-101l285 1350h100l-133 -639q-10 -72 -10 -105q0 -87 44.5 -128.5t141.5 -41.5q139 0 248 102t146 283z" />
    <glyph glyph-name="paragraph" unicode="&#xb6;" horiz-adv-x="1263" 
d="M805 1454v-1659h-94v789h-158q-211 0 -338 117.5t-127 318.5t127 317.5t338 116.5h252zM1079 1454v-1659h-94v1659h94z" />
    <glyph glyph-name="middot" unicode="&#xb7;" horiz-adv-x="395" 
d="M307 688l-31 -158h-139l33 158h137z" />
    <glyph glyph-name="cedilla" unicode="&#xb8;" horiz-adv-x="667" 
d="M373 -287q0 -76 -58 -127t-155 -51q-120 0 -221 66l47 65q100 -53 166 -53q71 0 106 27t35 73q0 37 -33.5 58.5t-87.5 21.5q-35 0 -59 -6l-37 47l133 201l59 -35l-96 -143q6 2 25 2q69 0 122.5 -38.5t53.5 -107.5z" />
    <glyph glyph-name="uni00B9" unicode="&#xb9;" horiz-adv-x="661" 
d="M545 1454h76l-181 -836h-88l152 711l-207 -133l-43 70z" />
    <glyph glyph-name="ordmasculine" unicode="&#xba;" horiz-adv-x="888" 
d="M926 1178q1 -63 -16.5 -130t-54 -130.5t-86 -113.5t-119.5 -79t-148 -27q-129 0 -208 79t-79 208q-2 79 26.5 163t80 157t135 119t182.5 44q129 0 208 -80.5t79 -209.5zM303 989q0 -101 52.5 -159t148.5 -58q75 -2 140 35.5t106.5 98t65 132t22.5 138.5q0 101 -53.5 160
t-149.5 59q-76 2 -141 -36.5t-106 -99.5t-64 -132.5t-21 -137.5z" />
    <glyph glyph-name="guillemotright" unicode="&#xbb;" horiz-adv-x="1099" 
d="M350 952l193 -434l-375 -434h-117l381 444l-184 424h102zM772 952l193 -434l-375 -434h-117l381 444l-184 424h102z" />
    <glyph glyph-name="onequarter" unicode="&#xbc;" horiz-adv-x="1748" 
d="M532 1393h76l-180 -836h-88l152 711l-207 -133l-43 69zM1464 1419l64 -51l-1284 -1395l-60 54zM1503 281h123l-18 -76h-125l-41 -205h-92l43 205h-445l19 84l467 547h112l-481 -555h348l37 192h92z" />
    <glyph glyph-name="onehalf" unicode="&#xbd;" horiz-adv-x="1867" 
d="M532 1393h76l-180 -836h-88l152 711l-207 -133l-43 69zM1464 1419l64 -51l-1284 -1395l-60 54zM1151 80h524l-18 -80h-617l9 39q28 124 113.5 204.5t254.5 155.5q119 54 174 82q111 64 111 160q0 60 -51 97.5t-125 37.5q-68 0 -123 -22.5t-141 -85.5l-58 61
q92 71 165.5 99t150.5 28q119 0 193.5 -56t74.5 -147q0 -76 -31 -127q-29 -46 -78.5 -78.5t-173.5 -91.5l-57 -26q-147 -72 -205 -119q-66 -50 -92 -131z" />
    <glyph glyph-name="threequarters" unicode="&#xbe;" horiz-adv-x="1949" 
d="M877 1393l-19 -84l-348 -256q123 6 195.5 -54t72.5 -161q0 -56 -21.5 -108.5t-61.5 -96t-105 -70t-144 -26.5q-82 0 -157 23.5t-168 78.5l53 66q150 -91 277 -91q103 0 170 63t67 157q0 70 -51.5 110.5t-144.5 40.5q-48 0 -101 -16l-41 59l393 289h-448l16 76h566z
M1665 1419l64 -51l-1285 -1395l-59 54zM1704 281h123l-19 -76h-125l-41 -205h-92l43 205h-444l18 84l467 547h113l-481 -555h348l37 192h92z" />
    <glyph glyph-name="questiondown" unicode="&#xbf;" horiz-adv-x="907" 
d="M502 819l30 158h140l-33 -158h-137zM-125 -215q0 92 33 154t86 112q64 60 153 127q81 61 103 80q109 86 151 137q41 50 70 144l23 77h71l-20 -96q-18 -70 -31.5 -107.5t-42 -76.5t-62.5 -68t-104 -82l-39 -28q-100 -74 -176 -142q-121 -105 -121 -231q0 -93 71 -147
t193 -54q213 0 424 178l58 -73q-248 -195 -490 -195q-144 0 -248 72q-102 70 -102 219z" />
    <glyph glyph-name="Agrave" unicode="&#xc0;" horiz-adv-x="1300" 
d="M1049 0l-68 440h-666l-254 -440h-114l841 1454h138l223 -1454h-100zM367 530h602l-33 213l-10 64q-71 464 -82 569q-129 -238 -357 -635zM717 1845h104l94 -282h-73z" />
    <glyph glyph-name="Aacute" unicode="&#xc1;" horiz-adv-x="1300" 
d="M1049 0l-68 440h-666l-254 -440h-114l841 1454h138l223 -1454h-100zM367 530h602l-33 213l-10 64q-71 464 -82 569q-129 -238 -357 -635zM1174 1845l-248 -282h-92l210 282h130z" />
    <glyph glyph-name="Acircumflex" unicode="&#xc2;" horiz-adv-x="1300" 
d="M1049 0l-68 440h-666l-254 -440h-114l841 1454h138l223 -1454h-100zM367 530h602l-33 213l-10 64q-71 464 -82 569q-129 -238 -357 -635zM1053 1563l-123 217l-219 -217h-99l260 282h125l136 -282h-80z" />
    <glyph glyph-name="Atilde" unicode="&#xc3;" horiz-adv-x="1300" 
d="M1049 0l-68 440h-666l-254 -440h-114l841 1454h138l223 -1454h-100zM367 530h602l-33 213l-10 64q-71 464 -82 569q-129 -238 -357 -635zM940 1718q67 -45 98 -45q34 0 53.5 26.5t32.5 80.5h80q-19 -89 -60.5 -141t-101.5 -52q-21 0 -41.5 7t-36.5 15.5t-51 30.5
q-76 54 -127 54q-72 0 -98 -107h-80q19 88 67 140.5t118 52.5q35 0 63.5 -13t83.5 -49z" />
    <glyph glyph-name="Adieresis" unicode="&#xc4;" horiz-adv-x="1300" 
d="M1049 0l-68 440h-666l-254 -440h-114l841 1454h138l223 -1454h-100zM367 530h602l-33 213l-10 64q-71 464 -82 569q-129 -238 -357 -635zM821 1815l-37 -177h-102l37 177h102zM1153 1815l-37 -177h-102l37 177h102z" />
    <glyph glyph-name="Aring" unicode="&#xc5;" horiz-adv-x="1306" 
d="M1055 0l-68 440h-672l-254 -440h-114l835 1446q-47 25 -74.5 71t-27.5 103q0 98 68 166q67 67 161 67q92 0 146.5 -55t54.5 -141q0 -84 -47.5 -145.5t-126.5 -81.5l219 -1430h-100zM758 1620q0 -54 35 -89.5t86 -35.5q66 0 109.5 45t43.5 113q0 62 -32 97.5t-91 35.5
q-61 0 -106 -50t-45 -116zM367 530h606l-33 209q-73 492 -92 643q-16 -30 -279 -499l-84 -146z" />
    <glyph glyph-name="AE" unicode="&#xc6;" horiz-adv-x="1898" 
d="M1970 1368h-815l-123 -577h756l-19 -89h-755l-131 -616h831l-18 -86h-936l94 440h-487l-326 -440h-117l1075 1454h992zM872 530l179 838l-619 -838h440z" />
    <glyph glyph-name="Ccedilla" unicode="&#xc7;" horiz-adv-x="1366" 
d="M1409 1253l-68 -57q-94 106 -185 152.5t-208 46.5q-131 3 -246.5 -47.5t-197.5 -136.5t-141.5 -197t-87.5 -230t-27 -233q0 -227 119.5 -358.5t328.5 -131.5q136 0 246 58q115 60 250 184l65 -65q-267 -267 -552 -267h-19l-78 -114q6 2 25 2q69 0 122.5 -38.5
t53.5 -107.5q0 -76 -58 -127t-155 -51q-120 0 -221 66l47 65q100 -53 166 -53q71 0 106 27t35 73q0 37 -33.5 58.5t-87.5 21.5q-35 0 -59 -6l-37 47l94 143q-220 26 -344 181q-119 152 -119 381q0 209 86 428q85 217 269 366q182 150 456 150q142 0 252.5 -55.5
t202.5 -174.5z" />
    <glyph glyph-name="Egrave" unicode="&#xc8;" horiz-adv-x="1222" 
d="M1315 1454l-21 -88h-815l-123 -575h756l-18 -89h-756l-131 -614h831l-18 -88h-936l309 1454h922zM713 1845h104l94 -282h-73z" />
    <glyph glyph-name="Eacute" unicode="&#xc9;" horiz-adv-x="1222" 
d="M1315 1454l-21 -88h-815l-123 -575h756l-18 -89h-756l-131 -614h831l-18 -88h-936l309 1454h922zM1169 1845l-247 -282h-93l211 282h129z" />
    <glyph glyph-name="Ecircumflex" unicode="&#xca;" horiz-adv-x="1222" 
d="M1315 1454l-21 -88h-815l-123 -575h756l-18 -89h-756l-131 -614h831l-18 -88h-936l309 1454h922zM1049 1563l-123 217l-219 -217h-99l260 282h125l135 -282h-79z" />
    <glyph glyph-name="Edieresis" unicode="&#xcb;" horiz-adv-x="1222" 
d="M1315 1454l-21 -88h-815l-123 -575h756l-18 -89h-756l-131 -614h831l-18 -88h-936l309 1454h922zM817 1815l-37 -177h-102l37 177h102zM1149 1815l-37 -177h-102l37 177h102z" />
    <glyph glyph-name="Igrave" unicode="&#xcc;" horiz-adv-x="483" 
d="M500 1454l-310 -1454h-106l309 1454h107zM305 1845h105l94 -282h-74z" />
    <glyph glyph-name="Iacute" unicode="&#xcd;" horiz-adv-x="483" 
d="M500 1454l-310 -1454h-106l309 1454h107zM762 1845l-248 -282h-92l211 282h129z" />
    <glyph glyph-name="Icircumflex" unicode="&#xce;" horiz-adv-x="483" 
d="M500 1454l-310 -1454h-106l309 1454h107zM641 1563l-123 217l-219 -217h-98l260 282h125l135 -282h-80z" />
    <glyph glyph-name="Idieresis" unicode="&#xcf;" horiz-adv-x="483" 
d="M500 1454l-310 -1454h-106l309 1454h107zM410 1815l-37 -177h-103l37 177h103zM741 1815l-36 -177h-103l37 177h102z" />
    <glyph glyph-name="Eth" unicode="&#xd0;" horiz-adv-x="1470" 
d="M1425 909q1 -129 -27 -256.5t-90 -247t-150.5 -210.5t-219 -144.5t-285.5 -50.5h-516l150 707h-189l21 86h186l141 661h424q257 0 406 -151.5t149 -393.5zM1321 897q0 224 -122 347.5t-357 123.5h-307l-123 -575h409l-20 -86h-408l-131 -621h375q139 -3 255.5 47
t194.5 133.5t132.5 192t78.5 219.5t23 219z" />
    <glyph glyph-name="Ntilde" unicode="&#xd1;" horiz-adv-x="1486" 
d="M1401 1454h102l-309 -1454h-123l-332 727l-69 154q-128 278 -207 460q-68 -363 -111 -555l-166 -786h-102l309 1454h121l326 -715q106 -231 188 -420l94 -206q66 348 113 563zM1034 1718q67 -45 99 -45q34 0 53.5 26.5t32.5 80.5h79q-19 -90 -60 -141.5t-101 -51.5
q-21 0 -41.5 7t-36.5 15.5t-51 30.5q-76 54 -127 54q-73 0 -99 -107h-80q19 88 67 140.5t118 52.5q35 0 63.5 -13t83.5 -49z" />
    <glyph glyph-name="Ograve" unicode="&#xd2;" horiz-adv-x="1519" 
d="M1475 897q0 -206 -86 -422q-82 -213 -261 -360q-176 -144 -428 -144q-263 0 -409 155.5t-146 432.5q0 209 88 422t265 358q175 144 428 144q262 0 405.5 -156t143.5 -430zM250 557q0 -235 121.5 -366.5t326.5 -131.5q124 -3 234 47t189 136t136.5 196t85.5 228.5
t27 232.5q0 233 -119 364.5t-327 131.5q-124 3 -234.5 -46.5t-189.5 -135t-137 -195t-86 -228.5t-27 -233zM831 1845h105l94 -282h-74z" />
    <glyph glyph-name="Oacute" unicode="&#xd3;" horiz-adv-x="1519" 
d="M1475 897q0 -206 -86 -422q-82 -213 -261 -360q-176 -144 -428 -144q-263 0 -409 155.5t-146 432.5q0 209 88 422t265 358q175 144 428 144q262 0 405.5 -156t143.5 -430zM250 557q0 -235 121.5 -366.5t326.5 -131.5q124 -3 234 47t189 136t136.5 196t85.5 228.5
t27 232.5q0 233 -119 364.5t-327 131.5q-124 3 -234.5 -46.5t-189.5 -135t-137 -195t-86 -228.5t-27 -233zM1288 1845l-248 -282h-92l211 282h129z" />
    <glyph glyph-name="Ocircumflex" unicode="&#xd4;" horiz-adv-x="1519" 
d="M1475 897q0 -206 -86 -422q-82 -213 -261 -360q-176 -144 -428 -144q-263 0 -409 155.5t-146 432.5q0 209 88 422t265 358q175 144 428 144q262 0 405.5 -156t143.5 -430zM250 557q0 -235 121.5 -366.5t326.5 -131.5q124 -3 234 47t189 136t136.5 196t85.5 228.5
t27 232.5q0 233 -119 364.5t-327 131.5q-124 3 -234.5 -46.5t-189.5 -135t-137 -195t-86 -228.5t-27 -233zM1167 1563l-123 217l-219 -217h-98l260 282h125l135 -282h-80z" />
    <glyph glyph-name="Otilde" unicode="&#xd5;" horiz-adv-x="1519" 
d="M1475 897q0 -206 -86 -422q-82 -213 -261 -360q-176 -144 -428 -144q-263 0 -409 155.5t-146 432.5q0 209 88 422t265 358q175 144 428 144q262 0 405.5 -156t143.5 -430zM250 557q0 -235 121.5 -366.5t326.5 -131.5q124 -3 234 47t189 136t136.5 196t85.5 228.5
t27 232.5q0 233 -119 364.5t-327 131.5q-124 3 -234.5 -46.5t-189.5 -135t-137 -195t-86 -228.5t-27 -233zM1055 1718q67 -45 98 -45q34 0 53.5 26.5t32.5 80.5h80q-19 -89 -60.5 -141t-101.5 -52q-21 0 -41.5 7t-36.5 15.5t-51 30.5q-76 54 -127 54q-72 0 -98 -107h-80
q20 88 67 140.5t117 52.5q35 0 64.5 -13.5t83.5 -48.5z" />
    <glyph glyph-name="Odieresis" unicode="&#xd6;" horiz-adv-x="1519" 
d="M1475 897q0 -206 -86 -422q-82 -213 -261 -360q-176 -144 -428 -144q-263 0 -409 155.5t-146 432.5q0 209 88 422t265 358q175 144 428 144q262 0 405.5 -156t143.5 -430zM250 557q0 -235 121.5 -366.5t326.5 -131.5q124 -3 234 47t189 136t136.5 196t85.5 228.5
t27 232.5q0 233 -119 364.5t-327 131.5q-124 3 -234.5 -46.5t-189.5 -135t-137 -195t-86 -228.5t-27 -233zM936 1815l-37 -177h-102l37 177h102zM1268 1815l-37 -177h-103l37 177h103z" />
    <glyph glyph-name="multiply" unicode="&#xd7;" horiz-adv-x="1228" 
d="M1061 1022l-387 -387l387 -387l-60 -60l-387 387l-389 -387l-59 60l387 387l-387 387l59 61l389 -387l387 387z" />
    <glyph glyph-name="Oslash" unicode="&#xd8;" horiz-adv-x="1519" 
d="M1559 1389l-160 -158q76 -137 76 -334q0 -206 -86 -422q-82 -213 -261 -360q-176 -144 -428 -144q-273 0 -417 164l-133 -131l-58 62l141 139q-88 140 -88 354q0 209 88 422t265 358q175 144 428 144q282 0 424 -178l147 145zM309 281l967 952q-122 162 -352 162
q-124 3 -234.5 -46.5t-189.5 -135t-137 -195t-86 -228.5t-27 -233q0 -161 59 -276zM1321 1155l-965 -948q60 -72 148 -110t194 -38q124 -3 234 47t189 136t136.5 196t85.5 228.5t27 232.5q0 149 -49 256z" />
    <glyph glyph-name="Ugrave" unicode="&#xd9;" horiz-adv-x="1394" 
d="M1421 1454l-217 -1012q-49 -234 -187 -351.5t-394 -117.5q-229 0 -345 92t-116 265q0 48 20 151l207 973h105l-209 -983q-19 -90 -19 -131q0 -136 93 -207.5t270 -71.5q197 0 312.5 97t158.5 293l215 1003h106zM743 1845h105l94 -282h-74z" />
    <glyph glyph-name="Uacute" unicode="&#xda;" horiz-adv-x="1394" 
d="M1421 1454l-217 -1012q-49 -234 -187 -351.5t-394 -117.5q-229 0 -345 92t-116 265q0 48 20 151l207 973h105l-209 -983q-19 -90 -19 -131q0 -136 93 -207.5t270 -71.5q197 0 312.5 97t158.5 293l215 1003h106zM1200 1845l-248 -282h-92l211 282h129z" />
    <glyph glyph-name="Ucircumflex" unicode="&#xdb;" horiz-adv-x="1394" 
d="M1421 1454l-217 -1012q-49 -234 -187 -351.5t-394 -117.5q-229 0 -345 92t-116 265q0 48 20 151l207 973h105l-209 -983q-19 -90 -19 -131q0 -136 93 -207.5t270 -71.5q197 0 312.5 97t158.5 293l215 1003h106zM1079 1563l-123 217l-219 -217h-98l260 282h125l135 -282
h-80z" />
    <glyph glyph-name="Udieresis" unicode="&#xdc;" horiz-adv-x="1394" 
d="M1421 1454l-217 -1012q-49 -234 -187 -351.5t-394 -117.5q-229 0 -345 92t-116 265q0 48 20 151l207 973h105l-209 -983q-19 -90 -19 -131q0 -136 93 -207.5t270 -71.5q197 0 312.5 97t158.5 293l215 1003h106zM848 1815l-37 -177h-102l36 177h103zM1180 1815l-37 -177
h-103l37 177h103z" />
    <glyph glyph-name="Yacute" unicode="&#xdd;" horiz-adv-x="1245" 
d="M1274 1454h123l-695 -825l-131 -629h-106l135 631l-338 823h107l295 -735zM1118 1845l-248 -282h-92l211 282h129z" />
    <glyph glyph-name="Thorn" unicode="&#xde;" horiz-adv-x="1286" 
d="M1282 827q0 -91 -33 -175.5t-95.5 -154t-164.5 -111.5t-229 -42h-496l-74 -344h-106l309 1454h107l-60 -278h469q167 0 270 -93.5t103 -255.5zM1180 823q0 121 -81 192.5t-218 71.5h-459l-139 -655h438q238 0 348 113q111 114 111 278z" />
    <glyph glyph-name="germandbls" unicode="&#xdf;" horiz-adv-x="1136" 
d="M1057 477q0 -134 -57 -244.5t-170 -177.5t-263 -67q-171 0 -278 45l33 76q130 -41 249 -41q174 0 282 117.5t108 287.5q0 150 -94.5 234t-272.5 84h-45l16 73h45q91 0 162.5 29t113 76t62.5 99.5t21 105.5q0 104 -66 165.5t-182 61.5q-141 0 -221.5 -77t-116.5 -239
l-229 -1085h-99l234 1096q79 387 434 387q162 0 252 -90q88 -88 88 -215q0 -115 -67.5 -211t-186.5 -138q112 -37 180 -131t68 -221z" />
    <glyph glyph-name="agrave" unicode="&#xe0;" horiz-adv-x="1091" 
d="M934 975h94l-207 -975h-90l43 201q-145 -224 -364 -224q-164 0 -250 93.5t-86 261.5q-1 88 20 181t66 180.5t107.5 155.5t150.5 108t188 38q118 0 192 -50.5t101 -141.5zM848 647q0 127 -60.5 197.5t-177.5 70.5q-100 4 -186 -51t-139.5 -142.5t-83.5 -188.5t-29 -195
q0 -142 58 -210.5t176 -68.5q71 -3 139.5 31t123 94t96 136t63 161.5t20.5 165.5zM520 1417h105l94 -282h-74z" />
    <glyph glyph-name="aacute" unicode="&#xe1;" horiz-adv-x="1091" 
d="M934 975h94l-207 -975h-90l43 201q-145 -224 -364 -224q-164 0 -250 93.5t-86 261.5q-1 88 20 181t66 180.5t107.5 155.5t150.5 108t188 38q118 0 192 -50.5t101 -141.5zM848 647q0 127 -60.5 197.5t-177.5 70.5q-100 4 -186 -51t-139.5 -142.5t-83.5 -188.5t-29 -195
q0 -142 58 -210.5t176 -68.5q71 -3 139.5 31t123 94t96 136t63 161.5t20.5 165.5zM977 1417l-248 -282h-92l211 282h129z" />
    <glyph glyph-name="acircumflex" unicode="&#xe2;" horiz-adv-x="1091" 
d="M934 975h94l-207 -975h-90l43 201q-145 -224 -364 -224q-164 0 -250 93.5t-86 261.5q-1 88 20 181t66 180.5t107.5 155.5t150.5 108t188 38q118 0 192 -50.5t101 -141.5zM848 647q0 127 -60.5 197.5t-177.5 70.5q-100 4 -186 -51t-139.5 -142.5t-83.5 -188.5t-29 -195
q0 -142 58 -210.5t176 -68.5q71 -3 139.5 31t123 94t96 136t63 161.5t20.5 165.5zM856 1135l-123 217l-219 -217h-98l260 282h125l135 -282h-80z" />
    <glyph glyph-name="atilde" unicode="&#xe3;" horiz-adv-x="1091" 
d="M934 975h94l-207 -975h-90l43 201q-145 -224 -364 -224q-164 0 -250 93.5t-86 261.5q-1 88 20 181t66 180.5t107.5 155.5t150.5 108t188 38q118 0 192 -50.5t101 -141.5zM848 647q0 127 -60.5 197.5t-177.5 70.5q-100 4 -186 -51t-139.5 -142.5t-83.5 -188.5t-29 -195
q0 -142 58 -210.5t176 -68.5q71 -3 139.5 31t123 94t96 136t63 161.5t20.5 165.5zM743 1290q67 -45 99 -45q34 0 53.5 26.5t32.5 80.5h80q-19 -89 -60.5 -141t-101.5 -52q-21 0 -41.5 7t-36.5 15.5t-51 30.5q-76 54 -127 54q-72 0 -98 -107h-80q20 88 67 140.5t117 52.5
q35 0 63.5 -13t83.5 -49z" />
    <glyph glyph-name="adieresis" unicode="&#xe4;" horiz-adv-x="1091" 
d="M934 975h94l-207 -975h-90l43 201q-145 -224 -364 -224q-164 0 -250 93.5t-86 261.5q-1 88 20 181t66 180.5t107.5 155.5t150.5 108t188 38q118 0 192 -50.5t101 -141.5zM848 647q0 127 -60.5 197.5t-177.5 70.5q-100 4 -186 -51t-139.5 -142.5t-83.5 -188.5t-29 -195
q0 -142 58 -210.5t176 -68.5q71 -3 139.5 31t123 94t96 136t63 161.5t20.5 165.5zM625 1386l-37 -176h-103l37 176h103zM956 1386l-36 -176h-103l37 176h102z" />
    <glyph glyph-name="aring" unicode="&#xe5;" horiz-adv-x="1091" 
d="M934 975h94l-207 -975h-90l43 201q-145 -224 -364 -224q-164 0 -250 93.5t-86 261.5q-1 88 20 181t66 180.5t107.5 155.5t150.5 108t188 38q118 0 192 -50.5t101 -141.5zM848 647q0 127 -60.5 197.5t-177.5 70.5q-100 4 -186 -51t-139.5 -142.5t-83.5 -188.5t-29 -195
q0 -142 58 -210.5t176 -68.5q71 -3 139.5 31t123 94t96 136t63 161.5t20.5 165.5zM911 1329q0 -89 -57 -149t-147 -60q-79 0 -128 47t-49 121q0 88 60 150.5t147 62.5q80 0 127 -48t47 -124zM602 1286q0 -47 28.5 -73.5t76.5 -26.5q57 0 95 42t38 103q0 50 -28.5 77.5
t-78.5 27.5q-55 0 -93 -44t-38 -106z" />
    <glyph glyph-name="ae" unicode="&#xe6;" horiz-adv-x="1714" 
d="M1606 492h-752q-10 -78 -10 -127q0 -142 71.5 -225t217.5 -83q99 0 181.5 47.5t192.5 165.5l70 -53q-109 -123 -214 -182.5t-235 -59.5q-247 0 -340 187q-185 -191 -430 -191q-150 0 -238.5 70t-88.5 178q0 137 104 219q107 87 365 111l274 26l19 66q12 53 12 96
q0 178 -230 178q-176 0 -337 -155l-64 59q105 93 203 136.5t203 43.5q134 0 216.5 -51t100.5 -139q142 190 399 190q144 0 240 -90t96 -239q0 -90 -26 -178zM872 569h662q10 45 10 88q0 120 -67 188t-189 68q-158 0 -264 -92.5t-152 -251.5zM756 248q-13 60 -13 108
q0 62 13 138l-248 -25q-202 -20 -292.5 -78.5t-90.5 -165.5q0 -73 67 -122.5t170 -49.5q220 0 394 195z" />
    <glyph glyph-name="ccedilla" unicode="&#xe7;" horiz-adv-x="950" 
d="M172 365q0 -149 67 -228.5t199 -79.5q167 0 353 183l65 -64q-195 -195 -405 -201l-80 -118q6 2 24 2q69 0 122.5 -38.5t53.5 -107.5q0 -76 -58 -127t-155 -51q-120 0 -221 66l47 65q100 -53 166 -53q71 0 106.5 27t35.5 73q0 37 -33.5 58.5t-87.5 21.5q-36 0 -60 -6
l-37 47l97 146q-141 19 -220 118t-79 260q-1 82 20.5 171t67 174t108 152t150 107t186.5 37q120 0 200.5 -47t143.5 -147l-78 -51q-61 92 -120 128t-150 36q-79 3 -150.5 -33t-121 -96t-86.5 -134.5t-54 -149.5t-16 -140z" />
    <glyph glyph-name="egrave" unicode="&#xe8;" horiz-adv-x="1044" 
d="M934 492h-750q-10 -75 -10 -121q0 -145 70.5 -229.5t218.5 -84.5q188 0 375 213l69 -53q-205 -242 -444 -242q-184 0 -286.5 104t-102.5 283q-1 89 22 179.5t70.5 173.5t112 147.5t154 101.5t190.5 35q153 0 246.5 -87t93.5 -234q0 -112 -29 -186zM203 569h663q8 47 8 93
q0 117 -68.5 186.5t-191.5 69.5q-154 0 -259.5 -95t-151.5 -254zM510 1417h104l95 -282h-74z" />
    <glyph glyph-name="eacute" unicode="&#xe9;" horiz-adv-x="1044" 
d="M934 492h-750q-10 -75 -10 -121q0 -145 70.5 -229.5t218.5 -84.5q188 0 375 213l69 -53q-205 -242 -444 -242q-184 0 -286.5 104t-102.5 283q-1 89 22 179.5t70.5 173.5t112 147.5t154 101.5t190.5 35q153 0 246.5 -87t93.5 -234q0 -112 -29 -186zM203 569h663q8 47 8 93
q0 117 -68.5 186.5t-191.5 69.5q-154 0 -259.5 -95t-151.5 -254zM967 1417l-248 -282h-92l211 282h129z" />
    <glyph glyph-name="ecircumflex" unicode="&#xea;" horiz-adv-x="1044" 
d="M934 492h-750q-10 -75 -10 -121q0 -145 70.5 -229.5t218.5 -84.5q188 0 375 213l69 -53q-205 -242 -444 -242q-184 0 -286.5 104t-102.5 283q-1 89 22 179.5t70.5 173.5t112 147.5t154 101.5t190.5 35q153 0 246.5 -87t93.5 -234q0 -112 -29 -186zM203 569h663q8 47 8 93
q0 117 -68.5 186.5t-191.5 69.5q-154 0 -259.5 -95t-151.5 -254zM846 1135l-123 217l-219 -217h-98l260 282h125l135 -282h-80z" />
    <glyph glyph-name="edieresis" unicode="&#xeb;" horiz-adv-x="1044" 
d="M934 492h-750q-10 -75 -10 -121q0 -145 70.5 -229.5t218.5 -84.5q188 0 375 213l69 -53q-205 -242 -444 -242q-184 0 -286.5 104t-102.5 283q-1 89 22 179.5t70.5 173.5t112 147.5t154 101.5t190.5 35q153 0 246.5 -87t93.5 -234q0 -112 -29 -186zM203 569h663q8 47 8 93
q0 117 -68.5 186.5t-191.5 69.5q-154 0 -259.5 -95t-151.5 -254zM614 1386l-36 -176h-103l37 176h102zM946 1386l-37 -176h-102l37 176h102z" />
    <glyph glyph-name="igrave" unicode="&#xec;" horiz-adv-x="421" 
d="M362 975l-204 -975h-99l205 975h98zM186 1417h105l94 -282h-74z" />
    <glyph glyph-name="iacute" unicode="&#xed;" horiz-adv-x="421" 
d="M362 975l-204 -975h-99l205 975h98zM643 1417l-248 -282h-92l211 282h129z" />
    <glyph glyph-name="icircumflex" unicode="&#xee;" horiz-adv-x="421" 
d="M362 975l-204 -975h-99l205 975h98zM522 1135l-123 217l-219 -217h-98l260 282h125l135 -282h-80z" />
    <glyph glyph-name="idieresis" unicode="&#xef;" horiz-adv-x="421" 
d="M362 975l-204 -975h-99l205 975h98zM291 1386l-37 -176h-102l36 176h103zM623 1386l-37 -176h-103l37 176h103z" />
    <glyph glyph-name="eth" unicode="&#xf0;" horiz-adv-x="1085" 
d="M1028 877q0 -202 -59 -412q-58 -207 -191 -352q-132 -144 -338 -144q-181 0 -275.5 104t-94.5 281q-1 76 18.5 160t63 167.5t104 150t149 106.5t189.5 37q142 0 231 -70t113 -184q8 52 8 143q0 117 -37 204.5t-116 156.5l-273 -158l-47 66l250 145q-68 43 -170 90l-84 37
l49 68l68 -29q146 -63 221 -119l213 123l41 -66l-189 -110q79 -73 117.5 -168.5t38.5 -226.5zM877 582q0 148 -74.5 226.5t-216.5 78.5q-83 2 -154 -31t-118.5 -87.5t-81 -125t-48.5 -143t-14 -142.5q0 -152 64.5 -228.5t207.5 -76.5q79 -3 150.5 32t122 93t88.5 129.5
t56.5 143t17.5 131.5z" />
    <glyph glyph-name="ntilde" unicode="&#xf1;" horiz-adv-x="1067" 
d="M967 758q0 -62 -15 -129l-133 -629h-98l133 631q12 68 12 121q0 85 -49.5 125.5t-150.5 40.5q-133 0 -246 -97t-148 -266l-116 -555h-99l205 975h96l-34 -162q64 95 153.5 140.5t192.5 45.5q142 0 219.5 -68t77.5 -173zM741 1290q67 -45 99 -45q34 0 53.5 26.5t32.5 80.5
h80q-19 -89 -60.5 -141t-101.5 -52q-21 0 -41.5 7t-36.5 15.5t-51 30.5q-76 54 -127 54q-73 0 -99 -107h-79q20 88 67 140.5t117 52.5q35 0 63.5 -13t83.5 -49z" />
    <glyph glyph-name="ograve" unicode="&#xf2;" horiz-adv-x="1056" 
d="M979 608q1 -83 -19 -170.5t-63 -171.5t-103.5 -149.5t-149 -104.5t-189.5 -37q-179 0 -280 105.5t-101 290.5q-1 80 19 165.5t63.5 170t104.5 150.5t150 105.5t193 36.5q176 0 275.5 -105t99.5 -286zM172 369q0 -147 74 -230.5t203 -83.5q80 -2 151 31t122 90t88 129.5
t54.5 150.5t16.5 152q0 148 -73 229t-204 81q-98 3 -182.5 -48.5t-137.5 -133.5t-83 -178.5t-29 -188.5zM502 1417h104l94 -282h-73z" />
    <glyph glyph-name="oacute" unicode="&#xf3;" horiz-adv-x="1056" 
d="M979 608q1 -83 -19 -170.5t-63 -171.5t-103.5 -149.5t-149 -104.5t-189.5 -37q-179 0 -280 105.5t-101 290.5q-1 80 19 165.5t63.5 170t104.5 150.5t150 105.5t193 36.5q176 0 275.5 -105t99.5 -286zM172 369q0 -147 74 -230.5t203 -83.5q80 -2 151 31t122 90t88 129.5
t54.5 150.5t16.5 152q0 148 -73 229t-204 81q-98 3 -182.5 -48.5t-137.5 -133.5t-83 -178.5t-29 -188.5zM958 1417l-247 -282h-93l211 282h129z" />
    <glyph glyph-name="ocircumflex" unicode="&#xf4;" horiz-adv-x="1056" 
d="M979 608q1 -83 -19 -170.5t-63 -171.5t-103.5 -149.5t-149 -104.5t-189.5 -37q-179 0 -280 105.5t-101 290.5q-1 80 19 165.5t63.5 170t104.5 150.5t150 105.5t193 36.5q176 0 275.5 -105t99.5 -286zM172 369q0 -147 74 -230.5t203 -83.5q80 -2 151 31t122 90t88 129.5
t54.5 150.5t16.5 152q0 148 -73 229t-204 81q-98 3 -182.5 -48.5t-137.5 -133.5t-83 -178.5t-29 -188.5zM838 1135l-123 217l-219 -217h-99l260 282h125l136 -282h-80z" />
    <glyph glyph-name="otilde" unicode="&#xf5;" horiz-adv-x="1056" 
d="M979 608q1 -83 -19 -170.5t-63 -171.5t-103.5 -149.5t-149 -104.5t-189.5 -37q-179 0 -280 105.5t-101 290.5q-1 80 19 165.5t63.5 170t104.5 150.5t150 105.5t193 36.5q176 0 275.5 -105t99.5 -286zM172 369q0 -147 74 -230.5t203 -83.5q80 -2 151 31t122 90t88 129.5
t54.5 150.5t16.5 152q0 148 -73 229t-204 81q-98 3 -182.5 -48.5t-137.5 -133.5t-83 -178.5t-29 -188.5zM725 1290q67 -45 98 -45q34 0 53.5 26.5t32.5 80.5h80q-19 -89 -60.5 -141t-101.5 -52q-21 0 -41.5 7t-36.5 15.5t-51 30.5q-76 54 -127 54q-72 0 -98 -107h-80
q19 88 67 140.5t118 52.5q35 0 63.5 -13t83.5 -49z" />
    <glyph glyph-name="odieresis" unicode="&#xf6;" horiz-adv-x="1056" 
d="M979 608q1 -83 -19 -170.5t-63 -171.5t-103.5 -149.5t-149 -104.5t-189.5 -37q-179 0 -280 105.5t-101 290.5q-1 80 19 165.5t63.5 170t104.5 150.5t150 105.5t193 36.5q176 0 275.5 -105t99.5 -286zM172 369q0 -147 74 -230.5t203 -83.5q80 -2 151 31t122 90t88 129.5
t54.5 150.5t16.5 152q0 148 -73 229t-204 81q-98 3 -182.5 -48.5t-137.5 -133.5t-83 -178.5t-29 -188.5zM606 1386l-37 -176h-102l37 176h102zM938 1386l-37 -176h-102l37 176h102z" />
    <glyph glyph-name="divide" unicode="&#xf7;" horiz-adv-x="1228" 
d="M686 1061v-158h-139v158h139zM1147 678v-86h-1065v86h1065zM686 367v-158h-139v158h139z" />
    <glyph glyph-name="oslash" unicode="&#xf8;" horiz-adv-x="1056" 
d="M1010 975l-103 -115q72 -104 72 -252q1 -81 -20 -168.5t-64.5 -172t-104.5 -150.5t-148 -105.5t-187 -36.5q-162 0 -258 84l-84 -94l-54 47l88 101q-73 98 -73 258q-1 66 14 137t43.5 142.5t74.5 135t102.5 112.5t133.5 76t162 25q156 0 256 -86l96 109zM213 186l588 660
q-78 72 -197 72q-77 3 -147 -30t-121.5 -90t-89.5 -129.5t-56.5 -149.5t-17.5 -148q0 -108 41 -185zM842 786l-586 -659q78 -72 193 -72q79 -2 149.5 31t121.5 90t88.5 129.5t55.5 150.5t17 152q0 110 -39 178z" />
    <glyph glyph-name="ugrave" unicode="&#xf9;" horiz-adv-x="1054" 
d="M891 975h98l-205 -975h-94l35 164q-60 -93 -149.5 -141t-182.5 -48q-145 0 -220 68.5t-75 183.5q0 41 17 135l129 613h98l-131 -623q-14 -69 -14 -114q0 -90 51.5 -135.5t142.5 -45.5q138 0 245 102.5t144 286.5zM473 1417h105l94 -282h-74z" />
    <glyph glyph-name="uacute" unicode="&#xfa;" horiz-adv-x="1054" 
d="M891 975h98l-205 -975h-94l35 164q-60 -93 -149.5 -141t-182.5 -48q-145 0 -220 68.5t-75 183.5q0 41 17 135l129 613h98l-131 -623q-14 -69 -14 -114q0 -90 51.5 -135.5t142.5 -45.5q138 0 245 102.5t144 286.5zM930 1417l-248 -282h-92l211 282h129z" />
    <glyph glyph-name="ucircumflex" unicode="&#xfb;" horiz-adv-x="1054" 
d="M891 975h98l-205 -975h-94l35 164q-60 -93 -149.5 -141t-182.5 -48q-145 0 -220 68.5t-75 183.5q0 41 17 135l129 613h98l-131 -623q-14 -69 -14 -114q0 -90 51.5 -135.5t142.5 -45.5q138 0 245 102.5t144 286.5zM809 1135l-123 217l-219 -217h-98l260 282h125l135 -282
h-80z" />
    <glyph glyph-name="udieresis" unicode="&#xfc;" horiz-adv-x="1054" 
d="M891 975h98l-205 -975h-94l35 164q-60 -93 -149.5 -141t-182.5 -48q-145 0 -220 68.5t-75 183.5q0 41 17 135l129 613h98l-131 -623q-14 -69 -14 -114q0 -90 51.5 -135.5t142.5 -45.5q138 0 245 102.5t144 286.5zM578 1386l-37 -176h-103l37 176h103zM909 1386l-37 -176
h-102l37 176h102z" />
    <glyph glyph-name="yacute" unicode="&#xfd;" horiz-adv-x="915" 
d="M864 975h101l-629 -1141q-33 -59 -53.5 -90t-45.5 -61.5t-50 -43.5t-57.5 -21.5t-78.5 -10.5q-61 0 -123 16l27 78q49 -12 86 -12q68 0 112.5 39t106.5 153l29 51l-146 1043h93l49 -348q28 -189 77 -576l52 96q145 283 245 459zM862 1417l-248 -282h-92l211 282h129z" />
    <glyph glyph-name="thorn" unicode="&#xfe;" horiz-adv-x="1097" 
d="M1026 645q1 -90 -20 -183.5t-65.5 -181t-106.5 -155.5t-150.5 -108t-189.5 -37q-118 0 -195 51t-109 141l-114 -541h-99l390 1823h98l-141 -655q147 196 374 196q157 0 242.5 -93.5t85.5 -256.5zM928 639q0 140 -58 208t-176 68q-123 4 -232 -86.5t-170 -227.5t-59 -273
q0 -121 70 -195t186 -74q83 -3 156 32.5t124 96t88 137.5t54.5 157.5t16.5 156.5z" />
    <glyph glyph-name="ydieresis" unicode="&#xff;" horiz-adv-x="915" 
d="M864 975h101l-629 -1141q-33 -59 -53.5 -90t-45.5 -61.5t-50 -43.5t-57.5 -21.5t-78.5 -10.5q-61 0 -123 16l27 78q49 -12 86 -12q68 0 112.5 39t106.5 153l29 51l-146 1043h93l49 -348q28 -189 77 -576l52 96q145 283 245 459zM510 1386l-37 -176h-102l37 176h102z
M842 1386l-37 -176h-103l37 176h103z" />
    <glyph glyph-name="Amacron" unicode="&#x100;" horiz-adv-x="1300" 
d="M1049 0l-68 440h-666l-254 -440h-114l841 1454h138l223 -1454h-100zM367 530h602l-33 213l-10 64q-71 464 -82 569q-129 -238 -357 -635zM1157 1733l-18 -82h-484l19 82h483z" />
    <glyph glyph-name="amacron" unicode="&#x101;" horiz-adv-x="1091" 
d="M934 975h94l-207 -975h-90l43 201q-145 -224 -364 -224q-164 0 -250 93.5t-86 261.5q-1 88 20 181t66 180.5t107.5 155.5t150.5 108t188 38q118 0 192 -50.5t101 -141.5zM848 647q0 127 -60.5 197.5t-177.5 70.5q-100 4 -186 -51t-139.5 -142.5t-83.5 -188.5t-29 -195
q0 -142 58 -210.5t176 -68.5q71 -3 139.5 31t123 94t96 136t63 161.5t20.5 165.5zM961 1305l-19 -82h-483l18 82h484z" />
    <glyph glyph-name="Abreve" unicode="&#x102;" horiz-adv-x="1300" 
d="M981 440l68 -440h100l-223 1454h-138l-841 -1454h114l254 440h666zM969 530h-602l120 211q228 397 357 635q11 -105 82 -569l10 -64zM1194 1792q-21 -111 -93.5 -173.5t-191.5 -62.5q-111 0 -173 55t-62 138q0 23 4 43h86q-2 -8 -2 -39q0 -127 153 -127q79 0 126.5 45.5
t60.5 120.5h92z" />
    <glyph glyph-name="abreve" unicode="&#x103;" horiz-adv-x="1091" 
d="M1028 975h-94l-35 -172q-27 91 -101 141.5t-192 50.5q-100 2 -188 -38t-150.5 -108t-107.5 -155.5t-66 -180.5t-20 -181q0 -168 86 -261.5t250 -93.5q219 0 364 224l-43 -201h90zM848 647q1 -80 -20.5 -165.5t-63 -161.5t-96 -136t-123 -94t-139.5 -31q-118 0 -176 68.5
t-58 210.5q-1 94 29 195t83.5 188.5t139.5 142.5t186 51q117 0 177.5 -70.5t60.5 -197.5zM997 1364q-21 -111 -93 -173.5t-191 -62.5q-111 0 -173.5 55t-62.5 138q0 23 4 43h86q-2 -8 -2 -39q0 -127 154 -127q79 0 126 45.5t60 120.5h92z" />
    <glyph glyph-name="Aogonek" unicode="&#x104;" horiz-adv-x="1300" 
d="M1036 -334q24 0 45 6l-16 -73q-35 -7 -51 -7q-62 0 -102 35t-40 99q0 154 185 274h-8l-68 440h-666l-254 -440h-114l841 1454h138l223 -1454q-103 -69 -150 -128.5t-47 -125.5q0 -38 22.5 -59t61.5 -21zM367 530h602l-33 213l-10 64q-71 464 -82 569q-129 -238 -357 -635
z" />
    <glyph glyph-name="aogonek" unicode="&#x105;" horiz-adv-x="1091" 
d="M625 -254q0 -38 22.5 -59t61.5 -21q24 0 45 6l-17 -73q-35 -7 -51 -7q-62 0 -101.5 35t-39.5 99q0 154 186 276l43 199q-145 -224 -364 -224q-164 0 -250 93.5t-86 261.5q-1 88 20 181t66 180.5t107.5 155.5t150.5 108t188 38q118 0 192 -50.5t101 -141.5l35 172h94
l-207 -975q-102 -69 -149 -128.5t-47 -125.5zM848 647q0 127 -60.5 197.5t-177.5 70.5q-100 4 -186 -51t-139.5 -142.5t-83.5 -188.5t-29 -195q0 -142 58 -210.5t176 -68.5q71 -3 139.5 31t123 94t96 136t63 161.5t20.5 165.5z" />
    <glyph glyph-name="Cacute" unicode="&#x106;" horiz-adv-x="1366" 
d="M1409 1253l-68 -57q-94 106 -185 152.5t-208 46.5q-131 3 -246.5 -47.5t-197.5 -136.5t-141.5 -197t-87.5 -230t-27 -233q0 -227 119.5 -358.5t328.5 -131.5q136 0 246 58q115 60 250 184l65 -65q-267 -267 -552 -267q-267 0 -414.5 157.5t-147.5 410.5q0 209 86 428
q85 217 269 366q182 150 456 150q142 0 252.5 -55.5t202.5 -174.5zM1270 1845l-248 -282h-92l211 282h129z" />
    <glyph glyph-name="cacute" unicode="&#x107;" horiz-adv-x="950" 
d="M600 918q-79 3 -150.5 -33t-121 -96t-86.5 -134.5t-54 -149.5t-16 -140q0 -149 67 -228.5t199 -79.5q167 0 353 183l65 -64q-201 -201 -420 -201q-170 0 -267 101.5t-97 281.5q-1 82 20.5 171t67 174t108 152t150 107t186.5 37q120 0 200.5 -47t143.5 -147l-78 -51
q-61 92 -120 128t-150 36zM961 1417l-248 -282h-92l210 282h130z" />
    <glyph glyph-name="Cdotaccent" unicode="&#x10a;" horiz-adv-x="1366" 
d="M1409 1253l-68 -57q-94 106 -185 152.5t-208 46.5q-131 3 -246.5 -47.5t-197.5 -136.5t-141.5 -197t-87.5 -230t-27 -233q0 -227 119.5 -358.5t328.5 -131.5q136 0 246 58q115 60 250 184l65 -65q-267 -267 -552 -267q-267 0 -414.5 157.5t-147.5 410.5q0 209 86 428
q85 217 269 366q182 150 456 150q142 0 252.5 -55.5t202.5 -174.5zM1077 1815l-37 -177h-98l37 177h98z" />
    <glyph glyph-name="cdotaccent" unicode="&#x10b;" horiz-adv-x="950" 
d="M600 918q-79 3 -150.5 -33t-121 -96t-86.5 -134.5t-54 -149.5t-16 -140q0 -149 67 -228.5t199 -79.5q167 0 353 183l65 -64q-201 -201 -420 -201q-170 0 -267 101.5t-97 281.5q-1 82 20.5 171t67 174t108 152t150 107t186.5 37q120 0 200.5 -47t143.5 -147l-78 -51
q-61 92 -120 128t-150 36zM768 1386l-37 -176h-98l37 176h98z" />
    <glyph glyph-name="Ccaron" unicode="&#x10c;" horiz-adv-x="1366" 
d="M1409 1253l-68 -57q-94 106 -185 152.5t-208 46.5q-131 3 -246.5 -47.5t-197.5 -136.5t-141.5 -197t-87.5 -230t-27 -233q0 -227 119.5 -358.5t328.5 -131.5q136 0 246 58q115 60 250 184l65 -65q-267 -267 -552 -267q-267 0 -414.5 157.5t-147.5 410.5q0 209 86 428
q85 217 269 366q182 150 456 150q142 0 252.5 -55.5t202.5 -174.5zM1305 1872l-263 -287h-124l-134 287h78l123 -221l221 221h99z" />
    <glyph glyph-name="ccaron" unicode="&#x10d;" horiz-adv-x="950" 
d="M600 918q-79 3 -150.5 -33t-121 -96t-86.5 -134.5t-54 -149.5t-16 -140q0 -149 67 -228.5t199 -79.5q167 0 353 183l65 -64q-201 -201 -420 -201q-170 0 -267 101.5t-97 281.5q-1 82 20.5 171t67 174t108 152t150 107t186.5 37q120 0 200.5 -47t143.5 -147l-78 -51
q-61 92 -120 128t-150 36zM995 1444l-262 -287h-125l-133 287h78l123 -221l221 221h98z" />
    <glyph glyph-name="Dcaron" unicode="&#x10e;" horiz-adv-x="1417" 
d="M1372 909q1 -129 -27 -256.5t-90 -247t-150.5 -210.5t-219 -144.5t-285.5 -50.5h-516l309 1454h424q257 0 406 -151.5t149 -393.5zM788 1368h-307l-272 -1282h375q139 -3 255.5 47t194.5 133.5t132.5 192t78.5 219.5t23 219q0 223 -122 347t-358 124zM1194 1872
l-262 -287h-125l-133 287h78l122 -221l222 221h98z" />
    <glyph glyph-name="dcaron" unicode="&#x10f;" horiz-adv-x="1331" 
d="M1038 1454h99l-310 -1454h-88l45 215q-146 -238 -381 -238q-163 0 -249 93.5t-86 261.5q-1 88 20 181t66 180.5t107.5 155.5t150.5 108t188 38q119 0 195 -50t106 -140zM856 645q0 124 -68.5 196t-191.5 72q-81 3 -152.5 -32.5t-121.5 -96t-86 -137t-53.5 -156
t-16.5 -153.5q0 -145 57.5 -212t179.5 -67q117 -5 225 85.5t169.5 228.5t58.5 272zM1503 1454l-186 -375h-70l152 375h104z" />
    <glyph glyph-name="Dcroat" unicode="&#x110;" horiz-adv-x="1470" 
d="M1425 909q1 -129 -27 -256.5t-90 -247t-150.5 -210.5t-219 -144.5t-285.5 -50.5h-516l150 707h-189l21 86h186l141 661h424q257 0 406 -151.5t149 -393.5zM1321 897q0 224 -122 347.5t-357 123.5h-307l-123 -575h409l-20 -86h-408l-131 -621h375q139 -3 255.5 47
t194.5 133.5t132.5 192t78.5 219.5t23 219z" />
    <glyph glyph-name="dslash" unicode="&#x111;" horiz-adv-x="1148" 
d="M1255 1262l-18 -76h-158l-252 -1186h-88l45 213q-69 -111 -167 -173.5t-214 -62.5q-163 0 -249 93.5t-86 261.5q-1 88 20 181t66 180.5t107.5 155.5t150.5 108t188 38q119 0 195 -50t106 -140l80 381h-258l18 76h256l41 192h99l-41 -192h159zM856 645q0 127 -62.5 198.5
t-183.5 71.5q-100 3 -186.5 -52.5t-141.5 -142.5t-86 -188t-30 -194q0 -146 55.5 -212.5t177.5 -66.5q117 -5 226 85.5t171.5 228.5t59.5 272z" />
    <glyph glyph-name="Emacron" unicode="&#x112;" horiz-adv-x="1222" 
d="M1315 1454l-21 -88h-815l-123 -575h756l-18 -89h-756l-131 -614h831l-18 -88h-936l309 1454h922zM1153 1733l-18 -82h-484l19 82h483z" />
    <glyph glyph-name="emacron" unicode="&#x113;" horiz-adv-x="1044" 
d="M934 492h-750q-10 -75 -10 -121q0 -145 70.5 -229.5t218.5 -84.5q188 0 375 213l69 -53q-205 -242 -444 -242q-184 0 -286.5 104t-102.5 283q-1 89 22 179.5t70.5 173.5t112 147.5t154 101.5t190.5 35q153 0 246.5 -87t93.5 -234q0 -112 -29 -186zM203 569h663q8 47 8 93
q0 117 -68.5 186.5t-191.5 69.5q-154 0 -259.5 -95t-151.5 -254zM950 1305l-18 -82h-483l18 82h483z" />
    <glyph glyph-name="Edotaccent" unicode="&#x116;" horiz-adv-x="1222" 
d="M1315 1454l-21 -88h-815l-123 -575h756l-18 -89h-756l-131 -614h831l-18 -88h-936l309 1454h922zM977 1815l-37 -177h-98l37 177h98z" />
    <glyph glyph-name="edotaccent" unicode="&#x117;" horiz-adv-x="1044" 
d="M934 492h-750q-10 -75 -10 -121q0 -145 70.5 -229.5t218.5 -84.5q188 0 375 213l69 -53q-205 -242 -444 -242q-184 0 -286.5 104t-102.5 283q-1 89 22 179.5t70.5 173.5t112 147.5t154 101.5t190.5 35q153 0 246.5 -87t93.5 -234q0 -112 -29 -186zM203 569h663q8 47 8 93
q0 117 -68.5 186.5t-191.5 69.5q-154 0 -259.5 -95t-151.5 -254zM774 1386l-37 -176h-98l37 176h98z" />
    <glyph glyph-name="Eogonek" unicode="&#x118;" horiz-adv-x="1222" 
d="M1294 1366h-815l-123 -575h756l-18 -89h-756l-131 -614h831l-18 -88q-103 -69 -150 -128.5t-47 -125.5q0 -38 22.5 -59t61.5 -21q24 0 45 6l-16 -73q-35 -7 -51 -7q-62 0 -102 35t-40 99q0 154 185 274h-844l309 1454h922z" />
    <glyph glyph-name="eogonek" unicode="&#x119;" horiz-adv-x="1044" 
d="M430 -268q0 134 135 254q-53 -11 -102 -11q-184 0 -286.5 104t-102.5 283q-1 89 22 179.5t70.5 173.5t112 147.5t154 101.5t190.5 35q153 0 246.5 -87t93.5 -234q0 -112 -29 -186h-750q-10 -58 -10 -121q0 -145 70.5 -229.5t218.5 -84.5q188 0 375 213l69 -53
q-62 -77 -184 -168q-215 -164 -215 -299q0 -84 90 -84q23 0 47 6l-16 -73q-21 -7 -56 -7q-64 0 -103.5 37t-39.5 103zM203 569h663q8 31 8 93q0 117 -69 186.5t-189 69.5q-153 0 -258 -94.5t-155 -254.5z" />
    <glyph glyph-name="Ecaron" unicode="&#x11a;" horiz-adv-x="1222" 
d="M1315 1454l-21 -88h-815l-123 -575h756l-18 -89h-756l-131 -614h831l-18 -88h-936l309 1454h922zM1204 1872l-262 -287h-125l-133 287h78l123 -221l221 221h98z" />
    <glyph glyph-name="ecaron" unicode="&#x11b;" horiz-adv-x="1044" 
d="M934 492h-750q-10 -75 -10 -121q0 -145 70.5 -229.5t218.5 -84.5q188 0 375 213l69 -53q-205 -242 -444 -242q-184 0 -286.5 104t-102.5 283q-1 89 22 179.5t70.5 173.5t112 147.5t154 101.5t190.5 35q153 0 246.5 -87t93.5 -234q0 -112 -29 -186zM203 569h663q8 47 8 93
q0 117 -68.5 186.5t-191.5 69.5q-154 0 -259.5 -95t-151.5 -254zM1001 1444l-262 -287h-125l-133 287h78l123 -221l221 221h98z" />
    <glyph glyph-name="Gbreve" unicode="&#x11e;" horiz-adv-x="1513" 
d="M256 563q-1 114 25 230t82.5 225.5t136.5 193.5t195 134t249 47q150 0 260 -57t217 -187l82 55q-218 277 -545 277q-274 0 -458 -144q-184 -143 -269 -354q-84 -215 -84 -432q0 -119 37 -222.5t106.5 -183.5t179 -126t245.5 -46q151 0 279 65.5t216 197.5l-36 -236h88
l151 723h-612l-17 -88h508l-16 -76q-24 -114 -81.5 -208.5t-133 -156t-163 -95t-175.5 -33.5q-227 0 -347 134.5t-120 362.5zM1341 1792q-21 -111 -93 -173.5t-191 -62.5q-111 0 -173.5 55t-62.5 138q0 23 4 43h86q-2 -8 -2 -39q0 -127 154 -127q79 0 126 45.5t60 120.5h92z
" />
    <glyph glyph-name="gbreve" unicode="&#x11f;" horiz-adv-x="1081" 
d="M1024 975h-94l-41 -187q-31 98 -110.5 152.5t-196.5 54.5q-95 3 -180 -36.5t-145 -106t-104 -151t-65 -172.5t-20 -169q0 -161 92 -260.5t246 -99.5q217 0 356 195l-41 -193q-67 -307 -332 -307q-89 0 -170 33t-178 102l-55 -70q200 -147 399 -147q183 0 285.5 94.5
t144.5 288.5zM842 641q1 -70 -17 -147.5t-55.5 -152t-88.5 -133.5t-122 -94t-149 -32q-121 0 -182.5 75t-61.5 214q-1 69 16 144.5t53 147.5t85 129t118.5 90.5t147.5 30.5q122 0 189 -73.5t67 -198.5zM979 1364q-21 -111 -93.5 -173.5t-191.5 -62.5q-111 0 -173 55t-62 138
q0 23 4 43h86q-2 -8 -2 -39q0 -127 153 -127q79 0 126.5 45.5t60.5 120.5h92z" />
    <glyph glyph-name="Gdotaccent" unicode="&#x120;" horiz-adv-x="1513" 
d="M256 563q0 -228 120 -362.5t347 -134.5q88 0 175.5 33.5t163 95t133 156t81.5 208.5l16 76h-508l17 88h612l-151 -723h-88l36 236q-88 -132 -216 -197.5t-279 -65.5q-136 0 -245.5 46t-179 126t-106.5 183.5t-37 222.5q0 217 84 432q85 211 269 354q184 144 458 144
q327 0 545 -277l-82 -55q-107 130 -217 187t-260 57q-134 3 -249 -47t-195 -134t-136.5 -193.5t-82.5 -225.5t-25 -230zM1128 1815l-36 -177h-99l37 177h98z" />
    <glyph glyph-name="gdotaccent" unicode="&#x121;" horiz-adv-x="1081" 
d="M930 975h94l-209 -979q-42 -194 -144.5 -288.5t-285.5 -94.5q-199 0 -399 147l55 70q97 -69 178 -102t170 -33q265 0 332 307l41 193q-139 -195 -356 -195q-154 0 -246 99.5t-92 260.5q-1 81 20 169t65 172.5t104 151t145 106t180 36.5q117 0 196.5 -54.5t110.5 -152.5z
M842 641q0 125 -67 198.5t-189 73.5q-78 3 -147.5 -30.5t-118.5 -90.5t-85 -129t-53 -147.5t-16 -144.5q0 -139 61.5 -214t182.5 -75q78 -3 149 32t122 94t88.5 133.5t55.5 152t17 147.5zM766 1386l-37 -176h-98l37 176h98z" />
    <glyph glyph-name="uni0122" unicode="&#x122;" horiz-adv-x="1513" 
d="M256 563q0 -228 120 -362.5t347 -134.5q88 0 175.5 33.5t163 95t133 156t81.5 208.5l16 76h-508l17 88h612l-151 -723h-88l36 236q-88 -132 -216 -197.5t-279 -65.5q-136 0 -245.5 46t-179 126t-106.5 183.5t-37 222.5q0 217 84 432q85 211 269 354q184 144 458 144
q327 0 545 -277l-82 -55q-107 130 -217 187t-260 57q-134 3 -249 -47t-195 -134t-136.5 -193.5t-82.5 -225.5t-25 -230zM735 -166l-30 -147l-134 -195h-63l123 195h-70l31 147h143z" />
    <glyph glyph-name="uni0123" unicode="&#x123;" horiz-adv-x="1081" 
d="M930 975h94l-209 -979q-42 -194 -144.5 -288.5t-285.5 -94.5q-199 0 -399 147l55 70q97 -69 178 -102t170 -33q265 0 332 307l41 193q-139 -195 -356 -195q-154 0 -246 99.5t-92 260.5q-1 81 20 169t65 172.5t104 151t145 106t180 36.5q117 0 196.5 -54.5t110.5 -152.5z
M842 641q0 125 -67 198.5t-189 73.5q-78 3 -147.5 -30.5t-118.5 -90.5t-85 -129t-53 -147.5t-16 -144.5q0 -139 61.5 -214t182.5 -75q78 -3 149 32t122 94t88.5 133.5t55.5 152t17 147.5zM590 1198l31 148l135 200h63l-123 -200h70l-33 -148h-143z" />
    <glyph glyph-name="Hbar" unicode="&#x126;" horiz-adv-x="1581" 
d="M1659 1204l-21 -84h-168l-237 -1120h-105l148 702h-895l-148 -702h-106l238 1120h-170l20 84h168l53 250h107l-54 -250h895l54 250h104l-53 -250h170zM1294 791l72 329h-895l-70 -329h893z" />
    <glyph glyph-name="hbar" unicode="&#x127;" horiz-adv-x="1124" 
d="M1024 758q0 -60 -14 -131l-133 -627h-99l133 631q13 73 13 123q0 164 -205 164q-128 0 -242 -97q-110 -93 -147 -268l-117 -553h-98l250 1186h-160l18 76h158l41 192h98l-41 -192h258l-18 -76h-256l-76 -363q126 176 342 176q143 0 219 -67t76 -174z" />
    <glyph glyph-name="Imacron" unicode="&#x12a;" horiz-adv-x="483" 
d="M500 1454l-310 -1454h-106l309 1454h107zM745 1733l-18 -82h-483l18 82h483z" />
    <glyph glyph-name="imacron" unicode="&#x12b;" horiz-adv-x="421" 
d="M362 975l-204 -975h-99l205 975h98zM627 1305l-19 -82h-483l18 82h484z" />
    <glyph glyph-name="Iogonek" unicode="&#x12e;" horiz-adv-x="483" 
d="M-6 -254q0 -38 22.5 -59t61.5 -21q24 0 45 6l-17 -73q-35 -7 -51 -7q-62 0 -101.5 35t-39.5 99q0 154 184 274h-14l309 1454h107l-310 -1454q-102 -69 -149 -128.5t-47 -125.5z" />
    <glyph glyph-name="iogonek" unicode="&#x12f;" horiz-adv-x="421" 
d="M352 1386h99l-37 -176h-99zM59 0l205 975h98l-204 -975q-103 -69 -150 -128.5t-47 -125.5q0 -38 22.5 -59t61.5 -21q24 0 45 6l-16 -73q-35 -7 -51 -7q-62 0 -102 35t-40 99q0 154 185 274h-7z" />
    <glyph glyph-name="Idot" unicode="&#x130;" horiz-adv-x="483" 
d="M500 1454l-310 -1454h-106l309 1454h107zM569 1815l-37 -177h-98l37 177h98z" />
    <glyph glyph-name="dotlessi" unicode="&#x131;" horiz-adv-x="421" 
d="M362 975l-204 -975h-99l205 975h98z" />
    <glyph glyph-name="IJ" unicode="&#x132;" horiz-adv-x="1417" 
d="M500 1454l-310 -1454h-106l309 1454h107zM1444 1454l-234 -1094q-39 -193 -134.5 -286.5t-260.5 -93.5q-194 0 -375 104l54 80q171 -96 317 -96q124 0 193 73.5t106 241.5l227 1071h107z" />
    <glyph glyph-name="ij" unicode="&#x133;" horiz-adv-x="833" 
d="M362 975l-204 -975h-99l205 975h98zM451 1386l-37 -176h-99l37 176h99zM276 -313q46 3 74.5 14.5t49 43t32.5 68.5t29 111l221 1051h98l-231 -1094q-30 -148 -88.5 -213t-177.5 -65q-97 0 -181 32l31 74q77 -22 143 -22zM866 1386l-37 -176h-98l37 176h98z" />
    <glyph glyph-name="uni0136" unicode="&#x136;" horiz-adv-x="1290" 
d="M1419 1454l-686 -573l422 -881h-111l-389 817l-354 -295l-111 -522h-106l309 1454h107l-168 -790l944 790h143zM647 -166l-31 -147l-133 -195h-63l123 195h-70l31 147h143z" />
    <glyph glyph-name="uni0137" unicode="&#x137;" horiz-adv-x="950" 
d="M987 975l-430 -375l283 -600h-99l-258 545l-262 -228l-67 -317h-99l310 1454h98l-215 -1014l608 535h131zM459 -166l-31 -147l-133 -195h-64l123 195h-69l30 147h144z" />
    <glyph glyph-name="Lacute" unicode="&#x139;" horiz-adv-x="1054" 
d="M500 1454l-293 -1366h711l-19 -88h-815l309 1454h107zM764 1845l-248 -282h-92l211 282h129z" />
    <glyph glyph-name="lacute" unicode="&#x13a;" horiz-adv-x="425" 
d="M467 1454l-309 -1454h-99l310 1454h98zM729 1825l-248 -283h-92l211 283h129z" />
    <glyph glyph-name="uni013B" unicode="&#x13b;" horiz-adv-x="1054" 
d="M500 1454l-293 -1366h711l-19 -88h-815l309 1454h107zM551 -166l-31 -147l-133 -195h-63l122 195h-69l31 147h143z" />
    <glyph glyph-name="uni013C" unicode="&#x13c;" horiz-adv-x="425" 
d="M467 1454l-309 -1454h-99l310 1454h98zM156 -166l-31 -147l-133 -195h-64l123 195h-69l30 147h144z" />
    <glyph glyph-name="Lcaron" unicode="&#x13d;" horiz-adv-x="1054" 
d="M500 1454l-293 -1366h711l-19 -88h-815l309 1454h107zM893 1454l-186 -375h-70l151 375h105z" />
    <glyph glyph-name="lcaron" unicode="&#x13e;" horiz-adv-x="681" 
d="M467 1454l-309 -1454h-99l310 1454h98zM854 1454l-186 -375h-70l152 375h104z" />
    <glyph glyph-name="Ldot" unicode="&#x13f;" horiz-adv-x="1050" 
d="M500 1454l-293 -1366h711l-19 -88h-815l309 1454h107zM858 821l-31 -157h-139l33 157h137z" />
    <glyph glyph-name="ldot" unicode="&#x140;" horiz-adv-x="677" 
d="M467 1454l-309 -1454h-99l310 1454h98zM647 688l-31 -158h-139l33 158h137z" />
    <glyph glyph-name="Lslash" unicode="&#x141;" horiz-adv-x="1120" 
d="M264 88h717l-16 -88h-824l140 657l-199 -102l20 98l199 101l150 700h106l-139 -653l366 188l-20 -98l-369 -186z" />
    <glyph glyph-name="lslash" unicode="&#x142;" horiz-adv-x="669" 
d="M694 983l-22 -98l-217 -117l-164 -768h-98l151 711l-229 -123l18 98l232 123l137 645h98l-125 -588z" />
    <glyph glyph-name="Nacute" unicode="&#x143;" horiz-adv-x="1486" 
d="M1401 1454h102l-309 -1454h-123l-332 727l-69 154q-128 278 -207 460q-68 -363 -111 -555l-166 -786h-102l309 1454h121l326 -715q106 -231 188 -420l94 -206q66 348 113 563zM1268 1845l-248 -282h-92l211 282h129z" />
    <glyph glyph-name="nacute" unicode="&#x144;" horiz-adv-x="1067" 
d="M967 758q0 -62 -15 -129l-133 -629h-98l133 631q12 68 12 121q0 85 -49.5 125.5t-150.5 40.5q-133 0 -246 -97t-148 -266l-116 -555h-99l205 975h96l-34 -162q64 95 153.5 140.5t192.5 45.5q142 0 219.5 -68t77.5 -173zM975 1417l-248 -282h-92l211 282h129z" />
    <glyph glyph-name="uni0145" unicode="&#x145;" horiz-adv-x="1486" 
d="M1401 1454h102l-309 -1454h-123l-332 727l-69 154q-128 278 -207 460q-68 -363 -111 -555l-166 -786h-102l309 1454h121l326 -715q106 -231 188 -420l94 -206q66 348 113 563zM680 -166l-31 -147l-133 -195h-63l122 195h-69l31 147h143z" />
    <glyph glyph-name="uni0146" unicode="&#x146;" horiz-adv-x="1067" 
d="M967 758q0 -62 -15 -129l-133 -629h-98l133 631q12 68 12 121q0 85 -49.5 125.5t-150.5 40.5q-133 0 -246 -97t-148 -266l-116 -555h-99l205 975h96l-34 -162q64 95 153.5 140.5t192.5 45.5q142 0 219.5 -68t77.5 -173zM477 -166l-31 -147l-133 -195h-63l123 195h-70
l31 147h143z" />
    <glyph glyph-name="Ncaron" unicode="&#x147;" horiz-adv-x="1486" 
d="M1401 1454h102l-309 -1454h-123l-332 727l-69 154q-128 278 -207 460q-68 -363 -111 -555l-166 -786h-102l309 1454h121l326 -715q106 -231 188 -420l94 -206q66 348 113 563zM1303 1872l-263 -287h-125l-133 287h78l123 -221l221 221h99z" />
    <glyph glyph-name="ncaron" unicode="&#x148;" horiz-adv-x="1067" 
d="M967 758q0 -62 -15 -129l-133 -629h-98l133 631q12 68 12 121q0 85 -49.5 125.5t-150.5 40.5q-133 0 -246 -97t-148 -266l-116 -555h-99l205 975h96l-34 -162q64 95 153.5 140.5t192.5 45.5q142 0 219.5 -68t77.5 -173zM1010 1444l-262 -287h-125l-134 287h78l123 -221
l221 221h99z" />
    <glyph glyph-name="Eng" unicode="&#x14a;" horiz-adv-x="1486" 
d="M1503 1454l-293 -1380l-43 -197q-31 -146 -95.5 -211t-199.5 -65q-115 0 -215 41l35 79q103 -34 180 -34q84 0 129.5 45.5t69.5 146.5l16 82l-348 766l-69 154q-128 278 -207 460q-68 -363 -111 -555l-166 -786h-102l309 1454h121l326 -715q106 -231 188 -420l94 -206
q66 348 113 563l166 778h102z" />
    <glyph glyph-name="eng" unicode="&#x14b;" horiz-adv-x="1079" 
d="M967 758q0 -62 -15 -129l-133 -629h-4l-24 -111q-31 -148 -91 -215t-180 -67t-192 35l41 73q85 -26 149 -26q75 0 114 49t60 158l47 223h6l109 512q12 68 12 121q0 85 -49.5 125.5t-150.5 40.5q-133 0 -246 -97t-148 -266l-116 -555h-99l205 975h96l-34 -162
q64 95 153.5 140.5t192.5 45.5q142 0 219.5 -68t77.5 -173z" />
    <glyph glyph-name="Omacron" unicode="&#x14c;" horiz-adv-x="1519" 
d="M1475 897q0 -206 -86 -422q-82 -213 -261 -360q-176 -144 -428 -144q-263 0 -409 155.5t-146 432.5q0 209 88 422t265 358q175 144 428 144q262 0 405.5 -156t143.5 -430zM250 557q0 -235 121.5 -366.5t326.5 -131.5q124 -3 234 47t189 136t136.5 196t85.5 228.5
t27 232.5q0 233 -119 364.5t-327 131.5q-124 3 -234.5 -46.5t-189.5 -135t-137 -195t-86 -228.5t-27 -233zM1272 1733l-19 -82h-483l18 82h484z" />
    <glyph glyph-name="omacron" unicode="&#x14d;" horiz-adv-x="1056" 
d="M979 608q1 -83 -19 -170.5t-63 -171.5t-103.5 -149.5t-149 -104.5t-189.5 -37q-179 0 -280 105.5t-101 290.5q-1 80 19 165.5t63.5 170t104.5 150.5t150 105.5t193 36.5q176 0 275.5 -105t99.5 -286zM172 369q0 -147 74 -230.5t203 -83.5q80 -2 151 31t122 90t88 129.5
t54.5 150.5t16.5 152q0 148 -73 229t-204 81q-98 3 -182.5 -48.5t-137.5 -133.5t-83 -178.5t-29 -188.5zM942 1305l-18 -82h-484l19 82h483z" />
    <glyph glyph-name="Ohungarumlaut" unicode="&#x150;" horiz-adv-x="1519" 
d="M1475 897q0 -206 -86 -422q-82 -213 -261 -360q-176 -144 -428 -144q-263 0 -409 155.5t-146 432.5q0 209 88 422t265 358q175 144 428 144q262 0 405.5 -156t143.5 -430zM250 557q0 -235 121.5 -366.5t326.5 -131.5q124 -3 234 47t189 136t136.5 196t85.5 228.5
t27 232.5q0 233 -119 364.5t-327 131.5q-124 3 -234.5 -46.5t-189.5 -135t-137 -195t-86 -228.5t-27 -233zM1153 1872l-246 -287h-96l217 287h125zM1448 1872l-248 -287h-96l221 287h123z" />
    <glyph glyph-name="ohungarumlaut" unicode="&#x151;" horiz-adv-x="1056" 
d="M979 608q1 -83 -19 -170.5t-63 -171.5t-103.5 -149.5t-149 -104.5t-189.5 -37q-179 0 -280 105.5t-101 290.5q-1 80 19 165.5t63.5 170t104.5 150.5t150 105.5t193 36.5q176 0 275.5 -105t99.5 -286zM172 369q0 -147 74 -230.5t203 -83.5q80 -2 151 31t122 90t88 129.5
t54.5 150.5t16.5 152q0 148 -73 229t-204 81q-98 3 -182.5 -48.5t-137.5 -133.5t-83 -178.5t-29 -188.5zM823 1444l-245 -287h-97l217 287h125zM1118 1444l-248 -287h-96l221 287h123z" />
    <glyph glyph-name="OE" unicode="&#x152;" horiz-adv-x="2373" 
d="M2445 1366h-815l-123 -575h756l-18 -89h-756l-131 -614h831l-18 -88h-936l63 299q-109 -157 -262.5 -242.5t-345.5 -85.5q-259 0 -407 148q-146 149 -146 403q0 206 94 430t285 377q189 154 451 154q205 0 336 -88.5t176 -251.5l65 311h922zM1411 934q0 218 -114 339.5
t-324 121.5q-231 0 -398 -138q-166 -140 -247 -342q-84 -206 -84 -395q0 -222 114.5 -341.5t325.5 -119.5q232 0 395 138q165 137 248 340q84 209 84 397z" />
    <glyph glyph-name="oe" unicode="&#x153;" horiz-adv-x="1826" 
d="M1716 492h-749q-11 -82 -11 -121q0 -145 71 -229.5t220 -84.5q191 0 375 215l68 -55q-207 -242 -445 -242q-151 0 -247.5 70t-127.5 199q-65 -126 -171 -197.5t-244 -71.5q-179 0 -280 105.5t-101 290.5q-1 66 14 137t43.5 142.5t74.5 135t102.5 112.5t133.5 76t162 25
q144 0 232.5 -72.5t115.5 -203.5q75 129 190.5 202.5t264.5 73.5q151 0 244.5 -87.5t93.5 -233.5q0 -112 -29 -186zM881 608q0 146 -75 228t-204 82q-77 2 -147.5 -31t-121.5 -89.5t-88.5 -128t-55.5 -149t-17 -149.5q0 -148 74 -231t203 -83q79 -2 149.5 31t121.5 89.5
t88.5 128.5t55.5 150t17 152zM985 569h664q8 36 8 93q0 117 -69 186.5t-189 69.5q-154 0 -261 -95t-153 -254z" />
    <glyph glyph-name="Racute" unicode="&#x154;" horiz-adv-x="1339" 
d="M834 625l309 -625h-113l-307 625h-401l-134 -625h-104l309 1454h545q173 0 280 -95t107 -257q0 -88 -30.5 -170t-89 -149.5t-154.5 -110.5t-217 -47zM1223 1108q0 122 -82.5 190t-229.5 68h-434l-137 -655h426q242 0 348 112q109 115 109 285zM1143 1845l-248 -282h-92
l211 282h129z" />
    <glyph glyph-name="racute" unicode="&#x155;" horiz-adv-x="675" 
d="M748 948l-35 -76q-67 27 -127 27q-116 0 -199 -93.5t-119 -270.5l-112 -535h-99l205 975h94l-30 -148q44 73 115 114.5t147 41.5t160 -35zM838 1417l-248 -282h-92l211 282h129z" />
    <glyph glyph-name="uni0156" unicode="&#x156;" horiz-adv-x="1339" 
d="M834 625l309 -625h-113l-307 625h-401l-134 -625h-104l309 1454h545q173 0 280 -95t107 -257q0 -88 -30.5 -170t-89 -149.5t-154.5 -110.5t-217 -47zM1223 1108q0 122 -82.5 190t-229.5 68h-434l-137 -655h426q242 0 348 112q109 115 109 285zM616 -166l-30 -147
l-133 -195h-64l123 195h-70l31 147h143z" />
    <glyph glyph-name="uni0157" unicode="&#x157;" horiz-adv-x="675" 
d="M748 948l-35 -76q-67 27 -127 27q-116 0 -199 -93.5t-119 -270.5l-112 -535h-99l205 975h94l-30 -148q44 73 115 114.5t147 41.5t160 -35zM154 -166l-31 -147l-133 -195h-64l123 195h-69l30 147h144z" />
    <glyph glyph-name="Rcaron" unicode="&#x158;" horiz-adv-x="1339" 
d="M834 625l309 -625h-113l-307 625h-401l-134 -625h-104l309 1454h545q173 0 280 -95t107 -257q0 -88 -30.5 -170t-89 -149.5t-154.5 -110.5t-217 -47zM1223 1108q0 122 -82.5 190t-229.5 68h-434l-137 -655h426q242 0 348 112q109 115 109 285zM1178 1872l-263 -287h-124
l-134 287h78l123 -221l221 221h99z" />
    <glyph glyph-name="rcaron" unicode="&#x159;" horiz-adv-x="675" 
d="M748 948l-35 -76q-67 27 -127 27q-116 0 -199 -93.5t-119 -270.5l-112 -535h-99l205 975h94l-30 -148q44 73 115 114.5t147 41.5t160 -35zM872 1444l-262 -287h-125l-133 287h78l123 -221l221 221h98z" />
    <glyph glyph-name="Sacute" unicode="&#x15a;" horiz-adv-x="1271" 
d="M1274 1260l-70 -72q-193 205 -446 205q-172 0 -292 -92.5t-120 -231.5q0 -72 41 -119q42 -43 118 -76.5t236 -82.5q162 -51 251 -105.5t123 -118t34 -157.5q0 -83 -35 -161t-98.5 -140.5t-162.5 -100t-218 -37.5q-158 0 -295.5 58.5t-284.5 177.5l64 76
q272 -224 520 -224q181 0 293 102t112 249q-2 43 -10.5 75t-28.5 59.5t-45 47.5t-70 41.5t-93.5 39t-124.5 42.5q-89 29 -147.5 51t-109.5 47t-80 48t-50.5 54t-30 66t-10.5 82q0 172 146 295t372 123q291 0 512 -221zM1092 1845l-248 -282h-92l211 282h129z" />
    <glyph glyph-name="sacute" unicode="&#x15b;" horiz-adv-x="917" 
d="M864 844l-61 -68q-145 142 -309 142q-112 0 -186.5 -57t-74.5 -130q2 -32 10.5 -52.5t21.5 -36.5t45.5 -31t67 -27t103.5 -33q131 -41 181 -64q139 -59 139 -202q0 -129 -101 -219.5t-282 -90.5q-116 0 -209 44.5t-193 136.5l66 63q93 -84 172 -123t174 -39
q127 0 202 62.5t75 161.5q0 53 -35 88q-30 33 -76 51t-174 55q-117 37 -178.5 72t-83 73t-21.5 97q0 119 102.5 200.5t260.5 81.5q202 0 364 -155zM795 1417l-248 -282h-92l211 282h129z" />
    <glyph glyph-name="Scedilla" unicode="&#x15e;" horiz-adv-x="1271" 
d="M1274 1260l-70 -72q-193 205 -446 205q-172 0 -292 -92.5t-120 -231.5q0 -72 41 -119q42 -43 118 -76.5t236 -82.5q162 -51 251 -105.5t123 -118t34 -157.5q0 -83 -35 -161t-98.5 -140.5t-162.5 -100t-218 -37.5q-51 0 -98 6l-82 -120q6 2 24 2q69 0 122.5 -38.5
t53.5 -107.5q0 -76 -58 -127t-155 -51q-120 0 -221 66l47 65q100 -53 166 -53q71 0 106 27t35 73q0 37 -33 58.5t-87 21.5q-36 0 -60 -6l-37 47l105 156q-207 51 -408 217l64 76q272 -224 520 -224q181 0 293 102t112 249q-2 43 -10.5 75t-28.5 59.5t-45 47.5t-70 41.5
t-93.5 39t-124.5 42.5q-89 29 -147.5 51t-109.5 47t-80 48t-50.5 54t-30 66t-10.5 82q0 172 146 295t372 123q291 0 512 -221z" />
    <glyph glyph-name="scedilla" unicode="&#x15f;" horiz-adv-x="917" 
d="M233 731q2 -32 10.5 -52.5t21.5 -36.5t45.5 -31t67 -27t103.5 -33q131 -41 181 -64q139 -59 139 -202q0 -129 -101 -219.5t-282 -90.5h-8l-80 -118q6 2 24 2q69 0 122.5 -38.5t53.5 -107.5q0 -76 -58 -127t-155 -51q-120 0 -221 66l47 65q100 -53 166 -53q71 0 106.5 27
t35.5 73q0 37 -33.5 58.5t-87.5 21.5q-36 0 -60 -6l-37 47l99 148q-86 16 -159 58t-157 116l66 63q93 -84 172 -123t174 -39q127 0 202 62.5t75 161.5q0 53 -35 88q-30 33 -76 51t-174 55q-117 37 -178.5 72t-83 73t-21.5 97q0 119 102.5 200.5t260.5 81.5q202 0 364 -155
l-61 -68q-145 142 -309 142q-112 0 -186.5 -57t-74.5 -130z" />
    <glyph glyph-name="Scaron" unicode="&#x160;" horiz-adv-x="1271" 
d="M1274 1260l-70 -72q-193 205 -446 205q-172 0 -292 -92.5t-120 -231.5q0 -72 41 -119q42 -43 118 -76.5t236 -82.5q162 -51 251 -105.5t123 -118t34 -157.5q0 -83 -35 -161t-98.5 -140.5t-162.5 -100t-218 -37.5q-158 0 -295.5 58.5t-284.5 177.5l64 76
q272 -224 520 -224q181 0 293 102t112 249q-2 43 -10.5 75t-28.5 59.5t-45 47.5t-70 41.5t-93.5 39t-124.5 42.5q-89 29 -147.5 51t-109.5 47t-80 48t-50.5 54t-30 66t-10.5 82q0 172 146 295t372 123q291 0 512 -221zM1126 1872l-262 -287h-125l-133 287h78l123 -221
l221 221h98z" />
    <glyph glyph-name="scaron" unicode="&#x161;" horiz-adv-x="917" 
d="M864 844l-61 -68q-145 142 -309 142q-112 0 -186.5 -57t-74.5 -130q2 -32 10.5 -52.5t21.5 -36.5t45.5 -31t67 -27t103.5 -33q131 -41 181 -64q139 -59 139 -202q0 -129 -101 -219.5t-282 -90.5q-116 0 -209 44.5t-193 136.5l66 63q93 -84 172 -123t174 -39
q127 0 202 62.5t75 161.5q0 53 -35 88q-30 33 -76 51t-174 55q-117 37 -178.5 72t-83 73t-21.5 97q0 119 102.5 200.5t260.5 81.5q202 0 364 -155zM829 1444l-262 -287h-125l-133 287h78l123 -221l221 221h98z" />
    <glyph glyph-name="uni0162" unicode="&#x162;" horiz-adv-x="1212" 
d="M279 1454h1067l-21 -88h-479l-291 -1366h-20l-97 -143q6 2 25 2q69 0 122.5 -38.5t53.5 -107.5q0 -76 -58 -127t-155 -51q-120 0 -221 66l47 65q100 -53 166 -53q71 0 106 27t35 73q0 37 -33.5 58.5t-87.5 21.5q-35 0 -59 -6l-37 47l111 166h-2l288 1366h-481z" />
    <glyph glyph-name="uni0163" unicode="&#x163;" horiz-adv-x="671" 
d="M414 901l-135 -639q-15 -70 -15 -102q0 -52 25 -74.5t84 -22.5q66 0 164 29l14 -76q-81 -34 -180 -34h-4l-84 -125q6 2 24 2q69 0 122.5 -38.5t53.5 -107.5q0 -76 -58 -127t-155 -51q-120 0 -221 66l47 65q100 -53 166 -53q71 0 106 27t35 73q0 37 -33 58.5t-87 21.5
q-36 0 -60 -6l-37 47l103 156q-123 24 -123 166q0 56 14 116l135 629h-192l14 74h193l76 350h98l-74 -350h281l-15 -74h-282z" />
    <glyph glyph-name="Tcaron" unicode="&#x164;" horiz-adv-x="1212" 
d="M1346 1454l-21 -88h-479l-291 -1366h-104l288 1366h-481l21 88h1067zM1159 1872l-262 -287h-125l-133 287h78l123 -221l221 221h98z" />
    <glyph glyph-name="tcaron" unicode="&#x165;" horiz-adv-x="671" 
d="M414 901l-135 -639q-15 -70 -15 -102q0 -52 25 -74.5t84 -22.5q66 0 164 29l14 -76q-81 -34 -180 -34q-105 0 -155 41.5t-50 132.5q0 56 14 116l135 629h-192l14 74h193l76 350h98l-74 -350h281l-15 -74h-282zM903 1542l-186 -375h-70l152 375h104z" />
    <glyph glyph-name="Tbar" unicode="&#x166;" horiz-adv-x="1212" 
d="M1325 1366h-479l-107 -504h281l-21 -88h-280l-164 -774h-104l163 774h-262l21 88h260l106 504h-481l21 88h1067z" />
    <glyph glyph-name="tbar" unicode="&#x167;" horiz-adv-x="671" 
d="M696 901h-282l-72 -344h279l-15 -74h-280l-47 -221q-15 -70 -15 -102q0 -52 25 -74.5t84 -22.5q66 0 164 29l14 -76q-81 -34 -180 -34q-105 0 -155 41.5t-50 132.5q0 56 14 116l45 211h-188l14 74h191l73 344h-192l14 74h193l76 350h98l-74 -350h281z" />
    <glyph glyph-name="Umacron" unicode="&#x16a;" horiz-adv-x="1394" 
d="M1421 1454l-217 -1012q-49 -234 -187 -351.5t-394 -117.5q-229 0 -345 92t-116 265q0 48 20 151l207 973h105l-209 -983q-19 -90 -19 -131q0 -136 93 -207.5t270 -71.5q197 0 312.5 97t158.5 293l215 1003h106zM1184 1733l-19 -82h-483l18 82h484z" />
    <glyph glyph-name="umacron" unicode="&#x16b;" horiz-adv-x="1054" 
d="M891 975h98l-205 -975h-94l35 164q-60 -93 -149.5 -141t-182.5 -48q-145 0 -220 68.5t-75 183.5q0 41 17 135l129 613h98l-131 -623q-14 -69 -14 -114q0 -90 51.5 -135.5t142.5 -45.5q138 0 245 102.5t144 286.5zM913 1305l-18 -82h-483l18 82h483z" />
    <glyph glyph-name="Uring" unicode="&#x16e;" horiz-adv-x="1394" 
d="M1421 1454l-217 -1012q-49 -234 -187 -351.5t-394 -117.5q-229 0 -345 92t-116 265q0 48 20 151l207 973h105l-209 -983q-19 -90 -19 -131q0 -136 93 -207.5t270 -71.5q197 0 312.5 97t158.5 293l215 1003h106zM1133 1739q0 -89 -57.5 -149t-147.5 -60q-79 0 -127.5 47
t-48.5 121q0 88 59.5 150.5t146.5 62.5q80 0 127.5 -48t47.5 -124zM823 1696q0 -47 28.5 -74t76.5 -27q56 0 94.5 42.5t38.5 103.5q0 50 -28.5 77t-78.5 27q-55 0 -93 -43.5t-38 -105.5z" />
    <glyph glyph-name="uring" unicode="&#x16f;" horiz-adv-x="1054" 
d="M891 975h98l-205 -975h-94l35 164q-60 -93 -149.5 -141t-182.5 -48q-145 0 -220 68.5t-75 183.5q0 41 17 135l129 613h98l-131 -623q-14 -69 -14 -114q0 -90 51.5 -135.5t142.5 -45.5q138 0 245 102.5t144 286.5zM864 1329q0 -89 -57.5 -149t-147.5 -60q-79 0 -127.5 47
t-48.5 121q0 88 60 150.5t147 62.5q80 0 127 -48t47 -124zM555 1286q0 -47 28 -73.5t76 -26.5q57 0 95.5 42.5t38.5 102.5q0 50 -28.5 77.5t-78.5 27.5q-55 0 -93 -44t-38 -106z" />
    <glyph glyph-name="Uhungarumlaut" unicode="&#x170;" horiz-adv-x="1394" 
d="M1421 1454l-217 -1012q-49 -234 -187 -351.5t-394 -117.5q-229 0 -345 92t-116 265q0 48 20 151l207 973h105l-209 -983q-19 -90 -19 -131q0 -136 93 -207.5t270 -71.5q197 0 312.5 97t158.5 293l215 1003h106zM1065 1872l-246 -287h-96l217 287h125zM1360 1872
l-248 -287h-96l221 287h123z" />
    <glyph glyph-name="uhungarumlaut" unicode="&#x171;" horiz-adv-x="1054" 
d="M891 975h98l-205 -975h-94l35 164q-60 -93 -149.5 -141t-182.5 -48q-145 0 -220 68.5t-75 183.5q0 41 17 135l129 613h98l-131 -623q-14 -69 -14 -114q0 -90 51.5 -135.5t142.5 -45.5q138 0 245 102.5t144 286.5zM795 1444l-246 -287h-96l217 287h125zM1090 1444
l-248 -287h-97l222 287h123z" />
    <glyph glyph-name="Uogonek" unicode="&#x172;" horiz-adv-x="1394" 
d="M1315 1454h106l-217 -1012q-33 -156 -95 -248t-187 -163q-111 -63 -181.5 -141t-70.5 -144q0 -38 22.5 -59t61.5 -21q23 0 47 6l-19 -73q-35 -7 -49 -7q-64 0 -103.5 34t-39.5 95q0 145 164 261q-56 -9 -133 -9q-229 0 -344 92t-115 265q0 40 16 131l211 993h105
l-213 -1003q-15 -65 -15 -111q0 -139 92.5 -209t270.5 -70q197 0 312.5 97t158.5 293z" />
    <glyph glyph-name="uogonek" unicode="&#x173;" horiz-adv-x="1054" 
d="M588 -254q0 -38 22.5 -59t61.5 -21q24 0 45 6l-17 -73q-35 -7 -51 -7q-62 0 -101.5 35t-39.5 99q0 154 184 274h-2l35 164q-60 -93 -149.5 -141t-182.5 -48q-145 0 -220 68.5t-75 183.5q0 41 17 135l129 613h98l-131 -623q-14 -69 -14 -114q0 -90 51.5 -135.5
t142.5 -45.5q138 0 245 102.5t144 286.5l111 529h98l-205 -975q-102 -69 -149 -128.5t-47 -125.5z" />
    <glyph glyph-name="Wcircumflex" unicode="&#x174;" horiz-adv-x="1875" 
d="M1882 1454h109l-660 -1454h-141l-51 760q-4 82 -4 92q-19 322 -23 477q-84 -183 -270 -571l-371 -758h-149l-39 1454h98l18 -764l4 -119q1 -18 5 -165q2 -72 2 -189l-2 -139q35 76 254 532l38 80l377 764h115l47 -764q23 -356 31 -608q72 176 266 608zM1325 1563
l-123 217l-219 -217h-98l260 282h125l135 -282h-80z" />
    <glyph glyph-name="wcircumflex" unicode="&#x175;" horiz-adv-x="1413" 
d="M1350 977h94l-490 -977h-116l-31 360q-26 284 -37 510q-86 -191 -248 -516l-174 -354h-129l-65 977h94l24 -408q1 -11 3 -37.5t3.5 -55.5t2.5 -58q15 -236 18 -334l109 217l131 266l206 410h93l34 -410q9 -103 9 -104q24 -270 26 -385q78 171 236 485zM989 1135l-123 217
l-219 -217h-98l260 282h125l135 -282h-80z" />
    <glyph glyph-name="Ycircumflex" unicode="&#x176;" horiz-adv-x="1245" 
d="M1274 1454h123l-695 -825l-131 -629h-106l135 631l-338 823h107l295 -735zM997 1563l-123 217l-219 -217h-98l260 282h125l135 -282h-80z" />
    <glyph glyph-name="ycircumflex" unicode="&#x177;" horiz-adv-x="915" 
d="M864 975h101l-629 -1141q-33 -59 -53.5 -90t-45.5 -61.5t-50 -43.5t-57.5 -21.5t-78.5 -10.5q-61 0 -123 16l27 78q49 -12 86 -12q68 0 112.5 39t106.5 153l29 51l-146 1043h93l49 -348q28 -189 77 -576l52 96q145 283 245 459zM741 1135l-123 217l-219 -217h-98l260 282
h125l135 -282h-80z" />
    <glyph glyph-name="Ydieresis" unicode="&#x178;" horiz-adv-x="1245" 
d="M1274 1454h123l-695 -825l-131 -629h-106l135 631l-338 823h107l295 -735zM766 1815l-37 -177h-102l37 177h102zM1098 1815l-37 -177h-103l37 177h103z" />
    <glyph glyph-name="Zacute" unicode="&#x179;" horiz-adv-x="1243" 
d="M1370 1454l-18 -78l-1221 -1288h942l-18 -88h-1080l17 78l1218 1288h-899l21 88h1038zM1147 1845l-248 -282h-92l211 282h129z" />
    <glyph glyph-name="zacute" unicode="&#x17a;" horiz-adv-x="942" 
d="M950 975l-14 -70l-805 -823h631l-17 -82h-761l14 72l803 819h-588l16 84h721zM922 1417l-248 -282h-92l211 282h129z" />
    <glyph glyph-name="Zdotaccent" unicode="&#x17b;" horiz-adv-x="1243" 
d="M1370 1454l-18 -78l-1221 -1288h942l-18 -88h-1080l17 78l1218 1288h-899l21 88h1038zM954 1815l-36 -177h-99l37 177h98z" />
    <glyph glyph-name="zdotaccent" unicode="&#x17c;" horiz-adv-x="942" 
d="M950 975l-14 -70l-805 -823h631l-17 -82h-761l14 72l803 819h-588l16 84h721zM729 1386l-37 -176h-98l37 176h98z" />
    <glyph glyph-name="Zcaron" unicode="&#x17d;" horiz-adv-x="1243" 
d="M1370 1454l-18 -78l-1221 -1288h942l-18 -88h-1080l17 78l1218 1288h-899l21 88h1038zM1182 1872l-262 -287h-125l-133 287h77l123 -221l221 221h99z" />
    <glyph glyph-name="zcaron" unicode="&#x17e;" horiz-adv-x="942" 
d="M950 975l-14 -70l-805 -823h631l-17 -82h-761l14 72l803 819h-588l16 84h721zM956 1444l-262 -287h-125l-133 287h78l123 -221l221 221h98z" />
    <glyph glyph-name="florin" unicode="&#x192;" 
d="M700 913h283l-14 -73h-283l-205 -955q-31 -143 -97.5 -212.5t-190.5 -69.5q-99 0 -193 30l41 78q83 -24 152 -24q88 0 127.5 46t64.5 161l203 946h-248l14 73h248l49 224q30 141 103.5 213.5t203.5 72.5q119 0 203 -34l-45 -80q-92 28 -153 28q-97 0 -144.5 -50
t-77.5 -175z" />
    <glyph glyph-name="uni0218" unicode="&#x218;" horiz-adv-x="1271" 
d="M1274 1260l-70 -72q-193 205 -446 205q-172 0 -292 -92.5t-120 -231.5q0 -72 41 -119q42 -43 118 -76.5t236 -82.5q162 -51 251 -105.5t123 -118t34 -157.5q0 -83 -35 -161t-98.5 -140.5t-162.5 -100t-218 -37.5q-158 0 -295.5 58.5t-284.5 177.5l64 76
q272 -224 520 -224q181 0 293 102t112 249q-2 43 -10.5 75t-28.5 59.5t-45 47.5t-70 41.5t-93.5 39t-124.5 42.5q-89 29 -147.5 51t-109.5 47t-80 48t-50.5 54t-30 66t-10.5 82q0 172 146 295t372 123q291 0 512 -221zM559 -166l-31 -147l-133 -195h-63l123 195h-70l31 147
h143z" />
    <glyph glyph-name="uni0219" unicode="&#x219;" horiz-adv-x="917" 
d="M864 844l-61 -68q-145 142 -309 142q-112 0 -186.5 -57t-74.5 -130q2 -32 10.5 -52.5t21.5 -36.5t45.5 -31t67 -27t103.5 -33q131 -41 181 -64q139 -59 139 -202q0 -129 -101 -219.5t-282 -90.5q-116 0 -209 44.5t-193 136.5l66 63q93 -84 172 -123t174 -39
q127 0 202 62.5t75 161.5q0 53 -35 88q-30 33 -76 51t-174 55q-117 37 -178.5 72t-83 73t-21.5 97q0 119 102.5 200.5t260.5 81.5q202 0 364 -155zM434 -166l-31 -147l-133 -195h-63l123 195h-70l31 147h143z" />
    <glyph glyph-name="uni021A" unicode="&#x21a;" horiz-adv-x="1212" 
d="M1346 1454l-21 -88h-479l-291 -1366h-104l288 1366h-481l21 88h1067zM543 -166l-31 -147l-133 -195h-64l123 195h-69l30 147h144z" />
    <glyph glyph-name="uni021B" unicode="&#x21b;" horiz-adv-x="671" 
d="M414 901l-135 -639q-15 -70 -15 -102q0 -52 25 -74.5t84 -22.5q66 0 164 29l14 -76q-81 -34 -180 -34q-105 0 -155 41.5t-50 132.5q0 56 14 116l135 629h-192l14 74h193l76 350h98l-74 -350h281l-15 -74h-282zM387 -166l-31 -147l-133 -195h-63l123 195h-70l31 147h143z
" />
    <glyph glyph-name="uni0237" unicode="&#x237;" horiz-adv-x="411" 
d="M-145 -313q37 2 62.5 12t43 24t31.5 45.5t23.5 63.5t23.5 92l221 1051h98l-231 -1094q-30 -148 -88.5 -213t-177.5 -65q-96 0 -180 32l30 74q77 -22 144 -22z" />
    <glyph glyph-name="circumflex" unicode="&#x2c6;" horiz-adv-x="774" 
d="M705 1135l-123 217l-220 -217h-98l260 282h125l135 -282h-79z" />
    <glyph glyph-name="caron" unicode="&#x2c7;" horiz-adv-x="774" 
d="M850 1444l-262 -287h-125l-133 287h78l122 -221l222 221h98z" />
    <glyph glyph-name="breve" unicode="&#x2d8;" horiz-adv-x="770" 
d="M829 1364q-21 -111 -93 -173.5t-191 -62.5q-111 0 -173.5 55t-62.5 138q0 23 4 43h86q-2 -8 -2 -39q0 -127 154 -127q79 0 126 45.5t60 120.5h92z" />
    <glyph glyph-name="dotaccent" unicode="&#x2d9;" horiz-adv-x="352" 
d="M416 1386l-37 -176h-98l36 176h99z" />
    <glyph glyph-name="ring" unicode="&#x2da;" horiz-adv-x="636" 
d="M684 1329q0 -89 -57.5 -149t-147.5 -60q-79 0 -127.5 47t-48.5 121q0 88 60 150.5t147 62.5q80 0 127 -48t47 -124zM375 1286q0 -47 28 -73.5t76 -26.5q57 0 95 42t38 103q0 51 -28 78t-78 27q-55 0 -93 -44t-38 -106z" />
    <glyph glyph-name="ogonek" unicode="&#x2db;" horiz-adv-x="479" 
d="M211 35l35 -35q-103 -69 -150 -128.5t-47 -125.5q0 -38 22.5 -59t61.5 -21q24 0 45 6l-16 -73q-35 -7 -51 -7q-62 0 -102 35t-40 99q0 84 59 163.5t183 145.5z" />
    <glyph glyph-name="tilde" unicode="&#x2dc;" horiz-adv-x="808" 
d="M602 1290q67 -45 98 -45q34 0 53.5 26.5t32.5 80.5h80q-19 -90 -60 -141.5t-101 -51.5q-30 0 -55 11.5t-75 41.5q-76 54 -126 54q-73 0 -99 -107h-80q19 88 67 140.5t118 52.5q35 0 63.5 -13t83.5 -49z" />
    <glyph glyph-name="hungarumlaut" unicode="&#x2dd;" horiz-adv-x="831" 
d="M612 1444l-245 -287h-97l217 287h125zM907 1444l-248 -287h-96l221 287h123z" />
    <glyph glyph-name="gravecomb" unicode="&#x300;" horiz-adv-x="0" 
d="M-274 1417h104l94 -282h-74z" />
    <glyph glyph-name="acutecomb" unicode="&#x301;" horiz-adv-x="0" 
d="M61 1417l-247 -282h-93l211 282h129z" />
    <glyph glyph-name="uni0302" unicode="&#x302;" horiz-adv-x="0" 
d="M-98 1135l-123 217l-219 -217h-99l260 282h125l136 -282h-80z" />
    <glyph glyph-name="tildecomb" unicode="&#x303;" horiz-adv-x="0" 
d="M-315 1290q67 -45 98 -45q34 0 53.5 26.5t32.5 80.5h80q-19 -89 -60.5 -141t-101.5 -52q-21 0 -41.5 7t-36.5 15.5t-51 30.5q-76 54 -127 54q-72 0 -98 -107h-80q20 88 67 140.5t117 52.5q35 0 64.5 -13.5t83.5 -48.5z" />
    <glyph glyph-name="uni0304" unicode="&#x304;" horiz-adv-x="0" 
d="M-47 1305l-19 -82h-483l19 82h483z" />
    <glyph glyph-name="uni0306" unicode="&#x306;" horiz-adv-x="0" 
d="M-23 1364q-21 -111 -93 -173.5t-191 -62.5q-111 0 -173.5 55t-62.5 138q0 23 4 43h86q-2 -8 -2 -39q0 -127 154 -127q79 0 126 45.5t60 120.5h92z" />
    <glyph glyph-name="uni0307" unicode="&#x307;" horiz-adv-x="0" 
d="M-20 1386l-37 -176h-99l37 176h99z" />
    <glyph glyph-name="uni0308" unicode="&#x308;" horiz-adv-x="0" 
d="M-358 1386l-37 -176h-103l37 176h103zM-27 1386l-36 -176h-103l37 176h102z" />
    <glyph glyph-name="uni030A" unicode="&#x30a;" horiz-adv-x="0" 
d="M-45 1329q0 -89 -57.5 -149t-147.5 -60q-79 0 -127.5 47t-48.5 121q0 88 60 150.5t147 62.5q80 0 127 -48t47 -124zM-354 1286q0 -47 28 -73.5t76 -26.5q57 0 95 42t38 103q0 51 -28 78t-78 27q-55 0 -93 -44t-38 -106z" />
    <glyph glyph-name="uni030B" unicode="&#x30b;" horiz-adv-x="0" 
d="M-289 1444l-246 -287h-96l217 287h125zM6 1444l-248 -287h-96l221 287h123z" />
    <glyph glyph-name="uni030C" unicode="&#x30c;" horiz-adv-x="0" 
d="M20 1444l-262 -287h-125l-133 287h78l123 -221l221 221h98z" />
    <glyph glyph-name="uni0326" unicode="&#x326;" horiz-adv-x="0" 
d="M-336 -166l-31 -147l-133 -195h-63l123 195h-70l31 147h143z" />
    <glyph glyph-name="uni0327" unicode="&#x327;" horiz-adv-x="0" 
d="M-348 -287q0 -76 -58 -127t-155 -51q-120 0 -221 66l47 65q100 -53 166 -53q71 0 106 27t35 73q0 37 -33.5 58.5t-87.5 21.5q-35 0 -59 -6l-37 47l133 201l59 -35l-96 -143q6 2 25 2q69 0 122.5 -38.5t53.5 -107.5z" />
    <glyph glyph-name="uni0328" unicode="&#x328;" horiz-adv-x="0" 
d="M-344 35l35 -35q-103 -69 -150 -128.5t-47 -125.5q0 -38 22.5 -59t61.5 -21q24 0 45 6l-16 -73q-35 -7 -51 -7q-62 0 -102 35t-40 99q0 84 59 163.5t183 145.5z" />
    <glyph glyph-name="uni037E" unicode="&#x37e;" horiz-adv-x="479" 
d="M258 158l-33 -158l-141 -215h-70l136 215h-74l33 158h149zM422 975l-31 -158h-139l33 158h137z" />
    <glyph glyph-name="tonos" unicode="&#x384;" horiz-adv-x="634" 
d="M455 1157h-80l149 287h111z" />
    <glyph glyph-name="dieresistonos" unicode="&#x385;" horiz-adv-x="972" 
d="M565 1210l111 234h119l-140 -234h-90zM397 1210l35 160h109l-35 -160h-109zM782 1210l35 160h109l-33 -160h-111z" />
    <glyph glyph-name="Alphatonos" unicode="&#x386;" horiz-adv-x="1300" 
d="M1049 0l-68 440h-666l-254 -440h-114l841 1454h138l223 -1454h-100zM367 530h602l-33 213l-10 64q-71 464 -82 569q-129 -238 -357 -635zM311 1167h-80l150 287h111z" />
    <glyph glyph-name="anoteleia" unicode="&#x387;" horiz-adv-x="397" 
d="M307 688l-31 -158h-139l33 158h137z" />
    <glyph glyph-name="Epsilontonos" unicode="&#x388;" horiz-adv-x="1218" 
d="M1315 1454l-21 -88h-815l-123 -575h756l-18 -89h-756l-131 -614h831l-18 -88h-936l309 1454h922zM70 1167h-80l149 287h111z" />
    <glyph glyph-name="Etatonos" unicode="&#x389;" horiz-adv-x="1480" 
d="M1499 1454l-309 -1454h-105l148 702h-895l-148 -702h-106l309 1454h107l-142 -663h893l144 663h104zM70 1167h-80l149 287h111z" />
    <glyph glyph-name="Iotatonos" unicode="&#x38a;" horiz-adv-x="518" 
d="M500 1454l-310 -1454h-106l309 1454h107zM70 1167h-80l149 287h111z" />
    <glyph glyph-name="Omicrontonos" unicode="&#x38c;" horiz-adv-x="1515" 
d="M1475 897q0 -206 -86 -422q-82 -213 -261 -360q-176 -144 -428 -144q-263 0 -409 155.5t-146 432.5q0 209 88 422t265 358q175 144 428 144q262 0 405.5 -156t143.5 -430zM250 557q0 -235 121.5 -366.5t326.5 -131.5q124 -3 234 47t189 136t136.5 196t85.5 228.5
t27 232.5q0 233 -119 364.5t-327 131.5q-124 3 -234.5 -46.5t-189.5 -135t-137 -195t-86 -228.5t-27 -233zM86 1167h-80l150 287h110z" />
    <glyph glyph-name="Upsilontonos" unicode="&#x38e;" horiz-adv-x="1226" 
d="M1274 1454h123l-695 -825l-131 -629h-106l135 631l-338 823h107l295 -735zM16 1167h-79l149 287h111z" />
    <glyph glyph-name="Omegatonos" unicode="&#x38f;" horiz-adv-x="1515" 
d="M1016 88h336l-21 -88h-526l20 88q253 85 396 299q141 211 141 496q0 241 -117 376.5t-334 135.5q-117 3 -223.5 -43.5t-186 -128.5t-139 -188.5t-89 -226.5t-27.5 -239q0 -173 83.5 -296.5t248.5 -184.5l-21 -88h-524l20 88h336q-120 68 -184 197.5t-64 292.5
q0 214 90 426q91 210 269 344q176 135 413 135q259 0 406 -160.5t147 -425.5q0 -118 -29 -238t-84 -229.5t-142 -200.5t-195 -141zM86 1167h-80l150 287h110z" />
    <glyph glyph-name="iotadieresistonos" unicode="&#x390;" horiz-adv-x="413" 
d="M154 0h-101l205 975h100zM301 1210l111 234h118l-139 -234h-90zM133 1210l35 160h108l-34 -160h-109zM518 1210l35 160h109l-33 -160h-111z" />
    <glyph glyph-name="Alpha" unicode="&#x391;" horiz-adv-x="1300" 
d="M1049 0l-68 440h-666l-254 -440h-114l841 1454h138l223 -1454h-100zM367 530h602l-33 213l-10 64q-71 464 -82 569q-129 -238 -357 -635z" />
    <glyph glyph-name="Beta" unicode="&#x392;" horiz-adv-x="1353" 
d="M1241 453q0 -91 -34.5 -172t-99 -144t-165.5 -100t-225 -37h-633l309 1454h557q168 0 272.5 -86t104.5 -233q0 -135 -79 -237.5t-212 -137.5q91 -34 148 -114.5t57 -192.5zM479 1362l-117 -551h455q208 0 310 87.5t102 236.5q0 108 -76.5 167.5t-212.5 59.5h-461z
M1137 461q0 122 -84.5 191t-233.5 69h-477l-133 -629h481q241 0 342 107q105 108 105 262z" />
    <glyph glyph-name="Gamma" unicode="&#x393;" horiz-adv-x="1140" 
d="M1257 1366h-774l-290 -1366h-109l311 1454h883z" />
    <glyph glyph-name="uni0394" unicode="&#x394;" horiz-adv-x="1298" 
d="M922 1454l225 -1454h-1204l841 1454h138zM111 88h921l-98 651l-29 187q-45 292 -63 452q-96 -178 -359 -637z" />
    <glyph glyph-name="Epsilon" unicode="&#x395;" horiz-adv-x="1222" 
d="M1315 1454l-21 -88h-815l-123 -575h756l-18 -89h-756l-131 -614h831l-18 -88h-936l309 1454h922z" />
    <glyph glyph-name="Zeta" unicode="&#x396;" horiz-adv-x="1243" 
d="M1370 1454l-18 -78l-1221 -1288h942l-18 -88h-1080l17 78l1218 1288h-899l21 88h1038z" />
    <glyph glyph-name="Eta" unicode="&#x397;" horiz-adv-x="1482" 
d="M1499 1454l-309 -1454h-105l148 702h-895l-148 -702h-106l309 1454h107l-142 -663h893l144 663h104z" />
    <glyph glyph-name="Theta" unicode="&#x398;" horiz-adv-x="1519" 
d="M145 559q0 209 88 422t265 358q175 144 428 144q262 0 405.5 -156t143.5 -430q0 -206 -86 -422q-82 -213 -261 -360q-176 -144 -428 -144q-263 0 -409 155.5t-146 432.5zM1370 899q0 233 -119 364.5t-327 131.5q-124 3 -234.5 -46.5t-189.5 -135t-137 -195t-86 -228.5
t-27 -233q0 -235 121.5 -366.5t326.5 -131.5q124 -3 234 47t189 136t136.5 196t85.5 228.5t27 232.5zM471 702l21 89h661l-20 -89h-662z" />
    <glyph glyph-name="Iota" unicode="&#x399;" horiz-adv-x="483" 
d="M500 1454l-310 -1454h-106l309 1454h107z" />
    <glyph glyph-name="Kappa" unicode="&#x39a;" horiz-adv-x="1290" 
d="M1419 1454l-686 -573l422 -881h-111l-389 817l-354 -295l-111 -522h-106l309 1454h107l-168 -790l944 790h143z" />
    <glyph glyph-name="Lambda" unicode="&#x39b;" horiz-adv-x="1241" 
d="M895 1454l195 -1454h-101l-100 739l-23 176q-44 303 -53 459q-81 -165 -172 -330l-133 -239l-37 -64l-414 -741h-114l813 1454h139z" />
    <glyph glyph-name="Mu" unicode="&#x39c;" horiz-adv-x="1710" 
d="M1546 1454h180l-309 -1454h-102l151 717l142 657q-8 -14 -256 -436q-30 -48 -131 -221l-424 -717h-95l-124 719q-63 348 -107 659l-137 -663l-152 -715h-98l309 1454h164l115 -682q11 -71 14 -82l37 -229q30 -191 45 -340q138 254 354 614l21 37z" />
    <glyph glyph-name="Nu" unicode="&#x39d;" horiz-adv-x="1486" 
d="M1401 1454h102l-309 -1454h-123l-332 727l-69 154q-128 278 -207 460q-68 -363 -111 -555l-166 -786h-102l309 1454h121l326 -715q106 -231 188 -420l94 -206q66 348 113 563z" />
    <glyph glyph-name="Xi" unicode="&#x39e;" horiz-adv-x="1277" 
d="M291 1358l20 96h1063l-18 -96h-1065zM213 700l20 97h936l-18 -97h-938zM-12 0l20 96h1092l-19 -96h-1093z" />
    <glyph glyph-name="Omicron" unicode="&#x39f;" horiz-adv-x="1519" 
d="M1475 897q0 -206 -86 -422q-82 -213 -261 -360q-176 -144 -428 -144q-263 0 -409 155.5t-146 432.5q0 209 88 422t265 358q175 144 428 144q262 0 405.5 -156t143.5 -430zM250 557q0 -235 121.5 -366.5t326.5 -131.5q124 -3 234 47t189 136t136.5 196t85.5 228.5
t27 232.5q0 233 -119 364.5t-327 131.5q-124 3 -234.5 -46.5t-189.5 -135t-137 -195t-86 -228.5t-27 -233z" />
    <glyph glyph-name="Pi" unicode="&#x3a0;" horiz-adv-x="1445" 
d="M1153 0h-106l290 1366h-856l-291 -1366h-106l309 1454h1069z" />
    <glyph glyph-name="Rho" unicode="&#x3a1;" horiz-adv-x="1290" 
d="M1341 1106q0 -74 -20 -143t-62.5 -130.5t-103 -107.5t-147.5 -73t-191 -27h-493l-134 -625h-106l309 1454h565q173 0 278 -93t105 -255zM932 1366h-453l-137 -653h438q235 0 346 114t111 281q0 122 -81 190t-224 68z" />
    <glyph glyph-name="Sigma" unicode="&#x3a3;" horiz-adv-x="1212" 
d="M1309 1454l-23 -90h-911l399 -627l-645 -647h901l-16 -90h-1037l17 80l653 665l-375 607l23 102h1014z" />
    <glyph glyph-name="Tau" unicode="&#x3a4;" horiz-adv-x="1212" 
d="M1346 1454l-21 -88h-479l-291 -1366h-104l288 1366h-481l21 88h1067z" />
    <glyph glyph-name="Upsilon" unicode="&#x3a5;" horiz-adv-x="1245" 
d="M1274 1454h123l-695 -825l-131 -629h-106l135 631l-338 823h107l295 -735z" />
    <glyph glyph-name="Phi" unicode="&#x3a6;" horiz-adv-x="1574" 
d="M1522 834q3 -150 -59.5 -284.5t-168 -228.5t-245.5 -147.5t-289 -50.5l-27 -123h-100l26 125q-250 18 -379.5 156t-129.5 358q-3 151 59 285.5t166 228.5t243.5 147.5t288.5 51.5h13l20 102h100l-22 -106q247 -20 375.5 -158t128.5 -356zM682 213l223 1053
q-132 -3 -250 -49.5t-207.5 -127t-141.5 -199.5t-52 -259q0 -180 107.5 -292.5t320.5 -125.5zM1415 842q0 180 -105 292.5t-313 129.5l-223 -1053q126 3 243 49.5t206.5 127t142 199t49.5 255.5z" />
    <glyph glyph-name="Chi" unicode="&#x3a7;" horiz-adv-x="1218" 
d="M1335 1454l-612 -698l352 -756h-108l-320 688l-598 -688h-125l674 768l-322 686h109l287 -620l540 620h123z" />
    <glyph glyph-name="Psi" unicode="&#x3a8;" horiz-adv-x="1548" 
d="M1473 1454h106l-143 -670q-41 -190 -195 -317t-422 -127h-18l-72 -340h-104l71 340q-217 6 -334.5 116t-117.5 267q0 47 8 78l139 653h107l-144 -666q-6 -30 -6 -61q0 -127 99 -212.5t268 -88.5l219 1028h104l-219 -1028h23q190 0 323.5 105.5t165.5 259.5z" />
    <glyph glyph-name="uni03A9" unicode="&#x3a9;" horiz-adv-x="1521" 
d="M1016 88h336l-21 -88h-526l20 88q253 85 396 299q141 211 141 496q0 241 -117 376.5t-334 135.5q-117 3 -223.5 -43.5t-186 -128.5t-139 -188.5t-89 -226.5t-27.5 -239q0 -173 83.5 -296.5t248.5 -184.5l-21 -88h-524l20 88h336q-120 68 -184 197.5t-64 292.5
q0 214 90 426q91 210 269 344q176 135 413 135q259 0 406 -160.5t147 -425.5q0 -118 -29 -238t-84 -229.5t-142 -200.5t-195 -141z" />
    <glyph glyph-name="Iotadieresis" unicode="&#x3aa;" horiz-adv-x="483" 
d="M500 1454l-310 -1454h-106l309 1454h107zM410 1815l-37 -177h-103l37 177h103zM741 1815l-36 -177h-103l37 177h102z" />
    <glyph glyph-name="Upsilondieresis" unicode="&#x3ab;" horiz-adv-x="1245" 
d="M1274 1454h123l-695 -825l-131 -629h-106l135 631l-338 823h107l295 -735zM766 1815l-37 -177h-102l37 177h102zM1098 1815l-37 -177h-103l37 177h103z" />
    <glyph glyph-name="alphatonos" unicode="&#x3ac;" horiz-adv-x="1097" 
d="M934 975h94l-207 -975h-90l43 201q-145 -224 -364 -224q-164 0 -250 93.5t-86 261.5q-1 88 20 181t66 180.5t107.5 155.5t150.5 108t188 38q118 0 192 -50.5t101 -141.5zM848 647q0 127 -60.5 197.5t-177.5 70.5q-100 4 -186 -51t-139.5 -142.5t-83.5 -188.5t-29 -195
q0 -142 58 -210.5t176 -68.5q71 -3 139.5 31t123 94t96 136t63 161.5t20.5 165.5zM741 1157h-79l149 287h111z" />
    <glyph glyph-name="epsilontonos" unicode="&#x3ad;" horiz-adv-x="964" 
d="M266 707q0 -75 63.5 -115.5t176.5 -40.5h151l-20 -80h-139q-138 0 -240 -57q-104 -55 -104 -189q0 -170 274 -170q107 0 184 39q82 42 193 125l49 -72q-118 -90 -219 -131t-211 -41q-178 0 -275.5 70.5t-97.5 194.5q0 108 73 179t202 103q-79 25 -121.5 73.5t-42.5 115.5
q0 71 36.5 127.5t97.5 90.5t133.5 52t150.5 18q123 0 206 -28t164 -99l-57 -71q-70 64 -141.5 88t-165.5 24q-116 0 -219 -47q-101 -46 -101 -159zM676 1157h-80l149 287h111z" />
    <glyph glyph-name="etatonos" unicode="&#x3ae;" horiz-adv-x="1073" 
d="M971 758q0 -54 -15 -131l-211 -996h-102l211 1000q12 68 12 121q0 168 -200 168q-85 0 -165 -41t-142.5 -126t-84.5 -198l-116 -555h-101l205 975h96l-32 -156q127 180 346 180q142 0 220.5 -68t78.5 -173zM713 1157h-80l149 287h111z" />
    <glyph glyph-name="iotatonos" unicode="&#x3af;" horiz-adv-x="413" 
d="M154 0h-101l205 975h100zM385 1157h-80l150 287h110z" />
    <glyph glyph-name="upsilondieresistonos" unicode="&#x3b0;" horiz-adv-x="1046" 
d="M113 301q0 58 16 133l115 541h102l-121 -574q-12 -64 -12 -98q0 -112 60.5 -179t175.5 -67q140 0 213.5 84.5t107.5 253.5l123 580h100l-127 -598q-44 -207 -142 -304.5t-280 -97.5q-158 0 -244.5 87.5t-86.5 238.5zM602 1210l111 234h118l-139 -234h-90zM434 1210
l35 160h109l-35 -160h-109zM819 1210l35 160h109l-33 -160h-111z" />
    <glyph glyph-name="alpha" unicode="&#x3b1;" horiz-adv-x="1091" 
d="M934 975h94l-207 -975h-90l43 201q-145 -224 -364 -224q-164 0 -250 93.5t-86 261.5q-1 88 20 181t66 180.5t107.5 155.5t150.5 108t188 38q118 0 192 -50.5t101 -141.5zM848 647q0 127 -60.5 197.5t-177.5 70.5q-100 4 -186 -51t-139.5 -142.5t-83.5 -188.5t-29 -195
q0 -142 58 -210.5t176 -68.5q71 -3 139.5 31t123 94t96 136t63 161.5t20.5 165.5z" />
    <glyph glyph-name="beta" unicode="&#x3b2;" horiz-adv-x="1087" 
d="M1024 471q0 -213 -134 -353.5t-343 -140.5q-108 0 -209 52q-99 51 -143 176l-125 -574h-99l301 1436q38 179 156 297q121 121 309 121q159 0 257 -87t98 -216q0 -146 -79 -245t-222 -144q102 -33 167.5 -120t65.5 -202zM915 469q0 125 -80.5 206t-207.5 81h-107l17 84
h114q140 0 239 99t99 243q0 99 -67.5 158t-180.5 59q-144 0 -240.5 -92t-129.5 -254l-123 -582q-10 -58 -10 -90q0 -137 86 -229q90 -93 229 -93q160 0 261 116.5t101 293.5z" />
    <glyph glyph-name="gamma" unicode="&#x3b3;" horiz-adv-x="919" 
d="M221 -369l78 365l-158 979h97l61 -385q37 -219 72 -500q126 239 270 496l227 389h105l-574 -987l-77 -357h-101z" />
    <glyph glyph-name="delta" unicode="&#x3b4;" horiz-adv-x="1054" 
d="M72 369q-3 162 67.5 303.5t200.5 226.5t287 78q43 0 67 -8l-323 409l14 76h705l-17 -84h-579l344 -434q143 -182 143 -375q2 -104 -37.5 -210t-107.5 -190.5t-169 -136.5t-212 -49q-181 0 -282 106t-101 288zM881 559q0 154 -69 242t-212 88q-115 4 -216 -72
t-156.5 -194.5t-53.5 -241.5q0 -146 67.5 -235t207.5 -89q120 -3 221.5 70.5t157 190t53.5 241.5z" />
    <glyph glyph-name="epsilon" unicode="&#x3b5;" horiz-adv-x="964" 
d="M266 707q0 -75 63.5 -115.5t176.5 -40.5h151l-20 -80h-139q-138 0 -240 -57q-104 -55 -104 -189q0 -170 274 -170q107 0 184 39q82 42 193 125l49 -72q-118 -90 -219 -131t-211 -41q-178 0 -275.5 70.5t-97.5 194.5q0 108 73 179t202 103q-79 25 -121.5 73.5t-42.5 115.5
q0 71 36.5 127.5t97.5 90.5t133.5 52t150.5 18q123 0 206 -28t164 -99l-57 -71q-70 64 -141.5 88t-165.5 24q-116 0 -219 -47q-101 -46 -101 -159z" />
    <glyph glyph-name="zeta" unicode="&#x3b6;" horiz-adv-x="962" 
d="M662 -344l-56 84l56 39q92 63 92 131q0 90 -119 90h-152q-190 0 -293.5 82.5t-103.5 232.5q0 288 242 551q239 262 592 504h-603l17 84h762l-13 -70q-229 -153 -415 -305q-193 -157 -334 -356q-146 -205 -146 -412q0 -227 306 -227h143q103 0 159 -46.5t56 -127.5
q0 -73 -44 -129t-146 -125z" />
    <glyph glyph-name="eta" unicode="&#x3b7;" horiz-adv-x="1073" 
d="M971 758q0 -54 -15 -131l-211 -996h-102l211 1000q12 68 12 121q0 168 -200 168q-85 0 -165 -41t-142.5 -126t-84.5 -198l-116 -555h-101l205 975h96l-32 -156q127 180 346 180q142 0 220.5 -68t78.5 -173z" />
    <glyph glyph-name="theta" unicode="&#x3b8;" horiz-adv-x="1097" 
d="M119 418q0 261 67 532q70 270 222 416q120 117 313 117q174 0 254 -127t80 -320q0 -262 -70 -530q-67 -268 -219 -414q-120 -117 -313 -117q-170 0 -252 125t-82 318zM258 778h674q22 184 22 252q0 155 -53 264t-194 109q-139 0 -242 -109q-136 -150 -207 -516zM709 164
q77 86 126.5 218.5t84.5 319.5h-674q-27 -159 -27 -276q0 -153 53 -262q56 -109 197 -109q137 0 240 109z" />
    <glyph glyph-name="iota" unicode="&#x3b9;" horiz-adv-x="413" 
d="M154 0h-101l205 975h100z" />
    <glyph glyph-name="kappa" unicode="&#x3ba;" horiz-adv-x="952" 
d="M981 975l-424 -373l289 -602h-103l-262 543l-260 -217l-67 -326h-101l205 975h100l-110 -522l600 522h133z" />
    <glyph glyph-name="lambda" unicode="&#x3bb;" horiz-adv-x="952" 
d="M610 1260l176 -1260h-96l-57 414l-43 362q-9 59 -12 101q-151 -275 -261 -461l-245 -416h-111l588 991l-31 248q-11 88 -34 122t-72 34q-44 0 -127 -27l-23 82q90 33 160 33q88 0 129 -53.5t59 -169.5z" />
    <glyph glyph-name="uni03BC" unicode="&#x3bc;" horiz-adv-x="1071" 
d="M903 975h103l-207 -975h-97l31 152q-61 -87 -147.5 -133t-175.5 -46q-186 0 -242 109l-96 -457h-101l285 1350h100l-133 -639q-10 -72 -10 -105q0 -87 44.5 -128.5t141.5 -41.5q139 0 248 102t146 283z" />
    <glyph glyph-name="nu" unicode="&#x3bd;" horiz-adv-x="919" 
d="M866 975h103l-553 -975h-137l-136 975h95l55 -397l67 -508q97 185 281 505z" />
    <glyph glyph-name="xi" unicode="&#x3be;" horiz-adv-x="1015" 
d="M651 -344l-51 68q42 30 63 47t44 40t32 45t9 48q0 45 -34.5 70.5t-95.5 25.5h-145q-189 0 -292 83t-103 232q0 156 104 281q109 130 271 176q-75 27 -128 98.5t-53 155.5q0 113 63 203.5t185 138.5h-239l16 86h790l-16 -84h-287q-107 0 -198 -38.5t-150 -118t-59 -185.5
q0 -95 77 -159t197 -64h252l-18 -84h-246q-121 0 -224.5 -47.5t-169 -142.5t-65.5 -218q0 -113 80.5 -171t214.5 -58h148q105 0 163 -44.5t58 -123.5q0 -75 -45 -132.5t-148 -127.5z" />
    <glyph glyph-name="omicron" unicode="&#x3bf;" horiz-adv-x="1056" 
d="M979 608q1 -83 -19 -170.5t-63 -171.5t-103.5 -149.5t-149 -104.5t-189.5 -37q-179 0 -280 105.5t-101 290.5q-1 80 19 165.5t63.5 170t104.5 150.5t150 105.5t193 36.5q176 0 275.5 -105t99.5 -286zM172 369q0 -147 74 -230.5t203 -83.5q80 -2 151 31t122 90t88 129.5
t54.5 150.5t16.5 152q0 148 -73 229t-204 81q-98 3 -182.5 -48.5t-137.5 -133.5t-83 -178.5t-29 -188.5z" />
    <glyph glyph-name="pi" unicode="&#x3c0;" horiz-adv-x="1144" 
d="M985 889l-139 -653q-17 -87 -17 -99q0 -37 19 -54t61 -17q47 0 115 18l25 -76q-79 -26 -160 -26t-117.5 35t-36.5 108q0 45 13 108l137 656h-469l-191 -889h-100l190 889h-190l18 86h1041l-19 -86h-180z" />
    <glyph glyph-name="rho" unicode="&#x3c1;" horiz-adv-x="1091" 
d="M1020 629q1 -90 -20 -181.5t-65 -176.5t-105.5 -150.5t-150 -104t-190.5 -36.5q-116 0 -194 50t-109 138l-114 -537h-101l195 914q44 207 178 329q134 125 326 125q152 0 250 -98q100 -97 100 -272zM920 621q0 141 -68 219t-190 78q-121 3 -222 -78t-157 -219.5
t-54 -301.5q0 -116 70.5 -187t185.5 -71q83 -2 156 31.5t123 91t86.5 131.5t53.5 152.5t16 153.5z" />
    <glyph glyph-name="uni03C2" unicode="&#x3c2;" horiz-adv-x="931" 
d="M530 -344l-47 68q76 53 109 88.5t33 76.5q0 38 -47.5 67t-157.5 62q-354 111 -354 414q0 158 65 287.5t183 204.5t266 75q120 0 201.5 -47.5t144.5 -146.5l-82 -51q-57 91 -117 127.5t-152 36.5q-178 0 -292.5 -136t-114.5 -344q0 -131 69 -210t216 -132l63 -22
q122 -41 164.5 -71.5t42.5 -88.5q0 -76 -44.5 -132t-148.5 -126z" />
    <glyph glyph-name="sigma" unicode="&#x3c3;" horiz-adv-x="1077" 
d="M1104 975l-6 -84h-281q154 -92 154 -320q1 -87 -21.5 -174t-68 -163.5t-106.5 -135.5t-143.5 -92t-172.5 -31q-181 0 -283 105t-102 293q-2 109 35 217t102 195t165.5 140t215.5 50h512zM868 557q0 160 -72.5 247t-211.5 87q-89 2 -168 -43t-131.5 -119.5t-82 -168.5
t-28.5 -189q0 -148 72 -231t200 -83q120 -3 219.5 73t152 191.5t50.5 235.5z" />
    <glyph glyph-name="tau" unicode="&#x3c4;" horiz-adv-x="835" 
d="M516 891l-133 -629q-14 -66 -14 -104q0 -48 24.5 -70t83.5 -22q75 0 164 30l14 -80q-89 -34 -182 -34q-105 0 -155 41.5t-50 132.5q0 52 15 116l133 619h-320l19 84h749l-18 -84h-330z" />
    <glyph glyph-name="upsilon" unicode="&#x3c5;" horiz-adv-x="1046" 
d="M113 301q0 58 16 133l115 541h102l-121 -574q-12 -64 -12 -98q0 -112 60.5 -179t175.5 -67q140 0 213.5 84.5t107.5 253.5l123 580h100l-127 -598q-44 -207 -142 -304.5t-280 -97.5q-158 0 -244.5 87.5t-86.5 238.5z" />
    <glyph glyph-name="phi" unicode="&#x3c6;" horiz-adv-x="1345" 
d="M604 -29l-72 -340h-100l72 344q-430 37 -430 390q0 456 430 634l39 -86q-369 -144 -369 -542q0 -289 346 -316l125 602q33 166 114.5 254t209.5 88q142 0 221.5 -97.5t79.5 -276.5q0 -140 -45 -258.5t-128.5 -205.5t-210 -137t-282.5 -53zM1169 623q0 141 -50.5 218
t-147.5 77q-96 0 -147.5 -68.5t-82.5 -216.5l-120 -580q254 9 401 165t147 405z" />
    <glyph glyph-name="chi" unicode="&#x3c7;" horiz-adv-x="964" 
d="M1012 975l-512 -676l231 -668h-102l-201 592l-444 -592h-117l518 686l-225 658h100l197 -584l438 584h117z" />
    <glyph glyph-name="psi" unicode="&#x3c8;" horiz-adv-x="1390" 
d="M1245 975h101l-107 -504q-55 -253 -196.5 -375.5t-401.5 -122.5h-8l-74 -342h-100l73 344q-196 19 -299.5 124.5t-103.5 277.5q0 58 14 129l101 469h100l-102 -486q-15 -77 -15 -118q0 -142 81 -223t241 -93l270 1270h101l-271 -1272q212 1 330.5 110t163.5 326z" />
    <glyph glyph-name="omega" unicode="&#x3c9;" horiz-adv-x="1349" 
d="M74 328q0 254 101.5 417t336.5 254l37 -75q-200 -81 -287.5 -222t-87.5 -374q0 -125 47.5 -198t132.5 -73q203 0 258 328l50 277h100l-47 -277q-10 -75 -10 -117q0 -211 172 -211q56 -3 104.5 31t82 90t57 126t34.5 138.5t10 128.5q0 124 -49.5 207t-165.5 142l45 79
q149 -87 210 -190t61 -240q1 -63 -9 -129.5t-30 -134.5t-53 -127.5t-75 -106t-101 -72.5t-126 -24q-104 0 -166.5 59.5t-68.5 162.5q-37 -105 -113 -163.5t-178 -58.5q-132 0 -202 94t-70 259z" />
    <glyph glyph-name="iotadieresis" unicode="&#x3ca;" horiz-adv-x="413" 
d="M154 0h-101l205 975h100zM287 1386l-37 -176h-103l37 176h103zM618 1386l-36 -176h-103l37 176h102z" />
    <glyph glyph-name="upsilondieresis" unicode="&#x3cb;" horiz-adv-x="1046" 
d="M113 301q0 58 16 133l115 541h102l-121 -574q-12 -64 -12 -98q0 -112 60.5 -179t175.5 -67q140 0 213.5 84.5t107.5 253.5l123 580h100l-127 -598q-44 -207 -142 -304.5t-280 -97.5q-158 0 -244.5 87.5t-86.5 238.5zM588 1386l-37 -176h-102l36 176h103zM920 1386
l-37 -176h-103l37 176h103z" />
    <glyph glyph-name="omicrontonos" unicode="&#x3cc;" horiz-adv-x="1054" 
d="M979 608q1 -83 -19 -170.5t-63 -171.5t-103.5 -149.5t-149 -104.5t-189.5 -37q-179 0 -280 105.5t-101 290.5q-1 80 19 165.5t63.5 170t104.5 150.5t150 105.5t193 36.5q176 0 275.5 -105t99.5 -286zM172 369q0 -147 74 -230.5t203 -83.5q80 -2 151 31t122 90t88 129.5
t54.5 150.5t16.5 152q0 148 -73 229t-204 81q-98 3 -182.5 -48.5t-137.5 -133.5t-83 -178.5t-29 -188.5zM705 1157h-80l149 287h111z" />
    <glyph glyph-name="upsilontonos" unicode="&#x3cd;" horiz-adv-x="1046" 
d="M113 301q0 58 16 133l115 541h102l-121 -574q-12 -64 -12 -98q0 -112 60.5 -179t175.5 -67q140 0 213.5 84.5t107.5 253.5l123 580h100l-127 -598q-44 -207 -142 -304.5t-280 -97.5q-158 0 -244.5 87.5t-86.5 238.5zM674 1157h-80l149 287h111z" />
    <glyph glyph-name="omegatonos" unicode="&#x3ce;" horiz-adv-x="1349" 
d="M74 328q0 254 101.5 417t336.5 254l37 -75q-200 -81 -287.5 -222t-87.5 -374q0 -125 47.5 -198t132.5 -73q203 0 258 328l50 277h100l-47 -277q-10 -75 -10 -117q0 -211 172 -211q56 -3 104.5 31t82 90t57 126t34.5 138.5t10 128.5q0 124 -49.5 207t-165.5 142l45 79
q149 -87 210 -190t61 -240q1 -63 -9 -129.5t-30 -134.5t-53 -127.5t-75 -106t-101 -72.5t-126 -24q-104 0 -166.5 59.5t-68.5 162.5q-37 -105 -113 -163.5t-178 -58.5q-132 0 -202 94t-70 259zM840 1157h-80l149 287h111z" />
    <glyph glyph-name="uni0401" unicode="&#x401;" horiz-adv-x="1222" 
d="M1315 1454l-21 -88h-815l-123 -575h756l-18 -89h-756l-131 -614h831l-18 -88h-936l309 1454h922zM817 1815l-37 -177h-102l37 177h102zM1149 1815l-37 -177h-102l37 177h102z" />
    <glyph glyph-name="uni0402" unicode="&#x402;" horiz-adv-x="1603" 
d="M1452 518q0 -246 -143.5 -393.5t-395.5 -147.5q-113 0 -206 19l24 88q83 -18 187 -18q199 0 313 120q117 123 117 324q0 283 -328 283q-116 0 -202.5 -19.5t-192.5 -68.5l-150 -705h-104l291 1366h-404l21 88h1017l-18 -88h-512l-121 -567q177 82 393 82
q199 0 306.5 -95.5t107.5 -267.5z" />
    <glyph glyph-name="uni0403" unicode="&#x403;" horiz-adv-x="1140" 
d="M1257 1366h-774l-290 -1366h-109l311 1454h883zM1118 1847l-248 -282h-92l211 282h129z" />
    <glyph glyph-name="uni0404" unicode="&#x404;" horiz-adv-x="1361" 
d="M1409 1253l-76 -55q-91 103 -182 149t-207 46q-131 0 -243.5 -48.5t-194 -133.5t-138.5 -191t-89 -229h692l-21 -89h-690q-12 -76 -12 -151q0 -225 119 -356q120 -132 327 -132q137 0 244 58q112 61 250 184l67 -67q-269 -263 -553 -263q-135 0 -242.5 42t-176 118
t-104.5 178.5t-36 225.5q0 207 84 428q82 216 267 366q183 148 454 148q284 0 461 -228z" />
    <glyph glyph-name="uni0405" unicode="&#x405;" horiz-adv-x="1271" 
d="M1274 1260l-70 -72q-193 205 -446 205q-172 0 -292 -92.5t-120 -231.5q0 -72 41 -119q42 -43 118 -76.5t236 -82.5q162 -51 251 -105.5t123 -118t34 -157.5q0 -83 -35 -161t-98.5 -140.5t-162.5 -100t-218 -37.5q-158 0 -295.5 58.5t-284.5 177.5l64 76
q272 -224 520 -224q181 0 293 102t112 249q-2 43 -10.5 75t-28.5 59.5t-45 47.5t-70 41.5t-93.5 39t-124.5 42.5q-89 29 -147.5 51t-109.5 47t-80 48t-50.5 54t-30 66t-10.5 82q0 172 146 295t372 123q291 0 512 -221z" />
    <glyph glyph-name="uni0406" unicode="&#x406;" horiz-adv-x="483" 
d="M500 1454l-310 -1454h-106l309 1454h107z" />
    <glyph glyph-name="uni0407" unicode="&#x407;" horiz-adv-x="483" 
d="M500 1454l-310 -1454h-106l309 1454h107zM410 1815l-37 -177h-103l37 177h103zM741 1815l-36 -177h-103l37 177h102z" />
    <glyph glyph-name="uni0408" unicode="&#x408;" horiz-adv-x="933" 
d="M961 1454l-234 -1094q-39 -193 -134.5 -286.5t-260.5 -93.5q-194 0 -375 104l53 80q171 -96 318 -96q124 0 193 73.5t106 241.5l227 1071h107z" />
    <glyph glyph-name="uni0409" unicode="&#x409;" horiz-adv-x="2244" 
d="M2165 487q0 -225 -137 -356q-134 -131 -367 -131h-629l291 1366h-696l-154 -680q-1 -3 -4 -15.5t-7.5 -33.5t-8.5 -43q-52 -231 -93 -350q-41 -122 -115 -187t-196 -65q-79 0 -135 18l37 88q55 -14 104 -14q92 0 144 61t90 183q35 105 94 374l168 752h895l-129 -606h442
q181 0 293.5 -101.5t112.5 -259.5zM2062 485q0 123 -85.5 199t-231.5 76h-447l-143 -672h481q200 0 313 104t113 293z" />
    <glyph glyph-name="uni040A" unicode="&#x40a;" horiz-adv-x="2291" 
d="M84 0l309 1454h107l-131 -616h893l133 616h104l-131 -616h436q180 0 294 -98.5t114 -258.5q0 -219 -144 -350t-376 -131h-607l158 750h-895l-158 -750h-106zM1208 88h453q205 0 326.5 103.5t121.5 289.5q0 120 -85.5 194.5t-229.5 74.5h-444z" />
    <glyph glyph-name="uni040B" unicode="&#x40b;" horiz-adv-x="1589" 
d="M1450 588q0 -50 -12 -105l-103 -483h-106l104 477q13 57 13 96q0 220 -310 220q-117 0 -210.5 -20.5t-198.5 -67.5l-150 -705h-106l288 1366h-401l18 88h1018l-16 -88h-512l-121 -571q75 38 187.5 62t222.5 24q185 0 290 -74t105 -219z" />
    <glyph glyph-name="uni040C" unicode="&#x40c;" horiz-adv-x="1280" 
d="M1417 1454l-706 -709l428 -745h-115l-403 705h-279l-149 -705h-107l307 1454h107l-142 -666h267l665 666h127zM1167 1845l-247 -282h-93l211 282h129z" />
    <glyph glyph-name="uni040E" unicode="&#x40e;" horiz-adv-x="1249" 
d="M1405 1454h-109l-694 -1071l-244 1071h-96l270 -1178l-8 -14q-70 -109 -131 -151q-58 -37 -139 -37q-64 0 -125 22l-33 -92q67 -24 150 -24q118 0 188 49q79 53 164 186zM1147 1778q-21 -111 -93.5 -173.5t-191.5 -62.5q-111 0 -173 55t-62 138q0 23 4 43h86
q-2 -8 -2 -39q0 -127 153 -127q79 0 126.5 45.5t60.5 120.5h92z" />
    <glyph glyph-name="uni040F" unicode="&#x40f;" horiz-adv-x="1443" 
d="M393 1454h105l-289 -1366h858l289 1366h104l-309 -1454h-481l-64 -307h-104l63 307h-481z" />
    <glyph glyph-name="uni0410" unicode="&#x410;" horiz-adv-x="1300" 
d="M1049 0l-68 440h-666l-254 -440h-114l841 1454h138l223 -1454h-100zM367 530h602l-33 213l-10 64q-71 464 -82 569q-129 -238 -357 -635z" />
    <glyph glyph-name="uni0411" unicode="&#x411;" horiz-adv-x="1314" 
d="M84 0l309 1454h944l-20 -88h-836l-112 -535h446q186 0 294 -94t108 -258q0 -218 -135 -348.5t-351 -130.5h-647zM209 88h496q188 0 298.5 102.5t110.5 288.5q0 124 -80.5 194t-228.5 70h-457z" />
    <glyph glyph-name="uni0412" unicode="&#x412;" horiz-adv-x="1353" 
d="M1241 453q0 -91 -34.5 -172t-99 -144t-165.5 -100t-225 -37h-633l309 1454h557q168 0 272.5 -86t104.5 -233q0 -135 -79 -237.5t-212 -137.5q91 -34 148 -114.5t57 -192.5zM479 1362l-117 -551h455q208 0 310 87.5t102 236.5q0 108 -76.5 167.5t-212.5 59.5h-461z
M1137 461q0 122 -84.5 191t-233.5 69h-477l-133 -629h481q241 0 342 107q105 108 105 262z" />
    <glyph glyph-name="uni0413" unicode="&#x413;" horiz-adv-x="1140" 
d="M1257 1366h-774l-290 -1366h-109l311 1454h883z" />
    <glyph glyph-name="uni0414" unicode="&#x414;" horiz-adv-x="1501" 
d="M598 1454h887l-291 -1366h172l-82 -391h-104l63 303h-1167l-64 -303h-104l82 391h116q103 95 195 281q95 185 174 538zM221 88h869l272 1278h-688l-107 -477q-131 -582 -346 -801z" />
    <glyph glyph-name="uni0415" unicode="&#x415;" horiz-adv-x="1222" 
d="M1315 1454l-21 -88h-815l-123 -575h756l-18 -89h-756l-131 -614h831l-18 -88h-936l309 1454h922z" />
    <glyph glyph-name="uni0416" unicode="&#x416;" horiz-adv-x="1939" 
d="M2083 1454l-694 -711l409 -743h-115l-385 705h-239l-150 -705h-98l150 705h-213l-682 -705h-134l742 766l-371 688h109l354 -666h211l141 666h99l-142 -666h232l645 666h131z" />
    <glyph glyph-name="uni0417" unicode="&#x417;" horiz-adv-x="1298" 
d="M1182 449q0 -115 -45 -206.5t-122.5 -149t-177.5 -88t-214 -30.5q-313 0 -580 234l66 76q254 -224 516 -224q86 0 164.5 22t144.5 66t105.5 120t39.5 175q0 122 -99 193.5t-286 71.5h-260l21 88h282q81 0 154.5 20t133 59t95 103t35.5 145q0 116 -96 192.5t-244 76.5
q-129 0 -252.5 -42.5t-261.5 -148.5l-53 76q137 108 274 154.5t291 46.5q193 0 318.5 -101t125.5 -250q0 -143 -86 -239t-235 -139q120 -38 183 -116t63 -185z" />
    <glyph glyph-name="uni0418" unicode="&#x418;" horiz-adv-x="1488" 
d="M1378 1454h125l-307 -1454h-102l166 786q53 249 120 539l-231 -262l-299 -338l-639 -725h-125l307 1454h103l-164 -778q-55 -259 -125 -555l233 268l310 352z" />
    <glyph glyph-name="uni0419" unicode="&#x419;" horiz-adv-x="1488" 
d="M1503 1454h-125l-628 -713l-310 -352l-233 -268q70 296 125 555l164 778h-103l-307 -1454h125l639 725l299 338l231 262q-67 -290 -120 -539l-166 -786h102zM1276 1823q-24 -104 -108 -170t-201 -66q-115 0 -183.5 57t-68.5 140q0 7 4 39h84l-2 -25q0 -63 44 -101
t132 -38q76 0 133 47t76 117h90z" />
    <glyph glyph-name="uni041A" unicode="&#x41a;" horiz-adv-x="1280" 
d="M1417 1454l-706 -709l428 -745h-115l-403 705h-279l-149 -705h-107l307 1454h107l-142 -666h267l665 666h127z" />
    <glyph glyph-name="uni041B" unicode="&#x41b;" horiz-adv-x="1429" 
d="M-86 10l37 88q55 -14 104 -14q92 0 144 61t90 183q35 105 94 374l168 752h895l-309 -1454h-105l291 1366h-696l-154 -680q-1 -3 -4 -15.5t-7.5 -33.5t-8.5 -43q-52 -231 -93 -350q-41 -122 -115 -187t-196 -65q-79 0 -135 18z" />
    <glyph glyph-name="uni041C" unicode="&#x41c;" horiz-adv-x="1710" 
d="M1546 1454h180l-309 -1454h-102l151 717l142 657q-8 -14 -256 -436q-30 -48 -131 -221l-424 -717h-95l-124 719q-63 348 -107 659l-137 -663l-152 -715h-98l309 1454h164l115 -682q11 -71 14 -82l37 -229q30 -191 45 -340q138 254 354 614l21 37z" />
    <glyph glyph-name="uni041D" unicode="&#x41d;" horiz-adv-x="1482" 
d="M1499 1454l-309 -1454h-105l148 702h-895l-148 -702h-106l309 1454h107l-142 -663h893l144 663h104z" />
    <glyph glyph-name="uni041E" unicode="&#x41e;" horiz-adv-x="1519" 
d="M1475 897q0 -206 -86 -422q-82 -213 -261 -360q-176 -144 -428 -144q-263 0 -409 155.5t-146 432.5q0 209 88 422t265 358q175 144 428 144q262 0 405.5 -156t143.5 -430zM250 557q0 -235 121.5 -366.5t326.5 -131.5q124 -3 234 47t189 136t136.5 196t85.5 228.5
t27 232.5q0 233 -119 364.5t-327 131.5q-124 3 -234.5 -46.5t-189.5 -135t-137 -195t-86 -228.5t-27 -233z" />
    <glyph glyph-name="uni041F" unicode="&#x41f;" horiz-adv-x="1445" 
d="M1153 0h-106l290 1366h-856l-291 -1366h-106l309 1454h1069z" />
    <glyph glyph-name="uni0420" unicode="&#x420;" horiz-adv-x="1290" 
d="M1341 1106q0 -74 -20 -143t-62.5 -130.5t-103 -107.5t-147.5 -73t-191 -27h-493l-134 -625h-106l309 1454h565q173 0 278 -93t105 -255zM932 1366h-453l-137 -653h438q235 0 346 114t111 281q0 122 -81 190t-224 68z" />
    <glyph glyph-name="uni0421" unicode="&#x421;" horiz-adv-x="1366" 
d="M1409 1253l-68 -57q-94 106 -185 152.5t-208 46.5q-131 3 -246.5 -47.5t-197.5 -136.5t-141.5 -197t-87.5 -230t-27 -233q0 -227 119.5 -358.5t328.5 -131.5q136 0 246 58q115 60 250 184l65 -65q-267 -267 -552 -267q-267 0 -414.5 157.5t-147.5 410.5q0 209 86 428
q85 217 269 366q182 150 456 150q142 0 252.5 -55.5t202.5 -174.5z" />
    <glyph glyph-name="uni0422" unicode="&#x422;" horiz-adv-x="1212" 
d="M1346 1454l-21 -88h-479l-291 -1366h-104l288 1366h-481l21 88h1067z" />
    <glyph glyph-name="uni0423" unicode="&#x423;" horiz-adv-x="1249" 
d="M1296 1454h109l-807 -1239q-85 -133 -164 -186q-70 -49 -188 -49q-83 0 -150 24l33 92q61 -22 125 -22q81 0 139 37q61 42 131 151l8 14l-270 1178h96l244 -1071z" />
    <glyph glyph-name="uni0424" unicode="&#x424;" horiz-adv-x="1757" 
d="M1702 809q3 -142 -58 -270t-165 -219t-246.5 -143t-296.5 -50h-84l-41 -199h-100l41 201q-147 7 -261.5 52t-185.5 118t-107 164t-36 196q-3 194 99.5 353.5t282.5 249t398 86.5h68l39 178h100l-39 -180q145 -9 259.5 -55.5t186 -119.5t109 -165t37.5 -197zM774 215
l221 1045h-61q-131 2 -253 -41.5t-214 -121t-146.5 -192.5t-52.5 -246q0 -86 32.5 -163.5t94.5 -139t159.5 -99.5t219.5 -42zM1593 811q0 88 -31.5 166t-92 140.5t-159 100.5t-223.5 42l-221 -1045h62q127 -1 247.5 42t214 119t149.5 190t54 245z" />
    <glyph glyph-name="uni0425" unicode="&#x425;" horiz-adv-x="1218" 
d="M1335 1454l-612 -698l352 -756h-108l-320 688l-598 -688h-125l674 768l-322 686h109l287 -620l540 620h123z" />
    <glyph glyph-name="uni0426" unicode="&#x426;" horiz-adv-x="1474" 
d="M393 1454h105l-291 -1366h856l291 1366h104l-291 -1366h172l-82 -391h-104l64 303h-1133z" />
    <glyph glyph-name="uni0427" unicode="&#x427;" horiz-adv-x="1308" 
d="M1221 1454h104l-309 -1454h-105l142 668q-83 -36 -195 -58t-215 -22q-401 0 -401 272q0 42 12 98l111 496h104l-109 -489q-10 -45 -10 -91q0 -101 74.5 -149.5t232.5 -48.5q207 0 416 84z" />
    <glyph glyph-name="uni0428" unicode="&#x428;" horiz-adv-x="2119" 
d="M2136 1454l-309 -1454h-1741l307 1454h105l-289 -1366h713l288 1366h109l-291 -1366h711l291 1366h106z" />
    <glyph glyph-name="uni0429" unicode="&#x429;" horiz-adv-x="2146" 
d="M1825 -303l63 303h-1804l309 1454h105l-291 -1366h713l290 1366h105l-291 -1366h713l291 1366h104l-291 -1366h170l-82 -391h-104z" />
    <glyph glyph-name="uni042A" unicode="&#x42a;" horiz-adv-x="1552" 
d="M1473 487q0 -224 -138 -356q-134 -131 -366 -131h-629l291 1366h-373l18 88h480l-131 -606h442q181 0 293.5 -101.5t112.5 -259.5zM1370 485q0 123 -85.5 199t-231.5 76h-449l-141 -672h481q200 0 313 104t113 293z" />
    <glyph glyph-name="uni042B" unicode="&#x42b;" horiz-adv-x="1751" 
d="M84 0l309 1454h107l-131 -606h442q181 0 293.5 -101.5t112.5 -259.5q0 -224 -138 -356q-134 -131 -366 -131h-629zM207 88h481q200 0 313 104t113 293q0 123 -85.5 199t-231.5 76h-449zM1767 1454l-309 -1454h-106l309 1454h106z" />
    <glyph glyph-name="uni042C" unicode="&#x42c;" horiz-adv-x="1296" 
d="M84 0l309 1454h107l-131 -606h442q181 0 293.5 -101.5t112.5 -259.5q0 -224 -138 -356q-134 -131 -366 -131h-629zM207 88h481q200 0 313 104t113 293q0 123 -85.5 199t-231.5 76h-449z" />
    <glyph glyph-name="uni042D" unicode="&#x42d;" horiz-adv-x="1302" 
d="M18 203l80 53q145 -195 381 -195q243 0 422 177.5t232 463.5h-725l20 89h717q6 53 6 100q0 237 -119 369.5t-338 132.5q-117 0 -228.5 -41t-246.5 -140l-53 72q142 109 262 153t258 44q282 0 425.5 -156.5t143.5 -439.5q2 -130 -32 -262.5t-101.5 -250t-160 -208.5
t-217 -142.5t-261.5 -48.5q-143 0 -262 58t-203 172z" />
    <glyph glyph-name="uni042E" unicode="&#x42e;" horiz-adv-x="2017" 
d="M1972 897q0 -206 -86 -422q-82 -214 -260 -360q-176 -144 -428 -144q-263 0 -409 155.5t-146 432.5q0 51 10 143h-311l-149 -702h-109l309 1454h109l-144 -663h312q30 136 93.5 258.5t156.5 221.5t223.5 156.5t279.5 55.5q262 0 405.5 -156t143.5 -430zM1868 899
q0 232 -119.5 364t-327.5 132q-124 3 -234 -46.5t-189.5 -135t-137 -195t-85.5 -228.5t-27 -233q0 -235 121.5 -366.5t326.5 -131.5q124 -3 234 47t189 136t136.5 196t85.5 228.5t27 232.5z" />
    <glyph glyph-name="uni042F" unicode="&#x42f;" horiz-adv-x="1331" 
d="M811 1454h535l-308 -1454h-102l121 573h-326l-594 -573h-139l608 580q-163 26 -255.5 130t-92.5 257q0 218 154 352.5t399 134.5zM705 662h370l150 704h-420q-195 0 -320 -104t-125 -291q0 -141 95 -225t250 -84z" />
    <glyph glyph-name="uni0430" unicode="&#x430;" horiz-adv-x="1091" 
d="M934 975h94l-207 -975h-90l43 201q-145 -224 -364 -224q-164 0 -250 93.5t-86 261.5q-1 88 20 181t66 180.5t107.5 155.5t150.5 108t188 38q118 0 192 -50.5t101 -141.5zM848 647q0 127 -60.5 197.5t-177.5 70.5q-100 4 -186 -51t-139.5 -142.5t-83.5 -188.5t-29 -195
q0 -142 58 -210.5t176 -68.5q71 -3 139.5 31t123 94t96 136t63 161.5t20.5 165.5z" />
    <glyph glyph-name="uni0431" unicode="&#x431;" horiz-adv-x="1101" 
d="M1022 604q1 -122 -37.5 -237.5t-107 -203.5t-168.5 -140t-213 -50q-186 0 -291 109t-105 311q0 123 21 234q34 174 74.5 298t93.5 217t125 151t161.5 91t210.5 46l324 30l8 -92l-301 -25q-136 -13 -227.5 -49t-161 -111t-116 -182.5t-91.5 -277.5q64 116 174.5 186
t247.5 70q180 0 279.5 -99t99.5 -276zM924 598q0 142 -75 220.5t-214 78.5q-121 0 -222.5 -71t-158.5 -189.5t-57 -255.5q0 -152 78.5 -239t222.5 -87q122 -3 222.5 77t153 205t50.5 261z" />
    <glyph glyph-name="uni0432" unicode="&#x432;" horiz-adv-x="1038" 
d="M922 307q0 -152 -107 -229.5t-305 -77.5h-447l205 975h422q126 0 204.5 -59.5t78.5 -165.5q0 -89 -58.5 -158t-150.5 -94q71 -19 114.5 -69.5t43.5 -121.5zM352 893l-73 -350h319q131 0 205 53t74 154q0 65 -49 104t-150 39h-326zM825 303q0 158 -225 158h-340l-80 -379
h330q315 0 315 221z" />
    <glyph glyph-name="uni0433" unicode="&#x433;" horiz-adv-x="837" 
d="M887 893h-537l-190 -893h-99l207 975h635z" />
    <glyph glyph-name="uni0434" unicode="&#x434;" horiz-adv-x="1161" 
d="M-86 -256l72 338h90q163 126 262 547l80 346h645l-191 -893h154l-72 -338h-96l55 256h-847l-56 -256h-96zM182 82h592l172 811h-459l-63 -270q-101 -431 -242 -541z" />
    <glyph glyph-name="uni0435" unicode="&#x435;" horiz-adv-x="1044" 
d="M934 492h-750q-10 -75 -10 -121q0 -145 70.5 -229.5t218.5 -84.5q188 0 375 213l69 -53q-205 -242 -444 -242q-184 0 -286.5 104t-102.5 283q-1 89 22 179.5t70.5 173.5t112 147.5t154 101.5t190.5 35q153 0 246.5 -87t93.5 -234q0 -112 -29 -186zM203 569h663q8 47 8 93
q0 117 -68.5 186.5t-191.5 69.5q-154 0 -259.5 -95t-151.5 -254z" />
    <glyph glyph-name="uni0436" unicode="&#x436;" horiz-adv-x="1361" 
d="M1415 975l-432 -490l252 -485h-100l-236 459h-170l-96 -459h-92l96 459h-168l-428 -459h-123l485 516l-239 459h98l227 -434h164l92 434h93l-93 -434h177l381 434h112z" />
    <glyph glyph-name="uni0437" unicode="&#x437;" horiz-adv-x="954" 
d="M844 287q0 -159 -117 -236q-116 -76 -281 -76q-116 0 -218 41t-212 123l58 72q110 -76 199.5 -115t177.5 -39q120 0 208 58q91 60 91 168q0 89 -62 133.5t-209 44.5h-153l18 82h141q123 0 211 49q92 50 92 158q0 75 -64.5 120t-178.5 45q-91 0 -174 -27.5t-181 -90.5
l-43 69q111 71 204 101t200 30q155 0 244.5 -68t89.5 -175q0 -182 -205 -252q81 -29 122.5 -84.5t41.5 -130.5z" />
    <glyph glyph-name="uni0438" unicode="&#x438;" horiz-adv-x="1112" 
d="M950 975h103l-209 -975h-94l100 469q55 262 88 389l-236 -262l-116 -129l-426 -467h-101l209 975h94l-112 -524q-4 -20 -45 -205l-29 -127q148 175 344 389z" />
    <glyph glyph-name="uni0439" unicode="&#x439;" horiz-adv-x="1112" 
d="M1053 975h-103l-430 -467q-196 -214 -344 -389l29 127q41 185 45 205l112 524h-94l-209 -975h101l426 467l116 129l236 262q-33 -127 -88 -389l-100 -469h94zM1036 1395q-24 -104 -108 -170t-201 -66q-115 0 -183.5 57t-68.5 140q0 7 4 39h84l-2 -25q0 -63 44 -101
t132 -38q76 0 133 47t76 117h90z" />
    <glyph glyph-name="uni043A" unicode="&#x43a;" horiz-adv-x="952" 
d="M1008 975l-461 -477l282 -498h-104l-256 459h-211l-98 -459h-99l207 975h99l-93 -434h201l414 434h119z" />
    <glyph glyph-name="uni043B" unicode="&#x43b;" horiz-adv-x="1101" 
d="M-63 4l30 82q36 -8 76 -8q64 0 102 35q36 35 65 118t71 269l108 475h651l-206 -975h-99l189 893h-465l-92 -406q-47 -209 -80 -303q-36 -100 -91.5 -145t-150.5 -45q-56 0 -108 10z" />
    <glyph glyph-name="uni043C" unicode="&#x43c;" horiz-adv-x="1329" 
d="M1112 975h158l-209 -975h-92l110 514l37 172l45 211q-68 -116 -176 -287q-12 -22 -25.5 -44.5t-30 -47.5t-24.5 -39l-299 -479h-92l-94 481q-42 215 -76 420l-18 -90l-64 -297l-110 -514h-93l209 975h144l90 -471q38 -198 73 -408l113 183l135 223z" />
    <glyph glyph-name="uni043D" unicode="&#x43d;" horiz-adv-x="1093" 
d="M825 0h-98l96 461h-565l-96 -461h-99l205 975h99l-91 -432h566l90 432h98z" />
    <glyph glyph-name="uni043E" unicode="&#x43e;" horiz-adv-x="1056" 
d="M979 608q1 -83 -19 -170.5t-63 -171.5t-103.5 -149.5t-149 -104.5t-189.5 -37q-179 0 -280 105.5t-101 290.5q-1 80 19 165.5t63.5 170t104.5 150.5t150 105.5t193 36.5q176 0 275.5 -105t99.5 -286zM172 369q0 -147 74 -230.5t203 -83.5q80 -2 151 31t122 90t88 129.5
t54.5 150.5t16.5 152q0 148 -73 229t-204 81q-98 3 -182.5 -48.5t-137.5 -133.5t-83 -178.5t-29 -188.5z" />
    <glyph glyph-name="uni043F" unicode="&#x43f;" horiz-adv-x="1093" 
d="M825 0h-98l188 893h-565l-188 -893h-99l205 975h762z" />
    <glyph glyph-name="uni0440" unicode="&#x440;" horiz-adv-x="1097" 
d="M1026 645q1 -90 -20 -183.5t-65.5 -181t-106.5 -155.5t-150.5 -108t-189.5 -37q-118 0 -195 51t-109 141l-114 -541h-99l287 1344h92l-41 -191q150 211 383 211q157 0 242.5 -93.5t85.5 -256.5zM928 639q0 136 -61 205t-177 69q-156 0 -278 -131t-164 -315v-6
q-15 -64 -15 -133q0 -120 74.5 -193.5t192.5 -73.5q83 -2 155 33t121.5 95t84.5 136.5t51.5 156.5t15.5 157z" />
    <glyph glyph-name="uni0441" unicode="&#x441;" horiz-adv-x="950" 
d="M600 918q-79 3 -150.5 -33t-121 -96t-86.5 -134.5t-54 -149.5t-16 -140q0 -149 67 -228.5t199 -79.5q167 0 353 183l65 -64q-201 -201 -420 -201q-170 0 -267 101.5t-97 281.5q-1 82 20.5 171t67 174t108 152t150 107t186.5 37q120 0 200.5 -47t143.5 -147l-78 -51
q-61 92 -120 128t-150 36z" />
    <glyph glyph-name="uni0442" unicode="&#x442;" horiz-adv-x="837" 
d="M887 893h-332l-188 -893h-99l187 893h-332l20 82h762z" />
    <glyph glyph-name="uni0443" unicode="&#x443;" horiz-adv-x="915" 
d="M864 975h101l-629 -1141q-33 -59 -53.5 -90t-45.5 -61.5t-50 -43.5t-57.5 -21.5t-78.5 -10.5q-61 0 -123 16l27 78q49 -12 86 -12q68 0 112.5 39t106.5 153l29 51l-146 1043h93l49 -348q28 -189 77 -576l52 96q145 283 245 459z" />
    <glyph glyph-name="uni0444" unicode="&#x444;" horiz-adv-x="1337" 
d="M1249 555q2 -120 -46.5 -229t-133.5 -187t-205.5 -123t-255.5 -43h-8l-72 -342h-92l74 344q-193 15 -310.5 137.5t-117.5 299.5q0 123 47 231t130 186.5t204.5 124t263.5 45.5l96 455h92l-96 -459q196 -20 313 -140t117 -300zM528 51l185 871q-149 0 -271 -64.5
t-192 -180.5t-70 -261q0 -152 93 -252t255 -113zM1151 551q0 160 -93.5 258.5t-254.5 110.5l-187 -871q142 -1 265.5 63t198 181t71.5 258z" />
    <glyph glyph-name="uni0445" unicode="&#x445;" horiz-adv-x="905" 
d="M950 975l-426 -465l246 -510h-102l-211 451l-406 -451h-119l474 516l-226 459h103l192 -404l356 404h119z" />
    <glyph glyph-name="uni0446" unicode="&#x446;" horiz-adv-x="1122" 
d="M819 -256l55 256h-813l207 975h99l-191 -893h559l191 893h98l-190 -893h153l-72 -338h-96z" />
    <glyph glyph-name="uni0447" unicode="&#x447;" horiz-adv-x="991" 
d="M829 975h99l-205 -975h-98l90 430q-133 -53 -279 -53q-299 0 -299 213q0 28 10 90l66 295h98l-67 -301q-11 -57 -11 -78q0 -73 49.5 -105t159.5 -32q87 0 153 13.5t138 47.5z" />
    <glyph glyph-name="uni0448" unicode="&#x448;" horiz-adv-x="1513" 
d="M1454 975l-209 -975h-1182l205 975h99l-189 -893h445l190 893h98l-190 -893h444l191 893h98z" />
    <glyph glyph-name="uni0449" unicode="&#x449;" horiz-adv-x="1550" 
d="M1247 -256l56 256h-1242l207 975h99l-191 -893h447l190 893h98l-190 -893h444l191 893h98l-190 -893h151l-74 -338h-94z" />
    <glyph glyph-name="uni044A" unicode="&#x44a;" horiz-adv-x="1140" 
d="M1042 338q0 -161 -109 -249.5t-286 -88.5h-438l186 891h-270l16 84h371l-76 -365h248q173 0 265.5 -69.5t92.5 -202.5zM942 338q0 92 -66.5 141t-185.5 49h-272l-94 -446h301q317 0 317 256z" />
    <glyph glyph-name="uni044B" unicode="&#x44b;" horiz-adv-x="1355" 
d="M63 0l205 975h99l-76 -365h248q173 0 265.5 -69.5t92.5 -202.5q0 -161 -109 -249.5t-286 -88.5h-439zM178 82h301q318 0 318 256q0 92 -66.5 141t-185.5 49h-273zM1292 975l-205 -975h-98l205 975h98z" />
    <glyph glyph-name="uni044C" unicode="&#x44c;" horiz-adv-x="995" 
d="M63 0l205 975h99l-76 -365h248q173 0 265.5 -69.5t92.5 -202.5q0 -161 -109 -249.5t-286 -88.5h-439zM178 82h301q318 0 318 256q0 92 -66.5 141t-185.5 49h-273z" />
    <glyph glyph-name="uni044D" unicode="&#x44d;" horiz-adv-x="983" 
d="M905 616q1 -124 -37.5 -241t-107 -207t-170 -143t-217.5 -50q-118 0 -196 45.5t-152 159.5l79 51q72 -99 129.5 -136.5t137.5 -37.5q160 0 270 113q109 112 150 291h-502l20 82h494q4 66 4 73q0 138 -72 220t-205 82q-91 0 -168.5 -35.5t-168.5 -126.5l-64 63
q177 180 391 180q179 0 282 -102.5t103 -280.5z" />
    <glyph glyph-name="uni044E" unicode="&#x44e;" horiz-adv-x="1454" 
d="M1376 608q1 -83 -19 -170.5t-63 -171.5t-103.5 -149.5t-149 -104.5t-189.5 -37q-179 0 -280 105.5t-101 290.5q0 41 6 88h-223l-96 -459h-99l205 975h98l-92 -436h222q46 188 174 325q129 135 335 135q176 0 275.5 -105t99.5 -286zM1278 608q0 148 -73 229t-204 81
q-98 3 -182.5 -48.5t-137.5 -133.5t-83 -178.5t-29 -188.5q0 -147 74 -230.5t203 -83.5q80 -2 151 31t122 90t88 129.5t54.5 150.5t16.5 152z" />
    <glyph glyph-name="uni044F" unicode="&#x44f;" horiz-adv-x="1030" 
d="M561 975h408l-207 -975h-96l82 385h-220l-417 -385h-129l434 391q-111 18 -175.5 87.5t-64.5 164.5q0 156 111 244q110 88 274 88zM516 465h250l90 428h-283q-139 0 -220 -61.5t-81 -182.5q0 -88 63.5 -136t180.5 -48z" />
    <glyph glyph-name="uni0451" unicode="&#x451;" horiz-adv-x="1044" 
d="M934 492h-750q-10 -75 -10 -121q0 -145 70.5 -229.5t218.5 -84.5q188 0 375 213l69 -53q-205 -242 -444 -242q-184 0 -286.5 104t-102.5 283q-1 89 22 179.5t70.5 173.5t112 147.5t154 101.5t190.5 35q153 0 246.5 -87t93.5 -234q0 -112 -29 -186zM203 569h663q8 47 8 93
q0 117 -68.5 186.5t-191.5 69.5q-154 0 -259.5 -95t-151.5 -254zM614 1386l-36 -176h-103l37 176h102zM946 1386l-37 -176h-102l37 176h102z" />
    <glyph glyph-name="uni0452" unicode="&#x452;" horiz-adv-x="1081" 
d="M981 743q0 -62 -16 -131l-154 -731q-30 -147 -89.5 -212.5t-178.5 -65.5q-97 0 -181 32l29 76q93 -22 146 -22q38 2 63 11.5t42.5 23.5t31.5 44.5t23.5 63t23.5 92.5l143 692q15 58 15 121q0 86 -49 126t-152 40q-133 0 -244.5 -97.5t-146.5 -268.5l-115 -537h-100
l254 1206h-133l16 84h135l35 164h100l-35 -164h367l-16 -84h-367l-84 -393q123 170 340 170q142 0 219.5 -67.5t77.5 -172.5z" />
    <glyph glyph-name="uni0453" unicode="&#x453;" horiz-adv-x="837" 
d="M887 893h-537l-190 -893h-99l207 975h635zM852 1417l-248 -282h-92l211 282h129z" />
    <glyph glyph-name="uni0454" unicode="&#x454;" horiz-adv-x="956" 
d="M195 543h485l-16 -82h-488q-8 -41 -8 -96q0 -149 68 -228.5t202 -79.5q167 0 353 183l65 -64q-201 -201 -420 -201q-170 0 -267 101.5t-97 281.5q-1 82 20.5 171t67 174t108 152t150 107t186.5 37q120 0 200.5 -47t143.5 -147l-78 -51q-61 92 -120 128t-150 36
q-153 0 -258 -111q-100 -106 -147 -264z" />
    <glyph glyph-name="uni0455" unicode="&#x455;" horiz-adv-x="917" 
d="M864 844l-61 -68q-145 142 -309 142q-112 0 -186.5 -57t-74.5 -130q2 -32 10.5 -52.5t21.5 -36.5t45.5 -31t67 -27t103.5 -33q131 -41 181 -64q139 -59 139 -202q0 -129 -101 -219.5t-282 -90.5q-116 0 -209 44.5t-193 136.5l66 63q93 -84 172 -123t174 -39
q127 0 202 62.5t75 161.5q0 53 -35 88q-30 33 -76 51t-174 55q-117 37 -178.5 72t-83 73t-21.5 97q0 119 102.5 200.5t260.5 81.5q202 0 364 -155z" />
    <glyph glyph-name="uni0456" unicode="&#x456;" horiz-adv-x="421" 
d="M362 975l-204 -975h-99l205 975h98zM451 1386l-37 -176h-99l37 176h99z" />
    <glyph glyph-name="uni0457" unicode="&#x457;" horiz-adv-x="421" 
d="M362 975l-204 -975h-99l205 975h98zM291 1386l-37 -176h-102l36 176h103zM623 1386l-37 -176h-103l37 176h103z" />
    <glyph glyph-name="uni0458" unicode="&#x458;" horiz-adv-x="411" 
d="M-145 -313q37 2 62.5 12t43 24t31.5 45.5t23.5 63.5t23.5 92l221 1051h98l-231 -1094q-30 -148 -88.5 -213t-177.5 -65q-96 0 -180 32l30 74q77 -22 144 -22zM444 1386l-36 -176h-99l37 176h98z" />
    <glyph glyph-name="uni0459" unicode="&#x459;" horiz-adv-x="1689" 
d="M1587 311q0 -157 -102 -233q-104 -78 -254 -78h-496l189 893h-465l-92 -406q-47 -209 -80 -303q-36 -100 -91.5 -145t-150.5 -45q-56 0 -108 10l30 82q36 -8 76 -8q64 0 102 35q36 35 65 118t71 269l108 475h651l-88 -414h312q152 0 237.5 -66.5t85.5 -183.5zM1487 307
q0 83 -62.5 127.5t-173.5 44.5h-315l-86 -397h360q123 0 200 56t77 169z" />
    <glyph glyph-name="uni045A" unicode="&#x45a;" horiz-adv-x="1679" 
d="M59 0l209 975h101l-88 -412h563l88 412h98l-88 -412h311q152 0 238 -67.5t86 -184.5q0 -157 -102 -233q-104 -78 -254 -78h-496l102 481h-563l-102 -481h-103zM842 82h358q123 0 200 56t77 169q0 83 -62.5 127.5t-173.5 44.5h-317z" />
    <glyph glyph-name="uni045B" unicode="&#x45b;" horiz-adv-x="1081" 
d="M981 743q0 -62 -16 -131l-129 -612h-101l129 616q15 58 15 121q0 86 -49 126t-152 40q-133 0 -244.5 -97.5t-146.5 -268.5l-115 -537h-100l254 1206h-133l16 84h135l35 164h100l-35 -164h367l-16 -84h-367l-84 -393q123 170 340 170q142 0 219.5 -67.5t77.5 -172.5z" />
    <glyph glyph-name="uni045C" unicode="&#x45c;" horiz-adv-x="952" 
d="M1008 975l-461 -477l282 -498h-104l-256 459h-211l-98 -459h-99l207 975h99l-93 -434h201l414 434h119zM913 1417l-247 -282h-93l211 282h129z" />
    <glyph glyph-name="uni045E" unicode="&#x45e;" horiz-adv-x="915" 
d="M965 975h-101l-205 -369q-100 -176 -245 -459l-52 -96q-49 387 -77 576l-49 348h-93l146 -1043l-29 -51q-62 -114 -106.5 -153t-112.5 -39q-37 0 -86 12l-27 -78q62 -16 123 -16q46 2 78.5 10.5t57.5 21.5t50 43.5t45.5 61.5t53.5 90zM901 1395q-24 -104 -108 -170
t-201 -66q-115 0 -183.5 57t-68.5 140q0 7 4 39h84l-2 -25q0 -63 44 -101t132 -38q76 0 133 47t76 117h90z" />
    <glyph glyph-name="uni045F" unicode="&#x45f;" horiz-adv-x="1089" 
d="M336 -256l55 256h-328l205 975h99l-189 -893h561l191 893h98l-207 -975h-334l-55 -256h-96z" />
    <glyph glyph-name="uni0490" unicode="&#x490;" horiz-adv-x="1138" 
d="M84 0l309 1454h776l62 299h106l-82 -387h-774l-291 -1366h-106z" />
    <glyph glyph-name="uni0491" unicode="&#x491;" horiz-adv-x="868" 
d="M59 0l209 975h566l57 264h94l-76 -346h-559l-190 -893h-101z" />
    <glyph glyph-name="Wgrave" unicode="&#x1e80;" horiz-adv-x="1875" 
d="M1882 1454h109l-660 -1454h-141l-51 760q-4 82 -4 92q-19 322 -23 477q-84 -183 -270 -571l-371 -758h-149l-39 1454h98l18 -764l4 -119q1 -18 5 -165q2 -72 2 -189l-2 -139q35 76 254 532l38 80l377 764h115l47 -764q23 -356 31 -608q72 176 266 608zM989 1845h105
l94 -282h-74z" />
    <glyph glyph-name="wgrave" unicode="&#x1e81;" horiz-adv-x="1413" 
d="M1350 977h94l-490 -977h-116l-31 360q-26 284 -37 510q-86 -191 -248 -516l-174 -354h-129l-65 977h94l24 -408q1 -11 3 -37.5t3.5 -55.5t2.5 -58q15 -236 18 -334l109 217l131 266l206 410h93l34 -410q9 -103 9 -104q24 -270 26 -385q78 171 236 485zM653 1417h105
l94 -282h-74z" />
    <glyph glyph-name="Wacute" unicode="&#x1e82;" horiz-adv-x="1875" 
d="M1882 1454h109l-660 -1454h-141l-51 760q-4 82 -4 92q-19 322 -23 477q-84 -183 -270 -571l-371 -758h-149l-39 1454h98l18 -764l4 -119q1 -18 5 -165q2 -72 2 -189l-2 -139q35 76 254 532l38 80l377 764h115l47 -764q23 -356 31 -608q72 176 266 608zM1446 1845
l-248 -282h-92l211 282h129z" />
    <glyph glyph-name="wacute" unicode="&#x1e83;" horiz-adv-x="1413" 
d="M1350 977h94l-490 -977h-116l-31 360q-26 284 -37 510q-86 -191 -248 -516l-174 -354h-129l-65 977h94l24 -408q1 -11 3 -37.5t3.5 -55.5t2.5 -58q15 -236 18 -334l109 217l131 266l206 410h93l34 -410q9 -103 9 -104q24 -270 26 -385q78 171 236 485zM1110 1417
l-248 -282h-92l211 282h129z" />
    <glyph glyph-name="Wdieresis" unicode="&#x1e84;" horiz-adv-x="1875" 
d="M1882 1454h109l-660 -1454h-141l-51 760q-4 82 -4 92q-19 322 -23 477q-84 -183 -270 -571l-371 -758h-149l-39 1454h98l18 -764l4 -119q1 -18 5 -165q2 -72 2 -189l-2 -139q35 76 254 532l38 80l377 764h115l47 -764q23 -356 31 -608q72 176 266 608zM1094 1815
l-37 -177h-103l37 177h103zM1425 1815l-36 -177h-103l37 177h102z" />
    <glyph glyph-name="wdieresis" unicode="&#x1e85;" horiz-adv-x="1413" 
d="M1350 977h94l-490 -977h-116l-31 360q-26 284 -37 510q-86 -191 -248 -516l-174 -354h-129l-65 977h94l24 -408q1 -11 3 -37.5t3.5 -55.5t2.5 -58q15 -236 18 -334l109 217l131 266l206 410h93l34 -410q9 -103 9 -104q24 -270 26 -385q78 171 236 485zM758 1386l-37 -176
h-103l37 176h103zM1090 1386l-37 -176h-103l37 176h103z" />
    <glyph glyph-name="Ygrave" unicode="&#x1ef2;" horiz-adv-x="1245" 
d="M1274 1454h123l-695 -825l-131 -629h-106l135 631l-338 823h107l295 -735zM662 1845h104l94 -282h-74z" />
    <glyph glyph-name="ygrave" unicode="&#x1ef3;" horiz-adv-x="915" 
d="M864 975h101l-629 -1141q-33 -59 -53.5 -90t-45.5 -61.5t-50 -43.5t-57.5 -21.5t-78.5 -10.5q-61 0 -123 16l27 78q49 -12 86 -12q68 0 112.5 39t106.5 153l29 51l-146 1043h93l49 -348q28 -189 77 -576l52 96q145 283 245 459zM406 1417h104l94 -282h-74z" />
    <glyph glyph-name="endash" unicode="&#x2013;" horiz-adv-x="1443" 
d="M1327 627l-16 -86h-1151l16 86h1151z" />
    <glyph glyph-name="emdash" unicode="&#x2014;" horiz-adv-x="1875" 
d="M1759 627l-16 -86h-1583l16 86h1583z" />
    <glyph glyph-name="quoteleft" unicode="&#x2018;" horiz-adv-x="362" 
d="M221 1102l31 145l133 207h68l-125 -207h65l-31 -145h-141z" />
    <glyph glyph-name="quoteright" unicode="&#x2019;" horiz-adv-x="362" 
d="M457 1454l-31 -145l-133 -207h-68l125 207h-65l30 145h142z" />
    <glyph glyph-name="quotesinglbase" unicode="&#x201a;" horiz-adv-x="354" 
d="M174 145l-31 -145l-129 -193h-59l113 193h-66l31 145h141z" />
    <glyph glyph-name="quotedblleft" unicode="&#x201c;" horiz-adv-x="667" 
d="M221 1102l31 145l133 207h68l-125 -207h65l-31 -145h-141zM526 1102l31 145l133 207h68l-125 -207h65l-30 -145h-142z" />
    <glyph glyph-name="quotedblright" unicode="&#x201d;" horiz-adv-x="665" 
d="M457 1454l-31 -145l-133 -207h-68l125 207h-65l30 145h142zM760 1454l-31 -145l-133 -207h-68l125 207h-65l30 145h142z" />
    <glyph glyph-name="quotedblbase" unicode="&#x201e;" horiz-adv-x="704" 
d="M201 145l-31 -145l-129 -193h-59l112 193h-65l30 145h142zM504 145l-31 -145l-129 -193h-59l112 193h-65l30 145h142z" />
    <glyph glyph-name="dagger" unicode="&#x2020;" 
d="M1126 872v-84h-469v-1191h-94v1191h-471v84h471v582h94v-582h469z" />
    <glyph glyph-name="daggerdbl" unicode="&#x2021;" 
d="M1126 891h-469v-555h469v-84h-469v-655h-94v655h-471v84h471v555h-471v84h471v479h94v-479h469v-84z" />
    <glyph glyph-name="bullet" unicode="&#x2022;" horiz-adv-x="991" 
d="M834 621q0 -137 -97 -233.5t-233 -96.5t-233 96.5t-97 233.5q0 136 96.5 232.5t233.5 96.5t233.5 -96.5t96.5 -232.5z" />
    <glyph glyph-name="ellipsis" unicode="&#x2026;" horiz-adv-x="1138" 
d="M195 158l-31 -158h-139l32 158h138zM567 158l-30 -158h-140l33 158h137zM938 158l-31 -158h-139l33 158h137z" />
    <glyph glyph-name="perthousand" unicode="&#x2030;" horiz-adv-x="2457" 
d="M1563 352q0 -68 -21 -133t-60 -118.5t-102 -86t-139 -32.5q-112 0 -185 70.5t-73 189.5q0 51 13 102t41 98t66.5 83t93.5 57.5t118 21.5q113 0 180.5 -68.5t67.5 -183.5zM1077 252q0 -91 44.5 -143t123.5 -52q73 0 125.5 47t75 111t22.5 133q0 85 -41.5 132.5
t-126.5 47.5q-45 0 -83.5 -18t-63.5 -47t-42.5 -66t-25.5 -73.5t-8 -71.5zM793 1159q0 -54 -13 -107t-40 -100.5t-64.5 -84t-90.5 -58t-114 -21.5q-111 0 -184.5 71t-73.5 190q0 51 13 102t41 98t66.5 83t93.5 57.5t118 21.5q113 0 180.5 -68.5t67.5 -183.5zM307 1059
q0 -91 44.5 -143t123.5 -52q73 0 125.5 47t75 111t22.5 133q0 85 -41.5 132.5t-126.5 47.5q-45 0 -83.5 -18t-63.5 -47t-42.5 -66t-25.5 -73.5t-8 -71.5zM2302 352q0 -68 -21 -133t-60 -118.5t-102 -86t-139 -32.5q-112 0 -185 70.5t-73 189.5q0 51 13 102t41 98t66.5 83
t93.5 57.5t118 21.5q113 0 180.5 -68.5t67.5 -183.5zM1817 252q0 -91 44.5 -143t123.5 -52q73 0 125.5 47t75 111t22.5 133q0 85 -41.5 132.5t-126.5 47.5q-45 0 -83.5 -18t-63.5 -47t-42.5 -66t-25.5 -73.5t-8 -71.5zM1516 1419l63 -51l-1284 -1395l-59 54z" />
    <glyph glyph-name="guilsinglleft" unicode="&#x2039;" horiz-adv-x="677" 
d="M635 952l-383 -444l186 -424h-104l-191 434l373 434h119z" />
    <glyph glyph-name="guilsinglright" unicode="&#x203a;" horiz-adv-x="677" 
d="M352 952l193 -434l-375 -434h-117l381 444l-184 424h102z" />
    <glyph glyph-name="fraction" unicode="&#x2044;" horiz-adv-x="442" 
d="M844 1419l63 -51l-1284 -1395l-59 54z" />
    <glyph glyph-name="Euro" unicode="&#x20ac;" horiz-adv-x="1249" 
d="M473 918h588l-19 -84h-600q-38 -110 -53 -238h604l-18 -84h-594v-43q0 -203 85 -308.5t247 -105.5q95 0 170.5 25.5t177.5 89.5l43 -72q-105 -70 -191 -98.5t-194 -28.5q-213 0 -325.5 129.5t-112.5 356.5q0 43 2 55h-162l18 84h150q14 115 51 238h-152l19 84h162
q85 224 241 362q156 141 379 141q227 0 363 -133l-62 -65q-67 61 -138.5 87.5t-168.5 26.5q-167 0 -298 -112.5t-212 -306.5z" />
    <glyph glyph-name="uni20B9" unicode="&#x20b9;" 
d="M1294 1393l-18 -88h-287q111 -94 111 -256h121l-17 -86h-110q-23 -147 -142 -250q-113 -101 -344 -101h-289l553 -612h-129l-544 612l16 80h365q181 0 286.5 72t132.5 199h-727l17 86h719q0 256 -299 256h-365l18 88h932z" />
    <glyph glyph-name="uni20BA" unicode="&#x20ba;" 
d="M1016 598l88 -12l-51 -133q-47 -111 -99 -190t-108.5 -129.5t-130 -79.5t-151 -41t-183.5 -13h-178l121 567l-220 -90l21 82l215 88l57 268l-217 -88l19 82l215 90l84 394h98l-74 -349l422 175l-16 -84l-424 -174l-55 -269l423 176l-18 -84l-424 -174l-111 -524h29
q111 1 186 11t142.5 34t116.5 69t92.5 112.5t85.5 168.5z" />
    <glyph glyph-name="uni20BD" unicode="&#x20bd;" horiz-adv-x="1249" 
d="M743 616h-323l-49 -233h483l-18 -86h-484l-63 -297h-99l64 297h-209l18 86h209l50 233h-209l16 78h209l147 699h385q167 0 268 -90.5t101 -251.5q0 -87 -30.5 -164t-89.5 -138.5t-156 -97t-220 -35.5zM565 1305l-129 -611h285q212 0 319 97.5t107 259.5q0 127 -76 190.5
t-215 63.5h-291z" />
    <glyph glyph-name="uni2116" unicode="&#x2116;" horiz-adv-x="1935" 
d="M1513 1106q0 91 35 172t107.5 135.5t167.5 54.5q113 0 171 -65t58 -180q0 -91 -37 -171t-110.5 -132t-169.5 -52q-109 0 -165.5 62t-56.5 176zM80 0l309 1454h127l287 -706q113 -280 241 -642q53 278 115 572l164 776h107l-310 -1454h-129l-295 719q-117 295 -233 622
q-43 -233 -111 -559l-166 -782h-106zM1958 1233q0 75 -34.5 115.5t-100.5 40.5q-100 0 -160 -91q-55 -88 -55 -200q0 -150 133 -150q98 0 157 86q60 91 60 199zM1434 690l16 82h494l-17 -82h-493z" />
    <glyph glyph-name="uni2117" unicode="&#x2117;" horiz-adv-x="1753" 
d="M123 727q-3 206 96.5 380.5t274.5 275.5t383 98q154 3 294.5 -56t241.5 -160t160 -242t57 -296q2 -155 -57 -296t-160 -242t-241.5 -160t-294.5 -56q-205 -4 -380 96.5t-276 276t-98 381.5zM1542 727q3 185 -84.5 342.5t-242 249t-338.5 88.5q-138 2 -262.5 -51.5
t-213.5 -145.5t-140.5 -218.5t-49.5 -264.5q-2 -138 49.5 -264.5t140.5 -218.5t213.5 -145.5t262.5 -51.5q184 -3 338.5 88.5t242 249t84.5 342.5zM618 303v838h330q123 0 198 -69.5t75 -184.5q0 -114 -74 -179t-199 -65h-233v-340h-97zM715 727h219q90 0 140 44t50 118
q0 75 -50 121.5t-140 46.5h-219v-330z" />
    <glyph glyph-name="trademark" unicode="&#x2122;" horiz-adv-x="1955" 
d="M766 1454v-74h-295v-718h-88v718h-295v74h678zM1776 1454v-792h-80v704l-297 -704h-82l-303 696v-696h-84v792h133l297 -694l285 694h131z" />
    <glyph glyph-name="uni2126" unicode="&#x2126;" horiz-adv-x="1521" 
d="M1016 88h336l-21 -88h-526l20 88q253 85 396 299q141 211 141 496q0 241 -117 376.5t-334 135.5q-117 3 -223.5 -43.5t-186 -128.5t-139 -188.5t-89 -226.5t-27.5 -239q0 -173 83.5 -296.5t248.5 -184.5l-21 -88h-524l20 88h336q-120 68 -184 197.5t-64 292.5
q0 214 90 426q91 210 269 344q176 135 413 135q259 0 406 -160.5t147 -425.5q0 -118 -29 -238t-84 -229.5t-142 -200.5t-195 -141z" />
    <glyph glyph-name="uni2154" unicode="&#x2154;" horiz-adv-x="2107" 
d="M233 637h525l-19 -80h-616l8 39q28 124 114 204t255 156q119 54 174 82q110 63 110 160q0 60 -51 97.5t-125 37.5q-68 0 -123 -22.5t-141 -85.5l-57 61q92 71 165 99t150 28q119 0 193.5 -56t74.5 -147q0 -78 -30 -127q-29 -46 -78.5 -78.5t-173.5 -91.5l-58 -26
q-145 -71 -204 -119q-67 -51 -93 -131zM1675 1419l64 -51l-1284 -1395l-60 54zM2032 836l-19 -84l-348 -256q123 6 195.5 -54t72.5 -161q0 -119 -88.5 -210t-242.5 -91q-82 0 -157.5 23.5t-168.5 78.5l53 65q149 -90 277 -90q104 0 170.5 62.5t66.5 156.5q0 70 -51.5 111
t-144.5 41q-48 0 -101 -16l-41 59l393 289h-448l16 76h566z" />
    <glyph glyph-name="oneeighth" unicode="&#x215b;" horiz-adv-x="1880" 
d="M532 1393h76l-180 -836h-88l152 711l-207 -133l-43 69zM1464 1419l64 -51l-1284 -1395l-60 54zM1729 266q0 -114 -93.5 -194t-246.5 -80q-143 0 -221 61t-78 156q0 94 53 160.5t160 91.5q-95 56 -95 166q0 102 84 170.5t217 68.5q129 0 198 -56.5t69 -145.5
q0 -81 -46.5 -137t-132.5 -81q132 -61 132 -180zM1298 618q0 -60 45.5 -98.5t118.5 -38.5q98 0 161 48.5t63 127.5q0 61 -47.5 97.5t-131.5 36.5q-103 0 -156 -50t-53 -123zM1628 274q0 65 -49 103.5t-143 38.5q-123 0 -187.5 -55t-64.5 -138q0 -70 55.5 -111.5t157.5 -41.5
q105 0 168 56.5t63 147.5z" />
    <glyph glyph-name="threeeighths" unicode="&#x215c;" horiz-adv-x="2082" 
d="M877 1393l-19 -84l-348 -256q123 6 195.5 -54t72.5 -161q0 -56 -21.5 -108.5t-61.5 -96t-105 -70t-144 -26.5q-82 0 -157 23.5t-168 78.5l53 66q150 -91 277 -91q103 0 170 63t67 157q0 70 -51.5 110.5t-144.5 40.5q-48 0 -101 -16l-41 59l393 289h-448l16 76h566z
M1665 1419l64 -51l-1285 -1395l-59 54zM1931 266q0 -114 -93.5 -194t-246.5 -80q-143 0 -221 61t-78 156q0 94 53 160.5t160 91.5q-94 56 -94 166q0 102 84 170.5t217 68.5q128 0 197 -56.5t69 -145.5q0 -81 -46.5 -137t-131.5 -81q131 -61 131 -180zM1501 618
q0 -60 45.5 -98.5t118.5 -38.5q98 0 160.5 48.5t62.5 127.5q0 61 -47 97.5t-131 36.5q-103 0 -156 -50t-53 -123zM1831 274q0 65 -49.5 103.5t-143.5 38.5q-123 0 -187.5 -55t-64.5 -138q0 -70 55.5 -111.5t157.5 -41.5q105 0 168.5 56.5t63.5 147.5z" />
    <glyph glyph-name="fiveeighths" unicode="&#x215d;" horiz-adv-x="2109" 
d="M872 1313h-434l-78 -279q82 64 205 64q109 0 178.5 -65.5t69.5 -160.5q0 -57 -22 -114t-64.5 -106.5t-114 -80t-161.5 -30.5q-172 0 -316 106l58 68q72 -51 133.5 -74t128.5 -23q113 0 187.5 70t74.5 178q0 68 -46 111t-128 43q-111 0 -215 -78l-78 12l127 439h512z
M1694 1419l63 -51l-1284 -1395l-59 54zM1958 266q0 -114 -93.5 -194t-246.5 -80q-143 0 -221 61t-78 156q0 94 53 160.5t160 91.5q-94 56 -94 166q0 102 84 170.5t217 68.5q128 0 197 -56.5t69 -145.5q0 -81 -46.5 -137t-131.5 -81q131 -61 131 -180zM1528 618
q0 -60 45.5 -98.5t118.5 -38.5q98 0 160.5 48.5t62.5 127.5q0 61 -47 97.5t-131 36.5q-103 0 -156 -50t-53 -123zM1858 274q0 65 -49.5 103.5t-143.5 38.5q-123 0 -187.5 -55t-64.5 -138q0 -70 55.5 -111.5t157.5 -41.5q105 0 168.5 56.5t63.5 147.5z" />
    <glyph glyph-name="seveneighths" unicode="&#x215e;" horiz-adv-x="1937" 
d="M244 1393h639l-21 -84q-206 -175 -336 -373q-132 -198 -180 -379h-100q50 177 184 387q136 214 326 369h-529zM1522 1419l63 -51l-1284 -1395l-59 54zM1786 266q0 -114 -93.5 -194t-246.5 -80q-143 0 -221 61t-78 156q0 94 53 160.5t160 91.5q-94 56 -94 166
q0 102 84 170.5t217 68.5q128 0 197 -56.5t69 -145.5q0 -81 -46.5 -137t-131.5 -81q131 -61 131 -180zM1356 618q0 -60 45.5 -98.5t118.5 -38.5q98 0 160.5 48.5t62.5 127.5q0 61 -47 97.5t-131 36.5q-103 0 -156 -50t-53 -123zM1686 274q0 65 -49.5 103.5t-143.5 38.5
q-123 0 -187.5 -55t-64.5 -138q0 -70 55.5 -111.5t157.5 -41.5q105 0 168.5 56.5t63.5 147.5z" />
    <glyph glyph-name="arrowleft" unicode="&#x2190;" horiz-adv-x="1875" 
d="M1780 741v-84h-1553l598 -589l-67 -68l-699 698l699 695l67 -68l-594 -584h1549z" />
    <glyph glyph-name="arrowup" unicode="&#x2191;" horiz-adv-x="1464" 
d="M1382 918l-61 -64l-543 551v-1405h-88v1407l-545 -553l-63 64l651 651z" />
    <glyph glyph-name="arrowright" unicode="&#x2192;" horiz-adv-x="1878" 
d="M1122 1393l697 -695l-699 -698l-63 63l602 594h-1563v84h1563l-600 590z" />
    <glyph glyph-name="arrowdown" unicode="&#x2193;" horiz-adv-x="1464" 
d="M1321 600l61 -63l-649 -652l-651 652l63 63l545 -553v1407h88v-1405z" />
    <glyph glyph-name="uni2196" unicode="&#x2196;" horiz-adv-x="1460" 
d="M1397 262l-60 -61l-1108 1108v-838h-86v983h983v-82h-839z" />
    <glyph glyph-name="uni2197" unicode="&#x2197;" horiz-adv-x="1460" 
d="M334 1454h983v-983h-86v838l-1108 -1108l-60 61l1111 1110h-840v82z" />
    <glyph glyph-name="uni2198" unicode="&#x2198;" horiz-adv-x="1460" 
d="M1231 983h86v-983h-983v82h840l-1111 1110l60 61l1108 -1108v838z" />
    <glyph glyph-name="uni2199" unicode="&#x2199;" horiz-adv-x="1460" 
d="M1397 1192l-1110 -1110h839v-82h-983v983h86v-838l1108 1108z" />
    <glyph glyph-name="partialdiff" unicode="&#x2202;" horiz-adv-x="1118" 
d="M1030 600q0 -288 -123 -461q-123 -172 -350 -172q-134 0 -243 71.5t-167.5 186.5t-58.5 246q0 134 55 249t158 185t231 70q149 0 257 -75.5t157 -203.5q-23 308 -181 477t-474 218l22 71q344 -42 530.5 -259.5t186.5 -602.5zM918 469q0 174 -109.5 296t-271.5 122
q-158 0 -252.5 -119.5t-94.5 -298.5q0 -177 101.5 -296.5t265.5 -119.5q158 0 259.5 121t101.5 295z" />
    <glyph glyph-name="uni2206" unicode="&#x2206;" horiz-adv-x="1298" 
d="M922 1454l225 -1454h-1204l841 1454h138zM111 88h921l-98 651l-29 187q-45 292 -63 452q-96 -178 -359 -637z" />
    <glyph glyph-name="product" unicode="&#x220f;" horiz-adv-x="1458" 
d="M1317 1454v-1679h-107v1593h-878v-1593h-107v1679h1092z" />
    <glyph glyph-name="summation" unicode="&#x2211;" 
d="M1133 1454v-88h-859l529 -745l-535 -758h920v-86h-1045v76l539 768l-532 755v78h983z" />
    <glyph glyph-name="minus" unicode="&#x2212;" horiz-adv-x="1228" 
d="M1147 678v-86h-1065v86h1065z" />
    <glyph glyph-name="radical" unicode="&#x221a;" horiz-adv-x="1206" 
d="M1241 1454l-536 -1454h-52l2 -4h-53l2 4h-49l-385 975h109l350 -907l506 1386h106z" />
    <glyph glyph-name="infinity" unicode="&#x221e;" horiz-adv-x="1619" 
d="M1524 594q0 -133 -85 -224t-216 -91q-111 0 -194.5 50t-197.5 175l-24 26q-71 -77 -156 -153q-59 -51 -120 -74.5t-144 -23.5q-125 0 -208 91.5t-83 223.5q0 136 90 226.5t234 90.5q107 0 184 -53t182 -176l19 -23q122 137 212 194.5t183 57.5q146 0 235 -90t89 -227z
M750 594l-23 24l-45 52q-65 72 -88 92q-76 72 -178 72q-110 0 -171 -66.5t-61 -175.5q0 -105 58 -170.5t151 -65.5q85 0 156 50q83 62 201 188zM1436 592q0 109 -61.5 175.5t-174.5 66.5q-78 0 -148.5 -53t-189.5 -187l29 -35q88 -101 164 -152t157 -51q104 0 164 63.5
t60 172.5z" />
    <glyph glyph-name="integral" unicode="&#x222b;" horiz-adv-x="1228" 
d="M358 -397q-73 0 -178 30l27 78q85 -24 158 -24q80 0 113.5 50t33.5 157v1304q0 135 70.5 211t199.5 76q84 0 187 -35l-27 -80q-92 29 -154 29q-97 0 -137.5 -51.5t-40.5 -173.5v-1289q0 -282 -252 -282z" />
    <glyph glyph-name="approxequal" unicode="&#x2248;" 
d="M631 862q118 -55 186 -55q54 0 90 20q39 22 111 91l53 -56q-76 -82 -129 -106q-55 -25 -125 -25q-47 0 -93 13.5t-128 46.5q-138 55 -203 55q-54 0 -98 -23t-105 -84l-51 52q72 77 131 106t136 29q50 0 95 -14t130 -50zM631 453q121 -56 186 -56q53 0 90 21q41 23 111 90
l53 -55q-77 -83 -129 -107t-125 -24q-46 0 -90.5 12.5t-132.5 46.5q-132 55 -201 55q-55 0 -98.5 -22.5t-104.5 -83.5l-51 51q72 77 131 106t136 29q51 0 96.5 -13.5t128.5 -49.5z" />
    <glyph glyph-name="notequal" unicode="&#x2260;" horiz-adv-x="1228" 
d="M1147 797h-432l-119 -324h551v-86h-584l-100 -274h-98l100 274h-383v86h416l118 324h-534v86h567l94 258h99l-94 -258h399v-86z" />
    <glyph glyph-name="lessequal" unicode="&#x2264;" horiz-adv-x="1228" 
d="M1106 1065v-98l-881 -332l881 -332v-98l-983 379v100zM1147 86v-86h-1065v86h1065z" />
    <glyph glyph-name="greaterequal" unicode="&#x2265;" horiz-adv-x="1228" 
d="M123 1065l983 -381v-100l-983 -379v98l878 332l-878 332v98zM1147 86v-86h-1065v86h1065z" />
    <glyph glyph-name="lozenge" unicode="&#x25ca;" horiz-adv-x="1234" 
d="M700 1454l449 -729l-449 -725h-163l-449 725l449 729h163zM616 1407l-417 -682l417 -678l418 678z" />
    <glyph glyph-name="uni2923" unicode="&#x2923;" horiz-adv-x="1406" 
d="M606 1350l62 -64q149 -152 229 -248q188 -222 188 -467q0 -137 -57 -254q-52 -112 -139 -223q-67 -83 -230 -256l-49 -53l-71 70l45 47q149 156 219 239q184 217 184 430q0 121 -53 230q-54 112 -131 203q-81 100 -221 243l-41 41l-140 144v-562h-84v697h697v-80h-541z
" />
    <glyph glyph-name="uni2924" unicode="&#x2924;" horiz-adv-x="1257" 
d="M317 1567h697v-697h-84v562l-139 -144l-41 -41q-139 -141 -224 -243q-182 -219 -182 -433q0 -122 51 -227q50 -103 131 -203q70 -80 222 -239l45 -47l-72 -70l-49 53q-163 173 -230 256q-196 241 -196 477q0 134 53 252q53 121 135 215q74 89 230 248l61 64l133 137h-541
v80z" />
    <glyph glyph-name="uni2925" unicode="&#x2925;" horiz-adv-x="1406" 
d="M862 549h84v-696h-696v79h541l-134 138l-61 63q-130 133 -229 246q-189 227 -189 469q0 133 55 252q58 119 142 223q70 89 229 258l49 53l72 -69l-45 -47q-142 -148 -221 -242q-183 -216 -183 -428q0 -123 52 -230q51 -106 131 -204q86 -102 223 -242l41 -41l139 -143
v561z" />
    <glyph glyph-name="uni2926" unicode="&#x2926;" horiz-adv-x="1257" 
d="M389 70l-133 -138h541v-79h-697v696h84v-561l140 143l41 41q145 148 221 242q184 224 184 434q0 118 -53 227q-55 114 -131 201q-71 88 -219 242l-45 47l71 69l49 -53q165 -176 230 -258q196 -238 196 -475q0 -133 -53 -254q-52 -115 -135 -215q-99 -113 -229 -246z" />
    <glyph glyph-name="uniE000" unicode="&#xe000;" horiz-adv-x="3670" 
d="M645 0h-543v471h27q78 -206 215.5 -325t296.5 -119q124 0 195 77q71 80 71 189q0 111 -78 192q-46 46 -100 71.5t-176 64.5q-121 35 -190 68t-127 91q-119 119 -119 295q0 160 100 269.5t258 109.5h498v-403h-21q-34 58 -48 81t-43.5 62.5t-63.5 73.5q-156 159 -324 159
q-91 0 -162 -51q-71 -53 -71 -172q0 -48 18.5 -98t50.5 -82q46 -46 107.5 -73.5t181.5 -63.5q138 -40 216.5 -77.5t143.5 -102.5q49 -47 76 -119.5t27 -157.5q0 -200 -113 -315t-303 -115zM1030 1454h768q143 2 268.5 -57t212 -161t135.5 -241t48 -293q1 -106 -24 -206
t-79 -191.5t-132.5 -159.5t-193.5 -107.5t-253 -37.5h-748v27h41q116 0 169.5 48.5t53.5 153.5v996q0 104 -54 153t-169 49h-43v27zM2353 27h33q117 0 171 49t54 153v996q0 106 -54 154t-171 48h-35v27h787v-27h-56q-116 0 -168.5 -48t-52.5 -154v-996q0 -113 34 -157.5
t120 -44.5h135q57 3 93 18t81.5 67t93.5 139.5t125 248.5h25v-500h-1215v27zM3387 1454v-27h-41v-110h-30v110h-41v27h112zM3568 1454v-137h-31v100l-39 -100h-23l-36 100v-100h-31v137h47l33 -92l35 92h45zM2195 674q0 195 -35 343t-96 236t-138 131t-167 43h-133
q-47 0 -63.5 -20t-16.5 -74v-1134q0 -84 56.5 -128t162.5 -44q226 0 328 182q102 184 102 465z" />
    <glyph glyph-name="uniE001" unicode="&#xe001;" horiz-adv-x="2070" 
d="M1034 -168q-207 0 -393 88q-248 116 -393.5 348t-145.5 498q0 205 88 391q116 249 347 394t499 145q208 0 394 -88q247 -116 392.5 -348t145.5 -498q0 -205 -88 -391q-116 -248 -347 -393.5t-499 -145.5zM1937 762q0 256 -139 483q-137 224 -381 338q-185 84 -381 84
q-258 0 -485 -139q-221 -135 -336 -381q-84 -185 -84 -381q0 -258 139 -485q135 -219 383 -336q185 -84 381 -84q169 0 328.5 61.5t289 180.5t201.5 278q84 185 84 381zM1079 1475l17 131l92 -13l-4 -30l-47 4l-2 -19l45 -6l-4 -33l-46 7l-6 -48zM881 1481l-2 22l45 6l2 -8
q0 -4 12 -4l10 6l-2 10q0 5 -12 5h-4q-43 0 -56 16l-6 37q5 13 23 23t47 10q30 0 43 -19l4 -22l-47 -7v9q-4 4 -12 4q-11 -4 -11 -6v-9q4 -4 15 -4h4q47 -3 55 -16l4 -37q-9 -33 -67 -33q-28 0 -45 17zM1272 1434l-8 47l-11 4l-12 -41l-45 14l41 127l72 -24q26 -9 32 -33
l-14 -43q-8 -6 -20 -10l8 -29l-8 -25zM823 1442l-35 33l-8 -2l13 -41l-43 -15l-43 125l71 25q4 2 17 2q18 0 28 -10l15 -41q-3 -15 -11 -23l25 -16l8 -25zM1264 1513l14 -6q10 0 12 2l6 17q-3 6 -10 8l-14 6zM770 1501l16 6q3 0 9 6l-7 19q-6 2 -12 0l-14 -6zM643 1358
l-65 117l84 47l16 -29l-43 -25l8 -14l41 23l14 -29l-39 -23l9 -16l45 25l14 -29zM1341 1434l41 71q8 8 25 8q19 0 39 -10q39 -20 39 -53l-41 -72q-8 -8 -25 -8q-18 0 -41 10q-37 21 -37 54zM1409 1409l31 53q0 8 -10 11q-11 4 -13 2l-31 -56q0 -5 9 -8q10 -6 14 -2z
M565 1296l-65 76l-23 -18l-20 24l82 68l20 -25l-22 -18l63 -78zM1454 1343l88 99l43 -39l-16 -45l4 -4l41 22l43 -39l-88 -98l-33 29l45 51l-2 2l-47 -21l-14 15l16 47l-4 4l-45 -51zM1034 111q-143 0 -274 61q-175 82 -277 246q-100 160 -100 348q0 143 61 274
q83 177 244 277q160 100 348 100q144 0 275 -61q173 -82 276 -246q101 -157 101 -348q0 -139 -62 -275q-82 -175 -244 -276q-160 -100 -348 -100zM1661 764q0 181 -98 332q-95 153 -265 233q-132 60 -262 60q-176 0 -336 -97q-155 -96 -231 -264q-59 -130 -59 -262
q0 -176 96 -334q100 -158 266 -233q132 -60 262 -60q177 0 334 97q158 96 234 264q59 133 59 264zM475 1200l-78 66l-18 -25l-25 23l68 82l24 -21l-18 -25l76 -63zM1636 1186l19 10l24 -39l-8 -4q-1 -1 2 -12q3 -8 8 -8l9 4q4 3 0 14l-2 4q-11 26 -11 39q0 6 4 18l31 19
q30 0 51 -37q13 -16 13 -39q0 -11 -7 -22l-18 -11l-25 39l9 4q2 2 -2 13q-3 8 -9 8l-8 -4q0 -11 2 -15l2 -4q11 -37 11 -41q0 -1 -5 -16l-32 -19q-31 0 -52 37q-12 24 -12 39q0 11 6 23zM395 1075l-114 66l47 84l28 -17l-24 -43l14 -8l23 39l28 -14l-22 -41l16 -11l25 46
l26 -17zM1055 1100q0 -14 -11 -43q-24 -47 -59 -47q-33 0 -33 43q0 14 11 43q21 47 57 47q35 0 35 -43zM1694 1038l96 52l25 6l12 -43l-68 -29v-4l76 6l10 -33l-65 -37v-2l73 11l13 -37l-25 -8l-108 -13l-15 54l43 24l-2 2l-49 -2zM356 973l-125 47l17 43l94 -35l12 35
l31 -10zM1346 965q0 -14 -11 -43q-22 -48 -57 -48t-35 44q0 16 10 43q21 47 58 47q35 0 35 -43zM289 883q0 -11 -2 -13q-1 -6 -8 -10t-13 -4l-10 2q-14 8 -14 23l2 10q6 12 20 12q10 0 12 -2q13 -3 13 -18zM1739 862l133 10l6 -94l-31 -4l-4 51l-16 -2l2 -47l-33 -2l-2 47
l-18 -2l2 -49l-31 -4zM1284 541l-31 14q-38 -65 -105.5 -103t-141.5 -38q-68 0 -121 26q-77 36 -121.5 106.5t-44.5 153.5q0 44 16 97l-30 14q-21 -53 -21 -111q0 -93 50.5 -172.5t135.5 -117.5q67 -31 136 -31q86 0 160.5 43.5t117.5 118.5zM330 668l-133 -9l-4 41l45 15
l-2 2l-43 8l-5 41l136 8l2 -31l-72 -4v-4l49 -8l2 -16l-49 -15v-2l72 4zM1747 741l131 -14l-6 -68q-6 -36 -31 -45l-82 9q-20 14 -20 45v6zM1774 692l-2 -14q0 -6 4 -10l59 -6q4 0 4 10l2 14zM348 586l-131 -29l-8 33l106 24l-6 25l25 6zM1729 602l124 -41l-26 -90l-31 8
l14 49l-16 4l-14 -45l-31 11l14 45l-18 4l-14 -47l-31 8zM365 477l-93 -33q-8 0 -18.5 8t-15.5 23q-2 4 -2 19q0 25 10 28l90 33q8 0 19 -8t16 -23l4 -18q0 -19 -10 -29zM336 520l-68 -24q-5 -5 -2 -11q4 -4 6 -4l70 25l2 8q-3 6 -8 6zM1692 485l116 -61l-22 -43h-66l-2 -4
l51 -27l-20 -37l-117 62l23 43h65l2 4l-51 27zM432 389l-119 -65l-16 30l45 25l-8 12l-43 -24l-17 30l117 64l17 -29l-48 -26l7 -15l49 27zM492 305l-107 -80l-20 27l26 20v2l-39 -8l-14 23l16 12l41 4l31 49l18 15l17 -23l-25 -37l6 2l29 21zM553 217l-68 -70
q-22 -8 -45 15q-16 16 -16 41l29 28l22 -22l-16 -19q-2 -2 -0.5 -6t6.5 -4h4l51 51q0 7 -2 9q-5 4 -8 2l-21 -19l-22 23l31 30q21 6 41 -14q16 -19 16 -37zM1640 250q0 -6 -2 -8q-6 -15 -22 -15q-8 0 -10 2q-13 7 -13 23q0 6 2 8q8 14 21 14q8 0 10 -2q14 -6 14 -22z
M1495 221l80 -108l-35 -25l-35 29l-2 -2l17 -41l-33 -25l-80 109l27 18l43 -57l2 2l-19 47l13 8l36 -33l2 2l-41 58zM639 150l-55 -78q-23 -9 -47 8q-21 12 -21 35v6l57 78q3 5 18 4.5t27 -10.5q21 -15 21 -35v-8zM594 170l-43 -59q-2 -2 2 -9q7 -3 10 0l43 60q0 4 -4 8
t-8 0zM1337 123l19 -29l16 8l-10 31l27 14l8 -20l35 -109l-48 -22l-65 92l-10 21zM717 129l-51 -94l18 -10l-12 -23l-66 33l12 24l19 -10l51 96zM823 70l-8 -27l-31 10l4 13q0 6 -6 6q-4 4 -8 0l-4 -15q0 -5 6 -8l2 -2q25 -22 25 -37l-15 -39q-12 -6 -26 -6q-13 0 -17 2
q-24 9 -30 33l8 25l31 -11l-4 -12q0 -6 8 -6q4 0 6 2l4 10q0 4 -6 10h-2q-25 19 -25 37l15 41q13 8 24 8q3 0 19 -4q30 -10 30 -30zM1288 100l39 -129l-47 -14q-20 -9 -37 8l-29 92q0 18 25 27zM1395 39l-15 39l-12 -6l23 -35zM1184 70l22 -133l-61 -11l-4 27l28 4l-6 27
l-26 -4l-4 24l26 6l-4 29l-29 -6l-4 26zM989 55l-18 -133l-35 4l-10 66h-2l-9 -64l-32 4l16 134l37 -5l10 -65l2 -2l8 65zM1264 63l-9 -2q-6 0 -6 -6l23 -69q5 -5 8 -2l8 2zM1049 53v-133h-35v135z" />
    <glyph glyph-name="uniE002" unicode="&#xe002;" 
d="M1092 440q0 -176 -114.5 -303.5t-318.5 -136.5l-43 -205h-86l43 205h-178l-45 -205h-82l41 205h-241l297 1393h241l45 204h84l-43 -204h156h22l43 204h86l-49 -217q110 -27 174 -105t64 -192q0 -130 -72.5 -228t-195.5 -128q77 -32 124.5 -107t47.5 -180zM440 1303
l-110 -525h399q185 0 273 82.5t88 229.5q0 100 -71 156.5t-198 56.5h-381zM999 434q0 125 -70.5 190.5t-205.5 65.5h-412l-127 -602h424q209 0 299 100q92 103 92 246z" />
    <glyph glyph-name="Adieresis.ss02" horiz-adv-x="1300" 
d="M1049 0l-68 440h-666l-254 -440h-114l841 1454h138l223 -1454h-100zM367 530h602l-33 213l-10 64q-71 464 -82 569q-129 -238 -357 -635zM674 1720q0 37 25.5 62.5t62.5 25.5q30 0 49.5 -19.5t19.5 -49.5q0 -36 -26 -62t-62 -26q-30 0 -49.5 19.5t-19.5 49.5zM993 1720
q0 35 26.5 61.5t61.5 26.5q31 0 50.5 -19t19.5 -50q0 -36 -26 -62t-62 -26q-29 0 -49.5 20t-20.5 49z" />
    <glyph glyph-name="Cdotaccent.ss02" horiz-adv-x="1366" 
d="M1409 1253l-68 -57q-94 106 -185 152.5t-208 46.5q-131 3 -246.5 -47.5t-197.5 -136.5t-141.5 -197t-87.5 -230t-27 -233q0 -227 119.5 -358.5t328.5 -131.5q136 0 246 58q115 60 250 184l65 -65q-267 -267 -552 -267q-267 0 -414.5 157.5t-147.5 410.5q0 209 86 428
q85 217 269 366q182 150 456 150q142 0 252.5 -55.5t202.5 -174.5zM922 1718q0 37 25.5 63.5t62.5 26.5q32 0 51.5 -18.5t19.5 -48.5q0 -39 -25 -65.5t-63 -26.5q-32 0 -51.5 19.5t-19.5 49.5z" />
    <glyph glyph-name="Edieresis.ss02" horiz-adv-x="1222" 
d="M1315 1454l-21 -88h-815l-123 -575h756l-18 -89h-756l-131 -614h831l-18 -88h-936l309 1454h922zM670 1720q0 37 25.5 62.5t62.5 25.5q30 0 49.5 -19.5t19.5 -49.5q0 -36 -26 -62t-62 -26q-30 0 -49.5 19.5t-19.5 49.5zM989 1720q0 35 26.5 61.5t61.5 26.5q31 0 50.5 -19
t19.5 -50q0 -36 -26 -62t-62 -26q-29 0 -49.5 20t-20.5 49z" />
    <glyph glyph-name="Edotaccent.ss02" horiz-adv-x="1222" 
d="M1315 1454l-21 -88h-815l-123 -575h756l-18 -89h-756l-131 -614h831l-18 -88h-936l309 1454h922zM821 1718q0 37 25.5 63.5t62.5 26.5q32 0 52 -19t20 -48q0 -39 -25 -65.5t-63 -26.5q-32 0 -52 19.5t-20 49.5z" />
    <glyph glyph-name="uni0122.ss02" horiz-adv-x="1513" 
d="M256 563q0 -228 120 -362.5t347 -134.5q88 0 175.5 33.5t163 95t133 156t81.5 208.5l16 76h-508l17 88h612l-151 -723h-88l36 236q-88 -132 -216 -197.5t-279 -65.5q-136 0 -245.5 46t-179 126t-106.5 183.5t-37 222.5q0 217 84 432q85 211 269 354q184 144 458 144
q327 0 545 -277l-82 -55q-107 130 -217 187t-260 57q-134 3 -249 -47t-195 -134t-136.5 -193.5t-82.5 -225.5t-25 -230zM739 -272q0 -80 -64.5 -156t-146.5 -76l4 53q41 5 77.5 38.5t49.5 86.5q-12 -4 -32 -4q-34 0 -54 20t-20 52q0 38 27.5 64t64.5 26q43 0 68.5 -26
t25.5 -78z" />
    <glyph glyph-name="Gdotaccent.ss02" horiz-adv-x="1513" 
d="M256 563q0 -228 120 -362.5t347 -134.5q88 0 175.5 33.5t163 95t133 156t81.5 208.5l16 76h-508l17 88h612l-151 -723h-88l36 236q-88 -132 -216 -197.5t-279 -65.5q-136 0 -245.5 46t-179 126t-106.5 183.5t-37 222.5q0 217 84 432q85 211 269 354q184 144 458 144
q327 0 545 -277l-82 -55q-107 130 -217 187t-260 57q-134 3 -249 -47t-195 -134t-136.5 -193.5t-82.5 -225.5t-25 -230zM973 1718q0 37 25.5 63.5t62.5 26.5q32 0 52 -19t20 -48q0 -39 -25.5 -65.5t-63.5 -26.5q-32 0 -51.5 19.5t-19.5 49.5z" />
    <glyph glyph-name="Idieresis.ss02" horiz-adv-x="483" 
d="M500 1454l-310 -1454h-106l309 1454h107zM262 1720q0 37 25.5 62.5t62.5 25.5q30 0 50 -19.5t20 -49.5q0 -36 -26 -62t-62 -26q-30 0 -50 19.5t-20 49.5zM582 1720q0 35 26.5 61.5t61.5 26.5q31 0 50 -19t19 -50q0 -36 -26 -62t-62 -26q-29 0 -49 20t-20 49z" />
    <glyph glyph-name="Idotaccent.ss02" horiz-adv-x="483" 
d="M500 1454l-310 -1454h-106l309 1454h107zM414 1718q0 37 25.5 63.5t62.5 26.5q32 0 51.5 -18.5t19.5 -48.5q0 -39 -25 -65.5t-63 -26.5q-32 0 -51.5 19.5t-19.5 49.5z" />
    <glyph glyph-name="K.ss01" horiz-adv-x="1290" 
d="M1399 1415l-664 -541l420 -874h-111l-387 811l-356 -291l-111 -520h-106l309 1454h107l-170 -799l1007 824z" />
    <glyph glyph-name="uni0136.ss01" horiz-adv-x="1290" 
d="M1399 1415l-664 -541l420 -874h-111l-387 811l-356 -291l-111 -520h-106l309 1454h107l-170 -799l1007 824zM649 -166l-31 -147l-133 -195h-63l123 195h-70l31 147h143z" />
    <glyph glyph-name="uni0136.ss01.ss02" horiz-adv-x="1290" 
d="M1399 1415l-664 -541l420 -874h-111l-387 811l-356 -291l-111 -520h-106l309 1454h107l-170 -799l1007 824zM653 -272q0 -80 -64.5 -156t-146.5 -76l4 53q41 5 77.5 38.5t49.5 86.5q-12 -4 -32 -4q-34 0 -54 20t-20 52q0 38 27.5 64t64.5 26q43 0 68.5 -26t25.5 -78z" />
    <glyph glyph-name="uni0136.ss02" horiz-adv-x="1290" 
d="M1419 1454l-686 -573l422 -881h-111l-389 817l-354 -295l-111 -522h-106l309 1454h107l-168 -790l944 790h143zM651 -272q0 -80 -64.5 -156t-146.5 -76l4 53q41 5 77.5 38.5t49.5 86.5q-12 -4 -32 -4q-34 0 -54 20t-20 52q0 38 27.5 64t64.5 26q43 0 68.5 -26t25.5 -78z
" />
    <glyph glyph-name="uni013B.ss02" horiz-adv-x="1054" 
d="M500 1454l-293 -1366h711l-19 -88h-815l309 1454h107zM555 -272q0 -80 -64.5 -156t-146.5 -76l4 53q41 5 77.5 38.5t49.5 86.5q-12 -4 -33 -4q-34 0 -53.5 20t-19.5 52q0 38 27.5 64t64.5 26q43 0 68.5 -26t25.5 -78z" />
    <glyph glyph-name="Ldot.ss02" horiz-adv-x="1050" 
d="M500 1454l-293 -1366h711l-19 -88h-815l309 1454h107zM666 735q0 37 26.5 63.5t67.5 26.5q31 0 52.5 -21t21.5 -52q0 -37 -27.5 -66t-63.5 -29q-32 0 -54.5 23t-22.5 55z" />
    <glyph glyph-name="uni0145.ss02" horiz-adv-x="1486" 
d="M1401 1454h102l-309 -1454h-123l-332 727l-69 154q-128 278 -207 460q-68 -363 -111 -555l-166 -786h-102l309 1454h121l326 -715q106 -231 188 -420l94 -206q66 348 113 563zM684 -272q0 -80 -64.5 -156t-146.5 -76l4 53q41 5 77.5 38.5t49.5 86.5q-12 -4 -33 -4
q-34 0 -53.5 20t-19.5 52q0 38 27.5 64t64.5 26q43 0 68.5 -26t25.5 -78z" />
    <glyph glyph-name="Odieresis.ss02" horiz-adv-x="1519" 
d="M1475 897q0 -206 -86 -422q-82 -213 -261 -360q-176 -144 -428 -144q-263 0 -409 155.5t-146 432.5q0 209 88 422t265 358q175 144 428 144q262 0 405.5 -156t143.5 -430zM250 557q0 -235 121.5 -366.5t326.5 -131.5q124 -3 234 47t189 136t136.5 196t85.5 228.5
t27 232.5q0 233 -119 364.5t-327 131.5q-124 3 -234.5 -46.5t-189.5 -135t-137 -195t-86 -228.5t-27 -233zM788 1720q0 37 26 62.5t63 25.5q30 0 49.5 -19.5t19.5 -49.5q0 -36 -26 -62t-62 -26q-30 0 -50 19.5t-20 49.5zM1108 1720q0 35 26.5 61.5t61.5 26.5q31 0 50.5 -19
t19.5 -50q0 -36 -26 -62t-62 -26q-29 0 -49.5 20t-20.5 49z" />
    <glyph glyph-name="uni0156.ss02" horiz-adv-x="1339" 
d="M834 625l309 -625h-113l-307 625h-401l-134 -625h-104l309 1454h545q173 0 280 -95t107 -257q0 -88 -30.5 -170t-89 -149.5t-154.5 -110.5t-217 -47zM1223 1108q0 122 -82.5 190t-229.5 68h-434l-137 -655h426q242 0 348 112q109 115 109 285zM621 -272q0 -80 -64.5 -156
t-146.5 -76l4 53q41 5 77.5 38.5t49.5 86.5q-12 -4 -33 -4q-34 0 -54 20t-20 52q0 38 27.5 64t64.5 26q43 0 69 -26t26 -78z" />
    <glyph glyph-name="uni0218.ss02" horiz-adv-x="1271" 
d="M1274 1260l-70 -72q-193 205 -446 205q-172 0 -292 -92.5t-120 -231.5q0 -72 41 -119q42 -43 118 -76.5t236 -82.5q162 -51 251 -105.5t123 -118t34 -157.5q0 -83 -35 -161t-98.5 -140.5t-162.5 -100t-218 -37.5q-158 0 -295.5 58.5t-284.5 177.5l64 76
q272 -224 520 -224q181 0 293 102t112 249q-2 43 -10.5 75t-28.5 59.5t-45 47.5t-70 41.5t-93.5 39t-124.5 42.5q-89 29 -147.5 51t-109.5 47t-80 48t-50.5 54t-30 66t-10.5 82q0 172 146 295t372 123q291 0 512 -221zM563 -272q0 -80 -64.5 -156t-146.5 -76l4 53
q41 5 77.5 38.5t49.5 86.5q-12 -4 -32 -4q-34 0 -54 20t-20 52q0 38 27.5 64t64.5 26q43 0 68.5 -26t25.5 -78z" />
    <glyph glyph-name="uni021A.ss02" horiz-adv-x="1212" 
d="M1346 1454l-21 -88h-479l-291 -1366h-104l288 1366h-481l21 88h1067zM547 -272q0 -80 -64.5 -156t-146.5 -76l4 53q41 5 77.5 38.5t49.5 86.5q-12 -4 -33 -4q-34 0 -54 20t-20 52q0 38 28 64t65 26q43 0 68.5 -26t25.5 -78z" />
    <glyph glyph-name="Udieresis.ss02" horiz-adv-x="1394" 
d="M1421 1454l-217 -1012q-49 -234 -187 -351.5t-394 -117.5q-229 0 -345 92t-116 265q0 48 20 151l207 973h105l-209 -983q-19 -90 -19 -131q0 -136 93 -207.5t270 -71.5q197 0 312.5 97t158.5 293l215 1003h106zM700 1720q0 37 25.5 62.5t62.5 25.5q30 0 50 -19.5
t20 -49.5q0 -36 -26 -62t-62 -26q-30 0 -50 19.5t-20 49.5zM1020 1720q0 35 26.5 61.5t61.5 26.5q31 0 50.5 -19t19.5 -50q0 -36 -26 -62t-62 -26q-29 0 -49.5 20t-20.5 49z" />
    <glyph glyph-name="Wdieresis.ss02" horiz-adv-x="1875" 
d="M1882 1454h109l-660 -1454h-141l-51 760q-4 82 -4 92q-19 322 -23 477q-84 -183 -270 -571l-371 -758h-149l-39 1454h98l18 -764l4 -119q1 -18 5 -165q2 -72 2 -189l-2 -139q35 76 254 532l38 80l377 764h115l47 -764q23 -356 31 -608q72 176 266 608zM946 1720
q0 37 25.5 62.5t62.5 25.5q30 0 50 -19.5t20 -49.5q0 -36 -26 -62t-62 -26q-30 0 -50 19.5t-20 49.5zM1266 1720q0 35 26.5 61.5t61.5 26.5q31 0 50 -19t19 -50q0 -36 -26 -62t-62 -26q-29 0 -49 20t-20 49z" />
    <glyph glyph-name="Ydieresis.ss02" horiz-adv-x="1245" 
d="M1274 1454h123l-695 -825l-131 -629h-106l135 631l-338 823h107l295 -735zM618 1720q0 37 26 62.5t63 25.5q30 0 49.5 -19.5t19.5 -49.5q0 -36 -26 -62t-62 -26q-30 0 -50 19.5t-20 49.5zM938 1720q0 35 26.5 61.5t61.5 26.5q31 0 50.5 -19t19.5 -50q0 -36 -26 -62
t-62 -26q-29 0 -49.5 20t-20.5 49z" />
    <glyph glyph-name="Zdotaccent.ss02" horiz-adv-x="1243" 
d="M1370 1454l-18 -78l-1221 -1288h942l-18 -88h-1080l17 78l1218 1288h-899l21 88h1038zM799 1718q0 37 25.5 63.5t62.5 26.5q32 0 51.5 -18.5t19.5 -48.5q0 -39 -25 -65.5t-63 -26.5q-32 0 -51.5 19.5t-19.5 49.5z" />
    <glyph glyph-name="adieresis.ss02" horiz-adv-x="1091" 
d="M934 975h94l-207 -975h-90l43 201q-145 -224 -364 -224q-164 0 -250 93.5t-86 261.5q-1 88 20 181t66 180.5t107.5 155.5t150.5 108t188 38q118 0 192 -50.5t101 -141.5zM848 647q0 127 -60.5 197.5t-177.5 70.5q-100 4 -186 -51t-139.5 -142.5t-83.5 -188.5t-29 -195
q0 -142 58 -210.5t176 -68.5q71 -3 139.5 31t123 94t96 136t63 161.5t20.5 165.5zM477 1292q0 37 25.5 62.5t62.5 25.5q30 0 50 -19.5t20 -49.5q0 -36 -26 -62t-62 -26q-31 0 -50.5 19.5t-19.5 49.5zM797 1292q0 35 26.5 61.5t61.5 26.5q31 0 50 -19t19 -50q0 -36 -26 -62
t-62 -26q-29 0 -49 20t-20 49z" />
    <glyph glyph-name="cdotaccent.ss02" horiz-adv-x="950" 
d="M600 918q-79 3 -150.5 -33t-121 -96t-86.5 -134.5t-54 -149.5t-16 -140q0 -149 67 -228.5t199 -79.5q167 0 353 183l65 -64q-201 -201 -420 -201q-170 0 -267 101.5t-97 281.5q-1 82 20.5 171t67 174t108 152t150 107t186.5 37q120 0 200.5 -47t143.5 -147l-78 -51
q-61 92 -120 128t-150 36zM612 1290q0 37 25.5 63.5t62.5 26.5q32 0 52 -19t20 -48q0 -39 -25 -65.5t-63 -26.5q-32 0 -52 19.5t-20 49.5z" />
    <glyph glyph-name="edieresis.ss02" horiz-adv-x="1044" 
d="M934 492h-750q-10 -75 -10 -121q0 -145 70.5 -229.5t218.5 -84.5q188 0 375 213l69 -53q-205 -242 -444 -242q-184 0 -286.5 104t-102.5 283q-1 89 22 179.5t70.5 173.5t112 147.5t154 101.5t190.5 35q153 0 246.5 -87t93.5 -234q0 -112 -29 -186zM203 569h663q8 47 8 93
q0 117 -68.5 186.5t-191.5 69.5q-154 0 -259.5 -95t-151.5 -254zM467 1292q0 37 25.5 62.5t62.5 25.5q30 0 50 -19.5t20 -49.5q0 -36 -26 -62t-62 -26q-31 0 -50.5 19.5t-19.5 49.5zM786 1292q0 35 26.5 61.5t61.5 26.5q31 0 50.5 -19t19.5 -50q0 -36 -26 -62t-62 -26
q-29 0 -49.5 20t-20.5 49z" />
    <glyph glyph-name="edotaccent.ss02" horiz-adv-x="1044" 
d="M934 492h-750q-10 -75 -10 -121q0 -145 70.5 -229.5t218.5 -84.5q188 0 375 213l69 -53q-205 -242 -444 -242q-184 0 -286.5 104t-102.5 283q-1 89 22 179.5t70.5 173.5t112 147.5t154 101.5t190.5 35q153 0 246.5 -87t93.5 -234q0 -112 -29 -186zM203 569h663q8 47 8 93
q0 117 -68.5 186.5t-191.5 69.5q-154 0 -259.5 -95t-151.5 -254zM618 1290q0 37 26 63.5t63 26.5q32 0 51.5 -18.5t19.5 -48.5q0 -39 -25 -65.5t-63 -26.5q-32 0 -52 19.5t-20 49.5z" />
    <glyph glyph-name="uni0123.ss02" horiz-adv-x="1081" 
d="M930 975h94l-209 -979q-42 -194 -144.5 -288.5t-285.5 -94.5q-199 0 -399 147l55 70q97 -69 178 -102t170 -33q265 0 332 307l41 193q-139 -195 -356 -195q-154 0 -246 99.5t-92 260.5q-1 81 20 169t65 172.5t104 151t145 106t180 36.5q117 0 196.5 -54.5t110.5 -152.5z
M842 641q0 125 -67 198.5t-189 73.5q-78 3 -147.5 -30.5t-118.5 -90.5t-85 -129t-53 -147.5t-16 -144.5q0 -139 61.5 -214t182.5 -75q78 -3 149 32t122 94t88.5 133.5t55.5 152t17 147.5zM643 1378q29 11 39 11q31 0 51.5 -21.5t20.5 -52.5q0 -37 -28 -63.5t-64 -26.5
q-43 0 -69 26t-26 78q0 80 65 155.5t152 78.5l-14 -54q-44 -6 -79.5 -41.5t-47.5 -89.5z" />
    <glyph glyph-name="gdotaccent.ss02" horiz-adv-x="1081" 
d="M930 975h94l-209 -979q-42 -194 -144.5 -288.5t-285.5 -94.5q-199 0 -399 147l55 70q97 -69 178 -102t170 -33q265 0 332 307l41 193q-139 -195 -356 -195q-154 0 -246 99.5t-92 260.5q-1 81 20 169t65 172.5t104 151t145 106t180 36.5q117 0 196.5 -54.5t110.5 -152.5z
M842 641q0 125 -67 198.5t-189 73.5q-78 3 -147.5 -30.5t-118.5 -90.5t-85 -129t-53 -147.5t-16 -144.5q0 -139 61.5 -214t182.5 -75q78 -3 149 32t122 94t88.5 133.5t55.5 152t17 147.5zM610 1290q0 37 25.5 63.5t62.5 26.5q32 0 52 -19t20 -48q0 -39 -25 -65.5t-63 -26.5
q-32 0 -52 19.5t-20 49.5z" />
    <glyph glyph-name="i.ss02" horiz-adv-x="421" 
d="M362 975l-204 -975h-99l205 975h98zM295 1290q0 37 25.5 63.5t62.5 26.5q32 0 52 -19t20 -48q0 -39 -25 -65.5t-63 -26.5q-32 0 -52 19.5t-20 49.5z" />
    <glyph glyph-name="idieresis.ss02" horiz-adv-x="421" 
d="M362 975l-204 -975h-99l205 975h98zM143 1292q0 37 25.5 62.5t62.5 25.5q30 0 50 -19.5t20 -49.5q0 -36 -26 -62t-62 -26q-31 0 -50.5 19.5t-19.5 49.5zM463 1292q0 35 26.5 61.5t61.5 26.5q31 0 50.5 -19t19.5 -50q0 -35 -26.5 -61.5t-62.5 -26.5q-29 0 -49 20t-20 49z
" />
    <glyph glyph-name="i.loclTRK" horiz-adv-x="421" 
d="M362 975l-204 -975h-99l205 975h98zM451 1386l-37 -176h-99l37 176h99z" />
    <glyph glyph-name="i.loclTRK.ss02" horiz-adv-x="421" 
d="M362 975l-204 -975h-99l205 975h98zM295 1290q0 37 25.5 63.5t62.5 26.5q32 0 52 -19t20 -48q0 -39 -25 -65.5t-63 -26.5q-32 0 -52 19.5t-20 49.5z" />
    <glyph glyph-name="ij.ss02" horiz-adv-x="833" 
d="M362 975l-204 -975h-99l205 975h98zM295 1290q0 37 25.5 63.5t62.5 26.5q32 0 52 -19t20 -48q0 -39 -25 -65.5t-63 -26.5q-32 0 -52 19.5t-20 49.5zM276 -313q46 3 74.5 14.5t49 43t32.5 68.5t29 111l221 1051h98l-231 -1094q-30 -148 -88.5 -213t-177.5 -65
q-97 0 -181 32l31 74q77 -22 143 -22zM711 1290q0 37 25.5 63.5t62.5 26.5q32 0 51.5 -18.5t19.5 -48.5q0 -39 -25 -65.5t-63 -26.5q-32 0 -51.5 19.5t-19.5 49.5z" />
    <glyph glyph-name="iogonek.ss02" horiz-adv-x="421" 
d="M455 1313q0 -39 -25 -65.5t-63 -26.5q-31 0 -51.5 20t-20.5 49q0 37 25.5 63.5t62.5 26.5q32 0 52 -19t20 -48zM59 0l205 975h98l-204 -975q-103 -69 -150 -128.5t-47 -125.5q0 -38 22.5 -59t61.5 -21q24 0 45 6l-16 -73q-35 -7 -51 -7q-62 0 -102 35t-40 99
q0 154 185 274h-7z" />
    <glyph glyph-name="j.calt" horiz-adv-x="403" 
d="M442 1386l-36 -176h-95l37 176h94zM-125 -315q62 0 93 38.5t50 120.5l242 1131h96l-243 -1151q-21 -102 -80.5 -161.5t-153.5 -59.5q-18 0 -35.5 1t-28 2t-12.5 1l21 82q32 -4 51 -4z" />
    <glyph glyph-name="j.calt.ss02" horiz-adv-x="403" 
d="M287 1290q0 37 25.5 63.5t62.5 26.5q32 0 51.5 -18.5t19.5 -48.5q0 -39 -25 -65.5t-63 -26.5q-31 0 -51 20t-20 49zM-125 -315q62 0 93 38.5t50 120.5l242 1131h96l-243 -1151q-21 -102 -80.5 -161.5t-153.5 -59.5q-18 0 -35.5 1t-28 2t-12.5 1l21 82q32 -4 51 -4z" />
    <glyph glyph-name="j.ss02" horiz-adv-x="411" 
d="M-145 -313q37 2 62.5 12t43 24t31.5 45.5t23.5 63.5t23.5 92l221 1051h98l-231 -1094q-30 -148 -88.5 -213t-177.5 -65q-96 0 -180 32l30 74q77 -22 144 -22zM289 1290q0 37 25.5 63.5t62.5 26.5q32 0 52 -19t20 -48q0 -39 -25.5 -65.5t-63.5 -26.5q-32 0 -51.5 19.5
t-19.5 49.5z" />
    <glyph glyph-name="k.ss01" horiz-adv-x="950" 
d="M975 932l-414 -344l279 -588h-99l-252 528l-270 -225l-65 -303h-99l310 1454h98l-219 -1028l665 561z" />
    <glyph glyph-name="uni0137.ss01" horiz-adv-x="950" 
d="M975 932l-414 -344l279 -588h-99l-252 528l-270 -225l-65 -303h-99l310 1454h98l-219 -1028l665 561zM467 -166l-31 -147l-133 -195h-63l122 195h-69l31 147h143z" />
    <glyph glyph-name="uni0137.ss01.ss02" horiz-adv-x="950" 
d="M975 932l-414 -344l279 -588h-99l-252 528l-270 -225l-65 -303h-99l310 1454h98l-219 -1028l665 561zM471 -272q0 -80 -64.5 -156t-146.5 -76l4 53q41 5 77.5 38.5t49.5 86.5q-12 -4 -33 -4q-34 0 -53.5 20t-19.5 52q0 38 27.5 64t64.5 26q43 0 68.5 -26t25.5 -78z" />
    <glyph glyph-name="uni0137.ss02" horiz-adv-x="950" 
d="M987 975l-430 -375l283 -600h-99l-258 545l-262 -228l-67 -317h-99l310 1454h98l-215 -1014l608 535h131zM463 -272q0 -80 -64.5 -156t-146.5 -76l4 53q41 5 77.5 38.5t49.5 86.5q-12 -4 -33 -4q-34 0 -54 20t-20 52q0 38 28 64t65 26q43 0 68.5 -26t25.5 -78z" />
    <glyph glyph-name="uni013C.ss02" horiz-adv-x="425" 
d="M467 1454l-309 -1454h-99l310 1454h98zM160 -272q0 -80 -64.5 -156t-146.5 -76l4 53q41 5 77.5 38.5t49.5 86.5q-12 -4 -33 -4q-34 0 -54 20t-20 52q0 38 28 64t65 26q43 0 68.5 -26t25.5 -78z" />
    <glyph glyph-name="ldot.ss02" horiz-adv-x="702" 
d="M467 1454l-309 -1454h-99l310 1454h98zM489 592q0 37 27 63.5t68 26.5q31 0 52 -21.5t21 -52.5q0 -37 -27 -65.5t-63 -28.5q-32 0 -55 23t-23 55z" />
    <glyph glyph-name="uni0146.ss02" horiz-adv-x="1067" 
d="M967 758q0 -62 -15 -129l-133 -629h-98l133 631q12 68 12 121q0 85 -49.5 125.5t-150.5 40.5q-133 0 -246 -97t-148 -266l-116 -555h-99l205 975h96l-34 -162q64 95 153.5 140.5t192.5 45.5q142 0 219.5 -68t77.5 -173zM481 -272q0 -80 -64.5 -156t-146.5 -76l4 53
q41 5 77.5 38.5t49.5 86.5q-12 -4 -32 -4q-34 0 -54 20t-20 52q0 38 27.5 64t64.5 26q43 0 68.5 -26t25.5 -78z" />
    <glyph glyph-name="odieresis.ss02" horiz-adv-x="1056" 
d="M979 608q1 -83 -19 -170.5t-63 -171.5t-103.5 -149.5t-149 -104.5t-189.5 -37q-179 0 -280 105.5t-101 290.5q-1 80 19 165.5t63.5 170t104.5 150.5t150 105.5t193 36.5q176 0 275.5 -105t99.5 -286zM172 369q0 -147 74 -230.5t203 -83.5q80 -2 151 31t122 90t88 129.5
t54.5 150.5t16.5 152q0 148 -73 229t-204 81q-98 3 -182.5 -48.5t-137.5 -133.5t-83 -178.5t-29 -188.5zM459 1292q0 37 25.5 62.5t62.5 25.5q30 0 49.5 -19.5t19.5 -49.5q0 -36 -26 -62t-62 -26q-30 0 -49.5 19.5t-19.5 49.5zM778 1292q0 35 26.5 61.5t61.5 26.5
q31 0 50.5 -19t19.5 -50q0 -36 -26 -62t-62 -26q-29 0 -49.5 20t-20.5 49z" />
    <glyph glyph-name="uni0157.ss02" horiz-adv-x="675" 
d="M748 948l-35 -76q-67 27 -127 27q-116 0 -199 -93.5t-119 -270.5l-112 -535h-99l205 975h94l-30 -148q44 73 115 114.5t147 41.5t160 -35zM158 -272q0 -80 -64.5 -156t-146.5 -76l4 53q41 5 77.5 38.5t49.5 86.5q-12 -4 -33 -4q-34 0 -54 20t-20 52q0 38 27.5 64t64.5 26
q43 0 69 -26t26 -78z" />
    <glyph glyph-name="uni0219.ss02" horiz-adv-x="917" 
d="M864 844l-61 -68q-145 142 -309 142q-112 0 -186.5 -57t-74.5 -130q2 -32 10.5 -52.5t21.5 -36.5t45.5 -31t67 -27t103.5 -33q131 -41 181 -64q139 -59 139 -202q0 -129 -101 -219.5t-282 -90.5q-116 0 -209 44.5t-193 136.5l66 63q93 -84 172 -123t174 -39
q127 0 202 62.5t75 161.5q0 53 -35 88q-30 33 -76 51t-174 55q-117 37 -178.5 72t-83 73t-21.5 97q0 119 102.5 200.5t260.5 81.5q202 0 364 -155zM438 -272q0 -80 -64.5 -156t-146.5 -76l4 53q41 5 77.5 38.5t49.5 86.5q-12 -4 -32 -4q-34 0 -54 20t-20 52q0 38 27.5 64
t64.5 26q43 0 68.5 -26t25.5 -78z" />
    <glyph glyph-name="uni021B.ss02" horiz-adv-x="671" 
d="M414 901l-135 -639q-15 -70 -15 -102q0 -52 25 -74.5t84 -22.5q66 0 164 29l14 -76q-81 -34 -180 -34q-105 0 -155 41.5t-50 132.5q0 56 14 116l135 629h-192l14 74h193l76 350h98l-74 -350h281l-15 -74h-282zM391 -272q0 -80 -64.5 -156t-146.5 -76l4 53q41 5 77.5 38.5
t49.5 86.5q-12 -4 -32 -4q-34 0 -54 20t-20 52q0 38 27.5 64t64.5 26q43 0 68.5 -26t25.5 -78z" />
    <glyph glyph-name="udieresis.ss02" horiz-adv-x="1054" 
d="M891 975h98l-205 -975h-94l35 164q-60 -93 -149.5 -141t-182.5 -48q-145 0 -220 68.5t-75 183.5q0 41 17 135l129 613h98l-131 -623q-14 -69 -14 -114q0 -90 51.5 -135.5t142.5 -45.5q138 0 245 102.5t144 286.5zM430 1292q0 37 25.5 62.5t62.5 25.5q30 0 50 -19.5
t20 -49.5q0 -36 -26 -62t-62 -26q-30 0 -50 19.5t-20 49.5zM750 1292q0 35 26.5 61.5t61.5 26.5q31 0 50 -19t19 -50q0 -36 -26 -62t-62 -26q-29 0 -49 20t-20 49z" />
    <glyph glyph-name="wdieresis.ss02" horiz-adv-x="1413" 
d="M1350 977h94l-490 -977h-116l-31 360q-26 284 -37 510q-86 -191 -248 -516l-174 -354h-129l-65 977h94l24 -408q1 -11 3 -37.5t3.5 -55.5t2.5 -58q15 -236 18 -334l109 217l131 266l206 410h93l34 -410q9 -103 9 -104q24 -270 26 -385q78 171 236 485zM610 1292
q0 37 25.5 62.5t62.5 25.5q30 0 50 -19.5t20 -49.5q0 -36 -26 -62t-62 -26q-30 0 -50 19.5t-20 49.5zM930 1292q0 35 26.5 61.5t61.5 26.5q31 0 50 -19t19 -50q0 -36 -26 -62t-62 -26q-29 0 -49 20t-20 49z" />
    <glyph glyph-name="ydieresis.ss02" horiz-adv-x="915" 
d="M864 975h101l-629 -1141q-33 -59 -53.5 -90t-45.5 -61.5t-50 -43.5t-57.5 -21.5t-78.5 -10.5q-61 0 -123 16l27 78q49 -12 86 -12q68 0 112.5 39t106.5 153l29 51l-146 1043h93l49 -348q28 -189 77 -576l52 96q145 283 245 459zM362 1292q0 37 26 62.5t63 25.5
q30 0 49.5 -19.5t19.5 -49.5q0 -36 -26 -62t-62 -26q-30 0 -50 19.5t-20 49.5zM682 1292q0 35 26.5 61.5t61.5 26.5q31 0 50.5 -19t19.5 -50q0 -36 -26 -62t-62 -26q-29 0 -49.5 20t-20.5 49z" />
    <glyph glyph-name="zdotaccent.ss02" horiz-adv-x="942" 
d="M950 975l-14 -70l-805 -823h631l-17 -82h-761l14 72l803 819h-588l16 84h721zM573 1290q0 37 26 63.5t63 26.5q32 0 51.5 -18.5t19.5 -48.5q0 -39 -25 -65.5t-63 -26.5q-32 0 -52 19.5t-20 49.5z" />
    <glyph glyph-name="f_f_i.liga.ss02" horiz-adv-x="1648" 
d="M479 1155l-39 -180h222l-15 -74h-221l-193 -901h-98l191 901h-203l14 74h205l47 223q29 138 107 210.5t194 72.5q101 0 191 -43l-31 -72q-90 33 -158 33q-88 0 -137.5 -55.5t-75.5 -188.5zM1296 975l-14 -74h-256l-192 -901h-99l191 901h-178l14 74h180l47 223
q29 138 107 210.5t194 72.5q74 0 166 -29l-33 -74q-64 21 -137 21q-83 0 -132 -56.5t-75 -187.5l-39 -180h256zM1681 1315q0 -39 -25 -66.5t-63 -27.5q-31 0 -51 20t-20 49q0 38 25 64t63 26q32 0 51.5 -18t19.5 -47zM1286 0l205 975h98l-205 -975h-98z" />
    <glyph glyph-name="f_f_j.liga.ss02" horiz-adv-x="1642" 
d="M479 1155l-39 -180h222l-15 -74h-221l-193 -901h-98l191 901h-203l14 74h205l47 223q29 138 107 210.5t194 72.5q99 0 195 -41l-33 -70q-92 29 -158 29q-89 0 -139 -56t-76 -188zM1282 901h-256l-192 -901h-99l191 901h-178l14 74h180l47 223q29 138 107 210.5t194 72.5
q74 0 166 -29l-33 -74q-64 21 -137 21q-83 0 -132 -56.5t-75 -187.5l-39 -180h256zM1679 1315q0 -39 -25 -66.5t-63 -27.5q-31 0 -51 20t-20 49q0 38 25 64t63 26q32 0 51.5 -18t19.5 -47zM1272 -76l221 1051h98l-231 -1094q-30 -147 -89 -212.5t-177 -65.5q-97 0 -181 32
l31 74q77 -22 143 -22q46 3 74.5 14.5t49 43t32.5 68.5t29 111z" />
    <glyph glyph-name="f_j.liga.ss02" horiz-adv-x="1042" 
d="M682 901h-256l-193 -901h-98l191 901h-203l14 74h205l47 223q29 138 107 210.5t194 72.5q74 0 166 -29l-33 -74q-65 21 -137 21q-83 0 -132 -56.5t-75 -187.5l-39 -180h258zM1079 1315q0 -39 -25 -66.5t-63 -27.5q-31 0 -51 20t-20 49q0 38 25 64t63 26q32 0 51.5 -18
t19.5 -47zM672 -76l221 1051h98l-231 -1094q-30 -147 -89 -212.5t-177 -65.5q-97 0 -181 32l31 74q77 -22 143 -22q46 3 74.5 14.5t49 43t32.5 68.5t29 111z" />
    <glyph glyph-name="fi.ss02" horiz-adv-x="1048" 
d="M698 975l-16 -74h-256l-193 -901h-98l191 901h-203l14 74h205l47 223q29 138 107 210.5t194 72.5q74 0 166 -29l-33 -74q-65 21 -137 21q-83 0 -132 -56.5t-75 -187.5l-39 -180h258zM1081 1315q0 -39 -25 -66.5t-63 -27.5q-31 0 -51 20t-20 49q0 38 25 64t63 26
q32 0 51.5 -18t19.5 -47zM686 0l205 975h98l-205 -975h-98z" />
    <glyph glyph-name="uni0401.ss02" horiz-adv-x="1222" 
d="M1315 1454l-21 -88h-815l-123 -575h756l-18 -89h-756l-131 -614h831l-18 -88h-936l309 1454h922zM670 1720q0 37 25.5 62.5t62.5 25.5q30 0 49.5 -19.5t19.5 -49.5q0 -36 -26 -62t-62 -26q-30 0 -49.5 19.5t-19.5 49.5zM989 1720q0 35 26.5 61.5t61.5 26.5q31 0 50.5 -19
t19.5 -50q0 -36 -26 -62t-62 -26q-29 0 -49.5 20t-20.5 49z" />
    <glyph glyph-name="uni0407.ss02" horiz-adv-x="483" 
d="M500 1454l-310 -1454h-106l309 1454h107zM262 1720q0 37 25.5 62.5t62.5 25.5q30 0 50 -19.5t20 -49.5q0 -36 -26 -62t-62 -26q-30 0 -50 19.5t-20 49.5zM582 1720q0 35 26.5 61.5t61.5 26.5q31 0 50 -19t19 -50q0 -36 -26 -62t-62 -26q-29 0 -49 20t-20 49z" />
    <glyph glyph-name="uni0451.ss02" horiz-adv-x="1044" 
d="M934 492h-750q-10 -75 -10 -121q0 -145 70.5 -229.5t218.5 -84.5q188 0 375 213l69 -53q-205 -242 -444 -242q-184 0 -286.5 104t-102.5 283q-1 89 22 179.5t70.5 173.5t112 147.5t154 101.5t190.5 35q153 0 246.5 -87t93.5 -234q0 -112 -29 -186zM203 569h663q8 47 8 93
q0 117 -68.5 186.5t-191.5 69.5q-154 0 -259.5 -95t-151.5 -254zM467 1292q0 37 25.5 62.5t62.5 25.5q30 0 50 -19.5t20 -49.5q0 -36 -26 -62t-62 -26q-31 0 -50.5 19.5t-19.5 49.5zM786 1292q0 35 26.5 61.5t61.5 26.5q31 0 50.5 -19t19.5 -50q0 -36 -26 -62t-62 -26
q-29 0 -49.5 20t-20.5 49z" />
    <glyph glyph-name="uni0456.ss02" horiz-adv-x="421" 
d="M362 975l-204 -975h-99l205 975h98zM295 1290q0 37 25.5 63.5t62.5 26.5q32 0 52 -19t20 -48q0 -39 -25 -65.5t-63 -26.5q-32 0 -52 19.5t-20 49.5z" />
    <glyph glyph-name="uni0457.ss02" horiz-adv-x="421" 
d="M362 975l-204 -975h-99l205 975h98zM143 1292q0 37 25.5 62.5t62.5 25.5q30 0 50 -19.5t20 -49.5q0 -36 -26 -62t-62 -26q-31 0 -50.5 19.5t-19.5 49.5zM463 1292q0 35 26.5 61.5t61.5 26.5q31 0 50.5 -19t19.5 -50q0 -35 -26.5 -61.5t-62.5 -26.5q-29 0 -49 20t-20 49z
" />
    <glyph glyph-name="uni0458.ss02" horiz-adv-x="411" 
d="M-145 -313q37 2 62.5 12t43 24t31.5 45.5t23.5 63.5t23.5 92l221 1051h98l-231 -1094q-30 -148 -88.5 -213t-177.5 -65q-96 0 -180 32l30 74q77 -22 144 -22zM289 1290q0 37 25.5 63.5t62.5 26.5q32 0 52 -19t20 -48q0 -39 -25.5 -65.5t-63.5 -26.5q-32 0 -51.5 19.5
t-19.5 49.5z" />
    <glyph glyph-name="Iotadieresis.ss02" horiz-adv-x="483" 
d="M500 1454l-310 -1454h-106l309 1454h107zM262 1720q0 37 25.5 62.5t62.5 25.5q30 0 50 -19.5t20 -49.5q0 -36 -26 -62t-62 -26q-30 0 -50 19.5t-20 49.5zM582 1720q0 35 26.5 61.5t61.5 26.5q31 0 50 -19t19 -50q0 -36 -26 -62t-62 -26q-29 0 -49 20t-20 49z" />
    <glyph glyph-name="Upsilondieresis.ss02" horiz-adv-x="1245" 
d="M1274 1454h123l-695 -825l-131 -629h-106l135 631l-338 823h107l295 -735zM618 1720q0 37 26 62.5t63 25.5q30 0 49.5 -19.5t19.5 -49.5q0 -36 -26 -62t-62 -26q-30 0 -50 19.5t-20 49.5zM938 1720q0 35 26.5 61.5t61.5 26.5q31 0 50.5 -19t19.5 -50q0 -36 -26 -62
t-62 -26q-29 0 -49.5 20t-20.5 49z" />
    <glyph glyph-name="iotadieresis.ss02" horiz-adv-x="413" 
d="M154 0h-101l205 975h100zM139 1292q0 37 25.5 62.5t62.5 25.5q30 0 50 -19.5t20 -49.5q0 -36 -26 -62t-62 -26q-31 0 -50.5 19.5t-19.5 49.5zM459 1292q0 35 26.5 61.5t61.5 26.5q31 0 50 -19t19 -50q0 -36 -26 -62t-62 -26q-29 0 -49 20t-20 49z" />
    </font>
</defs>
</svg>
