<?xml version="1.0" standalone="no"?>
<!DOCTYPE svg PUBLIC "-//W3C//DTD SVG 1.1//EN" "http://www.w3.org/Graphics/SVG/1.1/DTD/svg11.dtd" >
<svg xmlns="http://www.w3.org/2000/svg" xmlns:xlink="http://www.w3.org/1999/xlink" version="1.1">
<metadata>
Created by FontForge 20170731 at Wed Sep  1 14:14:26 2021
 By Aleksey,,,
Copyright (c) 2015 by Letters from Sweden. All rights reserved. |DCNT
</metadata>
<defs>
<font id="LabGrotesque-LightItalic" horiz-adv-x="1208" >
  <font-face 
    font-family="Lab Grotesque"
    font-weight="300"
    font-style="italic"
    font-stretch="normal"
    units-per-em="2048"
    panose-1="0 0 5 0 0 0 0 0 0 0"
    ascent="1536"
    descent="-512"
    x-height="989"
    cap-height="1454"
    bbox="-797 -512 3568 1915"
    underline-thickness="120"
    underline-position="-448"
    unicode-range="U+0020-FB02"
  />
<missing-glyph horiz-adv-x="1185" 
d="M981 1659v-1864h-776v1864h776z" />
    <glyph glyph-name="fi" unicode="fi" horiz-adv-x="1089" 
d="M707 891h-254l-189 -891h-135l188 891h-198l20 98h199l43 199q31 147 111.5 221t205.5 74q77 0 172 -29l-41 -102q-65 18 -129 18q-75 0 -120.5 -51.5t-71.5 -169.5l-35 -160h254zM995 1401h135l-40 -193h-136zM698 0l209 989h135l-208 -989h-136z" />
    <glyph glyph-name="fl" unicode="fl" horiz-adv-x="1099" 
d="M707 891h-254l-189 -891h-135l188 891h-198l20 98h199l43 199q31 147 111.5 221t205.5 74q77 0 172 -29l-41 -102q-65 18 -129 18q-75 0 -120.5 -51.5t-71.5 -169.5l-35 -160h254zM1014 1454h135l-309 -1454h-135z" />
    <glyph glyph-name="f_f.liga" unicode="ff" horiz-adv-x="1308" 
d="M508 1149l-35 -160h217l-20 -98h-217l-189 -891h-135l188 891h-198l20 98h199l43 199q31 147 111.5 221t205.5 74q103 0 203 -41l-41 -99q-86 27 -151 27q-85 0 -130 -49.5t-71 -171.5zM1130 1149l-34 -160h254l-21 -98h-254l-188 -891h-135l188 891h-172l20 98h173
l43 199q31 145 112.5 220t206.5 75q106 0 199 -43l-39 -101q-82 31 -156 31q-80 0 -125.5 -50t-71.5 -171z" />
    <glyph glyph-name="f_f_i.liga" unicode="ffi" horiz-adv-x="1714" 
d="M508 1149l-35 -160h217l-20 -98h-217l-189 -891h-135l188 891h-198l20 98h199l43 199q31 147 111.5 221t205.5 74q103 0 203 -41l-41 -99q-86 27 -151 27q-85 0 -130 -49.5t-71 -171.5zM1329 891h-254l-188 -891h-135l188 891h-172l20 98h173l43 199q31 145 112.5 220
t206.5 75q77 0 172 -29l-41 -102q-64 18 -129 18q-79 0 -124 -50.5t-71 -170.5l-34 -160h254zM1620 1401h135l-41 -193h-135zM1323 0l209 989h135l-209 -989h-135z" />
    <glyph glyph-name="f_f_j.liga" unicode="ffj" horiz-adv-x="1710" 
d="M508 1149l-35 -160h217l-20 -98h-217l-189 -891h-135l188 891h-198l20 98h199l43 199q31 147 111.5 221t205.5 74q103 0 203 -41l-41 -99q-86 27 -151 27q-85 0 -130 -49.5t-71 -171.5zM1329 891h-254l-188 -891h-135l188 891h-172l20 98h173l43 199q31 145 112.5 220
t206.5 75q77 0 172 -29l-41 -102q-64 18 -129 18q-79 0 -124 -50.5t-71 -170.5l-34 -160h254zM1620 1401h135l-41 -193h-135zM1309 -70l223 1059h135l-231 -1095q-32 -153 -98.5 -222t-194.5 -69q-100 0 -187 32l39 101q77 -21 138 -21q79 0 113.5 46t62.5 169z" />
    <glyph glyph-name="f_j.liga" unicode="fj" horiz-adv-x="1085" 
d="M707 891h-254l-189 -891h-135l188 891h-198l20 98h199l43 199q31 147 111.5 221t205.5 74q77 0 172 -29l-41 -102q-65 18 -129 18q-75 0 -120.5 -51.5t-71.5 -169.5l-35 -160h254zM995 1401h135l-40 -193h-136zM684 -70l223 1059h135l-231 -1095q-32 -153 -98 -222
t-193 -69q-99 0 -186 32l39 101q77 -21 137 -21q77 0 112 46.5t62 168.5z" />
    <glyph glyph-name=".notdef" horiz-adv-x="1185" 
d="M981 1659v-1864h-776v1864h776z" />
    <glyph glyph-name=".null" horiz-adv-x="0" 
 />
    <glyph glyph-name="nonmarkingreturn" horiz-adv-x="682" 
 />
    <glyph glyph-name="space" unicode=" " horiz-adv-x="471" 
 />
    <glyph glyph-name="exclam" unicode="!" horiz-adv-x="536" 
d="M557 1454l-94 -436l-166 -627h-84l106 629l93 434h145zM299 188l-39 -188h-172l39 188h172z" />
    <glyph glyph-name="quotedbl" unicode="&#x22;" horiz-adv-x="706" 
d="M457 1454l-111 -438h-96l78 438h129zM791 1454l-111 -438h-96l78 438h129z" />
    <glyph glyph-name="numbersign" unicode="#" 
d="M1171 903h-215l-86 -409h213l-22 -103h-213l-82 -391h-119l82 391h-342l-82 -391h-119l82 391h-217l23 103h217l86 409h-215l22 103h215l82 387h119l-82 -387h342l82 387h119l-82 -387h215zM752 494l86 409h-342l-86 -409h342z" />
    <glyph glyph-name="dollar" unicode="$" horiz-adv-x="1249" 
d="M856 1303l-111 -527q185 -68 271 -151.5t86 -200.5q0 -89 -34 -170t-97.5 -145t-163.5 -102t-223 -38h-11l-36 -174h-107l39 182q-119 17 -218 72t-214 162l88 86q104 -97 192 -145t177 -60l124 594q-195 73 -276.5 147t-81.5 185q0 172 140.5 289.5t371.5 117.5h4
l37 172h107l-39 -180q107 -17 193.5 -64.5t174.5 -133.5l-86 -84q-154 143 -307 168zM645 811l107 500q-149 -3 -258 -82q-105 -77 -105 -201q0 -70 59 -118t197 -99zM719 651l-121 -565q171 3 272 99.5t101 228.5q0 87 -58.5 139t-193.5 98z" />
    <glyph glyph-name="percent" unicode="%" horiz-adv-x="1736" 
d="M1509 1421l78 -63l-1278 -1387l-73 66zM1587 356q0 -55 -13 -108.5t-41 -102t-66.5 -85t-93 -58.5t-118.5 -22q-117 0 -191.5 73.5t-74.5 194.5q0 65 22 129.5t63 118t107 87t146 33.5q113 0 186.5 -72.5t73.5 -187.5zM1102 258q0 -86 42.5 -135t117.5 -49
q68 0 118.5 44.5t72.5 106t22 127.5q0 172 -160 172q-68 0 -118.5 -44t-72.5 -103t-22 -119zM799 1153q0 -69 -21.5 -135t-61.5 -120.5t-105 -88t-144 -33.5q-117 0 -191.5 73.5t-74.5 194.5q0 65 22 129.5t63 118.5t107 87.5t146 33.5q113 0 186.5 -72.5t73.5 -187.5z
M313 1055q0 -86 42.5 -135.5t117.5 -49.5q68 0 118.5 44.5t72.5 106.5t22 128q0 172 -160 172q-68 0 -118.5 -44t-72.5 -103t-22 -119z" />
    <glyph glyph-name="ampersand" unicode="&#x26;" horiz-adv-x="1406" 
d="M1356 614l-305 -311l174 -303h-150l-119 209q-134 -126 -245.5 -182t-243.5 -56q-92 0 -169.5 29t-128 76t-78.5 106.5t-28 122.5q2 89 24.5 153.5t82 130.5t158 128.5t258.5 142.5q-51 91 -71.5 152.5t-20.5 136.5q0 59 22.5 115t65.5 103.5t114.5 76.5t159.5 29
q129 0 210 -69.5t81 -178.5q0 -59 -15 -105.5t-55.5 -97.5t-117 -103t-195.5 -112l223 -393l281 284zM621 1153q0 -59 19 -110t67 -136q101 47 165 88t95.5 79.5t42 71.5t10.5 77q0 67 -47 106t-125 39q-105 0 -166 -66t-61 -149zM893 319l-250 441q-144 -73 -226.5 -124
t-131.5 -103t-65 -99.5t-19 -120.5q0 -89 77 -158t187 -69q108 0 204.5 54.5t223.5 178.5z" />
    <glyph glyph-name="quotesingle" unicode="'" horiz-adv-x="374" 
d="M457 1454l-111 -438h-96l78 438h129z" />
    <glyph glyph-name="parenleft" unicode="(" horiz-adv-x="684" 
d="M772 1604l68 -93q-564 -430 -564 -1075q0 -338 195 -710l-102 -58q-230 390 -230 754q0 730 633 1182z" />
    <glyph glyph-name="parenright" unicode=")" horiz-adv-x="684" 
d="M-43 -332l-68 92q288 219 431 493.5t143 586.5q0 176 -49 346t-148 358l103 60q229 -383 229 -750q0 -730 -641 -1186z" />
    <glyph glyph-name="asterisk" unicode="*" horiz-adv-x="890" 
d="M631 1454v-283l266 89l29 -84l-273 -86l178 -232l-73 -55l-178 233l-172 -229l-76 57l178 226l-270 88l28 84l264 -91v283h99z" />
    <glyph glyph-name="plus" unicode="+" horiz-adv-x="1228" 
d="M674 1167v-475h473v-114h-473v-476h-119v476h-473v114h473v475h119z" />
    <glyph glyph-name="comma" unicode="," horiz-adv-x="417" 
d="M242 188l-39 -188l-162 -236h-88l151 236h-86l39 188h185z" />
    <glyph glyph-name="hyphen" unicode="-" horiz-adv-x="823" 
d="M733 647l-26 -121h-578l27 121h577z" />
    <glyph glyph-name="period" unicode="." horiz-adv-x="417" 
d="M229 188l-39 -188h-172l39 188h172z" />
    <glyph glyph-name="slash" unicode="/" horiz-adv-x="868" 
d="M1022 1454l-934 -1454h-141l934 1454h141z" />
    <glyph glyph-name="zero" unicode="0" 
d="M1184 946q0 -178 -66 -414q-63 -223 -215 -395q-149 -168 -383 -168q-202 0 -304.5 126t-102.5 349q0 185 67 414q70 228 219 397q149 168 377 168q204 0 306 -126.5t102 -350.5zM250 444q0 -169 68.5 -262.5t207.5 -93.5q174 0 291 150q116 149 172 352q58 204 58 358
q0 170 -68 263.5t-207 93.5q-172 0 -293 -148q-114 -144 -174 -350q-55 -198 -55 -363z" />
    <glyph glyph-name="one" unicode="1" horiz-adv-x="942" 
d="M705 1393h100l-295 -1393h-137l256 1206l-359 -223l-55 98z" />
    <glyph glyph-name="two" unicode="2" horiz-adv-x="1150" 
d="M158 119h823l-27 -119h-962l14 68q27 140 98 235q73 97 166 164q94 67 258 156l64 34q196 107 266 154q89 60 132.5 127.5t43.5 157.5q0 97 -72 153t-184 56q-130 0 -233 -62q-101 -58 -234 -194l-94 79q139 154 270.5 224.5t294.5 70.5q174 0 283 -90.5t109 -236.5
q0 -128 -62 -217q-56 -85 -168 -158q-118 -77 -354 -205q-149 -81 -213 -125q-168 -111 -219 -272z" />
    <glyph glyph-name="three" unicode="3" horiz-adv-x="1173" 
d="M1204 1393l-24 -117l-566 -455q6 2 27 2q177 0 291.5 -98.5t114.5 -257.5q0 -71 -20 -141t-63 -135t-104 -114t-149.5 -78.5t-192.5 -29.5q-141 0 -264.5 45.5t-245.5 135.5l84 96q120 -84 218 -121t208 -37q93 0 168.5 31.5t123.5 84t73.5 118t25.5 137.5q0 124 -80 191
t-237 67q-102 0 -164 -27l-47 82l623 502h-699l25 119h874z" />
    <glyph glyph-name="four" unicode="4" horiz-adv-x="1183" 
d="M915 453h215l-22 -117h-217l-72 -336h-135l72 336h-721l24 121l795 936h162l-799 -940h561l72 331h135z" />
    <glyph glyph-name="five" unicode="5" 
d="M1196 1274h-676l-141 -475q128 88 301 88t289 -107t116 -272q1 -76 -19 -151.5t-63.5 -147t-106 -125t-155 -85.5t-202.5 -30q-138 0 -258 46t-256 143l86 96q121 -91 221 -128.5t217 -37.5q78 0 145 24t113 65t79 94.5t48.5 112t15.5 118.5q0 123 -80.5 196.5
t-218.5 73.5q-172 0 -321 -119l-115 15l215 725h791z" />
    <glyph glyph-name="six" unicode="6" 
d="M1102 532q1 -75 -19.5 -153t-65.5 -153t-107.5 -133t-154 -92t-196.5 -32q-194 0 -314 113.5t-120 282.5q0 244 141 464q145 222 453 463l129 101h201v-2l-256 -197q-265 -206 -392 -387q118 100 304 100q178 0 287.5 -109t109.5 -266zM967 522q0 124 -78.5 196.5
t-212.5 72.5q-103 0 -184.5 -34.5t-131.5 -93.5t-76 -133.5t-26 -158.5q0 -125 83.5 -204t221.5 -79q77 -2 144.5 24.5t114.5 71t80.5 102t49.5 118t15 118.5z" />
    <glyph glyph-name="seven" unicode="7" horiz-adv-x="1079" 
d="M240 1393h981l-21 -99q-260 -222 -511 -594t-345 -700h-151q96 332 327 678q229 346 496 598h-801z" />
    <glyph glyph-name="eight" unicode="8" 
d="M1102 432q1 -66 -17.5 -130t-61 -125.5t-104.5 -108t-155.5 -74t-206.5 -25.5q-213 0 -344 105.5t-131 261.5q0 140 86 264q87 121 276 168q-153 88 -153 252q0 56 17 111.5t55.5 108.5t93 93.5t136 65t179.5 24.5q169 0 283 -89.5t114 -227.5q0 -122 -73 -222t-209 -143
q101 -45 158 -126t57 -183zM420 1026q0 -94 75 -156.5t191 -62.5q165 0 259.5 83t94.5 212q0 95 -74 151t-206 56q-150 0 -245 -78t-95 -205zM967 432q0 116 -91.5 189t-242.5 73q-105 0 -187 -30t-130.5 -80t-73.5 -110.5t-25 -127.5q0 -113 96.5 -185.5t264.5 -72.5
q96 0 172.5 28.5t122.5 77.5t70 109.5t24 128.5z" />
    <glyph glyph-name="nine" unicode="9" 
d="M1169 1028q0 -244 -142 -465t-454 -463l-127 -100h-200v2l254 197q264 202 393 385q-123 -99 -303 -99q-178 0 -287.5 108.5t-109.5 266.5q-1 75 19.5 153t65 153t107.5 133t154 92t196 32q194 0 314 -113t120 -282zM618 602q103 0 184.5 34.5t131.5 93.5t76 133.5
t26 158.5q0 125 -83.5 204t-221.5 79q-96 2 -175.5 -38.5t-128 -106t-74.5 -141.5t-25 -149q0 -127 77.5 -197.5t212.5 -70.5z" />
    <glyph glyph-name="colon" unicode=":" horiz-adv-x="499" 
d="M449 989l-39 -186h-172l38 186h173zM279 188l-39 -188h-172l38 188h173z" />
    <glyph glyph-name="semicolon" unicode=";" horiz-adv-x="499" 
d="M291 188l-39 -188l-162 -236h-88l152 236h-86l38 188h185zM453 991l-39 -188h-172l39 188h172z" />
    <glyph glyph-name="less" unicode="&#x3c;" horiz-adv-x="1228" 
d="M1106 1073v-131l-834 -307l834 -307v-131l-983 368v140z" />
    <glyph glyph-name="equal" unicode="=" horiz-adv-x="1228" 
d="M1147 897v-115h-1065v115h1065zM1147 487v-114h-1065v114h1065z" />
    <glyph glyph-name="greater" unicode="&#x3e;" horiz-adv-x="1228" 
d="M123 1073l983 -368v-140l-983 -368v131l833 307l-833 307v131z" />
    <glyph glyph-name="question" unicode="?" horiz-adv-x="989" 
d="M1085 1186q0 -91 -34 -158q-39 -74 -90 -119q-54 -51 -173 -141l-69 -53q-108 -83 -150 -133q-41 -46 -69 -133l-21 -68h-108l18 84q21 89 43.5 136.5t65 91t137.5 114.5q172 130 190 145q123 105 123 226q0 85 -64.5 133.5t-176.5 48.5q-204 0 -414 -174l-72 100
q248 199 500 199q161 0 262.5 -78t101.5 -221zM473 188l-39 -188h-172l39 188h172z" />
    <glyph glyph-name="at" unicode="@" horiz-adv-x="1914" 
d="M1827 680q1 -84 -14.5 -173t-50 -177t-84 -156t-123.5 -109t-162 -38q-127 0 -176 67q-50 68 -50 152q-139 -219 -352 -219q-136 0 -213.5 81t-77.5 226q-1 84 21.5 171.5t66 165t102 139t135.5 96t159 32.5q110 0 173 -50t74 -138l35 172h115l-113 -535
q-22 -93 -22 -137q0 -127 125 -127q78 -3 142 50t102 137t58 177.5t19 180.5q0 147 -50.5 263t-139.5 190t-206.5 112.5t-254.5 38.5q-294 0 -487 -152t-277 -360q-84 -215 -84 -398q0 -314 190 -485.5t558 -171.5h405l-20 -94h-389q-420 0 -639 201q-218 200 -218 546
q0 210 97 447q93 231 311 397q217 166 557 166q222 0 393.5 -83t268 -239.5t96.5 -365.5zM1200 629q0 106 -44 157.5t-144 51.5q-75 3 -145 -42t-117 -116.5t-74.5 -160.5t-26.5 -173q0 -107 47 -161t135 -54q69 -3 131 31t104.5 89.5t73.5 123.5t46 134t14 120z" />
    <glyph glyph-name="A" unicode="A" horiz-adv-x="1333" 
d="M1047 0l-60 408h-661l-234 -408h-155l839 1454h189l221 -1454h-139zM395 530h574l-31 203l-29 193l-26 180q-23 154 -31 242q-117 -225 -342 -617z" />
    <glyph glyph-name="B" unicode="B" horiz-adv-x="1368" 
d="M1257 459q0 -73 -20.5 -140t-63 -125t-103 -101.5t-146 -68t-185.5 -24.5h-663l309 1454h576q172 0 277 -88t105 -236q0 -134 -78 -235.5t-212 -138.5q91 -33 147.5 -111.5t56.5 -185.5zM504 1333l-109 -510h428q194 0 287.5 81.5t93.5 223.5q0 99 -70 152t-200 53h-430z
M1114 461q0 117 -78 180.5t-225 63.5h-440l-125 -584h452q224 0 320 96q96 101 96 244z" />
    <glyph glyph-name="C" unicode="C" horiz-adv-x="1374" 
d="M1421 1249l-100 -80q-88 100 -177.5 145.5t-201.5 45.5q-124 3 -233 -45.5t-186 -130.5t-132.5 -187t-82 -217.5t-25.5 -220.5q0 -215 112.5 -339t309.5 -124q127 0 233 56q105 54 244 178l88 -90q-265 -271 -559 -271q-271 0 -422.5 160t-151.5 416q0 205 84 426
q85 216 271 364q184 150 460 150q285 0 469 -236z" />
    <glyph glyph-name="D" unicode="D" horiz-adv-x="1429" 
d="M1389 901q0 -213 -80 -420q-77 -206 -252 -344q-174 -137 -441 -137h-540l309 1454h436q264 0 416 -153t152 -400zM795 1333h-291l-258 -1212h348q133 -2 244.5 45t185 125.5t124.5 181t73.5 208.5t21.5 210q0 214 -112.5 328t-335.5 114z" />
    <glyph glyph-name="E" unicode="E" horiz-adv-x="1236" 
d="M1327 1454l-27 -121h-796l-113 -526h742l-27 -119h-739l-121 -567h815l-27 -121h-958l309 1454h942z" />
    <glyph glyph-name="F" unicode="F" horiz-adv-x="1212" 
d="M1327 1454l-27 -121h-796l-117 -553h741l-28 -121h-740l-139 -659h-145l309 1454h942z" />
    <glyph glyph-name="G" unicode="G" horiz-adv-x="1521" 
d="M778 621l25 120h624l-155 -741h-115l29 207q-85 -119 -209 -177.5t-270 -58.5q-176 0 -306.5 78.5t-196 208.5t-65.5 293q-1 108 20.5 217.5t64.5 215.5t112.5 197t158 159.5t209 106.5t257.5 36q334 0 552 -277l-106 -82q-108 126 -212 180t-247 54q-126 3 -236 -44.5
t-187 -128t-132 -185t-81 -216.5t-25 -221q0 -214 113 -339.5t325 -125.5q117 0 225.5 53.5t190.5 159t110 242.5l15 68h-488z" />
    <glyph glyph-name="H" unicode="H" horiz-adv-x="1490" 
d="M1516 1454l-310 -1454h-145l145 690h-839l-146 -690h-145l309 1454h145l-137 -643h842l135 643h146z" />
    <glyph glyph-name="I" unicode="I" horiz-adv-x="534" 
d="M545 1454l-309 -1454h-146l309 1454h146z" />
    <glyph glyph-name="J" unicode="J" horiz-adv-x="942" 
d="M975 1454l-232 -1087q-43 -200 -143 -295t-272 -95q-196 0 -375 105l65 108q158 -88 301 -88q117 0 185 69t100 224l225 1059h146z" />
    <glyph glyph-name="K" unicode="K" horiz-adv-x="1320" 
d="M1454 1454l-680 -571l416 -883h-152l-372 791l-336 -281l-109 -510h-145l309 1454h145l-159 -754l891 754h192z" />
    <glyph glyph-name="L" unicode="L" horiz-adv-x="1075" 
d="M530 1454l-284 -1333h696l-27 -121h-839l309 1454h145z" />
    <glyph glyph-name="M" unicode="M" horiz-adv-x="1751" 
d="M1530 1454h246l-310 -1454h-141l152 721l139 633q-36 -65 -116 -203t-116 -201l-133 -229l-415 -721h-129l-117 723q-39 234 -94 631q-89 -451 -131 -635l-152 -719h-137l309 1454h225l105 -661q69 -442 86 -621q136 262 346 621z" />
    <glyph glyph-name="N" unicode="N" horiz-adv-x="1495" 
d="M1378 1454h142l-310 -1454h-161l-312 696q-132 290 -256 586q-61 -344 -112 -559l-152 -723h-141l309 1454h162l309 -694q141 -312 256 -594q48 262 113 563z" />
    <glyph glyph-name="O" unicode="O" horiz-adv-x="1527" 
d="M1487 893q0 -208 -86 -424q-85 -211 -262 -356q-175 -144 -432 -144q-265 0 -416.5 158.5t-151.5 435.5q-1 124 30.5 253t97.5 250.5t158 216t222.5 150t278.5 52.5q263 0 411 -160q150 -159 150 -432zM285 565q0 -223 113.5 -347t308.5 -124q100 -2 190 31t158.5 92
t124 137.5t90.5 168.5t53.5 184t17.5 184q0 221 -110 345t-307 124q-118 3 -223 -44t-180.5 -128.5t-130 -185.5t-81 -216.5t-24.5 -220.5z" />
    <glyph glyph-name="P" unicode="P" horiz-adv-x="1316" 
d="M1362 1096q0 -95 -33 -181t-97 -156.5t-170 -112.5t-239 -42h-473l-129 -604h-145l309 1454h580q181 0 289 -96.5t108 -261.5zM932 1333h-428l-129 -608h416q227 0 329 102q101 104 101 265q0 117 -75.5 179t-213.5 62z" />
    <glyph glyph-name="Q" unicode="Q" horiz-adv-x="1527" 
d="M1126 102l91 -168l-107 -59l-90 164q-143 -70 -313 -70q-265 0 -416.5 159t-151.5 435q-1 124 30.5 253t97.5 250.5t158 216t222.5 150t278.5 52.5q261 0 411 -160.5t150 -431.5q0 -219 -94 -438q-92 -221 -267 -353zM958 154l-145 268l109 61l139 -260q137 116 207 299
q73 183 73 369q0 221 -109.5 345t-305.5 124q-118 3 -223 -44t-180.5 -128.5t-130.5 -185.5t-81.5 -216.5t-25.5 -220.5q0 -223 113 -347t307 -124q130 0 253 60z" />
    <glyph glyph-name="R" unicode="R" horiz-adv-x="1359" 
d="M874 606l295 -606h-153l-291 604h-375l-129 -604h-145l309 1454h561q181 0 291 -98q111 -99 111 -262q0 -88 -29 -169t-85.5 -149.5t-149.5 -113.5t-210 -56zM1206 1092q0 117 -77.5 179t-215.5 62h-409l-129 -608h401q218 0 324 99t106 268z" />
    <glyph glyph-name="S" unicode="S" horiz-adv-x="1286" 
d="M1290 1257l-92 -98q-104 104 -208.5 152.5t-231.5 48.5q-160 0 -271.5 -85.5t-111.5 -211.5q0 -69 39 -111q42 -42 110 -71q81 -33 226 -78q165 -51 255 -104.5t126 -119t36 -163.5q0 -84 -35.5 -163.5t-100 -143t-166.5 -102t-224 -38.5q-166 0 -306.5 60t-289.5 184
l86 102q148 -119 267.5 -170t248.5 -51q169 0 274 92.5t105 227.5q-3 40 -11 69.5t-28 54.5t-43 42.5t-69 38t-91 36t-122 39.5q-130 41 -205.5 73t-128 74t-72.5 91t-23 123q0 83 38 160t105.5 136.5t168.5 95.5t219 36q156 0 283 -56.5t243 -169.5z" />
    <glyph glyph-name="T" unicode="T" horiz-adv-x="1220" 
d="M1356 1454l-27 -121h-469l-280 -1333h-148l283 1333h-467l26 121h1082z" />
    <glyph glyph-name="U" unicode="U" horiz-adv-x="1406" 
d="M1442 1454l-215 -1003q-52 -239 -197 -359.5t-399 -120.5q-236 0 -356.5 93.5t-120.5 271.5q0 51 16 139l209 979h145l-213 -993q-12 -55 -12 -105q0 -128 87 -194t253 -66q187 0 296 91.5t148 273.5l211 993h148z" />
    <glyph glyph-name="V" unicode="V" horiz-adv-x="1277" 
d="M1276 1454h156l-809 -1454h-187l-190 1454h143l94 -731q55 -426 70 -600q96 192 317 598z" />
    <glyph glyph-name="W" unicode="W" horiz-adv-x="1902" 
d="M1876 1454h149l-659 -1454h-184l-45 717q-20 340 -23 559q-111 -246 -262 -561l-346 -715h-189l-41 1454h140l16 -733q6 -221 6 -440v-148q104 234 275 586l360 735h152l41 -733q21 -396 24 -586q209 486 254 586z" />
    <glyph glyph-name="X" unicode="X" horiz-adv-x="1267" 
d="M1384 1454l-614 -698l354 -756h-149l-309 659l-576 -659h-170l680 774l-321 680h149l274 -588l515 588h167z" />
    <glyph glyph-name="Y" unicode="Y" horiz-adv-x="1249" 
d="M1237 1454h170l-694 -829l-131 -625h-146l133 627l-336 827h148l278 -702z" />
    <glyph glyph-name="Z" unicode="Z" horiz-adv-x="1257" 
d="M1380 1454l-24 -113l-1170 -1220h908l-27 -121h-1090l23 113l1167 1220h-864l27 121h1050z" />
    <glyph glyph-name="bracketleft" unicode="[" horiz-adv-x="649" 
d="M791 1540l-23 -100h-229l-344 -1618h229l-21 -98h-362l387 1816h363z" />
    <glyph glyph-name="backslash" unicode="\" horiz-adv-x="827" 
d="M381 1454l291 -1454h-125l-291 1454h125z" />
    <glyph glyph-name="bracketright" unicode="]" horiz-adv-x="649" 
d="M305 1540h363l-387 -1816h-363l21 98h229l344 1618h-229z" />
    <glyph glyph-name="asciicircum" unicode="^" 
d="M676 1454l407 -881h-129l-350 760l-350 -760h-129l410 881h141z" />
    <glyph glyph-name="underscore" unicode="_" horiz-adv-x="1228" 
d="M1071 -295v-94h-1249v94h1249z" />
    <glyph glyph-name="grave" unicode="`" horiz-adv-x="538" 
d="M322 1434h143l90 -287h-106z" />
    <glyph glyph-name="a" unicode="a" horiz-adv-x="1122" 
d="M938 989h127l-211 -989h-123l39 184q-139 -207 -358 -207q-165 0 -253.5 96.5t-88.5 268.5q-1 91 21 185.5t67.5 182.5t109 156.5t152 108.5t188.5 37q116 0 192 -50.5t103 -140.5zM844 649q0 121 -56.5 186.5t-171.5 65.5q-94 3 -175 -49.5t-131.5 -135.5t-78.5 -178.5
t-26 -183.5q0 -264 223 -264q111 -5 209.5 81.5t153.5 217.5t53 260z" />
    <glyph glyph-name="b" unicode="b" horiz-adv-x="1124" 
d="M1055 649q1 -92 -20.5 -187t-66.5 -183t-108 -156t-152 -108t-190 -38q-119 0 -197 53t-110 148l-37 -178h-127l309 1454h136l-136 -631q145 189 363 189q159 0 247.5 -97t88.5 -266zM920 637q0 135 -54.5 199.5t-169.5 64.5q-88 4 -170.5 -46.5t-139 -131.5t-90 -182
t-32.5 -197q0 -116 67 -185t179 -69q97 -3 178 48.5t130.5 134t76 178t25.5 186.5z" />
    <glyph glyph-name="c" unicode="c" horiz-adv-x="978" 
d="M610 905q-75 2 -142 -31.5t-114.5 -90t-82 -126.5t-51 -142t-15.5 -136q0 -139 64.5 -215t189.5 -76q82 0 163.5 41t178.5 137l86 -84q-209 -209 -434 -209q-180 0 -282.5 106.5t-102.5 291.5q-1 85 21 175t68.5 175t111 151.5t155 106t192.5 37.5q122 0 208.5 -48.5
t150.5 -148.5l-103 -71q-60 87 -118 122t-144 35z" />
    <glyph glyph-name="d" unicode="d" horiz-adv-x="1116" 
d="M1034 1454h135l-309 -1454h-123l43 203q-146 -226 -374 -226q-165 0 -254 96.5t-89 268.5q-1 91 21 185.5t68 182.5t109 156.5t152 108.5t189 37q116 0 192 -47.5t107 -135.5zM850 645q0 121 -59.5 188.5t-174.5 67.5q-77 3 -145.5 -31t-117 -92t-84.5 -130.5
t-53.5 -148.5t-16.5 -145q0 -135 54 -199.5t169 -64.5q113 -4 214.5 81.5t158.5 215t55 258.5z" />
    <glyph glyph-name="e" unicode="e" horiz-adv-x="1067" 
d="M958 483h-747q-8 -41 -8 -102q0 -137 67 -216t207 -79q90 0 177 47t186 158l92 -76q-211 -242 -461 -242q-189 0 -296 109t-107 295q-1 88 22 178.5t71 174.5t114 149t158.5 102.5t197.5 34.5q161 0 259.5 -91.5t98.5 -242.5q0 -108 -31 -199zM236 586h624q6 37 6 82
q0 110 -63 173.5t-178 63.5q-141 0 -242 -87t-147 -232z" />
    <glyph glyph-name="f" unicode="f" horiz-adv-x="686" 
d="M508 1149l-35 -160h254l-20 -98h-254l-189 -891h-135l188 891h-198l20 98h199l43 199q31 147 111.5 221t205.5 74q109 0 199 -43l-39 -101q-82 31 -156 31q-80 0 -124 -50t-70 -171z" />
    <glyph glyph-name="g" unicode="g" horiz-adv-x="1107" 
d="M932 989h127l-209 -983q-43 -199 -153 -297t-300 -98q-210 0 -417 151l73 95q96 -69 177.5 -101t170.5 -32q254 0 318 292l37 172q-138 -182 -346 -182q-157 0 -250.5 100t-93.5 265q-1 83 20.5 172.5t66 174t106 151t147.5 106t182 37.5q240 0 305 -203zM840 641
q0 124 -63 192t-181 68q-74 3 -139.5 -29t-111.5 -85.5t-80 -121.5t-49.5 -139t-14.5 -135q0 -272 227 -272q74 -2 141 30t116 87t85 124t53.5 142t16.5 139z" />
    <glyph glyph-name="h" unicode="h" horiz-adv-x="1095" 
d="M999 764q0 -51 -16 -133l-133 -631h-135l133 633q12 61 12 112q0 82 -46.5 121t-143.5 39q-129 0 -232.5 -92.5t-134.5 -251.5l-119 -561h-135l307 1454h136l-127 -600q122 162 331 162q144 0 223.5 -70t79.5 -182z" />
    <glyph glyph-name="i" unicode="i" horiz-adv-x="438" 
d="M391 989l-209 -989h-135l209 989h135zM479 1401l-41 -193h-135l41 193h135z" />
    <glyph glyph-name="j" unicode="j" horiz-adv-x="432" 
d="M-145 -285q79 0 113.5 46t62.5 169l223 1059h135l-231 -1095q-32 -153 -98.5 -222t-194.5 -69q-100 0 -187 32l39 101q77 -21 138 -21zM475 1401l-41 -193h-135l41 193h135z" />
    <glyph glyph-name="k" unicode="k" horiz-adv-x="983" 
d="M1024 989l-430 -379l285 -610h-138l-247 530l-242 -206l-70 -324h-135l309 1454h136l-205 -967l565 502h172z" />
    <glyph glyph-name="l" unicode="l" horiz-adv-x="446" 
d="M496 1454l-310 -1454h-135l309 1454h136z" />
    <glyph glyph-name="m" unicode="m" horiz-adv-x="1634" 
d="M1540 770q0 -21 -16 -127l-135 -643h-136l136 651q9 27 12 92q-2 81 -44 120.5t-132 39.5q-113 0 -200 -90.5t-122 -253.5l-119 -559h-135l129 627q17 87 17 127q0 149 -172 149q-114 0 -200 -88t-122 -254l-119 -561h-135l209 989h127l-27 -129q114 156 306 156
q108 0 174 -52.5t77 -140.5q132 193 340 193q134 0 210.5 -67.5t76.5 -178.5z" />
    <glyph glyph-name="n" unicode="n" horiz-adv-x="1095" 
d="M997 764q0 -70 -14 -133l-135 -631h-135l133 633q12 61 12 112q0 160 -190 160q-129 0 -232.5 -92.5t-134.5 -251.5l-119 -561h-135l209 989h127l-33 -149q123 176 344 176q144 0 223.5 -70t79.5 -182z" />
    <glyph glyph-name="o" unicode="o" horiz-adv-x="1085" 
d="M1010 610q1 -82 -19.5 -170t-65.5 -172.5t-107.5 -151t-154 -106t-196.5 -37.5q-186 0 -291.5 109t-105.5 301q-1 80 19.5 166.5t65.5 171t108 151t155 106.5t198 38q183 0 288.5 -108t105.5 -298zM205 383q0 -139 69.5 -218t192.5 -79q75 -2 142 29.5t115 86t83 123.5
t51.5 142.5t15.5 142.5q0 143 -67.5 219t-194.5 76q-74 2 -141 -30t-114.5 -86.5t-83 -123t-52.5 -141.5t-16 -141z" />
    <glyph glyph-name="p" unicode="p" horiz-adv-x="1122" 
d="M1053 649q1 -92 -20.5 -187t-66.5 -183t-108 -156t-152 -108t-190 -38q-115 0 -191.5 48.5t-109.5 136.5l-113 -531h-135l289 1358h127l-39 -180q146 203 373 203q159 0 247.5 -97t88.5 -266zM918 637q0 135 -54.5 199.5t-169.5 64.5q-88 4 -170.5 -46.5t-139 -131.5
t-90 -182t-32.5 -197q0 -116 67 -185t179 -69q97 -3 178 48.5t130.5 134t76 178t25.5 186.5z" />
    <glyph glyph-name="q" unicode="q" horiz-adv-x="1120" 
d="M946 989h127l-289 -1358h-135l117 551q-140 -205 -360 -205q-165 0 -254 96.5t-89 268.5q-1 91 21 185.5t68 182.5t109 156.5t152 108.5t189 37q122 0 200 -54.5t105 -150.5zM850 645q0 120 -62 188t-178 68q-94 3 -175 -49.5t-131.5 -135.5t-78.5 -178.5t-26 -183.5
q0 -135 54 -199.5t169 -64.5q113 -4 214.5 81.5t158.5 215t55 258.5z" />
    <glyph glyph-name="r" unicode="r" horiz-adv-x="708" 
d="M780 963l-47 -109q-67 27 -127 27q-111 0 -194 -93t-119 -264l-111 -524h-135l209 989h127l-31 -151q47 75 118.5 118t150.5 43q74 0 159 -36z" />
    <glyph glyph-name="s" unicode="s" horiz-adv-x="946" 
d="M897 854l-82 -88q-149 143 -313 143q-102 0 -171 -51.5t-69 -122.5q2 -21 7 -36t10 -27t21.5 -23t28.5 -18.5t44 -18.5t54.5 -18.5t72.5 -22.5q83 -27 127.5 -43.5t88 -39.5t63.5 -48.5t33 -61t17 -85.5q0 -138 -107 -229t-294 -91q-119 0 -218.5 45.5t-201.5 139.5
l82 88q96 -84 175.5 -123t172.5 -39q120 0 190 56t70 145q0 54 -32 82q-30 29 -77 47.5t-163 52.5q-119 35 -184 72t-88 78t-23 102q0 122 106 209.5t273 87.5q216 0 387 -162z" />
    <glyph glyph-name="t" unicode="t" horiz-adv-x="698" 
d="M444 891l-131 -619q-12 -52 -12 -90q0 -45 24.5 -66.5t80.5 -21.5q61 0 153 29l14 -107q-80 -36 -190 -36q-113 0 -166 44t-53 140q0 41 14 112l131 615h-190l20 98h191l73 344h136l-74 -344h272l-20 -98h-273z" />
    <glyph glyph-name="u" unicode="u" horiz-adv-x="1081" 
d="M889 989h135l-209 -989h-127l33 154q-60 -88 -149 -134.5t-183 -46.5q-144 0 -220.5 69t-76.5 187q0 66 14 129l134 631h135l-133 -631q-13 -70 -13 -112q0 -156 177 -156q131 0 232 95.5t138 269.5z" />
    <glyph glyph-name="v" unicode="v" horiz-adv-x="956" 
d="M868 989h144l-557 -989h-181l-133 989h133l50 -383q41 -310 61 -508q105 209 268 506z" />
    <glyph glyph-name="w" unicode="w" horiz-adv-x="1460" 
d="M1364 991h137l-493 -991h-166l-25 346q-25 347 -29 483q-28 -63 -176 -368l-59 -121l-166 -340h-172l-63 991h131l22 -391q15 -263 21 -487q91 198 233 485l195 393h129l30 -393q25 -335 27 -492q151 336 229 488z" />
    <glyph glyph-name="x" unicode="x" horiz-adv-x="942" 
d="M993 989l-432 -473l246 -516h-139l-201 430l-383 -430h-158l480 524l-228 465h139l181 -379l338 379h157z" />
    <glyph glyph-name="y" unicode="y" horiz-adv-x="952" 
d="M868 989h140l-633 -1147q-76 -139 -135.5 -186t-180.5 -51q-76 0 -135 20l35 105q54 -13 92 -13q69 0 113.5 37t101.5 142l25 43l-150 1050h131l47 -346l19 -131q30 -222 51 -410q155 300 279 525z" />
    <glyph glyph-name="z" unicode="z" horiz-adv-x="958" 
d="M973 989l-23 -96l-770 -780h606l-24 -113h-785l21 100l774 779h-569l22 110h748z" />
    <glyph glyph-name="braceleft" unicode="{" horiz-adv-x="743" 
d="M879 1540l-23 -100h-82q-68 0 -106 -23q-33 -20 -45 -57q-13 -37 -33 -135l-70 -332q-24 -116 -79.5 -178t-166.5 -80l-2 -4q150 -25 150 -160q0 -45 -12 -98l-70 -334l-14 -66q-11 -61 -11 -75q0 -39 26.5 -57.5t90.5 -18.5h80l-20 -98h-109q-113 0 -157 30.5t-44 114.5
q0 67 21 156l69 329q9 40 9 76q0 68 -41.5 98.5t-128.5 30.5l30 148q107 0 167 47.5t83 156.5l70 328q22 98 44.5 154.5t59.5 90.5t83 45t122 11h109z" />
    <glyph glyph-name="bar" unicode="|" horiz-adv-x="778" 
d="M451 1638v-1925h-123v1925h123z" />
    <glyph glyph-name="braceright" unicode="}" horiz-adv-x="743" 
d="M305 1540h109q111 0 155.5 -30t44.5 -113q0 -51 -22 -158l-70 -328q-8 -31 -8 -71q0 -71 41.5 -102t130.5 -31l-31 -148q-107 0 -167.5 -48t-84.5 -157l-69 -329q-15 -67 -29 -111.5t-33 -79.5t-39.5 -54.5t-52 -32.5t-66.5 -17.5t-87 -5.5h-109l21 98h81q71 0 107 22
q33 20 45 58q17 48 35 137l69 334q26 118 81 179t167 79l2 4q-80 13 -115.5 53t-35.5 109q0 25 12 96l70 332q24 108 24 139q0 42 -26 59t-93 17h-79z" />
    <glyph glyph-name="asciitilde" unicode="~" horiz-adv-x="1228" 
d="M651 743q140 -57 209 -57q61 0 90.5 29t34.5 88h115q-5 -107 -62.5 -168.5t-169.5 -61.5q-51 0 -103.5 15t-135.5 49q-84 33 -135 47t-99 14q-65 0 -104 -31.5t-45 -86.5h-117q6 102 76.5 165.5t191.5 63.5q56 0 111 -15t143 -51z" />
    <glyph glyph-name="uni00A0" unicode="&#xa0;" horiz-adv-x="471" 
 />
    <glyph glyph-name="exclamdown" unicode="&#xa1;" horiz-adv-x="450" 
d="M217 805l39 186h172l-39 -186h-172zM-41 -463l94 436l166 629h82l-104 -631l-93 -434h-145z" />
    <glyph glyph-name="cent" unicode="&#xa2;" 
d="M770 901l-172 -811q67 6 136 45t159 123l86 -86q-108 -102 -204.5 -148t-201.5 -51l-38 -178h-111l39 185q-147 25 -226 120.5t-79 245.5q-1 89 19.5 181t64.5 178t105 154t148.5 111t188.5 46l41 192h111l-43 -198q91 -13 160.5 -60t127.5 -133l-96 -72
q-55 73 -104.5 109.5t-110.5 46.5zM487 94l172 807q-87 -8 -159.5 -64t-115.5 -137t-66.5 -170t-22.5 -172q0 -106 48 -176t144 -88z" />
    <glyph glyph-name="sterling" unicode="&#xa3;" 
d="M500 897q0 -33 4 -147l2 -50h459l-21 -104h-436q-3 -292 -203 -436q52 -3 106.5 -11.5t92.5 -17t39 -8.5q113 -31 213 -31q109 0 266 82l41 -111q-160 -90 -307 -90q-59 0 -109.5 8t-148.5 31q-140 35 -222 35q-42 0 -81 -5t-69 -14t-49.5 -16t-39.5 -16t-21 -10l-18 114
q199 74 285.5 188t87.5 308h-201l20 104h179q-4 152 -4 209q0 222 110 365q115 145 369 145q237 0 420 -168l-90 -92q-157 141 -340 141q-334 0 -334 -403z" />
    <glyph glyph-name="currency" unicode="&#xa4;" 
d="M993 1167l82 -80l-139 -139q86 -109 86 -252t-86 -252l137 -137l-82 -80l-139 140q-110 -72 -244 -72q-144 0 -248 76l-145 -146l-80 80l144 144q-84 110 -84 247q0 140 81 246l-143 143l82 80l143 -145q110 78 250 78q132 0 242 -72zM315 696q0 -124 84 -204t209 -80
t209 80t84 204t-84 204.5t-209 80.5t-209 -80.5t-84 -204.5z" />
    <glyph glyph-name="yen" unicode="&#xa5;" 
d="M1315 1393l-443 -549h256l-22 -107h-320l-90 -112l-20 -103h385l-23 -106h-385l-88 -416h-137l88 416h-381l23 106h381l22 105l-41 110h-317l22 107h254l-205 549h140l233 -648l504 648h164z" />
    <glyph glyph-name="brokenbar" unicode="&#xa6;" horiz-adv-x="778" 
d="M451 1638v-819h-123v819h123zM451 532v-819h-123v819h123z" />
    <glyph glyph-name="section" unicode="&#xa7;" 
d="M1022 180q0 -138 -118 -225.5t-294 -87.5q-132 0 -233 35t-211 118l72 97q111 -85 188 -111t182 -26q127 0 206 54.5t79 141.5q0 54 -37 84q-33 30 -91 49t-202 51q-237 53 -338.5 124.5t-101.5 201.5q0 183 221 260q-83 38 -120.5 89t-37.5 134q0 138 117.5 225
t294.5 87q134 0 235 -35t209 -119l-71 -96q-115 82 -191 108q-82 29 -180 29q-127 0 -206 -54.5t-79 -139.5q0 -52 35 -87q36 -32 100 -53.5t195 -48.5q237 -51 338.5 -121.5t101.5 -199.5q0 -187 -229 -263q89 -36 127.5 -86.5t38.5 -134.5zM618 467l64 -14q270 49 270 204
q0 66 -47 107q-44 39 -111.5 61.5t-203.5 51.5l-74 16q-260 -51 -260 -201q2 -41 19.5 -72t44.5 -53t75 -40.5t97.5 -31t125.5 -28.5z" />
    <glyph glyph-name="dieresis" unicode="&#xa8;" horiz-adv-x="724" 
d="M451 1401l-41 -193h-136l41 193h136zM795 1401l-41 -193h-136l41 193h136z" />
    <glyph glyph-name="copyright" unicode="&#xa9;" horiz-adv-x="1753" 
d="M123 727q-3 206 98 381.5t276 276t380 96.5q154 3 294.5 -56t241.5 -160t160 -242t57 -296q2 -155 -57 -296t-160 -242t-241.5 -160t-294.5 -56q-205 -4 -380 96.5t-276 276t-98 381.5zM1513 727q3 181 -80 332.5t-230.5 238.5t-325.5 84q-178 3 -325.5 -84t-231 -238.5
t-80.5 -332.5q-3 -181 80.5 -332.5t231 -238.5t325.5 -84q178 -3 325.5 84t230.5 238.5t80 332.5zM459 727q0 195 119 324t307 129q248 0 360 -219l-112 -54q-47 86 -104 123t-142 37q-132 0 -211 -98q-80 -95 -80 -242t80 -242q81 -96 211 -96q91 0 147 38.5t105 137.5
l112 -55q-64 -125 -148.5 -180.5t-217.5 -55.5q-188 0 -307 129t-119 324z" />
    <glyph glyph-name="ordfeminine" unicode="&#xaa;" horiz-adv-x="829" 
d="M877 1266q0 -21 -7 -49l-110 -525h-107l23 109q-106 -131 -277 -131q-111 0 -172 46.5t-61 129.5q0 120 93.5 186.5t303.5 102.5l185 30l8 39q2 10 2 39q0 125 -156 125q-71 0 -134.5 -30t-143.5 -97l-64 70q86 79 170.5 115t181.5 36q130 0 197.5 -53.5t67.5 -142.5z
M709 983l20 98l-156 -32q-161 -31 -229 -73t-68 -116q0 -94 138 -94q113 0 192.5 57.5t102.5 159.5z" />
    <glyph glyph-name="guillemotleft" unicode="&#xab;" horiz-adv-x="1132" 
d="M664 958l-390 -452l189 -428h-133l-193 440l377 440h150zM1096 958l-387 -452l186 -428h-133l-193 440l377 440h150z" />
    <glyph glyph-name="logicalnot" unicode="&#xac;" horiz-adv-x="1228" 
d="M82 692h1065v-532h-121v418h-944v114z" />
    <glyph glyph-name="registered" unicode="&#xae;" horiz-adv-x="1150" 
d="M123 1026q0 192 130 322.5t322 130.5t322.5 -130.5t130.5 -322.5t-130.5 -322.5t-322.5 -130.5t-322 130.5t-130 322.5zM946 1026q0 162 -106 271.5t-265 109.5q-161 0 -265.5 -108.5t-104.5 -272.5t104.5 -272.5t265.5 -108.5q159 0 265 109.5t106 271.5zM401 778v508
h207q72 0 118 -45t46 -113q0 -103 -100 -143l129 -207h-96l-119 197h-99v-197h-86zM487 1047h103q98 0 98 81q0 38 -25 60t-73 22h-103v-163z" />
    <glyph glyph-name="overscore" unicode="&#xaf;" horiz-adv-x="763" 
d="M819 1327l-22 -106h-518l22 106h518z" />
    <glyph glyph-name="degree" unicode="&#xb0;" horiz-adv-x="813" 
d="M123 1198q0 118 82.5 197.5t200.5 79.5t201 -80t83 -197q0 -120 -82 -199t-202 -79q-119 0 -201 79t-82 199zM580 1198q0 78 -49 127t-125 49t-125.5 -49.5t-49.5 -126.5q0 -78 50 -128t125 -50t124.5 50t49.5 128z" />
    <glyph glyph-name="plusminus" unicode="&#xb1;" horiz-adv-x="1228" 
d="M674 1333v-475h473v-115h-473v-475h-119v475h-473v115h473v475h119zM1147 115v-115h-1065v115h1065z" />
    <glyph glyph-name="uni00B2" unicode="&#xb2;" horiz-adv-x="833" 
d="M270 721h510l-24 -103h-631l10 48q28 123 111 205.5t229 148.5l66 31q104 48 137 65q46 27 69 58.5t23 78.5q0 54 -42.5 84.5t-113.5 30.5q-67 0 -122.5 -22.5t-141.5 -83.5l-61 86q93 70 169.5 98.5t155.5 28.5q122 0 197.5 -58t75.5 -149q0 -85 -37 -140
q-38 -53 -109 -94q-59 -34 -221 -110q-111 -50 -168.5 -95t-81.5 -108z" />
    <glyph glyph-name="uni00B3" unicode="&#xb3;" horiz-adv-x="833" 
d="M893 1454l-21 -100l-329 -236q122 1 189 -58t67 -159q0 -123 -90.5 -213t-247.5 -90q-178 0 -338 104l74 89q77 -48 138.5 -67t129.5 -19q91 0 152 53.5t61 132.5q0 137 -172 137q-82 0 -107 -14l-49 76l365 262h-418l20 102h576z" />
    <glyph glyph-name="acute" unicode="&#xb4;" horiz-adv-x="563" 
d="M639 1434l-252 -287h-125l209 287h168z" />
    <glyph glyph-name="uni00B5" unicode="&#xb5;" horiz-adv-x="1093" 
d="M899 989h137l-209 -989h-129l31 152q-61 -85 -145 -132t-170 -47q-168 0 -221 99l-95 -447h-137l289 1364h137l-133 -629q-12 -58 -12 -106q0 -83 41.5 -122.5t132.5 -39.5q132 0 232.5 94.5t137.5 268.5z" />
    <glyph glyph-name="paragraph" unicode="&#xb6;" horiz-adv-x="1294" 
d="M823 1454v-1659h-118v776h-158q-209 0 -337 120.5t-128 322.5q0 203 127 321q128 119 338 119h276zM1118 1454v-1659h-121v1659h121z" />
    <glyph glyph-name="middot" unicode="&#xb7;" horiz-adv-x="417" 
d="M342 719l-39 -189h-172l39 189h172z" />
    <glyph glyph-name="cedilla" unicode="&#xb8;" horiz-adv-x="671" 
d="M379 -287q0 -78 -59.5 -131t-161.5 -53q-117 0 -226 68l54 73q100 -53 166 -53t99.5 25t33.5 69q0 35 -31.5 55.5t-83.5 20.5q-35 0 -59 -6l-41 49l137 207l69 -37l-94 -139h19q73 0 125.5 -39.5t52.5 -108.5z" />
    <glyph glyph-name="uni00B9" unicode="&#xb9;" horiz-adv-x="663" 
d="M539 1454h90l-178 -836h-117l143 674l-186 -116l-47 90z" />
    <glyph glyph-name="ordmasculine" unicode="&#xba;" horiz-adv-x="905" 
d="M946 1169q1 -65 -17 -134.5t-55.5 -134.5t-89.5 -116t-124.5 -80.5t-153.5 -27.5q-135 0 -217 82.5t-82 216.5q-1 64 17 133t55 134t88 116.5t123.5 81.5t154.5 28q135 0 218 -82.5t83 -216.5zM319 981q0 -98 50.5 -153.5t142.5 -55.5q73 0 135 36.5t101 94.5t61 126
t22 134q0 99 -50 154t-142 55q-96 3 -172 -61t-112.5 -153t-35.5 -177z" />
    <glyph glyph-name="guillemotright" unicode="&#xbb;" horiz-adv-x="1132" 
d="M379 958l192 -440l-376 -440h-150l387 452l-186 428h133zM811 958l193 -440l-377 -440h-150l389 450l-188 430h133z" />
    <glyph glyph-name="onequarter" unicode="&#xbc;" horiz-adv-x="1763" 
d="M526 1393h90l-178 -836h-116l143 674l-186 -117l-48 90zM1462 1421l78 -63l-1278 -1387l-74 66zM1532 293h117l-21 -98h-119l-41 -195h-120l43 195h-433l23 110l455 531h143l-467 -543h301l37 184h121z" />
    <glyph glyph-name="onehalf" unicode="&#xbd;" horiz-adv-x="2025" 
d="M526 1393h90l-178 -836h-116l143 674l-186 -117l-48 90zM1462 1421l78 -63l-1278 -1387l-74 66zM1194 102h510l-25 -102h-630l10 47q28 123 111 205.5t229 148.5l65 31q95 44 138 66q46 27 69 58.5t23 78.5q0 54 -42.5 84.5t-113.5 30.5q-66 0 -122 -23t-142 -84l-62 86
q92 70 169 98.5t157 28.5q122 0 197 -58t75 -149q0 -86 -36 -139q-38 -53 -109 -94q-68 -39 -221 -111q-111 -50 -168.5 -95t-81.5 -108z" />
    <glyph glyph-name="threequarters" unicode="&#xbe;" horiz-adv-x="1964" 
d="M881 1393l-21 -101l-330 -235q122 1 189 -58t67 -159q0 -123 -90 -213t-247 -90q-178 0 -338 104l73 88q77 -48 138.5 -67t130.5 -19q91 0 152 53.5t61 132.5q0 67 -43.5 102.5t-128.5 35.5q-80 0 -107 -15l-49 76l364 262h-417l20 103h576zM1663 1421l78 -63
l-1278 -1387l-74 66zM1733 293h116l-20 -98h-119l-41 -195h-121l43 195h-432l23 110l454 531h144l-467 -543h301l37 184h121z" />
    <glyph glyph-name="questiondown" unicode="&#xbf;" horiz-adv-x="927" 
d="M489 805l39 186h172l-38 -186h-173zM-125 -193q0 89 35 154q37 70 90 117q62 59 168 141l76 60q101 74 149 129q43 52 70 135l20 69h109l-19 -86q-20 -89 -43 -136.5t-64.5 -89.5t-137.5 -116l-41 -30q-128 -95 -164 -127q-111 -96 -111 -211q0 -86 65.5 -135.5
t178.5 -49.5q202 0 412 174l73 -100q-254 -199 -501 -199q-151 0 -258 78q-107 76 -107 223z" />
    <glyph glyph-name="Agrave" unicode="&#xc0;" horiz-adv-x="1333" 
d="M1047 0l-60 408h-661l-234 -408h-155l839 1454h189l221 -1454h-139zM395 530h574l-31 203l-29 193l-26 180q-23 154 -31 242q-117 -225 -342 -617zM713 1858h143l90 -287h-106z" />
    <glyph glyph-name="Aacute" unicode="&#xc1;" horiz-adv-x="1333" 
d="M1047 0l-60 408h-661l-234 -408h-155l839 1454h189l221 -1454h-139zM395 530h574l-31 203l-29 193l-26 180q-23 154 -31 242q-117 -225 -342 -617zM1208 1858l-252 -287h-125l209 287h168z" />
    <glyph glyph-name="Acircumflex" unicode="&#xc2;" horiz-adv-x="1333" 
d="M1047 0l-60 408h-661l-234 -408h-155l839 1454h189l221 -1454h-139zM395 530h574l-31 203l-29 193l-26 180q-23 154 -31 242q-117 -225 -342 -617zM1061 1571l-121 211l-213 -211h-129l264 287h170l137 -287h-108z" />
    <glyph glyph-name="Atilde" unicode="&#xc3;" horiz-adv-x="1333" 
d="M1047 0l-60 408h-661l-234 -408h-155l839 1454h189l221 -1454h-139zM395 530h574l-31 203l-29 193l-26 180q-23 154 -31 242q-117 -225 -342 -617zM961 1743q62 -45 98 -45q34 0 53.5 26t32.5 80h96q-19 -95 -66 -151t-112 -56q-33 0 -60.5 12t-74.5 42q-45 29 -70.5 40
t-54.5 11q-69 0 -96 -105h-97q21 95 73.5 151t125.5 56q39 0 71.5 -14t80.5 -47z" />
    <glyph glyph-name="Adieresis" unicode="&#xc4;" horiz-adv-x="1333" 
d="M1047 0l-60 408h-661l-234 -408h-155l839 1454h189l221 -1454h-139zM395 530h574l-31 203l-29 193l-26 180q-23 154 -31 242q-117 -225 -342 -617zM846 1825l-41 -193h-135l41 193h135zM1190 1825l-41 -193h-135l41 193h135z" />
    <glyph glyph-name="Aring" unicode="&#xc5;" horiz-adv-x="1341" 
d="M1055 0l-62 408h-669l-232 -408h-155l833 1444q-92 63 -92 174q0 102 72 174t174 72q97 0 157 -60t60 -153q0 -75 -45.5 -138.5t-118.5 -89.5l217 -1423h-139zM768 1618q0 -54 36 -90.5t87 -36.5q68 0 113 45.5t45 114.5q0 62 -33.5 97.5t-93.5 35.5q-61 0 -107.5 -50
t-46.5 -116zM395 530h580l-31 199q-68 433 -86 631q-143 -267 -350 -631z" />
    <glyph glyph-name="AE" unicode="&#xc6;" horiz-adv-x="1933" 
d="M1997 1333h-799l-113 -526h742l-25 -119h-741l-119 -567h813l-24 -121h-961l86 408h-485l-299 -408h-156l1069 1454h1038zM461 530h422l174 813z" />
    <glyph glyph-name="Ccedilla" unicode="&#xc7;" horiz-adv-x="1374" 
d="M1421 1249l-100 -80q-88 100 -177.5 145.5t-201.5 45.5q-124 3 -233 -45.5t-186 -130.5t-132.5 -187t-82 -217.5t-25.5 -220.5q0 -215 112.5 -339t309.5 -124q127 0 233 56q105 54 244 178l88 -90q-265 -271 -559 -271h-21l-74 -108h19q72 0 125 -40t53 -108
q0 -78 -59.5 -131t-161.5 -53q-116 0 -225 68l53 73q100 -53 166 -53t99.5 25t33.5 69q0 35 -31.5 55.5t-83.5 20.5q-35 0 -59 -6l-41 49l98 147q-225 30 -346 187q-119 155 -119 381q0 205 84 426q85 216 271 364q184 150 460 150q285 0 469 -236z" />
    <glyph glyph-name="Egrave" unicode="&#xc8;" horiz-adv-x="1236" 
d="M1327 1454l-27 -121h-796l-113 -526h742l-27 -119h-739l-121 -567h815l-27 -121h-958l309 1454h942zM696 1858h144l90 -287h-107z" />
    <glyph glyph-name="Eacute" unicode="&#xc9;" horiz-adv-x="1236" 
d="M1327 1454l-27 -121h-796l-113 -526h742l-27 -119h-739l-121 -567h815l-27 -121h-958l309 1454h942zM1194 1858l-252 -287h-125l209 287h168z" />
    <glyph glyph-name="Ecircumflex" unicode="&#xca;" horiz-adv-x="1236" 
d="M1327 1454l-27 -121h-796l-113 -526h742l-27 -119h-739l-121 -567h815l-27 -121h-958l309 1454h942zM1047 1571l-121 211l-213 -211h-129l264 287h170l137 -287h-108z" />
    <glyph glyph-name="Edieresis" unicode="&#xcb;" horiz-adv-x="1236" 
d="M1327 1454l-27 -121h-796l-113 -526h742l-27 -119h-739l-121 -567h815l-27 -121h-958l309 1454h942zM831 1825l-40 -193h-136l41 193h135zM1176 1825l-41 -193h-136l41 193h136z" />
    <glyph glyph-name="Igrave" unicode="&#xcc;" horiz-adv-x="534" 
d="M545 1454l-309 -1454h-146l309 1454h146zM313 1858h144l90 -287h-107z" />
    <glyph glyph-name="Iacute" unicode="&#xcd;" horiz-adv-x="534" 
d="M545 1454l-309 -1454h-146l309 1454h146zM809 1858l-252 -287h-125l209 287h168z" />
    <glyph glyph-name="Icircumflex" unicode="&#xce;" horiz-adv-x="534" 
d="M545 1454l-309 -1454h-146l309 1454h146zM662 1571l-121 211l-213 -211h-129l264 287h170l137 -287h-108z" />
    <glyph glyph-name="Idieresis" unicode="&#xcf;" horiz-adv-x="534" 
d="M545 1454l-309 -1454h-146l309 1454h146zM446 1825l-40 -193h-136l41 193h135zM791 1825l-41 -193h-136l41 193h136z" />
    <glyph glyph-name="Eth" unicode="&#xd0;" horiz-adv-x="1482" 
d="M1442 901q0 -213 -80 -420q-77 -206 -252 -344q-174 -137 -440 -137h-541l147 690h-182l27 119h180l137 645h436q264 0 416 -153t152 -400zM1296 891q0 214 -112.5 328t-335.5 114h-291l-111 -524h398l-29 -119h-395l-121 -569h348q133 -2 244.5 45t185 125.5t124.5 181
t73.5 208.5t21.5 210z" />
    <glyph glyph-name="Ntilde" unicode="&#xd1;" horiz-adv-x="1495" 
d="M1378 1454h142l-310 -1454h-161l-312 696q-132 290 -256 586q-61 -344 -112 -559l-152 -723h-141l309 1454h162l309 -694q141 -312 256 -594q48 262 113 563zM1042 1743q62 -45 99 -45q34 0 53.5 26t32.5 80h96q-19 -95 -66 -151t-112 -56q-33 0 -60.5 12t-74.5 42
q-45 29 -70.5 40t-54.5 11q-70 0 -97 -105h-96q21 95 73.5 151t125.5 56q39 0 71 -14t80 -47z" />
    <glyph glyph-name="Ograve" unicode="&#xd2;" horiz-adv-x="1527" 
d="M1487 893q0 -208 -86 -424q-85 -211 -262 -356q-175 -144 -432 -144q-265 0 -416.5 158.5t-151.5 435.5q-1 124 30.5 253t97.5 250.5t158 216t222.5 150t278.5 52.5q263 0 411 -160q150 -159 150 -432zM285 565q0 -223 113.5 -347t308.5 -124q100 -2 190 31t158.5 92
t124 137.5t90.5 168.5t53.5 184t17.5 184q0 221 -110 345t-307 124q-118 3 -223 -44t-180.5 -128.5t-130 -185.5t-81 -216.5t-24.5 -220.5zM817 1858h144l90 -287h-107z" />
    <glyph glyph-name="Oacute" unicode="&#xd3;" horiz-adv-x="1527" 
d="M1487 893q0 -208 -86 -424q-85 -211 -262 -356q-175 -144 -432 -144q-265 0 -416.5 158.5t-151.5 435.5q-1 124 30.5 253t97.5 250.5t158 216t222.5 150t278.5 52.5q263 0 411 -160q150 -159 150 -432zM285 565q0 -223 113.5 -347t308.5 -124q100 -2 190 31t158.5 92
t124 137.5t90.5 168.5t53.5 184t17.5 184q0 221 -110 345t-307 124q-118 3 -223 -44t-180.5 -128.5t-130 -185.5t-81 -216.5t-24.5 -220.5zM1315 1858l-252 -287h-125l209 287h168z" />
    <glyph glyph-name="Ocircumflex" unicode="&#xd4;" horiz-adv-x="1527" 
d="M1487 893q0 -208 -86 -424q-85 -211 -262 -356q-175 -144 -432 -144q-265 0 -416.5 158.5t-151.5 435.5q-1 124 30.5 253t97.5 250.5t158 216t222.5 150t278.5 52.5q263 0 411 -160q150 -159 150 -432zM285 565q0 -223 113.5 -347t308.5 -124q100 -2 190 31t158.5 92
t124 137.5t90.5 168.5t53.5 184t17.5 184q0 221 -110 345t-307 124q-118 3 -223 -44t-180.5 -128.5t-130 -185.5t-81 -216.5t-24.5 -220.5zM1167 1571l-120 211l-213 -211h-129l264 287h170l137 -287h-109z" />
    <glyph glyph-name="Otilde" unicode="&#xd5;" horiz-adv-x="1527" 
d="M1487 893q0 -208 -86 -424q-85 -211 -262 -356q-175 -144 -432 -144q-265 0 -416.5 158.5t-151.5 435.5q-1 124 30.5 253t97.5 250.5t158 216t222.5 150t278.5 52.5q263 0 411 -160q150 -159 150 -432zM285 565q0 -223 113.5 -347t308.5 -124q100 -2 190 31t158.5 92
t124 137.5t90.5 168.5t53.5 184t17.5 184q0 221 -110 345t-307 124q-118 3 -223 -44t-180.5 -128.5t-130 -185.5t-81 -216.5t-24.5 -220.5zM1065 1743q62 -45 98 -45q34 0 53.5 26t32.5 80h97q-19 -95 -66.5 -151t-112.5 -56q-33 0 -60.5 12t-74.5 42q-45 29 -70.5 40
t-54.5 11q-69 0 -96 -105h-96q21 95 73 151t125 56q39 0 71.5 -14t80.5 -47z" />
    <glyph glyph-name="Odieresis" unicode="&#xd6;" horiz-adv-x="1527" 
d="M1487 893q0 -208 -86 -424q-85 -211 -262 -356q-175 -144 -432 -144q-265 0 -416.5 158.5t-151.5 435.5q-1 124 30.5 253t97.5 250.5t158 216t222.5 150t278.5 52.5q263 0 411 -160q150 -159 150 -432zM285 565q0 -223 113.5 -347t308.5 -124q100 -2 190 31t158.5 92
t124 137.5t90.5 168.5t53.5 184t17.5 184q0 221 -110 345t-307 124q-118 3 -223 -44t-180.5 -128.5t-130 -185.5t-81 -216.5t-24.5 -220.5zM952 1825l-41 -193h-135l41 193h135zM1296 1825l-41 -193h-135l41 193h135z" />
    <glyph glyph-name="multiply" unicode="&#xd7;" horiz-adv-x="1228" 
d="M1071 1012l-377 -377l377 -377l-80 -80l-377 377l-378 -377l-80 80l376 377l-376 377l80 82l378 -377l377 377z" />
    <glyph glyph-name="Oslash" unicode="&#xd8;" horiz-adv-x="1527" 
d="M1569 1380l-160 -155q78 -141 78 -332q0 -208 -86 -424q-85 -211 -262 -356q-175 -144 -432 -144q-262 0 -416 160l-131 -129l-80 74l145 141q-86 148 -86 348q-1 124 30.5 253t97.5 250.5t158 216t222.5 150t278.5 52.5q269 0 422 -170l143 139zM332 319l915 898
q-110 143 -321 143q-118 3 -223 -44t-180.5 -128.5t-130.5 -185.5t-81.5 -216.5t-25.5 -220.5q0 -140 47 -246zM1303 1120l-912 -895q113 -131 314 -131q119 -3 224 44.5t179.5 128.5t128.5 185.5t79.5 217t24.5 221.5q0 130 -38 229z" />
    <glyph glyph-name="Ugrave" unicode="&#xd9;" horiz-adv-x="1406" 
d="M1442 1454l-215 -1003q-52 -239 -197 -359.5t-399 -120.5q-236 0 -356.5 93.5t-120.5 271.5q0 51 16 139l209 979h145l-213 -993q-12 -55 -12 -105q0 -128 87 -194t253 -66q187 0 296 91.5t148 273.5l211 993h148zM729 1858h143l91 -287h-107z" />
    <glyph glyph-name="Uacute" unicode="&#xda;" horiz-adv-x="1406" 
d="M1442 1454l-215 -1003q-52 -239 -197 -359.5t-399 -120.5q-236 0 -356.5 93.5t-120.5 271.5q0 51 16 139l209 979h145l-213 -993q-12 -55 -12 -105q0 -128 87 -194t253 -66q187 0 296 91.5t148 273.5l211 993h148zM1227 1858l-252 -287h-125l209 287h168z" />
    <glyph glyph-name="Ucircumflex" unicode="&#xdb;" horiz-adv-x="1406" 
d="M1442 1454l-215 -1003q-52 -239 -197 -359.5t-399 -120.5q-236 0 -356.5 93.5t-120.5 271.5q0 51 16 139l209 979h145l-213 -993q-12 -55 -12 -105q0 -128 87 -194t253 -66q187 0 296 91.5t148 273.5l211 993h148zM1079 1571l-121 211l-213 -211h-129l265 287h170
l137 -287h-109z" />
    <glyph glyph-name="Udieresis" unicode="&#xdc;" horiz-adv-x="1406" 
d="M1442 1454l-215 -1003q-52 -239 -197 -359.5t-399 -120.5q-236 0 -356.5 93.5t-120.5 271.5q0 51 16 139l209 979h145l-213 -993q-12 -55 -12 -105q0 -128 87 -194t253 -66q187 0 296 91.5t148 273.5l211 993h148zM864 1825l-41 -193h-135l41 193h135zM1208 1825
l-41 -193h-135l41 193h135z" />
    <glyph glyph-name="Yacute" unicode="&#xdd;" horiz-adv-x="1249" 
d="M1237 1454h170l-694 -829l-131 -625h-146l133 627l-336 827h148l278 -702zM1137 1858l-252 -287h-125l209 287h168z" />
    <glyph glyph-name="Thorn" unicode="&#xde;" horiz-adv-x="1314" 
d="M1305 823q0 -95 -33.5 -181t-97.5 -155.5t-169.5 -111t-238.5 -41.5h-473l-72 -334h-145l309 1454h145l-57 -272h434q181 0 289.5 -97t108.5 -262zM1163 819q0 117 -75.5 179.5t-213.5 62.5h-428l-129 -606h416q225 0 326 104q104 104 104 260z" />
    <glyph glyph-name="germandbls" unicode="&#xdf;" horiz-adv-x="1161" 
d="M1079 473q0 -99 -32 -186t-92 -154.5t-155 -107t-214 -39.5q-92 0 -150 10t-125 35l43 104q66 -21 111.5 -29t114.5 -8q169 0 268.5 108t99.5 265q0 138 -88.5 216.5t-251.5 78.5h-51l23 104h51q85 0 150.5 26.5t103.5 71t57 95t19 104.5q0 90 -62.5 146.5t-169.5 56.5
q-133 0 -211 -75.5t-110 -231.5l-226 -1063h-135l229 1081q42 197 157 299.5t302 102.5q167 0 259.5 -91t92.5 -225q0 -111 -62.5 -206.5t-170.5 -141.5q105 -38 165 -130t60 -216z" />
    <glyph glyph-name="agrave" unicode="&#xe0;" horiz-adv-x="1122" 
d="M938 989h127l-211 -989h-123l39 184q-139 -207 -358 -207q-165 0 -253.5 96.5t-88.5 268.5q-1 91 21 185.5t67.5 182.5t109 156.5t152 108.5t188.5 37q116 0 192 -50.5t103 -140.5zM844 649q0 121 -56.5 186.5t-171.5 65.5q-94 3 -175 -49.5t-131.5 -135.5t-78.5 -178.5
t-26 -183.5q0 -264 223 -264q111 -5 209.5 81.5t153.5 217.5t53 260zM516 1434h143l91 -287h-107z" />
    <glyph glyph-name="aacute" unicode="&#xe1;" horiz-adv-x="1122" 
d="M938 989h127l-211 -989h-123l39 184q-139 -207 -358 -207q-165 0 -253.5 96.5t-88.5 268.5q-1 91 21 185.5t67.5 182.5t109 156.5t152 108.5t188.5 37q116 0 192 -50.5t103 -140.5zM844 649q0 121 -56.5 186.5t-171.5 65.5q-94 3 -175 -49.5t-131.5 -135.5t-78.5 -178.5
t-26 -183.5q0 -264 223 -264q111 -5 209.5 81.5t153.5 217.5t53 260zM1012 1434l-252 -287h-125l209 287h168z" />
    <glyph glyph-name="acircumflex" unicode="&#xe2;" horiz-adv-x="1122" 
d="M938 989h127l-211 -989h-123l39 184q-139 -207 -358 -207q-165 0 -253.5 96.5t-88.5 268.5q-1 91 21 185.5t67.5 182.5t109 156.5t152 108.5t188.5 37q116 0 192 -50.5t103 -140.5zM844 649q0 121 -56.5 186.5t-171.5 65.5q-94 3 -175 -49.5t-131.5 -135.5t-78.5 -178.5
t-26 -183.5q0 -264 223 -264q111 -5 209.5 81.5t153.5 217.5t53 260zM864 1147l-121 211l-213 -211h-129l265 287h170l137 -287h-109z" />
    <glyph glyph-name="atilde" unicode="&#xe3;" horiz-adv-x="1122" 
d="M938 989h127l-211 -989h-123l39 184q-139 -207 -358 -207q-165 0 -253.5 96.5t-88.5 268.5q-1 91 21 185.5t67.5 182.5t109 156.5t152 108.5t188.5 37q116 0 192 -50.5t103 -140.5zM844 649q0 121 -56.5 186.5t-171.5 65.5q-94 3 -175 -49.5t-131.5 -135.5t-78.5 -178.5
t-26 -183.5q0 -264 223 -264q111 -5 209.5 81.5t153.5 217.5t53 260zM764 1319q62 -45 98 -45q34 0 53.5 26t32.5 80h96q-19 -95 -66 -150.5t-112 -55.5q-33 0 -61 12t-74 41q-45 29 -70.5 40t-54.5 11q-70 0 -96 -104h-96q21 95 73 150.5t125 55.5q39 0 71.5 -14t80.5 -47z
" />
    <glyph glyph-name="adieresis" unicode="&#xe4;" horiz-adv-x="1122" 
d="M938 989h127l-211 -989h-123l39 184q-139 -207 -358 -207q-165 0 -253.5 96.5t-88.5 268.5q-1 91 21 185.5t67.5 182.5t109 156.5t152 108.5t188.5 37q116 0 192 -50.5t103 -140.5zM844 649q0 121 -56.5 186.5t-171.5 65.5q-94 3 -175 -49.5t-131.5 -135.5t-78.5 -178.5
t-26 -183.5q0 -264 223 -264q111 -5 209.5 81.5t153.5 217.5t53 260zM649 1401l-41 -193h-135l41 193h135zM993 1401l-41 -193h-135l41 193h135z" />
    <glyph glyph-name="aring" unicode="&#xe5;" horiz-adv-x="1122" 
d="M938 989h127l-211 -989h-123l39 184q-139 -207 -358 -207q-165 0 -253.5 96.5t-88.5 268.5q-1 91 21 185.5t67.5 182.5t109 156.5t152 108.5t188.5 37q116 0 192 -50.5t103 -140.5zM844 649q0 121 -56.5 186.5t-171.5 65.5q-94 3 -175 -49.5t-131.5 -135.5t-78.5 -178.5
t-26 -183.5q0 -264 223 -264q111 -5 209.5 81.5t153.5 217.5t53 260zM940 1352q0 -95 -62.5 -158.5t-158.5 -63.5q-84 0 -135.5 51t-51.5 130q0 93 64 158t156 65q86 0 137 -50.5t51 -131.5zM616 1311q0 -47 29 -75t76 -28q59 0 96 41.5t37 102.5q0 51 -28 78.5t-78 27.5
q-55 0 -93.5 -42.5t-38.5 -104.5z" />
    <glyph glyph-name="ae" unicode="&#xe6;" horiz-adv-x="1744" 
d="M1638 483h-749q-8 -44 -8 -106q0 -133 67.5 -212t202.5 -79q98 0 179.5 46.5t187.5 158.5l92 -76q-108 -124 -219.5 -183t-245.5 -59q-121 0 -208 47t-136 132q-189 -183 -434 -183q-153 0 -245.5 71.5t-92.5 184.5q0 293 473 338l276 27l15 59q12 50 12 88
q0 168 -217 168q-170 0 -344 -160l-80 82q110 97 213.5 143t218.5 46q128 0 212.5 -46t111.5 -126q140 172 393 172q156 0 254 -94q100 -93 100 -248q0 -81 -29 -191zM913 586h623q8 36 8 80q0 113 -63 176t-178 63q-144 0 -244 -86.5t-146 -232.5zM756 266q-11 71 -11 103
q0 48 11 116l-242 -24q-186 -20 -269 -73.5t-83 -151.5q0 -67 60 -110.5t157 -43.5q211 0 377 184z" />
    <glyph glyph-name="ccedilla" unicode="&#xe7;" horiz-adv-x="978" 
d="M801 266l86 -84q-105 -106 -208 -157t-218 -52l-76 -112h18q73 0 126 -39.5t53 -108.5q0 -78 -60 -131t-162 -53q-116 0 -225 68l53 73q100 -53 166 -53t99.5 25t33.5 69q0 35 -31.5 55.5t-82.5 20.5q-36 0 -60 -6l-41 49l99 150q-143 23 -223 126.5t-80 264.5
q-1 85 21 175t68.5 175t111 151.5t155 106t192.5 37.5q122 0 208.5 -48.5t150.5 -148.5l-103 -71q-60 87 -118 122t-144 35q-75 2 -142 -31.5t-114.5 -90t-82 -126.5t-51 -142t-15.5 -136q0 -139 64.5 -215t189.5 -76q82 0 163.5 41t178.5 137z" />
    <glyph glyph-name="egrave" unicode="&#xe8;" horiz-adv-x="1067" 
d="M958 483h-747q-8 -41 -8 -102q0 -137 67 -216t207 -79q90 0 177 47t186 158l92 -76q-211 -242 -461 -242q-189 0 -296 109t-107 295q-1 88 22 178.5t71 174.5t114 149t158.5 102.5t197.5 34.5q161 0 259.5 -91.5t98.5 -242.5q0 -108 -31 -199zM236 586h624q6 37 6 82
q0 110 -63 173.5t-178 63.5q-141 0 -242 -87t-147 -232zM504 1434h143l90 -287h-106z" />
    <glyph glyph-name="eacute" unicode="&#xe9;" horiz-adv-x="1067" 
d="M958 483h-747q-8 -41 -8 -102q0 -137 67 -216t207 -79q90 0 177 47t186 158l92 -76q-211 -242 -461 -242q-189 0 -296 109t-107 295q-1 88 22 178.5t71 174.5t114 149t158.5 102.5t197.5 34.5q161 0 259.5 -91.5t98.5 -242.5q0 -108 -31 -199zM236 586h624q6 37 6 82
q0 110 -63 173.5t-178 63.5q-141 0 -242 -87t-147 -232zM999 1434l-251 -287h-125l208 287h168z" />
    <glyph glyph-name="ecircumflex" unicode="&#xea;" horiz-adv-x="1067" 
d="M958 483h-747q-8 -41 -8 -102q0 -137 67 -216t207 -79q90 0 177 47t186 158l92 -76q-211 -242 -461 -242q-189 0 -296 109t-107 295q-1 88 22 178.5t71 174.5t114 149t158.5 102.5t197.5 34.5q161 0 259.5 -91.5t98.5 -242.5q0 -108 -31 -199zM236 586h624q6 37 6 82
q0 110 -63 173.5t-178 63.5q-141 0 -242 -87t-147 -232zM852 1147l-121 211l-213 -211h-129l264 287h170l138 -287h-109z" />
    <glyph glyph-name="edieresis" unicode="&#xeb;" horiz-adv-x="1067" 
d="M958 483h-747q-8 -41 -8 -102q0 -137 67 -216t207 -79q90 0 177 47t186 158l92 -76q-211 -242 -461 -242q-189 0 -296 109t-107 295q-1 88 22 178.5t71 174.5t114 149t158.5 102.5t197.5 34.5q161 0 259.5 -91.5t98.5 -242.5q0 -108 -31 -199zM236 586h624q6 37 6 82
q0 110 -63 173.5t-178 63.5q-141 0 -242 -87t-147 -232zM637 1401l-41 -193h-135l41 193h135zM981 1401l-41 -193h-135l41 193h135z" />
    <glyph glyph-name="igrave" unicode="&#xec;" horiz-adv-x="438" 
d="M391 989l-209 -989h-135l209 989h135zM176 1434h143l91 -287h-107z" />
    <glyph glyph-name="iacute" unicode="&#xed;" horiz-adv-x="438" 
d="M391 989l-209 -989h-135l209 989h135zM672 1434l-252 -287h-125l209 287h168z" />
    <glyph glyph-name="icircumflex" unicode="&#xee;" horiz-adv-x="438" 
d="M391 989l-209 -989h-135l209 989h135zM524 1147l-121 211l-213 -211h-129l265 287h170l137 -287h-109z" />
    <glyph glyph-name="idieresis" unicode="&#xef;" horiz-adv-x="438" 
d="M391 989l-209 -989h-135l209 989h135zM309 1401l-41 -193h-135l41 193h135zM653 1401l-41 -193h-135l41 193h135z" />
    <glyph glyph-name="eth" unicode="&#xf0;" horiz-adv-x="1101" 
d="M1044 856q0 -198 -59 -405q-59 -204 -194 -342q-137 -140 -347 -140q-184 0 -282.5 105.5t-98.5 281.5q-1 79 19 164t63.5 167.5t104 147t148.5 103t188 35.5q132 0 219.5 -63t114.5 -167q6 53 6 113q0 113 -36.5 198t-115.5 152l-258 -149l-51 76l229 131
q-65 41 -155 82l-84 36l63 95l74 -31q135 -56 219 -115l209 119l47 -76l-182 -104q159 -150 159 -414zM856 573q0 136 -69.5 209.5t-202.5 73.5q-77 2 -142.5 -28.5t-109 -81t-74.5 -115.5t-45 -132t-14 -132q0 -281 254 -281q74 -3 140.5 28.5t113.5 84t82 118t51.5 132
t15.5 124.5z" />
    <glyph glyph-name="ntilde" unicode="&#xf1;" horiz-adv-x="1095" 
d="M997 764q0 -70 -14 -133l-135 -631h-135l133 633q12 61 12 112q0 160 -190 160q-129 0 -232.5 -92.5t-134.5 -251.5l-119 -561h-135l209 989h127l-33 -149q123 176 344 176q144 0 223.5 -70t79.5 -182zM756 1319q62 -45 98 -45q34 0 53.5 26t32.5 80h96
q-19 -95 -66 -150.5t-112 -55.5q-33 0 -61 12t-74 41q-45 29 -70.5 40t-54.5 11q-70 0 -96 -104h-96q21 95 73 150.5t125 55.5q39 0 71.5 -14t80.5 -47z" />
    <glyph glyph-name="ograve" unicode="&#xf2;" horiz-adv-x="1085" 
d="M1010 610q1 -82 -19.5 -170t-65.5 -172.5t-107.5 -151t-154 -106t-196.5 -37.5q-186 0 -291.5 109t-105.5 301q-1 80 19.5 166.5t65.5 171t108 151t155 106.5t198 38q183 0 288.5 -108t105.5 -298zM205 383q0 -139 69.5 -218t192.5 -79q75 -2 142 29.5t115 86t83 123.5
t51.5 142.5t15.5 142.5q0 143 -67.5 219t-194.5 76q-74 2 -141 -30t-114.5 -86.5t-83 -123t-52.5 -141.5t-16 -141zM498 1434h143l90 -287h-106z" />
    <glyph glyph-name="oacute" unicode="&#xf3;" horiz-adv-x="1085" 
d="M1010 610q1 -82 -19.5 -170t-65.5 -172.5t-107.5 -151t-154 -106t-196.5 -37.5q-186 0 -291.5 109t-105.5 301q-1 80 19.5 166.5t65.5 171t108 151t155 106.5t198 38q183 0 288.5 -108t105.5 -298zM205 383q0 -139 69.5 -218t192.5 -79q75 -2 142 29.5t115 86t83 123.5
t51.5 142.5t15.5 142.5q0 143 -67.5 219t-194.5 76q-74 2 -141 -30t-114.5 -86.5t-83 -123t-52.5 -141.5t-16 -141zM993 1434l-252 -287h-125l209 287h168z" />
    <glyph glyph-name="ocircumflex" unicode="&#xf4;" horiz-adv-x="1085" 
d="M1010 610q1 -82 -19.5 -170t-65.5 -172.5t-107.5 -151t-154 -106t-196.5 -37.5q-186 0 -291.5 109t-105.5 301q-1 80 19.5 166.5t65.5 171t108 151t155 106.5t198 38q183 0 288.5 -108t105.5 -298zM205 383q0 -139 69.5 -218t192.5 -79q75 -2 142 29.5t115 86t83 123.5
t51.5 142.5t15.5 142.5q0 143 -67.5 219t-194.5 76q-74 2 -141 -30t-114.5 -86.5t-83 -123t-52.5 -141.5t-16 -141zM846 1147l-121 211l-213 -211h-129l264 287h170l137 -287h-108z" />
    <glyph glyph-name="otilde" unicode="&#xf5;" horiz-adv-x="1085" 
d="M1010 610q1 -82 -19.5 -170t-65.5 -172.5t-107.5 -151t-154 -106t-196.5 -37.5q-186 0 -291.5 109t-105.5 301q-1 80 19.5 166.5t65.5 171t108 151t155 106.5t198 38q183 0 288.5 -108t105.5 -298zM205 383q0 -139 69.5 -218t192.5 -79q75 -2 142 29.5t115 86t83 123.5
t51.5 142.5t15.5 142.5q0 143 -67.5 219t-194.5 76q-74 2 -141 -30t-114.5 -86.5t-83 -123t-52.5 -141.5t-16 -141zM745 1319q62 -45 99 -45q34 0 53.5 26t32.5 80h96q-19 -95 -66 -150.5t-112 -55.5q-33 0 -61 12t-74 41q-45 29 -70.5 40t-54.5 11q-70 0 -96 -104h-97
q20 95 73 150.5t126 55.5q39 0 71 -14t80 -47z" />
    <glyph glyph-name="odieresis" unicode="&#xf6;" horiz-adv-x="1085" 
d="M1010 610q1 -82 -19.5 -170t-65.5 -172.5t-107.5 -151t-154 -106t-196.5 -37.5q-186 0 -291.5 109t-105.5 301q-1 80 19.5 166.5t65.5 171t108 151t155 106.5t198 38q183 0 288.5 -108t105.5 -298zM205 383q0 -139 69.5 -218t192.5 -79q75 -2 142 29.5t115 86t83 123.5
t51.5 142.5t15.5 142.5q0 143 -67.5 219t-194.5 76q-74 2 -141 -30t-114.5 -86.5t-83 -123t-52.5 -141.5t-16 -141zM631 1401l-41 -193h-135l41 193h135zM975 1401l-41 -193h-135l41 193h135z" />
    <glyph glyph-name="divide" unicode="&#xf7;" horiz-adv-x="1228" 
d="M700 1085v-188h-170v188h170zM1147 692v-114h-1065v114h1065zM700 373v-189h-170v189h170z" />
    <glyph glyph-name="oslash" unicode="&#xf8;" horiz-adv-x="1081" 
d="M1032 981l-98 -111q74 -103 74 -260q1 -82 -20 -170t-66.5 -172.5t-109 -151t-154 -106t-193.5 -37.5q-154 0 -258 78l-82 -90l-68 57l86 99q-75 103 -75 266q-1 80 20 166.5t66 171t108.5 151t155 106.5t196.5 38q155 0 258 -80l91 102zM236 219l555 625q-67 61 -181 61
q-73 2 -139.5 -30t-114.5 -86.5t-83.5 -123t-53 -141.5t-16.5 -141q0 -97 33 -164zM844 768l-553 -621q64 -61 174 -61q92 -3 171.5 46.5t130 128t79 170.5t26.5 179q0 88 -28 158z" />
    <glyph glyph-name="ugrave" unicode="&#xf9;" horiz-adv-x="1081" 
d="M889 989h135l-209 -989h-127l33 154q-60 -88 -149 -134.5t-183 -46.5q-144 0 -220.5 69t-76.5 187q0 66 14 129l134 631h135l-133 -631q-13 -70 -13 -112q0 -156 177 -156q131 0 232 95.5t138 269.5zM469 1434h143l90 -287h-106z" />
    <glyph glyph-name="uacute" unicode="&#xfa;" horiz-adv-x="1081" 
d="M889 989h135l-209 -989h-127l33 154q-60 -88 -149 -134.5t-183 -46.5q-144 0 -220.5 69t-76.5 187q0 66 14 129l134 631h135l-133 -631q-13 -70 -13 -112q0 -156 177 -156q131 0 232 95.5t138 269.5zM965 1434l-252 -287h-125l209 287h168z" />
    <glyph glyph-name="ucircumflex" unicode="&#xfb;" horiz-adv-x="1081" 
d="M889 989h135l-209 -989h-127l33 154q-60 -88 -149 -134.5t-183 -46.5q-144 0 -220.5 69t-76.5 187q0 66 14 129l134 631h135l-133 -631q-13 -70 -13 -112q0 -156 177 -156q131 0 232 95.5t138 269.5zM817 1147l-121 211l-213 -211h-129l264 287h170l138 -287h-109z" />
    <glyph glyph-name="udieresis" unicode="&#xfc;" horiz-adv-x="1081" 
d="M889 989h135l-209 -989h-127l33 154q-60 -88 -149 -134.5t-183 -46.5q-144 0 -220.5 69t-76.5 187q0 66 14 129l134 631h135l-133 -631q-13 -70 -13 -112q0 -156 177 -156q131 0 232 95.5t138 269.5zM602 1401l-41 -193h-135l41 193h135zM946 1401l-41 -193h-135l41 193
h135z" />
    <glyph glyph-name="yacute" unicode="&#xfd;" horiz-adv-x="952" 
d="M868 989h140l-633 -1147q-76 -139 -135.5 -186t-180.5 -51q-76 0 -135 20l35 105q54 -13 92 -13q69 0 113.5 37t101.5 142l25 43l-150 1050h131l47 -346l19 -131q30 -222 51 -410q155 300 279 525zM903 1434l-252 -287h-125l209 287h168z" />
    <glyph glyph-name="thorn" unicode="&#xfe;" horiz-adv-x="1122" 
d="M1053 649q1 -92 -20.5 -187t-66.5 -183t-108 -156t-152 -108t-190 -38q-115 0 -191.5 48.5t-109.5 136.5l-113 -531h-135l389 1823h136l-136 -631q145 189 361 189q159 0 247.5 -97t88.5 -266zM918 637q0 135 -54.5 199.5t-169.5 64.5q-88 4 -170.5 -46.5t-139 -131.5
t-90 -182t-32.5 -197q0 -116 67 -185t179 -69q97 -3 178 48.5t130.5 134t76 178t25.5 186.5z" />
    <glyph glyph-name="ydieresis" unicode="&#xff;" horiz-adv-x="952" 
d="M868 989h140l-633 -1147q-76 -139 -135.5 -186t-180.5 -51q-76 0 -135 20l35 105q54 -13 92 -13q69 0 113.5 37t101.5 142l25 43l-150 1050h131l47 -346l19 -131q30 -222 51 -410q155 300 279 525zM541 1401l-41 -193h-135l41 193h135zM885 1401l-41 -193h-135l41 193
h135z" />
    <glyph glyph-name="Amacron" unicode="&#x100;" horiz-adv-x="1333" 
d="M1047 0l-60 408h-661l-234 -408h-155l839 1454h189l221 -1454h-139zM395 530h574l-31 203l-29 193l-26 180q-23 154 -31 242q-117 -225 -342 -617zM1194 1751l-23 -106h-518l23 106h518z" />
    <glyph glyph-name="amacron" unicode="&#x101;" horiz-adv-x="1122" 
d="M938 989h127l-211 -989h-123l39 184q-139 -207 -358 -207q-165 0 -253.5 96.5t-88.5 268.5q-1 91 21 185.5t67.5 182.5t109 156.5t152 108.5t188.5 37q116 0 192 -50.5t103 -140.5zM844 649q0 121 -56.5 186.5t-171.5 65.5q-94 3 -175 -49.5t-131.5 -135.5t-78.5 -178.5
t-26 -183.5q0 -264 223 -264q111 -5 209.5 81.5t153.5 217.5t53 260zM997 1327l-22 -106h-518l22 106h518z" />
    <glyph glyph-name="Abreve" unicode="&#x102;" horiz-adv-x="1333" 
d="M987 408l60 -408h139l-221 1454h-189l-839 -1454h155l234 408h661zM969 530h-574l115 201q225 392 342 617q8 -88 31 -242l26 -180l29 -193zM1225 1817q-24 -120 -101.5 -186t-203.5 -66q-121 0 -188.5 59t-67.5 150q0 7 4 43h114q-2 -8 -2 -35q0 -127 146 -127
q77 0 123.5 43t58.5 119h117z" />
    <glyph glyph-name="abreve" unicode="&#x103;" horiz-adv-x="1122" 
d="M1065 989h-127l-35 -168q-27 90 -103 140.5t-192 50.5q-100 3 -188.5 -37t-152 -108.5t-109 -156.5t-67.5 -182.5t-21 -185.5q0 -172 88.5 -268.5t253.5 -96.5q219 0 358 207l-39 -184h123zM844 649q2 -129 -53 -260t-153.5 -217.5t-209.5 -81.5q-223 0 -223 264
q-2 88 26 183.5t78.5 178.5t131.5 135.5t175 49.5q115 0 171.5 -65.5t56.5 -186.5zM1028 1393q-24 -120 -101.5 -186t-203.5 -66q-121 0 -188.5 59t-67.5 150q0 7 4 43h115q-2 -8 -2 -35q0 -127 145 -127q77 0 123.5 43t58.5 119h117z" />
    <glyph glyph-name="Aogonek" unicode="&#x104;" horiz-adv-x="1333" 
d="M1071 -324q21 0 49 7l-20 -91q-21 -8 -60 -8q-73 0 -115 37.5t-42 104.5q0 153 190 274h-26l-60 408h-661l-234 -408h-155l839 1454h189l221 -1454q-104 -67 -152.5 -125.5t-48.5 -120.5q0 -37 23.5 -57.5t62.5 -20.5zM395 530h574l-31 203l-29 193l-26 180
q-23 154 -31 242q-117 -225 -342 -617z" />
    <glyph glyph-name="aogonek" unicode="&#x105;" horiz-adv-x="1122" 
d="M653 -246q0 -37 23.5 -57.5t62.5 -20.5q21 0 49 7l-20 -91q-21 -8 -59 -8q-73 0 -115.5 37.5t-42.5 104.5q0 153 190 274h-10l39 184q-139 -207 -358 -207q-165 0 -253.5 96.5t-88.5 268.5q-1 91 21 185.5t67.5 182.5t109 156.5t152 108.5t188.5 37q116 0 192 -50.5
t103 -140.5l35 168h127l-211 -989q-104 -67 -152.5 -125.5t-48.5 -120.5zM844 649q0 121 -56.5 186.5t-171.5 65.5q-94 3 -175 -49.5t-131.5 -135.5t-78.5 -178.5t-26 -183.5q0 -264 223 -264q111 -5 209.5 81.5t153.5 217.5t53 260z" />
    <glyph glyph-name="Cacute" unicode="&#x106;" horiz-adv-x="1374" 
d="M1421 1249l-100 -80q-88 100 -177.5 145.5t-201.5 45.5q-124 3 -233 -45.5t-186 -130.5t-132.5 -187t-82 -217.5t-25.5 -220.5q0 -215 112.5 -339t309.5 -124q127 0 233 56q105 54 244 178l88 -90q-265 -271 -559 -271q-271 0 -422.5 160t-151.5 416q0 205 84 426
q85 216 271 364q184 150 460 150q285 0 469 -236zM1294 1858l-252 -287h-124l208 287h168z" />
    <glyph glyph-name="cacute" unicode="&#x107;" horiz-adv-x="978" 
d="M610 905q-75 2 -142 -31.5t-114.5 -90t-82 -126.5t-51 -142t-15.5 -136q0 -139 64.5 -215t189.5 -76q82 0 163.5 41t178.5 137l86 -84q-209 -209 -434 -209q-180 0 -282.5 106.5t-102.5 291.5q-1 85 21 175t68.5 175t111 151.5t155 106t192.5 37.5q122 0 208.5 -48.5
t150.5 -148.5l-103 -71q-60 87 -118 122t-144 35zM993 1434l-252 -287h-125l209 287h168z" />
    <glyph glyph-name="Cdotaccent" unicode="&#x10a;" horiz-adv-x="1374" 
d="M1421 1249l-100 -80q-88 100 -177.5 145.5t-201.5 45.5q-124 3 -233 -45.5t-186 -130.5t-132.5 -187t-82 -217.5t-25.5 -220.5q0 -215 112.5 -339t309.5 -124q127 0 233 56q105 54 244 178l88 -90q-265 -271 -559 -271q-271 0 -422.5 160t-151.5 416q0 205 84 426
q85 216 271 364q184 150 460 150q285 0 469 -236zM1100 1825l-41 -193h-135l41 193h135z" />
    <glyph glyph-name="cdotaccent" unicode="&#x10b;" horiz-adv-x="978" 
d="M610 905q-75 2 -142 -31.5t-114.5 -90t-82 -126.5t-51 -142t-15.5 -136q0 -139 64.5 -215t189.5 -76q82 0 163.5 41t178.5 137l86 -84q-209 -209 -434 -209q-180 0 -282.5 106.5t-102.5 291.5q-1 85 21 175t68.5 175t111 151.5t155 106t192.5 37.5q122 0 208.5 -48.5
t150.5 -148.5l-103 -71q-60 87 -118 122t-144 35zM801 1401l-41 -193h-135l41 193h135z" />
    <glyph glyph-name="Ccaron" unicode="&#x10c;" horiz-adv-x="1374" 
d="M1421 1249l-100 -80q-88 100 -177.5 145.5t-201.5 45.5q-124 3 -233 -45.5t-186 -130.5t-132.5 -187t-82 -217.5t-25.5 -220.5q0 -215 112.5 -339t309.5 -124q127 0 233 56q105 54 244 178l88 -90q-265 -271 -559 -271q-271 0 -422.5 160t-151.5 416q0 205 84 426
q85 216 271 364q184 150 460 150q285 0 469 -236zM1333 1878l-264 -291h-170l-137 291h108l121 -215l215 215h127z" />
    <glyph glyph-name="ccaron" unicode="&#x10d;" horiz-adv-x="978" 
d="M610 905q-75 2 -142 -31.5t-114.5 -90t-82 -126.5t-51 -142t-15.5 -136q0 -139 64.5 -215t189.5 -76q82 0 163.5 41t178.5 137l86 -84q-209 -209 -434 -209q-180 0 -282.5 106.5t-102.5 291.5q-1 85 21 175t68.5 175t111 151.5t155 106t192.5 37.5q122 0 208.5 -48.5
t150.5 -148.5l-103 -71q-60 87 -118 122t-144 35zM1032 1454l-264 -291h-170l-137 291h108l121 -215l215 215h127z" />
    <glyph glyph-name="Dcaron" unicode="&#x10e;" horiz-adv-x="1429" 
d="M1389 901q0 -213 -80 -420q-77 -206 -252 -344q-174 -137 -441 -137h-540l309 1454h436q264 0 416 -153t152 -400zM795 1333h-291l-258 -1212h348q133 -2 244.5 45t185 125.5t124.5 181t73.5 208.5t21.5 210q0 214 -112.5 328t-335.5 114zM1221 1878l-265 -291h-170
l-137 291h109l121 -215l215 215h127z" />
    <glyph glyph-name="dcaron" unicode="&#x10f;" horiz-adv-x="1376" 
d="M1034 1454h135l-309 -1454h-123l43 203q-146 -226 -374 -226q-165 0 -254 96.5t-89 268.5q-1 91 21 185.5t68 182.5t109 156.5t152 108.5t189 37q116 0 192 -47.5t107 -135.5zM850 645q0 121 -59.5 188.5t-174.5 67.5q-77 3 -145.5 -31t-117 -92t-84.5 -130.5
t-53.5 -148.5t-16.5 -145q0 -135 54 -199.5t169 -64.5q113 -4 214.5 81.5t158.5 215t55 258.5zM1561 1454l-203 -389h-92l157 389h138z" />
    <glyph glyph-name="Dcroat" unicode="&#x110;" horiz-adv-x="1482" 
d="M1442 901q0 -213 -80 -420q-77 -206 -252 -344q-174 -137 -440 -137h-541l147 690h-182l27 119h180l137 645h436q264 0 416 -153t152 -400zM1296 891q0 214 -112.5 328t-335.5 114h-291l-111 -524h398l-29 -119h-395l-121 -569h348q133 -2 244.5 45t185 125.5t124.5 181
t73.5 208.5t21.5 210z" />
    <glyph glyph-name="dslash" unicode="&#x111;" horiz-adv-x="1175" 
d="M1284 1272l-22 -103h-154l-248 -1169h-123l43 203q-146 -226 -374 -226q-165 0 -254 96.5t-89 268.5q-1 91 21 185.5t68 182.5t109 156.5t152 108.5t189 37q115 0 191.5 -48t107.5 -135l72 340h-264l22 103h264l39 182h135l-39 -182h154zM850 645q0 121 -59.5 187.5
t-174.5 66.5q-77 2 -145.5 -32t-117 -91.5t-84.5 -130t-53.5 -147.5t-16.5 -144q0 -135 54 -199.5t169 -64.5q113 -4 214.5 81.5t158.5 215t55 258.5z" />
    <glyph glyph-name="Emacron" unicode="&#x112;" horiz-adv-x="1236" 
d="M1327 1454l-27 -121h-796l-113 -526h742l-27 -119h-739l-121 -567h815l-27 -121h-958l309 1454h942zM1178 1751l-23 -106h-518l22 106h519z" />
    <glyph glyph-name="emacron" unicode="&#x113;" horiz-adv-x="1067" 
d="M958 483h-747q-8 -41 -8 -102q0 -137 67 -216t207 -79q90 0 177 47t186 158l92 -76q-211 -242 -461 -242q-189 0 -296 109t-107 295q-1 88 22 178.5t71 174.5t114 149t158.5 102.5t197.5 34.5q161 0 259.5 -91.5t98.5 -242.5q0 -108 -31 -199zM236 586h624q6 37 6 82
q0 110 -63 173.5t-178 63.5q-141 0 -242 -87t-147 -232zM985 1327l-22 -106h-519l23 106h518z" />
    <glyph glyph-name="Edotaccent" unicode="&#x116;" horiz-adv-x="1236" 
d="M1327 1454l-27 -121h-796l-113 -526h742l-27 -119h-739l-121 -567h815l-27 -121h-958l309 1454h942zM999 1825l-41 -193h-135l41 193h135z" />
    <glyph glyph-name="edotaccent" unicode="&#x117;" horiz-adv-x="1067" 
d="M958 483h-747q-8 -41 -8 -102q0 -137 67 -216t207 -79q90 0 177 47t186 158l92 -76q-211 -242 -461 -242q-189 0 -296 109t-107 295q-1 88 22 178.5t71 174.5t114 149t158.5 102.5t197.5 34.5q161 0 259.5 -91.5t98.5 -242.5q0 -108 -31 -199zM236 586h624q6 37 6 82
q0 110 -63 173.5t-178 63.5q-141 0 -242 -87t-147 -232zM807 1401l-41 -193h-135l41 193h135z" />
    <glyph glyph-name="Eogonek" unicode="&#x118;" horiz-adv-x="1236" 
d="M1300 1333h-796l-113 -526h742l-27 -119h-739l-121 -567h815l-27 -121q-104 -67 -152 -125.5t-48 -120.5q0 -37 23.5 -57.5t62.5 -20.5q21 0 49 7l-21 -91q-21 -8 -59 -8q-70 0 -113 38t-43 104q0 154 189 274h-846l309 1454h942z" />
    <glyph glyph-name="eogonek" unicode="&#x119;" horiz-adv-x="1067" 
d="M424 -270q0 133 137 252q-41 -9 -90 -9q-189 0 -296 109t-107 295q-1 88 22 178.5t71 174.5t114 149t158.5 102.5t197.5 34.5q161 0 259.5 -91.5t98.5 -242.5q0 -108 -31 -199h-747q-8 -41 -8 -102q0 -137 67 -216t207 -79q90 0 177 47t186 158l92 -76q-64 -79 -189 -168
q-217 -156 -217 -291q0 -80 90 -80q24 0 52 7l-21 -91q-21 -8 -65 -8q-73 0 -115.5 39t-42.5 107zM236 586h624q6 37 6 82q0 110 -63 173.5t-178 63.5q-138 0 -239 -87t-150 -232z" />
    <glyph glyph-name="Ecaron" unicode="&#x11a;" horiz-adv-x="1236" 
d="M1327 1454l-27 -121h-796l-113 -526h742l-27 -119h-739l-121 -567h815l-27 -121h-958l309 1454h942zM1233 1878l-264 -291h-170l-137 291h108l121 -215l215 215h127z" />
    <glyph glyph-name="ecaron" unicode="&#x11b;" horiz-adv-x="1067" 
d="M958 483h-747q-8 -41 -8 -102q0 -137 67 -216t207 -79q90 0 177 47t186 158l92 -76q-211 -242 -461 -242q-189 0 -296 109t-107 295q-1 88 22 178.5t71 174.5t114 149t158.5 102.5t197.5 34.5q161 0 259.5 -91.5t98.5 -242.5q0 -108 -31 -199zM236 586h624q6 37 6 82
q0 110 -63 173.5t-178 63.5q-141 0 -242 -87t-147 -232zM1038 1454l-264 -291h-170l-137 291h108l121 -215l215 215h127z" />
    <glyph glyph-name="Gbreve" unicode="&#x11e;" horiz-adv-x="1521" 
d="M803 741l-25 -120h488l-15 -68q-28 -137 -110 -242.5t-190.5 -159t-225.5 -53.5q-212 0 -325 125.5t-113 339.5q-1 109 25 221t81 216.5t132 185t187 128t236 44.5q143 0 247 -54t212 -180l106 82q-218 277 -552 277q-137 2 -257.5 -36t-209 -106.5t-158 -159.5
t-112.5 -197t-64.5 -215.5t-20.5 -217.5q0 -163 65.5 -293t196 -208.5t306.5 -78.5q146 0 270 58.5t209 177.5l-29 -207h115l155 741h-624zM1356 1817q-24 -120 -101.5 -186t-203.5 -66q-121 0 -188.5 59t-67.5 150q0 7 4 43h114q-2 -8 -2 -35q0 -127 146 -127
q77 0 123.5 43t58.5 119h117z" />
    <glyph glyph-name="gbreve" unicode="&#x11f;" horiz-adv-x="1107" 
d="M1059 989h-127l-39 -180q-65 203 -305 203q-96 2 -182 -37.5t-147.5 -106t-106 -151t-66 -174t-20.5 -172.5q0 -165 93.5 -265t250.5 -100q208 0 346 182l-37 -172q-64 -292 -318 -292q-89 0 -170.5 32t-177.5 101l-73 -95q207 -151 417 -151q190 0 300 98t153 297z
M840 641q1 -66 -16.5 -139t-53.5 -142t-85 -124t-116 -87t-141 -30q-227 0 -227 272q-1 64 14.5 135t49.5 139t80 121.5t111.5 85.5t139.5 29q118 0 181 -68t63 -192zM1010 1393q-24 -120 -101.5 -186t-203.5 -66q-121 0 -188.5 59t-67.5 150q0 7 4 43h114q-2 -8 -2 -35
q0 -127 146 -127q77 0 123.5 43t58.5 119h117z" />
    <glyph glyph-name="Gdotaccent" unicode="&#x120;" horiz-adv-x="1521" 
d="M778 621l25 120h624l-155 -741h-115l29 207q-85 -119 -209 -177.5t-270 -58.5q-176 0 -306.5 78.5t-196 208.5t-65.5 293q-1 108 20.5 217.5t64.5 215.5t112.5 197t158 159.5t209 106.5t257.5 36q334 0 552 -277l-106 -82q-108 126 -212 180t-247 54q-126 3 -236 -44.5
t-187 -128t-132 -185t-81 -216.5t-25 -221q0 -214 113 -339.5t325 -125.5q117 0 225.5 53.5t190.5 159t110 242.5l15 68h-488zM1147 1825l-41 -193h-135l41 193h135z" />
    <glyph glyph-name="gdotaccent" unicode="&#x121;" horiz-adv-x="1107" 
d="M932 989h127l-209 -983q-43 -199 -153 -297t-300 -98q-210 0 -417 151l73 95q96 -69 177.5 -101t170.5 -32q254 0 318 292l37 172q-138 -182 -346 -182q-157 0 -250.5 100t-93.5 265q-1 83 20.5 172.5t66 174t106 151t147.5 106t182 37.5q240 0 305 -203zM840 641
q0 124 -63 192t-181 68q-74 3 -139.5 -29t-111.5 -85.5t-80 -121.5t-49.5 -139t-14.5 -135q0 -272 227 -272q74 -2 141 30t116 87t85 124t53.5 142t16.5 139zM801 1401l-41 -193h-135l41 193h135z" />
    <glyph glyph-name="uni0122" unicode="&#x122;" horiz-adv-x="1521" 
d="M778 621l25 120h624l-155 -741h-115l29 207q-85 -119 -209 -177.5t-270 -58.5q-176 0 -306.5 78.5t-196 208.5t-65.5 293q-1 108 20.5 217.5t64.5 215.5t112.5 197t158 159.5t209 106.5t257.5 36q334 0 552 -277l-106 -82q-108 126 -212 180t-247 54q-126 3 -236 -44.5
t-187 -128t-132 -185t-81 -216.5t-25 -221q0 -214 113 -339.5t325 -125.5q117 0 225.5 53.5t190.5 159t110 242.5l15 68h-488zM750 -158l-35 -161l-144 -193h-79l133 193h-82l35 161h172z" />
    <glyph glyph-name="uni0123" unicode="&#x123;" horiz-adv-x="1107" 
d="M932 989h127l-209 -983q-43 -199 -153 -297t-300 -98q-210 0 -417 151l73 95q96 -69 177.5 -101t170.5 -32q254 0 318 292l37 172q-138 -182 -346 -182q-157 0 -250.5 100t-93.5 265q-1 83 20.5 172.5t66 174t106 151t147.5 106t182 37.5q240 0 305 -203zM840 641
q0 124 -63 192t-181 68q-74 3 -139.5 -29t-111.5 -85.5t-80 -121.5t-49.5 -139t-14.5 -135q0 -272 227 -272q74 -2 141 30t116 87t85 124t53.5 142t16.5 139zM588 1200l35 162l147 205h80l-135 -205h82l-35 -162h-174z" />
    <glyph glyph-name="Hbar" unicode="&#x126;" horiz-adv-x="1591" 
d="M1673 1214l-24 -108h-162l-236 -1106h-145l145 690h-839l-146 -690h-145l235 1106h-166l25 108h164l51 240h145l-51 -240h840l51 240h146l-52 -240h164zM1280 811l61 295h-839l-64 -295h842z" />
    <glyph glyph-name="hbar" unicode="&#x127;" horiz-adv-x="1153" 
d="M1059 758q0 -49 -8 -80l-144 -678h-135l133 633q13 67 13 108q0 80 -45 119t-142 39q-122 0 -231 -86q-105 -85 -135 -231l-123 -582h-136l248 1169h-153l22 103h154l39 182h135l-39 -182h264l-22 -103h-265l-63 -299q137 146 336 146q144 0 220.5 -69.5t76.5 -188.5z
" />
    <glyph glyph-name="Imacron" unicode="&#x12a;" horiz-adv-x="534" 
d="M545 1454l-309 -1454h-146l309 1454h146zM795 1751l-23 -106h-518l22 106h519z" />
    <glyph glyph-name="imacron" unicode="&#x12b;" horiz-adv-x="438" 
d="M391 989l-209 -989h-135l209 989h135zM657 1327l-22 -106h-518l22 106h518z" />
    <glyph glyph-name="Iogonek" unicode="&#x12e;" horiz-adv-x="534" 
d="M35 -246q0 -37 23.5 -57.5t62.5 -20.5q21 0 49 7l-20 -91q-21 -8 -60 -8q-73 0 -115.5 37.5t-42.5 104.5q0 154 191 274h-33l309 1454h146l-309 -1454q-104 -67 -152.5 -125.5t-48.5 -120.5z" />
    <glyph glyph-name="iogonek" unicode="&#x12f;" horiz-adv-x="438" 
d="M344 1401h135l-41 -193h-135zM47 0l209 989h135l-209 -989q-104 -67 -152 -125.5t-48 -120.5q0 -37 23.5 -57.5t62.5 -20.5q21 0 49 7l-21 -91q-21 -8 -61 -8q-70 0 -113 38t-43 104q0 154 191 274h-23z" />
    <glyph glyph-name="Idot" unicode="&#x130;" horiz-adv-x="534" 
d="M545 1454l-309 -1454h-146l309 1454h146zM616 1825l-41 -193h-135l41 193h135z" />
    <glyph glyph-name="dotlessi" unicode="&#x131;" horiz-adv-x="438" 
d="M391 989l-209 -989h-135l209 989h135z" />
    <glyph glyph-name="IJ" unicode="&#x132;" horiz-adv-x="1476" 
d="M545 1454l-309 -1454h-146l309 1454h146zM1509 1454l-231 -1087q-43 -199 -143.5 -294.5t-272.5 -95.5q-196 0 -375 105l66 108q158 -88 301 -88q117 0 185 69t100 224l225 1059h145z" />
    <glyph glyph-name="ij" unicode="&#x133;" horiz-adv-x="868" 
d="M391 989l-209 -989h-135l209 989h135zM479 1401l-41 -193h-135l41 193h135zM293 -285q79 0 113.5 46t62.5 169l223 1059h135l-231 -1095q-32 -153 -98.5 -222t-194.5 -69q-99 0 -186 32l39 101q76 -21 137 -21zM913 1401l-41 -193h-135l41 193h135z" />
    <glyph glyph-name="uni0136" unicode="&#x136;" horiz-adv-x="1320" 
d="M1454 1454l-680 -571l416 -883h-152l-372 791l-336 -281l-109 -510h-145l309 1454h145l-159 -754l891 754h192zM672 -158l-35 -161l-143 -193h-80l133 193h-82l35 161h172z" />
    <glyph glyph-name="uni0137" unicode="&#x137;" horiz-adv-x="983" 
d="M1024 989l-430 -379l285 -610h-138l-247 530l-242 -206l-70 -324h-135l309 1454h136l-205 -967l565 502h172zM492 -158l-35 -161l-144 -193h-80l134 193h-82l34 161h173z" />
    <glyph glyph-name="Lacute" unicode="&#x139;" horiz-adv-x="1075" 
d="M530 1454l-284 -1333h696l-27 -121h-839l309 1454h145zM797 1858l-252 -287h-125l209 287h168z" />
    <glyph glyph-name="lacute" unicode="&#x13a;" horiz-adv-x="446" 
d="M496 1454l-310 -1454h-135l309 1454h136zM760 1837l-252 -287h-125l209 287h168z" />
    <glyph glyph-name="uni013B" unicode="&#x13b;" horiz-adv-x="1075" 
d="M530 1454l-284 -1333h696l-27 -121h-839l309 1454h145zM565 -158l-35 -161l-143 -193h-80l133 193h-82l35 161h172z" />
    <glyph glyph-name="uni013C" unicode="&#x13c;" horiz-adv-x="446" 
d="M496 1454l-310 -1454h-135l309 1454h136zM178 -158l-35 -161l-143 -193h-80l133 193h-82l35 161h172z" />
    <glyph glyph-name="Lcaron" unicode="&#x13d;" horiz-adv-x="1075" 
d="M530 1454l-284 -1333h696l-27 -121h-839l309 1454h145zM944 1454l-203 -389h-92l158 389h137z" />
    <glyph glyph-name="lcaron" unicode="&#x13e;" horiz-adv-x="722" 
d="M496 1454l-310 -1454h-135l309 1454h136zM907 1454l-202 -389h-93l158 389h137z" />
    <glyph glyph-name="Ldot" unicode="&#x13f;" horiz-adv-x="1071" 
d="M530 1454l-284 -1333h696l-27 -121h-839l309 1454h145zM895 846l-39 -189h-172l39 189h172z" />
    <glyph glyph-name="ldot" unicode="&#x140;" horiz-adv-x="741" 
d="M496 1454l-310 -1454h-135l309 1454h136zM713 719l-39 -189h-172l39 189h172z" />
    <glyph glyph-name="Lslash" unicode="&#x141;" horiz-adv-x="1138" 
d="M303 121h703l-27 -121h-846l133 629l-196 -101l26 129l199 99l147 698h146l-135 -629l358 181l-27 -127l-358 -181z" />
    <glyph glyph-name="lslash" unicode="&#x142;" horiz-adv-x="684" 
d="M715 997l-29 -123l-211 -110l-162 -764h-135l146 682l-222 -117l25 125l223 117l137 647h136l-121 -567z" />
    <glyph glyph-name="Nacute" unicode="&#x143;" horiz-adv-x="1495" 
d="M1378 1454h142l-310 -1454h-161l-312 696q-132 290 -256 586q-61 -344 -112 -559l-152 -723h-141l309 1454h162l309 -694q141 -312 256 -594q48 262 113 563zM1292 1858l-252 -287h-125l209 287h168z" />
    <glyph glyph-name="nacute" unicode="&#x144;" horiz-adv-x="1095" 
d="M997 764q0 -70 -14 -133l-135 -631h-135l133 633q12 61 12 112q0 160 -190 160q-129 0 -232.5 -92.5t-134.5 -251.5l-119 -561h-135l209 989h127l-33 -149q123 176 344 176q144 0 223.5 -70t79.5 -182zM1006 1434l-252 -287h-125l209 287h168z" />
    <glyph glyph-name="uni0145" unicode="&#x145;" horiz-adv-x="1495" 
d="M1378 1454h142l-310 -1454h-161l-312 696q-132 290 -256 586q-61 -344 -112 -559l-152 -723h-141l309 1454h162l309 -694q141 -312 256 -594q48 262 113 563zM700 -158l-34 -161l-144 -193h-80l133 193h-81l34 161h172z" />
    <glyph glyph-name="uni0146" unicode="&#x146;" horiz-adv-x="1095" 
d="M997 764q0 -70 -14 -133l-135 -631h-135l133 633q12 61 12 112q0 160 -190 160q-129 0 -232.5 -92.5t-134.5 -251.5l-119 -561h-135l209 989h127l-33 -149q123 176 344 176q144 0 223.5 -70t79.5 -182zM500 -158l-35 -161l-143 -193h-80l133 193h-82l35 161h172z" />
    <glyph glyph-name="Ncaron" unicode="&#x147;" horiz-adv-x="1495" 
d="M1378 1454h142l-310 -1454h-161l-312 696q-132 290 -256 586q-61 -344 -112 -559l-152 -723h-141l309 1454h162l309 -694q141 -312 256 -594q48 262 113 563zM1331 1878l-264 -291h-170l-137 291h108l121 -215l215 215h127z" />
    <glyph glyph-name="ncaron" unicode="&#x148;" horiz-adv-x="1095" 
d="M997 764q0 -70 -14 -133l-135 -631h-135l133 633q12 61 12 112q0 160 -190 160q-129 0 -232.5 -92.5t-134.5 -251.5l-119 -561h-135l209 989h127l-33 -149q123 176 344 176q144 0 223.5 -70t79.5 -182zM1044 1454l-264 -291h-170l-137 291h109l120 -215l216 215h126z" />
    <glyph glyph-name="Eng" unicode="&#x14a;" horiz-adv-x="1495" 
d="M1520 1454l-291 -1366h2l-43 -197q-33 -154 -104.5 -223t-215.5 -69q-108 0 -217 41l45 108q91 -31 172 -31q79 0 122.5 42.5t64.5 134.5l14 65l-332 737q-132 290 -256 586q-61 -344 -112 -559l-152 -723h-141l309 1454h162l309 -694q141 -312 256 -594q48 262 113 563
l153 725h142z" />
    <glyph glyph-name="eng" unicode="&#x14b;" horiz-adv-x="1101" 
d="M997 764q0 -70 -14 -133l-135 -631h-4l-21 -96q-34 -159 -96.5 -228t-191.5 -69q-112 0 -205 37l51 100q89 -25 143 -25q71 0 107 44t57 145l49 237h6l103 488q12 61 12 112q0 160 -190 160q-129 0 -232.5 -92.5t-134.5 -251.5l-119 -561h-135l209 989h127l-33 -149
q123 176 344 176q144 0 223.5 -70t79.5 -182z" />
    <glyph glyph-name="Omacron" unicode="&#x14c;" horiz-adv-x="1527" 
d="M1487 893q0 -208 -86 -424q-85 -211 -262 -356q-175 -144 -432 -144q-265 0 -416.5 158.5t-151.5 435.5q-1 124 30.5 253t97.5 250.5t158 216t222.5 150t278.5 52.5q263 0 411 -160q150 -159 150 -432zM285 565q0 -223 113.5 -347t308.5 -124q100 -2 190 31t158.5 92
t124 137.5t90.5 168.5t53.5 184t17.5 184q0 221 -110 345t-307 124q-118 3 -223 -44t-180.5 -128.5t-130 -185.5t-81 -216.5t-24.5 -220.5zM1298 1751l-22 -106h-518l22 106h518z" />
    <glyph glyph-name="omacron" unicode="&#x14d;" horiz-adv-x="1085" 
d="M1010 610q1 -82 -19.5 -170t-65.5 -172.5t-107.5 -151t-154 -106t-196.5 -37.5q-186 0 -291.5 109t-105.5 301q-1 80 19.5 166.5t65.5 171t108 151t155 106.5t198 38q183 0 288.5 -108t105.5 -298zM205 383q0 -139 69.5 -218t192.5 -79q75 -2 142 29.5t115 86t83 123.5
t51.5 142.5t15.5 142.5q0 143 -67.5 219t-194.5 76q-74 2 -141 -30t-114.5 -86.5t-83 -123t-52.5 -141.5t-16 -141zM979 1327l-23 -106h-518l23 106h518z" />
    <glyph glyph-name="Ohungarumlaut" unicode="&#x150;" horiz-adv-x="1527" 
d="M1487 893q0 -208 -86 -424q-85 -211 -262 -356q-175 -144 -432 -144q-265 0 -416.5 158.5t-151.5 435.5q-1 124 30.5 253t97.5 250.5t158 216t222.5 150t278.5 52.5q263 0 411 -160q150 -159 150 -432zM285 565q0 -223 113.5 -347t308.5 -124q100 -2 190 31t158.5 92
t124 137.5t90.5 168.5t53.5 184t17.5 184q0 221 -110 345t-307 124q-118 3 -223 -44t-180.5 -128.5t-130 -185.5t-81 -216.5t-24.5 -220.5zM1163 1878l-252 -291h-116l215 291h153zM1470 1878l-251 -291h-119l217 291h153z" />
    <glyph glyph-name="ohungarumlaut" unicode="&#x151;" horiz-adv-x="1085" 
d="M1010 610q1 -82 -19.5 -170t-65.5 -172.5t-107.5 -151t-154 -106t-196.5 -37.5q-186 0 -291.5 109t-105.5 301q-1 80 19.5 166.5t65.5 171t108 151t155 106.5t198 38q183 0 288.5 -108t105.5 -298zM205 383q0 -139 69.5 -218t192.5 -79q75 -2 142 29.5t115 86t83 123.5
t51.5 142.5t15.5 142.5q0 143 -67.5 219t-194.5 76q-74 2 -141 -30t-114.5 -86.5t-83 -123t-52.5 -141.5t-16 -141zM844 1454l-252 -291h-117l215 291h154zM1151 1454l-252 -291h-119l217 291h154z" />
    <glyph glyph-name="OE" unicode="&#x152;" horiz-adv-x="2369" 
d="M2433 1333h-799l-112 -526h741l-25 -119h-741l-119 -567h813l-24 -121h-961l51 240q-224 -271 -565 -271q-263 0 -412 150t-149 409q0 211 94 430q93 221 285 375q193 152 457 152q188 0 311 -80t178 -231l60 280h944zM1378 924q0 210 -105.5 323t-303.5 113
q-127 3 -240.5 -47.5t-195 -136.5t-141.5 -195.5t-88.5 -225.5t-27.5 -225q0 -210 107.5 -323t306.5 -113q128 -3 241.5 47.5t194 136.5t139 195.5t86.5 225.5t27 225z" />
    <glyph glyph-name="oe" unicode="&#x153;" horiz-adv-x="1855" 
d="M1745 483h-748q-8 -41 -8 -102q0 -137 67.5 -216t207.5 -79q189 0 366 203l90 -74q-202 -242 -463 -242q-145 0 -241 65t-135 183q-149 -248 -416 -248q-186 0 -291.5 109t-105.5 301q-1 80 20 166.5t66 171t108.5 151t155 106.5t196.5 38q140 0 229.5 -64.5
t125.5 -187.5q74 119 188.5 185.5t259.5 66.5q161 0 260 -91.5t99 -242.5q0 -108 -31 -199zM872 610q0 140 -69 217.5t-193 77.5q-73 2 -139.5 -30t-114.5 -86.5t-83.5 -123t-53 -141.5t-16.5 -141q0 -139 69.5 -218t192.5 -79q92 -3 171.5 46.5t130 128t79 170.5t26.5 179z
M1022 586h625q6 37 6 82q0 110 -63 173.5t-179 63.5q-141 0 -242 -87t-147 -232z" />
    <glyph glyph-name="Racute" unicode="&#x154;" horiz-adv-x="1359" 
d="M874 606l295 -606h-153l-291 604h-375l-129 -604h-145l309 1454h561q181 0 291 -98q111 -99 111 -262q0 -88 -29 -169t-85.5 -149.5t-149.5 -113.5t-210 -56zM1206 1092q0 117 -77.5 179t-215.5 62h-409l-129 -608h401q218 0 324 99t106 268zM1169 1858l-251 -287h-125
l208 287h168z" />
    <glyph glyph-name="racute" unicode="&#x155;" horiz-adv-x="708" 
d="M780 963l-47 -109q-67 27 -127 27q-111 0 -194 -93t-119 -264l-111 -524h-135l209 989h127l-31 -151q47 75 118.5 118t150.5 43q74 0 159 -36zM866 1434l-252 -287h-125l209 287h168z" />
    <glyph glyph-name="uni0156" unicode="&#x156;" horiz-adv-x="1359" 
d="M874 606l295 -606h-153l-291 604h-375l-129 -604h-145l309 1454h561q181 0 291 -98q111 -99 111 -262q0 -88 -29 -169t-85.5 -149.5t-149.5 -113.5t-210 -56zM1206 1092q0 117 -77.5 179t-215.5 62h-409l-129 -608h401q218 0 324 99t106 268zM637 -158l-35 -161
l-143 -193h-80l133 193h-82l35 161h172z" />
    <glyph glyph-name="uni0157" unicode="&#x157;" horiz-adv-x="708" 
d="M780 963l-47 -109q-67 27 -127 27q-111 0 -194 -93t-119 -264l-111 -524h-135l209 989h127l-31 -151q47 75 118.5 118t150.5 43q74 0 159 -36zM174 -158l-35 -161l-143 -193h-80l133 193h-82l35 161h172z" />
    <glyph glyph-name="Rcaron" unicode="&#x158;" horiz-adv-x="1359" 
d="M874 606l295 -606h-153l-291 604h-375l-129 -604h-145l309 1454h561q181 0 291 -98q111 -99 111 -262q0 -88 -29 -169t-85.5 -149.5t-149.5 -113.5t-210 -56zM1206 1092q0 117 -77.5 179t-215.5 62h-409l-129 -608h401q218 0 324 99t106 268zM1208 1878l-264 -291h-170
l-137 291h108l121 -215l215 215h127z" />
    <glyph glyph-name="rcaron" unicode="&#x159;" horiz-adv-x="708" 
d="M780 963l-47 -109q-67 27 -127 27q-111 0 -194 -93t-119 -264l-111 -524h-135l209 989h127l-31 -151q47 75 118.5 118t150.5 43q74 0 159 -36zM905 1454l-264 -291h-170l-137 291h108l121 -215l215 215h127z" />
    <glyph glyph-name="Sacute" unicode="&#x15a;" horiz-adv-x="1286" 
d="M1290 1257l-92 -98q-104 104 -208.5 152.5t-231.5 48.5q-160 0 -271.5 -85.5t-111.5 -211.5q0 -69 39 -111q42 -42 110 -71q81 -33 226 -78q165 -51 255 -104.5t126 -119t36 -163.5q0 -84 -35.5 -163.5t-100 -143t-166.5 -102t-224 -38.5q-166 0 -306.5 60t-289.5 184
l86 102q148 -119 267.5 -170t248.5 -51q169 0 274 92.5t105 227.5q-3 40 -11 69.5t-28 54.5t-43 42.5t-69 38t-91 36t-122 39.5q-130 41 -205.5 73t-128 74t-72.5 91t-23 123q0 83 38 160t105.5 136.5t168.5 95.5t219 36q156 0 283 -56.5t243 -169.5zM1120 1858l-252 -287
h-125l209 287h168z" />
    <glyph glyph-name="sacute" unicode="&#x15b;" horiz-adv-x="946" 
d="M897 854l-82 -88q-149 143 -313 143q-102 0 -171 -51.5t-69 -122.5q2 -21 7 -36t10 -27t21.5 -23t28.5 -18.5t44 -18.5t54.5 -18.5t72.5 -22.5q83 -27 127.5 -43.5t88 -39.5t63.5 -48.5t33 -61t17 -85.5q0 -138 -107 -229t-294 -91q-119 0 -218.5 45.5t-201.5 139.5
l82 88q96 -84 175.5 -123t172.5 -39q120 0 190 56t70 145q0 54 -32 82q-30 29 -77 47.5t-163 52.5q-119 35 -184 72t-88 78t-23 102q0 122 106 209.5t273 87.5q216 0 387 -162zM842 1434l-252 -287h-125l209 287h168z" />
    <glyph glyph-name="Scedilla" unicode="&#x15e;" horiz-adv-x="1286" 
d="M375 1063q0 -69 39 -111q42 -42 110 -71q81 -33 226 -78q165 -51 255 -104.5t126 -119t36 -163.5q0 -84 -35.5 -163.5t-100 -143t-166.5 -102t-224 -38.5q-12 0 -94 4l-78 -112h18q73 0 126 -39.5t53 -108.5q0 -78 -60 -131t-162 -53q-116 0 -225 68l53 73
q100 -53 166 -53t99.5 25t33.5 69q0 35 -31.5 55.5t-82.5 20.5q-36 0 -60 -6l-41 49l105 158q-203 48 -416 225l86 102q148 -119 267.5 -170t248.5 -51q169 0 274 92.5t105 227.5q-3 40 -11 69.5t-28 54.5t-43 42.5t-69 38t-91 36t-122 39.5q-130 41 -205.5 73t-128 74
t-72.5 91t-23 123q0 83 38 160t105.5 136.5t168.5 95.5t219 36q156 0 283 -56.5t243 -169.5l-92 -98q-104 104 -208.5 152.5t-231.5 48.5q-160 0 -271.5 -85.5t-111.5 -211.5z" />
    <glyph glyph-name="scedilla" unicode="&#x15f;" horiz-adv-x="946" 
d="M829 293q0 -136 -107 -228t-292 -92l-76 -112h17q74 0 127 -39.5t53 -108.5q0 -78 -60.5 -131t-162.5 -53q-117 0 -226 68l54 73q100 -53 166 -53t99.5 25t33.5 69q0 35 -31.5 55.5t-83.5 20.5q-35 0 -59 -6l-41 49l100 150q-175 33 -332 178l82 88q96 -84 175.5 -123
t172.5 -39q120 0 190 56t70 145q0 54 -32 82q-30 29 -77 47.5t-163 52.5q-119 35 -184 72t-88 78t-23 102q0 122 106 209.5t273 87.5q216 0 387 -162l-82 -88q-149 143 -313 143q-102 0 -171 -51.5t-69 -122.5q2 -21 7 -36t10 -27t21.5 -23t28.5 -18.5t44 -18.5t54.5 -18.5
t72.5 -22.5q83 -27 127.5 -43.5t88 -39.5t63.5 -48.5t33 -61t17 -85.5z" />
    <glyph glyph-name="Scaron" unicode="&#x160;" horiz-adv-x="1286" 
d="M1290 1257l-92 -98q-104 104 -208.5 152.5t-231.5 48.5q-160 0 -271.5 -85.5t-111.5 -211.5q0 -69 39 -111q42 -42 110 -71q81 -33 226 -78q165 -51 255 -104.5t126 -119t36 -163.5q0 -84 -35.5 -163.5t-100 -143t-166.5 -102t-224 -38.5q-166 0 -306.5 60t-289.5 184
l86 102q148 -119 267.5 -170t248.5 -51q169 0 274 92.5t105 227.5q-3 40 -11 69.5t-28 54.5t-43 42.5t-69 38t-91 36t-122 39.5q-130 41 -205.5 73t-128 74t-72.5 91t-23 123q0 83 38 160t105.5 136.5t168.5 95.5t219 36q156 0 283 -56.5t243 -169.5zM1159 1878l-264 -291
h-170l-137 291h108l121 -215l215 215h127z" />
    <glyph glyph-name="scaron" unicode="&#x161;" horiz-adv-x="946" 
d="M897 854l-82 -88q-149 143 -313 143q-102 0 -171 -51.5t-69 -122.5q2 -21 7 -36t10 -27t21.5 -23t28.5 -18.5t44 -18.5t54.5 -18.5t72.5 -22.5q83 -27 127.5 -43.5t88 -39.5t63.5 -48.5t33 -61t17 -85.5q0 -138 -107 -229t-294 -91q-119 0 -218.5 45.5t-201.5 139.5
l82 88q96 -84 175.5 -123t172.5 -39q120 0 190 56t70 145q0 54 -32 82q-30 29 -77 47.5t-163 52.5q-119 35 -184 72t-88 78t-23 102q0 122 106 209.5t273 87.5q216 0 387 -162zM881 1454l-265 -291h-170l-137 291h109l121 -215l215 215h127z" />
    <glyph glyph-name="uni0162" unicode="&#x162;" horiz-adv-x="1220" 
d="M274 1454h1082l-27 -121h-469l-280 -1333h-33l-94 -139h18q72 0 125 -40t53 -108q0 -78 -59.5 -131t-161.5 -53q-116 0 -225 68l53 73q100 -53 166 -53t99.5 25t33.5 69q0 35 -31.5 55.5t-83.5 20.5q-35 0 -59 -6l-41 49l113 170h-21l283 1333h-467z" />
    <glyph glyph-name="uni0163" unicode="&#x163;" horiz-adv-x="698" 
d="M444 891l-131 -619q-12 -52 -12 -90q0 -45 24.5 -66.5t80.5 -21.5q61 0 153 29l14 -107q-80 -36 -190 -36h-8l-80 -119h18q73 0 126 -39.5t53 -108.5q0 -78 -60 -131t-162 -53q-116 0 -225 68l53 73q100 -53 166 -53t99.5 25t33.5 69q0 35 -31.5 55.5t-82.5 20.5
q-36 0 -60 -6l-41 49l107 160q-125 34 -125 174q0 41 14 112l131 615h-190l20 98h191l73 344h136l-74 -344h272l-20 -98h-273z" />
    <glyph glyph-name="Tcaron" unicode="&#x164;" horiz-adv-x="1220" 
d="M1356 1454l-27 -121h-469l-280 -1333h-148l283 1333h-467l26 121h1082zM1194 1878l-264 -291h-170l-137 291h108l121 -215l215 215h127z" />
    <glyph glyph-name="tcaron" unicode="&#x165;" horiz-adv-x="698" 
d="M444 891l-131 -619q-12 -52 -12 -90q0 -45 24.5 -66.5t80.5 -21.5q61 0 153 29l14 -107q-80 -36 -190 -36q-113 0 -166 44t-53 140q0 41 14 112l131 615h-190l20 98h191l73 344h136l-74 -344h272l-20 -98h-273zM965 1563l-203 -389h-92l157 389h138z" />
    <glyph glyph-name="Tbar" unicode="&#x166;" horiz-adv-x="1220" 
d="M1329 1333h-469l-100 -475h272l-24 -110h-271l-157 -748h-148l158 748h-252l24 110h252l101 475h-467l26 121h1082z" />
    <glyph glyph-name="tbar" unicode="&#x167;" horiz-adv-x="698" 
d="M717 891h-273l-65 -311h268l-20 -103h-271l-43 -205q-12 -52 -12 -90q0 -45 24.5 -66.5t80.5 -21.5q61 0 153 29l14 -107q-80 -36 -190 -36q-113 0 -166 44t-53 140q0 41 14 112l43 201h-186l20 103h189l65 311h-190l20 98h191l73 344h136l-74 -344h272z" />
    <glyph glyph-name="Umacron" unicode="&#x16a;" horiz-adv-x="1406" 
d="M1442 1454l-215 -1003q-52 -239 -197 -359.5t-399 -120.5q-236 0 -356.5 93.5t-120.5 271.5q0 51 16 139l209 979h145l-213 -993q-12 -55 -12 -105q0 -128 87 -194t253 -66q187 0 296 91.5t148 273.5l211 993h148zM1210 1751l-22 -106h-518l22 106h518z" />
    <glyph glyph-name="umacron" unicode="&#x16b;" horiz-adv-x="1081" 
d="M889 989h135l-209 -989h-127l33 154q-60 -88 -149 -134.5t-183 -46.5q-144 0 -220.5 69t-76.5 187q0 66 14 129l134 631h135l-133 -631q-13 -70 -13 -112q0 -156 177 -156q131 0 232 95.5t138 269.5zM950 1327l-22 -106h-518l22 106h518z" />
    <glyph glyph-name="Uring" unicode="&#x16e;" horiz-adv-x="1406" 
d="M1442 1454l-215 -1003q-52 -239 -197 -359.5t-399 -120.5q-236 0 -356.5 93.5t-120.5 271.5q0 51 16 139l209 979h145l-213 -993q-12 -55 -12 -105q0 -128 87 -194t253 -66q187 0 296 91.5t148 273.5l211 993h148zM1145 1733q0 -95 -62.5 -158.5t-158.5 -63.5
q-84 0 -135.5 51t-51.5 130q0 93 63.5 158t155.5 65q87 0 138 -50.5t51 -131.5zM821 1692q0 -47 29 -75t76 -28q59 0 96 41.5t37 102.5q0 51 -28.5 78.5t-78.5 27.5q-55 0 -93 -42.5t-38 -104.5z" />
    <glyph glyph-name="uring" unicode="&#x16f;" horiz-adv-x="1081" 
d="M889 989h135l-209 -989h-127l33 154q-60 -88 -149 -134.5t-183 -46.5q-144 0 -220.5 69t-76.5 187q0 66 14 129l134 631h135l-133 -631q-13 -70 -13 -112q0 -156 177 -156q131 0 232 95.5t138 269.5zM893 1352q0 -95 -62.5 -158.5t-158.5 -63.5q-84 0 -135.5 51
t-51.5 130q0 93 64 158t156 65q86 0 137 -50.5t51 -131.5zM569 1311q0 -47 29 -75t76 -28q59 0 96 41.5t37 102.5q0 51 -28.5 78.5t-78.5 27.5q-55 0 -93 -42.5t-38 -104.5z" />
    <glyph glyph-name="Uhungarumlaut" unicode="&#x170;" horiz-adv-x="1406" 
d="M1442 1454l-215 -1003q-52 -239 -197 -359.5t-399 -120.5q-236 0 -356.5 93.5t-120.5 271.5q0 51 16 139l209 979h145l-213 -993q-12 -55 -12 -105q0 -128 87 -194t253 -66q187 0 296 91.5t148 273.5l211 993h148zM1077 1878l-252 -291h-116l215 291h153zM1384 1878
l-251 -291h-119l217 291h153z" />
    <glyph glyph-name="uhungarumlaut" unicode="&#x171;" horiz-adv-x="1081" 
d="M889 989h135l-209 -989h-127l33 154q-60 -88 -149 -134.5t-183 -46.5q-144 0 -220.5 69t-76.5 187q0 66 14 129l134 631h135l-133 -631q-13 -70 -13 -112q0 -156 177 -156q131 0 232 95.5t138 269.5zM815 1454l-252 -291h-117l216 291h153zM1122 1454l-252 -291h-118
l217 291h153z" />
    <glyph glyph-name="Uogonek" unicode="&#x172;" horiz-adv-x="1406" 
d="M1294 1454h148l-215 -1003q-36 -158 -103 -256t-190 -166q-115 -64 -182.5 -137t-67.5 -138q0 -37 23.5 -57.5t62.5 -20.5q23 0 51 7l-22 -91q-21 -8 -60 -8q-70 0 -112.5 37t-42.5 103q0 142 155 253q-49 -6 -108 -6q-236 0 -356.5 93.5t-120.5 271.5q0 51 16 139
l209 979h145l-213 -993q-12 -55 -12 -105q0 -128 87 -194t253 -66q187 0 296 91.5t148 273.5z" />
    <glyph glyph-name="uogonek" unicode="&#x173;" horiz-adv-x="1081" 
d="M614 -246q0 -37 23.5 -57.5t62.5 -20.5q22 0 50 7l-21 -91q-21 -8 -61 -8q-70 0 -113 38t-43 104q0 155 190 274h-14l33 154q-60 -88 -149 -134.5t-183 -46.5q-144 0 -220.5 69t-76.5 187q0 66 14 129l134 631h135l-133 -631q-13 -70 -13 -112q0 -156 177 -156
q131 0 232 95.5t138 269.5l113 534h135l-209 -989q-104 -67 -152.5 -125.5t-48.5 -120.5z" />
    <glyph glyph-name="Wcircumflex" unicode="&#x174;" horiz-adv-x="1902" 
d="M1876 1454h149l-659 -1454h-184l-45 717q-20 340 -23 559q-111 -246 -262 -561l-346 -715h-189l-41 1454h140l16 -733q6 -221 6 -440v-148q104 234 275 586l360 735h152l41 -733q21 -396 24 -586q209 486 254 586zM1333 1571l-121 211l-213 -211h-129l265 287h170
l137 -287h-109z" />
    <glyph glyph-name="wcircumflex" unicode="&#x175;" horiz-adv-x="1460" 
d="M1364 991h137l-493 -991h-166l-25 346q-25 347 -29 483q-28 -63 -176 -368l-59 -121l-166 -340h-172l-63 991h131l22 -391q15 -263 21 -487q91 198 233 485l195 393h129l30 -393q25 -335 27 -492q151 336 229 488zM1012 1147l-121 211l-213 -211h-129l264 287h170
l137 -287h-108z" />
    <glyph glyph-name="Ycircumflex" unicode="&#x176;" horiz-adv-x="1249" 
d="M1237 1454h170l-694 -829l-131 -625h-146l133 627l-336 827h148l278 -702zM989 1571l-121 211l-213 -211h-129l265 287h170l137 -287h-109z" />
    <glyph glyph-name="ycircumflex" unicode="&#x177;" horiz-adv-x="952" 
d="M868 989h140l-633 -1147q-76 -139 -135.5 -186t-180.5 -51q-76 0 -135 20l35 105q54 -13 92 -13q69 0 113.5 37t101.5 142l25 43l-150 1050h131l47 -346l19 -131q30 -222 51 -410q155 300 279 525zM756 1147l-121 211l-213 -211h-129l264 287h170l137 -287h-108z" />
    <glyph glyph-name="Ydieresis" unicode="&#x178;" horiz-adv-x="1249" 
d="M1237 1454h170l-694 -829l-131 -625h-146l133 627l-336 827h148l278 -702zM774 1825l-41 -193h-135l41 193h135zM1118 1825l-41 -193h-135l41 193h135z" />
    <glyph glyph-name="Zacute" unicode="&#x179;" horiz-adv-x="1257" 
d="M1380 1454l-24 -113l-1170 -1220h908l-27 -121h-1090l23 113l1167 1220h-864l27 121h1050zM1176 1858l-252 -287h-125l209 287h168z" />
    <glyph glyph-name="zacute" unicode="&#x17a;" horiz-adv-x="958" 
d="M973 989l-23 -96l-770 -780h606l-24 -113h-785l21 100l774 779h-569l22 110h748zM950 1434l-252 -287h-125l209 287h168z" />
    <glyph glyph-name="Zdotaccent" unicode="&#x17b;" horiz-adv-x="1257" 
d="M1380 1454l-24 -113l-1170 -1220h908l-27 -121h-1090l23 113l1167 1220h-864l27 121h1050zM983 1825l-41 -193h-135l41 193h135z" />
    <glyph glyph-name="zdotaccent" unicode="&#x17c;" horiz-adv-x="958" 
d="M973 989l-23 -96l-770 -780h606l-24 -113h-785l21 100l774 779h-569l22 110h748zM758 1401l-41 -193h-135l41 193h135z" />
    <glyph glyph-name="Zcaron" unicode="&#x17d;" horiz-adv-x="1257" 
d="M1380 1454l-24 -113l-1170 -1220h908l-27 -121h-1090l23 113l1167 1220h-864l27 121h1050zM1214 1878l-264 -291h-170l-137 291h109l120 -215l215 215h127z" />
    <glyph glyph-name="zcaron" unicode="&#x17e;" horiz-adv-x="958" 
d="M973 989l-23 -96l-770 -780h606l-24 -113h-785l21 100l774 779h-569l22 110h748zM989 1454l-264 -291h-170l-137 291h108l121 -215l215 215h127z" />
    <glyph glyph-name="florin" unicode="&#x192;" 
d="M725 928h272l-20 -101h-275l-196 -927q-32 -152 -103.5 -224.5t-203.5 -72.5q-115 0 -203 30l51 105q90 -23 146 -23q81 0 118.5 42t61.5 147l194 923h-237l20 101h240l41 198q33 149 111.5 223t215.5 74q122 0 209 -34l-53 -107q-88 27 -147 27q-90 0 -136 -46.5
t-71 -158.5z" />
    <glyph glyph-name="uni0218" unicode="&#x218;" horiz-adv-x="1286" 
d="M1290 1257l-92 -98q-104 104 -208.5 152.5t-231.5 48.5q-160 0 -271.5 -85.5t-111.5 -211.5q0 -69 39 -111q42 -42 110 -71q81 -33 226 -78q165 -51 255 -104.5t126 -119t36 -163.5q0 -84 -35.5 -163.5t-100 -143t-166.5 -102t-224 -38.5q-166 0 -306.5 60t-289.5 184
l86 102q148 -119 267.5 -170t248.5 -51q169 0 274 92.5t105 227.5q-3 40 -11 69.5t-28 54.5t-43 42.5t-69 38t-91 36t-122 39.5q-130 41 -205.5 73t-128 74t-72.5 91t-23 123q0 83 38 160t105.5 136.5t168.5 95.5t219 36q156 0 283 -56.5t243 -169.5zM582 -158l-35 -161
l-144 -193h-79l133 193h-82l35 161h172z" />
    <glyph glyph-name="uni0219" unicode="&#x219;" horiz-adv-x="946" 
d="M897 854l-82 -88q-149 143 -313 143q-102 0 -171 -51.5t-69 -122.5q2 -21 7 -36t10 -27t21.5 -23t28.5 -18.5t44 -18.5t54.5 -18.5t72.5 -22.5q83 -27 127.5 -43.5t88 -39.5t63.5 -48.5t33 -61t17 -85.5q0 -138 -107 -229t-294 -91q-119 0 -218.5 45.5t-201.5 139.5
l82 88q96 -84 175.5 -123t172.5 -39q120 0 190 56t70 145q0 54 -32 82q-30 29 -77 47.5t-163 52.5q-119 35 -184 72t-88 78t-23 102q0 122 106 209.5t273 87.5q216 0 387 -162zM465 -158l-35 -161l-143 -193h-80l133 193h-82l35 161h172z" />
    <glyph glyph-name="uni021A" unicode="&#x21a;" horiz-adv-x="1220" 
d="M1356 1454l-27 -121h-469l-280 -1333h-148l283 1333h-467l26 121h1082zM565 -158l-35 -161l-143 -193h-80l133 193h-82l35 161h172z" />
    <glyph glyph-name="uni021B" unicode="&#x21b;" horiz-adv-x="698" 
d="M444 891l-131 -619q-12 -52 -12 -90q0 -45 24.5 -66.5t80.5 -21.5q61 0 153 29l14 -107q-80 -36 -190 -36q-113 0 -166 44t-53 140q0 41 14 112l131 615h-190l20 98h191l73 344h136l-74 -344h272l-20 -98h-273zM408 -158l-35 -161l-144 -193h-79l133 193h-82l35 161h172z
" />
    <glyph glyph-name="uni0237" unicode="&#x237;" horiz-adv-x="432" 
d="M-145 -285q79 0 113.5 46t62.5 169l223 1059h135l-231 -1095q-32 -153 -98.5 -222t-194.5 -69q-100 0 -187 32l39 101q77 -21 138 -21z" />
    <glyph glyph-name="circumflex" unicode="&#x2c6;" horiz-adv-x="817" 
d="M725 1147l-121 211l-213 -211h-129l264 287h170l138 -287h-109z" />
    <glyph glyph-name="caron" unicode="&#x2c7;" horiz-adv-x="817" 
d="M899 1454l-264 -291h-170l-137 291h108l121 -215l215 215h127z" />
    <glyph glyph-name="breve" unicode="&#x2d8;" horiz-adv-x="802" 
d="M870 1393q-24 -120 -101.5 -186t-203.5 -66q-121 0 -188.5 59t-67.5 150q0 7 4 43h115q-2 -8 -2 -35q0 -127 145 -127q77 0 124 43t59 119h116z" />
    <glyph glyph-name="dotaccent" unicode="&#x2d9;" horiz-adv-x="380" 
d="M451 1401l-41 -193h-136l41 193h136z" />
    <glyph glyph-name="ring" unicode="&#x2da;" horiz-adv-x="653" 
d="M709 1352q0 -94 -63 -158t-159 -64q-84 0 -135 51t-51 130q0 93 63.5 158t155.5 65q87 0 138 -50.5t51 -131.5zM385 1311q0 -47 28.5 -75t75.5 -28q59 0 96.5 41.5t37.5 102.5q0 51 -28.5 78.5t-78.5 27.5q-55 0 -93 -42.5t-38 -104.5z" />
    <glyph glyph-name="ogonek" unicode="&#x2db;" horiz-adv-x="495" 
d="M223 39l43 -39q-104 -67 -152 -125.5t-48 -120.5q0 -37 23.5 -57.5t62.5 -20.5q21 0 49 7l-21 -91q-21 -8 -59 -8q-70 0 -113 38t-43 104q0 87 64 167t194 146z" />
    <glyph glyph-name="tilde" unicode="&#x2dc;" horiz-adv-x="831" 
d="M616 1319q62 -45 99 -45q34 0 53.5 26t32.5 80h96q-19 -95 -66 -150.5t-112 -55.5q-33 0 -61 12t-74 41q-45 29 -70.5 40t-54.5 11q-71 0 -97 -104h-96q20 95 73 150.5t126 55.5q39 0 71 -14t80 -47z" />
    <glyph glyph-name="hungarumlaut" unicode="&#x2dd;" horiz-adv-x="858" 
d="M633 1454l-252 -291h-117l215 291h154zM940 1454l-252 -291h-119l217 291h154z" />
    <glyph glyph-name="gravecomb" unicode="&#x300;" horiz-adv-x="0" 
d="M-303 1434h143l90 -287h-106z" />
    <glyph glyph-name="acutecomb" unicode="&#x301;" horiz-adv-x="0" 
d="M59 1434l-252 -287h-124l208 287h168z" />
    <glyph glyph-name="uni0302" unicode="&#x302;" horiz-adv-x="0" 
d="M-127 1147l-121 211l-213 -211h-129l264 287h170l138 -287h-109z" />
    <glyph glyph-name="tildecomb" unicode="&#x303;" horiz-adv-x="0" 
d="M-319 1319q62 -45 98 -45q34 0 53.5 26t32.5 80h96q-19 -95 -66 -150.5t-112 -55.5q-33 0 -61 12t-74 41q-45 29 -70.5 40t-54.5 11q-70 0 -96 -104h-97q20 95 73 150.5t126 55.5q39 0 71.5 -14t80.5 -47z" />
    <glyph glyph-name="uni0304" unicode="&#x304;" horiz-adv-x="0" 
d="M-33 1327l-22 -106h-518l22 106h518z" />
    <glyph glyph-name="uni0306" unicode="&#x306;" horiz-adv-x="0" 
d="M-18 1393q-24 -120 -102 -186t-204 -66q-121 0 -188.5 59t-67.5 150q0 4 1 10.5t2 16t2 16.5h114q-2 -8 -2 -35q0 -127 146 -127q77 0 123.5 43t58.5 119h117z" />
    <glyph glyph-name="uni0307" unicode="&#x307;" horiz-adv-x="0" 
d="M-12 1401l-41 -193h-135l41 193h135z" />
    <glyph glyph-name="uni0308" unicode="&#x308;" horiz-adv-x="0" 
d="M-367 1401l-41 -193h-135l41 193h135zM-23 1401l-40 -193h-136l41 193h135z" />
    <glyph glyph-name="uni030A" unicode="&#x30a;" horiz-adv-x="0" 
d="M-43 1352q0 -95 -62.5 -158.5t-158.5 -63.5q-84 0 -135.5 51t-51.5 130q0 93 64 158t156 65q86 0 137 -50.5t51 -131.5zM-367 1311q0 -47 29 -75t76 -28q59 0 96 41.5t37 102.5q0 51 -28.5 78.5t-78.5 27.5q-55 0 -93 -42.5t-38 -104.5z" />
    <glyph glyph-name="uni030B" unicode="&#x30b;" horiz-adv-x="0" 
d="M-297 1454l-252 -291h-117l215 291h154zM10 1454l-252 -291h-118l217 291h153z" />
    <glyph glyph-name="uni030C" unicode="&#x30c;" horiz-adv-x="0" 
d="M20 1454l-264 -291h-170l-137 291h109l120 -215l216 215h126z" />
    <glyph glyph-name="uni0326" unicode="&#x326;" horiz-adv-x="0" 
d="M-336 -158l-35 -161l-143 -193h-80l133 193h-82l35 161h172z" />
    <glyph glyph-name="uni0327" unicode="&#x327;" horiz-adv-x="0" 
d="M-350 -287q0 -78 -59.5 -131t-161.5 -53q-117 0 -226 68l54 73q100 -53 165 -53q66 0 100 25t34 69q0 35 -31.5 55.5t-83.5 20.5q-35 0 -59 -6l-41 49l137 207l69 -37l-94 -139h19q73 0 125.5 -39.5t52.5 -108.5z" />
    <glyph glyph-name="uni0328" unicode="&#x328;" horiz-adv-x="0" 
d="M-350 39l43 -39q-104 -67 -152.5 -125.5t-48.5 -120.5q0 -37 23.5 -57.5t62.5 -20.5q21 0 49 7l-20 -91q-21 -8 -60 -8q-70 0 -112.5 38t-42.5 104q0 87 64 167t194 146z" />
    <glyph glyph-name="uni037E" unicode="&#x37e;" horiz-adv-x="501" 
d="M291 188l-39 -188l-162 -236h-88l152 236h-86l38 188h185zM453 991l-39 -188h-172l39 188h172z" />
    <glyph glyph-name="tonos" unicode="&#x384;" horiz-adv-x="665" 
d="M479 1163h-112l147 291h152z" />
    <glyph glyph-name="dieresistonos" unicode="&#x385;" horiz-adv-x="993" 
d="M563 1208l109 246h149l-145 -246h-113zM369 1208l37 172h137l-37 -172h-137zM803 1208l37 172h135l-37 -172h-135z" />
    <glyph glyph-name="Alphatonos" unicode="&#x386;" horiz-adv-x="1335" 
d="M1047 0l-60 408h-661l-234 -408h-155l839 1454h189l221 -1454h-139zM395 530h574l-31 203l-29 193l-26 180q-23 154 -31 242q-117 -225 -342 -617zM313 1163h-112l147 291h152z" />
    <glyph glyph-name="anoteleia" unicode="&#x387;" horiz-adv-x="419" 
d="M342 719l-39 -189h-172l39 189h172z" />
    <glyph glyph-name="Epsilontonos" unicode="&#x388;" horiz-adv-x="1232" 
d="M1327 1454l-27 -121h-796l-113 -526h742l-27 -119h-739l-121 -567h815l-27 -121h-958l309 1454h942zM68 1163h-113l147 291h152z" />
    <glyph glyph-name="Etatonos" unicode="&#x389;" horiz-adv-x="1490" 
d="M1516 1454l-310 -1454h-145l145 690h-839l-146 -690h-145l309 1454h145l-137 -643h842l135 643h146zM68 1163h-113l147 291h152z" />
    <glyph glyph-name="Iotatonos" unicode="&#x38a;" horiz-adv-x="534" 
d="M545 1454l-309 -1454h-146l309 1454h146zM68 1163h-113l147 291h152z" />
    <glyph glyph-name="Omicrontonos" unicode="&#x38c;" horiz-adv-x="1523" 
d="M1487 893q0 -208 -86 -424q-85 -211 -262 -356q-175 -144 -432 -144q-265 0 -416.5 158.5t-151.5 435.5q-1 124 30.5 253t97.5 250.5t158 216t222.5 150t278.5 52.5q263 0 411 -160q150 -159 150 -432zM285 565q0 -223 113.5 -347t308.5 -124q100 -2 190 31t158.5 92
t124 137.5t90.5 168.5t53.5 184t17.5 184q0 221 -110 345t-307 124q-118 3 -223 -44t-180.5 -128.5t-130 -185.5t-81 -216.5t-24.5 -220.5zM88 1163h-113l148 291h151z" />
    <glyph glyph-name="Upsilontonos" unicode="&#x38e;" horiz-adv-x="1251" 
d="M1237 1454h170l-694 -829l-131 -625h-146l133 627l-336 827h148l278 -702zM6 1163h-112l147 291h152z" />
    <glyph glyph-name="Omegatonos" unicode="&#x38f;" horiz-adv-x="1523" 
d="M1081 121h291l-26 -121h-537l27 123q238 92 370.5 292.5t132.5 465.5q0 224 -109.5 351.5t-309.5 127.5q-137 4 -258 -63.5t-202.5 -178.5t-128 -253t-44.5 -287q0 -156 76.5 -272.5t224.5 -182.5l-27 -123h-532l26 121h301q-104 74 -159.5 196t-55.5 269
q-2 129 32 259.5t103 246.5t162 205.5t219 140t265 47.5q265 0 413 -160q150 -159 150 -434q0 -232 -105 -447q-105 -212 -299 -323zM88 1163h-113l148 291h151z" />
    <glyph glyph-name="iotadieresistonos" unicode="&#x390;" horiz-adv-x="436" 
d="M180 0h-137l209 989h137zM299 1208l109 246h149l-145 -246h-113zM104 1208l37 172h138l-37 -172h-138zM539 1208l36 172h136l-37 -172h-135z" />
    <glyph glyph-name="Alpha" unicode="&#x391;" horiz-adv-x="1333" 
d="M1047 0l-60 408h-661l-234 -408h-155l839 1454h189l221 -1454h-139zM395 530h574l-31 203l-29 193l-26 180q-23 154 -31 242q-117 -225 -342 -617z" />
    <glyph glyph-name="Beta" unicode="&#x392;" horiz-adv-x="1368" 
d="M1257 459q0 -73 -20.5 -140t-63 -125t-103 -101.5t-146 -68t-185.5 -24.5h-663l309 1454h576q172 0 277 -88t105 -236q0 -134 -78 -235.5t-212 -138.5q91 -33 147.5 -111.5t56.5 -185.5zM504 1333l-109 -510h428q194 0 287.5 81.5t93.5 223.5q0 99 -70 152t-200 53h-430z
M1114 461q0 117 -78 180.5t-225 63.5h-440l-125 -584h452q224 0 320 96q96 101 96 244z" />
    <glyph glyph-name="Gamma" unicode="&#x393;" horiz-adv-x="1148" 
d="M1262 1331h-756l-283 -1331h-147l309 1454h903z" />
    <glyph glyph-name="uni0394" unicode="&#x394;" horiz-adv-x="1333" 
d="M965 1454l221 -1454h-1249l837 1454h191zM162 123h864l-90 608l-13 77l-14 99q-43 291 -59 439q-27 -52 -254 -459l-88 -156z" />
    <glyph glyph-name="Epsilon" unicode="&#x395;" horiz-adv-x="1236" 
d="M1327 1454l-27 -121h-796l-113 -526h742l-27 -119h-739l-121 -567h815l-27 -121h-958l309 1454h942z" />
    <glyph glyph-name="Zeta" unicode="&#x396;" horiz-adv-x="1257" 
d="M1380 1454l-24 -113l-1170 -1220h908l-27 -121h-1090l23 113l1167 1220h-864l27 121h1050z" />
    <glyph glyph-name="Eta" unicode="&#x397;" horiz-adv-x="1490" 
d="M1516 1454l-310 -1454h-145l145 690h-839l-146 -690h-145l309 1454h145l-137 -643h842l135 643h146z" />
    <glyph glyph-name="Theta" unicode="&#x398;" horiz-adv-x="1527" 
d="M139 563q0 209 86 422q89 215 267 356q178 144 434 144q263 0 411 -160q150 -159 150 -432q0 -210 -86 -426q-85 -211 -262 -356q-177 -142 -432 -142q-265 0 -416.5 158.5t-151.5 435.5zM1341 891q0 221 -110 345t-307 124q-118 3 -223 -44t-180.5 -128.5t-130 -185.5
t-81 -216.5t-24.5 -220.5q0 -223 113.5 -347t308.5 -124q100 -2 190 31t158.5 92t124 137.5t90.5 168.5t53.5 184t17.5 184zM481 688l29 119h633l-27 -119h-635z" />
    <glyph glyph-name="Iota" unicode="&#x399;" horiz-adv-x="534" 
d="M545 1454l-309 -1454h-146l309 1454h146z" />
    <glyph glyph-name="Kappa" unicode="&#x39a;" horiz-adv-x="1320" 
d="M1454 1454l-680 -571l416 -883h-152l-372 791l-336 -281l-109 -510h-145l309 1454h145l-159 -754l891 754h192z" />
    <glyph glyph-name="Lambda" unicode="&#x39b;" horiz-adv-x="1267" 
d="M930 1454l190 -1454h-141l-94 731q-53 373 -68 608q-127 -256 -321 -606l-404 -733h-155l806 1454h187z" />
    <glyph glyph-name="Mu" unicode="&#x39c;" horiz-adv-x="1751" 
d="M1530 1454h246l-310 -1454h-141l152 721l139 633q-36 -65 -116 -203t-116 -201l-133 -229l-415 -721h-129l-117 723q-39 234 -94 631q-89 -451 -131 -635l-152 -719h-137l309 1454h225l105 -661q69 -442 86 -621q136 262 346 621z" />
    <glyph glyph-name="Nu" unicode="&#x39d;" horiz-adv-x="1495" 
d="M1378 1454h142l-310 -1454h-161l-312 696q-132 290 -256 586q-61 -344 -112 -559l-152 -723h-141l309 1454h162l309 -694q141 -312 256 -594q48 262 113 563z" />
    <glyph glyph-name="Xi" unicode="&#x39e;" horiz-adv-x="1294" 
d="M283 1323l26 131h1077l-26 -131h-1077zM211 684l27 129h946l-27 -129h-946zM-14 0l26 131h1110l-28 -131h-1108z" />
    <glyph glyph-name="Omicron" unicode="&#x39f;" horiz-adv-x="1527" 
d="M1487 893q0 -208 -86 -424q-85 -211 -262 -356q-175 -144 -432 -144q-265 0 -416.5 158.5t-151.5 435.5q-1 124 30.5 253t97.5 250.5t158 216t222.5 150t278.5 52.5q263 0 411 -160q150 -159 150 -432zM285 565q0 -223 113.5 -347t308.5 -124q100 -2 190 31t158.5 92
t124 137.5t90.5 168.5t53.5 184t17.5 184q0 221 -110 345t-307 124q-118 3 -223 -44t-180.5 -128.5t-130 -185.5t-81 -216.5t-24.5 -220.5z" />
    <glyph glyph-name="Pi" unicode="&#x3a0;" horiz-adv-x="1460" 
d="M1178 0h-148l285 1333h-809l-285 -1333h-145l309 1454h1102z" />
    <glyph glyph-name="Rho" unicode="&#x3a1;" horiz-adv-x="1316" 
d="M1362 1096q0 -95 -33 -181t-97 -156.5t-170 -112.5t-239 -42h-473l-129 -604h-145l309 1454h580q181 0 289 -96.5t108 -261.5zM932 1333h-428l-129 -608h416q227 0 329 102q101 104 101 265q0 117 -75.5 179t-213.5 62z" />
    <glyph glyph-name="Sigma" unicode="&#x3a3;" horiz-adv-x="1224" 
d="M1317 1454l-29 -123h-866l371 -596l-607 -612h865l-27 -123h-1047l25 115l619 630l-353 574l29 135h1020z" />
    <glyph glyph-name="Tau" unicode="&#x3a4;" horiz-adv-x="1220" 
d="M1356 1454l-27 -121h-469l-280 -1333h-148l283 1333h-467l26 121h1082z" />
    <glyph glyph-name="Upsilon" unicode="&#x3a5;" horiz-adv-x="1249" 
d="M1237 1454h170l-694 -829l-131 -625h-146l133 627l-336 827h148l278 -702z" />
    <glyph glyph-name="Phi" unicode="&#x3a6;" horiz-adv-x="1607" 
d="M788 121l-26 -121h-141l26 125q-251 23 -380.5 159t-129.5 355q-4 201 101.5 367.5t283.5 258.5t385 89l23 100h141l-22 -104q251 -23 380.5 -160t129.5 -356q3 -151 -59 -285.5t-168 -228.5t-248.5 -147.5t-295.5 -51.5zM676 242l211 993q-126 -6 -236 -51t-192 -121.5
t-129 -187t-47 -240.5q0 -168 99.5 -271.5t293.5 -121.5zM1411 838q0 168 -98.5 271.5t-292.5 121.5l-211 -991q167 8 303 82.5t217.5 209.5t81.5 306z" />
    <glyph glyph-name="Chi" unicode="&#x3a7;" horiz-adv-x="1267" 
d="M1384 1454l-614 -698l354 -756h-149l-309 659l-576 -659h-170l680 774l-321 680h149l274 -588l515 588h167z" />
    <glyph glyph-name="Psi" unicode="&#x3a8;" horiz-adv-x="1593" 
d="M1483 1454h145l-139 -653q-45 -218 -206 -344.5t-433 -126.5h-14l-70 -330h-145l69 332q-218 12 -337.5 118.5t-119.5 272.5q0 47 11 100l135 631h145l-139 -645q-8 -31 -8 -72q0 -123 90 -200t250 -84l213 1001h145l-213 -1001q193 1 322 98.5t162 255.5z" />
    <glyph glyph-name="uni03A9" unicode="&#x3a9;" horiz-adv-x="1536" 
d="M1081 121h291l-26 -121h-537l27 123q238 92 370.5 292.5t132.5 465.5q0 224 -109.5 351.5t-309.5 127.5q-137 4 -258 -63.5t-202.5 -178.5t-128 -253t-44.5 -287q0 -156 76.5 -272.5t224.5 -182.5l-27 -123h-532l26 121h301q-104 74 -159.5 196t-55.5 269
q-2 129 32 259.5t103 246.5t162 205.5t219 140t265 47.5q265 0 413 -160q150 -159 150 -434q0 -232 -105 -447q-105 -212 -299 -323z" />
    <glyph glyph-name="Iotadieresis" unicode="&#x3aa;" horiz-adv-x="534" 
d="M545 1454l-309 -1454h-146l309 1454h146zM446 1825l-40 -193h-136l41 193h135zM791 1825l-41 -193h-136l41 193h136z" />
    <glyph glyph-name="Upsilondieresis" unicode="&#x3ab;" horiz-adv-x="1249" 
d="M1237 1454h170l-694 -829l-131 -625h-146l133 627l-336 827h148l278 -702zM774 1825l-41 -193h-135l41 193h135zM1118 1825l-41 -193h-135l41 193h135z" />
    <glyph glyph-name="alphatonos" unicode="&#x3ac;" horiz-adv-x="1124" 
d="M938 989h127l-211 -989h-123l39 184q-139 -207 -358 -207q-165 0 -253.5 96.5t-88.5 268.5q-1 91 21 185.5t67.5 182.5t109 156.5t152 108.5t188.5 37q116 0 192 -50.5t103 -140.5zM844 649q0 121 -56.5 186.5t-171.5 65.5q-94 3 -175 -49.5t-131.5 -135.5t-78.5 -178.5
t-26 -183.5q0 -264 223 -264q111 -5 209.5 81.5t153.5 217.5t53 260zM766 1163h-113l148 291h151z" />
    <glyph glyph-name="epsilontonos" unicode="&#x3ad;" horiz-adv-x="989" 
d="M297 713q0 -67 58.5 -104.5t162.5 -37.5h156l-23 -104h-141q-128 0 -227 -51q-99 -52 -99 -174q0 -76 65.5 -116t194.5 -40q99 0 179.5 36t191.5 122l72 -94q-225 -177 -453 -177q-188 0 -288.5 70.5t-100.5 198.5q0 215 268 286q-75 26 -115 75.5t-40 115.5
q0 73 37.5 131.5t100.5 93.5t138 53.5t156 18.5q128 0 217.5 -31t173.5 -106l-82 -91q-69 65 -141 91t-164 26q-114 0 -205 -45q-92 -44 -92 -147zM705 1163h-113l147 291h152z" />
    <glyph glyph-name="etatonos" unicode="&#x3ae;" horiz-adv-x="1097" 
d="M999 764q0 -70 -14 -133l-211 -1000h-139l211 1002q12 61 12 112q0 160 -190 160q-129 0 -231.5 -92t-133.5 -252l-119 -561h-137l209 989h129l-31 -149q120 176 342 176q144 0 223.5 -69.5t79.5 -182.5zM745 1163h-112l147 291h152z" />
    <glyph glyph-name="iotatonos" unicode="&#x3af;" horiz-adv-x="436" 
d="M180 0h-137l209 989h137zM410 1163h-113l147 291h152z" />
    <glyph glyph-name="upsilondieresistonos" unicode="&#x3b0;" horiz-adv-x="1073" 
d="M106 307q0 49 17 129l117 553h137l-123 -581q-10 -62 -10 -95q0 -103 56 -164t163 -61q131 0 201 78t102 235l123 588h137l-129 -608q-44 -208 -147.5 -308t-294.5 -100q-166 0 -257.5 89.5t-91.5 244.5zM598 1208l109 246h149l-145 -246h-113zM403 1208l37 172h138
l-37 -172h-138zM838 1208l36 172h136l-37 -172h-135z" />
    <glyph glyph-name="alpha" unicode="&#x3b1;" horiz-adv-x="1122" 
d="M938 989h127l-211 -989h-123l39 184q-139 -207 -358 -207q-165 0 -253.5 96.5t-88.5 268.5q-1 91 21 185.5t67.5 182.5t109 156.5t152 108.5t188.5 37q116 0 192 -50.5t103 -140.5zM844 649q0 121 -56.5 186.5t-171.5 65.5q-94 3 -175 -49.5t-131.5 -135.5t-78.5 -178.5
t-26 -183.5q0 -264 223 -264q111 -5 209.5 81.5t153.5 217.5t53 260z" />
    <glyph glyph-name="beta" unicode="&#x3b2;" horiz-adv-x="1118" 
d="M1051 465q0 -137 -61 -248.5t-173.5 -176.5t-255.5 -65q-115 0 -213 54t-133 147l-119 -545h-135l301 1428q40 187 166 307q125 119 320 119q170 0 271 -86.5t101 -222.5q0 -150 -86.5 -253t-238.5 -147q113 -19 184.5 -102.5t71.5 -208.5zM907 463q0 118 -77 193
t-199 75h-105l23 115h115q131 0 225 92t94 225q0 97 -63.5 151t-174.5 54q-136 0 -227 -86t-123 -242l-116 -557q-11 -68 -11 -94q0 -134 80.5 -216.5t210.5 -82.5q157 0 252 105q96 107 96 268z" />
    <glyph glyph-name="gamma" unicode="&#x3b3;" horiz-adv-x="954" 
d="M219 -369l78 365l-160 993h135l58 -373q42 -273 65 -481q182 349 256 477l217 377h146l-580 -999l-78 -359h-137z" />
    <glyph glyph-name="delta" unicode="&#x3b4;" horiz-adv-x="1085" 
d="M70 377q-1 117 38.5 227t109.5 193.5t173 132.5t219 47q38 0 62 -6l-312 381l21 102h733l-24 -113h-558l328 -399q79 -96 114.5 -186t35.5 -191q1 -107 -39 -214.5t-110.5 -192t-174.5 -136.5t-219 -49q-187 0 -292 109t-105 295zM872 561q0 143 -65.5 224t-200.5 81
q-109 3 -203.5 -68t-146.5 -182t-49 -227q0 -137 64.5 -219t197.5 -82q84 0 160 40.5t128.5 106t83.5 151.5t31 175z" />
    <glyph glyph-name="epsilon" unicode="&#x3b5;" horiz-adv-x="989" 
d="M297 713q0 -67 58.5 -104.5t162.5 -37.5h156l-23 -104h-141q-128 0 -227 -51q-99 -52 -99 -174q0 -76 65.5 -116t194.5 -40q99 0 179.5 36t191.5 122l72 -94q-225 -177 -453 -177q-188 0 -288.5 70.5t-100.5 198.5q0 215 268 286q-75 26 -115 75.5t-40 115.5
q0 73 37.5 131.5t100.5 93.5t138 53.5t156 18.5q128 0 217.5 -31t173.5 -106l-82 -91q-69 65 -141 91t-164 26q-114 0 -205 -45q-92 -44 -92 -147z" />
    <glyph glyph-name="zeta" unicode="&#x3b6;" horiz-adv-x="972" 
d="M657 -348l-67 94q9 9 51 37q90 64 90 133q0 84 -108 84h-142q-190 0 -296.5 86t-106.5 238q0 281 227 532q231 255 567 485h-567l23 113h776l-19 -98q-354 -234 -612 -492q-256 -256 -256 -542q0 -111 72.5 -159t210.5 -48h137q108 0 166.5 -48t58.5 -133
q0 -81 -49.5 -144.5t-155.5 -137.5z" />
    <glyph glyph-name="eta" unicode="&#x3b7;" horiz-adv-x="1097" 
d="M999 764q0 -70 -14 -133l-211 -1000h-139l211 1002q12 61 12 112q0 160 -190 160q-129 0 -231.5 -92t-133.5 -252l-119 -561h-137l209 989h129l-31 -149q120 176 342 176q144 0 223.5 -69.5t79.5 -182.5z" />
    <glyph glyph-name="theta" unicode="&#x3b8;" horiz-adv-x="1122" 
d="M115 428q0 261 67 526q71 268 224 412q129 119 321 119q183 0 268 -129q86 -130 86 -330q0 -265 -69 -526q-67 -263 -221 -408q-128 -119 -324 -119q-177 0 -266 127q-86 130 -86 328zM293 791h631q20 140 20 233q0 348 -233 348q-135 0 -226 -102q-69 -73 -113.5 -191.5
t-78.5 -287.5zM711 188q127 141 196 500h-633q-24 -159 -24 -256q0 -147 51 -246q51 -100 182 -100q133 0 228 102z" />
    <glyph glyph-name="iota" unicode="&#x3b9;" horiz-adv-x="436" 
d="M180 0h-137l209 989h137z" />
    <glyph glyph-name="kappa" unicode="&#x3ba;" horiz-adv-x="980" 
d="M1020 989l-428 -381l285 -608h-140l-245 526l-244 -202l-68 -324h-137l209 989h137l-106 -500l565 500h172z" />
    <glyph glyph-name="lambda" unicode="&#x3bb;" horiz-adv-x="978" 
d="M643 1249l176 -1249h-133l-53 389q-33 245 -53 451q-107 -197 -252 -449l-230 -391h-149l598 1006l-27 213q-10 84 -35 116.5t-75 32.5q-46 0 -125 -27l-31 109q111 35 172 35q99 0 149 -58t68 -178z" />
    <glyph glyph-name="uni03BC" unicode="&#x3bc;" horiz-adv-x="1093" 
d="M899 989h137l-209 -989h-129l31 152q-61 -85 -145 -132t-170 -47q-168 0 -221 99l-95 -447h-137l289 1364h137l-133 -629q-12 -58 -12 -106q0 -83 41.5 -122.5t132.5 -39.5q132 0 232.5 94.5t137.5 268.5z" />
    <glyph glyph-name="nu" unicode="&#x3bd;" horiz-adv-x="956" 
d="M868 989h144l-557 -989h-181l-133 989h133l50 -383q41 -310 61 -508q105 209 268 506z" />
    <glyph glyph-name="xi" unicode="&#x3be;" horiz-adv-x="1019" 
d="M649 -348l-67 94q9 9 51 37q90 64 90 133q0 84 -109 84h-141q-190 0 -295.5 85.5t-105.5 238.5q0 156 100 280q100 123 260 170q-73 25 -117.5 91.5t-44.5 152.5q0 106 57 192.5t158 130.5h-213l23 113h803l-23 -113h-282q-99 0 -185 -37t-142 -112.5t-56 -173.5
q0 -90 67 -145.5t172 -55.5h266l-24 -110h-252q-115 0 -211.5 -45.5t-156.5 -134.5t-60 -205q0 -207 274 -207h144q108 0 166.5 -48t58.5 -133q0 -81 -49.5 -144.5t-155.5 -137.5z" />
    <glyph glyph-name="omicron" unicode="&#x3bf;" horiz-adv-x="1085" 
d="M1010 610q1 -82 -19.5 -170t-65.5 -172.5t-107.5 -151t-154 -106t-196.5 -37.5q-186 0 -291.5 109t-105.5 301q-1 80 19.5 166.5t65.5 171t108 151t155 106.5t198 38q183 0 288.5 -108t105.5 -298zM205 383q0 -139 69.5 -218t192.5 -79q75 -2 142 29.5t115 86t83 123.5
t51.5 142.5t15.5 142.5q0 143 -67.5 219t-194.5 76q-74 2 -141 -30t-114.5 -86.5t-83 -123t-52.5 -141.5t-16 -141z" />
    <glyph glyph-name="pi" unicode="&#x3c0;" horiz-adv-x="1179" 
d="M1014 879l-133 -629q-13 -54 -13 -84q0 -36 17.5 -53t58.5 -17q43 0 111 19l22 -107q-89 -28 -172 -28q-91 0 -132.5 39.5t-41.5 119.5q0 45 14 111l132 629h-433l-186 -879h-137l186 879h-188l24 110h1076l-25 -110h-180z" />
    <glyph glyph-name="rho" unicode="&#x3c1;" horiz-adv-x="1118" 
d="M1049 629q1 -92 -20.5 -184.5t-66.5 -177.5t-107.5 -150.5t-151 -103.5t-189.5 -36q-115 0 -192.5 49.5t-110.5 137.5l-113 -533h-137l197 922q44 215 182.5 339t335.5 124q167 0 270 -105t103 -282zM911 616q0 136 -64.5 212.5t-180.5 76.5q-118 0 -211.5 -76
t-144 -203.5t-50.5 -279.5q0 -116 67 -185t179 -69q79 -2 146.5 29.5t114.5 85t80.5 123t49 142.5t14.5 144z" />
    <glyph glyph-name="uni03C2" unicode="&#x3c2;" horiz-adv-x="962" 
d="M545 -348l-68 94q5 5 51 39q93 64 93 123q0 34 -38.5 55t-150.5 53q-364 109 -364 426q-3 157 64.5 289.5t190.5 210t273 74.5q123 0 210.5 -48.5t149.5 -148.5l-104 -71q-60 87 -118 122t-144 35q-166 0 -274.5 -128t-108.5 -322q0 -240 264 -326q23 -8 53 -16
q128 -44 163 -66q54 -34 64 -102q0 -6 1 -13q0 -78 -50.5 -142t-156.5 -138z" />
    <glyph glyph-name="sigma" unicode="&#x3c3;" horiz-adv-x="1116" 
d="M1147 989l-14 -110h-271q139 -92 139 -304q2 -111 -36.5 -219.5t-106 -195t-170 -138.5t-219.5 -49q-186 0 -292.5 109t-106.5 301q-2 113 36 222.5t106.5 195.5t173 138t226.5 50h535zM864 563q0 150 -68 233t-200 83q-86 0 -160 -42.5t-123.5 -112.5t-77.5 -159
t-28 -182q0 -140 68.5 -217.5t191.5 -77.5q112 0 205 70.5t142.5 179t49.5 225.5z" />
    <glyph glyph-name="tau" unicode="&#x3c4;" horiz-adv-x="856" 
d="M547 879l-129 -607q-12 -52 -12 -88q0 -45 24 -66.5t80 -21.5q62 0 154 29l14 -109q-86 -36 -193 -36q-113 0 -166 44t-53 140q0 36 15 112l129 603h-316l25 110h776l-25 -110h-323z" />
    <glyph glyph-name="upsilon" unicode="&#x3c5;" horiz-adv-x="1073" 
d="M106 307q0 49 17 129l117 553h137l-123 -581q-10 -62 -10 -95q0 -103 56 -164t163 -61q131 0 201 78t102 235l123 588h137l-129 -608q-44 -208 -147.5 -308t-294.5 -100q-166 0 -257.5 89.5t-91.5 244.5z" />
    <glyph glyph-name="phi" unicode="&#x3c6;" horiz-adv-x="1386" 
d="M641 -29l-72 -340h-137l72 344q-211 19 -322.5 119t-111.5 281q0 230 110.5 392.5t329.5 248.5l47 -113q-168 -66 -259 -201t-91 -323q0 -266 319 -293l121 578q37 176 122 264t224 88q149 0 234.5 -102t85.5 -285q0 -190 -78.5 -337.5t-232 -233t-361.5 -87.5zM1176 629
q0 130 -48 203t-135 73q-84 0 -134.5 -66t-78.5 -194l-116 -561q239 9 376 158q136 151 136 387z" />
    <glyph glyph-name="chi" unicode="&#x3c7;" horiz-adv-x="993" 
d="M1047 989l-515 -682l230 -676h-141l-187 564l-424 -564h-155l520 693l-225 665h141l182 -555l418 555h156z" />
    <glyph glyph-name="psi" unicode="&#x3c8;" horiz-adv-x="1435" 
d="M1260 989h137l-109 -512q-57 -259 -201 -381.5t-411 -122.5h-4l-74 -342h-137l74 346q-197 19 -304.5 125t-107.5 279q0 55 16 137l101 471h137l-105 -491q-14 -71 -14 -121q0 -131 75.5 -205t223.5 -86l266 1249h138l-267 -1251q200 4 309.5 105.5t151.5 308.5z" />
    <glyph glyph-name="omega" unicode="&#x3c9;" horiz-adv-x="1392" 
d="M70 338q0 257 106.5 423t345.5 255l47 -109q-362 -143 -362 -567q0 -113 39.5 -182.5t109.5 -69.5q200 0 258 303l50 281h137l-49 -281q-11 -75 -11 -108q0 -195 160 -195q65 -3 119.5 46.5t87 125.5t50 159.5t16.5 155.5q0 113 -50.5 194.5t-160.5 137.5l61 109
q158 -84 222.5 -189.5t64.5 -251.5q0 -78 -14.5 -160t-47.5 -162.5t-79 -143t-115.5 -100.5t-151.5 -36q-108 0 -173.5 59t-76.5 163q-38 -105 -118 -163.5t-185 -58.5q-137 0 -208.5 97t-71.5 268z" />
    <glyph glyph-name="iotadieresis" unicode="&#x3ca;" horiz-adv-x="436" 
d="M180 0h-137l209 989h137zM307 1401l-41 -193h-135l41 193h135zM651 1401l-41 -193h-135l41 193h135z" />
    <glyph glyph-name="upsilondieresis" unicode="&#x3cb;" horiz-adv-x="1073" 
d="M106 307q0 49 17 129l117 553h137l-123 -581q-10 -62 -10 -95q0 -103 56 -164t163 -61q131 0 201 78t102 235l123 588h137l-129 -608q-44 -208 -147.5 -308t-294.5 -100q-166 0 -257.5 89.5t-91.5 244.5zM606 1401l-41 -193h-135l41 193h135zM950 1401l-41 -193h-135
l41 193h135z" />
    <glyph glyph-name="omicrontonos" unicode="&#x3cc;" horiz-adv-x="1085" 
d="M1010 610q1 -82 -19.5 -170t-65.5 -172.5t-107.5 -151t-154 -106t-196.5 -37.5q-186 0 -291.5 109t-105.5 301q-1 80 19.5 166.5t65.5 171t108 151t155 106.5t198 38q183 0 288.5 -108t105.5 -298zM205 383q0 -139 69.5 -218t192.5 -79q75 -2 142 29.5t115 86t83 123.5
t51.5 142.5t15.5 142.5q0 143 -67.5 219t-194.5 76q-74 2 -141 -30t-114.5 -86.5t-83 -123t-52.5 -141.5t-16 -141zM731 1163h-113l148 291h152z" />
    <glyph glyph-name="upsilontonos" unicode="&#x3cd;" horiz-adv-x="1073" 
d="M106 307q0 49 17 129l117 553h137l-123 -581q-10 -62 -10 -95q0 -103 56 -164t163 -61q131 0 201 78t102 235l123 588h137l-129 -608q-44 -208 -147.5 -308t-294.5 -100q-166 0 -257.5 89.5t-91.5 244.5zM705 1163h-113l147 291h152z" />
    <glyph glyph-name="omegatonos" unicode="&#x3ce;" horiz-adv-x="1392" 
d="M70 338q0 257 106.5 423t345.5 255l47 -109q-362 -143 -362 -567q0 -113 39.5 -182.5t109.5 -69.5q200 0 258 303l50 281h137l-49 -281q-11 -75 -11 -108q0 -195 160 -195q65 -3 119.5 46.5t87 125.5t50 159.5t16.5 155.5q0 113 -50.5 194.5t-160.5 137.5l61 109
q158 -84 222.5 -189.5t64.5 -251.5q0 -78 -14.5 -160t-47.5 -162.5t-79 -143t-115.5 -100.5t-151.5 -36q-108 0 -173.5 59t-76.5 163q-38 -105 -118 -163.5t-185 -58.5q-137 0 -208.5 97t-71.5 268zM868 1163h-112l147 291h152z" />
    <glyph glyph-name="uni0401" unicode="&#x401;" horiz-adv-x="1236" 
d="M1327 1454l-27 -121h-796l-113 -526h742l-27 -119h-739l-121 -567h815l-27 -121h-958l309 1454h942zM831 1825l-40 -193h-136l41 193h135zM1176 1825l-41 -193h-136l41 193h136z" />
    <glyph glyph-name="uni0402" unicode="&#x402;" horiz-adv-x="1622" 
d="M1483 524q0 -249 -147 -399t-402 -150q-108 0 -201 19l33 123q84 -19 176 -19q187 0 292 110t105 298q0 262 -313 262q-104 0 -188.5 -18t-182.5 -60l-147 -690h-146l285 1333h-399l26 121h1041l-27 -121h-495l-111 -516q162 76 375 76q199 0 312.5 -100.5t113.5 -268.5z
" />
    <glyph glyph-name="uni0403" unicode="&#x403;" horiz-adv-x="1148" 
d="M1262 1331h-756l-283 -1331h-147l309 1454h903zM1143 1858l-252 -287h-125l209 287h168z" />
    <glyph glyph-name="uni0404" unicode="&#x404;" horiz-adv-x="1370" 
d="M1419 1249l-102 -82q-88 100 -177.5 145.5t-201.5 45.5q-243 0 -403 -160q-159 -156 -224 -391h684l-26 -119h-680q-10 -85 -10 -129q0 -212 112 -336.5t309 -124.5q128 0 234 56q105 54 244 178l90 -92q-271 -271 -561 -271q-181 0 -311.5 75.5t-194.5 204t-64 296.5
q0 205 84 426q85 216 268 364q181 150 459 150q147 0 262.5 -57.5t208.5 -178.5z" />
    <glyph glyph-name="uni0405" unicode="&#x405;" horiz-adv-x="1286" 
d="M1290 1257l-92 -98q-104 104 -208.5 152.5t-231.5 48.5q-160 0 -271.5 -85.5t-111.5 -211.5q0 -69 39 -111q42 -42 110 -71q81 -33 226 -78q165 -51 255 -104.5t126 -119t36 -163.5q0 -84 -35.5 -163.5t-100 -143t-166.5 -102t-224 -38.5q-166 0 -306.5 60t-289.5 184
l86 102q148 -119 267.5 -170t248.5 -51q169 0 274 92.5t105 227.5q-3 40 -11 69.5t-28 54.5t-43 42.5t-69 38t-91 36t-122 39.5q-130 41 -205.5 73t-128 74t-72.5 91t-23 123q0 83 38 160t105.5 136.5t168.5 95.5t219 36q156 0 283 -56.5t243 -169.5z" />
    <glyph glyph-name="uni0406" unicode="&#x406;" horiz-adv-x="534" 
d="M545 1454l-309 -1454h-146l309 1454h146z" />
    <glyph glyph-name="uni0407" unicode="&#x407;" horiz-adv-x="534" 
d="M545 1454l-309 -1454h-146l309 1454h146zM446 1825l-40 -193h-136l41 193h135zM791 1825l-41 -193h-136l41 193h136z" />
    <glyph glyph-name="uni0408" unicode="&#x408;" horiz-adv-x="942" 
d="M975 1454l-232 -1087q-43 -200 -143 -295t-272 -95q-196 0 -375 105l65 108q158 -88 301 -88q117 0 185 69t100 224l225 1059h146z" />
    <glyph glyph-name="uni0409" unicode="&#x409;" horiz-adv-x="2258" 
d="M2183 494q0 -226 -138.5 -360t-373.5 -134h-645l283 1333h-654l-147 -649l-23 -96q-49 -223 -94 -352q-40 -121 -119 -183.5t-213 -62.5q-85 0 -141 18l45 123q50 -12 100 -12q88 0 138 53q51 54 86 170q36 121 96 383l164 729h934l-125 -592h411q184 0 300 -103
t116 -265zM2040 487q0 114 -80 185t-215 71h-416l-131 -622h449q185 0 289 95.5t104 270.5z" />
    <glyph glyph-name="uni040A" unicode="&#x40a;" horiz-adv-x="2293" 
d="M76 0l309 1454h147l-126 -604h837l127 604h148l-125 -604h407q184 0 301 -101t117 -262q0 -221 -146 -354t-382 -133h-629l156 729h-838l-156 -729h-147zM1237 121h424q188 0 301 95.5t113 264.5q0 113 -78.5 180.5t-214.5 67.5h-418z" />
    <glyph glyph-name="uni040B" unicode="&#x40b;" horiz-adv-x="1595" 
d="M1481 582q0 -46 -13 -109l-100 -473h-145l100 467q10 48 10 94q0 105 -72.5 156t-222.5 51q-209 0 -383 -78l-145 -690h-145l282 1333h-397l24 121h1041l-25 -121h-497l-111 -516q73 35 178 55.5t211 20.5q195 0 302.5 -79t107.5 -232z" />
    <glyph glyph-name="uni040C" unicode="&#x40c;" horiz-adv-x="1300" 
d="M1452 1454l-696 -706l405 -748h-151l-371 692h-270l-146 -692h-145l307 1454h145l-135 -643h256l629 643h172zM1196 1858l-252 -287h-125l209 287h168z" />
    <glyph glyph-name="uni040E" unicode="&#x40e;" horiz-adv-x="1269" 
d="M1427 1454h-151l-651 -1010l-236 1010h-137l276 -1159l-12 -19q-65 -98 -120.5 -134t-135.5 -36q-56 0 -119 19l-41 -127q71 -21 154 -21q127 0 201.5 50.5t171.5 197.5zM1165 1802q-24 -120 -101.5 -186t-203.5 -66q-121 0 -188.5 59t-67.5 150q0 7 4 43h115
q-2 -8 -2 -35q0 -127 145 -127q77 0 124 43t59 119h116z" />
    <glyph glyph-name="uni040F" unicode="&#x40f;" horiz-adv-x="1458" 
d="M385 1454h145l-284 -1333h809l282 1333h146l-309 -1454h-476l-67 -313h-146l68 313h-477z" />
    <glyph glyph-name="uni0410" unicode="&#x410;" horiz-adv-x="1333" 
d="M1047 0l-60 408h-661l-234 -408h-155l839 1454h189l221 -1454h-139zM395 530h574l-31 203l-29 193l-26 180q-23 154 -31 242q-117 -225 -342 -617z" />
    <glyph glyph-name="uni0411" unicode="&#x411;" horiz-adv-x="1320" 
d="M76 0l309 1454h965l-27 -121h-817l-105 -487h420q191 0 301.5 -97.5t110.5 -263.5q0 -222 -140 -353.5t-370 -131.5h-647zM246 121h450q180 0 287 94.5t107 263.5q0 117 -74.5 181.5t-212.5 64.5h-428z" />
    <glyph glyph-name="uni0412" unicode="&#x412;" horiz-adv-x="1368" 
d="M1257 459q0 -73 -20.5 -140t-63 -125t-103 -101.5t-146 -68t-185.5 -24.5h-663l309 1454h576q172 0 277 -88t105 -236q0 -134 -78 -235.5t-212 -138.5q91 -33 147.5 -111.5t56.5 -185.5zM504 1333l-109 -510h428q194 0 287.5 81.5t93.5 223.5q0 99 -70 152t-200 53h-430z
M1114 461q0 117 -78 180.5t-225 63.5h-440l-125 -584h452q224 0 320 96q96 101 96 244z" />
    <glyph glyph-name="uni0413" unicode="&#x413;" horiz-adv-x="1148" 
d="M1262 1331h-756l-283 -1331h-147l309 1454h903z" />
    <glyph glyph-name="uni0414" unicode="&#x414;" horiz-adv-x="1529" 
d="M586 1454h925l-282 -1333h174l-90 -424h-146l64 303h-1122l-64 -303h-145l90 424h121q227 239 354 794zM266 121h817l256 1212h-645l-96 -424q-129 -570 -332 -788z" />
    <glyph glyph-name="uni0415" unicode="&#x415;" horiz-adv-x="1236" 
d="M1327 1454l-27 -121h-796l-113 -526h742l-27 -119h-739l-121 -567h815l-27 -121h-958l309 1454h942z" />
    <glyph glyph-name="uni0416" unicode="&#x416;" horiz-adv-x="1986" 
d="M2136 1454l-682 -711l393 -743h-153l-361 692h-231l-146 -692h-135l146 692h-205l-649 -692h-183l727 778l-358 676h147l342 -643h205l135 643h136l-136 -643h222l608 643h178z" />
    <glyph glyph-name="uni0417" unicode="&#x417;" horiz-adv-x="1304" 
d="M1192 442q0 -113 -44.5 -203t-123 -147.5t-182.5 -88t-226 -30.5q-318 0 -575 236l82 104q248 -217 498 -217q178 0 303 82q129 82 129 260q0 118 -94 186t-273 68h-237l24 119h266q160 0 273 76q112 75 112 235q0 103 -88.5 169.5t-228.5 66.5q-245 0 -494 -187l-73 103
q146 110 284.5 158.5t288.5 48.5q202 0 326.5 -97.5t124.5 -253.5q0 -142 -81.5 -238t-226.5 -142q114 -42 175 -123t61 -185z" />
    <glyph glyph-name="uni0418" unicode="&#x418;" horiz-adv-x="1497" 
d="M1354 1454h166l-308 -1454h-141l154 723q67 316 127 561q-297 -355 -502 -588l-606 -696h-166l307 1454h141l-153 -725q-93 -424 -127 -563q303 367 504 592z" />
    <glyph glyph-name="uni0419" unicode="&#x419;" horiz-adv-x="1497" 
d="M1520 1454h-166l-604 -696q-201 -225 -504 -592q34 139 127 563l153 725h-141l-307 -1454h166l606 696q205 233 502 588q-60 -245 -127 -561l-154 -723h141zM1296 1835q-23 -118 -110.5 -185t-220.5 -67q-125 0 -199 60t-74 151q0 5 4 41h119q-2 -6 -2 -27q0 -61 40 -98
t122 -37q79 0 131 44t70 118h120z" />
    <glyph glyph-name="uni041A" unicode="&#x41a;" horiz-adv-x="1300" 
d="M1452 1454l-696 -706l405 -748h-151l-371 692h-270l-146 -692h-145l307 1454h145l-135 -643h256l629 643h172z" />
    <glyph glyph-name="uni041B" unicode="&#x41b;" horiz-adv-x="1456" 
d="M-82 8l45 123q50 -12 100 -12q88 0 138 53q51 54 86 170q36 121 96 383l164 729h934l-310 -1454h-145l283 1333h-654l-147 -649l-23 -96q-49 -223 -94 -352q-40 -121 -119 -183.5t-213 -62.5q-85 0 -141 18z" />
    <glyph glyph-name="uni041C" unicode="&#x41c;" horiz-adv-x="1751" 
d="M1530 1454h246l-310 -1454h-141l152 721l139 633q-36 -65 -116 -203t-116 -201l-133 -229l-415 -721h-129l-117 723q-39 234 -94 631q-89 -451 -131 -635l-152 -719h-137l309 1454h225l105 -661q69 -442 86 -621q136 262 346 621z" />
    <glyph glyph-name="uni041D" unicode="&#x41d;" horiz-adv-x="1490" 
d="M1516 1454l-310 -1454h-145l145 690h-839l-146 -690h-145l309 1454h145l-137 -643h842l135 643h146z" />
    <glyph glyph-name="uni041E" unicode="&#x41e;" horiz-adv-x="1527" 
d="M1487 893q0 -208 -86 -424q-85 -211 -262 -356q-175 -144 -432 -144q-265 0 -416.5 158.5t-151.5 435.5q-1 124 30.5 253t97.5 250.5t158 216t222.5 150t278.5 52.5q263 0 411 -160q150 -159 150 -432zM285 565q0 -223 113.5 -347t308.5 -124q100 -2 190 31t158.5 92
t124 137.5t90.5 168.5t53.5 184t17.5 184q0 221 -110 345t-307 124q-118 3 -223 -44t-180.5 -128.5t-130 -185.5t-81 -216.5t-24.5 -220.5z" />
    <glyph glyph-name="uni041F" unicode="&#x41f;" horiz-adv-x="1460" 
d="M1178 0h-148l285 1333h-809l-285 -1333h-145l309 1454h1102z" />
    <glyph glyph-name="uni0420" unicode="&#x420;" horiz-adv-x="1316" 
d="M1362 1096q0 -95 -33 -181t-97 -156.5t-170 -112.5t-239 -42h-473l-129 -604h-145l309 1454h580q181 0 289 -96.5t108 -261.5zM932 1333h-428l-129 -608h416q227 0 329 102q101 104 101 265q0 117 -75.5 179t-213.5 62z" />
    <glyph glyph-name="uni0421" unicode="&#x421;" horiz-adv-x="1374" 
d="M1421 1249l-100 -80q-88 100 -177.5 145.5t-201.5 45.5q-124 3 -233 -45.5t-186 -130.5t-132.5 -187t-82 -217.5t-25.5 -220.5q0 -215 112.5 -339t309.5 -124q127 0 233 56q105 54 244 178l88 -90q-265 -271 -559 -271q-271 0 -422.5 160t-151.5 416q0 205 84 426
q85 216 271 364q184 150 460 150q285 0 469 -236z" />
    <glyph glyph-name="uni0422" unicode="&#x422;" horiz-adv-x="1220" 
d="M1356 1454l-27 -121h-469l-280 -1333h-148l283 1333h-467l26 121h1082z" />
    <glyph glyph-name="uni0423" unicode="&#x423;" horiz-adv-x="1269" 
d="M1276 1454h151l-800 -1229q-97 -147 -171.5 -197.5t-201.5 -50.5q-83 0 -154 21l41 127q63 -19 119 -19q80 0 135.5 36t120.5 134l12 19l-276 1159h137l236 -1010z" />
    <glyph glyph-name="uni0424" unicode="&#x424;" horiz-adv-x="1794" 
d="M1743 815q3 -198 -101 -358.5t-284.5 -249.5t-399.5 -86h-69l-41 -193h-141l41 195q-148 7 -263.5 51.5t-186.5 117t-107.5 164.5t-36.5 199q-3 200 101 362t284 251t397 86h72l36 172h142l-37 -174q149 -9 263.5 -54t186 -117.5t108 -164.5t36.5 -201zM778 244l207 987
h-49q-127 1 -243.5 -39.5t-204 -113.5t-138.5 -183t-49 -238q0 -179 120.5 -291t356.5 -122zM1593 815q0 181 -119.5 293.5t-355.5 122.5l-209 -987h49q126 -1 242 39t204 112.5t139.5 182t49.5 237.5z" />
    <glyph glyph-name="uni0425" unicode="&#x425;" horiz-adv-x="1267" 
d="M1384 1454l-614 -698l354 -756h-149l-309 659l-576 -659h-170l680 774l-321 680h149l274 -588l515 588h167z" />
    <glyph glyph-name="uni0426" unicode="&#x426;" horiz-adv-x="1501" 
d="M385 1454h145l-282 -1333h807l280 1333h146l-281 -1333h174l-92 -424h-145l63 303h-1124z" />
    <glyph glyph-name="uni0427" unicode="&#x427;" horiz-adv-x="1333" 
d="M1212 1454h146l-309 -1454h-146l137 645q-83 -32 -192 -54t-199 -22q-204 0 -310 73t-106 218q0 45 13 105l106 489h146l-107 -483q-10 -45 -10 -88q0 -99 70.5 -144t218.5 -45q196 0 397 80z" />
    <glyph glyph-name="uni0428" unicode="&#x428;" horiz-adv-x="2129" 
d="M2157 1454l-310 -1454h-1769l307 1454h145l-282 -1333h667l283 1333h145l-282 -1333h665l281 1333h150z" />
    <glyph glyph-name="uni0429" unicode="&#x429;" horiz-adv-x="2172" 
d="M1810 -303l64 303h-1798l309 1454h145l-282 -1333h667l283 1333h145l-282 -1333h668l280 1333h148l-283 -1333h172l-90 -424h-146z" />
    <glyph glyph-name="uni042A" unicode="&#x42a;" horiz-adv-x="1570" 
d="M1495 494q0 -226 -139 -360t-375 -134h-645l282 1333h-368l24 121h517l-127 -592h413q185 0 301.5 -103t116.5 -265zM1350 487q0 114 -80 185t-215 71h-416l-133 -622h450q185 0 289.5 95.5t104.5 270.5z" />
    <glyph glyph-name="uni042B" unicode="&#x42b;" horiz-adv-x="1781" 
d="M76 0l309 1454h145l-127 -592h414q184 0 300 -103t116 -265q0 -226 -138.5 -360t-373.5 -134h-645zM246 121h450q185 0 289.5 95.5t104.5 270.5q0 114 -80 185t-215 71h-416zM1806 1454l-309 -1454h-145l309 1454h145z" />
    <glyph glyph-name="uni042C" unicode="&#x42c;" horiz-adv-x="1308" 
d="M76 0l309 1454h145l-127 -592h414q184 0 300 -103t116 -265q0 -226 -138.5 -360t-373.5 -134h-645zM246 121h450q185 0 289.5 95.5t104.5 270.5q0 114 -80 185t-215 71h-416z" />
    <glyph glyph-name="uni042D" unicode="&#x42d;" horiz-adv-x="1323" 
d="M16 205l105 82q79 -99 171 -145t208 -46q229 0 395 163t219 429h-711l27 119h703q2 16 2 74q0 230 -110 353.5t-320 123.5q-113 0 -221 -40.5t-244 -137.5l-74 102q147 111 271 157t263 46q280 0 430 -160t150 -442q2 -130 -32 -262.5t-102.5 -250.5t-161.5 -209
t-219 -143t-265 -49q-300 0 -484 236z" />
    <glyph glyph-name="uni042E" unicode="&#x42e;" horiz-adv-x="2041" 
d="M2001 893q0 -208 -86 -424q-85 -211 -262 -356q-176 -144 -432 -144q-266 0 -418 158q-152 161 -152 436q0 73 8 125h-290l-146 -688h-147l309 1454h147l-139 -647h287q32 135 95.5 254t156.5 216t224 153t282 55q264 0 413.5 -159.5t149.5 -432.5zM1855 891
q0 221 -111 345t-308 124q-118 3 -223 -44t-180.5 -128.5t-130 -185.5t-81 -216.5t-24.5 -220.5q0 -224 113.5 -347.5t310.5 -123.5q201 0 346 121q148 126 217 307q71 186 71 369z" />
    <glyph glyph-name="uni042F" unicode="&#x42f;" horiz-adv-x="1351" 
d="M795 1454h579l-307 -1454h-143l120 563h-303l-577 -563h-178l594 573q-157 29 -246.5 134t-89.5 254q0 145 72 258t197 174t282 61zM719 684h350l137 649h-418q-174 0 -289.5 -99t-115.5 -269q0 -135 88 -208t248 -73z" />
    <glyph glyph-name="uni0430" unicode="&#x430;" horiz-adv-x="1122" 
d="M938 989h127l-211 -989h-123l39 184q-139 -207 -358 -207q-165 0 -253.5 96.5t-88.5 268.5q-1 91 21 185.5t67.5 182.5t109 156.5t152 108.5t188.5 37q116 0 192 -50.5t103 -140.5zM844 649q0 121 -56.5 186.5t-171.5 65.5q-94 3 -175 -49.5t-131.5 -135.5t-78.5 -178.5
t-26 -183.5q0 -264 223 -264q111 -5 209.5 81.5t153.5 217.5t53 260z" />
    <glyph glyph-name="uni0431" unicode="&#x431;" horiz-adv-x="1130" 
d="M1055 612q2 -125 -40 -242.5t-115 -205.5t-178 -140.5t-222 -50.5q-186 0 -295 117.5t-109 321.5q0 106 23 241q39 208 89.5 345t129.5 231.5t186 142t262 64.5l342 30l11 -129l-322 -26q-136 -14 -222.5 -44t-152.5 -95.5t-108 -162t-82 -255.5q63 109 171 174t241 65
q181 0 286 -101t105 -280zM920 596q0 134 -73 208.5t-206 74.5q-120 0 -216 -69.5t-147 -180t-51 -236.5q0 -142 75 -223.5t210 -81.5q117 0 212 74t145.5 189.5t50.5 244.5z" />
    <glyph glyph-name="uni0432" unicode="&#x432;" horiz-adv-x="1075" 
d="M946 313q0 -145 -105.5 -229t-283.5 -84h-502l209 989h445q137 0 219 -61t82 -168q0 -92 -57 -159.5t-152 -92.5q66 -23 105.5 -76t39.5 -119zM377 881l-68 -322h316q118 0 185 48.5t67 140.5q0 60 -45.5 96.5t-137.5 36.5h-317zM809 311q0 146 -191 146h-331l-74 -344
h332q126 0 195 51t69 147z" />
    <glyph glyph-name="uni0433" unicode="&#x433;" horiz-adv-x="847" 
d="M893 879h-516l-187 -879h-135l209 989h654z" />
    <glyph glyph-name="uni0434" unicode="&#x434;" horiz-adv-x="1183" 
d="M-98 -256l78 369h94q157 121 245 501l87 375h686l-189 -876h152l-78 -369h-131l55 256h-813l-55 -256h-131zM219 113h549l164 766h-428l-62 -265q-92 -396 -223 -501z" />
    <glyph glyph-name="uni0435" unicode="&#x435;" horiz-adv-x="1067" 
d="M958 483h-747q-8 -41 -8 -102q0 -137 67 -216t207 -79q90 0 177 47t186 158l92 -76q-211 -242 -461 -242q-189 0 -296 109t-107 295q-1 88 22 178.5t71 174.5t114 149t158.5 102.5t197.5 34.5q161 0 259.5 -91.5t98.5 -242.5q0 -108 -31 -199zM236 586h624q6 37 6 82
q0 110 -63 173.5t-178 63.5q-141 0 -242 -87t-147 -232z" />
    <glyph glyph-name="uni0436" unicode="&#x436;" horiz-adv-x="1419" 
d="M1493 989l-438 -493l248 -496h-140l-225 455h-160l-96 -455h-125l96 455h-164l-419 -455h-162l493 535l-241 454h133l223 -422h160l90 422h125l-90 -422h168l368 422h156z" />
    <glyph glyph-name="uni0437" unicode="&#x437;" horiz-adv-x="985" 
d="M866 301q0 -105 -59 -181t-150.5 -111.5t-201.5 -35.5q-229 0 -443 168l76 95q206 -150 367 -150q125 0 201.5 51t76.5 152q0 77 -60.5 121.5t-180.5 44.5h-177l23 106h176q117 0 190.5 48t73.5 145q0 68 -61 109.5t-166 41.5q-91 0 -175 -29t-183 -96l-60 94
q116 79 213 111.5t213 32.5q153 0 252.5 -72.5t99.5 -181.5q0 -95 -52 -159.5t-146 -96.5q153 -55 153 -207z" />
    <glyph glyph-name="uni0438" unicode="&#x438;" horiz-adv-x="1146" 
d="M950 989h144l-209 -989h-129l94 442q62 301 92 406q-126 -156 -235 -275l-97 -110l-413 -463h-142l209 989h129l-102 -487l-58 -254l-20 -90q112 135 324 370z" />
    <glyph glyph-name="uni0439" unicode="&#x439;" horiz-adv-x="1146" 
d="M1094 989h-144l-413 -461q-212 -235 -324 -370l20 90l58 254l102 487h-129l-209 -989h142l413 463l97 110q109 119 235 275q-30 -105 -92 -406l-94 -442h129zM1067 1411q-23 -118 -111 -185t-221 -67q-125 0 -198.5 60t-73.5 151q0 5 4 41h119q-2 -6 -2 -27
q0 -61 39.5 -98t121.5 -37q79 0 131 44t70 118h121z" />
    <glyph glyph-name="uni043A" unicode="&#x43a;" horiz-adv-x="989" 
d="M1057 989l-455 -483l275 -506h-142l-243 455h-205l-97 -455h-135l209 989h135l-90 -422h199l389 422h160z" />
    <glyph glyph-name="uni043B" unicode="&#x43b;" horiz-adv-x="1132" 
d="M-70 2l39 117q44 -8 76 -8q63 0 98 32q40 36 66 117q35 107 70 264l106 465h694l-211 -989h-135l187 879h-437l-84 -361q-53 -228 -90 -330q-37 -105 -101 -150.5t-181 -45.5q-52 0 -97 10z" />
    <glyph glyph-name="uni043C" unicode="&#x43c;" horiz-adv-x="1384" 
d="M1124 989h209l-209 -989h-127l103 487q34 166 90 406l-103 -168q-47 -78 -141 -236l-297 -489h-121l-90 496q-51 270 -67 393l-52 -244q-30 -136 -34 -158l-103 -487h-127l209 989h195l86 -459q33 -182 65 -413q153 270 238 411z" />
    <glyph glyph-name="uni043D" unicode="&#x43d;" horiz-adv-x="1116" 
d="M854 0h-135l96 455h-528l-97 -455h-135l209 989h135l-90 -422h529l90 422h135z" />
    <glyph glyph-name="uni043E" unicode="&#x43e;" horiz-adv-x="1085" 
d="M1010 610q1 -82 -19.5 -170t-65.5 -172.5t-107.5 -151t-154 -106t-196.5 -37.5q-186 0 -291.5 109t-105.5 301q-1 80 19.5 166.5t65.5 171t108 151t155 106.5t198 38q183 0 288.5 -108t105.5 -298zM205 383q0 -139 69.5 -218t192.5 -79q75 -2 142 29.5t115 86t83 123.5
t51.5 142.5t15.5 142.5q0 143 -67.5 219t-194.5 76q-74 2 -141 -30t-114.5 -86.5t-83 -123t-52.5 -141.5t-16 -141z" />
    <glyph glyph-name="uni043F" unicode="&#x43f;" horiz-adv-x="1122" 
d="M858 0h-137l186 879h-528l-186 -879h-138l211 989h803z" />
    <glyph glyph-name="uni0440" unicode="&#x440;" horiz-adv-x="1122" 
d="M1053 649q1 -92 -20.5 -187t-66.5 -183t-108 -156t-152 -108t-190 -38q-115 0 -191.5 48.5t-109.5 136.5l-113 -531h-135l289 1358h127l-39 -180q146 203 373 203q159 0 247.5 -97t88.5 -266zM918 637q0 135 -54.5 199.5t-169.5 64.5q-88 4 -170.5 -46.5t-139 -131.5
t-90 -182t-32.5 -197q0 -116 67 -185t179 -69q97 -3 178 48.5t130.5 134t76 178t25.5 186.5z" />
    <glyph glyph-name="uni0441" unicode="&#x441;" horiz-adv-x="978" 
d="M610 905q-75 2 -142 -31.5t-114.5 -90t-82 -126.5t-51 -142t-15.5 -136q0 -139 64.5 -215t189.5 -76q82 0 163.5 41t178.5 137l86 -84q-209 -209 -434 -209q-180 0 -282.5 106.5t-102.5 291.5q-1 85 21 175t68.5 175t111 151.5t155 106t192.5 37.5q122 0 208.5 -48.5
t150.5 -148.5l-103 -71q-60 87 -118 122t-144 35z" />
    <glyph glyph-name="uni0442" unicode="&#x442;" horiz-adv-x="880" 
d="M924 879h-334l-187 -879h-137l187 879h-334l24 110h805z" />
    <glyph glyph-name="uni0443" unicode="&#x443;" horiz-adv-x="952" 
d="M868 989h140l-633 -1147q-76 -139 -135.5 -186t-180.5 -51q-76 0 -135 20l35 105q54 -13 92 -13q69 0 113.5 37t101.5 142l25 43l-150 1050h131l47 -346l19 -131q30 -222 51 -410q155 300 279 525z" />
    <glyph glyph-name="uni0444" unicode="&#x444;" horiz-adv-x="1382" 
d="M1303 565q2 -120 -47 -230t-134 -190.5t-206.5 -127.5t-256.5 -46h-18l-72 -340h-129l72 344q-198 21 -317 140t-119 303q-2 122 47 233t135 192t210 128t265 45l94 438h129l-94 -442q197 -21 320 -144q121 -121 121 -303zM539 82l178 827q-141 0 -256.5 -61.5
t-182.5 -173.5t-67 -252q0 -141 88.5 -234t239.5 -106zM1167 561q0 147 -89.5 241.5t-241.5 104.5l-177 -827h19q134 0 245 60t177.5 171t66.5 250z" />
    <glyph glyph-name="uni0445" unicode="&#x445;" horiz-adv-x="942" 
d="M993 989l-432 -473l246 -516h-139l-201 430l-383 -430h-158l480 524l-228 465h139l181 -379l338 379h157z" />
    <glyph glyph-name="uni0446" unicode="&#x446;" horiz-adv-x="1153" 
d="M815 -256l55 256h-815l211 989h135l-188 -876h524l189 876h135l-189 -876h152l-78 -369h-131z" />
    <glyph glyph-name="uni0447" unicode="&#x447;" horiz-adv-x="1026" 
d="M838 989h135l-209 -989h-135l90 424q-133 -53 -275 -53q-158 0 -234.5 54t-76.5 165q0 46 10 94l66 305h135l-65 -305q-11 -57 -11 -76q0 -66 44.5 -95.5t148.5 -29.5q157 0 280 52z" />
    <glyph glyph-name="uni0448" unicode="&#x448;" horiz-adv-x="1562" 
d="M1511 989l-211 -989h-1245l209 989h135l-186 -874h420l186 874h135l-186 -874h422l186 874h135z" />
    <glyph glyph-name="uni0449" unicode="&#x449;" horiz-adv-x="1605" 
d="M1266 -256l55 256h-1266l211 989h135l-186 -874h420l186 874h135l-186 -874h422l186 874h135l-186 -874h152l-82 -371h-131z" />
    <glyph glyph-name="uni044A" unicode="&#x44a;" horiz-adv-x="1177" 
d="M1092 352q0 -167 -110.5 -259.5t-291.5 -92.5h-477l186 879h-280l22 110h418l-74 -350h240q175 0 271 -74t96 -213zM954 348q0 86 -60 132t-171 46h-262l-88 -413h297q284 0 284 235z" />
    <glyph glyph-name="uni044B" unicode="&#x44b;" horiz-adv-x="1404" 
d="M55 0l211 989h135l-73 -350h239q175 0 271 -74t96 -213q0 -167 -110.5 -259.5t-291.5 -92.5h-477zM215 113h297q285 0 285 235q0 86 -60.5 132t-173.5 46h-260zM1354 989l-209 -989h-135l209 989h135z" />
    <glyph glyph-name="uni044C" unicode="&#x44c;" horiz-adv-x="1019" 
d="M55 0l211 989h135l-73 -350h239q175 0 271 -74t96 -213q0 -167 -110.5 -259.5t-291.5 -92.5h-477zM215 113h297q285 0 285 235q0 86 -60.5 132t-173.5 46h-260z" />
    <glyph glyph-name="uni044D" unicode="&#x44d;" horiz-adv-x="1009" 
d="M934 616q2 -122 -37.5 -238.5t-109 -207.5t-175 -145.5t-227.5 -51.5q-119 0 -202.5 47t-164.5 162l99 74q72 -96 130 -132t140 -36q146 0 252 101.5t145 265.5h-485l23 106h479q2 12 2 55q0 134 -68 211.5t-198 77.5q-89 0 -164.5 -34t-165.5 -121l-80 86
q98 95 195.5 137.5t209.5 42.5q186 0 294 -106t108 -294z" />
    <glyph glyph-name="uni044E" unicode="&#x44e;" horiz-adv-x="1503" 
d="M1430 610q1 -82 -20 -170t-66.5 -172.5t-108 -151t-153.5 -106t-195 -37.5q-186 0 -292 109t-106 301q0 7 2 32.5t3 41.5h-213l-97 -457h-137l209 989h137l-92 -428h213q47 191 178 322q133 133 344 133q183 0 288.5 -108t105.5 -298zM1294 610q0 143 -67.5 219
t-194.5 76q-75 2 -142 -30t-115 -86.5t-83 -123t-51.5 -141.5t-15.5 -141q0 -140 68.5 -218.5t191.5 -78.5q76 -2 143 29.5t115 86t83 123.5t52 142.5t16 142.5z" />
    <glyph glyph-name="uni044F" unicode="&#x44f;" horiz-adv-x="1079" 
d="M561 989h465l-211 -989h-131l80 375h-209l-405 -375h-175l426 383q-112 23 -178.5 96t-66.5 170q0 157 117 248.5t288 91.5zM788 483l82 396h-305q-128 0 -203 -58t-75 -166q0 -79 63.5 -125.5t169.5 -46.5h268z" />
    <glyph glyph-name="uni0451" unicode="&#x451;" horiz-adv-x="1067" 
d="M958 483h-747q-8 -41 -8 -102q0 -137 67 -216t207 -79q90 0 177 47t186 158l92 -76q-211 -242 -461 -242q-189 0 -296 109t-107 295q-1 88 22 178.5t71 174.5t114 149t158.5 102.5t197.5 34.5q161 0 259.5 -91.5t98.5 -242.5q0 -108 -31 -199zM236 586h624q6 37 6 82
q0 110 -63 173.5t-178 63.5q-141 0 -242 -87t-147 -232zM637 1401l-41 -193h-135l41 193h135zM981 1401l-41 -193h-135l41 193h135z" />
    <glyph glyph-name="uni0452" unicode="&#x452;" horiz-adv-x="1114" 
d="M1018 743q0 -46 -17 -133l-151 -716q-32 -154 -98.5 -222.5t-196.5 -68.5q-99 0 -186 32l39 103q76 -21 137 -21q79 0 114 45.5t62 167.5l143 682q13 67 13 113q0 158 -191 158q-129 0 -231 -91.5t-133 -250.5l-115 -541h-137l254 1200h-138l21 100h137l33 154h137
l-33 -154h371l-21 -100h-370l-78 -364q118 159 332 159q144 0 223.5 -70t79.5 -182z" />
    <glyph glyph-name="uni0453" unicode="&#x453;" horiz-adv-x="847" 
d="M893 879h-516l-187 -879h-135l209 989h654zM879 1434l-252 -287h-125l209 287h168z" />
    <glyph glyph-name="uni0454" unicode="&#x454;" horiz-adv-x="983" 
d="M801 266l86 -84q-209 -209 -434 -209q-180 0 -282.5 106.5t-102.5 291.5q-1 85 21 175t68.5 175t111 151.5t155 106t192.5 37.5q122 0 208.5 -48.5t150.5 -148.5l-103 -71q-60 87 -118 122t-144 35q-144 0 -241 -100q-98 -98 -142 -244h486l-25 -106h-483q-6 -41 -6 -76
q0 -138 66.5 -214.5t193.5 -76.5q82 0 163.5 41t178.5 137z" />
    <glyph glyph-name="uni0455" unicode="&#x455;" horiz-adv-x="946" 
d="M897 854l-82 -88q-149 143 -313 143q-102 0 -171 -51.5t-69 -122.5q2 -21 7 -36t10 -27t21.5 -23t28.5 -18.5t44 -18.5t54.5 -18.5t72.5 -22.5q83 -27 127.5 -43.5t88 -39.5t63.5 -48.5t33 -61t17 -85.5q0 -138 -107 -229t-294 -91q-119 0 -218.5 45.5t-201.5 139.5
l82 88q96 -84 175.5 -123t172.5 -39q120 0 190 56t70 145q0 54 -32 82q-30 29 -77 47.5t-163 52.5q-119 35 -184 72t-88 78t-23 102q0 122 106 209.5t273 87.5q216 0 387 -162z" />
    <glyph glyph-name="uni0456" unicode="&#x456;" horiz-adv-x="438" 
d="M391 989l-209 -989h-135l209 989h135zM479 1401l-41 -193h-135l41 193h135z" />
    <glyph glyph-name="uni0457" unicode="&#x457;" horiz-adv-x="438" 
d="M391 989l-209 -989h-135l209 989h135zM309 1401l-41 -193h-135l41 193h135zM653 1401l-41 -193h-135l41 193h135z" />
    <glyph glyph-name="uni0458" unicode="&#x458;" horiz-adv-x="432" 
d="M-145 -285q79 0 113.5 46t62.5 169l223 1059h135l-231 -1095q-32 -153 -98.5 -222t-194.5 -69q-100 0 -187 32l39 101q77 -21 138 -21zM475 1401l-41 -193h-135l41 193h135z" />
    <glyph glyph-name="uni0459" unicode="&#x459;" horiz-adv-x="1720" 
d="M1626 319q0 -156 -103.5 -237.5t-277.5 -81.5h-512l187 879h-437l-84 -361q-53 -228 -90 -330q-37 -105 -101 -150.5t-181 -45.5q-52 0 -97 10l39 117q44 -8 76 -8q63 0 98 32q40 36 66 117q35 107 70 264l106 465h694l-84 -397h293q161 0 249.5 -71.5t88.5 -201.5z
M1489 324q0 73 -56 113t-159 40h-303l-78 -362h332q264 0 264 209z" />
    <glyph glyph-name="uni045A" unicode="&#x45a;" horiz-adv-x="1708" 
d="M55 0l211 989h137l-86 -397h529l86 397h135l-86 -397h295q161 0 249.5 -71.5t88.5 -201.5q0 -156 -103.5 -237.5t-277.5 -81.5h-512l102 479h-528l-102 -479h-138zM881 115h331q265 0 265 209q0 74 -56.5 113.5t-160.5 39.5h-304z" />
    <glyph glyph-name="uni045B" unicode="&#x45b;" horiz-adv-x="1114" 
d="M1018 743q0 -46 -17 -133l-129 -610h-137l129 612q13 67 13 113q0 158 -191 158q-128 0 -229 -91t-135 -251l-115 -541h-137l254 1200h-138l21 100h137l33 154h137l-33 -154h371l-21 -100h-370l-78 -364q118 159 332 159q144 0 223.5 -70t79.5 -182z" />
    <glyph glyph-name="uni045C" unicode="&#x45c;" horiz-adv-x="989" 
d="M1057 989l-455 -483l275 -506h-142l-243 455h-205l-97 -455h-135l209 989h135l-90 -422h199l389 422h160zM961 1434l-252 -287h-125l209 287h168z" />
    <glyph glyph-name="uni045E" unicode="&#x45e;" horiz-adv-x="952" 
d="M1008 989h-140l-200 -362q-124 -225 -279 -525q-21 188 -51 410l-19 131l-47 346h-131l150 -1050l-25 -43q-57 -105 -101.5 -142t-113.5 -37q-38 0 -92 13l-35 -105q59 -20 135 -20q121 4 180.5 51t135.5 186zM952 1411q-23 -118 -110.5 -185t-220.5 -67q-125 0 -199 60
t-74 151q0 5 4 41h119q-2 -6 -2 -27q0 -61 40 -98t122 -37q79 0 130.5 43.5t69.5 118.5h121z" />
    <glyph glyph-name="uni045F" unicode="&#x45f;" horiz-adv-x="1114" 
d="M330 -260l55 260h-330l211 989h135l-186 -874h524l187 874h135l-211 -989h-334l-55 -260h-131z" />
    <glyph glyph-name="uni0490" unicode="&#x490;" horiz-adv-x="1148" 
d="M76 0l309 1454h756l63 299h146l-90 -420h-754l-285 -1333h-145z" />
    <glyph glyph-name="uni0491" unicode="&#x491;" horiz-adv-x="886" 
d="M55 0l211 989h555l58 264h129l-82 -374h-549l-187 -879h-135z" />
    <glyph glyph-name="Wgrave" unicode="&#x1e80;" horiz-adv-x="1902" 
d="M1876 1454h149l-659 -1454h-184l-45 717q-20 340 -23 559q-111 -246 -262 -561l-346 -715h-189l-41 1454h140l16 -733q6 -221 6 -440v-148q104 234 275 586l360 735h152l41 -733q21 -396 24 -586q209 486 254 586zM985 1858h143l91 -287h-107z" />
    <glyph glyph-name="wgrave" unicode="&#x1e81;" horiz-adv-x="1460" 
d="M1364 991h137l-493 -991h-166l-25 346q-25 347 -29 483q-28 -63 -176 -368l-59 -121l-166 -340h-172l-63 991h131l22 -391q15 -263 21 -487q91 198 233 485l195 393h129l30 -393q25 -335 27 -492q151 336 229 488zM662 1434h143l90 -287h-107z" />
    <glyph glyph-name="Wacute" unicode="&#x1e82;" horiz-adv-x="1902" 
d="M1876 1454h149l-659 -1454h-184l-45 717q-20 340 -23 559q-111 -246 -262 -561l-346 -715h-189l-41 1454h140l16 -733q6 -221 6 -440v-148q104 234 275 586l360 735h152l41 -733q21 -396 24 -586q209 486 254 586zM1481 1858l-252 -287h-125l209 287h168z" />
    <glyph glyph-name="wacute" unicode="&#x1e83;" horiz-adv-x="1460" 
d="M1364 991h137l-493 -991h-166l-25 346q-25 347 -29 483q-28 -63 -176 -368l-59 -121l-166 -340h-172l-63 991h131l22 -391q15 -263 21 -487q91 198 233 485l195 393h129l30 -393q25 -335 27 -492q151 336 229 488zM1157 1434l-252 -287h-125l209 287h168z" />
    <glyph glyph-name="Wdieresis" unicode="&#x1e84;" horiz-adv-x="1902" 
d="M1876 1454h149l-659 -1454h-184l-45 717q-20 340 -23 559q-111 -246 -262 -561l-346 -715h-189l-41 1454h140l16 -733q6 -221 6 -440v-148q104 234 275 586l360 735h152l41 -733q21 -396 24 -586q209 486 254 586zM1118 1825l-41 -193h-135l41 193h135zM1462 1825
l-41 -193h-135l41 193h135z" />
    <glyph glyph-name="wdieresis" unicode="&#x1e85;" horiz-adv-x="1460" 
d="M1364 991h137l-493 -991h-166l-25 346q-25 347 -29 483q-28 -63 -176 -368l-59 -121l-166 -340h-172l-63 991h131l22 -391q15 -263 21 -487q91 198 233 485l195 393h129l30 -393q25 -335 27 -492q151 336 229 488zM795 1401l-41 -193h-136l41 193h136zM1139 1401
l-41 -193h-135l41 193h135z" />
    <glyph glyph-name="Ygrave" unicode="&#x1ef2;" horiz-adv-x="1249" 
d="M1237 1454h170l-694 -829l-131 -625h-146l133 627l-336 827h148l278 -702zM641 1858h143l90 -287h-106z" />
    <glyph glyph-name="ygrave" unicode="&#x1ef3;" horiz-adv-x="952" 
d="M868 989h140l-633 -1147q-76 -139 -135.5 -186t-180.5 -51q-76 0 -135 20l35 105q54 -13 92 -13q69 0 113.5 37t101.5 142l25 43l-150 1050h131l47 -346l19 -131q30 -222 51 -410q155 300 279 525zM408 1434h143l90 -287h-106z" />
    <glyph glyph-name="endash" unicode="&#x2013;" horiz-adv-x="1468" 
d="M1354 643l-25 -115h-1173l22 115h1176z" />
    <glyph glyph-name="emdash" unicode="&#x2014;" horiz-adv-x="1957" 
d="M1819 643l-23 -115h-1616l23 115h1616z" />
    <glyph glyph-name="quoteleft" unicode="&#x2018;" horiz-adv-x="385" 
d="M205 1055l37 176l151 223h86l-143 -223h82l-39 -176h-174z" />
    <glyph glyph-name="quoteright" unicode="&#x2019;" horiz-adv-x="385" 
d="M483 1454l-37 -176l-153 -223h-84l141 223h-80l37 176h176z" />
    <glyph glyph-name="quotesinglbase" unicode="&#x201a;" horiz-adv-x="378" 
d="M209 178l-37 -178l-149 -213h-78l129 213h-78l37 178h176z" />
    <glyph glyph-name="quotedblleft" unicode="&#x201c;" horiz-adv-x="718" 
d="M205 1055l37 176l151 223h86l-143 -223h82l-39 -176h-174zM539 1055l39 176l151 223h86l-143 -223h80l-37 -176h-176z" />
    <glyph glyph-name="quotedblright" unicode="&#x201d;" horiz-adv-x="718" 
d="M483 1454l-37 -176l-153 -223h-84l141 223h-80l37 176h176zM819 1454l-39 -176l-151 -223h-86l143 223h-82l39 176h176z" />
    <glyph glyph-name="quotedblbase" unicode="&#x201e;" horiz-adv-x="712" 
d="M205 178l-37 -178l-150 -213h-77l129 213h-78l37 178h176zM541 178l-37 -178l-150 -213h-78l130 213h-78l37 178h176z" />
    <glyph glyph-name="dagger" unicode="&#x2020;" 
d="M1126 887v-119h-450v-1171h-135v1171h-451v119h451v567h135v-567h450z" />
    <glyph glyph-name="daggerdbl" unicode="&#x2021;" 
d="M1126 870h-450v-514h450v-118h-450v-641h-135v641h-451v118h451v514h-451v119h451v465h135v-465h450v-119z" />
    <glyph glyph-name="bullet" unicode="&#x2022;" horiz-adv-x="1005" 
d="M858 616q0 -140 -103 -243t-243 -103q-142 0 -243 103t-101 243q0 143 101 244t243 101q140 0 243 -101.5t103 -243.5z" />
    <glyph glyph-name="ellipsis" unicode="&#x2026;" horiz-adv-x="1210" 
d="M229 188l-39 -188h-172l39 188h172zM627 188l-41 -188h-172l41 188h172zM1022 188l-39 -188h-172l39 188h172z" />
    <glyph glyph-name="perthousand" unicode="&#x2030;" horiz-adv-x="2494" 
d="M1587 356q0 -55 -13 -108.5t-41 -102t-66.5 -85t-93 -58.5t-118.5 -22q-117 0 -191.5 73.5t-74.5 194.5q0 65 22 129.5t63 118t107 87t146 33.5q113 0 186.5 -72.5t73.5 -187.5zM1102 258q0 -86 42.5 -135t117.5 -49q68 0 118.5 44.5t72.5 106t22 127.5q0 172 -160 172
q-68 0 -118.5 -44t-72.5 -103t-22 -119zM799 1153q0 -69 -21.5 -135t-61.5 -120.5t-105 -88t-144 -33.5q-117 0 -191.5 73.5t-74.5 194.5q0 65 22 129.5t63 118.5t107 87.5t146 33.5q113 0 186.5 -72.5t73.5 -187.5zM313 1055q0 -86 42.5 -135.5t117.5 -49.5
q68 0 118.5 44.5t72.5 106.5t22 128q0 172 -160 172q-68 0 -118.5 -44t-72.5 -103t-22 -119zM2337 356q0 -55 -13 -108.5t-41 -102t-66.5 -85t-93 -58.5t-118.5 -22q-117 0 -191.5 73.5t-74.5 194.5q0 65 22 129.5t63 118t107 87t146 33.5q113 0 186.5 -72.5t73.5 -187.5z
M1851 258q0 -86 42.5 -135t117.5 -49q68 0 118.5 44.5t72.5 106t22 127.5q0 172 -160 172q-68 0 -118.5 -44t-72.5 -103t-22 -119zM1509 1421l78 -63l-1278 -1387l-73 66z" />
    <glyph glyph-name="guilsinglleft" unicode="&#x2039;" horiz-adv-x="700" 
d="M664 958l-390 -452l189 -428h-133l-193 440l377 440h150z" />
    <glyph glyph-name="guilsinglright" unicode="&#x203a;" horiz-adv-x="700" 
d="M379 958l192 -440l-376 -440h-150l387 452l-186 428h133z" />
    <glyph glyph-name="fraction" unicode="&#x2044;" horiz-adv-x="452" 
d="M840 1421l78 -63l-1278 -1387l-74 66z" />
    <glyph glyph-name="Euro" unicode="&#x20ac;" horiz-adv-x="1249" 
d="M506 928h561l-23 -105h-577q-33 -99 -49 -217h581l-22 -104h-567v-27q0 -190 79.5 -288.5t231.5 -98.5q91 0 162.5 24t169.5 87l57 -101q-103 -69 -193 -99t-196 -30q-216 0 -331.5 131.5t-115.5 362.5v39h-159l22 104h146q12 96 45 217h-146l23 105h160q86 219 241 356
q157 139 379 139q118 0 206 -34.5t163 -104.5l-86 -90q-68 60 -134 85.5t-157 25.5q-154 0 -273.5 -100t-197.5 -277z" />
    <glyph glyph-name="uni20B9" unicode="&#x20b9;" 
d="M1276 1284h-272q91 -91 94 -235h127l-21 -107h-117q-31 -158 -153 -252t-338 -94h-242l520 -596h-172l-512 596l23 106h360q163 0 259.5 63t123.5 177h-692l21 107h682q-4 113 -75 169t-198 56h-360l2 10l22 109h940z" />
    <glyph glyph-name="uni20BA" unicode="&#x20ba;" 
d="M1001 604l119 -18l-51 -129q-45 -110 -95 -187.5t-106.5 -129.5t-129.5 -82.5t-154 -43.5t-191 -14h-200l116 549l-215 -88l25 106l213 86l51 246l-213 -88l23 107l213 88l81 387h138l-70 -326l397 162l-22 -107l-398 -161l-51 -246l398 164l-23 -107l-397 -162
l-105 -491h27q99 1 168 10.5t130.5 32.5t107 65t86.5 104.5t81 155.5z" />
    <glyph glyph-name="uni20BD" unicode="&#x20bd;" horiz-adv-x="1249" 
d="M745 600h-303l-45 -213h463l-22 -104h-463l-60 -283h-137l60 283h-201l22 104h201l45 213h-201l23 105h201l145 688h391q171 0 276 -93t105 -256q0 -92 -31 -171.5t-91 -141t-157 -96.5t-221 -35zM586 1274l-121 -569h258q195 0 293 90t98 243q0 116 -70.5 176t-199.5 60
h-258z" />
    <glyph glyph-name="uni2116" unicode="&#x2116;" horiz-adv-x="1988" 
d="M1538 1098q0 96 37 179t112 137t173 54q117 0 179 -67.5t62 -186.5q0 -148 -90.5 -257t-236.5 -109q-114 0 -175 66.5t-61 183.5zM72 0l309 1454h166l278 -690q61 -157 115 -307q65 -181 109 -287q76 396 112 561l154 723h143l-309 -1454h-166l-283 690q-50 120 -135 354
q-85 231 -88 238q-47 -263 -110 -563l-152 -719h-143zM1987 1223q0 149 -129 149q-99 0 -152 -86q-53 -83 -53 -194q0 -146 127 -146q94 0 151 84q56 83 56 193zM1454 657l21 99h516l-21 -99h-516z" />
    <glyph glyph-name="uni2117" unicode="&#x2117;" horiz-adv-x="1753" 
d="M123 727q-3 206 98 381.5t276 276t380 96.5q154 3 294.5 -56t241.5 -160t160 -242t57 -296q2 -155 -57 -296t-160 -242t-241.5 -160t-294.5 -56q-205 -4 -380 96.5t-276 276t-98 381.5zM1513 727q3 181 -80 332.5t-230.5 238.5t-325.5 84q-178 3 -325.5 -84t-231 -238.5
t-80.5 -332.5q-3 -181 80.5 -332.5t231 -238.5t325.5 -84q178 -3 325.5 84t230.5 238.5t80 332.5zM606 303v846h338q121 0 198 -73t77 -189q0 -120 -74 -184t-201 -64h-215v-336h-123zM729 741h184q91 0 137 39t46 109t-47 110.5t-136 40.5h-184v-299z" />
    <glyph glyph-name="trademark" unicode="&#x2122;" horiz-adv-x="1955" 
d="M764 1454v-92h-287v-700h-108v700h-287v92h682zM1792 1454v-792h-102v665l-277 -665h-104l-285 657v-657h-104v792h159l283 -666l270 666h160z" />
    <glyph glyph-name="uni2126" unicode="&#x2126;" horiz-adv-x="1536" 
d="M1081 121h291l-26 -121h-537l27 123q238 92 370.5 292.5t132.5 465.5q0 224 -109.5 351.5t-309.5 127.5q-137 4 -258 -63.5t-202.5 -178.5t-128 -253t-44.5 -287q0 -156 76.5 -272.5t224.5 -182.5l-27 -123h-532l26 121h301q-104 74 -159.5 196t-55.5 269
q-2 129 32 259.5t103 246.5t162 205.5t219 140t265 47.5q265 0 413 -160q150 -159 150 -434q0 -232 -105 -447q-105 -212 -299 -323z" />
    <glyph glyph-name="uni2154" unicode="&#x2154;" horiz-adv-x="2107" 
d="M258 659h510l-25 -102h-630l10 47q28 123 111 205.5t229 148.5l65 31q95 44 138 66q46 27 69 58.5t23 78.5q0 54 -42.5 84.5t-113.5 30.5q-66 0 -122 -23t-142 -84l-62 86q92 70 169 98.5t157 28.5q122 0 197 -58t75 -149q0 -86 -36 -139q-38 -53 -109 -94
q-68 -39 -221 -111q-111 -50 -168.5 -95t-81.5 -108zM1673 1421l78 -63l-1278 -1387l-74 66zM2048 836l-20 -101l-330 -235q122 1 189 -58t67 -159q0 -123 -90.5 -213t-247.5 -90q-178 0 -338 104l74 88q77 -48 138.5 -67t129.5 -19q91 0 152 53.5t61 132.5
q0 67 -43.5 102.5t-128.5 35.5q-80 0 -107 -15l-49 76l365 262h-418l21 103h575z" />
    <glyph glyph-name="oneeighth" unicode="&#x215b;" horiz-adv-x="1888" 
d="M526 1393h90l-178 -836h-116l143 674l-186 -117l-48 90zM1462 1421l78 -63l-1278 -1387l-74 66zM1745 276q0 -127 -91.5 -205.5t-252.5 -78.5q-148 0 -229.5 60.5t-81.5 156.5q0 94 52 160t158 94q-92 53 -92 164q0 105 87 173t225 68q131 0 203.5 -56.5t72.5 -145.5
q0 -155 -172 -217q57 -26 89 -72t32 -101zM1317 614q0 -52 42.5 -85t110.5 -33q94 0 152.5 43.5t58.5 117.5q0 54 -44 83.5t-124 29.5q-95 0 -145.5 -44.5t-50.5 -111.5zM1626 276q0 59 -45.5 94.5t-128.5 35.5q-118 0 -182 -53t-64 -128q0 -57 53 -94t144 -37
q100 0 161.5 50t61.5 132z" />
    <glyph glyph-name="threeeighths" unicode="&#x215c;" horiz-adv-x="2088" 
d="M881 1393l-21 -101l-330 -235q122 1 189 -58t67 -159q0 -123 -90 -213t-247 -90q-178 0 -338 104l73 88q77 -48 138.5 -67t130.5 -19q91 0 152 53.5t61 132.5q0 67 -43.5 102.5t-128.5 35.5q-80 0 -107 -15l-49 76l364 262h-417l20 103h576zM1663 1421l78 -63
l-1278 -1387l-74 66zM1946 276q0 -127 -91.5 -205.5t-252.5 -78.5q-148 0 -230 60.5t-82 156.5q0 94 52.5 160t158.5 94q-92 53 -92 164q0 105 86.5 173t224.5 68q131 0 204 -56.5t73 -145.5q0 -155 -172 -217q57 -26 89 -72t32 -101zM1518 614q0 -52 42.5 -85t110.5 -33
q94 0 152.5 43.5t58.5 117.5q0 54 -44 83.5t-124 29.5q-95 0 -145.5 -44.5t-50.5 -111.5zM1827 276q0 59 -45.5 94.5t-128.5 35.5q-118 0 -182 -53t-64 -128q0 -57 53 -94t144 -37q100 0 161.5 50t61.5 132z" />
    <glyph glyph-name="fiveeighths" unicode="&#x215d;" horiz-adv-x="2109" 
d="M872 1290h-428l-67 -243q77 53 194 53q112 0 179 -65.5t67 -162.5q0 -46 -13.5 -92t-43 -90t-71.5 -77t-105 -53.5t-138 -20.5q-172 0 -319 108l72 88q73 -51 127.5 -71.5t122.5 -20.5q105 0 176 64t71 157q0 63 -41.5 99t-119.5 36q-111 0 -203 -71l-92 12l129 453h524z
M1683 1421l78 -63l-1278 -1387l-73 66zM1966 276q0 -127 -91.5 -205.5t-252.5 -78.5q-148 0 -229.5 60.5t-81.5 156.5q0 94 52.5 160t158.5 94q-92 53 -92 164q0 105 86.5 173t224.5 68q131 0 203.5 -56.5t72.5 -145.5q0 -155 -172 -217q57 -26 89 -72t32 -101zM1538 614
q0 -51 43 -84.5t111 -33.5q94 0 152.5 43.5t58.5 117.5q0 54 -44 83.5t-124 29.5q-95 0 -146 -44.5t-51 -111.5zM1847 276q0 59 -45.5 94.5t-128.5 35.5q-118 0 -182 -53t-64 -128q0 -57 53 -94t144 -37q100 0 161.5 50t61.5 132z" />
    <glyph glyph-name="seveneighths" unicode="&#x215e;" horiz-adv-x="1935" 
d="M242 1393h645l-23 -97q-184 -156 -312.5 -350.5t-186.5 -388.5h-129q50 179 178 379q133 207 305 354h-498zM1509 1421l78 -63l-1278 -1387l-73 66zM1792 276q0 -127 -91.5 -205.5t-252.5 -78.5q-148 0 -229.5 60.5t-81.5 156.5q0 94 52.5 160t158.5 94q-93 53 -93 164
q0 105 87 173t225 68q131 0 203.5 -56.5t72.5 -145.5q0 -155 -172 -217q57 -26 89 -72t32 -101zM1364 614q0 -51 43 -84.5t111 -33.5q94 0 152.5 43.5t58.5 117.5q0 54 -44 83.5t-124 29.5q-95 0 -146 -44.5t-51 -111.5zM1673 276q0 59 -45.5 94.5t-128.5 35.5
q-118 0 -182 -53t-64 -128q0 -57 53 -94t144 -37q100 0 161.5 50t61.5 132z" />
    <glyph glyph-name="arrowleft" unicode="&#x2190;" horiz-adv-x="1884" 
d="M1782 754v-113h-1497l563 -557l-88 -86l-699 698l699 697l88 -88l-561 -551h1495z" />
    <glyph glyph-name="arrowup" unicode="&#x2191;" horiz-adv-x="1476" 
d="M1395 911l-82 -86l-506 512v-1337h-131v1341l-508 -516l-86 86l657 658z" />
    <glyph glyph-name="arrowright" unicode="&#x2192;" horiz-adv-x="1884" 
d="M1124 1393l699 -697l-699 -698l-86 86l564 557h-1500v113h1495l-559 551z" />
    <glyph glyph-name="arrowdown" unicode="&#x2193;" horiz-adv-x="1476" 
d="M1313 629l82 -86l-656 -658l-657 658l86 86l508 -516v1341h131v-1337z" />
    <glyph glyph-name="uni2196" unicode="&#x2196;" horiz-adv-x="1476" 
d="M1415 266l-84 -84l-1067 1065v-784h-121v991h992v-117h-789z" />
    <glyph glyph-name="uni2197" unicode="&#x2197;" horiz-adv-x="1476" 
d="M342 1454h991v-991h-119v786l-1067 -1067l-86 84l1072 1071h-791v117z" />
    <glyph glyph-name="uni2198" unicode="&#x2198;" horiz-adv-x="1476" 
d="M1214 991h119v-991h-991v117h791l-1072 1071l86 84l1067 -1067v786z" />
    <glyph glyph-name="uni2199" unicode="&#x2199;" horiz-adv-x="1476" 
d="M1415 1188l-1069 -1071h789v-117h-992v991h121v-784l1067 1065z" />
    <glyph glyph-name="partialdiff" unicode="&#x2202;" horiz-adv-x="1126" 
d="M1044 600q0 -290 -129 -463q-126 -170 -356 -170q-138 0 -248.5 71t-169.5 186.5t-59 248.5q0 99 32.5 190.5t89.5 160.5t141.5 110t182.5 41q132 0 233.5 -62.5t156.5 -171.5q-31 267 -185.5 420t-449.5 197l30 110q356 -44 543.5 -265.5t187.5 -602.5zM895 471
q0 162 -100.5 273.5t-251.5 111.5q-147 0 -236 -111q-86 -109 -86 -274t93 -275t245 -110q148 0 242 110.5t94 274.5z" />
    <glyph glyph-name="uni2206" unicode="&#x2206;" horiz-adv-x="1333" 
d="M965 1454l221 -1454h-1249l837 1454h191zM162 123h864l-90 608l-13 77l-14 99q-43 291 -59 439q-27 -52 -254 -459l-88 -156z" />
    <glyph glyph-name="product" unicode="&#x220f;" horiz-adv-x="1462" 
d="M1327 1454v-1679h-145v1558h-820v-1558h-145v1679h1110z" />
    <glyph glyph-name="summation" unicode="&#x2211;" horiz-adv-x="1214" 
d="M1139 1454v-121h-820l521 -715l-527 -724h881v-121h-1051v110l529 735l-522 725v111h989z" />
    <glyph glyph-name="minus" unicode="&#x2212;" horiz-adv-x="1228" 
d="M1147 692v-114h-1065v114h1065z" />
    <glyph glyph-name="radical" unicode="&#x221a;" horiz-adv-x="1228" 
d="M1122 1454h148l-531 -1454h-194l-381 989h149l330 -878z" />
    <glyph glyph-name="infinity" unicode="&#x221e;" horiz-adv-x="1634" 
d="M1532 594q0 -137 -89 -231.5t-222 -94.5q-106 0 -194.5 53t-192.5 171l-17 18q-124 -135 -211 -191q-80 -51 -198 -51q-129 0 -217.5 94.5t-88.5 231.5q0 140 93.5 234t238.5 94q103 0 185.5 -52.5t185.5 -175.5l8 -10q111 126 203.5 182t185.5 56q147 0 238.5 -94
t91.5 -234zM743 592l-12 14l-41 45q-77 90 -127 125q-52 37 -131 37q-99 0 -156 -60.5t-57 -160.5q0 -97 54.5 -158t140.5 -61t157 47q70 49 172 172zM1417 592q0 100 -57 160.5t-158 60.5q-159 0 -315 -217l18 -25q84 -101 154.5 -149.5t152.5 -48.5q94 0 149.5 59.5
t55.5 159.5z" />
    <glyph glyph-name="integral" unicode="&#x222b;" horiz-adv-x="1228" 
d="M365 -397q-93 0 -187 30l31 105q94 -23 149 -23q76 0 108 45t32 144v1284q0 140 74 218.5t210 78.5q95 0 195 -35l-31 -107q-86 27 -147 27q-90 0 -128 -47t-38 -158v-1265q0 -297 -268 -297z" />
    <glyph glyph-name="approxequal" unicode="&#x2248;" horiz-adv-x="1226" 
d="M635 877q73 -32 109 -43t75 -11q53 0 94 21q39 20 113 88l72 -72q-83 -89 -140 -117q-53 -26 -139 -26q-44 0 -85 12t-122 45q-72 31 -116 44t-86 13q-60 0 -103.5 -22t-105.5 -84l-72 72q73 80 137.5 111.5t145.5 31.5q50 0 95 -14t128 -49zM635 467q72 -31 108.5 -42
t75.5 -11q55 0 94 20t113 88l72 -71q-83 -89 -140 -117q-56 -27 -139 -27q-44 0 -84 12t-123 46q-72 31 -116 44t-86 13q-60 0 -103.5 -22.5t-105.5 -84.5l-72 72q73 80 137.5 111.5t145.5 31.5q50 0 95 -14t128 -49z" />
    <glyph glyph-name="notequal" unicode="&#x2260;" horiz-adv-x="1228" 
d="M1147 782h-424l-109 -295h533v-114h-574l-96 -260h-125l97 260h-367v114h407l109 295h-516v115h559l90 248h125l-90 -248h381v-115z" />
    <glyph glyph-name="lessequal" unicode="&#x2264;" horiz-adv-x="1228" 
d="M1106 1075v-131l-834 -307l834 -307v-131l-983 368v140zM1147 115v-115h-1065v115h1065z" />
    <glyph glyph-name="greaterequal" unicode="&#x2265;" horiz-adv-x="1228" 
d="M123 1075l983 -368v-140l-983 -368v131l833 307l-833 307v131zM1147 115v-115h-1065v115h1065z" />
    <glyph glyph-name="lozenge" unicode="&#x25ca;" horiz-adv-x="1241" 
d="M713 1454l446 -729l-446 -725h-185l-446 725l446 729h185zM621 1362l-390 -637l390 -633l387 633z" />
    <glyph glyph-name="uni2923" unicode="&#x2923;" horiz-adv-x="1411" 
d="M664 1307q163 -170 233 -256q197 -232 197 -484q0 -134 -58 -256q-59 -124 -143 -227q-70 -86 -234 -260l-47 -49l-94 90l41 43q157 167 217 239q180 216 180 420q0 129 -57 240q-57 118 -137 209q-87 100 -240 260l-96 98v-526h-115v719h717v-111h-510l92 -96z" />
    <glyph glyph-name="uni2924" unicode="&#x2924;" horiz-adv-x="1273" 
d="M311 1567h717v-719h-113v526l-96 -98q-163 -171 -241 -260q-195 -230 -195 -449q0 -116 51 -221q48 -98 131 -201q70 -84 221 -241l37 -39l-96 -90l-47 49q-164 174 -234 260q-200 242 -200 483q0 141 55 260q57 121 141 224q64 80 234 256l53 53l92 96h-510v111z" />
    <glyph glyph-name="uni2925" unicode="&#x2925;" horiz-adv-x="1411" 
d="M842 571h112v-718h-716v110h510l-93 96l-53 54q-163 170 -233 256q-197 232 -197 483q0 136 57 256q57 121 144 227q76 94 233 260l47 50l97 -91l-37 -38q-150 -156 -221 -244q-183 -216 -183 -420q0 -127 58 -240q61 -118 137 -209q78 -89 241 -260l97 -100v528z" />
    <glyph glyph-name="uni2926" unicode="&#x2926;" horiz-adv-x="1275" 
d="M401 59l-92 -96h512v-110h-719v718h115v-526l96 98q179 187 240 260q197 226 197 449q0 110 -54 221q-52 107 -129 199q-71 88 -221 244l-37 38l94 91l52 -54q143 -149 233 -260q199 -241 199 -479q0 -138 -58 -260q-53 -115 -139 -221q-76 -93 -233 -254z" />
    <glyph glyph-name="uniE000" unicode="&#xe000;" horiz-adv-x="3670" 
d="M645 0h-543v471h27q78 -206 215.5 -325t296.5 -119q124 0 195 77q71 80 71 189q0 111 -78 192q-46 46 -100 71.5t-176 64.5q-121 35 -190 68t-127 91q-119 119 -119 295q0 160 100 269.5t258 109.5h498v-403h-21q-34 58 -48 81t-43.5 62.5t-63.5 73.5q-156 159 -324 159
q-91 0 -162 -51q-71 -53 -71 -172q0 -48 18.5 -98t50.5 -82q46 -46 107.5 -73.5t181.5 -63.5q138 -40 216.5 -77.5t143.5 -102.5q49 -47 76 -119.5t27 -157.5q0 -200 -113 -315t-303 -115zM1030 1454h768q143 2 268.5 -57t212 -161t135.5 -241t48 -293q1 -106 -24 -206
t-79 -191.5t-132.5 -159.5t-193.5 -107.5t-253 -37.5h-748v27h41q116 0 169.5 48.5t53.5 153.5v996q0 104 -54 153t-169 49h-43v27zM2353 27h33q117 0 171 49t54 153v996q0 106 -54 154t-171 48h-35v27h787v-27h-56q-116 0 -168.5 -48t-52.5 -154v-996q0 -113 34 -157.5
t120 -44.5h135q57 3 93 18t81.5 67t93.5 139.5t125 248.5h25v-500h-1215v27zM3387 1454v-27h-41v-110h-30v110h-41v27h112zM3568 1454v-137h-31v100l-39 -100h-23l-36 100v-100h-31v137h47l33 -92l35 92h45zM2195 674q0 195 -35 343t-96 236t-138 131t-167 43h-133
q-47 0 -63.5 -20t-16.5 -74v-1134q0 -84 56.5 -128t162.5 -44q226 0 328 182q102 184 102 465z" />
    <glyph glyph-name="uniE001" unicode="&#xe001;" horiz-adv-x="2070" 
d="M1034 -168q-207 0 -393 88q-248 116 -393.5 348t-145.5 498q0 205 88 391q116 249 347 394t499 145q208 0 394 -88q247 -116 392.5 -348t145.5 -498q0 -205 -88 -391q-116 -248 -347 -393.5t-499 -145.5zM1937 762q0 256 -139 483q-137 224 -381 338q-185 84 -381 84
q-258 0 -485 -139q-221 -135 -336 -381q-84 -185 -84 -381q0 -258 139 -485q135 -219 383 -336q185 -84 381 -84q169 0 328.5 61.5t289 180.5t201.5 278q84 185 84 381zM1079 1475l17 131l92 -13l-4 -30l-47 4l-2 -19l45 -6l-4 -33l-46 7l-6 -48zM881 1481l-2 22l45 6l2 -8
q0 -4 12 -4l10 6l-2 10q0 5 -12 5h-4q-43 0 -56 16l-6 37q5 13 23 23t47 10q30 0 43 -19l4 -22l-47 -7v9q-4 4 -12 4q-11 -4 -11 -6v-9q4 -4 15 -4h4q47 -3 55 -16l4 -37q-9 -33 -67 -33q-28 0 -45 17zM1272 1434l-8 47l-11 4l-12 -41l-45 14l41 127l72 -24q26 -9 32 -33
l-14 -43q-8 -6 -20 -10l8 -29l-8 -25zM823 1442l-35 33l-8 -2l13 -41l-43 -15l-43 125l71 25q4 2 17 2q18 0 28 -10l15 -41q-3 -15 -11 -23l25 -16l8 -25zM1264 1513l14 -6q10 0 12 2l6 17q-3 6 -10 8l-14 6zM770 1501l16 6q3 0 9 6l-7 19q-6 2 -12 0l-14 -6zM643 1358
l-65 117l84 47l16 -29l-43 -25l8 -14l41 23l14 -29l-39 -23l9 -16l45 25l14 -29zM1341 1434l41 71q8 8 25 8q19 0 39 -10q39 -20 39 -53l-41 -72q-8 -8 -25 -8q-18 0 -41 10q-37 21 -37 54zM1409 1409l31 53q0 8 -10 11q-11 4 -13 2l-31 -56q0 -5 9 -8q10 -6 14 -2z
M565 1296l-65 76l-23 -18l-20 24l82 68l20 -25l-22 -18l63 -78zM1454 1343l88 99l43 -39l-16 -45l4 -4l41 22l43 -39l-88 -98l-33 29l45 51l-2 2l-47 -21l-14 15l16 47l-4 4l-45 -51zM1034 111q-143 0 -274 61q-175 82 -277 246q-100 160 -100 348q0 143 61 274
q83 177 244 277q160 100 348 100q144 0 275 -61q173 -82 276 -246q101 -157 101 -348q0 -139 -62 -275q-82 -175 -244 -276q-160 -100 -348 -100zM1661 764q0 181 -98 332q-95 153 -265 233q-132 60 -262 60q-176 0 -336 -97q-155 -96 -231 -264q-59 -130 -59 -262
q0 -176 96 -334q100 -158 266 -233q132 -60 262 -60q177 0 334 97q158 96 234 264q59 133 59 264zM475 1200l-78 66l-18 -25l-25 23l68 82l24 -21l-18 -25l76 -63zM1636 1186l19 10l24 -39l-8 -4q-1 -1 2 -12q3 -8 8 -8l9 4q4 3 0 14l-2 4q-11 26 -11 39q0 6 4 18l31 19
q30 0 51 -37q13 -16 13 -39q0 -11 -7 -22l-18 -11l-25 39l9 4q2 2 -2 13q-3 8 -9 8l-8 -4q0 -11 2 -15l2 -4q11 -37 11 -41q0 -1 -5 -16l-32 -19q-31 0 -52 37q-12 24 -12 39q0 11 6 23zM395 1075l-114 66l47 84l28 -17l-24 -43l14 -8l23 39l28 -14l-22 -41l16 -11l25 46
l26 -17zM1055 1100q0 -14 -11 -43q-24 -47 -59 -47q-33 0 -33 43q0 14 11 43q21 47 57 47q35 0 35 -43zM1694 1038l96 52l25 6l12 -43l-68 -29v-4l76 6l10 -33l-65 -37v-2l73 11l13 -37l-25 -8l-108 -13l-15 54l43 24l-2 2l-49 -2zM356 973l-125 47l17 43l94 -35l12 35
l31 -10zM1346 965q0 -14 -11 -43q-22 -48 -57 -48t-35 44q0 16 10 43q21 47 58 47q35 0 35 -43zM289 883q0 -11 -2 -13q-1 -6 -8 -10t-13 -4l-10 2q-14 8 -14 23l2 10q6 12 20 12q10 0 12 -2q13 -3 13 -18zM1739 862l133 10l6 -94l-31 -4l-4 51l-16 -2l2 -47l-33 -2l-2 47
l-18 -2l2 -49l-31 -4zM1284 541l-31 14q-38 -65 -105.5 -103t-141.5 -38q-68 0 -121 26q-77 36 -121.5 106.5t-44.5 153.5q0 44 16 97l-30 14q-21 -53 -21 -111q0 -93 50.5 -172.5t135.5 -117.5q67 -31 136 -31q86 0 160.5 43.5t117.5 118.5zM330 668l-133 -9l-4 41l45 15
l-2 2l-43 8l-5 41l136 8l2 -31l-72 -4v-4l49 -8l2 -16l-49 -15v-2l72 4zM1747 741l131 -14l-6 -68q-6 -36 -31 -45l-82 9q-20 14 -20 45v6zM1774 692l-2 -14q0 -6 4 -10l59 -6q4 0 4 10l2 14zM348 586l-131 -29l-8 33l106 24l-6 25l25 6zM1729 602l124 -41l-26 -90l-31 8
l14 49l-16 4l-14 -45l-31 11l14 45l-18 4l-14 -47l-31 8zM365 477l-93 -33q-8 0 -18.5 8t-15.5 23q-2 4 -2 19q0 25 10 28l90 33q8 0 19 -8t16 -23l4 -18q0 -19 -10 -29zM336 520l-68 -24q-5 -5 -2 -11q4 -4 6 -4l70 25l2 8q-3 6 -8 6zM1692 485l116 -61l-22 -43h-66l-2 -4
l51 -27l-20 -37l-117 62l23 43h65l2 4l-51 27zM432 389l-119 -65l-16 30l45 25l-8 12l-43 -24l-17 30l117 64l17 -29l-48 -26l7 -15l49 27zM492 305l-107 -80l-20 27l26 20v2l-39 -8l-14 23l16 12l41 4l31 49l18 15l17 -23l-25 -37l6 2l29 21zM553 217l-68 -70
q-22 -8 -45 15q-16 16 -16 41l29 28l22 -22l-16 -19q-2 -2 -0.5 -6t6.5 -4h4l51 51q0 7 -2 9q-5 4 -8 2l-21 -19l-22 23l31 30q21 6 41 -14q16 -19 16 -37zM1640 250q0 -6 -2 -8q-6 -15 -22 -15q-8 0 -10 2q-13 7 -13 23q0 6 2 8q8 14 21 14q8 0 10 -2q14 -6 14 -22z
M1495 221l80 -108l-35 -25l-35 29l-2 -2l17 -41l-33 -25l-80 109l27 18l43 -57l2 2l-19 47l13 8l36 -33l2 2l-41 58zM639 150l-55 -78q-23 -9 -47 8q-21 12 -21 35v6l57 78q3 5 18 4.5t27 -10.5q21 -15 21 -35v-8zM594 170l-43 -59q-2 -2 2 -9q7 -3 10 0l43 60q0 4 -4 8
t-8 0zM1337 123l19 -29l16 8l-10 31l27 14l8 -20l35 -109l-48 -22l-65 92l-10 21zM717 129l-51 -94l18 -10l-12 -23l-66 33l12 24l19 -10l51 96zM823 70l-8 -27l-31 10l4 13q0 6 -6 6q-4 4 -8 0l-4 -15q0 -5 6 -8l2 -2q25 -22 25 -37l-15 -39q-12 -6 -26 -6q-13 0 -17 2
q-24 9 -30 33l8 25l31 -11l-4 -12q0 -6 8 -6q4 0 6 2l4 10q0 4 -6 10h-2q-25 19 -25 37l15 41q13 8 24 8q3 0 19 -4q30 -10 30 -30zM1288 100l39 -129l-47 -14q-20 -9 -37 8l-29 92q0 18 25 27zM1395 39l-15 39l-12 -6l23 -35zM1184 70l22 -133l-61 -11l-4 27l28 4l-6 27
l-26 -4l-4 24l26 6l-4 29l-29 -6l-4 26zM989 55l-18 -133l-35 4l-10 66h-2l-9 -64l-32 4l16 134l37 -5l10 -65l2 -2l8 65zM1264 63l-9 -2q-6 0 -6 -6l23 -69q5 -5 8 -2l8 2zM1049 53v-133h-35v135z" />
    <glyph glyph-name="uniE002" unicode="&#xe002;" 
d="M1100 438q0 -83 -28 -158.5t-80.5 -137t-136.5 -100t-189 -42.5l-43 -205h-105l43 205h-166l-45 -205h-104l43 205h-236l297 1393h234l45 204h104l-43 -204h158h10l43 204h105l-48 -217q110 -30 173 -107.5t63 -191.5q0 -129 -71 -226.5t-193 -129.5q75 -34 122.5 -110
t47.5 -177zM457 1276l-101 -488h371q170 0 251 77t81 212q0 93 -65 146t-183 53h-354zM969 436q0 116 -66 177t-190 61h-381l-117 -557h393q192 0 275 92q86 95 86 227z" />
    <glyph glyph-name="Adieresis.ss02" horiz-adv-x="1333" 
d="M1047 0l-60 408h-661l-234 -408h-155l839 1454h189l221 -1454h-139zM395 530h574l-31 203l-29 193l-26 180q-23 154 -31 242q-117 -225 -342 -617zM657 1722q0 43 31 74t74 31q37 0 61.5 -24.5t24.5 -59.5q0 -41 -32 -73t-75 -32q-36 0 -60 24t-24 60zM997 1722
q0 41 32 73t75 32q36 0 60 -24t24 -60q0 -43 -31 -74t-74 -31q-35 0 -60.5 24.5t-25.5 59.5z" />
    <glyph glyph-name="Cdotaccent.ss02" horiz-adv-x="1374" 
d="M1421 1249l-100 -80q-88 100 -177.5 145.5t-201.5 45.5q-124 3 -233 -45.5t-186 -130.5t-132.5 -187t-82 -217.5t-25.5 -220.5q0 -215 112.5 -339t309.5 -124q127 0 233 56q105 54 244 178l88 -90q-265 -271 -559 -271q-271 0 -422.5 160t-151.5 416q0 205 84 426
q85 216 271 364q184 150 460 150q285 0 469 -236zM907 1718q0 44 31.5 76.5t75.5 32.5q38 0 63 -23.5t25 -60.5q0 -45 -31 -77t-78 -32q-38 0 -62 24t-24 60z" />
    <glyph glyph-name="Edieresis.ss02" horiz-adv-x="1236" 
d="M1327 1454l-27 -121h-796l-113 -526h742l-27 -119h-739l-121 -567h815l-27 -121h-958l309 1454h942zM643 1722q0 43 31 74t74 31q37 0 61.5 -24.5t24.5 -59.5q0 -41 -32 -73t-75 -32q-36 0 -60 24t-24 60zM983 1722q0 41 32 73t75 32q36 0 60 -24t24 -60q0 -43 -31 -74
t-74 -31q-35 0 -60.5 24.5t-25.5 59.5z" />
    <glyph glyph-name="Edotaccent.ss02" horiz-adv-x="1236" 
d="M1327 1454l-27 -121h-796l-113 -526h742l-27 -119h-739l-121 -567h815l-27 -121h-958l309 1454h942zM807 1718q0 45 31 77t75 32q38 0 63 -23.5t25 -60.5q0 -45 -31 -77t-77 -32q-38 0 -62 24t-24 60z" />
    <glyph glyph-name="uni0122.ss02" horiz-adv-x="1521" 
d="M778 621l25 120h624l-155 -741h-115l29 207q-85 -119 -209 -177.5t-270 -58.5q-176 0 -306.5 78.5t-196 208.5t-65.5 293q-1 108 20.5 217.5t64.5 215.5t112.5 197t158 159.5t209 106.5t257.5 36q334 0 552 -277l-106 -82q-108 126 -212 180t-247 54q-126 3 -236 -44.5
t-187 -128t-132 -185t-81 -216.5t-25 -221q0 -214 113 -339.5t325 -125.5q117 0 225.5 53.5t190.5 159t110 242.5l15 68h-488zM754 -268q0 -91 -69.5 -166.5t-164.5 -75.5l6 61q41 5 80.5 36.5t55.5 80.5q-28 -4 -35 -4q-38 0 -62 22.5t-24 57.5q0 42 31.5 71t74.5 29
q49 0 78 -29t29 -83z" />
    <glyph glyph-name="Gdotaccent.ss02" horiz-adv-x="1521" 
d="M778 621l25 120h624l-155 -741h-115l29 207q-85 -119 -209 -177.5t-270 -58.5q-176 0 -306.5 78.5t-196 208.5t-65.5 293q-1 108 20.5 217.5t64.5 215.5t112.5 197t158 159.5t209 106.5t257.5 36q334 0 552 -277l-106 -82q-108 126 -212 180t-247 54q-126 3 -236 -44.5
t-187 -128t-132 -185t-81 -216.5t-25 -221q0 -214 113 -339.5t325 -125.5q117 0 225.5 53.5t190.5 159t110 242.5l15 68h-488zM954 1718q0 44 31.5 76.5t75.5 32.5q38 0 63 -23.5t25 -60.5q0 -45 -31 -77t-78 -32q-38 0 -62 24t-24 60z" />
    <glyph glyph-name="Idieresis.ss02" horiz-adv-x="534" 
d="M545 1454l-309 -1454h-146l309 1454h146zM258 1722q0 43 30.5 74t73.5 31q37 0 62 -24.5t25 -59.5q0 -41 -32 -73t-75 -32q-36 0 -60 24t-24 60zM598 1722q0 41 32 73t75 32q36 0 59.5 -24t23.5 -60q0 -43 -30.5 -74t-73.5 -31q-35 0 -60.5 24.5t-25.5 59.5z" />
    <glyph glyph-name="Idotaccent.ss02" horiz-adv-x="534" 
d="M545 1454l-309 -1454h-146l309 1454h146zM422 1718q0 45 31 77t75 32q38 0 63 -23.5t25 -60.5q0 -45 -31 -77t-77 -32q-38 0 -62 24t-24 60z" />
    <glyph glyph-name="K.ss01" horiz-adv-x="1320" 
d="M1425 1393l-645 -523l410 -870h-152l-368 782l-342 -276l-107 -506h-145l309 1454h145l-161 -764l970 791z" />
    <glyph glyph-name="uni0136.ss01" horiz-adv-x="1320" 
d="M1425 1393l-645 -523l410 -870h-152l-368 782l-342 -276l-107 -506h-145l309 1454h145l-161 -764l970 791zM674 -158l-35 -161l-143 -193h-80l133 193h-82l35 161h172z" />
    <glyph glyph-name="uni0136.ss01.ss02" horiz-adv-x="1320" 
d="M1425 1393l-645 -523l410 -870h-152l-368 782l-342 -276l-107 -506h-145l309 1454h145l-161 -764l970 791zM678 -268q0 -91 -69.5 -166.5t-164.5 -75.5l7 61q41 5 80 36.5t55 80.5q-28 -4 -35 -4q-38 0 -62 22.5t-24 57.5q0 42 31.5 71t74.5 29q49 0 78 -29t29 -83z" />
    <glyph glyph-name="uni0136.ss02" horiz-adv-x="1320" 
d="M1454 1454l-680 -571l416 -883h-152l-372 791l-336 -281l-109 -510h-145l309 1454h145l-159 -754l891 754h192zM676 -268q0 -91 -69.5 -166.5t-164.5 -75.5l7 61q41 5 80 36.5t55 80.5q-28 -4 -35 -4q-38 0 -62 22.5t-24 57.5q0 42 31.5 71t74.5 29q49 0 78 -29t29 -83z
" />
    <glyph glyph-name="uni013B.ss02" horiz-adv-x="1075" 
d="M530 1454l-284 -1333h696l-27 -121h-839l309 1454h145zM569 -268q0 -91 -69 -166.5t-164 -75.5l6 61q41 5 80 36.5t55 80.5q-28 -4 -35 -4q-38 0 -62 22.5t-24 57.5q0 42 32 71t75 29q49 0 77.5 -29t28.5 -83z" />
    <glyph glyph-name="Ldot.ss02" horiz-adv-x="1071" 
d="M530 1454l-284 -1333h696l-27 -121h-839l309 1454h145zM666 737q0 48 32.5 81.5t81.5 33.5q38 0 66 -27t28 -65q0 -50 -32.5 -83.5t-81.5 -33.5q-38 0 -66 28t-28 66z" />
    <glyph glyph-name="uni0145.ss02" horiz-adv-x="1495" 
d="M1378 1454h142l-310 -1454h-161l-312 696q-132 290 -256 586q-61 -344 -112 -559l-152 -723h-141l309 1454h162l309 -694q141 -312 256 -594q48 262 113 563zM705 -268q0 -91 -69.5 -166.5t-164.5 -75.5l6 61q41 5 80 36.5t55 80.5q-28 -4 -34 -4q-38 0 -62 22.5
t-24 57.5q0 42 31.5 71t74.5 29q49 0 78 -29t29 -83z" />
    <glyph glyph-name="Odieresis.ss02" horiz-adv-x="1527" 
d="M1487 893q0 -208 -86 -424q-85 -211 -262 -356q-175 -144 -432 -144q-265 0 -416.5 158.5t-151.5 435.5q-1 124 30.5 253t97.5 250.5t158 216t222.5 150t278.5 52.5q263 0 411 -160q150 -159 150 -432zM285 565q0 -223 113.5 -347t308.5 -124q100 -2 190 31t158.5 92
t124 137.5t90.5 168.5t53.5 184t17.5 184q0 221 -110 345t-307 124q-118 3 -223 -44t-180.5 -128.5t-130 -185.5t-81 -216.5t-24.5 -220.5zM764 1722q0 43 30.5 74t73.5 31q37 0 61.5 -24.5t24.5 -59.5q0 -41 -32 -73t-74 -32q-36 0 -60 24t-24 60zM1104 1722q0 42 32 73.5
t74 31.5q36 0 60 -24t24 -60q0 -43 -30.5 -74t-73.5 -31q-35 0 -60.5 24.5t-25.5 59.5z" />
    <glyph glyph-name="uni0156.ss02" horiz-adv-x="1359" 
d="M874 606l295 -606h-153l-291 604h-375l-129 -604h-145l309 1454h561q181 0 291 -98q111 -99 111 -262q0 -88 -29 -169t-85.5 -149.5t-149.5 -113.5t-210 -56zM1206 1092q0 117 -77.5 179t-215.5 62h-409l-129 -608h401q218 0 324 99t106 268zM641 -268q0 -91 -69 -166.5
t-164 -75.5l6 61q41 5 80 36.5t55 80.5q-28 -4 -35 -4q-38 0 -62 22.5t-24 57.5q0 42 32 71t75 29q49 0 77.5 -29t28.5 -83z" />
    <glyph glyph-name="uni0218.ss02" horiz-adv-x="1286" 
d="M1290 1257l-92 -98q-104 104 -208.5 152.5t-231.5 48.5q-160 0 -271.5 -85.5t-111.5 -211.5q0 -69 39 -111q42 -42 110 -71q81 -33 226 -78q165 -51 255 -104.5t126 -119t36 -163.5q0 -84 -35.5 -163.5t-100 -143t-166.5 -102t-224 -38.5q-166 0 -306.5 60t-289.5 184
l86 102q148 -119 267.5 -170t248.5 -51q169 0 274 92.5t105 227.5q-3 40 -11 69.5t-28 54.5t-43 42.5t-69 38t-91 36t-122 39.5q-130 41 -205.5 73t-128 74t-72.5 91t-23 123q0 83 38 160t105.5 136.5t168.5 95.5t219 36q156 0 283 -56.5t243 -169.5zM586 -268
q0 -91 -69.5 -166.5t-164.5 -75.5l6 61q41 5 80.5 36.5t55.5 80.5q-28 -4 -35 -4q-38 0 -62 22.5t-24 57.5q0 42 31.5 71t74.5 29q49 0 78 -29t29 -83z" />
    <glyph glyph-name="uni021A.ss02" horiz-adv-x="1220" 
d="M1356 1454l-27 -121h-469l-280 -1333h-148l283 1333h-467l26 121h1082zM569 -268q0 -91 -69 -166.5t-164 -75.5l6 61q41 5 80 36.5t55 80.5q-28 -4 -35 -4q-38 0 -62 22.5t-24 57.5q0 42 32 71t75 29q49 0 77.5 -29t28.5 -83z" />
    <glyph glyph-name="Udieresis.ss02" horiz-adv-x="1406" 
d="M1442 1454l-215 -1003q-52 -239 -197 -359.5t-399 -120.5q-236 0 -356.5 93.5t-120.5 271.5q0 51 16 139l209 979h145l-213 -993q-12 -55 -12 -105q0 -128 87 -194t253 -66q187 0 296 91.5t148 273.5l211 993h148zM676 1722q0 43 30.5 74t73.5 31q37 0 61.5 -24.5
t24.5 -59.5q0 -41 -32 -73t-74 -32q-36 0 -60 24t-24 60zM1016 1722q0 42 32 73.5t74 31.5q36 0 60 -24t24 -60q0 -43 -30.5 -74t-73.5 -31q-35 0 -60.5 24.5t-25.5 59.5z" />
    <glyph glyph-name="Wdieresis.ss02" horiz-adv-x="1902" 
d="M1876 1454h149l-659 -1454h-184l-45 717q-20 340 -23 559q-111 -246 -262 -561l-346 -715h-189l-41 1454h140l16 -733q6 -221 6 -440v-148q104 234 275 586l360 735h152l41 -733q21 -396 24 -586q209 486 254 586zM930 1722q0 43 30.5 74t73.5 31q37 0 61.5 -24.5
t24.5 -59.5q0 -41 -32 -73t-74 -32q-36 0 -60 24t-24 60zM1270 1722q0 42 32 73.5t74 31.5q36 0 60 -24t24 -60q0 -43 -30.5 -74t-73.5 -31q-35 0 -60.5 24.5t-25.5 59.5z" />
    <glyph glyph-name="Ydieresis.ss02" horiz-adv-x="1249" 
d="M1237 1454h170l-694 -829l-131 -625h-146l133 627l-336 827h148l278 -702zM586 1722q0 43 30.5 74t73.5 31q37 0 61.5 -24.5t24.5 -59.5q0 -41 -32 -73t-74 -32q-36 0 -60 24t-24 60zM926 1722q0 42 32 73.5t74 31.5q36 0 60 -24t24 -60q0 -43 -30.5 -74t-73.5 -31
q-35 0 -60.5 24.5t-25.5 59.5z" />
    <glyph glyph-name="Zdotaccent.ss02" horiz-adv-x="1257" 
d="M1380 1454l-24 -113l-1170 -1220h908l-27 -121h-1090l23 113l1167 1220h-864l27 121h1050zM788 1718q0 44 31.5 76.5t75.5 32.5q38 0 63 -23.5t25 -60.5q0 -45 -31 -77t-78 -32q-38 0 -62 24t-24 60z" />
    <glyph glyph-name="adieresis.ss02" horiz-adv-x="1122" 
d="M938 989h127l-211 -989h-123l39 184q-139 -207 -358 -207q-165 0 -253.5 96.5t-88.5 268.5q-1 91 21 185.5t67.5 182.5t109 156.5t152 108.5t188.5 37q116 0 192 -50.5t103 -140.5zM844 649q0 121 -56.5 186.5t-171.5 65.5q-94 3 -175 -49.5t-131.5 -135.5t-78.5 -178.5
t-26 -183.5q0 -264 223 -264q111 -5 209.5 81.5t153.5 217.5t53 260zM461 1298q0 43 30.5 74t73.5 31q37 0 61.5 -24.5t24.5 -59.5q0 -41 -31.5 -73t-74.5 -32q-36 0 -60 24t-24 60zM801 1298q0 42 31.5 73.5t74.5 31.5q36 0 60 -24t24 -60q0 -43 -30.5 -74t-73.5 -31
q-35 0 -60.5 24.5t-25.5 59.5z" />
    <glyph glyph-name="cdotaccent.ss02" horiz-adv-x="978" 
d="M610 905q-75 2 -142 -31.5t-114.5 -90t-82 -126.5t-51 -142t-15.5 -136q0 -139 64.5 -215t189.5 -76q82 0 163.5 41t178.5 137l86 -84q-209 -209 -434 -209q-180 0 -282.5 106.5t-102.5 291.5q-1 85 21 175t68.5 175t111 151.5t155 106t192.5 37.5q122 0 208.5 -48.5
t150.5 -148.5l-103 -71q-60 87 -118 122t-144 35zM606 1294q0 44 31.5 76.5t75.5 32.5q38 0 63 -23.5t25 -60.5q0 -45 -31 -77t-78 -32q-38 0 -62 24t-24 60z" />
    <glyph glyph-name="edieresis.ss02" horiz-adv-x="1067" 
d="M958 483h-747q-8 -41 -8 -102q0 -137 67 -216t207 -79q90 0 177 47t186 158l92 -76q-211 -242 -461 -242q-189 0 -296 109t-107 295q-1 88 22 178.5t71 174.5t114 149t158.5 102.5t197.5 34.5q161 0 259.5 -91.5t98.5 -242.5q0 -108 -31 -199zM236 586h624q6 37 6 82
q0 110 -63 173.5t-178 63.5q-141 0 -242 -87t-147 -232zM449 1298q0 43 30.5 74t73.5 31q37 0 61.5 -24.5t24.5 -59.5q0 -41 -32 -73t-75 -32q-36 0 -59.5 24t-23.5 60zM788 1298q0 41 32 73t75 32q36 0 60 -24t24 -60q0 -43 -31 -74t-74 -31q-35 0 -60.5 24.5t-25.5 59.5z
" />
    <glyph glyph-name="edotaccent.ss02" horiz-adv-x="1067" 
d="M958 483h-747q-8 -41 -8 -102q0 -137 67 -216t207 -79q90 0 177 47t186 158l92 -76q-211 -242 -461 -242q-189 0 -296 109t-107 295q-1 88 22 178.5t71 174.5t114 149t158.5 102.5t197.5 34.5q161 0 259.5 -91.5t98.5 -242.5q0 -108 -31 -199zM236 586h624q6 37 6 82
q0 110 -63 173.5t-178 63.5q-141 0 -242 -87t-147 -232zM612 1294q0 44 31.5 76.5t75.5 32.5q38 0 63 -23.5t25 -60.5q0 -45 -31 -77t-78 -32q-38 0 -62 24t-24 60z" />
    <glyph glyph-name="uni0123.ss02" horiz-adv-x="1107" 
d="M932 989h127l-209 -983q-43 -199 -153 -297t-300 -98q-210 0 -417 151l73 95q96 -69 177.5 -101t170.5 -32q254 0 318 292l37 172q-138 -182 -346 -182q-157 0 -250.5 100t-93.5 265q-1 83 20.5 172.5t66 174t106 151t147.5 106t182 37.5q240 0 305 -203zM840 641
q0 124 -63 192t-181 68q-74 3 -139.5 -29t-111.5 -85.5t-80 -121.5t-49.5 -139t-14.5 -135q0 -272 227 -272q74 -2 141 30t116 87t85 124t53.5 142t16.5 139zM653 1389q18 6 37 6q38 0 62 -22.5t24 -57.5q0 -42 -33 -71.5t-75 -29.5q-46 0 -75.5 29.5t-29.5 83.5
q0 89 71 165.5t169 76.5l-17 -62q-44 -5 -82 -37t-51 -81z" />
    <glyph glyph-name="gdotaccent.ss02" horiz-adv-x="1107" 
d="M932 989h127l-209 -983q-43 -199 -153 -297t-300 -98q-210 0 -417 151l73 95q96 -69 177.5 -101t170.5 -32q254 0 318 292l37 172q-138 -182 -346 -182q-157 0 -250.5 100t-93.5 265q-1 83 20.5 172.5t66 174t106 151t147.5 106t182 37.5q240 0 305 -203zM840 641
q0 124 -63 192t-181 68q-74 3 -139.5 -29t-111.5 -85.5t-80 -121.5t-49.5 -139t-14.5 -135q0 -272 227 -272q74 -2 141 30t116 87t85 124t53.5 142t16.5 139zM606 1294q0 44 31.5 76.5t75.5 32.5q38 0 63 -23.5t25 -60.5q0 -45 -31 -77t-78 -32q-38 0 -62 24t-24 60z" />
    <glyph glyph-name="i.ss02" horiz-adv-x="438" 
d="M391 989l-209 -989h-135l209 989h135zM285 1294q0 45 31 77t75 32q38 0 63 -23.5t25 -60.5q0 -45 -31 -77t-77 -32q-38 0 -62 24t-24 60z" />
    <glyph glyph-name="idieresis.ss02" horiz-adv-x="438" 
d="M391 989l-209 -989h-135l209 989h135zM121 1298q0 43 30.5 74t73.5 31q37 0 61.5 -24.5t24.5 -59.5q0 -41 -31.5 -73t-74.5 -32q-36 0 -60 24t-24 60zM461 1298q0 42 31.5 73.5t74.5 31.5q36 0 60 -24t24 -60q0 -43 -30.5 -74t-73.5 -31q-35 0 -60.5 24.5t-25.5 59.5z
" />
    <glyph glyph-name="i.loclTRK" horiz-adv-x="438" 
d="M391 989l-209 -989h-135l209 989h135zM479 1401l-41 -193h-135l41 193h135z" />
    <glyph glyph-name="i.loclTRK.ss02" horiz-adv-x="438" 
d="M391 989l-209 -989h-135l209 989h135zM285 1294q0 45 31 77t75 32q38 0 63 -23.5t25 -60.5q0 -45 -31 -77t-77 -32q-38 0 -62 24t-24 60z" />
    <glyph glyph-name="ij.ss02" horiz-adv-x="868" 
d="M391 989l-209 -989h-135l209 989h135zM285 1294q0 45 31 77t75 32q38 0 63 -23.5t25 -60.5q0 -45 -31 -77t-77 -32q-38 0 -62 24t-24 60zM293 -285q79 0 113.5 46t62.5 169l223 1059h135l-231 -1095q-32 -153 -98.5 -222t-194.5 -69q-99 0 -186 32l39 101q76 -21 137 -21
zM719 1294q0 45 31 77t75 32q38 0 63 -23.5t25 -60.5q0 -45 -31 -77t-77 -32q-38 0 -62 24t-24 60z" />
    <glyph glyph-name="iogonek.ss02" horiz-adv-x="438" 
d="M479 1319q0 -45 -31 -77t-77 -32q-37 0 -61.5 24.5t-24.5 59.5q0 45 31 77t75 32q38 0 63 -23.5t25 -60.5zM47 0l209 989h135l-209 -989q-104 -67 -152 -125.5t-48 -120.5q0 -37 23.5 -57.5t62.5 -20.5q21 0 49 7l-21 -91q-21 -8 -61 -8q-70 0 -113 38t-43 104
q0 154 191 274h-23z" />
    <glyph glyph-name="j.calt" horiz-adv-x="423" 
d="M473 1401l-41 -193h-131l41 193h131zM-127 -287q60 0 91.5 37t49.5 115l240 1124h133l-244 -1145q-24 -112 -89.5 -176.5t-168.5 -64.5q-49 0 -92 6l29 108q32 -4 51 -4z" />
    <glyph glyph-name="j.calt.ss02" horiz-adv-x="425" 
d="M281 1294q0 45 31 77t75 32q38 0 63 -23.5t25 -60.5q0 -44 -32 -76.5t-76 -32.5q-37 0 -61.5 24.5t-24.5 59.5zM-127 -287q60 0 91.5 37t49.5 115l240 1124h133l-244 -1145q-24 -112 -89.5 -176.5t-168.5 -64.5q-49 0 -92 6l29 108q32 -4 51 -4z" />
    <glyph glyph-name="j.ss02" horiz-adv-x="432" 
d="M-145 -285q79 0 113.5 46t62.5 169l223 1059h135l-231 -1095q-32 -153 -98.5 -222t-194.5 -69q-100 0 -187 32l39 101q77 -21 138 -21zM281 1294q0 45 31 77t75 32q38 0 63 -23.5t25 -60.5q0 -45 -31 -77t-77 -32q-38 0 -62 24t-24 60z" />
    <glyph glyph-name="k.ss01" horiz-adv-x="983" 
d="M1006 926l-404 -334l277 -592h-138l-237 512l-258 -213l-64 -299h-135l309 1454h136l-209 -985l639 539z" />
    <glyph glyph-name="uni0137.ss01" horiz-adv-x="983" 
d="M1006 926l-404 -334l277 -592h-138l-237 512l-258 -213l-64 -299h-135l309 1454h136l-209 -985l639 539zM498 -158l-35 -161l-144 -193h-79l133 193h-82l35 161h172z" />
    <glyph glyph-name="uni0137.ss01.ss02" horiz-adv-x="983" 
d="M1006 926l-404 -334l277 -592h-138l-237 512l-258 -213l-64 -299h-135l309 1454h136l-209 -985l639 539zM502 -268q0 -91 -69.5 -166.5t-164.5 -75.5l6 61q41 5 80.5 36.5t55.5 80.5q-28 -4 -35 -4q-38 0 -62 22.5t-24 57.5q0 42 31.5 71t74.5 29q49 0 78 -29t29 -83z
" />
    <glyph glyph-name="uni0137.ss02" horiz-adv-x="983" 
d="M1024 989l-430 -379l285 -610h-138l-247 530l-242 -206l-70 -324h-135l309 1454h136l-205 -967l565 502h172zM496 -268q0 -91 -69.5 -166.5t-164.5 -75.5l6 61q41 5 80 36.5t55 80.5q-28 -4 -34 -4q-38 0 -62 22.5t-24 57.5q0 42 31.5 71t74.5 29q49 0 78 -29t29 -83z
" />
    <glyph glyph-name="uni013C.ss02" horiz-adv-x="446" 
d="M496 1454l-310 -1454h-135l309 1454h136zM182 -268q0 -91 -69 -166.5t-164 -75.5l6 61q41 5 80 36.5t55 80.5q-28 -4 -35 -4q-38 0 -62 22.5t-24 57.5q0 42 32 71t75 29q49 0 77.5 -29t28.5 -83z" />
    <glyph glyph-name="ldot.ss02" horiz-adv-x="772" 
d="M496 1454l-310 -1454h-135l309 1454h136zM512 604q0 48 33 81.5t82 33.5q38 0 66 -27t28 -65q0 -50 -33 -83.5t-82 -33.5q-38 0 -66 28t-28 66z" />
    <glyph glyph-name="uni0146.ss02" horiz-adv-x="1095" 
d="M997 764q0 -70 -14 -133l-135 -631h-135l133 633q12 61 12 112q0 160 -190 160q-129 0 -232.5 -92.5t-134.5 -251.5l-119 -561h-135l209 989h127l-33 -149q123 176 344 176q144 0 223.5 -70t79.5 -182zM504 -268q0 -91 -69.5 -166.5t-164.5 -75.5l6 61q41 5 80.5 36.5
t55.5 80.5q-28 -4 -35 -4q-38 0 -62 22.5t-24 57.5q0 42 31.5 71t74.5 29q49 0 78 -29t29 -83z" />
    <glyph glyph-name="odieresis.ss02" horiz-adv-x="1085" 
d="M1010 610q1 -82 -19.5 -170t-65.5 -172.5t-107.5 -151t-154 -106t-196.5 -37.5q-186 0 -291.5 109t-105.5 301q-1 80 19.5 166.5t65.5 171t108 151t155 106.5t198 38q183 0 288.5 -108t105.5 -298zM205 383q0 -139 69.5 -218t192.5 -79q75 -2 142 29.5t115 86t83 123.5
t51.5 142.5t15.5 142.5q0 143 -67.5 219t-194.5 76q-74 2 -141 -30t-114.5 -86.5t-83 -123t-52.5 -141.5t-16 -141zM442 1298q0 43 31 74t74 31q37 0 61.5 -24.5t24.5 -59.5q0 -41 -32 -73t-75 -32q-36 0 -60 24t-24 60zM782 1298q0 41 32 73t75 32q36 0 60 -24t24 -60
q0 -43 -31 -74t-74 -31q-35 0 -60.5 24.5t-25.5 59.5z" />
    <glyph glyph-name="uni0157.ss02" horiz-adv-x="708" 
d="M780 963l-47 -109q-67 27 -127 27q-111 0 -194 -93t-119 -264l-111 -524h-135l209 989h127l-31 -151q47 75 118.5 118t150.5 43q74 0 159 -36zM178 -268q0 -91 -69 -166.5t-164 -75.5l6 61q41 5 80 36.5t55 80.5q-28 -4 -35 -4q-38 0 -62 22.5t-24 57.5q0 42 32 71t75 29
q49 0 77.5 -29t28.5 -83z" />
    <glyph glyph-name="uni0219.ss02" horiz-adv-x="946" 
d="M897 854l-82 -88q-149 143 -313 143q-102 0 -171 -51.5t-69 -122.5q2 -21 7 -36t10 -27t21.5 -23t28.5 -18.5t44 -18.5t54.5 -18.5t72.5 -22.5q83 -27 127.5 -43.5t88 -39.5t63.5 -48.5t33 -61t17 -85.5q0 -138 -107 -229t-294 -91q-119 0 -218.5 45.5t-201.5 139.5
l82 88q96 -84 175.5 -123t172.5 -39q120 0 190 56t70 145q0 54 -32 82q-30 29 -77 47.5t-163 52.5q-119 35 -184 72t-88 78t-23 102q0 122 106 209.5t273 87.5q216 0 387 -162zM469 -268q0 -91 -69 -166.5t-164 -75.5l6 61q41 5 80 36.5t55 80.5q-28 -4 -35 -4
q-38 0 -62 22.5t-24 57.5q0 42 31.5 71t74.5 29q49 0 78 -29t29 -83z" />
    <glyph glyph-name="uni021B.ss02" horiz-adv-x="698" 
d="M444 891l-131 -619q-12 -52 -12 -90q0 -45 24.5 -66.5t80.5 -21.5q61 0 153 29l14 -107q-80 -36 -190 -36q-113 0 -166 44t-53 140q0 41 14 112l131 615h-190l20 98h191l73 344h136l-74 -344h272l-20 -98h-273zM412 -268q0 -91 -69.5 -166.5t-164.5 -75.5l6 61
q41 5 80 36.5t55 80.5q-28 -4 -34 -4q-38 0 -62 22.5t-24 57.5q0 42 31.5 71t74.5 29q49 0 78 -29t29 -83z" />
    <glyph glyph-name="udieresis.ss02" horiz-adv-x="1081" 
d="M889 989h135l-209 -989h-127l33 154q-60 -88 -149 -134.5t-183 -46.5q-144 0 -220.5 69t-76.5 187q0 66 14 129l134 631h135l-133 -631q-13 -70 -13 -112q0 -156 177 -156q131 0 232 95.5t138 269.5zM414 1298q0 43 30.5 74t73.5 31q37 0 61.5 -24.5t24.5 -59.5
q0 -41 -32 -73t-74 -32q-36 0 -60 24t-24 60zM754 1298q0 42 32 73.5t74 31.5q36 0 60 -24t24 -60q0 -43 -30.5 -74t-73.5 -31q-35 0 -60.5 24.5t-25.5 59.5z" />
    <glyph glyph-name="wdieresis.ss02" horiz-adv-x="1460" 
d="M1364 991h137l-493 -991h-166l-25 346q-25 347 -29 483q-28 -63 -176 -368l-59 -121l-166 -340h-172l-63 991h131l22 -391q15 -263 21 -487q91 198 233 485l195 393h129l30 -393q25 -335 27 -492q151 336 229 488zM606 1298q0 43 31 74t74 31q37 0 61.5 -24.5t24.5 -59.5
q0 -41 -32 -73t-75 -32q-36 0 -60 24t-24 60zM946 1298q0 41 32 73t75 32q36 0 60 -24t24 -60q0 -43 -31 -74t-74 -31q-35 0 -60.5 24.5t-25.5 59.5z" />
    <glyph glyph-name="ydieresis.ss02" horiz-adv-x="952" 
d="M868 989h140l-633 -1147q-76 -139 -135.5 -186t-180.5 -51q-76 0 -135 20l35 105q54 -13 92 -13q69 0 113.5 37t101.5 142l25 43l-150 1050h131l47 -346l19 -131q30 -222 51 -410q155 300 279 525zM352 1298q0 43 31 74t74 31q37 0 61.5 -24.5t24.5 -59.5q0 -41 -32 -73
t-75 -32q-36 0 -60 24t-24 60zM692 1298q0 41 32 73t75 32q36 0 60 -24t24 -60q0 -43 -31 -74t-74 -31q-35 0 -60.5 24.5t-25.5 59.5z" />
    <glyph glyph-name="zdotaccent.ss02" horiz-adv-x="958" 
d="M973 989l-23 -96l-770 -780h606l-24 -113h-785l21 100l774 779h-569l22 110h748zM563 1294q0 44 31.5 76.5t75.5 32.5q38 0 63 -23.5t25 -60.5q0 -45 -31 -77t-78 -32q-38 0 -62 24t-24 60z" />
    <glyph glyph-name="f_f_i.liga.ss02" horiz-adv-x="1714" 
d="M508 1149l-35 -160h217l-20 -98h-217l-189 -891h-135l188 891h-198l20 98h199l43 199q31 147 111.5 221t205.5 74q103 0 203 -41l-41 -99q-86 27 -151 27q-85 0 -130 -49.5t-71 -171.5zM1329 891h-254l-188 -891h-135l188 891h-172l20 98h173l43 199q31 145 112.5 220
t206.5 75q77 0 172 -29l-41 -102q-64 18 -129 18q-79 0 -124 -50.5t-71 -170.5l-34 -160h254zM1755 1319q0 -45 -31 -77t-77 -32q-37 0 -61.5 24.5t-24.5 59.5q0 45 31 77t77 32q38 0 62 -23.5t24 -60.5zM1323 0l209 989h135l-209 -989h-135z" />
    <glyph glyph-name="f_f_j.liga.ss02" horiz-adv-x="1712" 
d="M508 1149l-35 -160h217l-20 -98h-217l-189 -891h-135l188 891h-198l20 98h199l43 199q31 147 111.5 221t205.5 74q103 0 203 -41l-41 -99q-86 27 -151 27q-85 0 -130 -49.5t-71 -171.5zM1329 891h-254l-188 -891h-135l188 891h-172l20 98h173l43 199q31 145 112.5 220
t206.5 75q77 0 172 -29l-41 -102q-64 18 -129 18q-79 0 -124 -50.5t-71 -170.5l-34 -160h254zM1755 1319q0 -45 -31 -77t-75 -32q-38 0 -63 23.5t-25 60.5q0 45 31 77t77 32q38 0 62 -23.5t24 -60.5zM1309 -70l223 1059h135l-231 -1095q-32 -153 -98.5 -222t-194.5 -69
q-100 0 -187 32l39 101q77 -21 138 -21q79 0 113.5 46t62.5 169z" />
    <glyph glyph-name="f_j.liga.ss02" horiz-adv-x="1087" 
d="M707 891h-254l-189 -891h-135l188 891h-198l20 98h199l43 199q31 147 111.5 221t205.5 74q77 0 172 -29l-41 -102q-65 18 -129 18q-75 0 -120.5 -51.5t-71.5 -169.5l-35 -160h254zM1130 1319q0 -45 -31 -77t-75 -32q-38 0 -63 24t-25 60q0 44 32 76.5t76 32.5
q38 0 62 -23.5t24 -60.5zM684 -70l223 1059h135l-231 -1095q-32 -153 -98 -222t-193 -69q-99 0 -186 32l39 101q77 -21 137 -21q77 0 112 46.5t62 168.5z" />
    <glyph glyph-name="fi.ss02" horiz-adv-x="1089" 
d="M707 891h-254l-189 -891h-135l188 891h-198l20 98h199l43 199q31 147 111.5 221t205.5 74q77 0 172 -29l-41 -102q-65 18 -129 18q-75 0 -120.5 -51.5t-71.5 -169.5l-35 -160h254zM1130 1319q0 -45 -31 -77t-75 -32q-38 0 -63 24t-25 60q0 44 32 76.5t76 32.5
q38 0 62 -23.5t24 -60.5zM698 0l209 989h135l-208 -989h-136z" />
    <glyph glyph-name="uni0401.ss02" horiz-adv-x="1236" 
d="M1327 1454l-27 -121h-796l-113 -526h742l-27 -119h-739l-121 -567h815l-27 -121h-958l309 1454h942zM643 1722q0 43 31 74t74 31q37 0 61.5 -24.5t24.5 -59.5q0 -41 -32 -73t-75 -32q-36 0 -60 24t-24 60zM983 1722q0 41 32 73t75 32q36 0 60 -24t24 -60q0 -43 -31 -74
t-74 -31q-35 0 -60.5 24.5t-25.5 59.5z" />
    <glyph glyph-name="uni0407.ss02" horiz-adv-x="534" 
d="M545 1454l-309 -1454h-146l309 1454h146zM258 1722q0 43 30.5 74t73.5 31q37 0 62 -24.5t25 -59.5q0 -41 -32 -73t-75 -32q-36 0 -60 24t-24 60zM598 1722q0 41 32 73t75 32q36 0 59.5 -24t23.5 -60q0 -43 -30.5 -74t-73.5 -31q-35 0 -60.5 24.5t-25.5 59.5z" />
    <glyph glyph-name="uni0451.ss02" horiz-adv-x="1067" 
d="M958 483h-747q-8 -41 -8 -102q0 -137 67 -216t207 -79q90 0 177 47t186 158l92 -76q-211 -242 -461 -242q-189 0 -296 109t-107 295q-1 88 22 178.5t71 174.5t114 149t158.5 102.5t197.5 34.5q161 0 259.5 -91.5t98.5 -242.5q0 -108 -31 -199zM236 586h624q6 37 6 82
q0 110 -63 173.5t-178 63.5q-141 0 -242 -87t-147 -232zM449 1298q0 43 30.5 74t73.5 31q37 0 61.5 -24.5t24.5 -59.5q0 -41 -32 -73t-75 -32q-36 0 -59.5 24t-23.5 60zM788 1298q0 41 32 73t75 32q36 0 60 -24t24 -60q0 -43 -31 -74t-74 -31q-35 0 -60.5 24.5t-25.5 59.5z
" />
    <glyph glyph-name="uni0456.ss02" horiz-adv-x="438" 
d="M391 989l-209 -989h-135l209 989h135zM285 1294q0 45 31 77t75 32q38 0 63 -23.5t25 -60.5q0 -45 -31 -77t-77 -32q-38 0 -62 24t-24 60z" />
    <glyph glyph-name="uni0457.ss02" horiz-adv-x="438" 
d="M391 989l-209 -989h-135l209 989h135zM121 1298q0 43 30.5 74t73.5 31q37 0 61.5 -24.5t24.5 -59.5q0 -41 -31.5 -73t-74.5 -32q-36 0 -60 24t-24 60zM461 1298q0 42 31.5 73.5t74.5 31.5q36 0 60 -24t24 -60q0 -43 -30.5 -74t-73.5 -31q-35 0 -60.5 24.5t-25.5 59.5z
" />
    <glyph glyph-name="uni0458.ss02" horiz-adv-x="432" 
d="M-145 -285q79 0 113.5 46t62.5 169l223 1059h135l-231 -1095q-32 -153 -98.5 -222t-194.5 -69q-100 0 -187 32l39 101q77 -21 138 -21zM281 1294q0 45 31 77t75 32q38 0 63 -23.5t25 -60.5q0 -45 -31 -77t-77 -32q-38 0 -62 24t-24 60z" />
    <glyph glyph-name="Iotadieresis.ss02" horiz-adv-x="534" 
d="M545 1454l-309 -1454h-146l309 1454h146zM258 1722q0 43 30.5 74t73.5 31q37 0 62 -24.5t25 -59.5q0 -41 -32 -73t-75 -32q-36 0 -60 24t-24 60zM598 1722q0 41 32 73t75 32q36 0 59.5 -24t23.5 -60q0 -43 -30.5 -74t-73.5 -31q-35 0 -60.5 24.5t-25.5 59.5z" />
    <glyph glyph-name="Upsilondieresis.ss02" horiz-adv-x="1249" 
d="M1237 1454h170l-694 -829l-131 -625h-146l133 627l-336 827h148l278 -702zM586 1722q0 43 30.5 74t73.5 31q37 0 61.5 -24.5t24.5 -59.5q0 -41 -32 -73t-74 -32q-36 0 -60 24t-24 60zM926 1722q0 42 32 73.5t74 31.5q36 0 60 -24t24 -60q0 -43 -30.5 -74t-73.5 -31
q-35 0 -60.5 24.5t-25.5 59.5z" />
    <glyph glyph-name="iotadieresis.ss02" horiz-adv-x="436" 
d="M180 0h-137l209 989h137zM119 1298q0 43 30.5 74t73.5 31q37 0 61.5 -24.5t24.5 -59.5q0 -41 -31.5 -73t-74.5 -32q-36 0 -60 24t-24 60zM459 1298q0 42 31.5 73.5t74.5 31.5q36 0 60 -24t24 -60q0 -43 -30.5 -74t-73.5 -31q-35 0 -60.5 24.5t-25.5 59.5z" />
    <glyph glyph-name="iotadieresistonos.ss02" horiz-adv-x="436" 
d="M180 0h-137l209 989h137zM299 1208l109 246h149l-145 -246h-113zM111 1280q0 41 28 67.5t70 26.5q35 0 56.5 -20.5t21.5 -53.5q0 -41 -26.5 -66.5t-67.5 -25.5q-35 0 -58.5 20.5t-23.5 51.5zM520 1280q0 42 26 68t68 26q35 0 58.5 -21t23.5 -53q0 -41 -27.5 -66.5
t-70.5 -25.5q-32 0 -55 20.5t-23 51.5z" />
    <glyph glyph-name="upsilondieresis.ss02" horiz-adv-x="1073" 
d="M106 307q0 49 17 129l117 553h137l-123 -581q-10 -62 -10 -95q0 -103 56 -164t163 -61q131 0 201 78t102 235l123 588h137l-129 -608q-44 -208 -147.5 -308t-294.5 -100q-166 0 -257.5 89.5t-91.5 244.5zM418 1298q0 43 30.5 74t73.5 31q37 0 61.5 -24.5t24.5 -59.5
q0 -41 -32 -73t-74 -32q-36 0 -60 24t-24 60zM758 1298q0 42 32 73.5t74 31.5q36 0 60 -24t24 -60q0 -43 -30.5 -74t-73.5 -31q-35 0 -60.5 24.5t-25.5 59.5z" />
    </font>
</defs>
</svg>
