<?xml version="1.0" standalone="no"?>
<!DOCTYPE svg PUBLIC "-//W3C//DTD SVG 1.1//EN" "http://www.w3.org/Graphics/SVG/1.1/DTD/svg11.dtd" >
<svg xmlns="http://www.w3.org/2000/svg" xmlns:xlink="http://www.w3.org/1999/xlink" version="1.1">
<metadata>
Created by FontForge 20170731 at Wed Sep  1 14:14:24 2021
 By Aleksey,,,
Copyright (c) 2015 by Letters from Sweden. All rights reserved. |DCNT
</metadata>
<defs>
<font id="LabGrotesque-Thin" horiz-adv-x="1208" >
  <font-face 
    font-family="Lab Grotesque"
    font-weight="250"
    font-stretch="normal"
    units-per-em="2048"
    panose-1="0 0 5 0 0 0 0 0 0 0"
    ascent="1536"
    descent="-512"
    x-height="975"
    cap-height="1454"
    bbox="-803 -508 3568 1913"
    underline-thickness="120"
    underline-position="-448"
    unicode-range="U+0020-FB02"
  />
<missing-glyph horiz-adv-x="1185" 
d="M981 1659v-1864h-776v1864h776z" />
    <glyph glyph-name="fi" unicode="fi" horiz-adv-x="1042" 
d="M506 1479q64 0 141 -25l-18 -76q-83 17 -121 17q-94 0 -136 -52.5t-42 -173.5v-194h270v-76h-270v-899h-99v899h-190v76h190v217q0 135 71.5 211t203.5 76zM788 1386h99v-176h-99v176zM788 0v975h99v-975h-99z" />
    <glyph glyph-name="fl" unicode="fl" horiz-adv-x="1048" 
d="M506 1479q64 0 141 -25l-18 -76q-83 17 -121 17q-94 0 -136 -52.5t-42 -173.5v-194h270v-76h-270v-899h-99v899h-190v76h190v217q0 135 71.5 211t203.5 76zM788 1454h99v-1454h-99v1454z" />
    <glyph glyph-name="f_f.liga" unicode="ff" horiz-adv-x="1251" 
d="M330 1174v-199h221v-76h-221v-899h-99v899h-190v76h190v223q0 132 71 208.5t200 76.5q90 0 186 -35l-26 -78q-92 29 -154 29q-98 0 -138 -51.5t-40 -173.5zM934 1174v-199h270v-76h-270v-899h-98v899h-174v76h174v223q0 132 70.5 208.5t199.5 76.5q90 0 186 -35l-26 -78
q-92 29 -154 29q-98 0 -138 -51.5t-40 -173.5z" />
    <glyph glyph-name="f_f_i.liga" unicode="ffi" horiz-adv-x="1648" 
d="M330 1167v-192h221v-76h-221v-899h-99v899h-190v76h190v217q0 135 71 211t200 76q90 0 186 -35l-26 -80q-95 31 -154 31q-97 0 -137.5 -52.5t-40.5 -175.5zM1110 1479q64 0 141 -25l-18 -76q-83 17 -121 17q-94 0 -136 -52.5t-42 -173.5v-194h270v-76h-270v-899h-98v899
h-174v76h174v217q0 135 71 211t203 76zM1395 1386h98v-176h-98v176zM1395 0v975h98v-975h-98z" />
    <glyph glyph-name="f_f_j.liga" unicode="ffj" horiz-adv-x="1648" 
d="M330 1167v-192h221v-76h-221v-899h-99v899h-190v76h190v217q0 135 71 211t200 76q90 0 186 -35l-26 -80q-95 31 -154 31q-97 0 -137.5 -52.5t-40.5 -175.5zM1204 899h-270v-899h-98v899h-174v76h174v217q0 135 71 211t203 76q64 0 141 -25l-18 -76q-83 17 -121 17
q-94 0 -136 -52.5t-42 -173.5v-194h270v-76zM1395 1386h98v-176h-98v176zM1395 -102v1077h98v-1084q0 -282 -252 -282q-83 0 -178 31l27 77q86 -24 157 -24q82 0 115 48.5t33 156.5z" />
    <glyph glyph-name="f_j.liga" unicode="fj" horiz-adv-x="1042" 
d="M600 899h-270v-899h-99v899h-190v76h190v217q0 135 71.5 211t203.5 76q64 0 141 -25l-18 -76q-83 17 -121 17q-94 0 -136 -52.5t-42 -173.5v-194h270v-76zM788 1386h99v-176h-99v176zM788 -100v1075h99v-1084q0 -282 -252 -282q-69 0 -178 31l26 77q85 -24 158 -24
q82 0 114.5 49.5t32.5 157.5z" />
    <glyph glyph-name=".notdef" horiz-adv-x="1185" 
d="M981 1659v-1864h-776v1864h776z" />
    <glyph glyph-name=".null" horiz-adv-x="0" 
 />
    <glyph glyph-name="nonmarkingreturn" horiz-adv-x="682" 
 />
    <glyph glyph-name="space" unicode=" " horiz-adv-x="477" 
 />
    <glyph glyph-name="exclam" unicode="!" horiz-adv-x="514" 
d="M322 1454v-432l-23 -651h-59l-23 651v432h105zM338 158v-158h-139v158h139z" />
    <glyph glyph-name="quotedbl" unicode="&#x22;" horiz-adv-x="651" 
d="M221 1454l-14 -401h-64l-14 401h92zM524 1454l-14 -401h-64l-14 401h92z" />
    <glyph glyph-name="numbersign" unicode="#" 
d="M1167 911h-225l-90 -426h223l-18 -84h-221l-86 -401h-99l86 401h-362l-86 -401h-99l86 401h-229l19 84h227l90 426h-225l18 84h225l84 398h99l-84 -398h362l84 398h98l-83 -398h225zM754 485l90 426h-363l-90 -426h363z" />
    <glyph glyph-name="dollar" unicode="$" horiz-adv-x="1249" 
d="M676 -27v-178h-90v180q-136 7 -253.5 59t-246.5 161l64 73q133 -107 234 -154t202 -53v646q-87 22 -144.5 40.5t-108 41t-79.5 46.5t-50.5 58t-30.5 74t-11 96q0 148 124 248.5t300 109.5v176h90v-178q239 -15 432 -190l-64 -70q-176 159 -368 174v-555
q243 -62 339.5 -148.5t96.5 -248.5q0 -168 -125 -283.5t-311 -124.5zM586 799v536q-143 -9 -235.5 -88t-92.5 -184q3 -60 20 -99.5t59 -69.5t97 -50t152 -45zM1014 385q0 122 -77.5 186.5t-260.5 114.5v-625q144 9 242 101q96 90 96 223z" />
    <glyph glyph-name="percent" unicode="%" horiz-adv-x="1716" 
d="M1315 1419l74 -45l-990 -1401l-67 47zM1585 295q0 -138 -84.5 -224.5t-210.5 -86.5q-125 0 -211 87t-86 224q0 133 86 220t211 87q126 0 210.5 -86.5t84.5 -220.5zM1085 295q0 -101 56.5 -167.5t146.5 -66.5q92 0 148.5 65.5t56.5 168.5q0 100 -57 166.5t-148 66.5
q-90 0 -146.5 -66.5t-56.5 -166.5zM723 1102q0 -138 -84.5 -224.5t-210.5 -86.5q-125 0 -211 87t-86 224q0 133 86 220t211 87q126 0 210.5 -86.5t84.5 -220.5zM223 1102q0 -101 56.5 -167.5t146.5 -66.5q92 0 148.5 65.5t56.5 168.5q0 100 -57 166.5t-148 66.5
q-90 0 -146.5 -66.5t-56.5 -166.5z" />
    <glyph glyph-name="ampersand" unicode="&#x26;" horiz-adv-x="1382" 
d="M1362 0h-123l-211 246q-111 -141 -223 -207t-264 -66q-189 0 -310.5 108.5t-121.5 272.5q0 107 43 183q42 76 124 145t238 162q-98 113 -139 185.5t-41 152.5q0 124 89 205t226 81q130 0 221 -80t91 -194q0 -109 -62 -185t-244 -188l369 -430l223 285l74 -51l-236 -303z
M430 1182q0 -64 37 -126t133 -171q159 98 211.5 158.5t52.5 150.5q0 85 -63 141t-156 56q-95 0 -155 -57t-60 -152zM967 317l-398 463q-207 -122 -282.5 -210.5t-75.5 -211.5q0 -136 94 -221q96 -84 236 -84q128 0 222 61.5t204 202.5z" />
    <glyph glyph-name="quotesingle" unicode="'" horiz-adv-x="348" 
d="M221 1454l-14 -401h-64l-14 401h92z" />
    <glyph glyph-name="parenleft" unicode="(" horiz-adv-x="684" 
d="M586 1604l67 -62q-191 -217 -284 -435.5t-93 -477.5t93 -478t284 -436l-67 -61q-205 234 -307 452q-105 225 -105 523q0 295 105 520q105 224 307 455z" />
    <glyph glyph-name="parenright" unicode=")" horiz-adv-x="684" 
d="M98 -346l-67 61q191 217 284 436t93 478t-93 477.5t-284 435.5l67 62q205 -233 308 -455q104 -223 104 -520q0 -300 -104 -523q-100 -215 -308 -452z" />
    <glyph glyph-name="asterisk" unicode="*" horiz-adv-x="888" 
d="M485 1454v-289l275 88l22 -65l-280 -88l184 -240l-59 -43l-185 242l-178 -238l-61 45l186 234l-280 90l22 67l275 -92v289h79z" />
    <glyph glyph-name="plus" unicode="+" horiz-adv-x="1228" 
d="M659 1167v-489h488v-86h-488v-490h-90v490h-487v86h487v489h90z" />
    <glyph glyph-name="comma" unicode="," horiz-adv-x="395" 
d="M279 158v-158l-95 -215h-67l84 215h-72v158h150z" />
    <glyph glyph-name="hyphen" unicode="-" horiz-adv-x="819" 
d="M692 627v-86h-563v86h563z" />
    <glyph glyph-name="period" unicode="." horiz-adv-x="395" 
d="M268 158v-158h-139v158h139z" />
    <glyph glyph-name="slash" unicode="/" horiz-adv-x="841" 
d="M786 1454l-634 -1454h-95l635 1454h94z" />
    <glyph glyph-name="zero" unicode="0" 
d="M1010 1176q98 -186 98 -480q0 -293 -98 -479q-62 -118 -166.5 -182t-239.5 -64t-239 64t-166 182q-99 187 -99 479t99 480q62 118 166 181.5t239 63.5t239.5 -63.5t166.5 -181.5zM285 1124q-82 -155 -82 -428t82 -428q109 -213 319 -213q214 0 320 213q82 165 82 428
t-82 428q-106 213 -320 213q-210 0 -319 -213z" />
    <glyph glyph-name="one" unicode="1" horiz-adv-x="942" 
d="M520 1393h72v-1393h-98v1260l-344 -246l-50 69z" />
    <glyph glyph-name="two" unicode="2" horiz-adv-x="1130" 
d="M188 84h854v-84h-950v33q0 145 49 243q54 101 133 166q71 58 236 162l102 60q118 67 170 104q148 104 148 272q0 142 -96 220q-95 77 -230 77q-99 -3 -168.5 -29.5t-128 -78t-145.5 -154.5l-72 53q113 148 233.5 220.5t276.5 72.5q186 0 309 -105t123 -269
q0 -113 -49 -195q-44 -75 -111 -128t-200 -128q-58 -33 -111 -66q-129 -80 -205 -139q-157 -119 -168 -307z" />
    <glyph glyph-name="three" unicode="3" horiz-adv-x="1169" 
d="M1042 414q0 -82 -31 -160t-88 -141.5t-147 -102.5t-198 -39q-131 0 -251 40.5t-247 123.5l55 76q136 -87 232.5 -121.5t205.5 -34.5q159 0 263 104.5t104 254.5q0 151 -100 239t-277 88q-109 0 -176 -30l-53 67l553 531h-742v84h865v-82l-516 -494q41 8 86 8
q130 0 234 -47.5t166 -142t62 -221.5z" />
    <glyph glyph-name="four" unicode="4" horiz-adv-x="1179" 
d="M907 430h221v-84h-221v-346h-98v346h-739v80l616 967h111l-615 -963h627v348h98v-348z" />
    <glyph glyph-name="five" unicode="5" horiz-adv-x="1214" 
d="M1090 442q2 -85 -32.5 -169.5t-96 -152.5t-155.5 -109.5t-202 -39.5q-142 0 -246 39q-116 44 -252 137l54 78q133 -95 233 -135q96 -35 209 -35q116 0 205 55t134.5 143t45.5 193q0 165 -96.5 265t-269.5 100q-190 0 -342 -143l-78 12l61 713h764v-84h-682l-43 -529
q124 115 320 115q212 0 340.5 -123.5t128.5 -329.5z" />
    <glyph glyph-name="six" unicode="6" horiz-adv-x="1210" 
d="M1106 436q0 -126 -58 -231.5t-169.5 -170.5t-255.5 -65q-116 0 -210.5 41t-155 112.5t-92.5 165t-32 201.5q0 233 113 416q112 181 327 381l117 107h135v-2l-207 -189q-292 -267 -368 -508q57 96 159 151.5t230 55.5q140 0 248 -64t163.5 -169t55.5 -232zM1004 436
q0 166 -99.5 273.5t-271.5 107.5q-168 0 -280.5 -111t-112.5 -270q0 -164 105 -273.5t278 -109.5q175 0 278 109t103 274z" />
    <glyph glyph-name="seven" unicode="7" horiz-adv-x="1077" 
d="M49 1393h973v-68q-212 -264 -387 -623q-171 -356 -217 -702h-103q44 329 213 686q168 357 375 623h-854v84z" />
    <glyph glyph-name="eight" unicode="8" horiz-adv-x="1210" 
d="M1106 377q0 -176 -136.5 -291t-363.5 -115t-364.5 115t-137.5 291q0 136 81.5 237t224.5 142q-110 39 -171 119t-61 188q0 158 119.5 258t308.5 100q187 0 306.5 -100t119.5 -258q0 -107 -61 -187.5t-168 -119.5q141 -41 222 -142t81 -237zM606 793q146 0 237 76.5
t91 199.5q0 118 -90 193t-238 75t-237.5 -75t-89.5 -193q0 -123 90.5 -199.5t236.5 -76.5zM1004 377q0 150 -109 241t-291 91q-180 0 -288.5 -91t-108.5 -241q0 -139 108.5 -230.5t288.5 -91.5q181 0 290.5 91.5t109.5 230.5z" />
    <glyph glyph-name="nine" unicode="9" horiz-adv-x="1210" 
d="M1077 903q0 -233 -114 -418q-115 -186 -326 -379l-115 -106h-135v2l205 188q293 268 369 508q-57 -96 -159 -151t-235 -55q-209 0 -336 134.5t-127 329.5q0 126 58.5 231.5t170.5 170.5t255 65q116 0 210 -41t154.5 -112.5t92.5 -165t32 -201.5zM971 956
q0 164 -105 273.5t-278 109.5q-175 0 -278 -109t-103 -274q0 -164 99 -272.5t269 -108.5q176 0 286 110t110 271z" />
    <glyph glyph-name="colon" unicode=":" horiz-adv-x="477" 
d="M309 975v-158h-139v158h139zM309 158v-158h-139v158h139z" />
    <glyph glyph-name="semicolon" unicode=";" horiz-adv-x="477" 
d="M332 158v-158l-94 -215h-68l84 215h-72v158h150zM324 975v-158h-140v158h140z" />
    <glyph glyph-name="less" unicode="&#x3c;" horiz-adv-x="1228" 
d="M1106 1065v-98l-881 -332l881 -332v-98l-983 379v100z" />
    <glyph glyph-name="equal" unicode="=" horiz-adv-x="1228" 
d="M1147 883v-86h-1065v86h1065zM1147 473v-86h-1065v86h1065z" />
    <glyph glyph-name="greater" unicode="&#x3e;" horiz-adv-x="1228" 
d="M123 1065l983 -381v-100l-983 -379v98l878 332l-878 332v98z" />
    <glyph glyph-name="question" unicode="?" horiz-adv-x="974" 
d="M930 1137q0 -82 -35 -150q-30 -62 -69.5 -106t-118.5 -113q-32 -25 -60 -53q-58 -55 -79 -76.5t-43 -55t-29 -63t-13 -82.5l-6 -78h-67v97q2 66 8.5 104t31 78t49 65.5t89.5 86.5l41 34q111 98 154.5 162t43.5 150q0 112 -90 184t-219 72q-102 0 -188 -40t-197 -139
l-61 68q113 105 216.5 153t229.5 48q78 0 150.5 -22.5t131.5 -64t94.5 -109t35.5 -150.5zM514 158v-158h-139v158h139z" />
    <glyph glyph-name="at" unicode="@" horiz-adv-x="1890" 
d="M1161 246q-76 -114 -162.5 -168.5t-205.5 -54.5q-130 0 -205.5 80.5t-75.5 220.5q-1 84 21 170.5t65.5 162.5t101.5 136t134.5 93.5t158.5 31.5q108 0 175 -47.5t79 -127.5l37 158h82l-113 -528q-12 -62 -12 -97q0 -83 40.5 -130.5t127.5 -47.5q125 0 209 120.5t84 324.5
q2 170 -58.5 311t-163.5 231.5t-235.5 139.5t-277.5 47q-165 3 -311 -61t-248.5 -174t-161 -261t-56.5 -317q-2 -162 53.5 -304t157 -248.5t257 -167t343.5 -58.5h426v-70h-450q-195 -2 -359 61.5t-276 176.5t-173.5 271.5t-59.5 342.5q-2 183 60 346t173 282t273 187
t350 65q174 2 326.5 -55.5t261.5 -161t171 -253.5t60 -324q0 -237 -107.5 -381.5t-275.5 -144.5q-65 0 -114.5 22t-76 56.5t-39 71.5t-10.5 73zM1194 623q0 221 -199 221q-80 3 -154 -44t-125 -121.5t-81 -167t-29 -179.5q0 -115 51 -172.5t144 -57.5q73 -3 139 32t111 93
t78.5 128.5t49.5 140t15 127.5z" />
    <glyph glyph-name="A" unicode="A" horiz-adv-x="1296" 
d="M1145 0l-162 438h-672l-157 -438h-107l533 1454h137l532 -1454h-104zM344 526h608l-80 215q-165 455 -225 637q-95 -282 -188 -532l-37 -103z" />
    <glyph glyph-name="B" unicode="B" horiz-adv-x="1339" 
d="M1247 408q0 -185 -121 -297q-120 -111 -321 -111h-621v1454h600q190 0 301 -94t111 -268q0 -116 -59.5 -199.5t-161.5 -122.5q125 -36 198.5 -131.5t73.5 -230.5zM289 1366v-555h481q149 0 235.5 75.5t86.5 209.5q0 129 -85 199.5t-239 70.5h-479zM1143 401
q0 143 -101.5 232.5t-267.5 89.5h-485v-635h491q175 0 269 82.5t94 230.5z" />
    <glyph glyph-name="C" unicode="C" horiz-adv-x="1351" 
d="M1268 1286l-60 -72q-120 97 -223 139t-209 42q-260 0 -416.5 -187t-156.5 -481q0 -292 155 -480t402 -188q129 0 238 57.5t231 180.5l67 -68q-135 -138 -262 -200q-119 -58 -274 -58q-198 -3 -351 96.5t-233 271.5t-78 386q0 220 80.5 391t236 269t363.5 98
q128 0 246.5 -46t243.5 -151z" />
    <glyph glyph-name="D" unicode="D" horiz-adv-x="1411" 
d="M1313 727q0 -328 -166.5 -527.5t-460.5 -199.5h-502v1454h502q294 0 460.5 -199.5t166.5 -527.5zM672 1366h-383v-1278h383q265 0 399 174q137 174 137 465q0 289 -137 463q-135 176 -399 176z" />
    <glyph glyph-name="E" unicode="E" horiz-adv-x="1212" 
d="M1104 1454v-88h-815v-575h753v-89h-753v-614h829v-88h-934v1454h920z" />
    <glyph glyph-name="F" unicode="F" horiz-adv-x="1191" 
d="M1106 1454v-88h-817v-598h745v-88h-745v-680h-105v1454h922z" />
    <glyph glyph-name="G" unicode="G" horiz-adv-x="1495" 
d="M737 635v88h613v-723h-80l-17 258q-65 -140 -193.5 -212.5t-297.5 -72.5q-202 0 -353 96t-231 266.5t-80 391.5q0 216 83 387t239 269t358 98q168 0 306.5 -68t267.5 -209l-70 -67q-128 137 -243 196.5t-267 59.5q-166 0 -296.5 -87.5t-201.5 -240t-71 -342.5
q0 -192 67 -341.5t194.5 -235t297.5 -85.5q211 0 348 132t137 352v90h-510z" />
    <glyph glyph-name="H" unicode="H" horiz-adv-x="1472" 
d="M1288 1454v-1454h-104v702h-895v-702h-105v1454h105v-663h895v663h104z" />
    <glyph glyph-name="I" unicode="I" horiz-adv-x="501" 
d="M303 1454v-1454h-104v1454h104z" />
    <glyph glyph-name="J" unicode="J" horiz-adv-x="929" 
d="M756 1454v-1094q0 -185 -91.5 -282.5t-267.5 -97.5q-177 0 -352 100l43 80q102 -48 173 -70t142 -22q122 0 185 75t63 222v1089h105z" />
    <glyph glyph-name="K" unicode="K" horiz-adv-x="1282" 
d="M1128 0l-553 801l-284 -289v-512h-107v1454h107v-815l799 815h131l-574 -580l604 -874h-123z" />
    <glyph glyph-name="L" unicode="L" horiz-adv-x="1071" 
d="M289 1454v-1366h731v-88h-836v1454h105z" />
    <glyph glyph-name="M" unicode="M" horiz-adv-x="1701" 
d="M1343 1454h175v-1454h-103v717q0 104 4 678q-61 -177 -217 -590l-33 -84l-272 -721h-94l-279 723q-157 405 -243 666l2 -674v-715h-99v1454h170l260 -682q167 -435 238 -655q60 192 233 655z" />
    <glyph glyph-name="N" unicode="N" horiz-adv-x="1474" 
d="M1190 1454h100v-1454h-125l-471 709l-418 622q9 -246 9 -545v-786h-101v1454h125l451 -676l137 -207q11 -16 122.5 -184.5t176.5 -269.5l-2 196q-4 332 -4 363v778z" />
    <glyph glyph-name="O" unicode="O" horiz-adv-x="1533" 
d="M1436 727q0 -217 -81.5 -388.5t-235 -269.5t-353.5 -98q-148 -2 -274 55t-212.5 158.5t-134.5 241.5t-47 301q-1 161 47 301t134.5 241.5t212.5 158.5t274 55q200 0 353.5 -98t235 -269.5t81.5 -388.5zM203 727q0 -293 157 -480.5t406 -187.5q166 0 295 85.5t199.5 237.5
t70.5 345q0 292 -157.5 480t-407.5 188q-162 3 -292 -85t-201.5 -241.5t-69.5 -341.5z" />
    <glyph glyph-name="P" unicode="P" horiz-adv-x="1277" 
d="M1210 1038q0 -198 -125.5 -306.5t-339.5 -108.5h-454v-623h-107v1454h561q214 0 339.5 -109t125.5 -307zM741 1366h-452v-655h452q172 0 268.5 84.5t96.5 242.5q0 160 -95.5 244t-269.5 84z" />
    <glyph glyph-name="Q" unicode="Q" horiz-adv-x="1533" 
d="M1178 111l131 -177l-78 -55l-133 176q-153 -84 -332 -84q-148 -2 -274 55t-212.5 158.5t-134.5 241.5t-47 301q-1 161 47 301t134.5 241.5t212.5 158.5t274 55q200 0 353.5 -98t235 -269.5t81.5 -388.5q0 -196 -67.5 -356t-190.5 -260zM1040 133l-209 279l80 55l207 -279
q103 91 158 230t55 309q0 292 -157.5 480t-407.5 188q-162 3 -292 -85t-201.5 -241.5t-69.5 -341.5q0 -293 157 -480.5t406 -187.5q153 0 274 74z" />
    <glyph glyph-name="R" unicode="R" horiz-adv-x="1320" 
d="M1237 0h-123l-428 625h-397v-625h-105v1454h543q208 0 334 -108q129 -108 129 -308q0 -175 -104 -282.5t-281 -126.5zM287 713h430q173 0 270.5 85.5t97.5 239.5q0 157 -98.5 242.5t-273.5 85.5h-426v-653z" />
    <glyph glyph-name="S" unicode="S" horiz-adv-x="1253" 
d="M1126 1284l-59 -74q-115 98 -223.5 141.5t-233.5 43.5q-167 0 -278 -83t-111 -208q0 -88 47 -141q49 -52 135 -82q95 -30 254 -68q274 -64 383 -156t109 -258q0 -127 -66.5 -225.5t-180 -150.5t-253.5 -52q-163 0 -299 54q-140 59 -287 180l62 74q162 -131 281 -177
q119 -43 241 -43q171 0 287 93q113 91 113 247q0 101 -52 162q-48 58 -134 93t-253 73q-278 61 -379.5 135t-107.5 230q0 117 70.5 208.5t180 138t234.5 46.5q148 0 272.5 -48.5t247.5 -152.5z" />
    <glyph glyph-name="T" unicode="T" horiz-adv-x="1206" 
d="M1135 1454v-88h-480v-1366h-104v1366h-479v88h1063z" />
    <glyph glyph-name="U" unicode="U" horiz-adv-x="1378" 
d="M1204 1454v-1014q0 -223 -127.5 -345t-388.5 -122q-259 0 -386.5 122t-127.5 345v1014h105v-1003q0 -193 104.5 -291.5t304.5 -98.5q203 0 307.5 98t104.5 292v1003h104z" />
    <glyph glyph-name="V" unicode="V" horiz-adv-x="1236" 
d="M1085 1454h105l-504 -1454h-137l-504 1454h105l258 -741q142 -404 213 -647q76 268 208 645z" />
    <glyph glyph-name="W" unicode="W" horiz-adv-x="1863" 
d="M1686 1454h104l-350 -1454h-146l-211 762q-87 324 -147 567q-60 -253 -148 -569l-210 -760h-156l-348 1454h106l182 -766q111 -475 142 -614q18 82 137 520q7 17 27 94l211 766h116l209 -766q93 -335 160 -606q46 221 139 606z" />
    <glyph glyph-name="X" unicode="X" horiz-adv-x="1206" 
d="M1180 0h-119l-457 686l-457 -686h-120l512 758l-469 696h116l420 -627l416 627h117l-467 -694z" />
    <glyph glyph-name="Y" unicode="Y" horiz-adv-x="1218" 
d="M1059 1454h117l-517 -825v-629h-104v631l-512 823h119l448 -731z" />
    <glyph glyph-name="Z" unicode="Z" horiz-adv-x="1243" 
d="M1163 1454v-78l-958 -1288h954v-88h-1079v78l954 1288h-907v88h1036z" />
    <glyph glyph-name="bracketleft" unicode="[" horiz-adv-x="628" 
d="M541 1528v-76h-232v-1642h232v-74h-330v1792h330z" />
    <glyph glyph-name="backslash" unicode="\" horiz-adv-x="841" 
d="M57 1454h95l634 -1454h-94z" />
    <glyph glyph-name="bracketright" unicode="]" horiz-adv-x="628" 
d="M88 1528h330v-1792h-330v74h231v1642h-231v76z" />
    <glyph glyph-name="asciicircum" unicode="^" 
d="M670 1454l407 -881h-108l-365 793l-364 -793h-107l410 881h127z" />
    <glyph glyph-name="underscore" unicode="_" horiz-adv-x="1228" 
d="M1239 -317v-72h-1249v72h1249z" />
    <glyph glyph-name="grave" unicode="`" horiz-adv-x="526" 
d="M129 1417h117l153 -282h-86z" />
    <glyph glyph-name="a" unicode="a" horiz-adv-x="1036" 
d="M887 694v-694h-92v137q-48 -82 -139.5 -124t-206.5 -42q-156 0 -251.5 70.5t-95.5 198.5q3 54 17 96t44 73.5t64.5 53.5t91.5 41t111 32t137 29l224 43v74q0 114 -72 175t-197 61q-93 0 -169.5 -38.5t-166.5 -136.5l-65 60q167 196 397 196q170 0 269.5 -84t99.5 -221z
M791 334v192l-205 -41q-120 -24 -211 -49q-174 -54 -174 -190q0 -90 68 -141.5t184 -51.5q147 0 242.5 80.5t95.5 200.5z" />
    <glyph glyph-name="b" unicode="b" horiz-adv-x="1122" 
d="M1030 485q0 -223 -120 -365.5t-306 -142.5q-251 0 -356 205v-182h-92v1454h98v-659q111 202 352 202q189 0 306.5 -142.5t117.5 -369.5zM928 485q0 190 -89.5 310t-234.5 120q-157 0 -256.5 -116.5t-99.5 -313.5q0 -198 97 -312t257 -114q144 0 235 119t91 307z" />
    <glyph glyph-name="c" unicode="c" horiz-adv-x="972" 
d="M528 918q-108 0 -186.5 -63.5t-115 -160t-36.5 -209.5t37.5 -208t118 -157.5t191.5 -62.5q88 0 153 35q69 35 160 137l63 -53q-87 -109 -173 -155t-199 -46q-208 0 -330.5 140.5t-122.5 369.5q0 227 123 370.5t321 143.5q120 0 206 -43.5t169 -142.5l-67 -59
q-78 89 -151 126.5t-161 37.5z" />
    <glyph glyph-name="d" unicode="d" horiz-adv-x="1124" 
d="M870 1454h99v-1454h-92v197q-51 -106 -144 -163t-217 -57q-189 0 -306.5 142.5t-117.5 369.5q0 222 122.5 365t311.5 143q238 0 344 -194v651zM874 489q0 198 -96 312t-254 114q-148 0 -238.5 -118.5t-90.5 -307.5q0 -190 89 -310t234 -120q157 0 256.5 116.5t99.5 313.5
z" />
    <glyph glyph-name="e" unicode="e" horiz-adv-x="1046" 
d="M893 246l65 -58q-104 -118 -196 -165.5t-217 -47.5q-209 0 -333 139t-124 365q0 231 123 375.5t321 144.5q195 0 308.5 -123t113.5 -333q0 -19 -4 -51h-760q3 -184 93 -312q89 -123 270 -123q91 0 167 42.5t173 146.5zM195 569h663q-5 157 -92.5 253t-233.5 96
q-137 0 -227.5 -92t-109.5 -257z" />
    <glyph glyph-name="f" unicode="f" horiz-adv-x="647" 
d="M330 1174v-199h270v-76h-270v-899h-99v899h-190v76h190v223q0 135 69.5 210t201.5 75q90 0 186 -35l-26 -78q-95 29 -158 29q-94 0 -134 -52t-40 -173z" />
    <glyph glyph-name="g" unicode="g" horiz-adv-x="1107" 
d="M858 975h94v-975q0 -182 -107 -285.5t-302 -103.5q-224 0 -422 143l53 74q113 -71 193.5 -102t177.5 -31q141 0 225 76t84 221v209q-51 -99 -139.5 -151t-206.5 -52q-184 0 -300 140t-116 362q0 220 119.5 358.5t306.5 138.5q239 0 340 -198v176zM856 500q0 193 -93 304
t-247 111q-145 0 -233 -116q-88 -113 -88 -299q0 -185 86 -303q89 -117 229 -117q156 0 251 113t95 307z" />
    <glyph glyph-name="h" unicode="h" horiz-adv-x="1067" 
d="M918 668v-668h-99v631q0 140 -68 213.5t-196 73.5q-122 0 -211.5 -89t-89.5 -208v-621h-98v1454h98v-625q47 82 128.5 126t186.5 44q168 0 258.5 -95.5t90.5 -235.5z" />
    <glyph glyph-name="i" unicode="i" horiz-adv-x="409" 
d="M254 975v-975h-98v975h98zM254 1386v-176h-98v176h98z" />
    <glyph glyph-name="j" unicode="j" horiz-adv-x="415" 
d="M14 -311q80 0 114 50.5t34 156.5v1079h98v-1086q0 -282 -252 -282q-78 0 -176 31l27 75q99 -24 155 -24zM258 1386v-176h-98v176h98z" />
    <glyph glyph-name="k" unicode="k" horiz-adv-x="968" 
d="M831 0l-368 528l-209 -213v-315h-98v1454h98v-1024l530 545h123l-377 -385l416 -590h-115z" />
    <glyph glyph-name="l" unicode="l" horiz-adv-x="421" 
d="M260 1454v-1454h-98v1454h98z" />
    <glyph glyph-name="m" unicode="m" horiz-adv-x="1603" 
d="M1454 680v-680h-98v653q0 129 -59.5 197t-174.5 68q-121 0 -195.5 -81t-74.5 -212v-625h-98v653q0 128 -59.5 196.5t-174.5 68.5t-190.5 -80.5t-75.5 -212.5v-625h-98v975h92v-133q86 157 282 157q104 0 180 -48.5t109 -129.5q108 178 307 178q155 0 241.5 -89.5
t86.5 -229.5z" />
    <glyph glyph-name="n" unicode="n" horiz-adv-x="1067" 
d="M918 668v-668h-99v631q0 140 -68 213.5t-196 73.5q-122 0 -211.5 -89t-89.5 -208v-621h-98v975h92v-158q44 87 127.5 134.5t193.5 47.5q168 0 258.5 -95.5t90.5 -235.5z" />
    <glyph glyph-name="o" unicode="o" horiz-adv-x="1095" 
d="M1008 485q0 -225 -129 -367.5t-332 -142.5q-204 0 -331.5 142t-127.5 368t128 370t331 144q202 0 331.5 -144t129.5 -370zM190 485q0 -186 97 -309q98 -119 260 -119q166 0 260 119q98 119 98 309q0 193 -98 312q-95 121 -260 121q-160 0 -260 -121q-97 -123 -97 -312z
" />
    <glyph glyph-name="p" unicode="p" horiz-adv-x="1122" 
d="M1030 485q0 -223 -120 -365.5t-306 -142.5q-245 0 -350 193v-539h-98v1344h92v-193q51 105 142.5 160t215.5 55q189 0 306.5 -142.5t117.5 -369.5zM928 485q0 190 -89.5 310t-234.5 120q-157 0 -256.5 -116.5t-99.5 -313.5q0 -198 97 -312t257 -114q144 0 235 119t91 307
z" />
    <glyph glyph-name="q" unicode="q" horiz-adv-x="1124" 
d="M877 975h92v-1344h-99v553q-112 -207 -354 -207q-189 0 -306.5 142.5t-117.5 369.5q0 222 122.5 365t311.5 143q122 0 211.5 -53t139.5 -153v184zM874 489q0 198 -96 312t-254 114q-148 0 -238.5 -118.5t-90.5 -307.5q0 -190 89 -310t234 -120q157 0 256.5 116.5
t99.5 313.5z" />
    <glyph glyph-name="r" unicode="r" horiz-adv-x="679" 
d="M649 954l-22 -80q-77 25 -133 25q-101 0 -170.5 -91.5t-69.5 -248.5v-559h-98v975h92v-166q32 79 99 126.5t147 47.5q66 0 155 -29z" />
    <glyph glyph-name="s" unicode="s" horiz-adv-x="927" 
d="M823 870l-55 -71q-92 66 -161.5 91t-157.5 25q-115 0 -184.5 -51t-69.5 -133q0 -50 32 -82q31 -29 85.5 -48.5t174.5 -47.5q195 -45 277 -108.5t82 -178.5q0 -130 -102 -210.5t-263 -80.5q-124 0 -215 39q-91 40 -209 140l62 65q105 -91 186 -126.5t180 -35.5
q114 0 188.5 58t74.5 151q-2 28 -10 50t-18.5 38.5t-32 31t-41 24.5t-55 21.5t-65 19.5t-80.5 20q-102 24 -162 44t-105 49.5t-63 68t-18 94.5q0 124 101 197q100 75 250 75q107 0 190.5 -29.5t183.5 -99.5z" />
    <glyph glyph-name="t" unicode="t" horiz-adv-x="673" 
d="M614 96l23 -76q-84 -34 -180 -34q-120 0 -174 54.5t-54 160.5v698h-188v76h188v352h99v-352h290v-76h-290v-686q0 -75 33 -109t102 -34q74 0 151 26z" />
    <glyph glyph-name="u" unicode="u" horiz-adv-x="1050" 
d="M797 975h98v-975h-94v143q-41 -82 -123 -125t-178 -43q-174 0 -262 88.5t-88 237.5v674h98v-656q0 -126 66.5 -193t185.5 -67q131 0 214 84t83 232v600z" />
    <glyph glyph-name="v" unicode="v" horiz-adv-x="909" 
d="M768 975h100l-346 -975h-135l-344 975h102l142 -404q112 -321 170 -505q29 95 112 333l60 172z" />
    <glyph glyph-name="w" unicode="w" horiz-adv-x="1404" 
d="M1249 975h103l-279 -975h-125l-104 354q-114 390 -144 510q-73 -274 -143 -514l-102 -350h-121l-279 975h103l112 -404q9 -34 127 -489q41 159 138 489l116 404h101l120 -404q95 -316 138 -491q65 263 127 491z" />
    <glyph glyph-name="x" unicode="x" horiz-adv-x="905" 
d="M868 0h-112l-301 446l-305 -446h-111l354 508l-330 467h113l279 -404l274 404h109l-322 -465z" />
    <glyph glyph-name="y" unicode="y" horiz-adv-x="925" 
d="M776 975h103l-404 -1133q-48 -133 -96 -182t-154 -53q-68 0 -123 14l19 82q59 -12 104 -12q60 0 94 37.5t72 146.5l23 68l-365 1032h105l131 -387l178 -518l131 374q3 9 51 150z" />
    <glyph glyph-name="z" unicode="z" horiz-adv-x="942" 
d="M848 975v-70l-643 -823h643v-82h-762v72l645 821h-604v82h721z" />
    <glyph glyph-name="braceleft" unicode="{" horiz-adv-x="737" 
d="M651 1528v-76h-90q-73 0 -104 -22q-27 -19 -33 -53t-6 -140v-352q0 -110 -43.5 -173t-145.5 -81v-4q102 -18 145.5 -80t43.5 -172v-348q0 -82 4 -136q6 -41 37.5 -61t101.5 -20h90v-74h-88q-75 0 -117.5 10t-73.5 42t-42 88.5t-11 152.5v348q0 109 -48 155t-158 46v104
q110 0 158 46t48 155v352q0 96 11 152.5t42 88.5t73.5 42t117.5 10h88z" />
    <glyph glyph-name="bar" unicode="|" horiz-adv-x="772" 
d="M434 1638v-1925h-96v1925h96z" />
    <glyph glyph-name="braceright" unicode="}" horiz-adv-x="737" 
d="M88 1528h88q78 -2 118.5 -11.5t70.5 -41.5t40.5 -86.5t12.5 -153.5v-352q0 -109 49.5 -155t159.5 -46v-104q-110 0 -159.5 -46t-49.5 -155v-348q-2 -99 -12.5 -153.5t-40.5 -86.5t-70.5 -41.5t-118.5 -11.5h-88v74h90q75 0 103 22q29 19 35 53.5t6 141.5v348
q0 110 43 172t145 80v4q-102 18 -145 80.5t-43 173.5v352q0 89 -7 133q-5 41 -36 61.5t-101 20.5h-90v76z" />
    <glyph glyph-name="asciitilde" unicode="~" horiz-adv-x="1228" 
d="M651 727q89 -34 134.5 -47.5t86.5 -13.5q66 0 94.5 30t34.5 95h91q-15 -209 -218 -209q-46 0 -97.5 14.5t-137.5 48.5q-92 36 -145.5 51t-104.5 15q-70 0 -111 -34t-47 -91h-92q8 92 74.5 150.5t183.5 58.5q35 0 77 -9.5t72.5 -20t104.5 -38.5z" />
    <glyph glyph-name="uni00A0" unicode="&#xa0;" horiz-adv-x="477" 
 />
    <glyph glyph-name="exclamdown" unicode="&#xa1;" horiz-adv-x="409" 
d="M133 819v158h139v-158h-139zM150 -477v432l22 651h59l23 -651v-432h-104z" />
    <glyph glyph-name="cent" unicode="&#xa2;" 
d="M670 -23v-182h-90v182q-188 15 -297 154q-107 137 -107 354q0 215 110.5 356t293.5 156v203h90v-203q98 -7 174 -51t151 -133l-67 -59q-65 74 -126.5 111t-131.5 48v-854q70 6 130 43.5t138 126.5l63 -53q-80 -100 -157 -146.5t-174 -52.5zM580 59v856
q-95 -10 -165.5 -75.5t-103 -157.5t-32.5 -197q0 -160 75 -284q77 -124 226 -142z" />
    <glyph glyph-name="sterling" unicode="&#xa3;" 
d="M1098 143l39 -77q-145 -93 -293 -93q-89 0 -250 37q-140 35 -234 35q-88 0 -131 -14q-32 -10 -110 -43l-35 75q112 47 205 134q88 85 88 225q0 100 -21 188h-200v78h180l-14 43q-30 96 -42 158t-12 143q0 115 56.5 204t150.5 136t207 47t212 -39.5t204 -122.5l-60 -73
q-101 80 -183.5 114.5t-178.5 34.5q-135 0 -220 -85t-85 -226q0 -47 5 -93.5t14 -87t16 -67t16.5 -56t9.5 -30.5h486v-78h-465q20 -84 20 -186q0 -178 -151 -299q122 2 288 -33l86 -16q74 -15 150 -15q66 0 121.5 18.5t130.5 63.5z" />
    <glyph glyph-name="currency" unicode="&#xa4;" 
d="M977 1141l70 -70l-136 -137q82 -101 82 -238q0 -136 -82 -237l133 -135l-69 -70l-139 135q-101 -70 -228 -70q-134 0 -233 74l-144 -141l-69 70l139 141q-80 100 -80 233q0 128 78 232l-139 141l71 70l142 -144q100 78 235 78q126 0 226 -69zM313 696q0 -123 84 -207
q82 -79 211 -79q127 0 209 79q84 84 84 207q0 124 -84 205q-82 82 -209 82q-129 0 -211 -82q-84 -81 -84 -205z" />
    <glyph glyph-name="yen" unicode="&#xa5;" 
d="M1110 1393l-330 -549h264v-84h-315l-78 -131v-109h393v-84h-393v-436h-98v436h-391v84h391v111l-78 129h-313v84h264l-330 549h113l397 -676l395 676h109z" />
    <glyph glyph-name="brokenbar" unicode="&#xa6;" horiz-adv-x="772" 
d="M434 1638v-819h-96v819h96zM434 532v-819h-96v819h96z" />
    <glyph glyph-name="section" unicode="&#xa7;" 
d="M1008 186q0 -136 -114 -219.5t-280 -83.5q-125 0 -226.5 35t-219.5 115l55 73q107 -77 194 -107t193 -30q133 0 217 60.5t84 154.5q-3 30 -10.5 51.5t-28 39.5t-41 30t-65 26t-83.5 23.5t-112 26.5q-232 51 -333 120.5t-101 192.5q0 94 66 161t186 103q-99 36 -142.5 87
t-43.5 135q0 86 55.5 155.5t145 106.5t192.5 37q125 0 226.5 -35t207.5 -111l-57 -71q-107 76 -189.5 105.5t-183.5 29.5q-129 0 -215 -62t-86 -151q7 -85 74.5 -122t265.5 -79q232 -52 333 -120t101 -191q0 -98 -68 -165.5t-194 -103.5q107 -36 152 -84t45 -133zM612 457
l70 -17q134 26 214.5 85t80.5 143q0 71 -49 114q-47 42 -121 68.5t-209 54.5l-84 19q-130 -26 -205.5 -83.5t-75.5 -142.5q0 -68 48 -116q47 -41 118 -66.5t213 -58.5z" />
    <glyph glyph-name="dieresis" unicode="&#xa8;" horiz-adv-x="686" 
d="M229 1386v-176h-100v176h100zM559 1386v-176h-100v176h100z" />
    <glyph glyph-name="copyright" unicode="&#xa9;" horiz-adv-x="1753" 
d="M123 727q-3 206 96.5 380.5t274.5 275.5t383 98q154 3 294.5 -56t241.5 -160t160 -242t57 -296q2 -155 -57 -296t-160 -242t-241.5 -160t-294.5 -56q-205 -4 -380 96.5t-276 276t-98 381.5zM1542 727q3 185 -84.5 342.5t-242 249t-338.5 88.5q-138 2 -262.5 -51.5
t-213.5 -145.5t-140.5 -218.5t-49.5 -264.5q-2 -138 49.5 -264.5t140.5 -218.5t213.5 -145.5t262.5 -51.5q184 -3 338.5 88.5t242 249t84.5 342.5zM463 727q0 192 118 322.5t304 130.5q242 0 360 -219l-82 -41q-104 180 -278 180q-137 0 -229.5 -110.5t-92.5 -262.5
q0 -156 90.5 -262.5t233.5 -106.5q92 0 160 46.5t124 146.5l80 -41q-63 -122 -150.5 -179t-215.5 -57q-186 0 -304 130.5t-118 322.5z" />
    <glyph glyph-name="ordfeminine" unicode="&#xaa;" horiz-adv-x="808" 
d="M690 1229v-516h-84v108q-76 -129 -260 -129q-119 0 -188.5 54t-69.5 147q0 46 16 81.5t43.5 60.5t73 45.5t96.5 34t123 26.5l162 28v48q0 83 -50.5 127.5t-139.5 44.5q-71 0 -131.5 -31t-124.5 -98l-58 49q128 151 312 151q132 0 206 -62.5t74 -168.5zM602 991v105
l-137 -25q-158 -28 -224.5 -64t-66.5 -110q0 -61 47 -95t127 -34q118 0 186 60t68 163z" />
    <glyph glyph-name="guillemotleft" unicode="&#xab;" horiz-adv-x="1097" 
d="M530 952l-278 -434l278 -434h-110l-281 434l281 434h110zM950 952l-278 -434l278 -434h-110l-281 434l281 434h110z" />
    <glyph glyph-name="logicalnot" unicode="&#xac;" horiz-adv-x="1228" 
d="M82 678h1065v-512h-90v426h-975v86z" />
    <glyph glyph-name="registered" unicode="&#xae;" horiz-adv-x="1161" 
d="M1034 1024q0 -192 -130 -322.5t-322 -130.5t-322.5 130.5t-130.5 322.5t130.5 322.5t322.5 130.5t322 -130.5t130 -322.5zM963 1024q0 167 -108 279t-273 112t-273 -112t-108 -279t108 -279t273 -112t273 112t108 279zM414 1282v-506h71v199h117l121 -199h82l-131 209
q100 37 100 141q0 67 -45.5 111.5t-114.5 44.5h-200zM596 1038h-111v179h111q50 0 76 -24.5t26 -66.5q0 -88 -102 -88z" />
    <glyph glyph-name="overscore" unicode="&#xaf;" horiz-adv-x="755" 
d="M629 1307v-86h-500v86h500z" />
    <glyph glyph-name="degree" unicode="&#xb0;" horiz-adv-x="790" 
d="M668 1204q0 -115 -80 -192q-79 -76 -193 -76q-113 0 -192 76q-80 77 -80 192q0 114 80 191q81 78 192 78q112 0 193 -78q80 -77 80 -191zM582 1204q0 82 -52.5 135.5t-134.5 53.5q-81 0 -133.5 -53.5t-52.5 -135.5q0 -84 52 -137t134 -53t134.5 53t52.5 137z" />
    <glyph glyph-name="plusminus" unicode="&#xb1;" horiz-adv-x="1228" 
d="M659 1311v-490h488v-86h-488v-489h-90v489h-487v86h487v490h90zM1147 86v-86h-1065v86h1065z" />
    <glyph glyph-name="uni00B2" unicode="&#xb2;" horiz-adv-x="813" 
d="M186 692h533v-74h-615v39q2 65 18 112t52.5 86t77 67t113.5 69l36 21q115 62 161 108t46 117q0 74 -52.5 117t-139.5 43q-120 0 -252 -129l-55 59q154 148 307 148q123 0 201.5 -67.5t78.5 -168.5q0 -69 -28 -117q-28 -45 -67 -75t-124 -76l-65 -37q-67 -39 -97 -58.5
t-62.5 -49t-46 -60t-20.5 -74.5z" />
    <glyph glyph-name="uni00B3" unicode="&#xb3;" horiz-adv-x="800" 
d="M694 872q0 -111 -83.5 -192.5t-217.5 -81.5q-74 0 -144.5 23t-166.5 79l45 64q83 -50 142.5 -69t127.5 -19q92 0 149.5 53t57.5 143q0 85 -59 135t-154 50q-59 0 -108 -19l-45 52l321 290h-448v74h553v-82l-285 -250q6 2 29 2q121 0 203.5 -68.5t82.5 -183.5z" />
    <glyph glyph-name="acute" unicode="&#xb4;" horiz-adv-x="526" 
d="M399 1417l-184 -282h-86l152 282h118z" />
    <glyph glyph-name="uni00B5" unicode="&#xb5;" horiz-adv-x="1058" 
d="M803 975h100v-975h-90v143q-85 -168 -313 -168q-171 0 -244 88v-438h-100v1350h100v-656q0 -127 65 -192.5t189 -65.5q122 0 207 82q86 83 86 232v600z" />
    <glyph glyph-name="paragraph" unicode="&#xb6;" horiz-adv-x="1263" 
d="M805 1454v-1659h-94v789h-158q-211 0 -338 117.5t-127 318.5t127 317.5t338 116.5h252zM1079 1454v-1659h-94v1659h94z" />
    <glyph glyph-name="middot" unicode="&#xb7;" horiz-adv-x="395" 
d="M268 688v-158h-139v158h139z" />
    <glyph glyph-name="cedilla" unicode="&#xb8;" horiz-adv-x="665" 
d="M350 -139q83 0 136 -42t53 -110q0 -75 -56.5 -123.5t-142.5 -48.5q-102 0 -211 66l37 65q65 -33 96.5 -44t71.5 -11q56 0 89.5 24t33.5 70q0 41 -35.5 64.5t-95.5 23.5q-36 0 -60 -6l-47 45l94 201l66 -35l-66 -141q8 2 37 2z" />
    <glyph glyph-name="uni00B9" unicode="&#xb9;" horiz-adv-x="647" 
d="M352 1454h74v-836h-84v738l-188 -144l-50 54z" />
    <glyph glyph-name="ordmasculine" unicode="&#xba;" horiz-adv-x="888" 
d="M791 1081q0 -165 -97 -276q-94 -107 -250 -107q-152 0 -249 108.5t-97 274.5q0 169 97 278t249 109q155 0 251 -108t96 -279zM188 1081q0 -138 70 -223.5t186 -85.5q117 0 186.5 85.5t69.5 223.5q0 142 -69 228t-187 86q-117 0 -186.5 -86t-69.5 -228z" />
    <glyph glyph-name="guillemotright" unicode="&#xbb;" horiz-adv-x="1097" 
d="M139 952h111l280 -434l-280 -434h-111l281 434zM559 952h111l280 -434l-280 -434h-111l281 434z" />
    <glyph glyph-name="onequarter" unicode="&#xbc;" horiz-adv-x="1746" 
d="M352 1393h74v-836h-84v737l-188 -143l-50 53zM1278 1419l74 -45l-990 -1401l-67 47zM1544 274h131v-71h-131v-203h-86v203h-444v80l366 553h97l-375 -562h356v199h86v-199z" />
    <glyph glyph-name="onehalf" unicode="&#xbd;" horiz-adv-x="1810" 
d="M352 1393h74v-836h-84v737l-188 -143l-50 53zM1278 1419l74 -45l-990 -1401l-67 47zM1184 74h532v-74h-614v39q2 52 14 93.5t30.5 72t53.5 60.5t69.5 52.5t92.5 55.5l37 20q115 62 161 108t46 117q0 74 -53 117t-140 43q-120 0 -252 -129l-55 60q153 147 307 147
q123 0 202 -67t79 -168q0 -67 -29 -117q-28 -45 -67.5 -76t-122.5 -76l-66 -37q-54 -32 -79 -47.5t-57 -39.5t-45.5 -43.5t-26 -47t-17.5 -63.5z" />
    <glyph glyph-name="threequarters" unicode="&#xbe;" horiz-adv-x="1900" 
d="M694 811q0 -111 -83.5 -192.5t-217.5 -81.5q-74 0 -144.5 23t-166.5 79l45 63q83 -50 142.5 -69t127.5 -19q92 0 149.5 53.5t57.5 143.5q0 85 -59 134.5t-154 49.5q-61 0 -108 -18l-45 51l321 291h-448v74h553v-82l-285 -250q6 2 29 2q121 0 203.5 -68.5t82.5 -183.5z
M1432 1419l73 -45l-989 -1401l-67 47zM1698 274h131v-71h-131v-203h-86v203h-445v80l367 553h96l-375 -562h357v199h86v-199z" />
    <glyph glyph-name="questiondown" unicode="&#xbf;" horiz-adv-x="907" 
d="M438 819v158h140v-158h-140zM23 -160q0 87 32 150q33 63 73 107t118 112q28 22 59 53q58 55 79 76.5t43 55t29 63t13 82.5l6 77h68v-96q-3 -67 -9.5 -104.5t-30.5 -77.5t-49.5 -66t-88.5 -86l-41 -34q-112 -99 -155.5 -162.5t-43.5 -149.5q0 -114 88 -184q90 -72 221 -72
q103 0 189 40t196 138l62 -67q-113 -105 -217 -153t-230 -48q-78 0 -150.5 22.5t-131 64t-94 109t-35.5 150.5z" />
    <glyph glyph-name="Agrave" unicode="&#xc0;" horiz-adv-x="1296" 
d="M1145 0l-162 438h-672l-157 -438h-107l533 1454h137l532 -1454h-104zM344 526h608l-80 215q-165 455 -225 637q-95 -282 -188 -532l-37 -103zM424 1845h117l153 -282h-86z" />
    <glyph glyph-name="Aacute" unicode="&#xc1;" horiz-adv-x="1296" 
d="M1145 0l-162 438h-672l-157 -438h-107l533 1454h137l532 -1454h-104zM344 526h608l-80 215q-165 455 -225 637q-95 -282 -188 -532l-37 -103zM872 1845l-184 -282h-86l152 282h118z" />
    <glyph glyph-name="Acircumflex" unicode="&#xc2;" horiz-adv-x="1296" 
d="M1145 0l-162 438h-672l-157 -438h-107l533 1454h137l532 -1454h-104zM344 526h608l-80 215q-165 455 -225 637q-95 -282 -188 -532l-37 -103zM815 1563l-168 217l-168 -217h-88l193 282h125l194 -282h-88z" />
    <glyph glyph-name="Atilde" unicode="&#xc3;" horiz-adv-x="1296" 
d="M1145 0l-162 438h-672l-157 -438h-107l533 1454h137l532 -1454h-104zM344 526h608l-80 215q-165 455 -225 637q-95 -282 -188 -532l-37 -103zM670 1718q85 -51 123 -51q37 0 51 27t14 86h78q0 -89 -35 -142t-102 -53q-51 0 -144 55q-54 32 -85.5 45t-61.5 13
q-70 0 -70 -111h-80q0 89 39 142t115 53q60 0 158 -64z" />
    <glyph glyph-name="Adieresis" unicode="&#xc4;" horiz-adv-x="1296" 
d="M1145 0l-162 438h-672l-157 -438h-107l533 1454h137l532 -1454h-104zM344 526h608l-80 215q-165 455 -225 637q-95 -282 -188 -532l-37 -103zM530 1815v-177h-100v177h100zM860 1815v-177h-100v177h100z" />
    <glyph glyph-name="Aring" unicode="&#xc5;" horiz-adv-x="1304" 
d="M1151 0l-162 440h-674l-159 -440h-109l528 1438q-64 23 -103.5 78t-39.5 122q0 91 64.5 154t156.5 63q91 0 154 -63t63 -154q0 -67 -39.5 -121.5t-101.5 -78.5l528 -1438h-106zM653 1499q60 0 97.5 38.5t37.5 100.5q0 66 -37.5 106t-97.5 40q-63 0 -101 -40t-38 -106
q0 -62 38 -100.5t101 -38.5zM348 530h606l-75 207q-174 483 -228 656q-61 -195 -227 -656z" />
    <glyph glyph-name="AE" unicode="&#xc6;" horiz-adv-x="1892" 
d="M969 86h829v-86h-936v440h-493l-232 -440h-110l764 1454h993v-86h-815v-577h753v-89h-753v-616zM416 530h446v846z" />
    <glyph glyph-name="Ccedilla" unicode="&#xc7;" horiz-adv-x="1351" 
d="M780 -29l-51 -112q8 2 37 2q83 0 135.5 -42t52.5 -110q0 -75 -56 -123.5t-142 -48.5q-102 0 -211 66l37 65q65 -33 96.5 -44t71.5 -11q56 0 89 24t33 70q0 41 -35.5 64.5t-95.5 23.5q-35 0 -59 -6l-47 45l65 139q-184 14 -321.5 115.5t-209 266t-71.5 370.5
q0 220 80.5 391t236 269t363.5 98q128 0 246.5 -46t243.5 -151l-60 -72q-120 97 -223 139t-209 42q-260 0 -416.5 -187t-156.5 -481q0 -292 155 -480t402 -188q129 0 238 57.5t231 180.5l67 -68q-142 -142 -254 -198q-111 -57 -262 -60z" />
    <glyph glyph-name="Egrave" unicode="&#xc8;" horiz-adv-x="1212" 
d="M1104 1454v-88h-815v-575h753v-89h-753v-614h829v-88h-934v1454h920zM416 1845h116l154 -282h-86z" />
    <glyph glyph-name="Eacute" unicode="&#xc9;" horiz-adv-x="1212" 
d="M1104 1454v-88h-815v-575h753v-89h-753v-614h829v-88h-934v1454h920zM864 1845l-184 -282h-86l151 282h119z" />
    <glyph glyph-name="Ecircumflex" unicode="&#xca;" horiz-adv-x="1212" 
d="M1104 1454v-88h-815v-575h753v-89h-753v-614h829v-88h-934v1454h920zM807 1563l-168 217l-168 -217h-88l192 282h125l195 -282h-88z" />
    <glyph glyph-name="Edieresis" unicode="&#xcb;" horiz-adv-x="1212" 
d="M1104 1454v-88h-815v-575h753v-89h-753v-614h829v-88h-934v1454h920zM522 1815v-177h-100v177h100zM852 1815v-177h-100v177h100z" />
    <glyph glyph-name="Igrave" unicode="&#xcc;" horiz-adv-x="501" 
d="M303 1454v-1454h-104v1454h104zM29 1845h116l154 -282h-86z" />
    <glyph glyph-name="Iacute" unicode="&#xcd;" horiz-adv-x="501" 
d="M303 1454v-1454h-104v1454h104zM477 1845l-184 -282h-86l151 282h119z" />
    <glyph glyph-name="Icircumflex" unicode="&#xce;" horiz-adv-x="501" 
d="M303 1454v-1454h-104v1454h104zM420 1563l-168 217l-168 -217h-88l192 282h125l195 -282h-88z" />
    <glyph glyph-name="Idieresis" unicode="&#xcf;" horiz-adv-x="501" 
d="M303 1454v-1454h-104v1454h104zM135 1815v-177h-100v177h100zM465 1815v-177h-100v177h100z" />
    <glyph glyph-name="Eth" unicode="&#xd0;" horiz-adv-x="1464" 
d="M1366 727q0 -328 -166.5 -527.5t-460.5 -199.5h-501v707h-185v86h185v661h501q294 0 460.5 -199.5t166.5 -527.5zM1262 727q0 287 -138 463q-135 176 -399 176h-383v-573h414v-86h-414v-619h383q265 0 399 174q138 176 138 465z" />
    <glyph glyph-name="Ntilde" unicode="&#xd1;" horiz-adv-x="1474" 
d="M1190 1454h100v-1454h-125l-471 709l-418 622q9 -246 9 -545v-786h-101v1454h125l451 -676l137 -207q11 -16 122.5 -184.5t176.5 -269.5l-2 196q-4 332 -4 363v778zM772 1718q85 -51 123 -51q37 0 51.5 27.5t14.5 85.5h77q0 -89 -35 -142t-102 -53q-50 0 -143 55
q-98 58 -148 58q-69 0 -69 -111h-80q0 90 38.5 142.5t114.5 52.5q60 0 158 -64z" />
    <glyph glyph-name="Ograve" unicode="&#xd2;" horiz-adv-x="1533" 
d="M1436 727q0 -217 -81.5 -388.5t-235 -269.5t-353.5 -98q-148 -2 -274 55t-212.5 158.5t-134.5 241.5t-47 301q-1 161 47 301t134.5 241.5t212.5 158.5t274 55q200 0 353.5 -98t235 -269.5t81.5 -388.5zM203 727q0 -293 157 -480.5t406 -187.5q166 0 295 85.5t199.5 237.5
t70.5 345q0 292 -157.5 480t-407.5 188q-162 3 -292 -85t-201.5 -241.5t-69.5 -341.5zM543 1845h116l154 -282h-86z" />
    <glyph glyph-name="Oacute" unicode="&#xd3;" horiz-adv-x="1533" 
d="M1436 727q0 -217 -81.5 -388.5t-235 -269.5t-353.5 -98q-148 -2 -274 55t-212.5 158.5t-134.5 241.5t-47 301q-1 161 47 301t134.5 241.5t212.5 158.5t274 55q200 0 353.5 -98t235 -269.5t81.5 -388.5zM203 727q0 -293 157 -480.5t406 -187.5q166 0 295 85.5t199.5 237.5
t70.5 345q0 292 -157.5 480t-407.5 188q-162 3 -292 -85t-201.5 -241.5t-69.5 -341.5zM991 1845l-184 -282h-86l151 282h119z" />
    <glyph glyph-name="Ocircumflex" unicode="&#xd4;" horiz-adv-x="1533" 
d="M1436 727q0 -217 -81.5 -388.5t-235 -269.5t-353.5 -98q-148 -2 -274 55t-212.5 158.5t-134.5 241.5t-47 301q-1 161 47 301t134.5 241.5t212.5 158.5t274 55q200 0 353.5 -98t235 -269.5t81.5 -388.5zM203 727q0 -293 157 -480.5t406 -187.5q166 0 295 85.5t199.5 237.5
t70.5 345q0 292 -157.5 480t-407.5 188q-162 3 -292 -85t-201.5 -241.5t-69.5 -341.5zM934 1563l-168 217l-168 -217h-88l192 282h125l195 -282h-88z" />
    <glyph glyph-name="Otilde" unicode="&#xd5;" horiz-adv-x="1533" 
d="M1436 727q0 -217 -81.5 -388.5t-235 -269.5t-353.5 -98q-148 -2 -274 55t-212.5 158.5t-134.5 241.5t-47 301q-1 161 47 301t134.5 241.5t212.5 158.5t274 55q200 0 353.5 -98t235 -269.5t81.5 -388.5zM203 727q0 -293 157 -480.5t406 -187.5q166 0 295 85.5t199.5 237.5
t70.5 345q0 292 -157.5 480t-407.5 188q-162 3 -292 -85t-201.5 -241.5t-69.5 -341.5zM788 1718q85 -51 123 -51q37 0 51.5 27.5t14.5 85.5h78q0 -89 -35 -142t-102 -53q-51 0 -144 55q-54 32 -85.5 45t-61.5 13q-70 0 -70 -111h-80q0 89 39 142t115 53q36 0 70.5 -15
t86.5 -49z" />
    <glyph glyph-name="Odieresis" unicode="&#xd6;" horiz-adv-x="1533" 
d="M1436 727q0 -217 -81.5 -388.5t-235 -269.5t-353.5 -98q-148 -2 -274 55t-212.5 158.5t-134.5 241.5t-47 301q-1 161 47 301t134.5 241.5t212.5 158.5t274 55q200 0 353.5 -98t235 -269.5t81.5 -388.5zM203 727q0 -293 157 -480.5t406 -187.5q166 0 295 85.5t199.5 237.5
t70.5 345q0 292 -157.5 480t-407.5 188q-162 3 -292 -85t-201.5 -241.5t-69.5 -341.5zM649 1815v-177h-100v177h100zM979 1815v-177h-100v177h100z" />
    <glyph glyph-name="multiply" unicode="&#xd7;" horiz-adv-x="1228" 
d="M1061 1022l-387 -387l387 -387l-60 -60l-387 387l-389 -387l-59 60l387 387l-387 387l59 61l389 -387l387 387z" />
    <glyph glyph-name="Oslash" unicode="&#xd8;" horiz-adv-x="1533" 
d="M1436 727q0 -217 -81.5 -388.5t-235 -269.5t-353.5 -98q-262 0 -436 162l-109 -129l-67 59l112 136q-168 211 -168 528q-1 161 47 301t134.5 241.5t212.5 158.5t274 55q253 0 436 -160l107 127l67 -59l-112 -134q172 -209 172 -530zM334 279l805 966q-153 150 -373 150
q-162 3 -292 -85t-201.5 -241.5t-69.5 -341.5q0 -268 131 -448zM1331 727q0 266 -133 451l-805 -969q150 -150 373 -150q166 0 295 85.5t199.5 237.5t70.5 345z" />
    <glyph glyph-name="Ugrave" unicode="&#xd9;" horiz-adv-x="1378" 
d="M1204 1454v-1014q0 -223 -127.5 -345t-388.5 -122q-259 0 -386.5 122t-127.5 345v1014h105v-1003q0 -193 104.5 -291.5t304.5 -98.5q203 0 307.5 98t104.5 292v1003h104zM467 1845h117l153 -282h-86z" />
    <glyph glyph-name="Uacute" unicode="&#xda;" horiz-adv-x="1378" 
d="M1204 1454v-1014q0 -223 -127.5 -345t-388.5 -122q-259 0 -386.5 122t-127.5 345v1014h105v-1003q0 -193 104.5 -291.5t304.5 -98.5q203 0 307.5 98t104.5 292v1003h104zM915 1845l-184 -282h-86l152 282h118z" />
    <glyph glyph-name="Ucircumflex" unicode="&#xdb;" horiz-adv-x="1378" 
d="M1204 1454v-1014q0 -223 -127.5 -345t-388.5 -122q-259 0 -386.5 122t-127.5 345v1014h105v-1003q0 -193 104.5 -291.5t304.5 -98.5q203 0 307.5 98t104.5 292v1003h104zM858 1563l-168 217l-168 -217h-88l193 282h125l194 -282h-88z" />
    <glyph glyph-name="Udieresis" unicode="&#xdc;" horiz-adv-x="1378" 
d="M1204 1454v-1014q0 -223 -127.5 -345t-388.5 -122q-259 0 -386.5 122t-127.5 345v1014h105v-1003q0 -193 104.5 -291.5t304.5 -98.5q203 0 307.5 98t104.5 292v1003h104zM573 1815v-177h-100v177h100zM903 1815v-177h-100v177h100z" />
    <glyph glyph-name="Yacute" unicode="&#xdd;" horiz-adv-x="1218" 
d="M1059 1454h117l-517 -825v-629h-104v631l-512 823h119l448 -731zM834 1845l-185 -282h-86l152 282h119z" />
    <glyph glyph-name="Thorn" unicode="&#xde;" horiz-adv-x="1277" 
d="M1210 760q0 -198 -126 -307t-339 -109h-456v-344h-105v1454h105v-278h456q213 0 339 -109t126 -307zM1106 760q0 159 -95.5 243t-269.5 84h-452v-655h452q174 0 269.5 84t95.5 244z" />
    <glyph glyph-name="germandbls" unicode="&#xdf;" horiz-adv-x="1144" 
d="M1055 432q0 -191 -116.5 -317.5t-301.5 -126.5q-143 0 -256 39l20 79q124 -38 228 -38q144 0 233.5 96.5t89.5 265.5t-111.5 262.5t-310.5 93.5h-49v78h49q139 0 214 75.5t75 207.5q0 113 -79.5 181.5t-200.5 68.5q-137 0 -211 -82t-74 -240v-1075h-98v1092
q0 179 103.5 283t283.5 104q158 0 266.5 -95t108.5 -239q0 -110 -49.5 -189.5t-133.5 -115.5q149 -37 234.5 -144t85.5 -264z" />
    <glyph glyph-name="agrave" unicode="&#xe0;" horiz-adv-x="1036" 
d="M887 694v-694h-92v137q-48 -82 -139.5 -124t-206.5 -42q-156 0 -251.5 70.5t-95.5 198.5q3 54 17 96t44 73.5t64.5 53.5t91.5 41t111 32t137 29l224 43v74q0 114 -72 175t-197 61q-93 0 -169.5 -38.5t-166.5 -136.5l-65 60q167 196 397 196q170 0 269.5 -84t99.5 -221z
M791 334v192l-205 -41q-120 -24 -211 -49q-174 -54 -174 -190q0 -90 68 -141.5t184 -51.5q147 0 242.5 80.5t95.5 200.5zM311 1417h117l154 -282h-86z" />
    <glyph glyph-name="aacute" unicode="&#xe1;" horiz-adv-x="1036" 
d="M887 694v-694h-92v137q-48 -82 -139.5 -124t-206.5 -42q-156 0 -251.5 70.5t-95.5 198.5q3 54 17 96t44 73.5t64.5 53.5t91.5 41t111 32t137 29l224 43v74q0 114 -72 175t-197 61q-93 0 -169.5 -38.5t-166.5 -136.5l-65 60q167 196 397 196q170 0 269.5 -84t99.5 -221z
M791 334v192l-205 -41q-120 -24 -211 -49q-174 -54 -174 -190q0 -90 68 -141.5t184 -51.5q147 0 242.5 80.5t95.5 200.5zM760 1417l-185 -282h-86l152 282h119z" />
    <glyph glyph-name="acircumflex" unicode="&#xe2;" horiz-adv-x="1036" 
d="M887 694v-694h-92v137q-48 -82 -139.5 -124t-206.5 -42q-156 0 -251.5 70.5t-95.5 198.5q3 54 17 96t44 73.5t64.5 53.5t91.5 41t111 32t137 29l224 43v74q0 114 -72 175t-197 61q-93 0 -169.5 -38.5t-166.5 -136.5l-65 60q167 196 397 196q170 0 269.5 -84t99.5 -221z
M791 334v192l-205 -41q-120 -24 -211 -49q-174 -54 -174 -190q0 -90 68 -141.5t184 -51.5q147 0 242.5 80.5t95.5 200.5zM702 1135l-167 217l-168 -217h-88l192 282h125l195 -282h-89z" />
    <glyph glyph-name="atilde" unicode="&#xe3;" horiz-adv-x="1036" 
d="M887 694v-694h-92v137q-48 -82 -139.5 -124t-206.5 -42q-156 0 -251.5 70.5t-95.5 198.5q3 54 17 96t44 73.5t64.5 53.5t91.5 41t111 32t137 29l224 43v74q0 114 -72 175t-197 61q-93 0 -169.5 -38.5t-166.5 -136.5l-65 60q167 196 397 196q170 0 269.5 -84t99.5 -221z
M791 334v192l-205 -41q-120 -24 -211 -49q-174 -54 -174 -190q0 -90 68 -141.5t184 -51.5q147 0 242.5 80.5t95.5 200.5zM557 1290q85 -51 123 -51q37 0 51 27t14 86h78q0 -89 -35 -142t-102 -53q-50 0 -143 55q-98 58 -148 58q-69 0 -69 -111h-80q0 90 38.5 142.5
t114.5 52.5q60 0 158 -64z" />
    <glyph glyph-name="adieresis" unicode="&#xe4;" horiz-adv-x="1036" 
d="M887 694v-694h-92v137q-48 -82 -139.5 -124t-206.5 -42q-156 0 -251.5 70.5t-95.5 198.5q3 54 17 96t44 73.5t64.5 53.5t91.5 41t111 32t137 29l224 43v74q0 114 -72 175t-197 61q-93 0 -169.5 -38.5t-166.5 -136.5l-65 60q167 196 397 196q170 0 269.5 -84t99.5 -221z
M791 334v192l-205 -41q-120 -24 -211 -49q-174 -54 -174 -190q0 -90 68 -141.5t184 -51.5q147 0 242.5 80.5t95.5 200.5zM418 1386v-176h-101v176h101zM748 1386v-176h-101v176h101z" />
    <glyph glyph-name="aring" unicode="&#xe5;" horiz-adv-x="1036" 
d="M887 694v-694h-92v137q-48 -82 -139.5 -124t-206.5 -42q-156 0 -251.5 70.5t-95.5 198.5q3 54 17 96t44 73.5t64.5 53.5t91.5 41t111 32t137 29l224 43v74q0 114 -72 175t-197 61q-93 0 -169.5 -38.5t-166.5 -136.5l-65 60q167 196 397 196q170 0 269.5 -84t99.5 -221z
M791 334v192l-205 -41q-120 -24 -211 -49q-174 -54 -174 -190q0 -90 68 -141.5t184 -51.5q147 0 242.5 80.5t95.5 200.5zM725 1313q0 -78 -57 -134.5t-136 -56.5q-81 0 -136.5 56t-55.5 135q0 80 55.5 135t136.5 55q80 0 136.5 -55.5t56.5 -134.5zM414 1313
q0 -56 33.5 -90.5t87.5 -34.5t86 34.5t32 90.5t-32 90.5t-86 34.5t-87.5 -34.5t-33.5 -90.5z" />
    <glyph glyph-name="ae" unicode="&#xe6;" horiz-adv-x="1748" 
d="M1597 246l64 -58q-103 -117 -198 -165t-216 -48q-122 0 -218.5 51t-158.5 144q-88 -100 -190.5 -149.5t-239.5 -49.5q-152 0 -245 69t-93 191q0 127 85 199t272 109l332 65v72q0 118 -65 178.5t-187 60.5q-87 0 -168 -36.5t-174 -116.5l-56 65q97 91 195.5 131.5
t210.5 40.5q263 0 327 -190q124 190 361 190q194 0 307 -123t113 -333l-4 -62h-758q2 -85 23.5 -159t63 -134.5t109.5 -95.5t156 -35q100 0 174 41q76 40 178 148zM893 561h666q-5 162 -91.5 259.5t-232.5 97.5q-141 0 -231.5 -93.5t-110.5 -263.5zM831 248
q-22 49 -30 107.5t-10 168.5l-306 -61q-154 -31 -219 -81.5t-65 -141.5q0 -89 67 -138t176 -49q119 0 217 52.5t170 142.5z" />
    <glyph glyph-name="ccedilla" unicode="&#xe7;" horiz-adv-x="972" 
d="M551 -25l-53 -116q8 2 37 2q83 0 135.5 -42t52.5 -110q0 -75 -56.5 -123.5t-142.5 -48.5q-102 0 -211 66l37 65q65 -33 96.5 -44t71.5 -11q56 0 89.5 24t33.5 70q0 41 -35.5 64.5t-95.5 23.5q-35 0 -59 -6l-48 45l68 146q-178 23 -280.5 159t-102.5 346q0 227 123 370.5
t321 143.5q120 0 206 -43.5t169 -142.5l-67 -59q-78 89 -151 126.5t-161 37.5q-108 0 -186.5 -63.5t-115 -160t-36.5 -209.5t37.5 -208t118 -157.5t191.5 -62.5q88 0 153 35q69 35 160 137l63 -53q-86 -108 -169 -153.5t-193 -47.5z" />
    <glyph glyph-name="egrave" unicode="&#xe8;" horiz-adv-x="1046" 
d="M893 246l65 -58q-104 -118 -196 -165.5t-217 -47.5q-209 0 -333 139t-124 365q0 231 123 375.5t321 144.5q195 0 308.5 -123t113.5 -333q0 -19 -4 -51h-760q3 -184 93 -312q89 -123 270 -123q91 0 167 42.5t173 146.5zM195 569h663q-5 157 -92.5 253t-233.5 96
q-137 0 -227.5 -92t-109.5 -257zM326 1417h116l154 -282h-86z" />
    <glyph glyph-name="eacute" unicode="&#xe9;" horiz-adv-x="1046" 
d="M893 246l65 -58q-104 -118 -196 -165.5t-217 -47.5q-209 0 -333 139t-124 365q0 231 123 375.5t321 144.5q195 0 308.5 -123t113.5 -333q0 -19 -4 -51h-760q3 -184 93 -312q89 -123 270 -123q91 0 167 42.5t173 146.5zM195 569h663q-5 157 -92.5 253t-233.5 96
q-137 0 -227.5 -92t-109.5 -257zM774 1417l-184 -282h-86l151 282h119z" />
    <glyph glyph-name="ecircumflex" unicode="&#xea;" horiz-adv-x="1046" 
d="M893 246l65 -58q-104 -118 -196 -165.5t-217 -47.5q-209 0 -333 139t-124 365q0 231 123 375.5t321 144.5q195 0 308.5 -123t113.5 -333q0 -19 -4 -51h-760q3 -184 93 -312q89 -123 270 -123q91 0 167 42.5t173 146.5zM195 569h663q-5 157 -92.5 253t-233.5 96
q-137 0 -227.5 -92t-109.5 -257zM717 1135l-168 217l-168 -217h-88l192 282h125l195 -282h-88z" />
    <glyph glyph-name="edieresis" unicode="&#xeb;" horiz-adv-x="1046" 
d="M893 246l65 -58q-104 -118 -196 -165.5t-217 -47.5q-209 0 -333 139t-124 365q0 231 123 375.5t321 144.5q195 0 308.5 -123t113.5 -333q0 -19 -4 -51h-760q3 -184 93 -312q89 -123 270 -123q91 0 167 42.5t173 146.5zM195 569h663q-5 157 -92.5 253t-233.5 96
q-137 0 -227.5 -92t-109.5 -257zM432 1386v-176h-100v176h100zM762 1386v-176h-100v176h100z" />
    <glyph glyph-name="igrave" unicode="&#xec;" horiz-adv-x="409" 
d="M254 975v-975h-98v975h98zM-16 1417h116l154 -282h-86z" />
    <glyph glyph-name="iacute" unicode="&#xed;" horiz-adv-x="409" 
d="M254 975v-975h-98v975h98zM432 1417l-184 -282h-86l151 282h119z" />
    <glyph glyph-name="icircumflex" unicode="&#xee;" horiz-adv-x="409" 
d="M254 975v-975h-98v975h98zM375 1135l-168 217l-168 -217h-88l192 282h125l195 -282h-88z" />
    <glyph glyph-name="idieresis" unicode="&#xef;" horiz-adv-x="409" 
d="M254 975v-975h-98v975h98zM90 1386v-176h-100v176h100zM420 1386v-176h-101v176h101z" />
    <glyph glyph-name="eth" unicode="&#xf0;" horiz-adv-x="1128" 
d="M1018 586q0 -278 -123 -447q-122 -168 -350 -168q-101 0 -187.5 41.5t-145 110.5t-91.5 159.5t-33 188.5q0 134 56 248t160.5 183t234.5 69q143 0 245 -71.5t146 -192.5q-17 177 -84.5 302.5t-194.5 217.5l-237 -158l-45 61l215 142q-67 44 -191 94l-90 37l39 70l74 -29
q159 -66 246 -121l186 123l39 -62l-158 -106q146 -108 217.5 -274.5t71.5 -417.5zM905 469q0 176 -101.5 297t-262.5 121q-105 0 -185.5 -56.5t-123 -151t-42.5 -210.5q0 -179 96 -297.5t259 -118.5q158 0 259 121t101 295z" />
    <glyph glyph-name="ntilde" unicode="&#xf1;" horiz-adv-x="1067" 
d="M918 668v-668h-99v631q0 140 -68 213.5t-196 73.5q-122 0 -211.5 -89t-89.5 -208v-621h-98v975h92v-158q44 87 127.5 134.5t193.5 47.5q168 0 258.5 -95.5t90.5 -235.5zM563 1290q85 -51 123 -51q37 0 51.5 27.5t14.5 85.5h77q0 -89 -35 -142t-102 -53q-50 0 -143 55
q-98 58 -148 58q-69 0 -69 -111h-80q0 89 39 142t115 53q36 0 70.5 -15t86.5 -49z" />
    <glyph glyph-name="ograve" unicode="&#xf2;" horiz-adv-x="1095" 
d="M1008 485q0 -225 -129 -367.5t-332 -142.5q-204 0 -331.5 142t-127.5 368t128 370t331 144q202 0 331.5 -144t129.5 -370zM190 485q0 -186 97 -309q98 -119 260 -119q166 0 260 119q98 119 98 309q0 193 -98 312q-95 121 -260 121q-160 0 -260 -121q-97 -123 -97 -312z
M319 1417h117l154 -282h-86z" />
    <glyph glyph-name="oacute" unicode="&#xf3;" horiz-adv-x="1095" 
d="M1008 485q0 -225 -129 -367.5t-332 -142.5q-204 0 -331.5 142t-127.5 368t128 370t331 144q202 0 331.5 -144t129.5 -370zM190 485q0 -186 97 -309q98 -119 260 -119q166 0 260 119q98 119 98 309q0 193 -98 312q-95 121 -260 121q-160 0 -260 -121q-97 -123 -97 -312z
M768 1417l-184 -282h-86l151 282h119z" />
    <glyph glyph-name="ocircumflex" unicode="&#xf4;" horiz-adv-x="1095" 
d="M1008 485q0 -225 -129 -367.5t-332 -142.5q-204 0 -331.5 142t-127.5 368t128 370t331 144q202 0 331.5 -144t129.5 -370zM190 485q0 -186 97 -309q98 -119 260 -119q166 0 260 119q98 119 98 309q0 193 -98 312q-95 121 -260 121q-160 0 -260 -121q-97 -123 -97 -312z
M711 1135l-168 217l-168 -217h-88l192 282h125l195 -282h-88z" />
    <glyph glyph-name="otilde" unicode="&#xf5;" horiz-adv-x="1095" 
d="M1008 485q0 -225 -129 -367.5t-332 -142.5q-204 0 -331.5 142t-127.5 368t128 370t331 144q202 0 331.5 -144t129.5 -370zM190 485q0 -186 97 -309q98 -119 260 -119q166 0 260 119q98 119 98 309q0 193 -98 312q-95 121 -260 121q-160 0 -260 -121q-97 -123 -97 -312z
M565 1290q85 -51 123 -51q37 0 51.5 27.5t14.5 85.5h77q0 -89 -35 -142t-102 -53q-50 0 -143 55q-98 58 -148 58q-69 0 -69 -111h-80q0 89 39 142t115 53q36 0 70.5 -15t86.5 -49z" />
    <glyph glyph-name="odieresis" unicode="&#xf6;" horiz-adv-x="1095" 
d="M1008 485q0 -225 -129 -367.5t-332 -142.5q-204 0 -331.5 142t-127.5 368t128 370t331 144q202 0 331.5 -144t129.5 -370zM190 485q0 -186 97 -309q98 -119 260 -119q166 0 260 119q98 119 98 309q0 193 -98 312q-95 121 -260 121q-160 0 -260 -121q-97 -123 -97 -312z
M426 1386v-176h-100v176h100zM756 1386v-176h-101v176h101z" />
    <glyph glyph-name="divide" unicode="&#xf7;" horiz-adv-x="1228" 
d="M686 1061v-158h-139v158h139zM1147 678v-86h-1065v86h1065zM686 367v-158h-139v158h139z" />
    <glyph glyph-name="oslash" unicode="&#xf8;" horiz-adv-x="1095" 
d="M1008 485q0 -225 -129 -367.5t-332 -142.5q-144 0 -260 78l-70 -98l-61 45l71 104q-139 139 -139 381q0 226 128 370t331 144q147 0 254 -73l67 96l66 -45l-72 -103q70 -68 108 -168.5t38 -220.5zM283 182l467 670q-84 66 -203 66q-160 0 -260 -121q-97 -123 -97 -312
q0 -184 93 -303zM905 485q0 196 -98 312l-469 -670q85 -70 209 -70q166 0 260 119q98 119 98 309z" />
    <glyph glyph-name="ugrave" unicode="&#xf9;" horiz-adv-x="1050" 
d="M797 975h98v-975h-94v143q-41 -82 -123 -125t-178 -43q-174 0 -262 88.5t-88 237.5v674h98v-656q0 -126 66.5 -193t185.5 -67q131 0 214 84t83 232v600zM283 1417h116l154 -282h-86z" />
    <glyph glyph-name="uacute" unicode="&#xfa;" horiz-adv-x="1050" 
d="M797 975h98v-975h-94v143q-41 -82 -123 -125t-178 -43q-174 0 -262 88.5t-88 237.5v674h98v-656q0 -126 66.5 -193t185.5 -67q131 0 214 84t83 232v600zM731 1417l-184 -282h-86l151 282h119z" />
    <glyph glyph-name="ucircumflex" unicode="&#xfb;" horiz-adv-x="1050" 
d="M797 975h98v-975h-94v143q-41 -82 -123 -125t-178 -43q-174 0 -262 88.5t-88 237.5v674h98v-656q0 -126 66.5 -193t185.5 -67q131 0 214 84t83 232v600zM674 1135l-168 217l-168 -217h-88l192 282h125l195 -282h-88z" />
    <glyph glyph-name="udieresis" unicode="&#xfc;" horiz-adv-x="1050" 
d="M797 975h98v-975h-94v143q-41 -82 -123 -125t-178 -43q-174 0 -262 88.5t-88 237.5v674h98v-656q0 -126 66.5 -193t185.5 -67q131 0 214 84t83 232v600zM389 1386v-176h-100v176h100zM719 1386v-176h-101v176h101z" />
    <glyph glyph-name="yacute" unicode="&#xfd;" horiz-adv-x="925" 
d="M776 975h103l-404 -1133q-48 -133 -96 -182t-154 -53q-68 0 -123 14l19 82q59 -12 104 -12q60 0 94 37.5t72 146.5l23 68l-365 1032h105l131 -387l178 -518l131 374q3 9 51 150zM682 1417l-184 -282h-86l151 282h119z" />
    <glyph glyph-name="thorn" unicode="&#xfe;" horiz-adv-x="1122" 
d="M1030 485q0 -223 -120 -365.5t-306 -142.5q-245 0 -350 193v-539h-98v1823h98v-659q111 202 352 202q189 0 306.5 -142.5t117.5 -369.5zM928 485q0 190 -89.5 310t-234.5 120q-157 0 -256.5 -116.5t-99.5 -313.5q0 -198 97 -312t257 -114q144 0 235 119t91 307z" />
    <glyph glyph-name="ydieresis" unicode="&#xff;" horiz-adv-x="925" 
d="M776 975h103l-404 -1133q-48 -133 -96 -182t-154 -53q-68 0 -123 14l19 82q59 -12 104 -12q60 0 94 37.5t72 146.5l23 68l-365 1032h105l131 -387l178 -518l131 374q3 9 51 150zM340 1386v-176h-100v176h100zM670 1386v-176h-101v176h101z" />
    <glyph glyph-name="Amacron" unicode="&#x100;" horiz-adv-x="1296" 
d="M1145 0l-162 438h-672l-157 -438h-107l533 1454h137l532 -1454h-104zM344 526h608l-80 215q-165 455 -225 637q-95 -282 -188 -532l-37 -103zM897 1735v-86h-500v86h500z" />
    <glyph glyph-name="amacron" unicode="&#x101;" horiz-adv-x="1036" 
d="M887 694v-694h-92v137q-48 -82 -139.5 -124t-206.5 -42q-156 0 -251.5 70.5t-95.5 198.5q3 54 17 96t44 73.5t64.5 53.5t91.5 41t111 32t137 29l224 43v74q0 114 -72 175t-197 61q-93 0 -169.5 -38.5t-166.5 -136.5l-65 60q167 196 397 196q170 0 269.5 -84t99.5 -221z
M791 334v192l-205 -41q-120 -24 -211 -49q-174 -54 -174 -190q0 -90 68 -141.5t184 -51.5q147 0 242.5 80.5t95.5 200.5zM784 1307v-86h-499v86h499z" />
    <glyph glyph-name="Abreve" unicode="&#x102;" horiz-adv-x="1296" 
d="M1145 0l-162 438h-672l-157 -438h-107l533 1454h137l532 -1454h-104zM344 526h608l-80 215q-165 455 -225 637q-95 -282 -188 -532l-37 -103zM387 1792h80q5 -71 50 -115.5t128 -44.5t128 44.5t50 115.5h80q-2 -105 -70.5 -170.5t-187.5 -65.5t-187.5 65.5t-70.5 170.5z
" />
    <glyph glyph-name="abreve" unicode="&#x103;" horiz-adv-x="1036" 
d="M887 694v-694h-92v137q-48 -82 -139.5 -124t-206.5 -42q-156 0 -251.5 70.5t-95.5 198.5q3 54 17 96t44 73.5t64.5 53.5t91.5 41t111 32t137 29l224 43v74q0 114 -72 175t-197 61q-93 0 -169.5 -38.5t-166.5 -136.5l-65 60q167 196 397 196q170 0 269.5 -84t99.5 -221z
M791 334v192l-205 -41q-120 -24 -211 -49q-174 -54 -174 -190q0 -90 68 -141.5t184 -51.5q147 0 242.5 80.5t95.5 200.5zM274 1364h80q5 -71 50 -115.5t128 -44.5q84 0 129 45t50 115h80q-2 -105 -71 -170.5t-188 -65.5t-187.5 65.5t-70.5 170.5z" />
    <glyph glyph-name="Aogonek" unicode="&#x104;" horiz-adv-x="1296" 
d="M1251 -328v-75q-26 -11 -59 -11q-76 0 -126 42t-50 120q0 128 145 252h-16l-162 438h-672l-157 -438h-107l533 1454h137l532 -1454h-2q-153 -116 -153 -238q0 -46 29 -71t79 -25q28 0 49 6zM344 526h608l-80 215q-165 455 -225 637q-95 -282 -188 -532l-37 -103z" />
    <glyph glyph-name="aogonek" unicode="&#x105;" horiz-adv-x="1036" 
d="M889 -328v-75q-26 -11 -60 -11q-76 0 -126 42t-50 120q0 127 146 252h-4v137q-48 -82 -139.5 -124t-206.5 -42q-156 0 -251.5 70.5t-95.5 198.5q3 54 17 96t44 73.5t64.5 53.5t91.5 41t111 32t137 29l224 43v74q0 114 -72 175t-197 61q-93 0 -169.5 -38.5t-166.5 -136.5
l-65 60q167 196 397 196q170 0 269.5 -84t99.5 -221v-694h-2q-154 -116 -154 -238q0 -46 29 -71t80 -25q28 0 49 6zM791 334v192l-205 -41q-120 -24 -211 -49q-174 -54 -174 -190q0 -90 68 -141.5t184 -51.5q147 0 242.5 80.5t95.5 200.5z" />
    <glyph glyph-name="Cacute" unicode="&#x106;" horiz-adv-x="1351" 
d="M1268 1286l-60 -72q-120 97 -223 139t-209 42q-260 0 -416.5 -187t-156.5 -481q0 -292 155 -480t402 -188q129 0 238 57.5t231 180.5l67 -68q-135 -138 -262 -200q-119 -58 -274 -58q-198 -3 -351 96.5t-233 271.5t-78 386q0 220 80.5 391t236 269t363.5 98
q128 0 246.5 -46t243.5 -151zM1006 1845l-185 -282h-86l152 282h119z" />
    <glyph glyph-name="cacute" unicode="&#x107;" horiz-adv-x="972" 
d="M528 918q-108 0 -186.5 -63.5t-115 -160t-36.5 -209.5t37.5 -208t118 -157.5t191.5 -62.5q88 0 153 35q69 35 160 137l63 -53q-87 -109 -173 -155t-199 -46q-208 0 -330.5 140.5t-122.5 369.5q0 227 123 370.5t321 143.5q120 0 206 -43.5t169 -142.5l-67 -59
q-78 89 -151 126.5t-161 37.5zM774 1417l-184 -282h-86l151 282h119z" />
    <glyph glyph-name="Cdotaccent" unicode="&#x10a;" horiz-adv-x="1351" 
d="M1268 1286l-60 -72q-120 97 -223 139t-209 42q-260 0 -416.5 -187t-156.5 -481q0 -292 155 -480t402 -188q129 0 238 57.5t231 180.5l67 -68q-135 -138 -262 -200q-119 -58 -274 -58q-198 -3 -351 96.5t-233 271.5t-78 386q0 220 80.5 391t236 269t363.5 98
q128 0 246.5 -46t243.5 -151zM827 1815v-177h-98v177h98z" />
    <glyph glyph-name="cdotaccent" unicode="&#x10b;" horiz-adv-x="972" 
d="M528 918q-108 0 -186.5 -63.5t-115 -160t-36.5 -209.5t37.5 -208t118 -157.5t191.5 -62.5q88 0 153 35q69 35 160 137l63 -53q-87 -109 -173 -155t-199 -46q-208 0 -330.5 140.5t-122.5 369.5q0 227 123 370.5t321 143.5q120 0 206 -43.5t169 -142.5l-67 -59
q-78 89 -151 126.5t-161 37.5zM596 1386v-176h-98v176h98z" />
    <glyph glyph-name="Ccaron" unicode="&#x10c;" horiz-adv-x="1351" 
d="M1268 1286l-60 -72q-120 97 -223 139t-209 42q-260 0 -416.5 -187t-156.5 -481q0 -292 155 -480t402 -188q129 0 238 57.5t231 180.5l67 -68q-135 -138 -262 -200q-119 -58 -274 -58q-198 -3 -351 96.5t-233 271.5t-78 386q0 220 80.5 391t236 269t363.5 98
q128 0 246.5 -46t243.5 -151zM1036 1845l-194 -282h-125l-193 282h88l168 -217l168 217h88z" />
    <glyph glyph-name="ccaron" unicode="&#x10d;" horiz-adv-x="972" 
d="M528 918q-108 0 -186.5 -63.5t-115 -160t-36.5 -209.5t37.5 -208t118 -157.5t191.5 -62.5q88 0 153 35q69 35 160 137l63 -53q-87 -109 -173 -155t-199 -46q-208 0 -330.5 140.5t-122.5 369.5q0 227 123 370.5t321 143.5q120 0 206 -43.5t169 -142.5l-67 -59
q-78 89 -151 126.5t-161 37.5zM805 1417l-195 -282h-125l-192 282h88l168 -217l168 217h88z" />
    <glyph glyph-name="Dcaron" unicode="&#x10e;" horiz-adv-x="1411" 
d="M1313 727q0 -328 -166.5 -527.5t-460.5 -199.5h-502v1454h502q294 0 460.5 -199.5t166.5 -527.5zM672 1366h-383v-1278h383q265 0 399 174q137 174 137 465q0 289 -137 463q-135 176 -399 176zM944 1845l-194 -282h-125l-193 282h88l168 -217l168 217h88z" />
    <glyph glyph-name="dcaron" unicode="&#x10f;" horiz-adv-x="1374" 
d="M866 1454h99v-1454h-93v197q-51 -106 -143.5 -163t-216.5 -57q-189 0 -306.5 142.5t-117.5 369.5q0 222 122.5 365t311.5 143q238 0 344 -194v651zM870 489q0 198 -96 312t-254 114q-148 0 -239 -118.5t-91 -307.5q0 -190 89.5 -310t234.5 -120q157 0 256.5 116.5
t99.5 313.5zM1339 1454l-104 -375h-66l66 375h104z" />
    <glyph glyph-name="Dcroat" unicode="&#x110;" horiz-adv-x="1464" 
d="M1366 727q0 -328 -166.5 -527.5t-460.5 -199.5h-501v707h-185v86h185v661h501q294 0 460.5 -199.5t166.5 -527.5zM1262 727q0 287 -138 463q-135 176 -399 176h-383v-573h414v-86h-414v-619h383q265 0 399 174q138 176 138 465z" />
    <glyph glyph-name="dslash" unicode="&#x111;" horiz-adv-x="1155" 
d="M1114 1262v-76h-149v-1186h-91v193q-51 -105 -142.5 -160.5t-215.5 -55.5q-189 0 -306.5 142.5t-117.5 369.5q0 222 122.5 365t311.5 143q236 0 340 -188v377h-245v76h245v192h99v-192h149zM874 489q0 198 -96 312t-254 114q-148 0 -238.5 -118.5t-90.5 -307.5
q0 -190 89 -310t234 -120q157 0 256.5 116.5t99.5 313.5z" />
    <glyph glyph-name="Emacron" unicode="&#x112;" horiz-adv-x="1212" 
d="M1104 1454v-88h-815v-575h753v-89h-753v-614h829v-88h-934v1454h920zM889 1735v-86h-500v86h500z" />
    <glyph glyph-name="emacron" unicode="&#x113;" horiz-adv-x="1046" 
d="M893 246l65 -58q-104 -118 -196 -165.5t-217 -47.5q-209 0 -333 139t-124 365q0 231 123 375.5t321 144.5q195 0 308.5 -123t113.5 -333q0 -19 -4 -51h-760q3 -184 93 -312q89 -123 270 -123q91 0 167 42.5t173 146.5zM195 569h663q-5 157 -92.5 253t-233.5 96
q-137 0 -227.5 -92t-109.5 -257zM799 1307v-86h-500v86h500z" />
    <glyph glyph-name="Edotaccent" unicode="&#x116;" horiz-adv-x="1212" 
d="M1104 1454v-88h-815v-575h753v-89h-753v-614h829v-88h-934v1454h920zM686 1815v-177h-98v177h98z" />
    <glyph glyph-name="edotaccent" unicode="&#x117;" horiz-adv-x="1046" 
d="M893 246l65 -58q-104 -118 -196 -165.5t-217 -47.5q-209 0 -333 139t-124 365q0 231 123 375.5t321 144.5q195 0 308.5 -123t113.5 -333q0 -19 -4 -51h-760q3 -184 93 -312q89 -123 270 -123q91 0 167 42.5t173 146.5zM195 569h663q-5 157 -92.5 253t-233.5 96
q-137 0 -227.5 -92t-109.5 -257zM596 1386v-176h-98v176h98z" />
    <glyph glyph-name="Eogonek" unicode="&#x118;" horiz-adv-x="1212" 
d="M1120 -328v-75q-26 -11 -59 -11q-76 0 -126 42t-50 120q0 128 145 252h-846v1454h920v-88h-815v-575h753v-89h-753v-614h829v-88h-2q-153 -116 -153 -238q0 -46 29 -71t79 -25q28 0 49 6z" />
    <glyph glyph-name="eogonek" unicode="&#x119;" horiz-adv-x="1046" 
d="M616 -233q0 125 89 231q-84 -23 -160 -23q-209 0 -333 138.5t-124 365.5q0 231 123 375.5t321 144.5q195 0 308.5 -123t113.5 -333q0 -19 -4 -51h-760q2 -118 39.5 -214t120 -158.5t199.5 -62.5q98 0 172 41q71 39 174 148l63 -58q-24 -28 -84 -88q-176 -170 -176 -317
q0 -58 31.5 -87.5t87.5 -29.5q32 0 53 6v-75q-29 -11 -61 -11q-85 0 -139 44t-54 137zM195 567h663q-5 157 -92.5 254t-233.5 97q-141 0 -229 -90.5t-108 -260.5z" />
    <glyph glyph-name="Ecaron" unicode="&#x11a;" horiz-adv-x="1212" 
d="M1104 1454v-88h-815v-575h753v-89h-753v-614h829v-88h-934v1454h920zM895 1845l-195 -282h-125l-192 282h88l168 -217l168 217h88z" />
    <glyph glyph-name="ecaron" unicode="&#x11b;" horiz-adv-x="1046" 
d="M893 246l65 -58q-104 -118 -196 -165.5t-217 -47.5q-209 0 -333 139t-124 365q0 231 123 375.5t321 144.5q195 0 308.5 -123t113.5 -333q0 -19 -4 -51h-760q3 -184 93 -312q89 -123 270 -123q91 0 167 42.5t173 146.5zM195 569h663q-5 157 -92.5 253t-233.5 96
q-137 0 -227.5 -92t-109.5 -257zM805 1417l-195 -282h-125l-192 282h88l168 -217l168 217h88z" />
    <glyph glyph-name="Gbreve" unicode="&#x11e;" horiz-adv-x="1495" 
d="M737 635v88h613v-723h-80l-17 258q-65 -140 -193.5 -212.5t-297.5 -72.5q-202 0 -353 96t-231 266.5t-80 391.5q0 216 83 387t239 269t358 98q168 0 306.5 -68t267.5 -209l-70 -67q-128 137 -243 196.5t-267 59.5q-166 0 -296.5 -87.5t-201.5 -240t-71 -342.5
q0 -192 67 -341.5t194.5 -235t297.5 -85.5q211 0 348 132t137 352v90h-510zM524 1792h80q5 -71 50 -115.5t128 -44.5q84 0 129 45t50 115h79q-2 -105 -70.5 -170.5t-187.5 -65.5t-187.5 65.5t-70.5 170.5z" />
    <glyph glyph-name="gbreve" unicode="&#x11f;" horiz-adv-x="1107" 
d="M858 975h94v-975q0 -182 -107 -285.5t-302 -103.5q-224 0 -422 143l53 74q113 -71 193.5 -102t177.5 -31q141 0 225 76t84 221v209q-51 -99 -139.5 -151t-206.5 -52q-184 0 -300 140t-116 362q0 220 119.5 358.5t306.5 138.5q239 0 340 -198v176zM856 500q0 193 -93 304
t-247 111q-145 0 -233 -116q-88 -113 -88 -299q0 -185 86 -303q89 -117 229 -117q156 0 251 113t95 307zM295 1364h80q5 -71 50 -115.5t128 -44.5t128 44.5t50 115.5h80q-2 -105 -70.5 -170.5t-187.5 -65.5t-187.5 65.5t-70.5 170.5z" />
    <glyph glyph-name="Gdotaccent" unicode="&#x120;" horiz-adv-x="1495" 
d="M737 635v88h613v-723h-80l-17 258q-65 -140 -193.5 -212.5t-297.5 -72.5q-202 0 -353 96t-231 266.5t-80 391.5q0 216 83 387t239 269t358 98q168 0 306.5 -68t267.5 -209l-70 -67q-128 137 -243 196.5t-267 59.5q-166 0 -296.5 -87.5t-201.5 -240t-71 -342.5
q0 -192 67 -341.5t194.5 -235t297.5 -85.5q211 0 348 132t137 352v90h-510zM831 1815v-177h-98v177h98z" />
    <glyph glyph-name="gdotaccent" unicode="&#x121;" horiz-adv-x="1107" 
d="M858 975h94v-975q0 -182 -107 -285.5t-302 -103.5q-224 0 -422 143l53 74q113 -71 193.5 -102t177.5 -31q141 0 225 76t84 221v209q-51 -99 -139.5 -151t-206.5 -52q-184 0 -300 140t-116 362q0 220 119.5 358.5t306.5 138.5q239 0 340 -198v176zM856 500q0 193 -93 304
t-247 111q-145 0 -233 -116q-88 -113 -88 -299q0 -185 86 -303q89 -117 229 -117q156 0 251 113t95 307zM602 1386v-176h-98v176h98z" />
    <glyph glyph-name="uni0122" unicode="&#x122;" horiz-adv-x="1495" 
d="M737 635v88h613v-723h-80l-17 258q-65 -140 -193.5 -212.5t-297.5 -72.5q-202 0 -353 96t-231 266.5t-80 391.5q0 216 83 387t239 269t358 98q168 0 306.5 -68t267.5 -209l-70 -67q-128 137 -243 196.5t-267 59.5q-166 0 -296.5 -87.5t-201.5 -240t-71 -342.5
q0 -192 67 -341.5t194.5 -235t297.5 -85.5q211 0 348 132t137 352v90h-510zM834 -172v-141l-93 -195h-63l82 195h-72v141h146z" />
    <glyph glyph-name="uni0123" unicode="&#x123;" horiz-adv-x="1107" 
d="M858 975h94v-975q0 -182 -107 -285.5t-302 -103.5q-224 0 -422 143l53 74q113 -71 193.5 -102t177.5 -31q141 0 225 76t84 221v209q-51 -99 -139.5 -151t-206.5 -52q-184 0 -300 140t-116 362q0 220 119.5 358.5t306.5 138.5q239 0 340 -198v176zM856 500q0 193 -93 304
t-247 111q-145 0 -233 -116q-88 -113 -88 -299q0 -185 86 -303q89 -117 229 -117q156 0 251 113t95 307zM465 1198v148l90 200h66l-82 -200h69v-148h-143z" />
    <glyph glyph-name="Hbar" unicode="&#x126;" horiz-adv-x="1566" 
d="M1505 1204v-88h-170v-1116h-104v702h-895v-702h-105v1116h-170v88h170v250h105v-250h895v250h104v-250h170zM1231 791v325h-895v-325h895z" />
    <glyph glyph-name="hbar" unicode="&#x127;" horiz-adv-x="1101" 
d="M952 668v-668h-98v631q0 140 -68 213.5t-196 73.5q-122 0 -211.5 -89t-89.5 -208v-621h-99v1186h-149v76h149v192h99v-192h246v-76h-246v-357q47 82 128.5 126t186.5 44q168 0 258 -95.5t90 -235.5z" />
    <glyph glyph-name="Imacron" unicode="&#x12a;" horiz-adv-x="501" 
d="M303 1454v-1454h-104v1454h104zM502 1735v-86h-500v86h500z" />
    <glyph glyph-name="imacron" unicode="&#x12b;" horiz-adv-x="409" 
d="M254 975v-975h-98v975h98zM457 1307v-86h-500v86h500z" />
    <glyph glyph-name="Iogonek" unicode="&#x12e;" horiz-adv-x="501" 
d="M307 -328v-75q-26 -11 -59 -11q-76 0 -126 42t-50 120q0 128 145 252h-18v1454h104v-1454q-153 -116 -153 -238q0 -46 29 -71t79 -25q28 0 49 6z" />
    <glyph glyph-name="iogonek" unicode="&#x12f;" horiz-adv-x="409" 
d="M254 1386v-176h-98v176h98zM256 -328v-75q-26 -11 -59 -11q-76 0 -126.5 42t-50.5 120q0 127 146 252h-10v975h98v-975h-2q-154 -116 -154 -238q0 -46 29 -71t80 -25q28 0 49 6z" />
    <glyph glyph-name="Idot" unicode="&#x130;" horiz-adv-x="501" 
d="M303 1454v-1454h-104v1454h104zM299 1815v-177h-98v177h98z" />
    <glyph glyph-name="dotlessi" unicode="&#x131;" horiz-adv-x="409" 
d="M254 975v-975h-98v975h98z" />
    <glyph glyph-name="IJ" unicode="&#x132;" horiz-adv-x="1431" 
d="M303 1454v-1454h-104v1454h104zM1257 1454v-1094q0 -185 -91 -282.5t-267 -97.5q-177 0 -352 100l43 80q102 -48 173 -70t142 -22q122 0 185 75t63 222v1089h104z" />
    <glyph glyph-name="ij" unicode="&#x133;" horiz-adv-x="825" 
d="M254 975v-975h-98v975h98zM254 1386v-176h-98v176h98zM424 -311q80 0 113.5 50.5t33.5 156.5v1079h99v-1086q0 -282 -252 -282q-78 0 -176 31l26 75q99 -24 156 -24zM668 1386v-176h-99v176h99z" />
    <glyph glyph-name="uni0136" unicode="&#x136;" horiz-adv-x="1282" 
d="M1128 0l-553 801l-284 -289v-512h-107v1454h107v-815l799 815h131l-574 -580l604 -874h-123zM756 -172v-141l-92 -195h-64l82 195h-72v141h146z" />
    <glyph glyph-name="uni0137" unicode="&#x137;" horiz-adv-x="968" 
d="M831 0l-368 528l-209 -213v-315h-98v1454h98v-1024l530 545h123l-377 -385l416 -590h-115zM592 -172v-141l-92 -195h-64l82 195h-72v141h146z" />
    <glyph glyph-name="Lacute" unicode="&#x139;" horiz-adv-x="1071" 
d="M289 1454v-1366h731v-88h-836v1454h105zM465 1845l-184 -282h-86l151 282h119z" />
    <glyph glyph-name="lacute" unicode="&#x13a;" horiz-adv-x="421" 
d="M260 1454v-1454h-98v1454h98zM436 1825l-184 -283h-86l151 283h119z" />
    <glyph glyph-name="uni013B" unicode="&#x13b;" horiz-adv-x="1071" 
d="M289 1454v-1366h731v-88h-836v1454h105zM692 -172v-141l-92 -195h-63l81 195h-71v141h145z" />
    <glyph glyph-name="uni013C" unicode="&#x13c;" horiz-adv-x="421" 
d="M260 1454v-1454h-98v1454h98zM289 -172v-141l-92 -195h-64l82 195h-72v141h146z" />
    <glyph glyph-name="Lcaron" unicode="&#x13d;" horiz-adv-x="1071" 
d="M289 1454v-1366h731v-88h-836v1454h105zM680 1454l-105 -375h-65l65 375h105z" />
    <glyph glyph-name="lcaron" unicode="&#x13e;" horiz-adv-x="663" 
d="M260 1454v-1454h-98v1454h98zM629 1454l-105 -375h-65l65 375h105z" />
    <glyph glyph-name="Ldot" unicode="&#x13f;" horiz-adv-x="1050" 
d="M289 1454v-1366h731v-88h-836v1454h105zM840 827v-157h-140v157h140z" />
    <glyph glyph-name="ldot" unicode="&#x140;" horiz-adv-x="677" 
d="M260 1454v-1454h-98v1454h98zM610 688v-158h-139v158h139z" />
    <glyph glyph-name="Lslash" unicode="&#x141;" horiz-adv-x="1155" 
d="M373 88h731v-88h-836v670l-200 -115v98l200 115v686h105v-635l303 174v-98l-303 -174v-633z" />
    <glyph glyph-name="lslash" unicode="&#x142;" horiz-adv-x="671" 
d="M584 983v-94l-191 -115v-774h-98v717l-207 -125v94l207 125v643h98v-586z" />
    <glyph glyph-name="Nacute" unicode="&#x143;" horiz-adv-x="1474" 
d="M1190 1454h100v-1454h-125l-471 709l-418 622q9 -246 9 -545v-786h-101v1454h125l451 -676l137 -207q11 -16 122.5 -184.5t176.5 -269.5l-2 196q-4 332 -4 363v778zM975 1845l-184 -282h-86l151 282h119z" />
    <glyph glyph-name="nacute" unicode="&#x144;" horiz-adv-x="1067" 
d="M918 668v-668h-99v631q0 140 -68 213.5t-196 73.5q-122 0 -211.5 -89t-89.5 -208v-621h-98v975h92v-158q44 87 127.5 134.5t193.5 47.5q168 0 258.5 -95.5t90.5 -235.5zM766 1417l-184 -282h-86l151 282h119z" />
    <glyph glyph-name="uni0145" unicode="&#x145;" horiz-adv-x="1474" 
d="M1190 1454h100v-1454h-125l-471 709l-418 622q9 -246 9 -545v-786h-101v1454h125l451 -676l137 -207q11 -16 122.5 -184.5t176.5 -269.5l-2 196q-4 332 -4 363v778zM807 -172v-141l-92 -195h-64l82 195h-71v141h145z" />
    <glyph glyph-name="uni0146" unicode="&#x146;" horiz-adv-x="1067" 
d="M918 668v-668h-99v631q0 140 -68 213.5t-196 73.5q-122 0 -211.5 -89t-89.5 -208v-621h-98v975h92v-158q44 87 127.5 134.5t193.5 47.5q168 0 258.5 -95.5t90.5 -235.5zM606 -172v-141l-92 -195h-63l81 195h-71v141h145z" />
    <glyph glyph-name="Ncaron" unicode="&#x147;" horiz-adv-x="1474" 
d="M1190 1454h100v-1454h-125l-471 709l-418 622q9 -246 9 -545v-786h-101v1454h125l451 -676l137 -207q11 -16 122.5 -184.5t176.5 -269.5l-2 196q-4 332 -4 363v778zM1006 1845l-195 -282h-125l-192 282h88l168 -217l168 217h88z" />
    <glyph glyph-name="ncaron" unicode="&#x148;" horiz-adv-x="1067" 
d="M918 668v-668h-99v631q0 140 -68 213.5t-196 73.5q-122 0 -211.5 -89t-89.5 -208v-621h-98v975h92v-158q44 87 127.5 134.5t193.5 47.5q168 0 258.5 -95.5t90.5 -235.5zM797 1417l-195 -282h-125l-192 282h88l168 -217l168 217h88z" />
    <glyph glyph-name="Eng" unicode="&#x14a;" horiz-adv-x="1474" 
d="M1190 1454h100v-1575q0 -132 -64.5 -205t-189.5 -73q-99 0 -211 34l23 86q101 -34 180 -34q88 0 126 47.5t40 148.5v76l-500 750l-418 622q9 -246 9 -545v-786h-101v1454h125l451 -676l137 -207q11 -16 122.5 -184.5t176.5 -269.5l-2 196q-4 332 -4 363v778z" />
    <glyph glyph-name="eng" unicode="&#x14b;" horiz-adv-x="1073" 
d="M918 668v-779q0 -282 -250 -282q-86 0 -181 31l27 75q99 -24 160 -24q78 0 111.5 50t33.5 157v735q0 140 -68 213.5t-196 73.5q-122 0 -211.5 -89t-89.5 -208v-621h-98v975h92v-158q44 87 127.5 134.5t193.5 47.5q168 0 258.5 -95.5t90.5 -235.5z" />
    <glyph glyph-name="Omacron" unicode="&#x14c;" horiz-adv-x="1533" 
d="M1436 727q0 -217 -81.5 -388.5t-235 -269.5t-353.5 -98q-148 -2 -274 55t-212.5 158.5t-134.5 241.5t-47 301q-1 161 47 301t134.5 241.5t212.5 158.5t274 55q200 0 353.5 -98t235 -269.5t81.5 -388.5zM203 727q0 -293 157 -480.5t406 -187.5q166 0 295 85.5t199.5 237.5
t70.5 345q0 292 -157.5 480t-407.5 188q-162 3 -292 -85t-201.5 -241.5t-69.5 -341.5zM1016 1735v-86h-500v86h500z" />
    <glyph glyph-name="omacron" unicode="&#x14d;" horiz-adv-x="1095" 
d="M1008 485q0 -225 -129 -367.5t-332 -142.5q-204 0 -331.5 142t-127.5 368t128 370t331 144q202 0 331.5 -144t129.5 -370zM190 485q0 -186 97 -309q98 -119 260 -119q166 0 260 119q98 119 98 309q0 193 -98 312q-95 121 -260 121q-160 0 -260 -121q-97 -123 -97 -312z
M793 1307v-86h-500v86h500z" />
    <glyph glyph-name="Ohungarumlaut" unicode="&#x150;" horiz-adv-x="1533" 
d="M1436 727q0 -217 -81.5 -388.5t-235 -269.5t-353.5 -98q-148 -2 -274 55t-212.5 158.5t-134.5 241.5t-47 301q-1 161 47 301t134.5 241.5t212.5 158.5t274 55q200 0 353.5 -98t235 -269.5t81.5 -388.5zM203 727q0 -293 157 -480.5t406 -187.5q166 0 295 85.5t199.5 237.5
t70.5 345q0 292 -157.5 480t-407.5 188q-162 3 -292 -85t-201.5 -241.5t-69.5 -341.5zM856 1849l-182 -286h-90l153 286h119zM1145 1849l-184 -286h-91l158 286h117z" />
    <glyph glyph-name="ohungarumlaut" unicode="&#x151;" horiz-adv-x="1095" 
d="M1008 485q0 -225 -129 -367.5t-332 -142.5q-204 0 -331.5 142t-127.5 368t128 370t331 144q202 0 331.5 -144t129.5 -370zM190 485q0 -186 97 -309q98 -119 260 -119q166 0 260 119q98 119 98 309q0 193 -98 312q-95 121 -260 121q-160 0 -260 -121q-97 -123 -97 -312z
M633 1421l-182 -286h-91l154 286h119zM922 1421l-185 -286h-90l158 286h117z" />
    <glyph glyph-name="OE" unicode="&#x152;" horiz-adv-x="2361" 
d="M1438 88h829v-88h-936v317q-80 -166 -225 -256t-338 -90q-202 0 -355 97t-234 268t-81 391t81 391t234 268t355 97q193 0 338 -90t225 -256v317h922v-88h-815v-573h753v-91h-753v-614zM1331 727q2 187 -69.5 340.5t-202 241.5t-293.5 86q-162 3 -292 -85t-201.5 -241.5
t-69.5 -341.5q-2 -188 69.5 -341.5t201.5 -241.5t292 -85q163 -3 293.5 85t202 241.5t69.5 341.5z" />
    <glyph glyph-name="oe" unicode="&#x153;" horiz-adv-x="1861" 
d="M1710 246l64 -58q-104 -118 -196.5 -165.5t-217.5 -47.5q-145 0 -250.5 69.5t-157.5 193.5q-55 -124 -160 -193.5t-245 -69.5q-204 0 -331.5 142t-127.5 368t128 370t331 144q142 0 247.5 -70t159.5 -198q51 126 155 197t239 71q195 0 308 -123t113 -333q0 -19 -4 -51
h-759q3 -185 92 -312q88 -123 270 -123q92 0 170 43t172 146zM905 485q0 193 -98 312q-95 121 -260 121q-160 0 -260 -121q-97 -123 -97 -312q0 -186 97 -309q98 -119 260 -119q166 0 260 119q98 119 98 309zM1010 567h663q-5 158 -92 254.5t-233 96.5q-138 0 -229.5 -93
t-108.5 -258z" />
    <glyph glyph-name="Racute" unicode="&#x154;" horiz-adv-x="1320" 
d="M1237 0h-123l-428 625h-397v-625h-105v1454h543q208 0 334 -108q129 -108 129 -308q0 -175 -104 -282.5t-281 -126.5zM287 713h430q173 0 270.5 85.5t97.5 239.5q0 157 -98.5 242.5t-273.5 85.5h-426v-653zM879 1845l-185 -282h-86l152 282h119z" />
    <glyph glyph-name="racute" unicode="&#x155;" horiz-adv-x="679" 
d="M649 954l-22 -80q-77 25 -133 25q-101 0 -170.5 -91.5t-69.5 -248.5v-559h-98v975h92v-166q32 79 99 126.5t147 47.5q66 0 155 -29zM637 1417l-184 -282h-86l151 282h119z" />
    <glyph glyph-name="uni0156" unicode="&#x156;" horiz-adv-x="1320" 
d="M1237 0h-123l-428 625h-397v-625h-105v1454h543q208 0 334 -108q129 -108 129 -308q0 -175 -104 -282.5t-281 -126.5zM287 713h430q173 0 270.5 85.5t97.5 239.5q0 157 -98.5 242.5t-273.5 85.5h-426v-653zM745 -172v-141l-92 -195h-63l82 195h-72v141h145z" />
    <glyph glyph-name="uni0157" unicode="&#x157;" horiz-adv-x="679" 
d="M649 954l-22 -80q-77 25 -133 25q-101 0 -170.5 -91.5t-69.5 -248.5v-559h-98v975h92v-166q32 79 99 126.5t147 47.5q66 0 155 -29zM281 -172v-141l-93 -195h-63l82 195h-72v141h146z" />
    <glyph glyph-name="Rcaron" unicode="&#x158;" horiz-adv-x="1320" 
d="M1237 0h-123l-428 625h-397v-625h-105v1454h543q208 0 334 -108q129 -108 129 -308q0 -175 -104 -282.5t-281 -126.5zM287 713h430q173 0 270.5 85.5t97.5 239.5q0 157 -98.5 242.5t-273.5 85.5h-426v-653zM909 1845l-194 -282h-125l-193 282h88l168 -217l168 217h88z
" />
    <glyph glyph-name="rcaron" unicode="&#x159;" horiz-adv-x="679" 
d="M649 954l-22 -80q-77 25 -133 25q-101 0 -170.5 -91.5t-69.5 -248.5v-559h-98v975h92v-166q32 79 99 126.5t147 47.5q66 0 155 -29zM668 1417l-195 -282h-125l-192 282h88l168 -217l168 217h88z" />
    <glyph glyph-name="Sacute" unicode="&#x15a;" horiz-adv-x="1253" 
d="M1126 1284l-59 -74q-115 98 -223.5 141.5t-233.5 43.5q-167 0 -278 -83t-111 -208q0 -88 47 -141q49 -52 135 -82q95 -30 254 -68q274 -64 383 -156t109 -258q0 -127 -66.5 -225.5t-180 -150.5t-253.5 -52q-163 0 -299 54q-140 59 -287 180l62 74q162 -131 281 -177
q119 -43 241 -43q171 0 287 93q113 91 113 247q0 101 -52 162q-48 58 -134 93t-253 73q-278 61 -379.5 135t-107.5 230q0 117 70.5 208.5t180 138t234.5 46.5q148 0 272.5 -48.5t247.5 -152.5zM852 1845l-184 -282h-86l151 282h119z" />
    <glyph glyph-name="sacute" unicode="&#x15b;" horiz-adv-x="927" 
d="M823 870l-55 -71q-92 66 -161.5 91t-157.5 25q-115 0 -184.5 -51t-69.5 -133q0 -50 32 -82q31 -29 85.5 -48.5t174.5 -47.5q195 -45 277 -108.5t82 -178.5q0 -130 -102 -210.5t-263 -80.5q-124 0 -215 39q-91 40 -209 140l62 65q105 -91 186 -126.5t180 -35.5
q114 0 188.5 58t74.5 151q-2 28 -10 50t-18.5 38.5t-32 31t-41 24.5t-55 21.5t-65 19.5t-80.5 20q-102 24 -162 44t-105 49.5t-63 68t-18 94.5q0 124 101 197q100 75 250 75q107 0 190.5 -29.5t183.5 -99.5zM705 1417l-185 -282h-86l152 282h119z" />
    <glyph glyph-name="Scedilla" unicode="&#x15e;" horiz-adv-x="1253" 
d="M649 -29h-12l-51 -112q8 2 37 2q83 0 135.5 -42t52.5 -110q0 -75 -56.5 -123.5t-142.5 -48.5q-102 0 -211 66l37 65q65 -33 96.5 -44t71.5 -11q56 0 89.5 24t33.5 70q0 41 -35.5 64.5t-95.5 23.5q-35 0 -59 -6l-47 45l65 141q-129 13 -245.5 68t-248.5 162l62 74
q162 -131 281 -177q119 -43 241 -43q171 0 287 93q113 91 113 247q0 101 -52 162q-48 58 -134 93t-253 73q-278 61 -379.5 135t-107.5 230q0 117 70.5 208.5t180 138t234.5 46.5q148 0 272.5 -48.5t247.5 -152.5l-59 -74q-115 98 -223.5 141.5t-233.5 43.5q-167 0 -278 -83
t-111 -208q0 -88 47 -141q49 -52 135 -82q95 -30 254 -68q274 -64 383 -156t109 -258q0 -127 -66.5 -225.5t-180 -150.5t-253.5 -52z" />
    <glyph glyph-name="scedilla" unicode="&#x15f;" horiz-adv-x="927" 
d="M481 -25h-20l-53 -116q8 2 36 2q83 0 136 -42t53 -110q0 -75 -56.5 -123.5t-142.5 -48.5q-102 0 -211 66l37 65q65 -33 96.5 -44t71.5 -11q56 0 89.5 24t33.5 70q0 41 -35.5 64.5t-95.5 23.5q-36 0 -60 -6l-47 45l70 148q-83 13 -157.5 53t-168.5 119l62 65
q105 -91 186 -126.5t180 -35.5q114 0 188.5 58t74.5 151q-2 28 -10 50t-18.5 38.5t-32 31t-41 24.5t-55 21.5t-65 19.5t-80.5 20q-102 24 -162 44t-105 49.5t-63 68t-18 94.5q0 124 101 197q100 75 250 75q107 0 190.5 -29.5t183.5 -99.5l-55 -71q-92 66 -161.5 91
t-157.5 25q-115 0 -184.5 -51t-69.5 -133q0 -50 32 -82q31 -29 85.5 -48.5t174.5 -47.5q195 -45 277 -108.5t82 -178.5q0 -130 -102 -210.5t-263 -80.5z" />
    <glyph glyph-name="Scaron" unicode="&#x160;" horiz-adv-x="1253" 
d="M1126 1284l-59 -74q-115 98 -223.5 141.5t-233.5 43.5q-167 0 -278 -83t-111 -208q0 -88 47 -141q49 -52 135 -82q95 -30 254 -68q274 -64 383 -156t109 -258q0 -127 -66.5 -225.5t-180 -150.5t-253.5 -52q-163 0 -299 54q-140 59 -287 180l62 74q162 -131 281 -177
q119 -43 241 -43q171 0 287 93q113 91 113 247q0 101 -52 162q-48 58 -134 93t-253 73q-278 61 -379.5 135t-107.5 230q0 117 70.5 208.5t180 138t234.5 46.5q148 0 272.5 -48.5t247.5 -152.5zM883 1845l-195 -282h-125l-192 282h88l168 -217l168 217h88z" />
    <glyph glyph-name="scaron" unicode="&#x161;" horiz-adv-x="927" 
d="M823 870l-55 -71q-92 66 -161.5 91t-157.5 25q-115 0 -184.5 -51t-69.5 -133q0 -50 32 -82q31 -29 85.5 -48.5t174.5 -47.5q195 -45 277 -108.5t82 -178.5q0 -130 -102 -210.5t-263 -80.5q-124 0 -215 39q-91 40 -209 140l62 65q105 -91 186 -126.5t180 -35.5
q114 0 188.5 58t74.5 151q-2 28 -10 50t-18.5 38.5t-32 31t-41 24.5t-55 21.5t-65 19.5t-80.5 20q-102 24 -162 44t-105 49.5t-63 68t-18 94.5q0 124 101 197q100 75 250 75q107 0 190.5 -29.5t183.5 -99.5zM735 1417l-194 -282h-125l-193 282h88l168 -217l168 217h88z" />
    <glyph glyph-name="uni0162" unicode="&#x162;" horiz-adv-x="1206" 
d="M655 0h-22l-66 -141q8 2 37 2q83 0 136 -42t53 -110q0 -75 -56.5 -123.5t-142.5 -48.5q-102 0 -211 66l37 65q65 -33 96.5 -44t71.5 -11q56 0 89.5 24t33.5 70q0 41 -35.5 64.5t-95.5 23.5q-36 0 -60 -6l-47 45l78 166v1366h-479v88h1063v-88h-480v-1366z" />
    <glyph glyph-name="uni0163" unicode="&#x163;" horiz-adv-x="673" 
d="M428 -139q83 0 135.5 -42t52.5 -110q0 -75 -56 -123.5t-142 -48.5q-102 0 -211 66l37 65q65 -33 96.5 -44t71.5 -11q56 0 89.5 24t33.5 70q0 41 -36 64.5t-96 23.5q-35 0 -59 -6l-47 45l76 160q-144 38 -144 207v698h-188v76h188v352h99v-352h290v-76h-290v-686
q0 -75 33 -109t102 -34q74 0 151 26l23 -76q-84 -34 -180 -34h-6l-60 -127q8 2 37 2z" />
    <glyph glyph-name="Tcaron" unicode="&#x164;" horiz-adv-x="1206" 
d="M1135 1454v-88h-480v-1366h-104v1366h-479v88h1063zM862 1845l-194 -282h-125l-193 282h88l168 -217l168 217h88z" />
    <glyph glyph-name="tcaron" unicode="&#x165;" horiz-adv-x="673" 
d="M614 96l23 -76q-84 -34 -180 -34q-120 0 -174 54.5t-54 160.5v698h-188v76h188v352h99v-352h290v-76h-290v-686q0 -75 33 -109t102 -34q74 0 151 26zM680 1532l-105 -375h-65l65 375h105z" />
    <glyph glyph-name="Tbar" unicode="&#x166;" horiz-adv-x="1206" 
d="M1135 1366h-480v-504h267v-86h-267v-776h-104v776h-266v86h266v504h-479v88h1063v-88z" />
    <glyph glyph-name="tbar" unicode="&#x167;" horiz-adv-x="673" 
d="M614 96l23 -76q-75 -34 -180 -34q-120 0 -174 54.5t-54 160.5v284h-188v76h188v338h-188v76h188v352h99v-352h290v-76h-290v-338h290v-76h-290v-272q0 -78 30.5 -111.5t102.5 -33.5q67 0 153 28z" />
    <glyph glyph-name="Umacron" unicode="&#x16a;" horiz-adv-x="1378" 
d="M1204 1454v-1014q0 -223 -127.5 -345t-388.5 -122q-259 0 -386.5 122t-127.5 345v1014h105v-1003q0 -193 104.5 -291.5t304.5 -98.5q203 0 307.5 98t104.5 292v1003h104zM940 1735v-86h-500v86h500z" />
    <glyph glyph-name="umacron" unicode="&#x16b;" horiz-adv-x="1050" 
d="M797 975h98v-975h-94v143q-41 -82 -123 -125t-178 -43q-174 0 -262 88.5t-88 237.5v674h98v-656q0 -126 66.5 -193t185.5 -67q131 0 214 84t83 232v600zM756 1307v-86h-500v86h500z" />
    <glyph glyph-name="Uring" unicode="&#x16e;" horiz-adv-x="1378" 
d="M1204 1454v-1014q0 -223 -127.5 -345t-388.5 -122q-259 0 -386.5 122t-127.5 345v1014h105v-1003q0 -193 104.5 -291.5t304.5 -98.5q203 0 307.5 98t104.5 292v1003h104zM879 1722q0 -78 -57 -134t-136 -56q-81 0 -136.5 55.5t-55.5 134.5q0 80 55.5 135.5t136.5 55.5
q80 0 136.5 -56t56.5 -135zM567 1722q0 -56 33.5 -90.5t87.5 -34.5t86.5 34.5t32.5 90.5t-32.5 90.5t-86.5 34.5t-87.5 -34.5t-33.5 -90.5z" />
    <glyph glyph-name="uring" unicode="&#x16f;" horiz-adv-x="1050" 
d="M797 975h98v-975h-94v143q-41 -82 -123 -125t-178 -43q-174 0 -262 88.5t-88 237.5v674h98v-656q0 -126 66.5 -193t185.5 -67q131 0 214 84t83 232v600zM696 1313q0 -78 -56.5 -134.5t-135.5 -56.5q-81 0 -137 56t-56 135q0 80 55.5 135t137.5 55q80 0 136 -55.5
t56 -134.5zM385 1313q0 -56 33.5 -90.5t87.5 -34.5t86.5 34.5t32.5 90.5t-32.5 90.5t-86.5 34.5t-87.5 -34.5t-33.5 -90.5z" />
    <glyph glyph-name="Uhungarumlaut" unicode="&#x170;" horiz-adv-x="1378" 
d="M1204 1454v-1014q0 -223 -127.5 -345t-388.5 -122q-259 0 -386.5 122t-127.5 345v1014h105v-1003q0 -193 104.5 -291.5t304.5 -98.5q203 0 307.5 98t104.5 292v1003h104zM780 1849l-182 -286h-90l154 286h118zM1069 1849l-184 -286h-90l157 286h117z" />
    <glyph glyph-name="uhungarumlaut" unicode="&#x171;" horiz-adv-x="1050" 
d="M797 975h98v-975h-94v143q-41 -82 -123 -125t-178 -43q-174 0 -262 88.5t-88 237.5v674h98v-656q0 -126 66.5 -193t185.5 -67q131 0 214 84t83 232v600zM596 1421l-182 -286h-90l153 286h119zM885 1421l-185 -286h-90l158 286h117z" />
    <glyph glyph-name="Uogonek" unicode="&#x172;" horiz-adv-x="1378" 
d="M1100 1454h104v-1016q0 -136 -48 -232t-159 -177q-88 -62 -139 -129.5t-51 -128.5q0 -48 31 -75.5t80 -27.5q30 0 51 6v-75q-26 -11 -60 -11q-79 0 -130.5 45t-51.5 129q0 118 123 226q-82 -15 -162 -15q-259 0 -386.5 122t-127.5 345v1014h105v-1003
q0 -193 104.5 -291.5t304.5 -98.5q203 0 307.5 98t104.5 292v1003z" />
    <glyph glyph-name="uogonek" unicode="&#x173;" horiz-adv-x="1050" 
d="M899 -328v-75q-26 -11 -59 -11q-76 0 -126 42t-50 120q0 128 145 252h-8v143q-41 -82 -123 -125t-178 -43q-174 0 -262 88.5t-88 237.5v674h98v-656q0 -126 66.5 -193t185.5 -67q131 0 214 84t83 232v600h98v-975q-154 -116 -154 -238q0 -46 29 -71t80 -25q28 0 49 6z
" />
    <glyph glyph-name="Wcircumflex" unicode="&#x174;" horiz-adv-x="1863" 
d="M1686 1454h104l-350 -1454h-146l-211 762q-87 324 -147 567q-60 -253 -148 -569l-210 -760h-156l-348 1454h106l182 -766q111 -475 142 -614q18 82 137 520q7 17 27 94l211 766h116l209 -766q93 -335 160 -606q46 221 139 606zM1102 1563l-168 217l-168 -217h-88l192 282
h125l195 -282h-88z" />
    <glyph glyph-name="wcircumflex" unicode="&#x175;" horiz-adv-x="1404" 
d="M1249 975h103l-279 -975h-125l-104 354q-114 390 -144 510q-73 -274 -143 -514l-102 -350h-121l-279 975h103l112 -404q9 -34 127 -489q41 159 138 489l116 404h101l120 -404q95 -316 138 -491q65 263 127 491zM866 1135l-168 217l-168 -217h-88l193 282h125l194 -282
h-88z" />
    <glyph glyph-name="Ycircumflex" unicode="&#x176;" horiz-adv-x="1218" 
d="M1059 1454h117l-517 -825v-629h-104v631l-512 823h119l448 -731zM776 1563l-168 217l-168 -217h-88l193 282h125l194 -282h-88z" />
    <glyph glyph-name="ycircumflex" unicode="&#x177;" horiz-adv-x="925" 
d="M776 975h103l-404 -1133q-48 -133 -96 -182t-154 -53q-68 0 -123 14l19 82q59 -12 104 -12q60 0 94 37.5t72 146.5l23 68l-365 1032h105l131 -387l178 -518l131 374q3 9 51 150zM625 1135l-168 217l-168 -217h-88l192 282h125l195 -282h-88z" />
    <glyph glyph-name="Ydieresis" unicode="&#x178;" horiz-adv-x="1218" 
d="M1059 1454h117l-517 -825v-629h-104v631l-512 823h119l448 -731zM492 1815v-177h-101v177h101zM821 1815v-177h-100v177h100z" />
    <glyph glyph-name="Zacute" unicode="&#x179;" horiz-adv-x="1243" 
d="M1163 1454v-78l-958 -1288h954v-88h-1079v78l954 1288h-907v88h1036zM877 1845l-185 -282h-86l152 282h119z" />
    <glyph glyph-name="zacute" unicode="&#x17a;" horiz-adv-x="942" 
d="M848 975v-70l-643 -823h643v-82h-762v72l645 821h-604v82h721zM709 1417l-185 -282h-86l152 282h119z" />
    <glyph glyph-name="Zdotaccent" unicode="&#x17b;" horiz-adv-x="1243" 
d="M1163 1454v-78l-958 -1288h954v-88h-1079v78l954 1288h-907v88h1036zM698 1815v-177h-98v177h98z" />
    <glyph glyph-name="zdotaccent" unicode="&#x17c;" horiz-adv-x="942" 
d="M848 975v-70l-643 -823h643v-82h-762v72l645 821h-604v82h721zM530 1386v-176h-98v176h98z" />
    <glyph glyph-name="Zcaron" unicode="&#x17d;" horiz-adv-x="1243" 
d="M1163 1454v-78l-958 -1288h954v-88h-1079v78l954 1288h-907v88h1036zM907 1845l-194 -282h-125l-193 282h88l168 -217l168 217h88z" />
    <glyph glyph-name="zcaron" unicode="&#x17e;" horiz-adv-x="942" 
d="M848 975v-70l-643 -823h643v-82h-762v72l645 821h-604v82h721zM739 1417l-194 -282h-125l-193 282h88l168 -217l168 217h88z" />
    <glyph glyph-name="florin" unicode="&#x192;" 
d="M610 913h283v-73h-283v-955q0 -282 -252 -282q-73 0 -178 30l27 78q85 -24 158 -24q82 0 114.5 49.5t32.5 157.5v946h-248v73h248v224q0 135 70.5 210.5t199.5 75.5q86 0 187 -34l-27 -80q-89 28 -154 28q-98 0 -138 -51.5t-40 -173.5v-199z" />
    <glyph glyph-name="uni0218" unicode="&#x218;" horiz-adv-x="1253" 
d="M1126 1284l-59 -74q-115 98 -223.5 141.5t-233.5 43.5q-167 0 -278 -83t-111 -208q0 -88 47 -141q49 -52 135 -82q95 -30 254 -68q274 -64 383 -156t109 -258q0 -127 -66.5 -225.5t-180 -150.5t-253.5 -52q-163 0 -299 54q-140 59 -287 180l62 74q162 -131 281 -177
q119 -43 241 -43q171 0 287 93q113 91 113 247q0 101 -52 162q-48 58 -134 93t-253 73q-278 61 -379.5 135t-107.5 230q0 117 70.5 208.5t180 138t234.5 46.5q148 0 272.5 -48.5t247.5 -152.5zM694 -172v-141l-92 -195h-63l82 195h-72v141h145z" />
    <glyph glyph-name="uni0219" unicode="&#x219;" horiz-adv-x="927" 
d="M823 870l-55 -71q-92 66 -161.5 91t-157.5 25q-115 0 -184.5 -51t-69.5 -133q0 -50 32 -82q31 -29 85.5 -48.5t174.5 -47.5q195 -45 277 -108.5t82 -178.5q0 -130 -102 -210.5t-263 -80.5q-124 0 -215 39q-91 40 -209 140l62 65q105 -91 186 -126.5t180 -35.5
q114 0 188.5 58t74.5 151q-2 28 -10 50t-18.5 38.5t-32 31t-41 24.5t-55 21.5t-65 19.5t-80.5 20q-102 24 -162 44t-105 49.5t-63 68t-18 94.5q0 124 101 197q100 75 250 75q107 0 190.5 -29.5t183.5 -99.5zM516 -172v-141l-92 -195h-64l82 195h-71v141h145z" />
    <glyph glyph-name="uni021A" unicode="&#x21a;" horiz-adv-x="1206" 
d="M1135 1454v-88h-480v-1366h-104v1366h-479v88h1063zM676 -172v-141l-92 -195h-64l82 195h-72v141h146z" />
    <glyph glyph-name="uni021B" unicode="&#x21b;" horiz-adv-x="673" 
d="M614 96l23 -76q-84 -34 -180 -34q-120 0 -174 54.5t-54 160.5v698h-188v76h188v352h99v-352h290v-76h-290v-686q0 -75 33 -109t102 -34q74 0 151 26zM500 -172v-141l-92 -195h-64l82 195h-72v141h146z" />
    <glyph glyph-name="uni0237" unicode="&#x237;" horiz-adv-x="415" 
d="M14 -311q80 0 114 50.5t34 156.5v1079h98v-1086q0 -282 -252 -282q-78 0 -176 31l27 75q99 -24 155 -24z" />
    <glyph glyph-name="circumflex" unicode="&#x2c6;" horiz-adv-x="768" 
d="M553 1135l-168 217l-168 -217h-88l193 282h124l195 -282h-88z" />
    <glyph glyph-name="caron" unicode="&#x2c7;" horiz-adv-x="768" 
d="M641 1417l-195 -282h-124l-193 282h88l168 -217l168 217h88z" />
    <glyph glyph-name="breve" unicode="&#x2d8;" horiz-adv-x="772" 
d="M129 1364h80q5 -71 50 -115.5t128 -44.5t128 44.5t50 115.5h80q-2 -105 -70.5 -170.5t-187.5 -65.5t-187.5 65.5t-70.5 170.5z" />
    <glyph glyph-name="dotaccent" unicode="&#x2d9;" horiz-adv-x="354" 
d="M227 1386v-176h-98v176h98z" />
    <glyph glyph-name="ring" unicode="&#x2da;" horiz-adv-x="641" 
d="M514 1313q0 -78 -56.5 -134.5t-135.5 -56.5q-81 0 -137 56t-56 135q0 80 55.5 135t137.5 55q80 0 136 -55.5t56 -134.5zM203 1313q0 -56 33.5 -90.5t87.5 -34.5t86 34.5t32 90.5t-32 90.5t-86 34.5t-87.5 -34.5t-33.5 -90.5z" />
    <glyph glyph-name="ogonek" unicode="&#x2db;" horiz-adv-x="491" 
d="M336 47l24 -47q-153 -116 -153 -238q0 -46 29 -71t79 -25q29 0 50 6v-75q-26 -11 -60 -11q-76 0 -126 42t-50 120q0 154 207 299z" />
    <glyph glyph-name="tilde" unicode="&#x2dc;" horiz-adv-x="833" 
d="M440 1290q85 -51 123 -51q37 0 51.5 27.5t14.5 85.5h78q0 -89 -35.5 -142t-102.5 -53q-50 0 -143 55q-54 32 -85.5 45t-61.5 13q-70 0 -70 -111h-80q0 89 39 142t115 53q36 0 70.5 -15t86.5 -49z" />
    <glyph glyph-name="hungarumlaut" unicode="&#x2dd;" horiz-adv-x="817" 
d="M401 1421l-182 -286h-90l154 286h118zM690 1421l-184 -286h-90l157 286h117z" />
    <glyph glyph-name="gravecomb" unicode="&#x300;" horiz-adv-x="0" 
d="M-479 1417h117l153 -282h-86z" />
    <glyph glyph-name="acutecomb" unicode="&#x301;" horiz-adv-x="0" 
d="M-150 1417l-184 -282h-86l152 282h118z" />
    <glyph glyph-name="uni0302" unicode="&#x302;" horiz-adv-x="0" 
d="M-252 1135l-168 217l-168 -217h-88l193 282h125l194 -282h-88z" />
    <glyph glyph-name="tildecomb" unicode="&#x303;" horiz-adv-x="0" 
d="M-492 1290q85 -51 123 -51q37 0 51.5 27.5t14.5 85.5h78q0 -89 -35 -142t-102 -53q-51 0 -144 55q-54 32 -85.5 45t-61.5 13q-70 0 -70 -111h-80q0 89 39 142t115 53q36 0 70.5 -15t86.5 -49z" />
    <glyph glyph-name="uni0304" unicode="&#x304;" horiz-adv-x="0" 
d="M-213 1307v-86h-500v86h500z" />
    <glyph glyph-name="uni0306" unicode="&#x306;" horiz-adv-x="0" 
d="M-733 1364h80q5 -71 50 -115.5t128 -44.5t128 44.5t50 115.5h80q-2 -105 -70.5 -170.5t-187.5 -65.5t-187.5 65.5t-70.5 170.5z" />
    <glyph glyph-name="uni0307" unicode="&#x307;" horiz-adv-x="0" 
d="M-205 1386v-176h-98v176h98z" />
    <glyph glyph-name="uni0308" unicode="&#x308;" horiz-adv-x="0" 
d="M-535 1386v-176h-100v176h100zM-205 1386v-176h-100v176h100z" />
    <glyph glyph-name="uni030A" unicode="&#x30a;" horiz-adv-x="0" 
d="M-219 1313q0 -78 -57 -134.5t-136 -56.5q-81 0 -136.5 56t-55.5 135q0 80 55.5 135t136.5 55q80 0 136.5 -55.5t56.5 -134.5zM-530 1313q0 -56 33 -90.5t87 -34.5t86.5 34.5t32.5 90.5t-32.5 90.5t-86.5 34.5t-87 -34.5t-33 -90.5z" />
    <glyph glyph-name="uni030B" unicode="&#x30b;" horiz-adv-x="0" 
d="M-494 1421l-182 -286h-90l154 286h118zM-205 1421l-184 -286h-90l157 286h117z" />
    <glyph glyph-name="uni030C" unicode="&#x30c;" horiz-adv-x="0" 
d="M-188 1417l-195 -282h-125l-192 282h88l168 -217l168 217h88z" />
    <glyph glyph-name="uni0326" unicode="&#x326;" horiz-adv-x="0" 
d="M-205 -172v-141l-92 -195h-63l81 195h-71v141h145z" />
    <glyph glyph-name="uni0327" unicode="&#x327;" horiz-adv-x="0" 
d="M-379 -139q83 0 136 -42t53 -110q0 -75 -56.5 -123.5t-142.5 -48.5q-102 0 -211 66l37 65q65 -33 96.5 -44t71.5 -11q56 0 89.5 24t33.5 70q0 41 -35.5 64.5t-95.5 23.5q-36 0 -60 -6l-47 45l94 201l66 -35l-66 -141q8 2 37 2z" />
    <glyph glyph-name="uni0328" unicode="&#x328;" horiz-adv-x="0" 
d="M-219 47l24 -47q-153 -116 -153 -238q0 -46 29 -71t79 -25q29 0 50 6v-75q-26 -11 -60 -11q-76 0 -126 42t-50 120q0 154 207 299z" />
    <glyph glyph-name="uni037E" unicode="&#x37e;" horiz-adv-x="479" 
d="M332 158v-158l-94 -215h-68l84 215h-72v158h150zM324 975v-158h-140v158h140z" />
    <glyph glyph-name="tonos" unicode="&#x384;" horiz-adv-x="634" 
d="M319 1157h-79l86 287h112z" />
    <glyph glyph-name="dieresistonos" unicode="&#x385;" horiz-adv-x="849" 
d="M371 1210l63 234h119l-92 -234h-90zM205 1210v160h108v-160h-108zM590 1210v160h108v-160h-108z" />
    <glyph glyph-name="Alphatonos" unicode="&#x386;" horiz-adv-x="1298" 
d="M1145 0l-162 438h-672l-157 -438h-107l533 1454h137l532 -1454h-104zM344 526h608l-80 215q-165 455 -225 637q-95 -282 -188 -532l-37 -103zM168 1167h-80l86 287h113z" />
    <glyph glyph-name="anoteleia" unicode="&#x387;" horiz-adv-x="397" 
d="M268 688v-158h-139v158h139z" />
    <glyph glyph-name="Epsilontonos" unicode="&#x388;" horiz-adv-x="1214" 
d="M1104 1454v-88h-815v-575h753v-89h-753v-614h829v-88h-934v1454h920zM-70 1167h-80l87 287h112z" />
    <glyph glyph-name="Etatonos" unicode="&#x389;" horiz-adv-x="1474" 
d="M1288 1454v-1454h-104v702h-895v-702h-105v1454h105v-663h895v663h104zM-70 1167h-80l87 287h112z" />
    <glyph glyph-name="Iotatonos" unicode="&#x38a;" horiz-adv-x="503" 
d="M303 1454v-1454h-104v1454h104zM-70 1167h-80l87 287h112z" />
    <glyph glyph-name="Omicrontonos" unicode="&#x38c;" horiz-adv-x="1527" 
d="M1436 727q0 -217 -81.5 -388.5t-235 -269.5t-353.5 -98q-148 -2 -274 55t-212.5 158.5t-134.5 241.5t-47 301q-1 161 47 301t134.5 241.5t212.5 158.5t274 55q200 0 353.5 -98t235 -269.5t81.5 -388.5zM203 727q0 -293 157 -480.5t406 -187.5q166 0 295 85.5t199.5 237.5
t70.5 345q0 292 -157.5 480t-407.5 188q-162 3 -292 -85t-201.5 -241.5t-69.5 -341.5zM-12 1167h-80l86 287h112z" />
    <glyph glyph-name="Upsilontonos" unicode="&#x38e;" horiz-adv-x="1222" 
d="M1059 1454h117l-517 -825v-629h-104v631l-512 823h119l448 -731zM-123 1167h-80l86 287h113z" />
    <glyph glyph-name="Omegatonos" unicode="&#x38f;" horiz-adv-x="1527" 
d="M1096 88h342v-88h-527v90q211 78 314.5 239.5t103.5 393.5q0 192 -70 345t-199 240t-294 87q-166 0 -295.5 -87t-199.5 -240t-70 -345q0 -230 105.5 -392.5t316.5 -240.5v-90h-527v88h340q-164 80 -252 258q-88 177 -88 377q0 164 47 304t133 241t212 158t278 57
q149 2 276 -55.5t214 -159t134.5 -242.5t45.5 -303q0 -195 -90 -377q-89 -180 -250 -258zM-12 1167h-80l86 287h112z" />
    <glyph glyph-name="iotadieresistonos" unicode="&#x390;" horiz-adv-x="411" 
d="M256 0h-100v975h100v-975zM152 1210l63 234h119l-92 -234h-90zM-14 1210v160h108v-160h-108zM371 1210v160h108v-160h-108z" />
    <glyph glyph-name="Alpha" unicode="&#x391;" horiz-adv-x="1296" 
d="M1145 0l-162 438h-672l-157 -438h-107l533 1454h137l532 -1454h-104zM344 526h608l-80 215q-165 455 -225 637q-95 -282 -188 -532l-37 -103z" />
    <glyph glyph-name="Beta" unicode="&#x392;" horiz-adv-x="1339" 
d="M1247 408q0 -185 -121 -297q-120 -111 -321 -111h-621v1454h600q190 0 301 -94t111 -268q0 -116 -59.5 -199.5t-161.5 -122.5q125 -36 198.5 -131.5t73.5 -230.5zM289 1366v-555h481q149 0 235.5 75.5t86.5 209.5q0 129 -85 199.5t-239 70.5h-479zM1143 401
q0 143 -101.5 232.5t-267.5 89.5h-485v-635h491q175 0 269 82.5t94 230.5z" />
    <glyph glyph-name="Gamma" unicode="&#x393;" horiz-adv-x="1132" 
d="M1063 1366h-774v-1366h-105v1454h879v-88z" />
    <glyph glyph-name="uni0394" unicode="&#x394;" horiz-adv-x="1298" 
d="M719 1454l532 -1454h-1204l533 1454h139zM188 88h924l-238 651q-153 410 -225 641q-66 -209 -196 -559q-15 -45 -29 -80z" />
    <glyph glyph-name="Epsilon" unicode="&#x395;" horiz-adv-x="1212" 
d="M1104 1454v-88h-815v-575h753v-89h-753v-614h829v-88h-934v1454h920z" />
    <glyph glyph-name="Zeta" unicode="&#x396;" horiz-adv-x="1243" 
d="M1163 1454v-78l-958 -1288h954v-88h-1079v78l954 1288h-907v88h1036z" />
    <glyph glyph-name="Eta" unicode="&#x397;" horiz-adv-x="1472" 
d="M1288 1454v-1454h-104v702h-895v-702h-105v1454h105v-663h895v663h104z" />
    <glyph glyph-name="Theta" unicode="&#x398;" horiz-adv-x="1523" 
d="M1430 727q2 -215 -79.5 -388t-235.5 -272t-353 -96q-149 -2 -275 55t-211.5 158.5t-132 241.5t-45.5 301q-1 161 45.5 301t132 241.5t211.5 158.5t275 55q199 3 353 -96t235.5 -272t79.5 -388zM203 727q0 -192 69.5 -344t197.5 -238t292 -86q166 0 294.5 86t197.5 238
t69 344t-69 344t-197.5 238t-294.5 86q-163 3 -292 -85t-199 -241.5t-68 -341.5zM410 791h706v-89h-706v89z" />
    <glyph glyph-name="Iota" unicode="&#x399;" horiz-adv-x="501" 
d="M303 1454v-1454h-104v1454h104z" />
    <glyph glyph-name="Kappa" unicode="&#x39a;" horiz-adv-x="1282" 
d="M1128 0l-553 801l-284 -289v-512h-107v1454h107v-815l799 815h131l-574 -580l604 -874h-123z" />
    <glyph glyph-name="Lambda" unicode="&#x39b;" horiz-adv-x="1239" 
d="M690 1454l504 -1454h-109l-256 739l-20 60l-78 223q-74 214 -113 360q-74 -255 -180 -557l-28 -84l-254 -741h-111l506 1454h49l-2 4h41l-2 -4h53z" />
    <glyph glyph-name="Mu" unicode="&#x39c;" horiz-adv-x="1701" 
d="M1343 1454h175v-1454h-103v717q0 104 4 678q-61 -177 -217 -590l-33 -84l-272 -721h-94l-279 723q-157 405 -243 666l2 -674v-715h-99v1454h170l260 -682q167 -435 238 -655q60 192 233 655z" />
    <glyph glyph-name="Nu" unicode="&#x39d;" horiz-adv-x="1474" 
d="M1190 1454h100v-1454h-125l-471 709l-418 622q9 -246 9 -545v-786h-101v1454h125l451 -676l137 -207q11 -16 122.5 -184.5t176.5 -269.5l-2 196q-4 332 -4 363v778z" />
    <glyph glyph-name="Xi" unicode="&#x39e;" horiz-adv-x="1277" 
d="M106 1358v96h1065v-96h-1065zM170 700v97h938v-97h-938zM92 0v96h1094v-96h-1094z" />
    <glyph glyph-name="Omicron" unicode="&#x39f;" horiz-adv-x="1533" 
d="M1436 727q0 -217 -81.5 -388.5t-235 -269.5t-353.5 -98q-148 -2 -274 55t-212.5 158.5t-134.5 241.5t-47 301q-1 161 47 301t134.5 241.5t212.5 158.5t274 55q200 0 353.5 -98t235 -269.5t81.5 -388.5zM203 727q0 -293 157 -480.5t406 -187.5q166 0 295 85.5t199.5 237.5
t70.5 345q0 292 -157.5 480t-407.5 188q-162 3 -292 -85t-201.5 -241.5t-69.5 -341.5z" />
    <glyph glyph-name="Pi" unicode="&#x3a0;" horiz-adv-x="1437" 
d="M1253 0h-104v1366h-860v-1366h-105v1454h1069v-1454z" />
    <glyph glyph-name="Rho" unicode="&#x3a1;" horiz-adv-x="1277" 
d="M1210 1038q0 -198 -125.5 -306.5t-339.5 -108.5h-454v-623h-107v1454h561q214 0 339.5 -109t125.5 -307zM741 1366h-452v-655h452q172 0 268.5 84.5t96.5 242.5q0 160 -95.5 244t-269.5 84z" />
    <glyph glyph-name="Sigma" unicode="&#x3a3;" horiz-adv-x="1200" 
d="M203 88h915v-88h-1038v78l514 663l-504 611v102h1010v-88h-899l516 -616z" />
    <glyph glyph-name="Tau" unicode="&#x3a4;" horiz-adv-x="1206" 
d="M1135 1454v-88h-480v-1366h-104v1366h-479v88h1063z" />
    <glyph glyph-name="Upsilon" unicode="&#x3a5;" horiz-adv-x="1218" 
d="M1059 1454h117l-517 -825v-629h-104v631l-512 823h119l448 -731z" />
    <glyph glyph-name="Phi" unicode="&#x3a6;" horiz-adv-x="1581" 
d="M844 123v-123h-105v123q-155 1 -280 51t-205 134t-122 194t-42 235t42 235t122 194.5t205 134.5t280 51v102h105v-102q155 -3 279.5 -52.5t204 -133.5t121.5 -193.5t42 -235.5t-42 -235t-121.5 -193t-204 -133.5t-279.5 -52.5zM743 213v1051q-137 -3 -244 -47t-172 -118
t-98.5 -166t-33.5 -196t33.5 -195.5t98.5 -165t172 -117t244 -46.5zM1386 737q0 105 -33 196.5t-98 164.5t-171.5 117.5t-243.5 48.5v-1051q137 4 243.5 48t171.5 117t98 164t33 195z" />
    <glyph glyph-name="Chi" unicode="&#x3a7;" horiz-adv-x="1206" 
d="M1180 0h-119l-457 686l-457 -686h-120l512 758l-469 696h116l420 -627l416 627h117l-467 -694z" />
    <glyph glyph-name="Psi" unicode="&#x3a8;" horiz-adv-x="1529" 
d="M1253 1454h105v-670q0 -91 -33 -170t-96.5 -141t-166.5 -97.5t-235 -35.5h-10v-340h-104v340h-11q-132 0 -235 35.5t-166.5 97.5t-96 141t-32.5 170v670h104v-663q0 -153 114.5 -259t305.5 -106h17v1028h104v-1028h17q191 0 305 106t114 259v663z" />
    <glyph glyph-name="uni03A9" unicode="&#x3a9;" horiz-adv-x="1527" 
d="M1096 88h342v-88h-527v90q211 78 314.5 239.5t103.5 393.5q0 192 -70 345t-199 240t-294 87q-166 0 -295.5 -87t-199.5 -240t-70 -345q0 -230 105.5 -392.5t316.5 -240.5v-90h-527v88h340q-164 80 -252 258q-88 177 -88 377q0 164 47 304t133 241t212 158t278 57
q149 2 276 -55.5t214 -159t134.5 -242.5t45.5 -303q0 -195 -90 -377q-89 -180 -250 -258z" />
    <glyph glyph-name="Iotadieresis" unicode="&#x3aa;" horiz-adv-x="501" 
d="M303 1454v-1454h-104v1454h104zM135 1815v-177h-100v177h100zM465 1815v-177h-100v177h100z" />
    <glyph glyph-name="Upsilondieresis" unicode="&#x3ab;" horiz-adv-x="1218" 
d="M1059 1454h117l-517 -825v-629h-104v631l-512 823h119l448 -731zM492 1815v-177h-101v177h101zM821 1815v-177h-100v177h100z" />
    <glyph glyph-name="alphatonos" unicode="&#x3ac;" horiz-adv-x="1126" 
d="M874 975h97v-975h-97v172q-112 -195 -350 -195q-186 0 -309 144t-123 368q0 222 121.5 365t308.5 143q240 0 352 -194v172zM874 489q0 196 -97 311t-257 115q-148 0 -235 -118q-88 -119 -88 -308t89 -307.5t234 -118.5q157 0 255.5 114.5t98.5 311.5zM612 1157h-80
l86 287h113z" />
    <glyph glyph-name="epsilontonos" unicode="&#x3ad;" horiz-adv-x="989" 
d="M866 209l64 -68q-97 -88 -196 -127t-224 -39q-199 0 -311.5 76.5t-112.5 216.5q0 89 56 152t165 92q-89 30 -136.5 85t-47.5 132q0 129 113 199q115 71 286 71q223 0 393 -135l-57 -71q-93 69 -168 94.5t-170 25.5q-133 0 -213 -45.5t-80 -126.5q0 -90 71.5 -140
t199.5 -50h143v-80h-141q-307 0 -307 -211q0 -100 80 -152.5t237 -52.5q100 0 183.5 37.5t172.5 116.5zM559 1157h-80l86 287h113z" />
    <glyph glyph-name="etatonos" unicode="&#x3ae;" horiz-adv-x="1071" 
d="M920 668v-1037h-101v1000q0 142 -68 214.5t-196 72.5q-121 0 -210 -88t-89 -209v-621h-100v975h96v-141q95 165 319 165q170 0 260 -96q89 -95 89 -235zM588 1157h-80l86 287h113z" />
    <glyph glyph-name="iotatonos" unicode="&#x3af;" horiz-adv-x="411" 
d="M256 0h-100v975h100v-975zM250 1157h-80l86 287h113z" />
    <glyph glyph-name="upsilondieresistonos" unicode="&#x3b0;" horiz-adv-x="1050" 
d="M152 377v598h100v-598q0 -156 64.5 -238t207.5 -82q275 0 275 320v598h100v-598q0 -193 -93 -297.5t-280 -104.5t-280.5 104.5t-93.5 297.5zM471 1210l64 234h118l-92 -234h-90zM305 1210v160h109v-160h-109zM690 1210v160h109v-160h-109z" />
    <glyph glyph-name="alpha" unicode="&#x3b1;" horiz-adv-x="1126" 
d="M874 975h97v-975h-97v172q-112 -195 -350 -195q-186 0 -309 144t-123 368q0 222 121.5 365t308.5 143q240 0 352 -194v172zM874 489q0 196 -97 311t-257 115q-148 0 -235 -118q-88 -119 -88 -308t89 -307.5t234 -118.5q157 0 255.5 114.5t98.5 311.5z" />
    <glyph glyph-name="beta" unicode="&#x3b2;" horiz-adv-x="1126" 
d="M1034 410q0 -195 -116 -314t-308 -119q-112 0 -212 52.5t-142 146.5v-545h-100v1446q0 112 47.5 204t141 148t216.5 56q178 0 287.5 -99t109.5 -260q0 -121 -67.5 -208.5t-169.5 -114.5q128 -27 219 -129q94 -98 94 -264zM930 406q0 158 -103.5 254t-257.5 96h-102v84
h117q124 0 198 76t74 210q0 136 -79 204.5t-214 68.5q-145 0 -226 -87.5t-81 -238.5v-643q0 -159 101 -263t257 -104q151 0 233.5 94.5t82.5 248.5z" />
    <glyph glyph-name="gamma" unicode="&#x3b3;" horiz-adv-x="911" 
d="M408 -369v365l-367 979h106l144 -385q38 -97 123 -352q14 -46 45 -136q50 162 80 250q65 180 86 234l143 389h100l-360 -975v-369h-100z" />
    <glyph glyph-name="delta" unicode="&#x3b4;" horiz-adv-x="1095" 
d="M88 469q0 103 34 195.5t96 162.5t157 110.5t209 39.5q15 0 39 -6l-430 409v74h710v-84h-575l463 -438q217 -208 217 -463q0 -131 -56 -243.5t-162.5 -181.5t-240.5 -69q-200 0 -330.5 142.5t-130.5 351.5zM903 469q0 62 -13.5 121.5t-42 114t-69.5 95.5t-99.5 65
t-127.5 24q-109 0 -193 -60t-126 -155t-42 -205q0 -74 23.5 -146t67 -132t113.5 -97t155 -37q109 0 191.5 60t122.5 152.5t40 199.5z" />
    <glyph glyph-name="epsilon" unicode="&#x3b5;" horiz-adv-x="989" 
d="M866 209l64 -68q-97 -88 -196 -127t-224 -39q-199 0 -311.5 76.5t-112.5 216.5q0 89 56 152t165 92q-89 30 -136.5 85t-47.5 132q0 129 113 199q115 71 286 71q223 0 393 -135l-57 -71q-93 69 -168 94.5t-170 25.5q-133 0 -213 -45.5t-80 -126.5q0 -90 71.5 -140
t199.5 -50h143v-80h-141q-307 0 -307 -211q0 -100 80 -152.5t237 -52.5q100 0 183.5 37.5t172.5 116.5z" />
    <glyph glyph-name="zeta" unicode="&#x3b6;" horiz-adv-x="1003" 
d="M788 -344l-67 84q11 8 20 15.5t11 9.5l2 2q50 40 70 64.5t20 57.5q0 111 -131 111h-174q-217 0 -328 91.5t-111 270.5q0 196 101 388q94 181 239 339.5t312 280.5h-619v84h774v-70q-292 -207 -499 -489q-203 -274 -203 -537q0 -151 84.5 -212.5t249.5 -61.5h166
q117 0 179 -51t62 -148q0 -65 -35.5 -112.5t-122.5 -116.5z" />
    <glyph glyph-name="eta" unicode="&#x3b7;" horiz-adv-x="1071" 
d="M920 668v-1037h-101v1000q0 142 -68 214.5t-196 72.5q-121 0 -210 -88t-89 -209v-621h-100v975h96v-141q95 165 319 165q170 0 260 -96q89 -95 89 -235z" />
    <glyph glyph-name="theta" unicode="&#x3b8;" horiz-adv-x="1128" 
d="M852 98q-105 -123 -289 -123q-179 0 -289 123q-88 101 -121.5 251t-33.5 380t33.5 380t121.5 251q110 123 289 123q184 0 289 -123q89 -100 122.5 -249t33.5 -382t-33.5 -382t-122.5 -249zM223 778h680q-9 364 -119 516q-83 109 -221 109q-139 0 -219 -109
q-112 -147 -121 -516zM905 702h-682q3 -381 121 -538q80 -109 219 -109q141 0 221 109q112 153 121 538z" />
    <glyph glyph-name="iota" unicode="&#x3b9;" horiz-adv-x="411" 
d="M256 0h-100v975h100v-975z" />
    <glyph glyph-name="kappa" unicode="&#x3ba;" horiz-adv-x="972" 
d="M836 0l-371 532l-209 -210v-322h-100v975h100v-535l526 535h121l-371 -381l418 -594h-114z" />
    <glyph glyph-name="lambda" unicode="&#x3bb;" horiz-adv-x="913" 
d="M426 1255l444 -1255h-102l-145 414q-83 226 -154 463l-16 -48q-98 -292 -146 -413l-157 -416h-107l375 985l-80 240q-32 91 -61 130.5t-70 39.5q-42 0 -113 -29l-28 82q90 35 143 35q39 -2 68.5 -13.5t49.5 -27t38.5 -47.5t30 -59.5t30.5 -80.5z" />
    <glyph glyph-name="uni03BC" unicode="&#x3bc;" horiz-adv-x="1058" 
d="M803 975h100v-975h-90v143q-85 -168 -313 -168q-171 0 -244 88v-438h-100v1350h100v-656q0 -127 65 -192.5t189 -65.5q122 0 207 82q86 83 86 232v600z" />
    <glyph glyph-name="nu" unicode="&#x3bd;" horiz-adv-x="909" 
d="M768 975h100l-346 -975h-135l-344 975h102l142 -404q112 -321 170 -505q29 95 112 333l60 172z" />
    <glyph glyph-name="xi" unicode="&#x3be;" horiz-adv-x="1003" 
d="M788 -344l-67 84q11 8 20 15.5t11 9.5l2 2q50 40 70 64.5t20 57.5q0 111 -131 111h-174q-210 0 -324.5 99t-114.5 278q0 170 88 268q89 100 211 121q-94 23 -157.5 110.5t-63.5 196.5q0 212 160 295h-221v86h790v-84h-280q-161 0 -251.5 -74t-90.5 -225q0 -117 84 -191.5
t213 -74.5h272v-84h-262q-183 0 -285 -90t-102 -254q0 -293 334 -293h166q117 0 179 -51t62 -148q0 -65 -35.5 -112.5t-122.5 -116.5z" />
    <glyph glyph-name="omicron" unicode="&#x3bf;" horiz-adv-x="1095" 
d="M1008 485q0 -225 -129 -367.5t-332 -142.5q-204 0 -331.5 142t-127.5 368t128 370t331 144q202 0 331.5 -144t129.5 -370zM190 485q0 -186 97 -309q98 -119 260 -119q166 0 260 119q98 119 98 309q0 193 -98 312q-95 121 -260 121q-160 0 -260 -121q-97 -123 -97 -312z
" />
    <glyph glyph-name="pi" unicode="&#x3c0;" horiz-adv-x="1191" 
d="M1133 92l20 -80q-82 -32 -152 -32q-115 0 -157.5 51t-42.5 168v690h-469v-889h-101v889h-190v86h1040v-86h-180v-653q0 -101 21 -135.5t88 -34.5q49 0 123 26z" />
    <glyph glyph-name="rho" unicode="&#x3c1;" horiz-adv-x="1079" 
d="M991 485q0 -225 -120 -366.5t-308 -141.5q-239 0 -348 183v-529h-100v854q0 231 119 372.5t321 141.5q199 0 317.5 -145t118.5 -369zM887 487q0 191 -88 310q-89 121 -244 121q-158 0 -252 -119t-94 -312q0 -195 99.5 -310.5t256.5 -115.5q144 0 233 119t89 307z" />
    <glyph glyph-name="uni03C2" unicode="&#x3c2;" horiz-adv-x="970" 
d="M657 -344l-65 84l49 43q76 60 76 111q0 43 -43 65t-172 53q-197 45 -306.5 170t-109.5 322q0 225 124.5 360t326.5 135q122 0 205.5 -42.5t166.5 -143.5l-73 -57q-76 89 -147 125.5t-159 36.5q-105 0 -184 -59t-117.5 -151.5t-38.5 -201.5q0 -152 86.5 -260.5
t241.5 -149.5q103 -24 168 -49q131 -43 131 -156q0 -50 -22 -92q-5 -10 -11 -19.5t-10.5 -16.5t-14.5 -17t-14.5 -15t-18.5 -17t-19 -16.5t-24 -20t-26 -21.5z" />
    <glyph glyph-name="sigma" unicode="&#x3c3;" horiz-adv-x="1107" 
d="M1067 975v-84h-276q106 -55 163.5 -161t57.5 -253q0 -221 -129 -361.5t-332 -140.5q-204 0 -333.5 140t-129.5 360t129.5 360t333.5 140h516zM551 891q-162 0 -262 -115q-96 -116 -96 -301t98.5 -301.5t259.5 -116.5t256 117q98 116 98 301q0 187 -96.5 301.5
t-257.5 114.5z" />
    <glyph glyph-name="tau" unicode="&#x3c4;" horiz-adv-x="827" 
d="M788 891h-329v-678q0 -78 29.5 -110.5t101.5 -32.5q69 0 158 28l22 -78q-81 -34 -184 -34q-120 0 -174 54.5t-54 160.5v690h-319v84h749v-84z" />
    <glyph glyph-name="upsilon" unicode="&#x3c5;" horiz-adv-x="1050" 
d="M152 377v598h100v-598q0 -156 64.5 -238t207.5 -82q275 0 275 320v598h100v-598q0 -193 -93 -297.5t-280 -104.5t-280.5 104.5t-93.5 297.5z" />
    <glyph glyph-name="phi" unicode="&#x3c6;" horiz-adv-x="1382" 
d="M639 -369v340q-258 11 -404.5 141t-146.5 361q0 199 78 320t270 206l37 -79q-155 -67 -217.5 -171t-62.5 -276q0 -196 116 -302.5t330 -117.5v619q0 161 71.5 244t211.5 83q169 0 270.5 -126.5t101.5 -354.5q0 -166 -72 -289t-196 -187.5t-285 -70.5v-340h-102zM1190 518
q0 189 -72.5 294.5t-195.5 105.5q-181 0 -181 -267v-598q211 12 330 132t119 333z" />
    <glyph glyph-name="chi" unicode="&#x3c7;" horiz-adv-x="954" 
d="M911 -369h-110l-330 600l-321 -600h-107l369 676l-369 668h111l313 -574l307 574h107l-355 -649z" />
    <glyph glyph-name="psi" unicode="&#x3c8;" horiz-adv-x="1394" 
d="M1149 975h100v-486q0 -237 -127 -373t-374 -143v-342h-101v342q-248 10 -374 145t-126 371v486h101v-486q0 -204 99.5 -316.5t299.5 -119.5v1272h101v-1272q200 7 300.5 119.5t100.5 316.5v486z" />
    <glyph glyph-name="omega" unicode="&#x3c9;" horiz-adv-x="1380" 
d="M899 920l37 79q189 -80 272.5 -210t83.5 -328q0 -221 -87 -353.5t-244 -132.5q-104 0 -176 59.5t-95 162.5q-23 -104 -94 -163t-176 -59q-157 0 -244.5 132.5t-87.5 353.5q0 198 83.5 328t272.5 210l37 -79q-152 -65 -220 -177t-68 -280q0 -183 60.5 -294.5t160.5 -111.5
q108 0 166.5 82.5t58.5 245.5v277h102v-277q0 -163 59 -245.5t167 -82.5q100 0 160.5 111.5t60.5 294.5q0 168 -68.5 280t-220.5 177z" />
    <glyph glyph-name="iotadieresis" unicode="&#x3ca;" horiz-adv-x="411" 
d="M256 0h-100v975h100v-975zM90 1386v-176h-100v176h100zM420 1386v-176h-101v176h101z" />
    <glyph glyph-name="upsilondieresis" unicode="&#x3cb;" horiz-adv-x="1050" 
d="M152 377v598h100v-598q0 -156 64.5 -238t207.5 -82q275 0 275 320v598h100v-598q0 -193 -93 -297.5t-280 -104.5t-280.5 104.5t-93.5 297.5zM410 1386v-176h-101v176h101zM739 1386v-176h-100v176h100z" />
    <glyph glyph-name="omicrontonos" unicode="&#x3cc;" horiz-adv-x="1097" 
d="M1008 485q0 -225 -129 -367.5t-332 -142.5q-204 0 -331.5 142t-127.5 368t128 370t331 144q202 0 331.5 -144t129.5 -370zM190 485q0 -186 97 -309q98 -119 260 -119q166 0 260 119q98 119 98 309q0 193 -98 312q-95 121 -260 121q-160 0 -260 -121q-97 -123 -97 -312z
M578 1157h-80l86 287h112z" />
    <glyph glyph-name="upsilontonos" unicode="&#x3cd;" horiz-adv-x="1050" 
d="M152 377v598h100v-598q0 -156 64.5 -238t207.5 -82q275 0 275 320v598h100v-598q0 -193 -93 -297.5t-280 -104.5t-280.5 104.5t-93.5 297.5zM563 1157h-80l86 287h113z" />
    <glyph glyph-name="omegatonos" unicode="&#x3ce;" horiz-adv-x="1380" 
d="M899 920l37 79q189 -80 272.5 -210t83.5 -328q0 -221 -87 -353.5t-244 -132.5q-104 0 -176 59.5t-95 162.5q-23 -104 -94 -163t-176 -59q-157 0 -244.5 132.5t-87.5 353.5q0 198 83.5 328t272.5 210l37 -79q-152 -65 -220 -177t-68 -280q0 -183 60.5 -294.5t160.5 -111.5
q108 0 166.5 82.5t58.5 245.5v277h102v-277q0 -163 59 -245.5t167 -82.5q100 0 160.5 111.5t60.5 294.5q0 168 -68.5 280t-220.5 177zM737 1157h-80l86 287h113z" />
    <glyph glyph-name="uni0401" unicode="&#x401;" horiz-adv-x="1212" 
d="M1104 1454v-88h-815v-575h753v-89h-753v-614h829v-88h-934v1454h920zM522 1815v-177h-100v177h100zM852 1815v-177h-100v177h100z" />
    <glyph glyph-name="uni0402" unicode="&#x402;" horiz-adv-x="1556" 
d="M1450 440q0 -216 -120.5 -339.5t-328.5 -123.5q-90 0 -198 21l18 88q90 -20 178 -20q165 0 256 96t91 272q0 177 -99.5 268t-279.5 91q-103 0 -191.5 -21t-197.5 -70v-702h-105v1366h-401v88h1015v-88h-509v-575q65 38 180 63q111 27 203 27q216 0 352 -109
q137 -107 137 -332z" />
    <glyph glyph-name="uni0403" unicode="&#x403;" horiz-adv-x="1132" 
d="M1063 1366h-774v-1366h-105v1454h879v-88zM836 1845l-185 -282h-86l152 282h119z" />
    <glyph glyph-name="uni0404" unicode="&#x404;" horiz-adv-x="1351" 
d="M1229 297l67 -68q-135 -138 -262 -200q-119 -58 -274 -58q-196 -3 -349.5 96.5t-234.5 272t-78 385.5q0 220 81.5 391t237 269t361.5 98q128 0 246.5 -46t243.5 -151l-60 -72q-120 97 -223 139t-209 42q-249 0 -402.5 -166.5t-172.5 -437.5h737v-89h-739
q4 -185 75.5 -331.5t198.5 -229t287 -82.5q129 0 238 57.5t231 180.5z" />
    <glyph glyph-name="uni0405" unicode="&#x405;" horiz-adv-x="1253" 
d="M1126 1284l-59 -74q-115 98 -223.5 141.5t-233.5 43.5q-167 0 -278 -83t-111 -208q0 -88 47 -141q49 -52 135 -82q95 -30 254 -68q274 -64 383 -156t109 -258q0 -127 -66.5 -225.5t-180 -150.5t-253.5 -52q-163 0 -299 54q-140 59 -287 180l62 74q162 -131 281 -177
q119 -43 241 -43q171 0 287 93q113 91 113 247q0 101 -52 162q-48 58 -134 93t-253 73q-278 61 -379.5 135t-107.5 230q0 117 70.5 208.5t180 138t234.5 46.5q148 0 272.5 -48.5t247.5 -152.5z" />
    <glyph glyph-name="uni0406" unicode="&#x406;" horiz-adv-x="501" 
d="M303 1454v-1454h-104v1454h104z" />
    <glyph glyph-name="uni0407" unicode="&#x407;" horiz-adv-x="501" 
d="M303 1454v-1454h-104v1454h104zM135 1815v-177h-100v177h100zM465 1815v-177h-100v177h100z" />
    <glyph glyph-name="uni0408" unicode="&#x408;" horiz-adv-x="929" 
d="M756 1454v-1094q0 -185 -91.5 -282.5t-267.5 -97.5q-177 0 -352 100l43 80q102 -48 173 -70t142 -22q122 0 185 75t63 222v1089h105z" />
    <glyph glyph-name="uni0409" unicode="&#x409;" horiz-adv-x="2277" 
d="M2208 422q0 -200 -128 -311t-345 -111h-547v1366h-701l-4 -686q-3 -280 -16 -395q-14 -141 -78.5 -217t-193.5 -76q-71 0 -127 18l18 88q55 -14 107 -14q91 0 131 61q44 65 53 185q9 123 12 370l4 754h899v-606h443q216 0 344.5 -113t128.5 -313zM2101 422
q0 163 -100.5 250.5t-276.5 87.5h-432v-672h432q175 0 276 87.5t101 246.5z" />
    <glyph glyph-name="uni040A" unicode="&#x40a;" horiz-adv-x="2269" 
d="M2200 418q0 -198 -128.5 -308t-345.5 -110h-544v750h-893v-750h-105v1454h105v-616h893v616h104v-616h440q210 0 342 -111t132 -309zM2095 418q0 160 -101 246t-280 86h-428v-662h428q179 0 280 86t101 244z" />
    <glyph glyph-name="uni040B" unicode="&#x40b;" horiz-adv-x="1566" 
d="M1440 510v-510h-105v502q0 149 -84.5 220t-271.5 71q-210 0 -401 -88v-705h-105v1366h-401v88h1015v-88h-509v-567q72 37 184 57q122 25 213 25q232 0 348.5 -89.5t116.5 -281.5z" />
    <glyph glyph-name="uni040C" unicode="&#x40c;" horiz-adv-x="1288" 
d="M1130 0l-546 705h-295v-705h-105v1454h105v-666h282l525 666h116l-550 -696l589 -758h-121zM866 1845l-184 -282h-86l152 282h118z" />
    <glyph glyph-name="uni040E" unicode="&#x40e;" horiz-adv-x="1226" 
d="M1184 1454h-105l-461 -1061l-466 1061h-109l522 -1182l-4 -10q-42 -103 -95.5 -146.5t-121.5 -43.5q-72 0 -145 18l-19 -92q86 -18 164 -18q101 0 172 54t125 181zM899 1792q0 -108 -73.5 -170.5t-207.5 -62.5t-208 63t-74 170h92q0 -74 50 -118t140 -44t139.5 44
t49.5 118h92z" />
    <glyph glyph-name="uni040F" unicode="&#x40f;" horiz-adv-x="1435" 
d="M184 1454h105v-1366h858v1366h104v-1454h-481v-307h-104v307h-482v1454z" />
    <glyph glyph-name="uni0410" unicode="&#x410;" horiz-adv-x="1296" 
d="M1145 0l-162 438h-672l-157 -438h-107l533 1454h137l532 -1454h-104zM344 526h608l-80 215q-165 455 -225 637q-95 -282 -188 -532l-37 -103z" />
    <glyph glyph-name="uni0411" unicode="&#x411;" horiz-adv-x="1284" 
d="M184 0v1454h944v-88h-839v-535h463q208 0 333 -110q129 -108 129 -305q0 -199 -129 -307q-127 -109 -333 -109h-568zM289 88h450q174 0 272.5 85.5t98.5 242.5t-98.5 242t-272.5 85h-450v-655z" />
    <glyph glyph-name="uni0412" unicode="&#x412;" horiz-adv-x="1339" 
d="M1247 408q0 -185 -121 -297q-120 -111 -321 -111h-621v1454h600q190 0 301 -94t111 -268q0 -116 -59.5 -199.5t-161.5 -122.5q125 -36 198.5 -131.5t73.5 -230.5zM289 1366v-555h481q149 0 235.5 75.5t86.5 209.5q0 129 -85 199.5t-239 70.5h-479zM1143 401
q0 143 -101.5 232.5t-267.5 89.5h-485v-635h491q175 0 269 82.5t94 230.5z" />
    <glyph glyph-name="uni0413" unicode="&#x413;" horiz-adv-x="1132" 
d="M1063 1366h-774v-1366h-105v1454h879v-88z" />
    <glyph glyph-name="uni0414" unicode="&#x414;" horiz-adv-x="1503" 
d="M362 1454h891v-1366h172v-391h-104v303h-1167v-303h-105v391h117q82 99 135 281q54 179 57 538zM279 88h870v1278h-692l-4 -477q-3 -335 -56 -524q-54 -193 -118 -277z" />
    <glyph glyph-name="uni0415" unicode="&#x415;" horiz-adv-x="1212" 
d="M1104 1454v-88h-815v-575h753v-89h-753v-614h829v-88h-934v1454h920z" />
    <glyph glyph-name="uni0416" unicode="&#x416;" horiz-adv-x="1941" 
d="M1782 0l-527 705h-235v-705h-98v705h-236l-528 -705h-121l565 756l-528 698h119l499 -666h230v666h98v-666h229l500 666h119l-529 -698l566 -756h-123z" />
    <glyph glyph-name="uni0417" unicode="&#x417;" horiz-adv-x="1304" 
d="M1210 412q0 -199 -154.5 -320t-391.5 -121q-166 0 -301 56.5t-283 185.5l63 76q138 -120 261.5 -175t261.5 -55q200 0 320 93t120 258q0 141 -102 222t-289 81h-307v88h311q150 0 239 78.5t89 214.5q0 130 -110 215.5t-282 85.5q-124 0 -238 -42t-231 -147l-61 66
q125 117 250.5 164t279.5 47q137 0 249.5 -48t178.5 -137t66 -202q0 -240 -225 -328q141 -38 213.5 -129.5t72.5 -226.5z" />
    <glyph glyph-name="uni0418" unicode="&#x418;" horiz-adv-x="1478" 
d="M1174 1454h120v-1454h-102v786q0 304 6 541l-311 -463l-94 -139l-488 -725h-121v1454h103v-778q0 -268 -6 -557l155 235l258 387z" />
    <glyph glyph-name="uni0419" unicode="&#x419;" horiz-adv-x="1478" 
d="M1294 1454h-120l-480 -713l-258 -387l-155 -235q6 290 6 557v778h-103v-1454h121l488 725l94 139l311 463q-6 -237 -6 -541v-786h102v1454zM1018 1792q0 -108 -73.5 -170.5t-207.5 -62.5t-208 63t-74 170h92q0 -74 50 -118t140 -44t139.5 44t49.5 118h92z" />
    <glyph glyph-name="uni041A" unicode="&#x41a;" horiz-adv-x="1288" 
d="M1130 0l-546 705h-295v-705h-105v1454h105v-666h282l525 666h116l-550 -696l589 -758h-121z" />
    <glyph glyph-name="uni041B" unicode="&#x41b;" horiz-adv-x="1476" 
d="M68 10l18 88q55 -14 107 -14q91 0 131 61q44 65 53 185q9 123 12 370l4 754h899v-1454h-104v1366h-701l-4 -686q-3 -280 -16 -395q-14 -141 -78.5 -217t-193.5 -76q-71 0 -127 18z" />
    <glyph glyph-name="uni041C" unicode="&#x41c;" horiz-adv-x="1701" 
d="M1343 1454h175v-1454h-103v717q0 104 4 678q-61 -177 -217 -590l-33 -84l-272 -721h-94l-279 723q-157 405 -243 666l2 -674v-715h-99v1454h170l260 -682q167 -435 238 -655q60 192 233 655z" />
    <glyph glyph-name="uni041D" unicode="&#x41d;" horiz-adv-x="1472" 
d="M1288 1454v-1454h-104v702h-895v-702h-105v1454h105v-663h895v663h104z" />
    <glyph glyph-name="uni041E" unicode="&#x41e;" horiz-adv-x="1533" 
d="M1436 727q0 -217 -81.5 -388.5t-235 -269.5t-353.5 -98q-148 -2 -274 55t-212.5 158.5t-134.5 241.5t-47 301q-1 161 47 301t134.5 241.5t212.5 158.5t274 55q200 0 353.5 -98t235 -269.5t81.5 -388.5zM203 727q0 -293 157 -480.5t406 -187.5q166 0 295 85.5t199.5 237.5
t70.5 345q0 292 -157.5 480t-407.5 188q-162 3 -292 -85t-201.5 -241.5t-69.5 -341.5z" />
    <glyph glyph-name="uni041F" unicode="&#x41f;" horiz-adv-x="1437" 
d="M1253 0h-104v1366h-860v-1366h-105v1454h1069v-1454z" />
    <glyph glyph-name="uni0420" unicode="&#x420;" horiz-adv-x="1277" 
d="M1210 1038q0 -198 -125.5 -306.5t-339.5 -108.5h-454v-623h-107v1454h561q214 0 339.5 -109t125.5 -307zM741 1366h-452v-655h452q172 0 268.5 84.5t96.5 242.5q0 160 -95.5 244t-269.5 84z" />
    <glyph glyph-name="uni0421" unicode="&#x421;" horiz-adv-x="1351" 
d="M1268 1286l-60 -72q-120 97 -223 139t-209 42q-260 0 -416.5 -187t-156.5 -481q0 -292 155 -480t402 -188q129 0 238 57.5t231 180.5l67 -68q-135 -138 -262 -200q-119 -58 -274 -58q-198 -3 -351 96.5t-233 271.5t-78 386q0 220 80.5 391t236 269t363.5 98
q128 0 246.5 -46t243.5 -151z" />
    <glyph glyph-name="uni0422" unicode="&#x422;" horiz-adv-x="1206" 
d="M1135 1454v-88h-480v-1366h-104v1366h-479v88h1063z" />
    <glyph glyph-name="uni0423" unicode="&#x423;" horiz-adv-x="1226" 
d="M1079 1454h105l-543 -1239q-54 -127 -125 -181t-172 -54q-78 0 -164 18l19 92q73 -18 145 -18q68 0 121.5 43.5t95.5 146.5l4 10l-522 1182h109l466 -1061z" />
    <glyph glyph-name="uni0424" unicode="&#x424;" horiz-adv-x="1753" 
d="M1655 737q2 -123 -42.5 -233t-128.5 -195.5t-216 -134.5t-293 -47h-47v-199h-101v199h-47q-164 0 -296 49t-215 133.5t-127 193.5t-44 234t44 234.5t127 194t215 133.5t296 49h47v178h101v-178h47q161 2 293 -47.5t216 -134.5t128.5 -195.5t42.5 -233.5zM780 215h49v1045
h-49q-139 0 -250.5 -43t-181.5 -116t-106.5 -166.5t-36.5 -197.5t36.5 -197t106.5 -166.5t181.5 -116t250.5 -42.5zM1550 737q0 104 -36.5 197.5t-106.5 166.5t-181.5 116t-250.5 43h-49v-1045h49q139 0 250.5 42.5t181.5 116t106.5 166.5t36.5 197z" />
    <glyph glyph-name="uni0425" unicode="&#x425;" horiz-adv-x="1206" 
d="M1180 0h-119l-457 686l-457 -686h-120l512 758l-469 696h116l420 -627l416 627h117l-467 -694z" />
    <glyph glyph-name="uni0426" unicode="&#x426;" horiz-adv-x="1499" 
d="M184 1454h105v-1366h856v1366h104v-1366h172v-391h-104v303h-1133v1454z" />
    <glyph glyph-name="uni0427" unicode="&#x427;" horiz-adv-x="1302" 
d="M1014 1454h104v-1454h-104v668q-74 -35 -185 -57.5t-215 -22.5q-231 0 -345.5 89t-114.5 281v496h104v-489q0 -150 85.5 -219.5t270.5 -69.5q213 0 400 84v694z" />
    <glyph glyph-name="uni0428" unicode="&#x428;" horiz-adv-x="2107" 
d="M1923 1454v-1454h-1739v1454h105v-1366h712v1366h105v-1366h713v1366h104z" />
    <glyph glyph-name="uni0429" unicode="&#x429;" horiz-adv-x="2170" 
d="M1989 -303v303h-1805v1454h105v-1366h712v1366h105v-1366h713v1366h104v-1366h170v-391h-104z" />
    <glyph glyph-name="uni042A" unicode="&#x42a;" horiz-adv-x="1533" 
d="M1464 422q0 -200 -128 -311t-345 -111h-547v1366h-372v88h477v-606h442q216 0 344.5 -113t128.5 -313zM1358 422q0 163 -100.5 250.5t-276.5 87.5h-432v-672h432q175 0 276 87.5t101 246.5z" />
    <glyph glyph-name="uni042B" unicode="&#x42b;" horiz-adv-x="1728" 
d="M184 0v1454h105v-606h442q216 0 344.5 -113t128.5 -313t-128 -311t-345 -111h-547zM289 88h432q175 0 276 87.5t101 246.5q0 163 -100.5 250.5t-276.5 87.5h-432v-672zM1544 1454v-1454h-104v1454h104z" />
    <glyph glyph-name="uni042C" unicode="&#x42c;" horiz-adv-x="1273" 
d="M184 0v1454h105v-606h442q216 0 344.5 -113t128.5 -313t-128 -311t-345 -111h-547zM289 88h432q175 0 276 87.5t101 246.5q0 163 -100.5 250.5t-276.5 87.5h-432v-672z" />
    <glyph glyph-name="uni042D" unicode="&#x42d;" horiz-adv-x="1351" 
d="M1253 725q3 -213 -78 -385.5t-234 -272t-349 -96.5q-158 0 -277 58q-123 60 -260 200l68 68q122 -123 231 -180.5t238 -57.5q160 0 287 82.5t198.5 229t75.5 331.5h-739v89h737q-19 271 -173 437.5t-403 166.5q-106 0 -209 -42t-223 -139l-59 72q125 105 243 151t246 46
q206 0 361.5 -98t237 -269t81.5 -391z" />
    <glyph glyph-name="uni042E" unicode="&#x42e;" horiz-adv-x="2041" 
d="M1944 727q0 -217 -81.5 -388.5t-235 -269.5t-353.5 -98q-197 0 -347.5 95t-232.5 260t-88 376h-317v-702h-105v1454h105v-663h319q12 201 96 357.5t232 245.5t338 89q200 0 353.5 -98t235 -269.5t81.5 -388.5zM1839 727q0 292 -157.5 480t-407.5 188q-162 3 -292 -85
t-201.5 -241.5t-69.5 -341.5q0 -293 157 -480.5t406 -187.5q166 0 295 85.5t199.5 237.5t70.5 345z" />
    <glyph glyph-name="uni042F" unicode="&#x42f;" horiz-adv-x="1284" 
d="M602 1454h498v-1454h-103v573h-305l-475 -573h-125l483 573q-195 9 -317.5 129t-122.5 312q0 201 131 320.5t336 119.5zM997 662v704h-383q-164 0 -270 -96.5t-106 -255.5q0 -162 103.5 -257t270.5 -95h385z" />
    <glyph glyph-name="uni0430" unicode="&#x430;" horiz-adv-x="1036" 
d="M887 694v-694h-92v137q-48 -82 -139.5 -124t-206.5 -42q-156 0 -251.5 70.5t-95.5 198.5q3 54 17 96t44 73.5t64.5 53.5t91.5 41t111 32t137 29l224 43v74q0 114 -72 175t-197 61q-93 0 -169.5 -38.5t-166.5 -136.5l-65 60q167 196 397 196q170 0 269.5 -84t99.5 -221z
M791 334v192l-205 -41q-120 -24 -211 -49q-174 -54 -174 -190q0 -90 68 -141.5t184 -51.5q147 0 242.5 80.5t95.5 200.5z" />
    <glyph glyph-name="uni0431" unicode="&#x431;" horiz-adv-x="1110" 
d="M1022 489q0 -226 -129.5 -371t-331.5 -145q-221 0 -344 160t-123 453q2 178 18.5 305t53 227t98.5 163t151.5 100t215.5 51l309 28l8 -92l-301 -25q-104 -9 -178 -36.5t-126 -73t-84.5 -120.5t-49.5 -169t-25 -229q44 122 150 196t254 74q202 0 318 -133.5t116 -362.5z
M920 489q0 193 -89.5 303.5t-248.5 110.5q-156 0 -268.5 -116.5t-112.5 -297.5q0 -193 96 -315q98 -119 262 -119q161 0 261 120t100 314z" />
    <glyph glyph-name="uni0432" unicode="&#x432;" horiz-adv-x="1040" 
d="M946 272q0 -124 -88.5 -198t-239.5 -74h-462v975h448q141 0 226 -67t85 -181q0 -83 -45.5 -141.5t-121.5 -79.5q92 -20 145 -82t53 -152zM254 893v-350h344q107 0 163 49t56 133q0 79 -57 123.5t-164 44.5h-342zM848 272q0 86 -61 137.5t-183 51.5h-350v-379h352
q123 0 182.5 50.5t59.5 139.5z" />
    <glyph glyph-name="uni0433" unicode="&#x433;" horiz-adv-x="854" 
d="M809 891h-555v-891h-98v975h653v-84z" />
    <glyph glyph-name="uni0434" unicode="&#x434;" horiz-adv-x="1165" 
d="M59 -256v338h91q140 127 143 545l4 348h649v-893h154v-338h-96v256h-848v-256h-97zM256 82h592v811h-463l-4 -272q-9 -432 -125 -539z" />
    <glyph glyph-name="uni0435" unicode="&#x435;" horiz-adv-x="1046" 
d="M893 246l65 -58q-104 -118 -196 -165.5t-217 -47.5q-209 0 -333 139t-124 365q0 231 123 375.5t321 144.5q195 0 308.5 -123t113.5 -333q0 -19 -4 -51h-760q3 -184 93 -312q89 -123 270 -123q91 0 167 42.5t173 146.5zM195 569h663q-5 157 -92.5 253t-233.5 96
q-137 0 -227.5 -92t-109.5 -257z" />
    <glyph glyph-name="uni0436" unicode="&#x436;" horiz-adv-x="1406" 
d="M1249 0l-329 459h-170v-459h-93v459h-170l-331 -459h-113l367 504l-338 471h108l309 -434h168v434h93v-434h168l309 434h108l-340 -471l369 -504h-115z" />
    <glyph glyph-name="uni0437" unicode="&#x437;" horiz-adv-x="976" 
d="M874 276q0 -127 -108.5 -214t-271.5 -87q-237 0 -431 164l60 68q87 -72 183.5 -111t185.5 -39q131 0 208.5 58t77.5 157q0 91 -67.5 140t-190.5 49h-194v82h192q107 0 169.5 50t62.5 140t-72 136t-195 46q-85 0 -165 -26t-173 -86l-41 71q201 123 381 123
q162 0 261.5 -72.5t99.5 -193.5q0 -173 -172 -225q200 -60 200 -230z" />
    <glyph glyph-name="uni0438" unicode="&#x438;" horiz-adv-x="1095" 
d="M840 975h100v-975h-94v469q0 240 6 393q-44 -70 -217 -317l-55 -78l-326 -467h-98v975h94v-524q0 -21 -4 -283v-51q125 193 264 391z" />
    <glyph glyph-name="uni0439" unicode="&#x439;" horiz-adv-x="1095" 
d="M940 975h-100l-330 -467q-139 -198 -264 -391v51q4 262 4 283v524h-94v-975h98l326 467l55 78q173 247 217 317q-6 -153 -6 -393v-469h94v975zM825 1364q0 -108 -73 -171t-207 -63t-208.5 63.5t-74.5 170.5h92q0 -74 50 -118t141 -44q90 0 139 44t49 118h92z" />
    <glyph glyph-name="uni043A" unicode="&#x43a;" horiz-adv-x="972" 
d="M821 0l-354 459h-213v-459h-98v975h98v-434h211l334 434h106l-360 -471l389 -504h-113z" />
    <glyph glyph-name="uni043B" unicode="&#x43b;" horiz-adv-x="1075" 
d="M23 4l12 82q41 -8 78 -8q33 2 54 9t38 27t26 46t15.5 77t9 109t4.5 152l4 477h656v-975h-99v893h-469l-4 -408q-2 -102 -6.5 -169t-14.5 -126t-25.5 -92t-41.5 -57.5t-60.5 -34.5t-84.5 -12q-40 0 -92 10z" />
    <glyph glyph-name="uni043C" unicode="&#x43c;" horiz-adv-x="1312" 
d="M1004 975h153v-975h-92v514q0 293 2 383l-123 -305l-45 -113l-197 -479h-92l-196 481l-54 133l-112 285v-131v-254v-514h-92v975h149l191 -471l104 -260l57 -144l160 402z" />
    <glyph glyph-name="uni043D" unicode="&#x43d;" horiz-adv-x="1075" 
d="M920 0h-99v461h-567v-461h-98v975h98v-432h567v432h99v-975z" />
    <glyph glyph-name="uni043E" unicode="&#x43e;" horiz-adv-x="1095" 
d="M1008 485q0 -225 -129 -367.5t-332 -142.5q-204 0 -331.5 142t-127.5 368t128 370t331 144q202 0 331.5 -144t129.5 -370zM190 485q0 -186 97 -309q98 -119 260 -119q166 0 260 119q98 119 98 309q0 193 -98 312q-95 121 -260 121q-160 0 -260 -121q-97 -123 -97 -312z
" />
    <glyph glyph-name="uni043F" unicode="&#x43f;" horiz-adv-x="1064" 
d="M156 0v975h753v-975h-98v893h-557v-893h-98z" />
    <glyph glyph-name="uni0440" unicode="&#x440;" horiz-adv-x="1122" 
d="M1030 485q0 -223 -120 -365.5t-306 -142.5q-245 0 -350 193v-539h-98v1344h92v-193q51 105 142.5 160t215.5 55q189 0 306.5 -142.5t117.5 -369.5zM928 485q0 190 -89.5 310t-234.5 120q-157 0 -256.5 -116.5t-99.5 -313.5q0 -198 97 -312t257 -114q144 0 235 119t91 307
z" />
    <glyph glyph-name="uni0441" unicode="&#x441;" horiz-adv-x="972" 
d="M528 918q-108 0 -186.5 -63.5t-115 -160t-36.5 -209.5t37.5 -208t118 -157.5t191.5 -62.5q88 0 153 35q69 35 160 137l63 -53q-87 -109 -173 -155t-199 -46q-208 0 -330.5 140.5t-122.5 369.5q0 227 123 370.5t321 143.5q120 0 206 -43.5t169 -142.5l-67 -59
q-78 89 -151 126.5t-161 37.5z" />
    <glyph glyph-name="uni0442" unicode="&#x442;" horiz-adv-x="849" 
d="M805 893h-332v-893h-98v893h-332v82h762v-82z" />
    <glyph glyph-name="uni0443" unicode="&#x443;" horiz-adv-x="925" 
d="M776 975h103l-404 -1133q-48 -133 -96 -182t-154 -53q-68 0 -123 14l19 82q59 -12 104 -12q60 0 94 37.5t72 146.5l23 68l-365 1032h105l131 -387l178 -518l131 374q3 9 51 150z" />
    <glyph glyph-name="uni0444" unicode="&#x444;" horiz-adv-x="1372" 
d="M637 1454h94v-455q248 -9 400.5 -146t152.5 -368q0 -229 -152.5 -366t-400.5 -146v-342h-94v342q-244 9 -396.5 146t-152.5 366q0 230 152 367.5t397 146.5v455zM639 51v871q-206 -11 -327.5 -125t-121.5 -312q0 -195 121.5 -309t327.5 -125zM729 922v-871
q206 11 329.5 125t123.5 309q0 197 -123 311.5t-330 125.5z" />
    <glyph glyph-name="uni0445" unicode="&#x445;" horiz-adv-x="905" 
d="M868 0h-112l-301 446l-305 -446h-111l354 508l-330 467h113l279 -404l274 404h109l-322 -465z" />
    <glyph glyph-name="uni0446" unicode="&#x446;" horiz-adv-x="1130" 
d="M969 -256v256h-813v975h98v-893h559v893h98v-893h154v-338h-96z" />
    <glyph glyph-name="uni0447" unicode="&#x447;" horiz-adv-x="966" 
d="M713 975h98v-975h-98v440q-121 -59 -289 -59q-175 0 -254.5 69.5t-79.5 213.5v311h98v-318q0 -99 56 -146.5t182 -47.5q158 0 287 63v449z" />
    <glyph glyph-name="uni0448" unicode="&#x448;" horiz-adv-x="1497" 
d="M1341 975v-975h-1185v975h98v-893h446v893h99v-893h444v893h98z" />
    <glyph glyph-name="uni0449" unicode="&#x449;" horiz-adv-x="1558" 
d="M1399 -256v256h-1243v975h98v-893h446v893h99v-893h444v893h98v-893h152v-338h-94z" />
    <glyph glyph-name="uni044A" unicode="&#x44a;" horiz-adv-x="1150" 
d="M1067 305q0 -140 -96.5 -222.5t-251.5 -82.5h-408v891h-268v84h367v-365h309q156 0 252 -81t96 -224zM965 305q0 223 -271 223h-284v-446h284q271 0 271 223z" />
    <glyph glyph-name="uni044B" unicode="&#x44b;" horiz-adv-x="1316" 
d="M156 0v975h98v-365h309q156 0 252 -81t96 -224q0 -140 -96.5 -222.5t-251.5 -82.5h-407zM254 82h285q270 0 270 223t-270 223h-285v-446zM1161 975v-975h-98v975h98z" />
    <glyph glyph-name="uni044C" unicode="&#x44c;" horiz-adv-x="995" 
d="M156 0v975h98v-365h309q156 0 252 -81t96 -224q0 -140 -96.5 -222.5t-251.5 -82.5h-407zM254 82h285q270 0 270 223t-270 223h-285v-446z" />
    <glyph glyph-name="uni044D" unicode="&#x44d;" horiz-adv-x="972" 
d="M885 485q0 -228 -123 -369t-328 -141q-114 0 -201 46t-174 155l66 53q86 -98 154.5 -135t156.5 -37q168 0 256 119q90 122 96 285h-489v82h487q-15 156 -102 266q-86 109 -240 109q-89 0 -161.5 -37t-145.5 -125l-69 57q83 100 167.5 143t204.5 43q201 0 323 -142
t122 -372z" />
    <glyph glyph-name="uni044E" unicode="&#x44e;" horiz-adv-x="1476" 
d="M1389 485q0 -225 -129 -367.5t-332 -142.5q-197 0 -325 134.5t-134 349.5h-215v-459h-98v975h98v-436h217q15 207 140.5 333.5t316.5 126.5q202 0 331.5 -144t129.5 -370zM1286 485q0 193 -98 312q-95 121 -260 121q-160 0 -260 -121q-97 -123 -97 -312q0 -186 97 -309
q98 -119 260 -119q166 0 260 119q98 119 98 309z" />
    <glyph glyph-name="uni044F" unicode="&#x44f;" horiz-adv-x="980" 
d="M453 975h372v-975h-94v385h-209l-348 -385h-121l357 387q-137 11 -220.5 91t-83.5 204q0 134 96 213.5t251 79.5zM731 467v426h-264q-126 0 -196 -54.5t-70 -156.5q0 -104 69.5 -159.5t194.5 -55.5h266z" />
    <glyph glyph-name="uni0451" unicode="&#x451;" horiz-adv-x="1046" 
d="M893 246l65 -58q-104 -118 -196 -165.5t-217 -47.5q-209 0 -333 139t-124 365q0 231 123 375.5t321 144.5q195 0 308.5 -123t113.5 -333q0 -19 -4 -51h-760q3 -184 93 -312q89 -123 270 -123q91 0 167 42.5t173 146.5zM195 569h663q-5 157 -92.5 253t-233.5 96
q-137 0 -227.5 -92t-109.5 -257zM432 1386v-176h-100v176h100zM762 1386v-176h-100v176h100z" />
    <glyph glyph-name="uni0452" unicode="&#x452;" horiz-adv-x="1130" 
d="M979 653v-764q0 -282 -252 -282q-85 0 -180 31l26 79q85 -24 160 -24q80 0 113 48.5t33 154.5v720q0 140 -68.5 212.5t-196.5 72.5q-120 0 -209.5 -87.5t-89.5 -207.5v-606h-100v1206h-133v84h133v164h100v-164h369v-84h-369v-383q48 80 130.5 120t185.5 40
q170 0 260 -96q88 -94 88 -234z" />
    <glyph glyph-name="uni0453" unicode="&#x453;" horiz-adv-x="854" 
d="M809 891h-555v-891h-98v975h653v-84zM713 1417l-185 -282h-86l152 282h119z" />
    <glyph glyph-name="uni0454" unicode="&#x454;" horiz-adv-x="972" 
d="M848 229l65 -53q-87 -109 -173.5 -155t-200.5 -46q-205 0 -328 141t-123 369q0 230 121.5 372t322.5 142q120 0 205 -43t168 -143l-69 -57q-73 88 -146 125t-162 37q-153 0 -239 -109q-88 -111 -103 -266h488v-82h-490q6 -164 95 -285q88 -119 258 -119q88 0 156.5 37
t154.5 135z" />
    <glyph glyph-name="uni0455" unicode="&#x455;" horiz-adv-x="927" 
d="M823 870l-55 -71q-92 66 -161.5 91t-157.5 25q-115 0 -184.5 -51t-69.5 -133q0 -50 32 -82q31 -29 85.5 -48.5t174.5 -47.5q195 -45 277 -108.5t82 -178.5q0 -130 -102 -210.5t-263 -80.5q-124 0 -215 39q-91 40 -209 140l62 65q105 -91 186 -126.5t180 -35.5
q114 0 188.5 58t74.5 151q-2 28 -10 50t-18.5 38.5t-32 31t-41 24.5t-55 21.5t-65 19.5t-80.5 20q-102 24 -162 44t-105 49.5t-63 68t-18 94.5q0 124 101 197q100 75 250 75q107 0 190.5 -29.5t183.5 -99.5z" />
    <glyph glyph-name="uni0456" unicode="&#x456;" horiz-adv-x="409" 
d="M254 975v-975h-98v975h98zM254 1386v-176h-98v176h98z" />
    <glyph glyph-name="uni0457" unicode="&#x457;" horiz-adv-x="409" 
d="M254 975v-975h-98v975h98zM90 1386v-176h-100v176h100zM420 1386v-176h-101v176h101z" />
    <glyph glyph-name="uni0458" unicode="&#x458;" horiz-adv-x="415" 
d="M14 -311q80 0 114 50.5t34 156.5v1079h98v-1086q0 -282 -252 -282q-78 0 -176 31l27 75q99 -24 155 -24zM258 1386v-176h-98v176h98z" />
    <glyph glyph-name="uni0459" unicode="&#x459;" horiz-adv-x="1693" 
d="M1610 281q0 -141 -94 -211t-254 -70h-441v893h-469l-4 -408q-2 -102 -6.5 -169t-14.5 -126t-25.5 -92t-41.5 -57.5t-60.5 -34.5t-84.5 -12q-40 0 -92 10l12 82q41 -8 78 -8q33 2 54 9t38 27t26 46t15.5 77t9 109t4.5 152l4 477h656v-414h342q156 0 252 -71.5t96 -208.5z
M1503 281q0 94 -65 146t-183 52h-335v-393h335q118 0 183 51.5t65 143.5z" />
    <glyph glyph-name="uni045A" unicode="&#x45a;" horiz-adv-x="1689" 
d="M156 0v975h98v-414h563v414h98v-414h342q163 0 256 -70.5t93 -209.5q0 -143 -92 -212t-257 -69h-440v479h-563v-479h-98zM915 82h338q122 0 186 52t64 147t-64 146.5t-186 51.5h-338v-397z" />
    <glyph glyph-name="uni045B" unicode="&#x45b;" horiz-adv-x="1130" 
d="M979 653v-653h-100v616q0 140 -68.5 212.5t-196.5 72.5q-120 0 -209.5 -87.5t-89.5 -207.5v-606h-100v1206h-133v84h133v164h100v-164h369v-84h-369v-385q46 82 129 122t187 40q170 0 260 -96q88 -94 88 -234z" />
    <glyph glyph-name="uni045C" unicode="&#x45c;" horiz-adv-x="972" 
d="M821 0l-354 459h-213v-459h-98v975h98v-434h211l334 434h106l-360 -471l389 -504h-113zM713 1417l-185 -282h-86l152 282h119z" />
    <glyph glyph-name="uni045E" unicode="&#x45e;" horiz-adv-x="925" 
d="M879 975h-103l-131 -381q-48 -141 -51 -150l-131 -374l-178 518l-131 387h-105l365 -1032l-23 -68q-38 -109 -72 -146.5t-94 -37.5q-45 0 -104 12l-19 -82q55 -14 123 -14q106 4 154 53t96 182zM735 1364q0 -108 -73 -171t-207 -63t-208.5 63.5t-74.5 170.5h92
q0 -74 50 -118t141 -44q90 0 139 44t49 118h92z" />
    <glyph glyph-name="uni045F" unicode="&#x45f;" horiz-adv-x="1067" 
d="M483 -256v256h-327v975h98v-889h559v889h98v-975h-331v-256h-97z" />
    <glyph glyph-name="uni0490" unicode="&#x490;" horiz-adv-x="1132" 
d="M184 0v1454h777v299h104v-387h-776v-1366h-105z" />
    <glyph glyph-name="uni0491" unicode="&#x491;" horiz-adv-x="856" 
d="M156 0v975h567v264h94v-348h-563v-891h-98z" />
    <glyph glyph-name="Wgrave" unicode="&#x1e80;" horiz-adv-x="1863" 
d="M1686 1454h104l-350 -1454h-146l-211 762q-87 324 -147 567q-60 -253 -148 -569l-210 -760h-156l-348 1454h106l182 -766q111 -475 142 -614q18 82 137 520q7 17 27 94l211 766h116l209 -766q93 -335 160 -606q46 221 139 606zM711 1845h116l154 -282h-86z" />
    <glyph glyph-name="wgrave" unicode="&#x1e81;" horiz-adv-x="1404" 
d="M1249 975h103l-279 -975h-125l-104 354q-114 390 -144 510q-73 -274 -143 -514l-102 -350h-121l-279 975h103l112 -404q9 -34 127 -489q41 159 138 489l116 404h101l120 -404q95 -316 138 -491q65 263 127 491zM475 1417h117l153 -282h-86z" />
    <glyph glyph-name="Wacute" unicode="&#x1e82;" horiz-adv-x="1863" 
d="M1686 1454h104l-350 -1454h-146l-211 762q-87 324 -147 567q-60 -253 -148 -569l-210 -760h-156l-348 1454h106l182 -766q111 -475 142 -614q18 82 137 520q7 17 27 94l211 766h116l209 -766q93 -335 160 -606q46 221 139 606zM1159 1845l-184 -282h-86l151 282h119z" />
    <glyph glyph-name="wacute" unicode="&#x1e83;" horiz-adv-x="1404" 
d="M1249 975h103l-279 -975h-125l-104 354q-114 390 -144 510q-73 -274 -143 -514l-102 -350h-121l-279 975h103l112 -404q9 -34 127 -489q41 159 138 489l116 404h101l120 -404q95 -316 138 -491q65 263 127 491zM924 1417l-185 -282h-86l152 282h119z" />
    <glyph glyph-name="Wdieresis" unicode="&#x1e84;" horiz-adv-x="1863" 
d="M1686 1454h104l-350 -1454h-146l-211 762q-87 324 -147 567q-60 -253 -148 -569l-210 -760h-156l-348 1454h106l182 -766q111 -475 142 -614q18 82 137 520q7 17 27 94l211 766h116l209 -766q93 -335 160 -606q46 221 139 606zM817 1815v-177h-100v177h100zM1147 1815
v-177h-100v177h100z" />
    <glyph glyph-name="wdieresis" unicode="&#x1e85;" horiz-adv-x="1404" 
d="M1249 975h103l-279 -975h-125l-104 354q-114 390 -144 510q-73 -274 -143 -514l-102 -350h-121l-279 975h103l112 -404q9 -34 127 -489q41 159 138 489l116 404h101l120 -404q95 -316 138 -491q65 263 127 491zM582 1386v-176h-101v176h101zM911 1386v-176h-100v176h100z
" />
    <glyph glyph-name="Ygrave" unicode="&#x1ef2;" horiz-adv-x="1218" 
d="M1059 1454h117l-517 -825v-629h-104v631l-512 823h119l448 -731zM385 1845h117l153 -282h-86z" />
    <glyph glyph-name="ygrave" unicode="&#x1ef3;" horiz-adv-x="925" 
d="M776 975h103l-404 -1133q-48 -133 -96 -182t-154 -53q-68 0 -123 14l19 82q59 -12 104 -12q60 0 94 37.5t72 146.5l23 68l-365 1032h105l131 -387l178 -518l131 374q3 9 51 150zM233 1417h117l154 -282h-86z" />
    <glyph glyph-name="endash" unicode="&#x2013;" horiz-adv-x="1456" 
d="M1305 627v-86h-1149v86h1149z" />
    <glyph glyph-name="emdash" unicode="&#x2014;" horiz-adv-x="1941" 
d="M1763 627v-86h-1583v86h1583z" />
    <glyph glyph-name="quoteleft" unicode="&#x2018;" horiz-adv-x="362" 
d="M109 1102v145l88 207h65l-80 -207h68v-145h-141z" />
    <glyph glyph-name="quoteright" unicode="&#x2019;" horiz-adv-x="362" 
d="M254 1454v-145l-88 -207h-66l78 207h-67v145h143z" />
    <glyph glyph-name="quotesinglbase" unicode="&#x201a;" horiz-adv-x="354" 
d="M246 145v-145l-88 -193h-58l70 193h-66v145h142z" />
    <glyph glyph-name="quotedblleft" unicode="&#x201c;" horiz-adv-x="665" 
d="M109 1102v145l88 207h65l-80 -207h68v-145h-141zM412 1102v145l88 207h65l-80 -207h68v-145h-141z" />
    <glyph glyph-name="quotedblright" unicode="&#x201d;" horiz-adv-x="667" 
d="M254 1454v-145l-88 -207h-66l78 207h-67v145h143zM559 1454v-145l-88 -207h-65l77 207h-67v145h143z" />
    <glyph glyph-name="quotedblbase" unicode="&#x201e;" horiz-adv-x="659" 
d="M246 145v-145l-88 -193h-58l70 193h-66v145h142zM551 145v-145l-88 -193h-57l69 193h-65v145h141z" />
    <glyph glyph-name="dagger" unicode="&#x2020;" 
d="M1126 872v-84h-469v-1191h-94v1191h-471v84h471v582h94v-582h469z" />
    <glyph glyph-name="daggerdbl" unicode="&#x2021;" 
d="M1126 891h-469v-555h469v-84h-469v-655h-94v655h-471v84h471v555h-471v84h471v479h94v-479h469v-84z" />
    <glyph glyph-name="bullet" unicode="&#x2022;" horiz-adv-x="991" 
d="M823 621q0 -137 -96.5 -233.5t-232.5 -96.5t-233 96.5t-97 233.5q0 136 96.5 232.5t233.5 96.5q136 0 232.5 -96t96.5 -233z" />
    <glyph glyph-name="ellipsis" unicode="&#x2026;" horiz-adv-x="1136" 
d="M268 158v-158h-139v158h139zM639 158v-158h-139v158h139zM1010 158v-158h-140v158h140z" />
    <glyph glyph-name="perthousand" unicode="&#x2030;" horiz-adv-x="2457" 
d="M1315 1419l74 -45l-990 -1401l-67 47zM1585 295q0 -138 -84.5 -224.5t-210.5 -86.5q-125 0 -211 87t-86 224q0 133 86 220t211 87q126 0 210.5 -86.5t84.5 -220.5zM1085 295q0 -101 56.5 -167.5t146.5 -66.5q92 0 148.5 65.5t56.5 168.5q0 100 -57 166.5t-148 66.5
q-90 0 -146.5 -66.5t-56.5 -166.5zM723 1102q0 -138 -84.5 -224.5t-210.5 -86.5q-125 0 -211 87t-86 224q0 133 86 220t211 87q126 0 210.5 -86.5t84.5 -220.5zM223 1102q0 -101 56.5 -167.5t146.5 -66.5q92 0 148.5 65.5t56.5 168.5q0 100 -57 166.5t-148 66.5
q-90 0 -146.5 -66.5t-56.5 -166.5zM2302 295q0 -138 -84.5 -224.5t-210.5 -86.5q-125 0 -211 87t-86 224q0 133 86 220t211 87q126 0 210.5 -86.5t84.5 -220.5zM1802 295q0 -101 56.5 -167.5t146.5 -66.5q92 0 148.5 65.5t56.5 168.5q0 100 -57 166.5t-148 66.5
q-90 0 -146.5 -66.5t-56.5 -166.5z" />
    <glyph glyph-name="guilsinglleft" unicode="&#x2039;" horiz-adv-x="677" 
d="M530 952l-278 -434l278 -434h-110l-281 434l281 434h110z" />
    <glyph glyph-name="guilsinglright" unicode="&#x203a;" horiz-adv-x="677" 
d="M150 952h110l281 -434l-281 -434h-110l280 434z" />
    <glyph glyph-name="fraction" unicode="&#x2044;" horiz-adv-x="350" 
d="M631 1419l74 -45l-990 -1401l-67 47z" />
    <glyph glyph-name="Euro" unicode="&#x20ac;" horiz-adv-x="1249" 
d="M1135 170l57 -76q-109 -68 -188 -94q-89 -29 -195 -29q-216 0 -355 145t-178 396h-155v84h145q-4 86 -4 100q0 86 8 138h-149v84h162q45 235 181.5 369t344.5 134q114 0 198 -27.5t185 -95.5l-57 -75q-86 63 -159.5 88.5t-166.5 25.5q-159 0 -269.5 -112t-152.5 -307h588
v-84h-602q-8 -52 -8 -138q0 -14 4 -100h606v-84h-596q37 -212 150.5 -334.5t279.5 -122.5q90 0 162 25.5t164 89.5z" />
    <glyph glyph-name="uni20B9" unicode="&#x20b9;" 
d="M1102 1393v-84h-271q65 -45 106 -112.5t48 -147.5h117v-84h-115q-9 -163 -133 -258q-121 -95 -299 -95h-254l688 -612h-143l-676 612v80h365q153 0 247.5 71.5t106.5 201.5h-719v84h719q-17 124 -111 192t-243 68h-365v84h932z" />
    <glyph glyph-name="uni20BA" unicode="&#x20ba;" 
d="M995 598l90 -12l-24 -133q-21 -109 -58 -188.5t-85.5 -130.5t-117 -81t-143 -41.5t-172.5 -11.5h-178v567l-198 -90v82l198 90v269l-198 -91v82l198 90v394h99v-349l385 175v-84l-385 -174v-267l385 174v-84l-385 -174v-524h53q102 1 171.5 11t128.5 35t97.5 70t67 112.5
t49.5 166.5z" />
    <glyph glyph-name="uni20BD" unicode="&#x20bd;" horiz-adv-x="1249" 
d="M692 610h-303v-227h485v-84h-485v-299h-98v299h-207v84h207v227h-207v84h207v699h401q183 0 307.5 -111t124.5 -283q0 -174 -122.5 -281.5t-309.5 -107.5zM389 1305v-611h281q163 0 257.5 81t94.5 226q0 146 -91.5 225t-254.5 79h-287z" />
    <glyph glyph-name="uni2116" unicode="&#x2116;" horiz-adv-x="2000" 
d="M1401 1167q0 132 80 215q83 86 209 86q128 0 209 -85t81 -216q0 -133 -80.5 -216t-209.5 -83q-127 0 -208 84t-81 215zM1118 678v776h105v-1454h-133l-449 719q-88 132 -209 350q-90 168 -149 258q6 -187 6 -547v-780h-105v1454h133l435 -706q59 -90 194 -330
q98 -177 176 -295q-4 508 -4 555zM1499 1167q0 -100 54.5 -159.5t138.5 -59.5q82 0 137 59.5t55 159.5q0 101 -54.5 161.5t-137.5 60.5q-84 0 -138.5 -60t-54.5 -162zM1419 690v82h537v-82h-537z" />
    <glyph glyph-name="uni2117" unicode="&#x2117;" horiz-adv-x="1753" 
d="M123 727q-3 206 96.5 380.5t274.5 275.5t383 98q154 3 294.5 -56t241.5 -160t160 -242t57 -296q2 -155 -57 -296t-160 -242t-241.5 -160t-294.5 -56q-205 -4 -380 96.5t-276 276t-98 381.5zM1542 727q3 185 -84.5 342.5t-242 249t-338.5 88.5q-138 2 -262.5 -51.5
t-213.5 -145.5t-140.5 -218.5t-49.5 -264.5q-2 -138 49.5 -264.5t140.5 -218.5t213.5 -145.5t262.5 -51.5q184 -3 338.5 88.5t242 249t84.5 342.5zM618 303v838h330q123 0 198 -69.5t75 -184.5q0 -114 -74 -179t-199 -65h-233v-340h-97zM715 727h219q90 0 140 44t50 118
q0 75 -50 121.5t-140 46.5h-219v-330z" />
    <glyph glyph-name="trademark" unicode="&#x2122;" horiz-adv-x="1955" 
d="M766 1454v-74h-295v-718h-88v718h-295v74h678zM1776 1454v-792h-80v704l-297 -704h-82l-303 696v-696h-84v792h133l297 -694l285 694h131z" />
    <glyph glyph-name="uni2126" unicode="&#x2126;" horiz-adv-x="1527" 
d="M1096 88h342v-88h-527v90q211 78 314.5 239.5t103.5 393.5q0 192 -70 345t-199 240t-294 87q-166 0 -295.5 -87t-199.5 -240t-70 -345q0 -230 105.5 -392.5t316.5 -240.5v-90h-527v88h340q-164 80 -252 258q-88 177 -88 377q0 164 47 304t133 241t212 158t278 57
q149 2 276 -55.5t214 -159t134.5 -242.5t45.5 -303q0 -195 -90 -377q-89 -180 -250 -258z" />
    <glyph glyph-name="uni2154" unicode="&#x2154;" horiz-adv-x="2004" 
d="M186 631h533v-74h-615v39q2 65 18 112t52.5 86t77 67t113.5 69l36 20q115 62 161 108.5t46 117.5q0 74 -52.5 116.5t-139.5 42.5q-120 0 -252 -129l-55 60q153 147 307 147q123 0 201.5 -67t78.5 -168q0 -69 -28 -117q-28 -45 -67.5 -75.5t-123.5 -76.5l-65 -37
q-68 -40 -97 -58.5t-62 -48t-46.5 -60t-20.5 -74.5zM1485 1419l74 -45l-990 -1401l-67 47zM1898 254q0 -111 -83.5 -192.5t-217.5 -81.5q-74 0 -144.5 23t-166.5 79l45 63q83 -50 143 -69t128 -19q92 0 149 53.5t57 143.5q0 85 -59 134.5t-154 49.5q-61 0 -108 -18l-45 51
l321 291h-448v74h553v-82l-285 -250q6 2 29 2q121 0 203.5 -68.5t82.5 -183.5z" />
    <glyph glyph-name="oneeighth" unicode="&#x215b;" horiz-adv-x="1816" 
d="M352 1393h74v-836h-84v737l-188 -143l-50 53zM1278 1419l74 -45l-990 -1401l-67 47zM1720 225q0 -108 -84 -174.5t-229 -66.5t-229 66.5t-84 174.5q0 78 48 135t136 82q-70 27 -110 78.5t-40 116.5q0 98 76.5 158.5t202.5 60.5q127 0 204 -61t77 -158q0 -65 -41 -116.5
t-111 -78.5q88 -25 136 -82t48 -135zM1407 473q90 0 145.5 45t55.5 115q0 68 -55 110.5t-146 42.5q-90 0 -144.5 -42.5t-54.5 -110.5q0 -69 56 -114.5t143 -45.5zM1636 225q0 83 -60 130.5t-169 47.5q-108 0 -168.5 -48t-60.5 -130q0 -76 61 -122t168 -46t168 46t61 122z
" />
    <glyph glyph-name="threeeighths" unicode="&#x215c;" horiz-adv-x="1970" 
d="M694 811q0 -111 -83.5 -192.5t-217.5 -81.5q-74 0 -144.5 23t-166.5 79l45 63q83 -50 142.5 -69t127.5 -19q92 0 149.5 53.5t57.5 143.5q0 85 -59 134.5t-154 49.5q-61 0 -108 -18l-45 51l321 291h-448v74h553v-82l-285 -250q6 2 29 2q121 0 203.5 -68.5t82.5 -183.5z
M1432 1419l73 -45l-989 -1401l-67 47zM1874 225q0 -108 -84 -174.5t-229 -66.5t-229.5 66.5t-84.5 174.5q0 78 48.5 135t136.5 82q-70 27 -110 78.5t-40 116.5q0 98 76.5 158.5t202.5 60.5q127 0 203.5 -61t76.5 -158q0 -65 -40.5 -116.5t-110.5 -78.5q88 -25 136 -82
t48 -135zM1561 473q90 0 145 45t55 115q0 68 -54.5 110.5t-145.5 42.5q-90 0 -144.5 -42.5t-54.5 -110.5q0 -69 56 -114.5t143 -45.5zM1790 225q0 83 -60 130.5t-169 47.5q-108 0 -169 -48t-61 -130q0 -76 61.5 -122t168.5 -46t168 46t61 122z" />
    <glyph glyph-name="fiveeighths" unicode="&#x215d;" horiz-adv-x="1978" 
d="M717 829q0 -120 -86 -204t-221 -84q-83 0 -158.5 25.5t-163.5 82.5l47 62q90 -56 147.5 -76.5t127.5 -20.5q98 0 157.5 59.5t59.5 151.5q0 87 -57 140t-154 53q-57 0 -111 -20t-92 -56l-76 12l47 439h488v-74h-424l-33 -301q89 74 215 74q117 0 202 -75t85 -188z
M1440 1419l73 -45l-989 -1401l-67 47zM1882 225q0 -108 -84 -174.5t-229 -66.5t-229.5 66.5t-84.5 174.5q0 78 48.5 135t136.5 82q-70 27 -110 78.5t-40 116.5q0 98 76.5 158.5t202.5 60.5q127 0 203.5 -61t76.5 -158q0 -65 -40.5 -116.5t-110.5 -78.5q88 -25 136 -82
t48 -135zM1569 473q90 0 145 45t55 115q0 68 -54.5 110.5t-145.5 42.5q-90 0 -144.5 -42.5t-54.5 -110.5q0 -69 56 -114.5t143 -45.5zM1798 225q0 83 -60 130.5t-169 47.5q-108 0 -169 -48t-61 -130q0 -76 61.5 -122t168.5 -46t168 46t61 122z" />
    <glyph glyph-name="seveneighths" unicode="&#x215e;" horiz-adv-x="1824" 
d="M55 1393h627v-72q-168 -190 -258 -391q-93 -206 -105 -373h-81q22 180 106 383q88 207 248 381h-537v72zM1286 1419l74 -45l-989 -1401l-68 47zM1729 225q0 -108 -84.5 -174.5t-229.5 -66.5t-229 66.5t-84 174.5q0 78 48 135t136 82q-70 26 -109.5 77.5t-39.5 117.5
q0 98 76 158.5t202 60.5q127 0 204 -61t77 -158q0 -65 -41 -116.5t-111 -78.5q88 -25 136.5 -82t48.5 -135zM1415 473q90 0 145.5 45t55.5 115q0 68 -55 110.5t-146 42.5q-90 0 -144 -42.5t-54 -110.5q0 -69 55.5 -114.5t142.5 -45.5zM1645 225q0 83 -60.5 130.5
t-169.5 47.5q-108 0 -168.5 -48t-60.5 -130q0 -76 61 -122t168 -46t168.5 46t61.5 122z" />
    <glyph glyph-name="arrowleft" unicode="&#x2190;" horiz-adv-x="1875" 
d="M1780 741v-84h-1553l598 -589l-67 -68l-699 698l699 695l67 -68l-594 -584h1549z" />
    <glyph glyph-name="arrowup" unicode="&#x2191;" horiz-adv-x="1464" 
d="M1382 918l-61 -64l-543 551v-1405h-88v1407l-545 -553l-63 64l651 651z" />
    <glyph glyph-name="arrowright" unicode="&#x2192;" horiz-adv-x="1878" 
d="M1122 1393l697 -695l-699 -698l-63 63l602 594h-1563v84h1563l-600 590z" />
    <glyph glyph-name="arrowdown" unicode="&#x2193;" horiz-adv-x="1464" 
d="M1321 600l61 -63l-649 -652l-651 652l63 63l545 -553v1407h88v-1405z" />
    <glyph glyph-name="uni2196" unicode="&#x2196;" horiz-adv-x="1460" 
d="M1397 262l-60 -61l-1108 1108v-838h-86v983h983v-82h-839z" />
    <glyph glyph-name="uni2197" unicode="&#x2197;" horiz-adv-x="1460" 
d="M334 1454h983v-983h-86v838l-1108 -1108l-60 61l1111 1110h-840v82z" />
    <glyph glyph-name="uni2198" unicode="&#x2198;" horiz-adv-x="1460" 
d="M1231 983h86v-983h-983v82h840l-1111 1110l60 61l1108 -1108v838z" />
    <glyph glyph-name="uni2199" unicode="&#x2199;" horiz-adv-x="1460" 
d="M1397 1192l-1110 -1110h839v-82h-983v983h86v-838l1108 1108z" />
    <glyph glyph-name="partialdiff" unicode="&#x2202;" horiz-adv-x="1118" 
d="M1030 600q0 -288 -123 -463q-123 -172 -350 -172q-101 0 -189.5 42t-149 112t-95.5 162t-35 190q0 134 56.5 249t160.5 185t232 70q145 0 247.5 -70t153.5 -194q-26 286 -184 451.5t-463 219.5l22 80q357 -57 537 -267t180 -595zM918 469q0 176 -107.5 300t-269.5 124
q-157 0 -254 -122t-97 -302q0 -116 44.5 -211t129 -152t193.5 -57q158 0 259.5 123t101.5 297z" />
    <glyph glyph-name="uni2206" unicode="&#x2206;" horiz-adv-x="1298" 
d="M719 1454l532 -1454h-1204l533 1454h139zM188 88h924l-238 651q-153 410 -225 641q-66 -209 -196 -559q-15 -45 -29 -80z" />
    <glyph glyph-name="product" unicode="&#x220f;" horiz-adv-x="1460" 
d="M1276 1454v-1679h-107v1593h-878v-1593h-107v1679h1092z" />
    <glyph glyph-name="summation" unicode="&#x2211;" 
d="M1092 1454v-86h-865l535 -747l-541 -758h926v-86h-1045v76l541 768l-534 755v78h983z" />
    <glyph glyph-name="minus" unicode="&#x2212;" horiz-adv-x="1228" 
d="M1147 678v-86h-1065v86h1065z" />
    <glyph glyph-name="radical" unicode="&#x221a;" horiz-adv-x="1206" 
d="M1139 1454l-537 -1454h-51l2 -4h-53l2 4h-49l-385 975h108l350 -907l506 1386h107z" />
    <glyph glyph-name="infinity" unicode="&#x221e;" horiz-adv-x="1619" 
d="M1524 594q0 -133 -85 -224t-216 -91q-111 0 -194.5 50t-197.5 175l-24 26q-71 -77 -156 -153q-59 -51 -120 -74.5t-144 -23.5q-125 0 -208 91.5t-83 223.5q0 136 90 226.5t234 90.5q107 0 184 -53t182 -176l19 -23q122 137 212 194.5t183 57.5q146 0 235 -90t89 -227z
M750 594l-23 24l-45 52q-65 72 -88 92q-76 72 -178 72q-110 0 -171 -66.5t-61 -175.5q0 -105 58 -170.5t151 -65.5q85 0 156 50q83 62 201 188zM1436 592q0 109 -61.5 175.5t-174.5 66.5q-78 0 -148.5 -53t-189.5 -187l29 -35q88 -101 164 -152t157 -51q104 0 164 63.5
t60 172.5z" />
    <glyph glyph-name="integral" unicode="&#x222b;" horiz-adv-x="1228" 
d="M358 -397q-73 0 -178 30l27 78q85 -24 158 -24q80 0 113.5 50t33.5 157v1304q0 135 70.5 211t199.5 76q84 0 187 -35l-27 -80q-92 29 -154 29q-97 0 -137.5 -51.5t-40.5 -173.5v-1289q0 -282 -252 -282z" />
    <glyph glyph-name="approxequal" unicode="&#x2248;" 
d="M631 862q118 -55 186 -55q54 0 90 20q39 22 111 91l53 -56q-76 -82 -129 -106q-55 -25 -125 -25q-47 0 -93 13.5t-128 46.5q-138 55 -203 55q-54 0 -98 -23t-105 -84l-51 52q72 77 131 106t136 29q50 0 95 -14t130 -50zM631 453q121 -56 186 -56q53 0 90 21q41 23 111 90
l53 -55q-77 -83 -129 -107t-125 -24q-46 0 -90.5 12.5t-132.5 46.5q-132 55 -201 55q-55 0 -98.5 -22.5t-104.5 -83.5l-51 51q72 77 131 106t136 29q51 0 96.5 -13.5t128.5 -49.5z" />
    <glyph glyph-name="notequal" unicode="&#x2260;" horiz-adv-x="1228" 
d="M1147 797h-432l-119 -324h551v-86h-584l-100 -274h-98l100 274h-383v86h416l118 324h-534v86h567l94 258h99l-94 -258h399v-86z" />
    <glyph glyph-name="lessequal" unicode="&#x2264;" horiz-adv-x="1228" 
d="M1106 1065v-98l-881 -332l881 -332v-98l-983 379v100zM1147 86v-86h-1065v86h1065z" />
    <glyph glyph-name="greaterequal" unicode="&#x2265;" horiz-adv-x="1228" 
d="M123 1065l983 -381v-100l-983 -379v98l878 332l-878 332v98zM1147 86v-86h-1065v86h1065z" />
    <glyph glyph-name="lozenge" unicode="&#x25ca;" horiz-adv-x="1234" 
d="M700 1454l449 -729l-449 -725h-163l-449 725l449 729h163zM616 1407l-417 -682l417 -678l418 678z" />
    <glyph glyph-name="uni2923" unicode="&#x2923;" horiz-adv-x="1257" 
d="M535 1350l61 -64q149 -152 229 -248q189 -224 189 -467q0 -135 -58 -254q-52 -112 -139 -223q-73 -90 -229 -256l-49 -53l-72 70l45 47q149 156 219 239q184 217 184 430q0 121 -53 230q-54 112 -131 203q-81 100 -221 243l-41 41l-139 144v-562h-84v697h696v-80h-541z
" />
    <glyph glyph-name="uni2924" unicode="&#x2924;" horiz-adv-x="1257" 
d="M317 1567h697v-697h-84v562l-139 -144l-41 -41q-139 -141 -224 -243q-182 -219 -182 -433q0 -122 51 -227q50 -103 131 -203q70 -80 222 -239l45 -47l-72 -70l-49 53q-163 173 -230 256q-196 241 -196 477q0 134 53 252q53 121 135 215q74 89 230 248l61 64l133 137h-541
v80z" />
    <glyph glyph-name="uni2925" unicode="&#x2925;" horiz-adv-x="1257" 
d="M930 549h84v-696h-697v79h541l-133 138l-61 63q-140 142 -230 246q-188 226 -188 469q0 133 55 252q60 123 141 223q65 82 230 258l49 53l72 -69l-45 -47q-150 -156 -222 -242q-182 -215 -182 -428q0 -125 51 -230q51 -106 131 -204q79 -94 224 -242l41 -41l139 -143v561
z" />
    <glyph glyph-name="uni2926" unicode="&#x2926;" horiz-adv-x="1257" 
d="M535 70l-134 -138h541v-79h-696v696h84v-561l139 143l41 41q145 148 221 242q184 224 184 434q0 118 -53 227q-55 114 -131 201q-71 88 -219 242l-45 47l72 69l49 -53q159 -169 229 -258q197 -239 197 -475q0 -133 -53 -254q-50 -112 -136 -215q-99 -113 -229 -246z" />
    <glyph glyph-name="uniE000" unicode="&#xe000;" horiz-adv-x="3670" 
d="M645 0h-543v471h27q78 -206 215.5 -325t296.5 -119q124 0 195 77q71 80 71 189q0 111 -78 192q-46 46 -100 71.5t-176 64.5q-121 35 -190 68t-127 91q-119 119 -119 295q0 160 100 269.5t258 109.5h498v-403h-21q-34 58 -48 81t-43.5 62.5t-63.5 73.5q-156 159 -324 159
q-91 0 -162 -51q-71 -53 -71 -172q0 -48 18.5 -98t50.5 -82q46 -46 107.5 -73.5t181.5 -63.5q138 -40 216.5 -77.5t143.5 -102.5q49 -47 76 -119.5t27 -157.5q0 -200 -113 -315t-303 -115zM1030 1454h768q143 2 268.5 -57t212 -161t135.5 -241t48 -293q1 -106 -24 -206
t-79 -191.5t-132.5 -159.5t-193.5 -107.5t-253 -37.5h-748v27h41q116 0 169.5 48.5t53.5 153.5v996q0 104 -54 153t-169 49h-43v27zM2353 27h33q117 0 171 49t54 153v996q0 106 -54 154t-171 48h-35v27h787v-27h-56q-116 0 -168.5 -48t-52.5 -154v-996q0 -113 34 -157.5
t120 -44.5h135q57 3 93 18t81.5 67t93.5 139.5t125 248.5h25v-500h-1215v27zM3387 1454v-27h-41v-110h-30v110h-41v27h112zM3568 1454v-137h-31v100l-39 -100h-23l-36 100v-100h-31v137h47l33 -92l35 92h45zM2195 674q0 195 -35 343t-96 236t-138 131t-167 43h-133
q-47 0 -63.5 -20t-16.5 -74v-1134q0 -84 56.5 -128t162.5 -44q226 0 328 182q102 184 102 465z" />
    <glyph glyph-name="uniE001" unicode="&#xe001;" horiz-adv-x="2070" 
d="M1034 -168q-207 0 -393 88q-248 116 -393.5 348t-145.5 498q0 205 88 391q116 249 347 394t499 145q208 0 394 -88q247 -116 392.5 -348t145.5 -498q0 -205 -88 -391q-116 -248 -347 -393.5t-499 -145.5zM1937 762q0 256 -139 483q-137 224 -381 338q-185 84 -381 84
q-258 0 -485 -139q-221 -135 -336 -381q-84 -185 -84 -381q0 -258 139 -485q135 -219 383 -336q185 -84 381 -84q169 0 328.5 61.5t289 180.5t201.5 278q84 185 84 381zM1079 1475l17 131l92 -13l-4 -30l-47 4l-2 -19l45 -6l-4 -33l-46 7l-6 -48zM881 1481l-2 22l45 6l2 -8
q0 -4 12 -4l10 6l-2 10q0 5 -12 5h-4q-43 0 -56 16l-6 37q5 13 23 23t47 10q30 0 43 -19l4 -22l-47 -7v9q-4 4 -12 4q-11 -4 -11 -6v-9q4 -4 15 -4h4q47 -3 55 -16l4 -37q-9 -33 -67 -33q-28 0 -45 17zM1272 1434l-8 47l-11 4l-12 -41l-45 14l41 127l72 -24q26 -9 32 -33
l-14 -43q-8 -6 -20 -10l8 -29l-8 -25zM823 1442l-35 33l-8 -2l13 -41l-43 -15l-43 125l71 25q4 2 17 2q18 0 28 -10l15 -41q-3 -15 -11 -23l25 -16l8 -25zM1264 1513l14 -6q10 0 12 2l6 17q-3 6 -10 8l-14 6zM770 1501l16 6q3 0 9 6l-7 19q-6 2 -12 0l-14 -6zM643 1358
l-65 117l84 47l16 -29l-43 -25l8 -14l41 23l14 -29l-39 -23l9 -16l45 25l14 -29zM1341 1434l41 71q8 8 25 8q19 0 39 -10q39 -20 39 -53l-41 -72q-8 -8 -25 -8q-18 0 -41 10q-37 21 -37 54zM1409 1409l31 53q0 8 -10 11q-11 4 -13 2l-31 -56q0 -5 9 -8q10 -6 14 -2z
M565 1296l-65 76l-23 -18l-20 24l82 68l20 -25l-22 -18l63 -78zM1454 1343l88 99l43 -39l-16 -45l4 -4l41 22l43 -39l-88 -98l-33 29l45 51l-2 2l-47 -21l-14 15l16 47l-4 4l-45 -51zM1034 111q-143 0 -274 61q-175 82 -277 246q-100 160 -100 348q0 143 61 274
q83 177 244 277q160 100 348 100q144 0 275 -61q173 -82 276 -246q101 -157 101 -348q0 -139 -62 -275q-82 -175 -244 -276q-160 -100 -348 -100zM1661 764q0 181 -98 332q-95 153 -265 233q-132 60 -262 60q-176 0 -336 -97q-155 -96 -231 -264q-59 -130 -59 -262
q0 -176 96 -334q100 -158 266 -233q132 -60 262 -60q177 0 334 97q158 96 234 264q59 133 59 264zM475 1200l-78 66l-18 -25l-25 23l68 82l24 -21l-18 -25l76 -63zM1636 1186l19 10l24 -39l-8 -4q-1 -1 2 -12q3 -8 8 -8l9 4q4 3 0 14l-2 4q-11 26 -11 39q0 6 4 18l31 19
q30 0 51 -37q13 -16 13 -39q0 -11 -7 -22l-18 -11l-25 39l9 4q2 2 -2 13q-3 8 -9 8l-8 -4q0 -11 2 -15l2 -4q11 -37 11 -41q0 -1 -5 -16l-32 -19q-31 0 -52 37q-12 24 -12 39q0 11 6 23zM395 1075l-114 66l47 84l28 -17l-24 -43l14 -8l23 39l28 -14l-22 -41l16 -11l25 46
l26 -17zM1055 1100q0 -14 -11 -43q-24 -47 -59 -47q-33 0 -33 43q0 14 11 43q21 47 57 47q35 0 35 -43zM1694 1038l96 52l25 6l12 -43l-68 -29v-4l76 6l10 -33l-65 -37v-2l73 11l13 -37l-25 -8l-108 -13l-15 54l43 24l-2 2l-49 -2zM356 973l-125 47l17 43l94 -35l12 35
l31 -10zM1346 965q0 -14 -11 -43q-22 -48 -57 -48t-35 44q0 16 10 43q21 47 58 47q35 0 35 -43zM289 883q0 -11 -2 -13q-1 -6 -8 -10t-13 -4l-10 2q-14 8 -14 23l2 10q6 12 20 12q10 0 12 -2q13 -3 13 -18zM1739 862l133 10l6 -94l-31 -4l-4 51l-16 -2l2 -47l-33 -2l-2 47
l-18 -2l2 -49l-31 -4zM1284 541l-31 14q-38 -65 -105.5 -103t-141.5 -38q-68 0 -121 26q-77 36 -121.5 106.5t-44.5 153.5q0 44 16 97l-30 14q-21 -53 -21 -111q0 -93 50.5 -172.5t135.5 -117.5q67 -31 136 -31q86 0 160.5 43.5t117.5 118.5zM330 668l-133 -9l-4 41l45 15
l-2 2l-43 8l-5 41l136 8l2 -31l-72 -4v-4l49 -8l2 -16l-49 -15v-2l72 4zM1747 741l131 -14l-6 -68q-6 -36 -31 -45l-82 9q-20 14 -20 45v6zM1774 692l-2 -14q0 -6 4 -10l59 -6q4 0 4 10l2 14zM348 586l-131 -29l-8 33l106 24l-6 25l25 6zM1729 602l124 -41l-26 -90l-31 8
l14 49l-16 4l-14 -45l-31 11l14 45l-18 4l-14 -47l-31 8zM365 477l-93 -33q-8 0 -18.5 8t-15.5 23q-2 4 -2 19q0 25 10 28l90 33q8 0 19 -8t16 -23l4 -18q0 -19 -10 -29zM336 520l-68 -24q-5 -5 -2 -11q4 -4 6 -4l70 25l2 8q-3 6 -8 6zM1692 485l116 -61l-22 -43h-66l-2 -4
l51 -27l-20 -37l-117 62l23 43h65l2 4l-51 27zM432 389l-119 -65l-16 30l45 25l-8 12l-43 -24l-17 30l117 64l17 -29l-48 -26l7 -15l49 27zM492 305l-107 -80l-20 27l26 20v2l-39 -8l-14 23l16 12l41 4l31 49l18 15l17 -23l-25 -37l6 2l29 21zM553 217l-68 -70
q-22 -8 -45 15q-16 16 -16 41l29 28l22 -22l-16 -19q-2 -2 -0.5 -6t6.5 -4h4l51 51q0 7 -2 9q-5 4 -8 2l-21 -19l-22 23l31 30q21 6 41 -14q16 -19 16 -37zM1640 250q0 -6 -2 -8q-6 -15 -22 -15q-8 0 -10 2q-13 7 -13 23q0 6 2 8q8 14 21 14q8 0 10 -2q14 -6 14 -22z
M1495 221l80 -108l-35 -25l-35 29l-2 -2l17 -41l-33 -25l-80 109l27 18l43 -57l2 2l-19 47l13 8l36 -33l2 2l-41 58zM639 150l-55 -78q-23 -9 -47 8q-21 12 -21 35v6l57 78q3 5 18 4.5t27 -10.5q21 -15 21 -35v-8zM594 170l-43 -59q-2 -2 2 -9q7 -3 10 0l43 60q0 4 -4 8
t-8 0zM1337 123l19 -29l16 8l-10 31l27 14l8 -20l35 -109l-48 -22l-65 92l-10 21zM717 129l-51 -94l18 -10l-12 -23l-66 33l12 24l19 -10l51 96zM823 70l-8 -27l-31 10l4 13q0 6 -6 6q-4 4 -8 0l-4 -15q0 -5 6 -8l2 -2q25 -22 25 -37l-15 -39q-12 -6 -26 -6q-13 0 -17 2
q-24 9 -30 33l8 25l31 -11l-4 -12q0 -6 8 -6q4 0 6 2l4 10q0 4 -6 10h-2q-25 19 -25 37l15 41q13 8 24 8q3 0 19 -4q30 -10 30 -30zM1288 100l39 -129l-47 -14q-20 -9 -37 8l-29 92q0 18 25 27zM1395 39l-15 39l-12 -6l23 -35zM1184 70l22 -133l-61 -11l-4 27l28 4l-6 27
l-26 -4l-4 24l26 6l-4 29l-29 -6l-4 26zM989 55l-18 -133l-35 4l-10 66h-2l-9 -64l-32 4l16 134l37 -5l10 -65l2 -2l8 65zM1264 63l-9 -2q-6 0 -6 -6l23 -69q5 -5 8 -2l8 2zM1049 53v-133h-35v135z" />
    <glyph glyph-name="uniE002" unicode="&#xe002;" 
d="M770 4v-209h-82v205h-186v-205h-80v205h-254v1393h254v204h80v-204h178h8v204h82v-211q140 -24 223.5 -112.5t83.5 -226.5q0 -110 -60 -192t-159 -118q121 -33 191.5 -124t70.5 -222q0 -161 -94 -264.5t-256 -122.5zM266 1305v-529h402q146 0 228.5 72t82.5 201
q0 123 -81.5 189.5t-229.5 66.5h-402zM1022 387q0 137 -94 220t-252 83h-410v-602h412q163 0 253.5 80.5t90.5 218.5z" />
    <glyph glyph-name="Adieresis.ss02" horiz-adv-x="1296" 
d="M1145 0l-162 438h-672l-157 -438h-107l533 1454h137l532 -1454h-104zM344 526h608l-80 215q-165 455 -225 637q-95 -282 -188 -532l-37 -103zM414 1729q0 31 23 54t55 23t54.5 -23t22.5 -54t-22.5 -54.5t-54.5 -23.5t-55 23.5t-23 54.5zM731 1729q0 31 23 54t55 23
t55 -23t23 -54t-23 -54.5t-55 -23.5t-55 23.5t-23 54.5z" />
    <glyph glyph-name="Cdotaccent.ss02" horiz-adv-x="1351" 
d="M1268 1286l-60 -72q-120 97 -223 139t-209 42q-260 0 -416.5 -187t-156.5 -481q0 -292 155 -480t402 -188q129 0 238 57.5t231 180.5l67 -68q-135 -138 -262 -200q-119 -58 -274 -58q-198 -3 -351 96.5t-233 271.5t-78 386q0 220 80.5 391t236 269t363.5 98
q128 0 246.5 -46t243.5 -151zM702 1729q0 31 23 54t55 23t55 -23t23 -54t-23 -54.5t-55 -23.5t-55 23.5t-23 54.5z" />
    <glyph glyph-name="Edieresis.ss02" horiz-adv-x="1212" 
d="M1104 1454v-88h-815v-575h753v-89h-753v-614h829v-88h-934v1454h920zM406 1729q0 31 22.5 54t54.5 23t55 -23t23 -54t-23 -54.5t-55 -23.5t-54.5 23.5t-22.5 54.5zM723 1729q0 31 23 54t55 23t55 -23t23 -54t-23 -54.5t-55 -23.5t-55 23.5t-23 54.5z" />
    <glyph glyph-name="Edotaccent.ss02" horiz-adv-x="1212" 
d="M1104 1454v-88h-815v-575h753v-89h-753v-614h829v-88h-934v1454h920zM561 1729q0 31 23 54t55 23t55 -23t23 -54t-23 -54.5t-55 -23.5t-55 23.5t-23 54.5z" />
    <glyph glyph-name="uni0122.ss02" horiz-adv-x="1495" 
d="M737 635v88h613v-723h-80l-17 258q-65 -140 -193.5 -212.5t-297.5 -72.5q-202 0 -353 96t-231 266.5t-80 391.5q0 216 83 387t239 269t358 98q168 0 306.5 -68t267.5 -209l-70 -67q-128 137 -243 196.5t-267 59.5q-166 0 -296.5 -87.5t-201.5 -240t-71 -342.5
q0 -192 67 -341.5t194.5 -235t297.5 -85.5q211 0 348 132t137 352v90h-510zM860 -295q0 -77 -54 -143t-132 -66v53q43 5 75 39.5t39 89.5q-17 -10 -36 -10q-32 0 -56 24t-24 56q0 36 25.5 60t58.5 24q48 0 76 -32.5t28 -94.5z" />
    <glyph glyph-name="Gdotaccent.ss02" horiz-adv-x="1495" 
d="M737 635v88h613v-723h-80l-17 258q-65 -140 -193.5 -212.5t-297.5 -72.5q-202 0 -353 96t-231 266.5t-80 391.5q0 216 83 387t239 269t358 98q168 0 306.5 -68t267.5 -209l-70 -67q-128 137 -243 196.5t-267 59.5q-166 0 -296.5 -87.5t-201.5 -240t-71 -342.5
q0 -192 67 -341.5t194.5 -235t297.5 -85.5q211 0 348 132t137 352v90h-510zM707 1729q0 31 22.5 54t54.5 23t55 -23t23 -54t-23 -54.5t-55 -23.5t-54.5 23.5t-22.5 54.5z" />
    <glyph glyph-name="Idieresis.ss02" horiz-adv-x="501" 
d="M303 1454v-1454h-104v1454h104zM18 1729q0 31 23 54t55 23t55 -23t23 -54t-23 -54.5t-55 -23.5t-55 23.5t-23 54.5zM336 1729q0 31 23 54t55 23t55 -23t23 -54t-23 -54.5t-55 -23.5t-55 23.5t-23 54.5z" />
    <glyph glyph-name="Idotaccent.ss02" horiz-adv-x="501" 
d="M303 1454v-1454h-104v1454h104zM174 1729q0 31 23 54t55 23t55 -23t23 -54t-23 -54.5t-55 -23.5t-55 23.5t-23 54.5z" />
    <glyph glyph-name="K.ss01" horiz-adv-x="1282" 
d="M1128 0l-553 799l-284 -281v-518h-107v1454h107v-811l846 836l69 -60l-557 -547l602 -872h-123z" />
    <glyph glyph-name="uni0136.ss01" horiz-adv-x="1282" 
d="M1128 0l-553 799l-284 -281v-518h-107v1454h107v-811l846 836l69 -60l-557 -547l602 -872h-123zM778 -172v-141l-92 -195h-63l82 195h-72v141h145z" />
    <glyph glyph-name="uni0136.ss01.ss02" horiz-adv-x="1282" 
d="M1128 0l-553 799l-284 -281v-518h-107v1454h107v-811l846 836l69 -60l-557 -547l602 -872h-123zM805 -295q0 -77 -54.5 -143t-132.5 -66v53q43 5 75.5 39.5t39.5 89.5q-17 -10 -37 -10q-32 0 -56 24t-24 56q0 36 25.5 60t58.5 24q48 0 76.5 -32.5t28.5 -94.5z" />
    <glyph glyph-name="uni0136.ss02" horiz-adv-x="1282" 
d="M1128 0l-553 801l-284 -289v-512h-107v1454h107v-815l799 815h131l-574 -580l604 -874h-123zM782 -295q0 -77 -54 -143t-132 -66v53q43 5 75.5 39.5t39.5 89.5q-17 -10 -37 -10q-32 0 -56 24t-24 56q0 36 25.5 60t58.5 24q48 0 76 -32.5t28 -94.5z" />
    <glyph glyph-name="uni013B.ss02" horiz-adv-x="1071" 
d="M289 1454v-1366h731v-88h-836v1454h105zM719 -295q0 -77 -54.5 -143t-132.5 -66v53q43 5 75.5 39.5t39.5 89.5q-17 -10 -37 -10q-32 0 -56 24t-24 56q0 36 25.5 60t58.5 24q48 0 76.5 -32.5t28.5 -94.5z" />
    <glyph glyph-name="Ldot.ss02" horiz-adv-x="1050" 
d="M289 1454v-1366h731v-88h-836v1454h105zM657 743q0 33 25.5 57.5t60.5 24.5q32 0 57 -25t25 -57q0 -35 -24.5 -60.5t-57.5 -25.5q-35 0 -60.5 25.5t-25.5 60.5z" />
    <glyph glyph-name="uni0145.ss02" horiz-adv-x="1474" 
d="M1190 1454h100v-1454h-125l-471 709l-418 622q9 -246 9 -545v-786h-101v1454h125l451 -676l137 -207q11 -16 122.5 -184.5t176.5 -269.5l-2 196q-4 332 -4 363v778zM834 -295q0 -77 -54.5 -143t-132.5 -66v53q43 5 75.5 39.5t39.5 89.5q-17 -10 -37 -10q-32 0 -56 24
t-24 56q0 36 25.5 60t58.5 24q48 0 76.5 -32.5t28.5 -94.5z" />
    <glyph glyph-name="Odieresis.ss02" horiz-adv-x="1533" 
d="M1436 727q0 -217 -81.5 -388.5t-235 -269.5t-353.5 -98q-148 -2 -274 55t-212.5 158.5t-134.5 241.5t-47 301q-1 161 47 301t134.5 241.5t212.5 158.5t274 55q200 0 353.5 -98t235 -269.5t81.5 -388.5zM203 727q0 -293 157 -480.5t406 -187.5q166 0 295 85.5t199.5 237.5
t70.5 345q0 292 -157.5 480t-407.5 188q-162 3 -292 -85t-201.5 -241.5t-69.5 -341.5zM532 1729q0 31 23 54t55 23t55 -23t23 -54t-23 -54.5t-55 -23.5t-55 23.5t-23 54.5zM850 1729q0 31 23 54t55 23t55 -23t23 -54t-23 -54.5t-55 -23.5t-55 23.5t-23 54.5z" />
    <glyph glyph-name="uni0156.ss02" horiz-adv-x="1320" 
d="M1237 0h-123l-428 625h-397v-625h-105v1454h543q208 0 334 -108q129 -108 129 -308q0 -175 -104 -282.5t-281 -126.5zM287 713h430q173 0 270.5 85.5t97.5 239.5q0 157 -98.5 242.5t-273.5 85.5h-426v-653zM772 -295q0 -77 -54 -143t-132 -66v53q43 5 75 39.5t39 89.5
q-17 -10 -36 -10q-32 0 -56 24t-24 56q0 36 25.5 60t58.5 24q48 0 76 -32.5t28 -94.5z" />
    <glyph glyph-name="uni0218.ss02" horiz-adv-x="1253" 
d="M1126 1284l-59 -74q-115 98 -223.5 141.5t-233.5 43.5q-167 0 -278 -83t-111 -208q0 -88 47 -141q49 -52 135 -82q95 -30 254 -68q274 -64 383 -156t109 -258q0 -127 -66.5 -225.5t-180 -150.5t-253.5 -52q-163 0 -299 54q-140 59 -287 180l62 74q162 -131 281 -177
q119 -43 241 -43q171 0 287 93q113 91 113 247q0 101 -52 162q-48 58 -134 93t-253 73q-278 61 -379.5 135t-107.5 230q0 117 70.5 208.5t180 138t234.5 46.5q148 0 272.5 -48.5t247.5 -152.5zM721 -295q0 -77 -54 -143t-132 -66v53q43 5 75 39.5t39 89.5q-17 -10 -37 -10
q-32 0 -56 24t-24 56q0 36 25.5 60t58.5 24q48 0 76.5 -32.5t28.5 -94.5z" />
    <glyph glyph-name="uni021A.ss02" horiz-adv-x="1206" 
d="M1135 1454v-88h-480v-1366h-104v1366h-479v88h1063zM702 -295q0 -77 -54 -143t-132 -66v53q43 5 75.5 39.5t39.5 89.5q-17 -10 -37 -10q-32 0 -56 24t-24 56q0 36 25.5 60t58.5 24q48 0 76 -32.5t28 -94.5z" />
    <glyph glyph-name="Udieresis.ss02" horiz-adv-x="1378" 
d="M1204 1454v-1014q0 -223 -127.5 -345t-388.5 -122q-259 0 -386.5 122t-127.5 345v1014h105v-1003q0 -193 104.5 -291.5t304.5 -98.5q203 0 307.5 98t104.5 292v1003h104zM457 1729q0 31 23 54t55 23t54.5 -23t22.5 -54t-22.5 -54.5t-54.5 -23.5t-55 23.5t-23 54.5z
M774 1729q0 31 23 54t55 23t55 -23t23 -54t-23 -54.5t-55 -23.5t-55 23.5t-23 54.5z" />
    <glyph glyph-name="Wdieresis.ss02" horiz-adv-x="1863" 
d="M1686 1454h104l-350 -1454h-146l-211 762q-87 324 -147 567q-60 -253 -148 -569l-210 -760h-156l-348 1454h106l182 -766q111 -475 142 -614q18 82 137 520q7 17 27 94l211 766h116l209 -766q93 -335 160 -606q46 221 139 606zM700 1729q0 31 23 54t55 23t55 -23t23 -54
t-23 -54.5t-55 -23.5t-55 23.5t-23 54.5zM1018 1729q0 31 23 54t55 23t55 -23t23 -54t-23 -54.5t-55 -23.5t-55 23.5t-23 54.5z" />
    <glyph glyph-name="Ydieresis.ss02" horiz-adv-x="1218" 
d="M1059 1454h117l-517 -825v-629h-104v631l-512 823h119l448 -731zM375 1729q0 31 23 54t55 23t54.5 -23t22.5 -54t-22.5 -54.5t-54.5 -23.5t-55 23.5t-23 54.5zM692 1729q0 31 23 54t55 23t55 -23t23 -54t-23 -54.5t-55 -23.5t-55 23.5t-23 54.5z" />
    <glyph glyph-name="Zdotaccent.ss02" horiz-adv-x="1243" 
d="M1163 1454v-78l-958 -1288h954v-88h-1079v78l954 1288h-907v88h1036zM573 1729q0 31 23 54t55 23t55 -23t23 -54t-23 -54.5t-55 -23.5t-55 23.5t-23 54.5z" />
    <glyph glyph-name="adieresis.ss02" horiz-adv-x="1036" 
d="M887 694v-694h-92v137q-48 -82 -139.5 -124t-206.5 -42q-156 0 -251.5 70.5t-95.5 198.5q3 54 17 96t44 73.5t64.5 53.5t91.5 41t111 32t137 29l224 43v74q0 114 -72 175t-197 61q-93 0 -169.5 -38.5t-166.5 -136.5l-65 60q167 196 397 196q170 0 269.5 -84t99.5 -221z
M791 334v192l-205 -41q-120 -24 -211 -49q-174 -54 -174 -190q0 -90 68 -141.5t184 -51.5q147 0 242.5 80.5t95.5 200.5zM301 1300q0 31 23 54.5t55 23.5t55 -23.5t23 -54.5t-23 -54t-55 -23t-55 23t-23 54zM618 1300q0 31 23 54.5t55 23.5t55 -23.5t23 -54.5t-23 -54
t-55 -23t-55 23t-23 54z" />
    <glyph glyph-name="cdotaccent.ss02" horiz-adv-x="972" 
d="M528 918q-108 0 -186.5 -63.5t-115 -160t-36.5 -209.5t37.5 -208t118 -157.5t191.5 -62.5q88 0 153 35q69 35 160 137l63 -53q-87 -109 -173 -155t-199 -46q-208 0 -330.5 140.5t-122.5 369.5q0 227 123 370.5t321 143.5q120 0 206 -43.5t169 -142.5l-67 -59
q-78 89 -151 126.5t-161 37.5zM471 1300q0 31 23 54.5t55 23.5t55 -23.5t23 -54.5t-23 -54t-55 -23t-55 23t-23 54z" />
    <glyph glyph-name="edieresis.ss02" horiz-adv-x="1046" 
d="M893 246l65 -58q-104 -118 -196 -165.5t-217 -47.5q-209 0 -333 139t-124 365q0 231 123 375.5t321 144.5q195 0 308.5 -123t113.5 -333q0 -19 -4 -51h-760q3 -184 93 -312q89 -123 270 -123q91 0 167 42.5t173 146.5zM195 569h663q-5 157 -92.5 253t-233.5 96
q-137 0 -227.5 -92t-109.5 -257zM315 1300q0 31 23 54.5t55 23.5t55 -23.5t23 -54.5t-23 -54t-55 -23t-55 23t-23 54zM633 1300q0 31 23 54.5t55 23.5t54.5 -23.5t22.5 -54.5t-22.5 -54t-54.5 -23t-55 23t-23 54z" />
    <glyph glyph-name="edotaccent.ss02" horiz-adv-x="1046" 
d="M893 246l65 -58q-104 -118 -196 -165.5t-217 -47.5q-209 0 -333 139t-124 365q0 231 123 375.5t321 144.5q195 0 308.5 -123t113.5 -333q0 -19 -4 -51h-760q3 -184 93 -312q89 -123 270 -123q91 0 167 42.5t173 146.5zM195 569h663q-5 157 -92.5 253t-233.5 96
q-137 0 -227.5 -92t-109.5 -257zM471 1300q0 31 23 54.5t55 23.5t55 -23.5t23 -54.5t-23 -54t-55 -23t-55 23t-23 54z" />
    <glyph glyph-name="uni0123.ss02" horiz-adv-x="1107" 
d="M858 975h94v-975q0 -182 -107 -285.5t-302 -103.5q-224 0 -422 143l53 74q113 -71 193.5 -102t177.5 -31q141 0 225 76t84 221v209q-51 -99 -139.5 -151t-206.5 -52q-184 0 -300 140t-116 362q0 220 119.5 358.5t306.5 138.5q239 0 340 -198v176zM856 500q0 193 -93 304
t-247 111q-145 0 -233 -116q-88 -113 -88 -299q0 -185 86 -303q89 -117 229 -117q156 0 251 113t95 307zM645 1309q0 -36 -24 -60t-60 -24q-46 0 -75 33t-29 94q0 77 55 144t131 67v-54q-41 -6 -74 -41.5t-39 -89.5q18 11 37 11q32 0 55 -24.5t23 -55.5z" />
    <glyph glyph-name="gdotaccent.ss02" horiz-adv-x="1107" 
d="M858 975h94v-975q0 -182 -107 -285.5t-302 -103.5q-224 0 -422 143l53 74q113 -71 193.5 -102t177.5 -31q141 0 225 76t84 221v209q-51 -99 -139.5 -151t-206.5 -52q-184 0 -300 140t-116 362q0 220 119.5 358.5t306.5 138.5q239 0 340 -198v176zM856 500q0 193 -93 304
t-247 111q-145 0 -233 -116q-88 -113 -88 -299q0 -185 86 -303q89 -117 229 -117q156 0 251 113t95 307zM477 1300q0 31 23 54.5t55 23.5t55 -23.5t23 -54.5t-23 -54t-55 -23t-55 23t-23 54z" />
    <glyph glyph-name="i.ss02" horiz-adv-x="409" 
d="M254 975v-975h-98v975h98zM129 1300q0 31 23 54.5t55 23.5t55 -23.5t23 -54.5t-23 -54t-55 -23t-55 23t-23 54z" />
    <glyph glyph-name="idieresis.ss02" horiz-adv-x="409" 
d="M254 975v-975h-98v975h98zM-27 1300q0 31 23 54.5t55 23.5t55 -23.5t23 -54.5t-23 -54t-55 -23t-55 23t-23 54zM291 1300q0 31 23 54.5t55 23.5t54.5 -23.5t22.5 -54.5t-22.5 -54t-54.5 -23t-55 23t-23 54z" />
    <glyph glyph-name="i.loclTRK" horiz-adv-x="409" 
d="M254 975v-975h-98v975h98zM254 1386v-176h-98v176h98z" />
    <glyph glyph-name="i.loclTRK.ss02" horiz-adv-x="409" 
d="M254 975v-975h-98v975h98zM129 1300q0 31 23 54.5t55 23.5t55 -23.5t23 -54.5t-23 -54t-55 -23t-55 23t-23 54z" />
    <glyph glyph-name="ij.ss02" horiz-adv-x="825" 
d="M254 975v-975h-98v975h98zM129 1300q0 31 23 54.5t55 23.5t55 -23.5t23 -54.5t-23 -54t-55 -23t-55 23t-23 54zM424 -311q80 0 113.5 50.5t33.5 156.5v1079h99v-1086q0 -282 -252 -282q-78 0 -176 31l26 75q99 -24 156 -24zM543 1300q0 31 23 54.5t55 23.5t54.5 -23.5
t22.5 -54.5t-22.5 -54t-54.5 -23t-55 23t-23 54z" />
    <glyph glyph-name="iogonek.ss02" horiz-adv-x="409" 
d="M285 1300q0 -31 -23 -54t-55 -23t-55 23t-23 54t23 54.5t55 23.5t55 -23.5t23 -54.5zM207 -334q28 0 49 6v-75q-26 -11 -59 -11q-76 0 -126.5 42t-50.5 120q0 127 146 252h-10v975h98v-975h-2q-154 -116 -154 -238q0 -46 29 -71t80 -25z" />
    <glyph glyph-name="j.calt" horiz-adv-x="411" 
d="M160 1210v176h98v-176h-98zM-12 -389l10 80q10 -2 59 -2q62 0 82.5 31.5t20.5 105.5v1149h98v-1157q0 -109 -43.5 -160t-146.5 -51q-30 0 -80 4z" />
    <glyph glyph-name="j.calt.ss02" horiz-adv-x="415" 
d="M129 1300q0 35 22.5 57.5t57.5 22.5t57.5 -22.5t22.5 -57.5q0 -33 -22.5 -56t-57.5 -23t-57.5 23t-22.5 56zM-12 -389l10 80q10 -2 59 -2q62 0 82.5 31.5t20.5 105.5v1149h98v-1157q0 -109 -43.5 -160t-146.5 -51q-30 0 -80 4z" />
    <glyph glyph-name="j.ss02" horiz-adv-x="415" 
d="M14 -311q80 0 114 50.5t34 156.5v1079h98v-1086q0 -282 -252 -282q-78 0 -176 31l27 75q99 -24 155 -24zM133 1300q0 31 23 54.5t55 23.5t55 -23.5t23 -54.5t-23 -54t-55 -23t-55 23t-23 54z" />
    <glyph glyph-name="k.ss01" horiz-adv-x="968" 
d="M831 0l-354 508l-223 -221v-287h-98v1454h98v-1046l584 579l67 -57l-362 -357l403 -573h-115z" />
    <glyph glyph-name="uni0137.ss01" horiz-adv-x="968" 
d="M831 0l-354 508l-223 -221v-287h-98v1454h98v-1046l584 579l67 -57l-362 -357l403 -573h-115zM604 -172v-141l-92 -195h-63l81 195h-71v141h145z" />
    <glyph glyph-name="uni0137.ss01.ss02" horiz-adv-x="968" 
d="M831 0l-354 508l-223 -221v-287h-98v1454h98v-1046l584 579l67 -57l-362 -357l403 -573h-115zM631 -295q0 -77 -54.5 -143t-132.5 -66v53q43 5 75.5 39.5t39.5 89.5q-17 -10 -37 -10q-32 0 -56 24t-24 56q0 36 25.5 60t58.5 24q48 0 76.5 -32.5t28.5 -94.5z" />
    <glyph glyph-name="uni0137.ss02" horiz-adv-x="968" 
d="M831 0l-368 528l-209 -213v-315h-98v1454h98v-1024l530 545h123l-377 -385l416 -590h-115zM618 -295q0 -77 -54 -143t-132 -66v53q43 5 75.5 39.5t39.5 89.5q-17 -10 -37 -10q-32 0 -56 24t-24 56q0 36 25.5 60t58.5 24q48 0 76 -32.5t28 -94.5z" />
    <glyph glyph-name="uni013C.ss02" horiz-adv-x="421" 
d="M260 1454v-1454h-98v1454h98zM315 -295q0 -77 -54 -143t-132 -66v53q43 5 75.5 39.5t39.5 89.5q-17 -10 -37 -10q-32 0 -56 24t-24 56q0 36 25.5 60t58.5 24q48 0 76 -32.5t28 -94.5z" />
    <glyph glyph-name="ldot.ss02" horiz-adv-x="706" 
d="M260 1454v-1454h-98v1454h98zM471 600q0 33 25.5 57.5t60.5 24.5q32 0 57 -25t25 -57q0 -35 -24.5 -60.5t-57.5 -25.5q-35 0 -60.5 25.5t-25.5 60.5z" />
    <glyph glyph-name="uni0146.ss02" horiz-adv-x="1067" 
d="M918 668v-668h-99v631q0 140 -68 213.5t-196 73.5q-122 0 -211.5 -89t-89.5 -208v-621h-98v975h92v-158q44 87 127.5 134.5t193.5 47.5q168 0 258.5 -95.5t90.5 -235.5zM633 -295q0 -77 -54.5 -143t-132.5 -66v53q43 5 75.5 39.5t39.5 89.5q-17 -10 -37 -10q-32 0 -56 24
t-24 56q0 36 25.5 60t58.5 24q48 0 76.5 -32.5t28.5 -94.5z" />
    <glyph glyph-name="odieresis.ss02" horiz-adv-x="1095" 
d="M1008 485q0 -225 -129 -367.5t-332 -142.5q-204 0 -331.5 142t-127.5 368t128 370t331 144q202 0 331.5 -144t129.5 -370zM190 485q0 -186 97 -309q98 -119 260 -119q166 0 260 119q98 119 98 309q0 193 -98 312q-95 121 -260 121q-160 0 -260 -121q-97 -123 -97 -312z
M309 1300q0 31 23 54.5t55 23.5t55 -23.5t23 -54.5t-23 -54t-55 -23t-55 23t-23 54zM627 1300q0 31 23 54.5t55 23.5t54.5 -23.5t22.5 -54.5t-22.5 -54t-54.5 -23t-55 23t-23 54z" />
    <glyph glyph-name="uni0157.ss02" horiz-adv-x="679" 
d="M649 954l-22 -80q-77 25 -133 25q-101 0 -170.5 -91.5t-69.5 -248.5v-559h-98v975h92v-166q32 79 99 126.5t147 47.5q66 0 155 -29zM307 -295q0 -77 -54 -143t-132 -66v53q43 5 75.5 39.5t39.5 89.5q-17 -10 -37 -10q-32 0 -56 24t-24 56q0 36 25.5 60t58.5 24
q48 0 76 -32.5t28 -94.5z" />
    <glyph glyph-name="uni0219.ss02" horiz-adv-x="927" 
d="M823 870l-55 -71q-92 66 -161.5 91t-157.5 25q-115 0 -184.5 -51t-69.5 -133q0 -50 32 -82q31 -29 85.5 -48.5t174.5 -47.5q195 -45 277 -108.5t82 -178.5q0 -130 -102 -210.5t-263 -80.5q-124 0 -215 39q-91 40 -209 140l62 65q105 -91 186 -126.5t180 -35.5
q114 0 188.5 58t74.5 151q-2 28 -10 50t-18.5 38.5t-32 31t-41 24.5t-55 21.5t-65 19.5t-80.5 20q-102 24 -162 44t-105 49.5t-63 68t-18 94.5q0 124 101 197q100 75 250 75q107 0 190.5 -29.5t183.5 -99.5zM543 -295q0 -77 -54.5 -143t-132.5 -66v53q43 5 75.5 39.5
t39.5 89.5q-17 -10 -37 -10q-32 0 -56 24t-24 56q0 36 25.5 60t58.5 24q48 0 76.5 -32.5t28.5 -94.5z" />
    <glyph glyph-name="uni021B.ss02" horiz-adv-x="673" 
d="M614 96l23 -76q-84 -34 -180 -34q-120 0 -174 54.5t-54 160.5v698h-188v76h188v352h99v-352h290v-76h-290v-686q0 -75 33 -109t102 -34q74 0 151 26zM526 -295q0 -77 -54 -143t-132 -66v53q43 5 75.5 39.5t39.5 89.5q-17 -10 -37 -10q-32 0 -56 24t-24 56q0 36 25.5 60
t58.5 24q48 0 76 -32.5t28 -94.5z" />
    <glyph glyph-name="udieresis.ss02" horiz-adv-x="1050" 
d="M797 975h98v-975h-94v143q-41 -82 -123 -125t-178 -43q-174 0 -262 88.5t-88 237.5v674h98v-656q0 -126 66.5 -193t185.5 -67q131 0 214 84t83 232v600zM272 1300q0 31 23 54.5t55 23.5t55 -23.5t23 -54.5t-23 -54t-55 -23t-55 23t-23 54zM590 1300q0 31 23 54.5t55 23.5
t54.5 -23.5t22.5 -54.5t-22.5 -54t-54.5 -23t-55 23t-23 54z" />
    <glyph glyph-name="wdieresis.ss02" horiz-adv-x="1404" 
d="M1249 975h103l-279 -975h-125l-104 354q-114 390 -144 510q-73 -274 -143 -514l-102 -350h-121l-279 975h103l112 -404q9 -34 127 -489q41 159 138 489l116 404h101l120 -404q95 -316 138 -491q65 263 127 491zM465 1300q0 31 23 54.5t55 23.5t55 -23.5t23 -54.5t-23 -54
t-55 -23t-55 23t-23 54zM782 1300q0 31 23 54.5t55 23.5t55 -23.5t23 -54.5t-23 -54t-55 -23t-55 23t-23 54z" />
    <glyph glyph-name="ydieresis.ss02" horiz-adv-x="925" 
d="M776 975h103l-404 -1133q-48 -133 -96 -182t-154 -53q-68 0 -123 14l19 82q59 -12 104 -12q60 0 94 37.5t72 146.5l23 68l-365 1032h105l131 -387l178 -518l131 374q3 9 51 150zM223 1300q0 31 23 54.5t55 23.5t55 -23.5t23 -54.5t-23 -54t-55 -23t-55 23t-23 54z
M541 1300q0 31 22.5 54.5t54.5 23.5t55 -23.5t23 -54.5t-23 -54t-55 -23t-54.5 23t-22.5 54z" />
    <glyph glyph-name="zdotaccent.ss02" horiz-adv-x="942" 
d="M848 975v-70l-643 -823h643v-82h-762v72l645 821h-604v82h721zM406 1300q0 31 22.5 54.5t54.5 23.5t55 -23.5t23 -54.5t-23 -54t-55 -23t-54.5 23t-22.5 54z" />
    <glyph glyph-name="f_f_i.liga.ss02" horiz-adv-x="1646" 
d="M330 1167v-192h221v-76h-221v-899h-99v899h-190v76h190v217q0 135 71 211t200 76q90 0 186 -35l-26 -80q-95 31 -154 31q-97 0 -137.5 -52.5t-40.5 -175.5zM1110 1479q64 0 141 -25l-18 -76q-83 17 -121 17q-94 0 -136 -52.5t-42 -173.5v-194h270v-76h-270v-899h-98v899
h-174v76h174v217q0 135 71 211t203 76zM1522 1300q0 -31 -23 -54t-55 -23t-55 23t-23 54t23 54.5t55 23.5t55 -23.5t23 -54.5zM1395 0v975h98v-975h-98z" />
    <glyph glyph-name="f_f_j.liga.ss02" horiz-adv-x="1648" 
d="M330 1167v-192h221v-76h-221v-899h-99v899h-190v76h190v217q0 135 71 211t200 76q90 0 186 -35l-26 -80q-95 31 -154 31q-97 0 -137.5 -52.5t-40.5 -175.5zM1204 899h-270v-899h-98v899h-174v76h174v217q0 135 71 211t203 76q64 0 141 -25l-18 -76q-83 17 -121 17
q-94 0 -136 -52.5t-42 -173.5v-194h270v-76zM1522 1300q0 -31 -23 -54t-55 -23t-55 23t-23 54t23 54.5t55 23.5t55 -23.5t23 -54.5zM1395 -104v1079h98v-1086q0 -282 -252 -282q-83 0 -178 31l27 75q99 -24 157 -24q82 0 115 49.5t33 157.5z" />
    <glyph glyph-name="f_j.liga.ss02" horiz-adv-x="1040" 
d="M600 899h-270v-899h-99v899h-190v76h190v217q0 135 71.5 211t203.5 76q64 0 141 -25l-18 -76q-83 17 -121 17q-94 0 -136 -52.5t-42 -173.5v-194h270v-76zM913 1300q0 -31 -22.5 -54t-54.5 -23t-55 23t-23 54t23 54.5t55 23.5t54.5 -23.5t22.5 -54.5zM786 -104v1079h99
v-1086q0 -282 -252 -282q-83 0 -178 31l26 75q99 -24 158 -24q82 0 114.5 49.5t32.5 157.5z" />
    <glyph glyph-name="fi.ss02" horiz-adv-x="1040" 
d="M506 1479q64 0 141 -25l-18 -76q-83 17 -121 17q-94 0 -136 -52.5t-42 -173.5v-194h270v-76h-270v-899h-99v899h-190v76h190v217q0 135 71.5 211t203.5 76zM915 1300q0 -31 -22.5 -54t-54.5 -23t-55 23t-23 54t23 54.5t55 23.5t54.5 -23.5t22.5 -54.5zM788 0v975h99v-975
h-99z" />
    <glyph glyph-name="uni0401.ss02" horiz-adv-x="1212" 
d="M1104 1454v-88h-815v-575h753v-89h-753v-614h829v-88h-934v1454h920zM406 1729q0 31 22.5 54t54.5 23t55 -23t23 -54t-23 -54.5t-55 -23.5t-54.5 23.5t-22.5 54.5zM723 1729q0 31 23 54t55 23t55 -23t23 -54t-23 -54.5t-55 -23.5t-55 23.5t-23 54.5z" />
    <glyph glyph-name="uni0407.ss02" horiz-adv-x="501" 
d="M303 1454v-1454h-104v1454h104zM18 1729q0 31 23 54t55 23t55 -23t23 -54t-23 -54.5t-55 -23.5t-55 23.5t-23 54.5zM336 1729q0 31 23 54t55 23t55 -23t23 -54t-23 -54.5t-55 -23.5t-55 23.5t-23 54.5z" />
    <glyph glyph-name="uni0451.ss02" horiz-adv-x="1046" 
d="M893 246l65 -58q-104 -118 -196 -165.5t-217 -47.5q-209 0 -333 139t-124 365q0 231 123 375.5t321 144.5q195 0 308.5 -123t113.5 -333q0 -19 -4 -51h-760q3 -184 93 -312q89 -123 270 -123q91 0 167 42.5t173 146.5zM195 569h663q-5 157 -92.5 253t-233.5 96
q-137 0 -227.5 -92t-109.5 -257zM315 1300q0 31 23 54.5t55 23.5t55 -23.5t23 -54.5t-23 -54t-55 -23t-55 23t-23 54zM633 1300q0 31 23 54.5t55 23.5t54.5 -23.5t22.5 -54.5t-22.5 -54t-54.5 -23t-55 23t-23 54z" />
    <glyph glyph-name="uni0456.ss02" horiz-adv-x="409" 
d="M254 975v-975h-98v975h98zM129 1300q0 31 23 54.5t55 23.5t55 -23.5t23 -54.5t-23 -54t-55 -23t-55 23t-23 54z" />
    <glyph glyph-name="uni0457.ss02" horiz-adv-x="409" 
d="M254 975v-975h-98v975h98zM-27 1300q0 31 23 54.5t55 23.5t55 -23.5t23 -54.5t-23 -54t-55 -23t-55 23t-23 54zM291 1300q0 31 23 54.5t55 23.5t54.5 -23.5t22.5 -54.5t-22.5 -54t-54.5 -23t-55 23t-23 54z" />
    <glyph glyph-name="uni0458.ss02" horiz-adv-x="415" 
d="M14 -311q80 0 114 50.5t34 156.5v1079h98v-1086q0 -282 -252 -282q-78 0 -176 31l27 75q99 -24 155 -24zM133 1300q0 31 23 54.5t55 23.5t55 -23.5t23 -54.5t-23 -54t-55 -23t-55 23t-23 54z" />
    <glyph glyph-name="Iotadieresis.ss02" horiz-adv-x="501" 
d="M303 1454v-1454h-104v1454h104zM18 1729q0 31 23 54t55 23t55 -23t23 -54t-23 -54.5t-55 -23.5t-55 23.5t-23 54.5zM336 1729q0 31 23 54t55 23t55 -23t23 -54t-23 -54.5t-55 -23.5t-55 23.5t-23 54.5z" />
    <glyph glyph-name="Upsilondieresis.ss02" horiz-adv-x="1218" 
d="M1059 1454h117l-517 -825v-629h-104v631l-512 823h119l448 -731zM375 1729q0 31 23 54t55 23t54.5 -23t22.5 -54t-22.5 -54.5t-54.5 -23.5t-55 23.5t-23 54.5zM692 1729q0 31 23 54t55 23t55 -23t23 -54t-23 -54.5t-55 -23.5t-55 23.5t-23 54.5z" />
    <glyph glyph-name="iotadieresis.ss02" horiz-adv-x="411" 
d="M256 0h-100v975h100v-975zM-27 1300q0 31 23 54.5t55 23.5t55 -23.5t23 -54.5t-23 -54t-55 -23t-55 23t-23 54zM291 1300q0 31 23 54.5t55 23.5t54.5 -23.5t22.5 -54.5t-22.5 -54t-54.5 -23t-55 23t-23 54z" />
    <glyph glyph-name="iotadieresistonos.ss02" horiz-adv-x="411" 
d="M256 0h-100v975h100v-975zM152 1210l63 234h119l-92 -234h-90zM-37 1282q0 32 24.5 54t57.5 22t57.5 -22t24.5 -54t-24.5 -54t-57.5 -22t-57.5 22t-24.5 54zM317 1282q0 32 24.5 54t57.5 22t57.5 -22t24.5 -54t-24.5 -54t-57.5 -22t-57.5 22t-24.5 54z" />
    <glyph glyph-name="upsilondieresistonos.ss02" horiz-adv-x="1050" 
d="M152 377v598h100v-598q0 -156 64.5 -238t207.5 -82q275 0 275 320v598h100v-598q0 -193 -93 -297.5t-280 -104.5t-280.5 104.5t-93.5 297.5zM471 1210l64 234h118l-92 -234h-90zM283 1282q0 32 24.5 54t57.5 22t57 -22t24 -54t-24 -54t-57 -22t-57.5 22t-24.5 54z
M637 1282q0 32 24.5 54t57.5 22t57.5 -22t24.5 -54t-24.5 -54t-57.5 -22t-57.5 22t-24.5 54z" />
    <glyph glyph-name="zero.case" horiz-adv-x="1228" 
d="M1028 1227q100 -190 100 -500q0 -308 -100 -498q-62 -123 -168.5 -190.5t-245.5 -67.5t-245 67.5t-168 190.5q-101 192 -101 498q0 308 101 500q64 123 169 189.5t244 66.5q140 0 246 -66.5t168 -189.5zM287 1176q-84 -170 -84 -449q0 -273 84 -446q111 -226 327 -226
q109 0 193 58t135 168q84 179 84 446q0 270 -84 449q-107 223 -328 223q-214 0 -327 -223z" />
    <glyph glyph-name="zero.pcnt" horiz-adv-x="854" 
d="M723 1102q0 -138 -84.5 -224.5t-210.5 -86.5q-125 0 -211 87t-86 224q0 133 86 220t211 87q126 0 210.5 -86.5t84.5 -220.5zM223 1102q0 -101 56.5 -167.5t146.5 -66.5q92 0 148.5 65.5t56.5 168.5q0 100 -57 166.5t-148 66.5q-90 0 -146.5 -66.5t-56.5 -166.5z" />
    <glyph glyph-name="zero.tf" 
d="M1010 1176q98 -186 98 -480q0 -293 -98 -479q-62 -118 -166.5 -182t-239.5 -64t-239 64t-166 182q-99 187 -99 479t99 480q62 118 166 181.5t239 63.5t239.5 -63.5t166.5 -181.5zM285 1124q-82 -155 -82 -428t82 -428q109 -213 319 -213q214 0 320 213q82 165 82 428
t-82 428q-106 213 -320 213q-210 0 -319 -213z" />
    <glyph glyph-name="zero.zero" 
d="M1108 696q0 -293 -98 -479q-61 -117 -166 -181.5t-240 -64.5t-239.5 64.5t-165.5 181.5q-99 187 -99 479t99 480q61 117 165.5 181t239.5 64t240 -64t166 -181q98 -186 98 -480zM203 696q0 -265 82 -428l8 -16l565 973q-100 112 -254 112q-210 0 -319 -213
q-82 -163 -82 -428zM1006 696q0 263 -82 428l-13 25l-567 -973q103 -121 260 -121q217 0 320 213q82 165 82 428z" />
    <glyph glyph-name="one.case" horiz-adv-x="958" 
d="M541 1454h71v-1454h-98v1323l-364 -262l-50 69z" />
    <glyph glyph-name="one.tf" 
d="M719 80h356v-80h-833v80h379v1180l-365 -263l-53 66l446 330h70v-1313z" />
    <glyph glyph-name="two.case" horiz-adv-x="1150" 
d="M193 84h874v-84h-973v33q0 151 49 252q51 100 136 172q90 74 241 170l105 61q103 60 174 111q153 110 153 286q0 154 -100 232q-103 80 -240 80q-95 0 -168 -31q-68 -28 -127.5 -80t-156.5 -164l-70 56q123 156 241 229.5t277 73.5q192 0 319.5 -108.5t127.5 -280.5
q0 -122 -51 -205q-48 -81 -119.5 -137.5t-212.5 -137.5q-27 -15 -105 -63q-141 -86 -207 -141q-156 -126 -167 -324z" />
    <glyph glyph-name="two.tf" 
d="M223 84h854v-84h-950v33q0 145 49 243q54 101 133 166q71 58 236 162l102 60q118 67 170 104q148 104 148 272q0 141 -97 220q-95 77 -229 77q-99 -3 -168.5 -29.5t-128 -78t-145.5 -154.5l-72 53q113 148 233.5 220.5t276.5 72.5q186 0 309 -105t123 -269
q0 -113 -49 -195q-44 -75 -111 -128t-200 -128q-58 -33 -111 -66q-129 -80 -205 -139q-157 -119 -168 -307z" />
    <glyph glyph-name="three.case" horiz-adv-x="1189" 
d="M1067 434q0 -87 -32.5 -169t-91.5 -148t-151.5 -106t-203.5 -40q-134 0 -257.5 42t-254.5 130l53 78q136 -90 242 -129q101 -37 215 -37q167 0 273 108.5t106 268.5q0 161 -105.5 252.5t-300.5 91.5q-104 0 -166 -26l-53 63l569 557h-766v84h891v-86l-534 -514q35 6 73 6
q218 0 356 -113.5t138 -312.5z" />
    <glyph glyph-name="three.tf" 
d="M1049 414q0 -82 -31.5 -160t-88.5 -141.5t-147 -102.5t-198 -39q-131 0 -251 40.5t-247 123.5l55 76q136 -87 232.5 -121.5t206.5 -34.5q159 0 262.5 104.5t103.5 254.5q0 151 -100 239t-277 88q-109 0 -176 -30l-53 67l553 531h-741v84h864v-82l-516 -494q41 8 86 8
q130 0 234 -47.5t166.5 -142.5t62.5 -221z" />
    <glyph glyph-name="four.case" horiz-adv-x="1200" 
d="M926 446h229v-84h-229v-362h-99v362h-761v80l636 1012h111l-637 -1008h651v367h99v-367z" />
    <glyph glyph-name="four.tf" 
d="M936 430h221v-84h-221v-346h-98v346h-740v80l617 967h110l-614 -963h627v348h98v-348z" />
    <glyph glyph-name="five.case" horiz-adv-x="1234" 
d="M1112 463q2 -86 -34 -174t-99.5 -159.5t-159 -115.5t-203.5 -41q-141 0 -256 41t-258 142l54 77q142 -100 239 -139q93 -37 217 -37q118 0 210.5 58t140 151t47.5 201q0 178 -100.5 279.5t-278.5 101.5q-210 0 -352 -148l-80 13l63 741h787v-84h-705l-47 -557
q140 119 336 119q218 0 348.5 -126.5t130.5 -342.5z" />
    <glyph glyph-name="five.tf" 
d="M1085 442q2 -85 -32.5 -169.5t-95.5 -152.5t-155 -109.5t-202 -39.5q-142 0 -246 39q-116 44 -252 137l54 78q133 -95 233 -135q96 -35 209 -35q116 0 205 55t134.5 143t45.5 193q0 165 -97 265t-270 100q-190 0 -342 -143l-77 12l61 713h764v-84h-682l-43 -529
q124 115 319 115q212 0 340.5 -123.5t128.5 -329.5z" />
    <glyph glyph-name="six.case" horiz-adv-x="1228" 
d="M1133 457q0 -130 -60 -240.5t-175.5 -179t-264.5 -68.5q-159 0 -274.5 74.5t-171.5 196t-56 272.5q0 244 117 434q115 187 338 395l121 113h129v-2l-166 -154q-367 -332 -437 -589q55 106 164.5 169.5t247.5 63.5q151 0 263.5 -66.5t168.5 -175t56 -243.5zM1030 457
q0 174 -100 286q-100 115 -281 115q-185 0 -299 -115t-114 -286q0 -172 109 -288t288 -116q181 0 289 115.5t108 288.5z" />
    <glyph glyph-name="six.tf" 
d="M1104 436q0 -126 -58 -231.5t-169.5 -170.5t-255.5 -65q-116 0 -210.5 41t-155 112.5t-92.5 165t-32 201.5q0 233 113 416q112 181 327 381l117 107h135v-2l-207 -189q-292 -267 -368 -508q57 96 159 151.5t230 55.5q140 0 248 -64t163.5 -169t55.5 -232zM1001 436
q0 166 -99 273.5t-271 107.5q-168 0 -280.5 -111t-112.5 -270q0 -164 105 -273.5t278 -109.5q175 0 277.5 109t102.5 274z" />
    <glyph glyph-name="seven.case" horiz-adv-x="1091" 
d="M43 1454h999v-68q-223 -277 -395 -647q-174 -373 -227 -739h-103q52 350 228 729q173 373 385 641h-887v84z" />
    <glyph glyph-name="seven.tf" 
d="M96 1393h973v-68q-212 -264 -387 -623q-171 -356 -217 -702h-103q44 329 213 686q168 357 375 623h-854v84z" />
    <glyph glyph-name="eight.case" horiz-adv-x="1230" 
d="M1133 391q0 -183 -141.5 -300.5t-375.5 -117.5q-237 0 -377.5 117t-140.5 301q0 140 83.5 245.5t230.5 149.5q-110 43 -172 127t-62 193q0 163 124 268t314 105t314.5 -105t124.5 -268q0 -108 -63 -192t-171 -128q146 -44 229 -149.5t83 -245.5zM616 823q150 0 245 81
t95 210q0 120 -95 200.5t-245 80.5t-245 -80.5t-95 -200.5q0 -129 95 -210t245 -81zM1030 391q0 157 -115 252q-116 96 -301 96t-299 -97t-114 -251q0 -147 112.5 -240.5t300.5 -93.5q189 0 302.5 93.5t113.5 240.5z" />
    <glyph glyph-name="eight.tf" 
d="M1106 377q0 -176 -136.5 -291t-363.5 -115t-364.5 115t-137.5 291q0 136 81.5 237t224.5 142q-110 39 -171 119t-61 188q0 158 119.5 258t308.5 100q187 0 306.5 -100t119.5 -258q0 -107 -61 -187.5t-168 -119.5q141 -41 222 -142t81 -237zM606 793q146 0 237 76.5
t91 199.5q0 118 -90 193t-238 75t-237.5 -75t-89.5 -193q0 -123 90.5 -199.5t236.5 -76.5zM1004 377q0 150 -109 241t-291 91q-180 0 -288.5 -91t-108.5 -241q0 -139 108.5 -230.5t288.5 -91.5q181 0 290.5 91.5t109.5 230.5z" />
    <glyph glyph-name="nine.case" horiz-adv-x="1230" 
d="M1102 946q0 -163 -60 -311q-54 -136 -147.5 -255.5t-249.5 -264.5l-119 -115h-133v2l168 154q342 312 424 563q-61 -95 -167 -151t-234 -56q-149 0 -262.5 68t-170.5 177t-57 240t60.5 241t176.5 177.5t265 67.5q121 0 218 -41.5t159.5 -115t95.5 -170.5t33 -210z
M993 997q0 173 -109 287.5t-288 114.5q-183 0 -291 -114t-108 -288q0 -175 102.5 -288t282.5 -113q185 0 298 115.5t113 285.5z" />
    <glyph glyph-name="nine.tf" 
d="M1077 903q0 -233 -114 -418q-115 -186 -326 -379l-115 -106h-135v2l205 188q293 268 369 508q-57 -96 -159 -151t-235 -55q-209 0 -336 134.5t-127 329.5q0 126 58.5 231.5t170.5 170.5t255 65q116 0 210 -41t154.5 -112.5t92.5 -165t32 -201.5zM971 956
q0 164 -105 273.5t-278 109.5q-175 0 -278 -109t-103 -274q0 -164 99 -272.5t269 -108.5q176 0 286 110t110 271z" />
    <glyph glyph-name="zero.dnom" horiz-adv-x="813" 
d="M78 418q0 185 84 313q85 125 244 125q158 0 243 -125q86 -127 86 -313q0 -187 -86 -314q-84 -124 -243 -124q-160 0 -244 124q-84 128 -84 314zM645 418q0 162 -65 263t-174 101q-108 0 -173 -101.5t-65 -262.5t65 -263t173 -102q109 0 174 101.5t65 263.5z" />
    <glyph glyph-name="one.dnom" horiz-adv-x="647" 
d="M352 836h74v-836h-84v737l-188 -143l-50 53z" />
    <glyph glyph-name="two.dnom" horiz-adv-x="813" 
d="M186 74h533v-74h-615v39q2 65 18 112t52.5 86t77 67t113.5 69l36 20q115 62 161 108t46 117q0 74 -52.5 117t-139.5 43q-120 0 -252 -129l-55 60q153 147 307 147q123 0 201.5 -67t78.5 -168q0 -69 -28 -117q-28 -45 -67.5 -75.5t-123.5 -76.5l-65 -37q-68 -40 -97 -58.5
t-62 -48t-46.5 -60t-20.5 -74.5z" />
    <glyph glyph-name="three.dnom" horiz-adv-x="800" 
d="M694 254q0 -111 -83.5 -192.5t-217.5 -81.5q-74 0 -144.5 23t-166.5 79l45 63q83 -50 142.5 -69t127.5 -19q92 0 149.5 53.5t57.5 143.5q0 85 -59 134.5t-154 49.5q-61 0 -108 -18l-45 51l321 291h-448v74h553v-82l-285 -250q6 2 29 2q121 0 203.5 -68.5t82.5 -183.5z
" />
    <glyph glyph-name="four.dnom" horiz-adv-x="811" 
d="M608 274h131v-71h-131v-203h-86v203h-444v80l366 553h97l-375 -562h356v199h86v-199z" />
    <glyph glyph-name="five.dnom" horiz-adv-x="808" 
d="M717 272q0 -120 -86 -204t-221 -84q-83 0 -158.5 25.5t-163.5 82.5l47 62q90 -56 147.5 -76.5t127.5 -20.5q98 0 157.5 59.5t59.5 151.5q0 87 -57 140t-154 53q-57 0 -111 -20t-92 -56l-76 12l47 439h488v-74h-424l-33 -301q89 74 215 74q117 0 202 -75t85 -188z" />
    <glyph glyph-name="six.dnom" horiz-adv-x="819" 
d="M725 270q0 -118 -88.5 -204t-224.5 -86q-150 0 -234 93t-84 244q0 294 350 519h134v-2q-126 -68 -228 -164q-107 -101 -153 -205q84 96 231 96q135 0 216 -84.5t81 -206.5zM643 272q0 93 -60 154t-157 61q-104 0 -174 -61.5t-70 -153.5q0 -95 63.5 -157t166.5 -62
q104 0 167.5 62t63.5 157z" />
    <glyph glyph-name="seven.dnom" horiz-adv-x="753" 
d="M55 836h627v-72q-168 -190 -258 -391q-93 -206 -105 -373h-81q22 180 106 383q88 207 248 381h-537v72z" />
    <glyph glyph-name="eight.dnom" horiz-adv-x="819" 
d="M723 225q0 -108 -84 -174.5t-229 -66.5t-229.5 66.5t-84.5 174.5q0 78 48.5 135t136.5 82q-70 27 -110 78.5t-40 116.5q0 98 76.5 158.5t202.5 60.5q127 0 203.5 -61t76.5 -158q0 -65 -40.5 -116.5t-110.5 -78.5q88 -25 136 -82t48 -135zM410 473q90 0 145 45t55 115
q0 68 -54.5 110.5t-145.5 42.5q-90 0 -144.5 -42.5t-54.5 -110.5q0 -69 56 -114.5t143 -45.5zM639 225q0 83 -60 130.5t-169 47.5q-108 0 -169 -48t-61 -130q0 -76 61.5 -122t168.5 -46t168 46t61 122z" />
    <glyph glyph-name="nine.dnom" horiz-adv-x="813" 
d="M719 524q0 -293 -350 -518h-133v2q122 65 227 162q110 104 155 205q-82 -94 -233 -94q-135 0 -216 84t-81 206q0 118 88.5 204.5t224.5 86.5q150 0 234 -93t84 -245zM631 569q0 95 -63.5 156t-166.5 61q-104 0 -167.5 -61t-63.5 -156q0 -93 60 -154t157 -61
q104 0 174 61.5t70 153.5z" />
    <glyph glyph-name="zero.numr" horiz-adv-x="813" 
d="M78 975q0 185 84 313q85 125 244 125q158 0 243 -125q86 -127 86 -313t-86 -313q-85 -125 -243 -125q-159 0 -244 125q-84 128 -84 313zM645 975q0 162 -65 263t-174 101q-108 0 -173 -101.5t-65 -262.5t65 -263t173 -102q109 0 174 101.5t65 263.5z" />
    <glyph glyph-name="one.numr" horiz-adv-x="647" 
d="M352 1393h74v-836h-84v737l-188 -143l-50 53z" />
    <glyph glyph-name="two.numr" horiz-adv-x="813" 
d="M186 631h533v-74h-615v39q2 65 18 112t52.5 86t77 67t113.5 69l36 20q115 62 161 108.5t46 117.5q0 74 -52.5 116.5t-139.5 42.5q-120 0 -252 -129l-55 60q153 147 307 147q123 0 201.5 -67t78.5 -168q0 -69 -28 -117q-28 -45 -67.5 -75.5t-123.5 -76.5l-65 -37
q-68 -40 -97 -58.5t-62 -48t-46.5 -60t-20.5 -74.5z" />
    <glyph glyph-name="three.numr" horiz-adv-x="800" 
d="M694 811q0 -111 -83.5 -192.5t-217.5 -81.5q-74 0 -144.5 23t-166.5 79l45 63q83 -50 142.5 -69t127.5 -19q92 0 149.5 53.5t57.5 143.5q0 85 -59 134.5t-154 49.5q-61 0 -108 -18l-45 51l321 291h-448v74h553v-82l-285 -250q6 2 29 2q121 0 203.5 -68.5t82.5 -183.5z
" />
    <glyph glyph-name="four.numr" horiz-adv-x="811" 
d="M608 831h131v-71h-131v-203h-86v203h-444v80l366 553h97l-375 -562h356v199h86v-199z" />
    <glyph glyph-name="five.numr" horiz-adv-x="808" 
d="M717 829q0 -120 -86 -204t-221 -84q-83 0 -158.5 25.5t-163.5 82.5l47 62q90 -56 147.5 -76.5t127.5 -20.5q98 0 157.5 59.5t59.5 151.5q0 87 -57 140t-154 53q-57 0 -111 -20t-92 -56l-76 12l47 439h488v-74h-424l-33 -301q89 74 215 74q117 0 202 -75t85 -188z" />
    <glyph glyph-name="six.numr" horiz-adv-x="819" 
d="M725 827q0 -118 -88.5 -204t-224.5 -86q-150 0 -234 93t-84 244q0 294 350 519h134v-2q-126 -68 -228 -164q-107 -101 -153 -205q84 96 231 96q135 0 216 -84.5t81 -206.5zM643 829q0 93 -60 154t-157 61q-104 0 -174 -61.5t-70 -153.5q0 -95 63.5 -157t166.5 -62
q104 0 167.5 62t63.5 157z" />
    <glyph glyph-name="seven.numr" horiz-adv-x="753" 
d="M55 1393h627v-72q-168 -190 -258 -391q-93 -206 -105 -373h-81q22 180 106 383q88 207 248 381h-537v72z" />
    <glyph glyph-name="eight.numr" horiz-adv-x="819" 
d="M723 793q0 -108 -84 -175t-229 -67t-229.5 67t-84.5 175q0 78 48.5 135t136.5 82q-70 27 -110 78t-40 116q0 98 76.5 158.5t202.5 60.5q127 0 203.5 -61t76.5 -158q0 -65 -40.5 -116t-110.5 -78q88 -25 136 -82t48 -135zM410 1040q90 0 145 45t55 115q0 68 -54.5 111
t-145.5 43q-90 0 -144.5 -43t-54.5 -111q0 -69 56 -114.5t143 -45.5zM639 793q0 83 -60 130.5t-169 47.5q-108 0 -169 -48t-61 -130q0 -76 61.5 -122t168.5 -46t168 46t61 122z" />
    <glyph glyph-name="nine.numr" horiz-adv-x="813" 
d="M719 1081q0 -293 -350 -518h-133v2q122 65 227 162q110 104 155 205q-82 -94 -233 -94q-135 0 -216 84t-81 206q0 118 88.5 204.5t224.5 86.5q150 0 234 -93t84 -245zM631 1126q0 95 -63.5 156t-166.5 61q-104 0 -167.5 -61t-63.5 -156q0 -93 60 -154t157 -61
q104 0 174 61.5t70 153.5z" />
    <glyph glyph-name="period.ss02" horiz-adv-x="382" 
d="M109 74q0 33 25.5 57.5t60.5 24.5q32 0 56.5 -25t24.5 -57q0 -35 -24.5 -60.5t-56.5 -25.5q-35 0 -60.5 25.5t-25.5 60.5z" />
    <glyph glyph-name="comma.ss02" horiz-adv-x="382" 
d="M299 10q0 -81 -54 -156t-134 -81v53q45 8 79 57t35 111q-15 -6 -35 -6q-35 0 -58 23.5t-23 60.5q0 36 25.5 61t58.5 25q49 0 77.5 -38t28.5 -110z" />
    <glyph glyph-name="colon.ss02" horiz-adv-x="464" 
d="M150 897q0 33 25.5 57.5t60.5 24.5q32 0 56.5 -25t24.5 -57q0 -35 -24.5 -60.5t-56.5 -25.5q-35 0 -60.5 25.5t-25.5 60.5zM150 74q0 33 25.5 57.5t60.5 24.5q32 0 56.5 -25t24.5 -57q0 -35 -24.5 -60.5t-56.5 -25.5q-35 0 -60.5 25.5t-25.5 60.5z" />
    <glyph glyph-name="semicolon.ss02" horiz-adv-x="464" 
d="M150 897q0 33 25.5 57.5t60.5 24.5q32 0 56.5 -25t24.5 -57q0 -35 -24.5 -60.5t-56.5 -25.5q-35 0 -60.5 25.5t-25.5 60.5zM340 10q0 -81 -54 -156t-134 -81v53q45 8 79 57t35 111q-15 -6 -35 -6q-35 0 -58 23.5t-23 60.5q0 36 25 61t58 25q49 0 78 -38t29 -110z" />
    <glyph glyph-name="ellipsis.ss02" horiz-adv-x="1165" 
d="M129 74q0 33 25.5 57.5t60.5 24.5q32 0 57 -25t25 -57q0 -35 -24.5 -60.5t-57.5 -25.5q-35 0 -60.5 25.5t-25.5 60.5zM500 74q0 33 25.5 57.5t60.5 24.5q32 0 57 -25t25 -57q0 -35 -24.5 -60.5t-57.5 -25.5q-35 0 -60.5 25.5t-25.5 60.5zM870 74q0 33 25.5 57.5
t60.5 24.5q32 0 57 -25t25 -57q0 -35 -24.5 -60.5t-57.5 -25.5q-35 0 -60.5 25.5t-25.5 60.5z" />
    <glyph glyph-name="exclam.ss02" horiz-adv-x="514" 
d="M322 1454v-432l-23 -651h-59l-23 651v432h105zM188 74q0 33 24.5 57.5t59.5 24.5t59.5 -24.5t24.5 -57.5q0 -35 -24.5 -60.5t-59.5 -25.5t-59.5 25.5t-24.5 60.5z" />
    <glyph glyph-name="exclamdown.case" horiz-adv-x="491" 
d="M174 1296v158h139v-158h-139zM190 0v432l23 651h59l23 -651v-432h-105z" />
    <glyph glyph-name="exclamdown.case.ss02" horiz-adv-x="491" 
d="M324 1380q0 -33 -24.5 -57.5t-59.5 -24.5t-59.5 24.5t-24.5 57.5q0 35 24.5 60.5t59.5 25.5t59.5 -25.5t24.5 -60.5zM190 0v432l23 651h59l23 -651v-432h-105z" />
    <glyph glyph-name="exclamdown.ss02" horiz-adv-x="409" 
d="M311 903q0 -33 -24.5 -57.5t-59.5 -24.5t-59.5 24.5t-24.5 57.5q0 35 24.5 60.5t59.5 25.5t59.5 -25.5t24.5 -60.5zM178 -477v432l23 651h59l23 -651v-432h-105z" />
    <glyph glyph-name="question.ss02" horiz-adv-x="974" 
d="M410 360v97q2 66 8.5 104t31 78t49 65.5t89.5 86.5l41 34q111 98 154.5 162t43.5 150q0 112 -90 184t-219 72q-102 0 -188 -40t-197 -139l-61 68q113 105 216.5 153t229.5 48q78 0 150.5 -22.5t131.5 -64t94.5 -109t35.5 -150.5q0 -82 -35 -150q-30 -62 -69.5 -106
t-118.5 -113q-32 -25 -60 -53q-58 -55 -79 -76.5t-43 -55t-29 -63t-13 -82.5l-6 -78h-67zM358 74q0 33 25.5 57.5t60.5 24.5q32 0 57 -25t25 -57q0 -35 -24.5 -60.5t-57.5 -25.5q-35 0 -60.5 25.5t-25.5 60.5z" />
    </font>
</defs>
</svg>
